<?xml version="1.0" encoding="utf-8"?>
<!-- Generator: Adobe Illustrator 19.1.0, SVG Export Plug-In . SVG Version: 6.00 Build 0)  -->
<svg version="1.1" id="Layer_1" xmlns="http://www.w3.org/2000/svg" xmlns:xlink="http://www.w3.org/1999/xlink" x="0px" y="0px"
	 viewBox="-20 30.7 100 80" style="enable-background:new -20 30.7 100 80;" xml:space="preserve">
<style type="text/css">
	.st0{fill:#EE2A24;}
</style>
<path class="st0" d="M61.7,73.7c-1.4,0-2.7,0.8-3.3,2l-5.4,10.2l-6.6-19.5c-0.5-1.5-1.9-2.5-3.4-2.5c-1.6,0-3,0.9-3.6,2.3l-4.6,10.8
	l-7.2-43.1c-0.3-1.8-2-3.2-3.8-3.1c-1.8,0-3.4,1.3-3.6,3.1l-6.4,50.1L8.6,57c-0.3-1.6-1.6-2.8-3.2-3c-1.6-0.2-3.2,0.6-3.9,2.1
	l-8.4,17.6H-20v7.5h15.5c1.4,0,2.8-0.8,3.4-2.1l4.5-9.4l7.3,38.1c0.3,1.8,1.9,3,3.7,3c0,0,0.1,0,0.1,0c1.8,0,3.4-1.4,3.6-3.2
	l6.3-49.2l5.2,32.4c0.3,1.6,1.6,2.9,3.3,3.1c1.7,0.2,3.2-0.7,3.9-2.3l5.6-13.4l6.3,18.4c0.5,1.4,1.8,2.4,3.3,2.5
	c1.5,0.1,2.9-0.7,3.6-2l8.4-15.8H80v-7.5H61.7z"/>
</svg>
