<?xml version="1.0" encoding="utf-8"?>
<!-- Generator: Adobe Illustrator 14.0.0, SVG Export Plug-In . SVG Version: 6.00 Build 43363)  -->
<!DOCTYPE svg PUBLIC "-//W3C//DTD SVG 1.1//EN" "http://www.w3.org/Graphics/SVG/1.1/DTD/svg11.dtd">
<svg version="1.1" id="Layer_1" xmlns="http://www.w3.org/2000/svg" xmlns:xlink="http://www.w3.org/1999/xlink" x="0px" y="0px"
	 width="200px" height="200px" viewBox="0 0 200 200" enable-background="new 0 0 200 200" xml:space="preserve">
<g>
	<polygon fill="#FFFFFF" points="10.269,110.436 10.729,113.344 17.114,112.33 18,117.918 11.616,118.934 12.07,121.838 
		26.182,119.607 25.727,116.699 20.417,117.541 19.536,111.949 24.834,111.107 24.379,108.201 	"/>
	<path fill="#FFFFFF" d="M17.373,130.666c-0.339-0.877-0.425-1.855-0.047-2.801c0.467-1.186,1.743-2.178,3.182-2.752
		c1.455-0.535,3.067-0.648,4.207-0.084c0.909,0.451,1.508,1.23,1.837,2.105c0.34,0.881,0.42,1.855,0.047,2.799
		c-0.466,1.186-1.744,2.18-3.179,2.754c-1.457,0.541-3.071,0.66-4.213,0.084C18.3,132.326,17.706,131.545,17.373,130.666
		 M24.426,135.322c2.015-0.773,3.747-2.277,4.566-4.012c0.72-1.566,0.613-3.387-0.044-5.09c-0.65-1.705-1.788-3.137-3.366-3.805
		c-1.777-0.748-4.072-0.709-6.083,0.068c-2.012,0.771-3.746,2.27-4.564,4.02c-0.728,1.555-0.611,3.379,0.04,5.084
		c0.656,1.691,1.788,3.129,3.37,3.803C20.119,136.137,22.414,136.096,24.426,135.322"/>
	<polygon fill="#FFFFFF" points="31.456,133.414 19.207,140.777 20.727,143.299 29.258,138.168 23.698,148.248 25.199,150.738 
		37.441,143.383 35.931,140.859 27.515,145.916 32.952,135.906 	"/>
	<path fill="#FFFFFF" d="M35.652,155.754l2.089,2.498c-0.312,0.236-0.821,0.668-2.031,0.65c-1.354,0.039-2.528-0.814-3.098-1.643
		c-0.923-1.373-0.674-2.967-0.136-4.158c0.745-1.648,3.599-3.914,5.909-3.506c0.948,0.285,1.604,0.66,2.229,1.41
		c0.986,1.166,1.42,2.695,0.445,4.18l1.725,2.059c0.201-0.246,1.214-1.018,1.42-3.316c0.161-2.029-0.942-3.561-1.814-4.59
		c-0.794-0.947-1.568-1.469-2.142-1.76c-4.693-2.33-10.582,2.023-10.93,6.639c-0.051,0.912-0.28,2.277,1.272,4.355
		c1.695,2.256,3.592,2.232,4.695,2.203l-1.146,1.414l1.139,1.348l5.916-4.959l-3.679-4.383L35.652,155.754z"/>
	<polygon fill="#FFFFFF" points="43.255,170.521 45.633,172.244 48.317,168.551 50.504,168.105 50.581,175.84 53.448,177.924 
		53.164,167.713 61.391,166.033 58.562,163.977 50.346,165.766 54.031,160.691 51.648,158.959 	"/>
	<path fill="#FFFFFF" d="M62.385,179.971c-0.853-0.402-1.588-1.047-1.975-1.98c-0.491-1.186-0.256-2.777,0.373-4.197
		c0.681-1.391,1.758-2.594,2.977-2.982c0.963-0.305,1.931-0.158,2.784,0.24c0.853,0.404,1.586,1.051,1.974,1.982
		c0.491,1.172,0.259,2.777-0.375,4.191c-0.671,1.398-1.756,2.596-2.973,2.986C64.206,180.516,63.236,180.369,62.385,179.971
		 M70.699,178.416c0.914-1.953,1.112-4.242,0.489-6.066c-0.563-1.615-1.913-2.857-3.562-3.621c-1.65-0.775-3.459-1.016-5.064-0.396
		c-1.802,0.691-3.423,2.313-4.339,4.277c-0.908,1.949-1.106,4.232-0.487,6.055c0.565,1.621,1.912,2.865,3.563,3.631
		c1.65,0.768,3.461,1.006,5.067,0.4C68.168,181.99,69.785,180.369,70.699,178.416"/>
	<polygon fill="#FFFFFF" points="74.464,172.094 70.765,185.893 73.605,186.65 76.182,177.037 79.187,188.143 81.99,188.898 
		85.688,175.098 82.849,174.334 80.31,183.824 77.263,172.85 	"/>
	<path fill="#FFFFFF" d="M92.94,185.051l3.245,0.285c-0.058,0.389-0.116,1.049-0.979,1.896c-0.931,0.977-2.369,1.213-3.356,1.031
		c-1.626-0.328-2.573-1.623-3.036-2.85c-0.643-1.688-0.218-5.305,1.708-6.652c0.861-0.477,1.589-0.674,2.569-0.582
		c1.519,0.131,2.909,0.898,3.269,2.65l2.674,0.23c-0.035-0.316,0.138-1.582-1.338-3.35c-1.324-1.549-3.187-1.846-4.534-1.963
		c-1.223-0.111-2.148,0.063-2.757,0.273c-4.965,1.662-6.052,8.904-3.035,12.416c0.612,0.686,1.417,1.818,3.984,2.174
		c2.794,0.404,4.113-0.947,4.875-1.754l0.194,1.807l1.755,0.158l0.676-7.689l-5.701-0.502L92.94,185.051z"/>
	<path fill="#FFFFFF" d="M109.94,178.289l3.923-0.621c1.299-0.207,1.857,0.303,2.017,1.307c0.392,1.365-0.711,2.277-1.389,2.381
		l-3.969,0.629L109.94,178.289z M108.883,190.445l2.909-0.465l-0.887-5.572l3.405-0.539c1.007-0.16,1.781,0.189,1.968,1.131
		c0.119,1.035,0.301,2.158,0.452,2.848c0.106,0.459,0.294,0.867,0.597,1.256l3.112-0.49l-0.084-0.525
		c-0.341-0.145-0.603-0.279-0.728-1.074c-0.133-0.713-0.462-2.563-0.631-3.137c-0.36-1.25-1.346-1.453-1.877-1.707
		c0.857-0.705,1.405-1.254,1.561-2.523c0.16-1.285-0.293-2.234-0.584-2.83c-0.65-1.459-2.188-1.893-3.605-1.732l-7.837,1.242
		L108.883,190.445z"/>
	<polygon fill="#FFFFFF" points="119.509,174.023 123.923,187.605 134.079,184.311 133.325,181.979 125.963,184.367 
		124.819,180.863 131.325,178.756 130.573,176.422 124.062,178.533 123.06,175.441 130.104,173.154 129.348,170.82 	"/>
	<path fill="#FFFFFF" d="M134.378,171.064l2.334-1.238c0.937-0.506,1.713-0.674,2.885-0.055c0.792,0.404,1.539,1.359,2.102,2.414
		c0.572,1.031,0.947,2.16,0.98,2.93c0.083,1.545-0.623,2.5-1.818,3.139l-2.077,1.094L134.378,171.064z M137.339,182.893l5.689-3.023
		c1.316-0.701,2.277-2.316,2.424-4.131c0.111-1.209-0.146-3.072-1.314-5.27c-0.69-1.301-1.514-2.129-2.041-2.508
		c-2.342-1.732-4.307-1.486-5.598-0.801l-5.869,3.123L137.339,182.893z"/>
	<path fill="#FFFFFF" d="M159.605,161.836c0.333,0.545,1.261,1.66,0.124,3.439c-0.227,0.365-0.507,0.695-0.81,0.949
		c-0.308,0.277-0.636,0.463-1.019,0.594c-0.765,0.238-1.664,0.203-2.704-0.248c-0.886-0.396-1.687-1.146-2.338-1.924
		c-0.644-0.807-1.123-1.629-1.325-2.145c-0.455-1.213-0.334-2.619,0.594-3.592c1.981-2.074,3.827-1.014,4.422-0.469l2.084-1.879
		c-0.496-0.521-1.807-1.83-4.266-1.488c-1.699,0.193-2.842,1.057-3.6,1.74c-2.753,2.484-2.617,5.18-1.431,7.697
		c0.354,0.754,0.948,1.549,1.587,2.266c0.629,0.693,1.32,1.289,1.881,1.68c2.583,1.732,5.594,1.762,7.891-0.434
		c1.273-1.223,2.018-2.795,2.201-3.848c0.24-1.354-0.25-3.127-1.209-4.225L159.605,161.836z"/>
	<path fill="#FFFFFF" d="M160.022,151.354l2.51-3.094c0.826-1.016,1.574-1.016,2.373-0.371c1.203,0.754,0.992,2.166,0.557,2.701
		l-2.527,3.119L160.022,151.354z M167.378,161.088l1.85-2.285l-4.385-3.555l2.17-2.676c0.639-0.793,1.447-1.051,2.221-0.471
		c0.783,0.684,1.664,1.396,2.236,1.811c0.391,0.271,0.799,0.449,1.279,0.531l1.992-2.443l-0.41-0.338
		c-0.352,0.125-0.641,0.193-1.26-0.309c-0.578-0.447-2.064-1.6-2.572-1.906c-1.104-0.699-1.971-0.191-2.535-0.014
		c0.166-1.104,0.203-1.875-0.533-2.922c-0.732-1.057-1.711-1.471-2.324-1.713c-1.461-0.652-2.893,0.057-3.84,1.131l-4.992,6.172
		L167.378,161.088z"/>
	<path fill="#FFFFFF" d="M177.786,142.555c-0.455,0.822-1.145,1.518-2.109,1.83c-1.217,0.402-2.793,0.063-4.152-0.666
		c-1.354-0.768-2.473-1.932-2.775-3.168c-0.236-0.982-0.02-1.943,0.432-2.764c0.461-0.82,1.154-1.512,2.113-1.834
		c1.211-0.408,2.795-0.068,4.158,0.674c1.342,0.764,2.473,1.926,2.77,3.166C178.46,140.777,178.249,141.732,177.786,142.555
		 M176.821,134.156c-1.891-1.049-4.152-1.406-6.014-0.908c-1.658,0.438-2.986,1.699-3.867,3.287
		c-0.889,1.602-1.248,3.389-0.75,5.039c0.572,1.84,2.076,3.568,3.963,4.611c1.885,1.047,4.148,1.41,6.012,0.916
		c1.66-0.451,2.984-1.711,3.869-3.301c0.879-1.592,1.246-3.387,0.752-5.029C180.214,136.932,178.71,135.203,176.821,134.156"/>
	<path fill="#FFFFFF" d="M178.171,121.281c-0.41-0.264-1.732-0.514-2.885-0.119c-2.121,0.74-3.043,3.23-3.293,3.961
		c-1.139,3.293-0.076,5.4,2,6.367c2.105,0.973,3.574,0.131,4.58-1.154c1.197-1.541,2.113-4.207,3.35-4.781
		c0.895-0.441,1.904,0.053,2.256,0.842c0.213,0.463,0.195,1.428-0.115,2.365c-0.273,0.936-0.826,1.867-1.664,2.264
		c-0.645,0.293-1.236,0.219-1.59,0.094l-0.934,2.703c1.314,0.35,2.854,0.221,4.139-0.686c1.066-0.758,1.871-2.299,2.082-2.994
		c0.504-1.506,0.861-3.145,0.514-4.551c-0.514-2.055-3.471-3.885-5.637-2.895c-1.16,0.559-2.045,2.029-2.432,2.736
		c-0.273,0.482-1.557,2.898-2.004,3.104c-0.447,0.516-0.736,0.775-1.645,0.379c-1.08-0.475-1.195-1.627-0.713-2.984
		c0.693-1.895,2.01-2.455,3.084-2.043L178.171,121.281z"/>
	<path fill="#FFFFFF" d="M180.397,108.961c-0.453-0.186-1.795-0.205-2.859,0.385c-1.965,1.09-2.434,3.717-2.563,4.467
		c-0.535,3.457,0.863,5.342,3.076,5.93c2.242,0.592,3.549-0.498,4.316-1.938c0.908-1.721,1.348-4.508,2.461-5.289
		c0.803-0.582,1.887-0.273,2.373,0.436c0.287,0.424,0.438,1.377,0.299,2.357c-0.111,0.973-0.488,1.98-1.254,2.514
		c-0.576,0.402-1.172,0.438-1.541,0.371l-0.451,2.83c1.355,0.111,2.848-0.287,3.957-1.4c0.914-0.93,1.436-2.59,1.529-3.311
		c0.232-1.568,0.293-3.242-0.285-4.566c-0.861-1.945-4.094-3.229-6.057-1.877c-1.047,0.75-1.662,2.359-1.92,3.111
		c-0.18,0.527-1.025,3.129-1.428,3.406c-0.352,0.598-0.602,0.896-1.553,0.664c-1.152-0.281-1.465-1.404-1.227-2.814
		c0.359-1.982,1.549-2.766,2.691-2.545L180.397,108.961z"/>
	<path fill="#FFFFFF" d="M26.098,64.592l0.888,1.546c-2.522,1.253-4.68,3.23-6.471,5.915l-0.885-1.633
		C21.187,68.093,23.333,66.149,26.098,64.592 M25.988,79.67l1.807,0.618l2.841-8.243l-1.812-0.629L25.988,79.67z M24.419,79.13
		l2.84-8.25l-1.576-0.545l-2.841,8.249L24.419,79.13z M21.091,78.569l1.323-3.839l-3.493-1.203l-0.012,0.042
		c1.034,1.366,1.748,3.023,2.133,4.985L21.091,78.569z M13.55,78.692l-1.939,0.592c2.11-6.13,3.289-11.181,3.541-15.181l1.655-0.803
		c-0.047,1.826-0.408,4.262-1.077,7.293l1.813,0.62l2.657-7.731l1.58,0.547l-2.657,7.727l3.856,1.336l1.699-4.938l9.239,3.183
		l-0.564,1.635l-1.117-0.376l-2.843,8.247l1.116,0.384l-0.564,1.637l-8.616-2.96c0.134,0.72,0.202,1.734,0.202,3.03l-1.779,0.749
		c0.112-3.559-0.491-6.38-1.821-8.476l-2.02,5.865l-1.575-0.548l2.641-7.667l-1.613-0.554L13.55,78.692z"/>
	<path fill="#FFFFFF" d="M34.766,44.357l-0.091-1.639c1.581-0.703,3.166-0.823,4.77-0.363l-0.18,1.72
		C37.619,43.666,36.12,43.766,34.766,44.357 M32.014,40.249l0.179-1.756c1.534-0.646,3.035-0.811,4.483-0.47l-0.131,1.736
		C34.979,39.395,33.471,39.556,32.014,40.249 M49.238,37.707l-3.799,3.543l1.405,1.501l3.797-3.548L49.238,37.707z M44.066,40.265
		l4.408-4.114c-0.672-0.082-1.447-0.25-2.329-0.505l-2.55,2.38C43.838,38.546,43.998,39.295,44.066,40.265 M45.074,34.357
		l-1.616-1.724l-2.77,2.573l1.618,1.733L45.074,34.357z M46.337,33.183l2.552-2.38l1.139,1.221l-2.558,2.384
		c0.886,0.238,1.913,0.32,3.089,0.22c1.172-0.091,2.104-0.303,2.803-0.658l0.059,1.79c-1.15,0.361-2.198,0.527-3.139,0.516
		l2.764,2.958l-5.07,4.731l0.945,1.019c0.358,0.374,0.683,0.425,0.992,0.142l4.356-4.074c0.183-0.158,0.271-0.361,0.266-0.592
		c0.006-0.233-0.328-0.786-0.992-1.655l1.216-1.136c0.941,1.083,1.467,1.959,1.579,2.611c0.107,0.646-0.112,1.219-0.651,1.721
		l-5.027,4.693c-0.436,0.411-0.889,0.59-1.352,0.546c-0.462-0.038-0.876-0.257-1.257-0.667l-3.992-4.282
		c-0.206,1.198-0.406,2.049-0.598,2.547l-1.515-0.196c1.825,2.641,2.923,5.382,3.287,8.24l-1.819,0.445
		c-0.036-1.899-1.053-4.646-3.056-8.24l1.494-0.711c0.702-1.862,0.832-3.552,0.387-5.09l-2.596,2.415l-1.136-1.218l2.526-2.358
		l-1.61-1.739l-1.899,1.771l-1.13-1.209l1.893-1.772l-1.741-1.867l1.266-1.187l1.748,1.872l2.767-2.58l-1.748-1.87l1.268-1.179
		l1.744,1.869l1.899-1.771l1.136,1.212l-1.905,1.778L46.337,33.183z"/>
	<path fill="#FFFFFF" d="M78.499,29.722l-1.608,0.452c-0.056-0.354-0.124-0.718-0.208-1.052c-0.274-1.113-0.753-2.195-1.427-3.244
		l1.475-0.709c0.745,1.181,1.266,2.368,1.563,3.566C78.379,29.057,78.447,29.389,78.499,29.722 M74.138,31.822l-1.644-0.175
		c0.491-1.722,0.65-3.646,0.491-5.79l1.59,0.009C74.878,28.368,74.736,30.358,74.138,31.822 M81.375,26.775l-1.499,0.743
		c-0.468-1.008-1.226-1.925-2.284-2.765l1.521-0.764C80,24.631,80.755,25.559,81.375,26.775 M87.568,11.64l-4.358,1.092
		l3.278,13.167l5.313-1.321l0.4,1.62l-11.605,2.896l-0.405-1.623l4.481-1.117l-3.286-13.174l-3.902,0.977l-0.402-1.622l10.083-2.511
		L87.568,11.64z M76.319,20.899l1.323-0.985c1.357,0.774,2.432,1.788,3.225,3.043l-1.452,1.007
		c-0.183-0.454-0.352-0.713-0.509-0.795l-6.271,2.375l-1.165-1.278c1.597-2.191,2.697-3.935,3.308-5.245
		c-1.257,0.434-2.566,0.949-3.92,1.541l-1.129-1.31c1.837-2.32,3.073-4.778,3.707-7.377l1.629,0.513
		c-0.602,2.205-1.469,4.109-2.588,5.689l0.047,0.036l3.126-1.143c0.046-0.138,0.138-0.414,0.289-0.823
		c0.155-0.412,0.266-0.796,0.342-1.135l1.637,0.338c-0.615,2.598-1.872,5.188-3.776,7.754l0.064,0.031l3.483-1.263
		C77.606,21.789,77.149,21.463,76.319,20.899"/>
	<polygon fill="#FFFFFF" points="112.458,15.655 120.333,17.618 122.18,10.194 124.038,10.655 122.19,18.081 130.077,20.049 
		129.65,21.755 121.759,19.785 119.034,30.726 117.175,30.263 119.903,19.331 112.033,17.368 	"/>
	<path fill="#FFFFFF" d="M154.757,43.196l-3.13,3.347c-0.423,0.457-0.905,0.711-1.43,0.741c-0.519,0.038-1.017-0.165-1.486-0.594
		l-1.812-1.699c0.338-0.703,0.595-1.326,0.778-1.86l1.432,1.513c0.098,0.1,0.256,0.227,0.476,0.392
		c0.223,0.173,0.4,0.249,0.521,0.216c0.138-0.025,0.266-0.1,0.393-0.232l2.89-3.096l-6.284-5.86l1.184-1.268l6.29,5.858l0.832-0.896
		c1.925,0.597,3.523,0.884,4.796,0.854l-6.727-6.279l1.129-1.21l8.547,7.969l-1.041,1.119c-2.075,0.167-4.084,0.009-6.008-0.469
		l-0.173,0.187l6.21,5.79l-1.18,1.263L154.757,43.196z M155.269,28.307l5.769,5.381c0.137-0.815,0.041-1.696-0.296-2.634
		l2.078,0.438c0.131,1.272,0.031,2.455-0.305,3.576l5.623,5.233l-3.395,3.636l-1.273-1.183l2.207-2.371l-10.326-9.629l-2.278,2.452
		l-1.276-1.184L155.269,28.307z"/>
	<path fill="#FFFFFF" d="M169.753,71.312l3.197,9.839l0.975-0.311l-3.199-9.845L169.753,71.312z M176.378,80.042l-3.199-9.848
		l-0.865,0.284l3.201,9.842L176.378,80.042z M168.173,71.821l-1.049,0.34l-0.533-1.639l7.635-2.48l4.266,13.134l-7.629,2.478
		l-0.537-1.648l1.043-0.34L168.173,71.821z M181.966,77.167l-0.043,0.014l-0.26,1.303l-1.617-0.331l0.613,1.888l2.021-0.663
		L181.966,77.167z M178.921,74.688l0.461,1.406c0.738,0.38,1.564,0.657,2.492,0.811l-0.932-2.878L178.921,74.688z M179.198,68.881
		l0.063-0.016l-0.604-1.861l-2.016,0.658l0.729,2.249c0.111-0.145,0.406-0.794,0.895-1.962
		C178.651,68.289,178.968,68.601,179.198,68.881 M178.384,73.033l2.016-0.658l-1.031-3.184l-0.063,0.023
		c-0.309,0.899-0.754,1.741-1.344,2.515L178.384,73.033z M184.208,79l0.063-0.017c0.027-0.711,0.232-1.783,0.627-3.223l-0.668,0.216
		l-2.299-7.067l0.914-0.291c-1.027-0.849-1.977-1.768-2.832-2.749l-0.068,0.022L184.208,79z M183.909,69.524l-0.031,0.004
		l1.535,4.726l0.031-0.019c0.369-1.097,0.748-2.051,1.129-2.854C185.239,70.515,184.354,69.895,183.909,69.524 M188.681,70.534
		l-0.328,1.757l-0.48-0.303c-1.742,4.522-2.4,8.18-2,10.958l-1.766-0.573l-0.047-1.622l-4.447,1.44l-5.084-15.656l4.658-1.513
		c-0.295-0.304-0.643-0.709-1.041-1.217l1.143-1.354C182.483,66.398,185.618,69.094,188.681,70.534"/>
	<path fill="#293896" d="M33.246,99.999c0-36.866,29.888-66.753,66.756-66.753c36.866,0,66.753,29.888,66.753,66.753
		c0,36.868-29.887,66.751-66.753,66.751C63.134,166.75,33.246,136.867,33.246,99.999 M0,99.999C0,44.771,44.77,0,100.002,0
		c55.229,0,99.999,44.77,99.999,99.999c0,55.229-44.771,100.001-99.999,100.001C44.77,200,0,155.229,0,99.999"/>
	<polygon fill="#FFFFFF" points="10.131,110.725 10.589,113.619 16.961,112.611 17.844,118.188 11.474,119.197 11.93,122.096 
		26.004,119.867 25.548,116.969 20.257,117.809 19.372,112.229 24.663,111.391 24.205,108.494 	"/>
	<path fill="#FFFFFF" d="M17.217,130.898c-0.336-0.875-0.418-1.848-0.045-2.787c0.467-1.184,1.739-2.174,3.175-2.748
		c1.447-0.533,3.058-0.65,4.198-0.08c0.904,0.447,1.497,1.225,1.833,2.102c0.335,0.877,0.416,1.848,0.044,2.787
		c-0.467,1.186-1.739,2.176-3.176,2.746c-1.449,0.537-3.058,0.65-4.197,0.084C18.145,132.555,17.553,131.775,17.217,130.898
		 M24.256,135.547c2.007-0.771,3.734-2.27,4.553-4.01c0.723-1.555,0.61-3.375-0.04-5.07c-0.653-1.697-1.788-3.127-3.363-3.797
		c-1.771-0.744-4.061-0.703-6.067,0.066c-2.008,0.771-3.734,2.271-4.555,4.01c-0.721,1.555-0.608,3.375,0.042,5.072
		c0.652,1.695,1.788,3.125,3.363,3.797C19.96,136.359,22.247,136.318,24.256,135.547"/>
	<polygon fill="#FFFFFF" points="31.265,133.648 19.052,140.986 20.562,143.5 29.074,138.383 23.531,148.443 25.023,150.922 
		37.236,143.582 35.727,141.07 27.33,146.113 32.755,136.125 	"/>
	<path fill="#FFFFFF" d="M35.451,155.93l2.086,2.486c-0.312,0.236-0.823,0.662-2.027,0.654c-1.35,0.035-2.524-0.816-3.089-1.646
		c-0.923-1.369-0.671-2.955-0.138-4.143c0.739-1.645,3.588-3.904,5.898-3.494c0.945,0.277,1.593,0.65,2.22,1.4
		c0.982,1.168,1.419,2.691,0.44,4.172l1.722,2.051c0.202-0.244,1.214-1.016,1.414-3.303c0.161-2.025-0.938-3.549-1.806-4.582
		c-0.792-0.943-1.564-1.467-2.136-1.754c-4.681-2.326-10.558,2.016-10.904,6.619c-0.051,0.912-0.281,2.279,1.273,4.346
		c1.689,2.256,3.577,2.225,4.678,2.197l-1.138,1.412l1.131,1.35l5.899-4.951l-3.668-4.371L35.451,155.93z"/>
	<polygon fill="#FFFFFF" points="43.032,170.65 45.404,172.375 48.081,168.689 50.264,168.244 50.339,175.961 53.199,178.039 
		52.917,167.854 61.117,166.178 58.302,164.135 50.104,165.908 53.779,160.848 51.409,159.125 	"/>
	<path fill="#FFFFFF" d="M62.115,180.076c-0.852-0.395-1.586-1.041-1.97-1.977c-0.485-1.174-0.259-2.773,0.375-4.182
		c0.672-1.389,1.748-2.592,2.963-2.973c0.963-0.305,1.927-0.158,2.778,0.236c0.85,0.396,1.585,1.043,1.969,1.977
		c0.487,1.176,0.26,2.775-0.374,4.184c-0.67,1.389-1.749,2.59-2.963,2.973C63.931,180.619,62.966,180.473,62.115,180.076
		 M70.405,178.529c0.909-1.949,1.109-4.229,0.492-6.049c-0.562-1.619-1.906-2.85-3.555-3.617c-1.648-0.77-3.454-1.01-5.056-0.396
		c-1.79,0.697-3.407,2.314-4.317,4.264c-0.909,1.949-1.109,4.229-0.489,6.049c0.561,1.619,1.904,2.85,3.553,3.617
		c1.646,0.768,3.454,1.01,5.056,0.396C67.881,182.096,69.497,180.479,70.405,178.529"/>
	<polygon fill="#FFFFFF" points="74.161,172.219 70.474,185.984 73.306,186.74 75.877,177.152 78.874,188.234 81.669,188.982 
		85.356,175.219 82.524,174.459 79.991,183.92 76.955,172.967 	"/>
	<path fill="#FFFFFF" d="M92.591,185.146l3.233,0.281c-0.053,0.391-0.112,1.051-0.969,1.898c-0.931,0.979-2.364,1.207-3.348,1.021
		c-1.621-0.316-2.566-1.617-3.031-2.834c-0.636-1.686-0.221-5.299,1.702-6.643c0.864-0.473,1.587-0.664,2.562-0.58
		c1.518,0.133,2.904,0.902,3.261,2.639l2.669,0.236c-0.031-0.316,0.138-1.578-1.337-3.336c-1.317-1.547-3.176-1.848-4.518-1.965
		c-1.226-0.107-2.145,0.068-2.751,0.27c-4.953,1.664-6.036,8.891-3.027,12.393c0.607,0.68,1.412,1.809,3.972,2.17
		c2.788,0.402,4.104-0.953,4.86-1.75l0.195,1.801l1.753,0.154l0.672-7.674l-5.687-0.496L92.591,185.146z"/>
	<path fill="#FFFFFF" d="M109.544,178.402l3.919-0.621c1.294-0.203,1.849,0.301,2.007,1.305c0.394,1.365-0.709,2.27-1.385,2.379
		l-3.958,0.623L109.544,178.402z M108.496,190.521l2.894-0.455l-0.881-5.563l3.398-0.539c1.006-0.158,1.772,0.195,1.961,1.135
		c0.123,1.029,0.301,2.15,0.45,2.838c0.111,0.459,0.294,0.863,0.595,1.252l3.109-0.494l-0.085-0.518
		c-0.341-0.146-0.599-0.285-0.726-1.074c-0.131-0.713-0.463-2.561-0.633-3.127c-0.354-1.248-1.338-1.449-1.871-1.701
		c0.856-0.709,1.405-1.252,1.559-2.525c0.154-1.27-0.293-2.229-0.585-2.814c-0.646-1.463-2.179-1.891-3.597-1.725l-7.82,1.236
		L108.496,190.521z"/>
	<polygon fill="#FFFFFF" points="119.092,174.145 123.492,187.697 133.625,184.406 132.87,182.082 125.526,184.469 124.392,180.973 
		130.88,178.863 130.124,176.541 123.637,178.648 122.636,175.563 129.663,173.277 128.905,170.957 	"/>
	<path fill="#FFFFFF" d="M133.921,171.195l2.331-1.236c0.933-0.498,1.704-0.664,2.876-0.047c0.787,0.398,1.539,1.35,2.099,2.402
		c0.565,1.027,0.943,2.154,0.972,2.916c0.092,1.543-0.62,2.498-1.81,3.131l-2.071,1.1L133.921,171.195z M136.874,182.996l5.681-3.02
		c1.31-0.697,2.269-2.313,2.413-4.117c0.111-1.209-0.145-3.064-1.311-5.258c-0.689-1.293-1.506-2.121-2.039-2.502
		c-2.336-1.727-4.287-1.482-5.582-0.795l-5.852,3.111L136.874,182.996z"/>
	<path fill="#FFFFFF" d="M159.085,161.986c0.332,0.545,1.257,1.656,0.125,3.438c-0.227,0.363-0.506,0.695-0.811,0.943
		c-0.305,0.273-0.633,0.463-1.014,0.596c-0.759,0.238-1.656,0.203-2.698-0.25c-0.881-0.395-1.686-1.141-2.335-1.924
		c-0.637-0.793-1.119-1.623-1.314-2.131c-0.463-1.215-0.334-2.621,0.589-3.584c1.976-2.066,3.817-1.014,4.413-0.471l2.075-1.871
		c-0.499-0.523-1.802-1.824-4.253-1.484c-1.699,0.189-2.838,1.055-3.592,1.736c-2.746,2.471-2.611,5.166-1.43,7.676
		c0.364,0.754,0.945,1.545,1.586,2.256c0.629,0.697,1.316,1.287,1.879,1.676c2.58,1.729,5.582,1.762,7.869-0.43
		c1.268-1.223,2.016-2.789,2.195-3.846c0.234-1.342-0.254-3.113-1.208-4.201L159.085,161.986z"/>
	<path fill="#FFFFFF" d="M159.507,151.535l2.498-3.084c0.824-1.016,1.574-1.012,2.365-0.373c1.201,0.752,0.99,2.162,0.559,2.695
		l-2.52,3.113L159.507,151.535z M166.837,161.242l1.846-2.277l-4.377-3.543l2.168-2.672c0.637-0.791,1.445-1.043,2.215-0.469
		c0.779,0.684,1.664,1.393,2.234,1.809c0.389,0.264,0.797,0.443,1.277,0.531l1.98-2.445l-0.41-0.332
		c-0.35,0.121-0.635,0.193-1.256-0.314c-0.574-0.438-2.059-1.59-2.561-1.896c-1.102-0.689-1.967-0.184-2.531-0.014
		c0.16-1.1,0.207-1.869-0.531-2.918c-0.732-1.047-1.711-1.459-2.32-1.701c-1.455-0.652-2.885,0.053-3.826,1.125l-4.983,6.152
		L166.837,161.242z"/>
	<path fill="#FFFFFF" d="M177.222,142.762c-0.453,0.82-1.148,1.508-2.105,1.824c-1.209,0.404-2.787,0.066-4.145-0.666
		c-1.344-0.764-2.467-1.922-2.762-3.16c-0.242-0.982-0.025-1.936,0.43-2.756s1.15-1.51,2.107-1.828
		c1.207-0.402,2.785-0.064,4.146,0.668c1.34,0.766,2.465,1.924,2.76,3.162C177.894,140.988,177.677,141.941,177.222,142.762
		 M176.259,134.383c-1.883-1.045-4.141-1.402-5.998-0.912c-1.654,0.445-2.98,1.701-3.861,3.291s-1.244,3.377-0.746,5.016
		c0.568,1.838,2.072,3.563,3.951,4.604c1.881,1.045,4.141,1.404,6,0.914c1.654-0.447,2.977-1.703,3.859-3.293
		c0.881-1.59,1.242-3.377,0.744-5.016C179.64,137.15,178.14,135.424,176.259,134.383"/>
	<path fill="#FFFFFF" d="M177.599,121.539c-0.404-0.266-1.723-0.514-2.869-0.121c-2.117,0.738-3.039,3.232-3.287,3.955
		c-1.131,3.289-0.078,5.387,1.988,6.348c2.105,0.973,3.572,0.135,4.576-1.154c1.188-1.533,2.105-4.193,3.334-4.766
		c0.895-0.436,1.904,0.057,2.254,0.84c0.213,0.467,0.191,1.43-0.109,2.361c-0.279,0.938-0.828,1.865-1.666,2.258
		c-0.639,0.297-1.23,0.215-1.584,0.098l-0.926,2.695c1.303,0.348,2.838,0.215,4.119-0.688c1.066-0.75,1.867-2.293,2.086-2.984
		c0.496-1.502,0.852-3.139,0.508-4.537c-0.514-2.059-3.463-3.881-5.623-2.887c-1.164,0.551-2.043,2.023-2.428,2.719
		c-0.27,0.488-1.555,2.896-1.992,3.096c-0.451,0.529-0.746,0.777-1.643,0.387c-1.076-0.475-1.197-1.631-0.715-2.975
		c0.695-1.891,2.004-2.453,3.08-2.041L177.599,121.539z"/>
	<path fill="#FFFFFF" d="M179.819,109.25c-0.445-0.189-1.787-0.203-2.85,0.379c-1.953,1.096-2.43,3.713-2.549,4.467
		c-0.543,3.436,0.859,5.32,3.063,5.906c2.24,0.592,3.541-0.486,4.303-1.93c0.908-1.717,1.348-4.498,2.459-5.271
		c0.805-0.586,1.883-0.275,2.363,0.432c0.291,0.426,0.438,1.379,0.303,2.346c-0.113,0.973-0.49,1.98-1.25,2.512
		c-0.578,0.404-1.176,0.428-1.543,0.371l-0.443,2.818c1.348,0.113,2.834-0.281,3.938-1.393c0.92-0.924,1.439-2.584,1.535-3.301
		c0.229-1.566,0.293-3.24-0.289-4.557c-0.861-1.938-4.082-3.221-6.035-1.869c-1.051,0.744-1.662,2.352-1.916,3.102
		c-0.186,0.527-1.029,3.123-1.428,3.396c-0.355,0.596-0.596,0.895-1.553,0.664c-1.143-0.279-1.459-1.398-1.217-2.805
		c0.354-1.984,1.545-2.764,2.678-2.545L179.819,109.25z"/>
	<path fill="#FFFFFF" d="M25.915,65l0.891,1.539c-2.512,1.256-4.667,3.223-6.457,5.899l-0.881-1.631
		C21.018,68.487,23.167,66.55,25.915,65 M25.811,80.035l1.804,0.62l2.832-8.227l-1.804-0.62L25.811,80.035z M24.247,79.497
		l2.832-8.227l-1.573-0.543l-2.833,8.229L24.247,79.497z M20.927,78.941l1.32-3.832l-3.484-1.197l-0.016,0.042
		c1.036,1.356,1.744,3.014,2.129,4.969L20.927,78.941z M13.408,79.063l-1.939,0.59c2.107-6.114,3.284-11.161,3.533-15.137
		l1.65-0.804c-0.049,1.822-0.405,4.247-1.072,7.271l1.804,0.623l2.658-7.713l1.573,0.542l-2.655,7.714l3.851,1.325l1.694-4.923
		l9.215,3.175l-0.564,1.636l-1.112-0.381l-2.834,8.225l1.114,0.385l-0.564,1.636l-8.594-2.959c0.133,0.726,0.2,1.736,0.2,3.027
		l-1.769,0.741c0.109-3.545-0.496-6.361-1.823-8.445l-2.012,5.845l-1.575-0.542l2.637-7.649l-1.606-0.552L13.408,79.063z"/>
	<path fill="#FFFFFF" d="M34.565,44.813l-0.094-1.63c1.581-0.705,3.165-0.825,4.758-0.369l-0.17,1.723
		C37.414,44.128,35.915,44.22,34.565,44.813 M31.827,40.719l0.169-1.753c1.537-0.652,3.031-0.812,4.479-0.471l-0.131,1.73
		C34.78,39.862,33.274,40.027,31.827,40.719 M49.004,38.178l-3.794,3.534l1.401,1.503l3.79-3.536L49.004,38.178z M43.84,40.73
		l4.401-4.102c-0.674-0.082-1.447-0.25-2.324-0.507L43.369,38.5C43.619,39.015,43.775,39.762,43.84,40.73 M44.848,34.845
		l-1.61-1.729l-2.763,2.573l1.612,1.729L44.848,34.845z M46.106,33.672l2.547-2.377l1.136,1.217l-2.551,2.377
		c0.884,0.24,1.91,0.315,3.08,0.227c1.17-0.091,2.103-0.313,2.797-0.665l0.063,1.793c-1.155,0.356-2.2,0.529-3.137,0.511
		l2.755,2.955l-5.057,4.717l0.947,1.013c0.354,0.378,0.681,0.427,0.983,0.145l4.35-4.057c0.18-0.167,0.268-0.364,0.266-0.594
		c0.002-0.236-0.328-0.789-0.995-1.653l1.219-1.136c0.939,1.086,1.464,1.951,1.573,2.6c0.106,0.647-0.109,1.221-0.65,1.727
		l-5.013,4.679c-0.437,0.403-0.885,0.585-1.348,0.543c-0.46-0.038-0.879-0.259-1.257-0.667l-3.981-4.268
		c-0.205,1.192-0.4,2.04-0.592,2.538l-1.517-0.193c1.824,2.63,2.918,5.369,3.276,8.217l-1.811,0.447
		c-0.04-1.895-1.054-4.637-3.045-8.224l1.487-0.704c0.701-1.857,0.832-3.552,0.39-5.082l-2.591,2.415l-1.135-1.219l2.524-2.354
		l-1.612-1.728l-1.891,1.762l-1.128-1.208l1.893-1.764l-1.743-1.866l1.268-1.183l1.739,1.868l2.763-2.571l-1.744-1.87l1.259-1.172
		l1.74,1.868l1.9-1.772l1.128,1.21l-1.899,1.771L46.106,33.672z"/>
	<path fill="#FFFFFF" d="M78.187,30.223l-1.604,0.445c-0.054-0.361-0.12-0.71-0.205-1.046c-0.277-1.114-0.75-2.193-1.424-3.238
		l1.471-0.711c0.743,1.18,1.264,2.366,1.562,3.56C78.065,29.554,78.132,29.885,78.187,30.223 M73.835,32.313l-1.633-0.175
		c0.487-1.715,0.649-3.64,0.483-5.771l1.59,0.002C74.575,28.864,74.431,30.845,73.835,32.313 M81.057,27.276l-1.495,0.751
		c-0.467-1.012-1.226-1.935-2.277-2.76l1.513-0.767C79.687,25.139,80.44,26.064,81.057,27.276 M87.232,12.182l-4.352,1.086
		l3.275,13.136l5.298-1.321l0.403,1.615l-11.575,2.887l-0.404-1.615l4.469-1.112l-3.274-13.14l-3.897,0.972l-0.406-1.615
		l10.058-2.508L87.232,12.182z M76.015,21.419l1.323-0.981c1.35,0.769,2.42,1.778,3.214,3.027l-1.454,1.005
		c-0.183-0.451-0.35-0.714-0.506-0.789l-6.249,2.369l-1.166-1.275c1.593-2.182,2.69-3.923,3.297-5.226
		c-1.252,0.427-2.556,0.937-3.906,1.534l-1.129-1.308c1.834-2.311,3.066-4.765,3.702-7.362l1.624,0.509
		c-0.601,2.209-1.462,4.1-2.587,5.678l0.054,0.032l3.116-1.133c0.042-0.14,0.135-0.413,0.284-0.825
		c0.156-0.412,0.271-0.788,0.35-1.128l1.627,0.338c-0.611,2.591-1.867,5.169-3.767,7.733l0.063,0.031l3.474-1.256
		C77.294,22.3,76.839,21.976,76.015,21.419"/>
	<polygon fill="#FFFFFF" points="112.062,16.188 119.91,18.144 121.759,10.737 123.609,11.198 121.763,18.606 129.635,20.568 
		129.21,22.271 121.339,20.307 118.618,31.216 116.769,30.754 119.485,19.845 111.635,17.888 	"/>
	<path fill="#FFFFFF" d="M154.249,43.656l-3.121,3.341c-0.422,0.456-0.897,0.7-1.427,0.735c-0.522,0.039-1.015-0.159-1.479-0.593
		l-1.813-1.687c0.336-0.709,0.596-1.33,0.777-1.859l1.434,1.503c0.094,0.098,0.249,0.229,0.471,0.395
		c0.226,0.169,0.4,0.241,0.523,0.216c0.136-0.026,0.265-0.104,0.385-0.233l2.885-3.092l-6.266-5.844l1.182-1.266l6.266,5.843
		l0.832-0.893c1.92,0.597,3.518,0.883,4.787,0.854l-6.71-6.259l1.128-1.21l8.521,7.945l-1.037,1.112
		c-2.072,0.173-4.07,0.022-5.992-0.456l-0.166,0.177l6.193,5.775l-1.18,1.266L154.249,43.656z M154.757,28.803l5.756,5.365
		c0.14-0.808,0.042-1.684-0.297-2.626l2.08,0.438c0.123,1.268,0.02,2.457-0.309,3.569l5.602,5.221l-3.383,3.629l-1.266-1.181
		l2.201-2.362l-10.299-9.606l-2.279,2.442l-1.266-1.179L154.757,28.803z"/>
	<path fill="#FFFFFF" d="M169.204,71.699l3.191,9.815l0.973-0.314l-3.191-9.815L169.204,71.699z M175.815,80.402l-3.189-9.815
		l-0.867,0.282l3.189,9.815L175.815,80.402z M167.634,72.21l-1.047,0.34l-0.529-1.637l7.607-2.473l4.258,13.1l-7.611,2.473
		l-0.533-1.648l1.045-0.338L167.634,72.21z M181.386,77.543l-0.045,0.014l-0.254,1.295l-1.611-0.325l0.611,1.878l2.016-0.655
		L181.386,77.543z M178.351,75.064l0.455,1.403c0.738,0.382,1.57,0.653,2.492,0.812l-0.93-2.872L178.351,75.064z M178.63,69.277
		l0.064-0.018l-0.605-1.857l-2.016,0.654l0.729,2.247c0.109-0.145,0.408-0.796,0.893-1.958
		C178.085,68.685,178.397,68.996,178.63,69.277 M177.815,73.417l2.016-0.654l-1.031-3.177l-0.064,0.021
		c-0.305,0.9-0.754,1.739-1.344,2.513L177.815,73.417z M183.624,79.372l0.064-0.02c0.025-0.709,0.232-1.781,0.623-3.215
		l-0.664,0.217l-2.289-7.051l0.904-0.296c-1.025-0.84-1.969-1.75-2.824-2.735l-0.064,0.021L183.624,79.372z M183.327,69.909
		l-0.031,0.011l1.531,4.709l0.029-0.012c0.375-1.1,0.75-2.051,1.129-2.851C184.655,70.907,183.769,70.289,183.327,69.909
		 M188.089,70.92l-0.328,1.75l-0.482-0.298c-1.732,4.515-2.395,8.158-1.994,10.927l-1.76-0.571l-0.045-1.617l-4.436,1.441
		l-5.076-15.622l4.646-1.508c-0.291-0.296-0.637-0.701-1.037-1.216l1.137-1.35C181.909,66.797,185.034,69.485,188.089,70.92"/>
	<path fill="#FFFFFF" d="M166.765,99.581c0,36.866-29.889,66.753-66.754,66.753S33.26,136.447,33.26,99.581
		c0-36.866,29.886-66.75,66.751-66.75S166.765,62.715,166.765,99.581"/>
	<polygon fill="#ED1C24" points="81.484,44.451 118.517,44.451 118.517,81.482 155.55,81.482 155.55,118.516 118.517,118.516 
		118.517,155.549 81.484,155.549 81.484,118.516 44.451,118.516 44.451,81.482 81.484,81.482 	"/>
</g>
</svg>
