<?xml version="1.0" encoding="UTF-8" standalone="no"?>
<svg
   width="85mm"
   height="35mm"
   viewBox="0 0 85 35"
   version="1.1"
   id="svg8"
   inkscape:version="1.1.1 (3bf5ae0d25, 2021-09-20)"
   sodipodi:docname="IFRC-trans.svg"
   xmlns:inkscape="http://www.inkscape.org/namespaces/inkscape"
   xmlns:sodipodi="http://sodipodi.sourceforge.net/DTD/sodipodi-0.dtd"
   xmlns="http://www.w3.org/2000/svg"
   xmlns:svg="http://www.w3.org/2000/svg"
   xmlns:rdf="http://www.w3.org/1999/02/22-rdf-syntax-ns#"
   xmlns:cc="http://creativecommons.org/ns#"
   xmlns:dc="http://purl.org/dc/elements/1.1/">
  <defs
     id="defs2">
    <style
       id="style847">.cls-1{fill:none;}.cls-2{fill:#fff;}.cls-3{fill:#f5333f;}.cls-4{clip-path:url(#clip-path);}.cls-5{fill:#333132;}</style>
    <clipPath
       transform="translate(-94.73 -93.38)"
       id="clip-path">
      <rect
         id="rect849"
         height="380.20999"
         width="841.89001"
         class="cls-1"
         x="0"
         y="0" />
    </clipPath>
  </defs>
  <sodipodi:namedview
     id="base"
     pagecolor="#ffffff"
     bordercolor="#666666"
     borderopacity="1.0"
     inkscape:pageopacity="0.0"
     inkscape:pageshadow="2"
     inkscape:zoom="0.3535534"
     inkscape:cx="459.6194"
     inkscape:cy="-123.03658"
     inkscape:document-units="mm"
     inkscape:current-layer="g951"
     inkscape:document-rotation="0"
     showgrid="false"
     inkscape:window-width="1920"
     inkscape:window-height="1017"
     inkscape:window-x="-8"
     inkscape:window-y="-8"
     inkscape:window-maximized="1"
     inkscape:pagecheckerboard="0">
    <inkscape:grid
       type="xygrid"
       id="grid917" />
  </sodipodi:namedview>
  <metadata
     id="metadata5">
    <rdf:RDF>
      <cc:Work
         rdf:about="">
        <dc:format>image/svg+xml</dc:format>
        <dc:type
           rdf:resource="http://purl.org/dc/dcmitype/StillImage" />
      </cc:Work>
    </rdf:RDF>
  </metadata>
  <g
     inkscape:label="Layer 1"
     inkscape:groupmode="layer"
     id="layer1">
    <g
       id="g951"
       transform="translate(-24.437939,10.99395)"
       inkscape:export-xdpi="300"
       inkscape:export-ydpi="300">
      <g
         id="g922"
         transform="translate(-60.24255,0.18708866)">
        <path
           id="polygon858"
           style="fill:#f5333f;stroke-width:0.136441"
           d="M 88.196654,7.94578 V 3.9549449 h 4.634801 v -0.00274 -4.65688603 h 3.971908 v 4.65688603 0.00274 h 4.634797 V 7.94578 H 96.803363 V 7.94441 12.601296 H 92.831455 V 7.9444124 7.94578 Z"
           class="cls-3" />
        <g
           id="g864"
           clip-path="url(#clip-path)"
           class="cls-4"
           transform="matrix(0.13611749,0,0,0.13676611,81.79641,-7.3118472)">
          <path
             id="path860"
             transform="translate(-94.73,-93.38)"
             d="m 284.17,189.82 a 41.06,41.06 0 0 1 55.41,-38.47 49.27,49.27 0 1 0 0.83,76.63 41.08,41.08 0 0 1 -56.24,-38.16"
             class="cls-3" />
          <path
             id="path862"
             transform="translate(-94.73,-93.38)"
             d="m 657.92,239.28 a 56.13,56.13 0 0 0 22.46,-4.35 44.23,44.23 0 0 0 16.88,-12.67 L 683.1,209.19 q -9.66,11.31 -24,11.3 a 31.77,31.77 0 0 1 -15.79,-3.88 27.46,27.46 0 0 1 -10.82,-10.82 34,34 0 0 1 0,-31.59 27.59,27.59 0 0 1 10.82,-10.82 31.77,31.77 0 0 1 15.79,-3.88 q 14.29,0 24,11.17 l 14.16,-13.08 a 45,45 0 0 0 -16.81,-12.52 59.08,59.08 0 0 0 -48.88,2 47.36,47.36 0 0 0 -18.52,17.56 51.28,51.28 0 0 0 0,50.79 47.29,47.29 0 0 0 18.52,17.58 54.74,54.74 0 0 0 26.35,6.33 m -88.09,-62.35 q 0,7.89 -5.17,12.25 -5.17,4.36 -15.12,4.36 h -18 v -33.27 h 18 q 9.94,0 15.12,4.28 5.18,4.28 5.17,12.33 m 24.1,60.72 L 572.55,207 a 31.06,31.06 0 0 0 19.61,-30.09 33,33 0 0 0 -5,-18.38 32.64,32.64 0 0 0 -14.36,-12 q -9.33,-4.23 -22,-4.22 h -41.28 v 95.3 h 22.05 V 211.1 h 20.29 l 18.38,26.55 z M 490.46,160 v -17.65 h -72 v 95.3 h 22.06 v -34.72 h 44.08 v -17.7 H 440.49 V 160 Z m -116.68,77.65 h 22.06 v -95.3 h -22.06 z"
             class="cls-5" />
        </g>
      </g>
    </g>
  </g>
</svg>
