<?xml version="1.0" encoding="UTF-8" standalone="no"?>
<!-- Generator: Adobe Illustrator 18.1.0, SVG Export Plug-In . SVG Version: 6.00 Build 0)  -->

<svg
   version="1.1"
   id="Layer_1"
   x="0px"
   y="0px"
   viewBox="0 0 391 82"
   enable-background="new 0 0 391 82"
   xml:space="preserve"
   sodipodi:docname="logo-global-shelter-cluster.svg"
   inkscape:version="1.2.2 (732a01da63, 2022-12-09)"
   xmlns:inkscape="http://www.inkscape.org/namespaces/inkscape"
   xmlns:sodipodi="http://sodipodi.sourceforge.net/DTD/sodipodi-0.dtd"
   xmlns="http://www.w3.org/2000/svg"
   xmlns:svg="http://www.w3.org/2000/svg"><defs
   id="defs31755" /><sodipodi:namedview
   id="namedview31753"
   pagecolor="#ffffff"
   bordercolor="#000000"
   borderopacity="0.25"
   inkscape:showpageshadow="2"
   inkscape:pageopacity="0.0"
   inkscape:pagecheckerboard="0"
   inkscape:deskcolor="#d1d1d1"
   showgrid="false"
   inkscape:zoom="3.0946292"
   inkscape:cx="176.43471"
   inkscape:cy="41.038843"
   inkscape:window-width="1920"
   inkscape:window-height="1009"
   inkscape:window-x="1912"
   inkscape:window-y="-8"
   inkscape:window-maximized="1"
   inkscape:current-layer="Layer_1" />
<rect
   style="fill:#ffffff"
   id="rect31926"
   width="391.32315"
   height="82.077682"
   x="0"
   y="0" /><polygon
   fill="#944031"
   points="58.1,12.2 40.5,37 40.5,37 40.5,72.6 75.6,52.4 75.6,18.5 "
   id="polygon31604" />
<path
   class="second-color"
   fill="#7F1416"
   d="M58.1,12.2l-2.6-0.8L38.2,35.7L17.4,23.6v0c0,0-1.8-0.7-1.8,1.5c0,2-0.4,3.5,1.8,4.8l5,2.9  c0.2,0.1,0.3,0.4,0.2,0.6c-0.1,0.1-0.2,0.2-0.4,0.2c-0.1,0-0.1,0-0.2-0.1l-2-1.1L8.7,26c0,0-1.8-0.8-1.8,1.6c0,2.1-0.4,3.6,1.8,4.9  c3.1,1.7,7.9,4.5,11.4,6.4c1.4,0.8,2.4,1.4,2.4,1.4c0.2,0.1,0.3,0.4,0.2,0.6c-0.1,0.1-0.2,0.2-0.4,0.2c-0.1,0-0.1,0-0.2-0.1  L7.2,32.5l0,0c0,0-1.8-0.8-1.8,1.6c0,2.1-0.4,3.6,1.8,4.9c5.1,2.9,5.1,2.9,15.2,8.7c0.2,0.1,0.3,0.4,0.2,0.6  c-0.1,0.1-0.2,0.2-0.4,0.2c-0.1,0-0.1,0-0.2-0.1l-14-8.1c0,0-1.8-0.8-1.8,1.6c0,2.1-0.4,3.6,1.8,4.9l0,0c8.3,4.7,7.6,4.3,14.5,8.3  c0.2,0.1,0.3,0.4,0.2,0.6c-0.1,0.1-0.2,0.2-0.4,0.2c-0.1,0-0.1,0-0.2-0.1l-10.9-6.1v0c0,0-1.8-0.7-1.8,1.5c0,2-0.4,3.4,1.8,4.7  l29.4,16.8V37L58.1,12.2z"
   id="path31606" />
<g
   id="g31644">
	<path
   fill="#7F1416"
   d="M97.6,47.3c0,0.5-0.1,1-0.4,1.5s-0.6,0.9-1,1.3c-0.5,0.4-1,0.7-1.6,0.9s-1.4,0.3-2.3,0.3   c-0.9,0-1.8-0.1-2.5-0.3s-1.5-0.4-2.3-0.8v-2.2h0.1c0.7,0.6,1.4,1,2.3,1.3s1.7,0.4,2.4,0.4c1.1,0,1.9-0.2,2.5-0.6s0.9-0.9,0.9-1.6   c0-0.6-0.1-1-0.4-1.3s-0.7-0.5-1.3-0.6c-0.4-0.1-0.9-0.2-1.4-0.3s-1.1-0.2-1.6-0.3c-1.2-0.2-2-0.7-2.6-1.3s-0.8-1.4-0.8-2.3   c0-1.1,0.5-2,1.4-2.7s2.1-1.1,3.5-1.1c0.9,0,1.8,0.1,2.5,0.3s1.4,0.4,2,0.7v2.1H97c-0.5-0.4-1.2-0.8-2-1.1s-1.6-0.4-2.5-0.4   c-0.9,0-1.7,0.2-2.2,0.6s-0.8,0.9-0.8,1.5c0,0.5,0.1,1,0.4,1.3s0.8,0.5,1.5,0.7c0.4,0.1,0.9,0.2,1.6,0.3s1.3,0.2,1.8,0.4   c1,0.3,1.7,0.6,2.2,1.2S97.6,46.4,97.6,47.3z"
   id="path31608" />
	<path
   fill="#7F1416"
   d="M108.5,51.1h-1.7v-5.6c0-0.5,0-0.9-0.1-1.3s-0.1-0.7-0.3-0.9c-0.1-0.2-0.4-0.4-0.6-0.5s-0.6-0.2-1.1-0.2   c-0.5,0-0.9,0.1-1.4,0.3s-1,0.5-1.4,0.9v7.3h-1.7V37.4h1.7v4.9c0.5-0.4,1-0.8,1.6-1s1.1-0.4,1.7-0.4c1.1,0,1.9,0.3,2.4,1   s0.8,1.6,0.8,2.8V51.1z"
   id="path31610" />
	<path
   fill="#7F1416"
   d="M119.9,46.3h-7.2c0,0.6,0.1,1.1,0.3,1.6s0.4,0.8,0.7,1.1c0.3,0.3,0.7,0.5,1.1,0.6s0.9,0.2,1.4,0.2   c0.7,0,1.3-0.1,2-0.4s1.2-0.5,1.4-0.8h0.1v1.8c-0.6,0.2-1.1,0.4-1.7,0.6s-1.2,0.2-1.8,0.2c-1.6,0-2.9-0.4-3.8-1.3s-1.4-2.1-1.4-3.8   c0-1.6,0.4-2.9,1.3-3.8s2-1.4,3.5-1.4c1.3,0,2.3,0.4,3.1,1.2s1.1,1.9,1.1,3.3V46.3z M118.3,45.1c0-0.9-0.2-1.5-0.7-2   s-1.1-0.7-2-0.7c-0.9,0-1.6,0.3-2.1,0.8s-0.8,1.2-0.9,1.9H118.3z"
   id="path31612" />
	<path
   fill="#7F1416"
   d="M124,51.1h-1.7V37.4h1.7V51.1z"
   id="path31614" />
	<path
   fill="#7F1416"
   d="M132.4,51c-0.3,0.1-0.6,0.1-1,0.2s-0.7,0.1-1,0.1c-1,0-1.8-0.3-2.3-0.8s-0.8-1.4-0.8-2.6v-5.2h-1.1v-1.4   h1.1v-2.8h1.7v2.8h3.4v1.4H129v4.5c0,0.5,0,0.9,0,1.2s0.1,0.6,0.2,0.8c0.1,0.2,0.3,0.4,0.5,0.5s0.6,0.2,1,0.2c0.3,0,0.6,0,0.8-0.1   s0.5-0.1,0.6-0.2h0.1V51z"
   id="path31616" />
	<path
   fill="#7F1416"
   d="M142.6,46.3h-7.2c0,0.6,0.1,1.1,0.3,1.6s0.4,0.8,0.7,1.1c0.3,0.3,0.7,0.5,1.1,0.6s0.9,0.2,1.4,0.2   c0.7,0,1.3-0.1,2-0.4s1.2-0.5,1.4-0.8h0.1v1.8c-0.6,0.2-1.1,0.4-1.7,0.6s-1.2,0.2-1.8,0.2c-1.6,0-2.9-0.4-3.8-1.3s-1.4-2.1-1.4-3.8   c0-1.6,0.4-2.9,1.3-3.8s2-1.4,3.5-1.4c1.3,0,2.3,0.4,3.1,1.2s1.1,1.9,1.1,3.3V46.3z M141,45.1c0-0.9-0.2-1.5-0.7-2s-1.1-0.7-2-0.7   c-0.9,0-1.6,0.3-2.1,0.8s-0.8,1.2-0.9,1.9H141z"
   id="path31618" />
	<path
   fill="#7F1416"
   d="M151.3,43L151.3,43c-0.3-0.1-0.6-0.1-0.8-0.1s-0.5,0-0.8,0c-0.5,0-1,0.1-1.5,0.3s-0.9,0.5-1.4,0.9v7h-1.7   v-9.8h1.7v1.5c0.7-0.5,1.2-0.9,1.7-1.1s1-0.3,1.5-0.3c0.3,0,0.5,0,0.6,0s0.3,0,0.6,0.1V43z"
   id="path31620" />
	<path
   fill="#7F1416"
   d="M163.1,50.1c-0.3,0.1-0.6,0.3-0.9,0.4s-0.6,0.3-1,0.4c-0.4,0.1-0.7,0.2-1.2,0.3s-0.9,0.1-1.4,0.1   c-0.9,0-1.8-0.1-2.6-0.4s-1.5-0.7-2-1.3c-0.6-0.6-1-1.3-1.3-2.1s-0.5-1.9-0.5-3c0-1.1,0.2-2,0.5-2.9s0.7-1.6,1.3-2.2   c0.6-0.6,1.2-1,2-1.3s1.7-0.4,2.6-0.4c0.7,0,1.4,0.1,2.1,0.3s1.5,0.5,2.3,0.9V41h-0.1c-0.7-0.6-1.4-1-2.1-1.3s-1.5-0.4-2.3-0.4   c-0.7,0-1.3,0.1-1.8,0.3s-1,0.5-1.4,1c-0.4,0.4-0.7,1-0.9,1.7s-0.3,1.4-0.3,2.3c0,0.9,0.1,1.7,0.4,2.4s0.6,1.2,1,1.6   c0.4,0.4,0.9,0.8,1.4,1s1.1,0.3,1.7,0.3c0.8,0,1.6-0.1,2.4-0.4s1.4-0.7,2.1-1.3h0.1V50.1z"
   id="path31622" />
	<path
   fill="#7F1416"
   d="M167.1,51.1h-1.7V37.4h1.7V51.1z"
   id="path31624" />
	<path
   fill="#7F1416"
   d="M178.5,51.1h-1.7V50c-0.6,0.4-1.1,0.8-1.6,1s-1.1,0.4-1.7,0.4c-1,0-1.8-0.3-2.4-0.9s-0.9-1.6-0.9-2.8v-6.4   h1.7v5.6c0,0.5,0,0.9,0.1,1.3s0.1,0.7,0.3,0.9c0.2,0.3,0.4,0.4,0.6,0.6s0.6,0.2,1.1,0.2c0.4,0,0.9-0.1,1.4-0.3   c0.5-0.2,1-0.5,1.4-0.9v-7.3h1.7V51.1z"
   id="path31626" />
	<path
   fill="#7F1416"
   d="M188.7,48.2c0,0.9-0.4,1.6-1.1,2.2s-1.8,0.9-3,0.9c-0.7,0-1.4-0.1-2-0.3c-0.6-0.2-1.1-0.4-1.5-0.6v-1.9h0.1   c0.5,0.4,1.1,0.7,1.7,0.9s1.3,0.3,1.8,0.3c0.7,0,1.3-0.1,1.7-0.4s0.6-0.6,0.6-1.1c0-0.4-0.1-0.7-0.3-0.9s-0.7-0.4-1.3-0.5   c-0.2-0.1-0.5-0.1-0.9-0.2c-0.4-0.1-0.7-0.1-1-0.2c-0.9-0.2-1.5-0.6-1.8-1c-0.4-0.4-0.5-1-0.5-1.6c0-0.4,0.1-0.8,0.3-1.1   c0.2-0.4,0.4-0.7,0.8-1c0.3-0.3,0.7-0.5,1.3-0.7s1.1-0.2,1.7-0.2c0.6,0,1.2,0.1,1.8,0.2s1.1,0.3,1.5,0.5v1.8h-0.1   c-0.4-0.3-0.9-0.6-1.5-0.8s-1.2-0.3-1.8-0.3c-0.6,0-1.1,0.1-1.5,0.3s-0.6,0.6-0.6,1c0,0.4,0.1,0.7,0.4,0.9c0.2,0.2,0.6,0.4,1.2,0.5   c0.3,0.1,0.6,0.1,1,0.2c0.4,0.1,0.7,0.1,0.9,0.2c0.8,0.2,1.4,0.5,1.8,0.9C188.5,46.9,188.7,47.5,188.7,48.2z"
   id="path31628" />
	<path
   fill="#7F1416"
   d="M196.2,51c-0.3,0.1-0.6,0.1-1,0.2c-0.4,0.1-0.7,0.1-1,0.1c-1,0-1.8-0.3-2.3-0.8s-0.8-1.4-0.8-2.6v-5.2H190   v-1.4h1.1v-2.8h1.7v2.8h3.4v1.4h-3.4v4.5c0,0.5,0,0.9,0,1.2s0.1,0.6,0.2,0.8c0.1,0.2,0.3,0.4,0.5,0.5c0.2,0.1,0.6,0.2,1,0.2   c0.3,0,0.6,0,0.8-0.1s0.5-0.1,0.6-0.2h0.1V51z"
   id="path31630" />
	<path
   fill="#7F1416"
   d="M206.4,46.3h-7.2c0,0.6,0.1,1.1,0.3,1.6s0.4,0.8,0.7,1.1c0.3,0.3,0.7,0.5,1.1,0.6s0.9,0.2,1.4,0.2   c0.7,0,1.3-0.1,2-0.4c0.7-0.3,1.2-0.5,1.4-0.8h0.1v1.8c-0.6,0.2-1.1,0.4-1.7,0.6s-1.2,0.2-1.8,0.2c-1.6,0-2.9-0.4-3.8-1.3   s-1.4-2.1-1.4-3.8c0-1.6,0.4-2.9,1.3-3.8c0.9-0.9,2-1.4,3.5-1.4c1.3,0,2.3,0.4,3.1,1.2c0.7,0.8,1.1,1.9,1.1,3.3V46.3z M204.8,45.1   c0-0.9-0.2-1.5-0.7-2c-0.4-0.5-1.1-0.7-2-0.7c-0.9,0-1.6,0.3-2.1,0.8s-0.8,1.2-0.9,1.9H204.8z"
   id="path31632" />
	<path
   fill="#7F1416"
   d="M215,43L215,43c-0.3-0.1-0.6-0.1-0.8-0.1s-0.5,0-0.8,0c-0.5,0-1,0.1-1.5,0.3s-0.9,0.5-1.4,0.9v7h-1.7v-9.8   h1.7v1.5c0.7-0.5,1.2-0.9,1.7-1.1c0.5-0.2,1-0.3,1.5-0.3c0.3,0,0.5,0,0.6,0s0.3,0,0.6,0.1V43z"
   id="path31634" />
	<path
   fill="#7F1416"
   d="M216.7,51.1h-2.1v-2.5h2.1V51.1z"
   id="path31636" />
	<path
   fill="#7F1416"
   d="M229,46.2c0,1.6-0.4,2.9-1.2,3.8s-1.9,1.4-3.3,1.4c-1.4,0-2.5-0.5-3.3-1.4c-0.8-0.9-1.2-2.2-1.2-3.8   s0.4-2.9,1.2-3.8c0.8-0.9,1.9-1.4,3.3-1.4c1.4,0,2.5,0.5,3.3,1.4S229,44.6,229,46.2z M227.2,46.2c0-1.3-0.2-2.2-0.7-2.8   s-1.2-0.9-2.1-0.9c-0.9,0-1.6,0.3-2.1,0.9s-0.7,1.6-0.7,2.8c0,1.2,0.2,2.2,0.7,2.8s1.2,1,2.1,1c0.9,0,1.6-0.3,2.1-0.9   C227,48.3,227.2,47.4,227.2,46.2z"
   id="path31638" />
	<path
   fill="#7F1416"
   d="M237.6,43L237.6,43c-0.3-0.1-0.6-0.1-0.8-0.1s-0.5,0-0.8,0c-0.5,0-1,0.1-1.5,0.3s-0.9,0.5-1.4,0.9v7h-1.7   v-9.8h1.7v1.5c0.7-0.5,1.2-0.9,1.7-1.1c0.5-0.2,1-0.3,1.5-0.3c0.3,0,0.5,0,0.6,0s0.3,0,0.6,0.1V43z"
   id="path31640" />
	<path
   fill="#7F1416"
   d="M247.2,49.9c0,1.7-0.4,2.9-1.1,3.7s-1.9,1.2-3.5,1.2c-0.5,0-1,0-1.5-0.1c-0.5-0.1-1-0.2-1.5-0.3v-1.7h0.1   c0.3,0.1,0.7,0.2,1.3,0.4s1.2,0.2,1.8,0.2c0.6,0,1-0.1,1.4-0.2s0.7-0.3,0.9-0.6c0.2-0.2,0.4-0.5,0.4-0.8s0.1-0.7,0.1-1.1v-0.9   c-0.5,0.4-1,0.7-1.4,0.9s-1,0.3-1.7,0.3c-1.2,0-2.1-0.4-2.8-1.3c-0.7-0.8-1-2-1-3.6c0-0.8,0.1-1.6,0.4-2.2c0.2-0.6,0.6-1.1,1-1.6   c0.4-0.4,0.8-0.7,1.4-1s1.1-0.3,1.6-0.3c0.6,0,1,0.1,1.4,0.2s0.8,0.3,1.2,0.5l0.1-0.4h1.5V49.9z M245.5,48.4V43   c-0.4-0.2-0.8-0.3-1.2-0.4c-0.4-0.1-0.8-0.1-1.1-0.1c-0.9,0-1.6,0.3-2.1,0.9s-0.8,1.5-0.8,2.7c0,1.1,0.2,1.9,0.6,2.5s1,0.9,1.9,0.9   c0.5,0,1-0.1,1.4-0.3C244.7,48.9,245.1,48.7,245.5,48.4z"
   id="path31642" />
</g>
<g
   id="g31708">
	<path
   class="second-color"
   fill="#58595B"
   d="M97.4,67.6c-0.3,0.1-0.6,0.2-0.8,0.4c-0.2,0.1-0.6,0.2-1,0.3c-0.3,0.1-0.7,0.2-1.1,0.3   c-0.4,0.1-0.8,0.1-1.3,0.1c-0.9,0-1.7-0.1-2.4-0.4s-1.3-0.6-1.9-1.1c-0.5-0.5-0.9-1.1-1.2-1.9c-0.3-0.8-0.4-1.6-0.4-2.7   c0-1,0.1-1.8,0.4-2.6c0.3-0.8,0.7-1.4,1.2-1.9c0.5-0.5,1.1-0.9,1.9-1.2s1.5-0.4,2.4-0.4c0.7,0,1.3,0.1,2,0.2   c0.7,0.2,1.4,0.4,2.2,0.8v1.8h-0.1c-0.7-0.5-1.3-0.9-2-1.2c-0.7-0.2-1.4-0.4-2.1-0.4c-0.6,0-1.2,0.1-1.7,0.3   c-0.5,0.2-0.9,0.5-1.3,0.9c-0.4,0.4-0.7,0.9-0.9,1.5c-0.2,0.6-0.3,1.3-0.3,2.1c0,0.8,0.1,1.5,0.3,2.1c0.2,0.6,0.5,1.1,0.9,1.4   c0.4,0.4,0.8,0.7,1.3,0.9c0.5,0.2,1,0.3,1.6,0.3c0.8,0,1.5-0.1,2.2-0.4c0.7-0.3,1.3-0.6,1.9-1.1h0.1V67.6z"
   id="path31646" />
	<path
   class="second-color"
   fill="#58595B"
   d="M107.3,64.1c0,1.4-0.4,2.5-1.1,3.4c-0.8,0.8-1.8,1.2-3.1,1.2c-1.3,0-2.3-0.4-3.1-1.2   c-0.8-0.8-1.1-1.9-1.1-3.4s0.4-2.5,1.1-3.4c0.8-0.8,1.8-1.2,3.1-1.2c1.3,0,2.3,0.4,3.1,1.2C106.9,61.6,107.3,62.7,107.3,64.1z    M105.7,64.1c0-1.1-0.2-2-0.7-2.5c-0.5-0.5-1.1-0.8-1.9-0.8c-0.8,0-1.5,0.3-1.9,0.8c-0.5,0.5-0.7,1.4-0.7,2.5   c0,1.1,0.2,1.9,0.7,2.5c0.5,0.6,1.1,0.8,1.9,0.8c0.8,0,1.5-0.3,1.9-0.8C105.5,66.1,105.7,65.2,105.7,64.1z"
   id="path31648" />
	<path
   class="second-color"
   fill="#58595B"
   d="M117.5,64.1c0,1.4-0.4,2.5-1.1,3.4c-0.8,0.8-1.8,1.2-3.1,1.2c-1.3,0-2.3-0.4-3.1-1.2   c-0.8-0.8-1.1-1.9-1.1-3.4s0.4-2.5,1.1-3.4c0.8-0.8,1.8-1.2,3.1-1.2c1.3,0,2.3,0.4,3.1,1.2C117.1,61.6,117.5,62.7,117.5,64.1z    M115.9,64.1c0-1.1-0.2-2-0.7-2.5c-0.5-0.5-1.1-0.8-1.9-0.8c-0.8,0-1.5,0.3-1.9,0.8c-0.5,0.5-0.7,1.4-0.7,2.5   c0,1.1,0.2,1.9,0.7,2.5c0.5,0.6,1.1,0.8,1.9,0.8c0.8,0,1.5-0.3,1.9-0.8C115.6,66.1,115.9,65.2,115.9,64.1z"
   id="path31650" />
	<path
   class="second-color"
   fill="#58595B"
   d="M125.5,61.4L125.5,61.4c-0.3-0.1-0.5-0.1-0.7-0.1c-0.2,0-0.5,0-0.8,0c-0.5,0-0.9,0.1-1.4,0.3   c-0.4,0.2-0.9,0.5-1.3,0.8v6.2h-1.5v-8.7h1.5V61c0.6-0.5,1.1-0.8,1.6-1c0.5-0.2,0.9-0.3,1.4-0.3c0.3,0,0.5,0,0.6,0   c0.1,0,0.3,0,0.5,0.1V61.4z"
   id="path31652" />
	<path
   class="second-color"
   fill="#58595B"
   d="M134.4,68.5h-1.5v-0.9c-0.4,0.4-0.9,0.6-1.4,0.9c-0.5,0.2-1,0.3-1.6,0.3c-1.1,0-2-0.4-2.6-1.2   c-0.6-0.8-1-1.9-1-3.3c0-0.7,0.1-1.4,0.3-2c0.2-0.6,0.5-1.1,0.9-1.5c0.4-0.4,0.8-0.7,1.3-0.9c0.5-0.2,1-0.3,1.5-0.3   c0.5,0,0.9,0,1.3,0.1c0.4,0.1,0.8,0.2,1.2,0.4v-3.8h1.5V68.5z M132.8,66.3v-5c-0.4-0.2-0.8-0.3-1.1-0.4c-0.3-0.1-0.7-0.1-1.1-0.1   c-0.9,0-1.5,0.3-2,0.9c-0.5,0.6-0.7,1.4-0.7,2.4c0,1,0.2,1.8,0.6,2.4c0.4,0.5,1,0.8,1.8,0.8c0.4,0,0.9-0.1,1.3-0.3   C132,66.9,132.5,66.6,132.8,66.3z"
   id="path31654" />
	<path
   class="second-color"
   fill="#58595B"
   d="M139,58.3h-1.7v-1.5h1.7V58.3z M138.9,68.5h-1.5v-8.7h1.5V68.5z"
   id="path31656" />
	<path
   class="second-color"
   fill="#58595B"
   d="M149.6,68.5h-1.5v-5c0-0.4,0-0.8-0.1-1.1s-0.1-0.6-0.3-0.8c-0.1-0.2-0.3-0.4-0.6-0.5   c-0.3-0.1-0.6-0.2-1-0.2c-0.4,0-0.9,0.1-1.3,0.3c-0.5,0.2-0.9,0.5-1.3,0.8v6.5H142v-8.7h1.5v1c0.5-0.4,1-0.7,1.5-0.9   c0.5-0.2,1-0.3,1.6-0.3c1,0,1.7,0.3,2.3,0.9c0.5,0.6,0.8,1.4,0.8,2.5V68.5z"
   id="path31658" />
	<path
   class="second-color"
   fill="#58595B"
   d="M159.7,68.5h-1.5v-0.9c-0.1,0.1-0.3,0.2-0.6,0.4c-0.2,0.2-0.5,0.3-0.7,0.4c-0.3,0.1-0.6,0.2-0.9,0.3   c-0.3,0.1-0.7,0.1-1.2,0.1c-0.8,0-1.5-0.3-2.1-0.8c-0.6-0.5-0.9-1.2-0.9-2c0-0.7,0.1-1.2,0.4-1.6c0.3-0.4,0.7-0.7,1.3-1   c0.6-0.2,1.2-0.4,2-0.5c0.8-0.1,1.6-0.1,2.5-0.2v-0.2c0-0.3-0.1-0.6-0.2-0.8s-0.3-0.4-0.5-0.5c-0.2-0.1-0.5-0.2-0.8-0.2   c-0.3,0-0.6-0.1-1-0.1c-0.4,0-0.9,0.1-1.3,0.2c-0.5,0.1-1,0.2-1.5,0.4h-0.1v-1.5c0.3-0.1,0.7-0.2,1.3-0.3s1.1-0.1,1.7-0.1   c0.6,0,1.2,0.1,1.7,0.2s0.9,0.3,1.2,0.5c0.3,0.2,0.6,0.5,0.8,0.9c0.2,0.4,0.3,0.9,0.3,1.4V68.5z M158.1,66.3v-2.4   c-0.5,0-1,0.1-1.7,0.1c-0.6,0.1-1.1,0.1-1.5,0.2c-0.4,0.1-0.8,0.3-1.1,0.6c-0.3,0.3-0.4,0.6-0.4,1c0,0.5,0.2,0.9,0.5,1.1   c0.3,0.3,0.8,0.4,1.4,0.4c0.5,0,1-0.1,1.5-0.3C157.3,66.9,157.8,66.6,158.1,66.3z"
   id="path31660" />
	<path
   class="second-color"
   fill="#58595B"
   d="M167.4,68.4c-0.3,0.1-0.6,0.1-0.9,0.2s-0.6,0.1-0.9,0.1c-0.9,0-1.6-0.2-2.1-0.7c-0.5-0.5-0.7-1.2-0.7-2.3   V61h-1v-1.2h1v-2.5h1.5v2.5h3.2V61h-3.2v4c0,0.5,0,0.8,0,1.1s0.1,0.5,0.2,0.7c0.1,0.2,0.3,0.4,0.5,0.5c0.2,0.1,0.5,0.1,1,0.1   c0.3,0,0.5,0,0.8-0.1c0.3-0.1,0.5-0.1,0.6-0.2h0.1V68.4z"
   id="path31662" />
	<path
   class="second-color"
   fill="#58595B"
   d="M170.9,58.3h-1.7v-1.5h1.7V58.3z M170.8,68.5h-1.5v-8.7h1.5V68.5z"
   id="path31664" />
	<path
   class="second-color"
   fill="#58595B"
   d="M181.4,68.5h-1.5v-5c0-0.4,0-0.8-0.1-1.1s-0.1-0.6-0.3-0.8c-0.1-0.2-0.3-0.4-0.6-0.5   c-0.3-0.1-0.6-0.2-1-0.2c-0.4,0-0.9,0.1-1.3,0.3c-0.5,0.2-0.9,0.5-1.3,0.8v6.5h-1.5v-8.7h1.5v1c0.5-0.4,1-0.7,1.5-0.9   c0.5-0.2,1-0.3,1.6-0.3c1,0,1.7,0.3,2.3,0.9c0.5,0.6,0.8,1.4,0.8,2.5V68.5z"
   id="path31666" />
	<path
   class="second-color"
   fill="#58595B"
   d="M191.8,67.5c0,1.5-0.4,2.6-1.1,3.3c-0.7,0.7-1.8,1-3.2,1c-0.5,0-1,0-1.4-0.1c-0.5-0.1-0.9-0.2-1.4-0.3v-1.5   h0.1c0.2,0.1,0.6,0.2,1.2,0.3c0.5,0.1,1.1,0.2,1.6,0.2c0.5,0,1-0.1,1.3-0.2c0.3-0.1,0.6-0.3,0.8-0.5c0.2-0.2,0.3-0.4,0.4-0.7   c0.1-0.3,0.1-0.6,0.1-1v-0.8c-0.5,0.4-0.9,0.6-1.3,0.8c-0.4,0.2-1,0.3-1.6,0.3c-1.1,0-2-0.4-2.6-1.1c-0.6-0.8-1-1.8-1-3.2   c0-0.8,0.1-1.4,0.3-1.9c0.2-0.5,0.5-1,0.9-1.4c0.4-0.4,0.8-0.7,1.3-0.9c0.5-0.2,1-0.3,1.5-0.3c0.5,0,1,0.1,1.3,0.2s0.7,0.3,1.1,0.5   l0.1-0.4h1.4V67.5z M190.3,66.1v-4.8c-0.4-0.2-0.8-0.3-1.1-0.4c-0.4-0.1-0.7-0.1-1-0.1c-0.8,0-1.5,0.3-2,0.8   c-0.5,0.5-0.7,1.3-0.7,2.4c0,1,0.2,1.7,0.5,2.2c0.4,0.5,1,0.8,1.8,0.8c0.4,0,0.9-0.1,1.3-0.2S189.9,66.4,190.3,66.1z"
   id="path31668" />
	<path
   class="second-color"
   fill="#58595B"
   d="M210.1,68.5h-1.6v-5.7h-6.1v5.7h-1.6V56.8h1.6v4.6h6.1v-4.6h1.6V68.5z"
   id="path31670" />
	<path
   class="second-color"
   fill="#58595B"
   d="M220.8,68.5h-1.5v-1c-0.5,0.4-1,0.7-1.5,0.9c-0.5,0.2-1,0.3-1.6,0.3c-1,0-1.7-0.3-2.2-0.8   c-0.5-0.6-0.8-1.4-0.8-2.5v-5.7h1.5v5c0,0.4,0,0.8,0.1,1.1c0,0.3,0.1,0.6,0.3,0.8c0.1,0.2,0.3,0.4,0.6,0.5c0.2,0.1,0.6,0.2,1,0.2   c0.4,0,0.8-0.1,1.3-0.3c0.5-0.2,0.9-0.5,1.3-0.8v-6.5h1.5V68.5z"
   id="path31672" />
	<path
   class="second-color"
   fill="#58595B"
   d="M237.2,68.5h-1.5v-5c0-0.4,0-0.7-0.1-1.1c0-0.3-0.1-0.6-0.2-0.8c-0.1-0.2-0.3-0.4-0.5-0.5   c-0.2-0.1-0.6-0.2-1-0.2c-0.4,0-0.9,0.1-1.3,0.3c-0.4,0.2-0.9,0.5-1.3,0.8c0,0.1,0,0.3,0,0.4c0,0.2,0,0.3,0,0.5v5.6h-1.5v-5   c0-0.4,0-0.8-0.1-1.1c0-0.3-0.1-0.6-0.2-0.8c-0.1-0.2-0.3-0.4-0.5-0.5c-0.2-0.1-0.6-0.2-1-0.2c-0.4,0-0.8,0.1-1.3,0.3   c-0.4,0.2-0.8,0.5-1.3,0.8v6.5h-1.5v-8.7h1.5v1c0.5-0.4,1-0.7,1.4-0.9c0.5-0.2,1-0.3,1.5-0.3c0.6,0,1.1,0.1,1.6,0.4s0.8,0.6,1,1   c0.6-0.5,1.2-0.9,1.7-1.1c0.5-0.2,1.1-0.3,1.6-0.3c1,0,1.7,0.3,2.2,0.9c0.5,0.6,0.7,1.4,0.7,2.4V68.5z"
   id="path31674" />
	<path
   class="second-color"
   fill="#58595B"
   d="M247.2,68.5h-1.5v-0.9c-0.1,0.1-0.3,0.2-0.6,0.4c-0.2,0.2-0.5,0.3-0.7,0.4c-0.3,0.1-0.5,0.2-0.9,0.3   c-0.3,0.1-0.7,0.1-1.2,0.1c-0.8,0-1.5-0.3-2.1-0.8c-0.6-0.5-0.9-1.2-0.9-2c0-0.7,0.1-1.2,0.4-1.6c0.3-0.4,0.7-0.7,1.3-1   c0.6-0.2,1.2-0.4,2-0.5c0.8-0.1,1.6-0.1,2.5-0.2v-0.2c0-0.3-0.1-0.6-0.2-0.8c-0.1-0.2-0.3-0.4-0.5-0.5c-0.2-0.1-0.5-0.2-0.8-0.2   c-0.3,0-0.6-0.1-1-0.1c-0.4,0-0.9,0.1-1.3,0.2c-0.5,0.1-1,0.2-1.5,0.4h-0.1v-1.5c0.3-0.1,0.7-0.2,1.3-0.3s1.1-0.1,1.7-0.1   c0.6,0,1.2,0.1,1.7,0.2s0.9,0.3,1.2,0.5c0.3,0.2,0.6,0.5,0.8,0.9c0.2,0.4,0.3,0.9,0.3,1.4V68.5z M245.7,66.3v-2.4   c-0.5,0-1,0.1-1.7,0.1c-0.6,0.1-1.1,0.1-1.5,0.2c-0.4,0.1-0.8,0.3-1.1,0.6c-0.3,0.3-0.4,0.6-0.4,1c0,0.5,0.2,0.9,0.5,1.1   c0.3,0.3,0.8,0.4,1.4,0.4c0.5,0,1-0.1,1.5-0.3C244.9,66.9,245.3,66.6,245.7,66.3z"
   id="path31676" />
	<path
   class="second-color"
   fill="#58595B"
   d="M257.8,68.5h-1.5v-5c0-0.4,0-0.8-0.1-1.1c0-0.4-0.1-0.6-0.3-0.8c-0.1-0.2-0.3-0.4-0.6-0.5   c-0.3-0.1-0.6-0.2-1-0.2c-0.4,0-0.9,0.1-1.3,0.3c-0.5,0.2-0.9,0.5-1.3,0.8v6.5h-1.5v-8.7h1.5v1c0.5-0.4,1-0.7,1.5-0.9   c0.5-0.2,1-0.3,1.6-0.3c1,0,1.7,0.3,2.3,0.9c0.5,0.6,0.8,1.4,0.8,2.5V68.5z"
   id="path31678" />
	<path
   class="second-color"
   fill="#58595B"
   d="M262.4,58.3h-1.7v-1.5h1.7V58.3z M262.3,68.5h-1.5v-8.7h1.5V68.5z"
   id="path31680" />
	<path
   class="second-color"
   fill="#58595B"
   d="M270.1,68.4c-0.3,0.1-0.6,0.1-0.9,0.2c-0.3,0-0.6,0.1-0.9,0.1c-0.9,0-1.6-0.2-2.1-0.7   c-0.5-0.5-0.7-1.2-0.7-2.3V61h-1v-1.2h1v-2.5h1.5v2.5h3.2V61h-3.2v4c0,0.5,0,0.8,0,1.1s0.1,0.5,0.2,0.7c0.1,0.2,0.3,0.4,0.5,0.5   c0.2,0.1,0.5,0.1,1,0.1c0.3,0,0.5,0,0.8-0.1s0.5-0.1,0.6-0.2h0.1V68.4z"
   id="path31682" />
	<path
   class="second-color"
   fill="#58595B"
   d="M279,68.5h-1.5v-0.9c-0.1,0.1-0.3,0.2-0.6,0.4c-0.2,0.2-0.5,0.3-0.7,0.4c-0.3,0.1-0.5,0.2-0.9,0.3   c-0.3,0.1-0.7,0.1-1.2,0.1c-0.8,0-1.5-0.3-2.1-0.8c-0.6-0.5-0.9-1.2-0.9-2c0-0.7,0.1-1.2,0.4-1.6c0.3-0.4,0.7-0.7,1.3-1   c0.6-0.2,1.2-0.4,2-0.5c0.8-0.1,1.6-0.1,2.5-0.2v-0.2c0-0.3-0.1-0.6-0.2-0.8c-0.1-0.2-0.3-0.4-0.5-0.5c-0.2-0.1-0.5-0.2-0.8-0.2   c-0.3,0-0.6-0.1-1-0.1c-0.4,0-0.9,0.1-1.3,0.2c-0.5,0.1-1,0.2-1.5,0.4h-0.1v-1.5c0.3-0.1,0.7-0.2,1.3-0.3s1.1-0.1,1.7-0.1   c0.6,0,1.2,0.1,1.7,0.2s0.9,0.3,1.2,0.5c0.3,0.2,0.6,0.5,0.8,0.9c0.2,0.4,0.3,0.9,0.3,1.4V68.5z M277.5,66.3v-2.4   c-0.5,0-1,0.1-1.7,0.1c-0.6,0.1-1.1,0.1-1.5,0.2c-0.4,0.1-0.8,0.3-1.1,0.6c-0.3,0.3-0.4,0.6-0.4,1c0,0.5,0.2,0.9,0.5,1.1   c0.3,0.3,0.8,0.4,1.4,0.4c0.5,0,1-0.1,1.5-0.3C276.7,66.9,277.1,66.6,277.5,66.3z"
   id="path31684" />
	<path
   class="second-color"
   fill="#58595B"
   d="M287.7,61.4L287.7,61.4c-0.3-0.1-0.5-0.1-0.7-0.1c-0.2,0-0.5,0-0.8,0c-0.5,0-0.9,0.1-1.4,0.3   c-0.4,0.2-0.9,0.5-1.3,0.8v6.2H282v-8.7h1.5V61c0.6-0.5,1.1-0.8,1.6-1s0.9-0.3,1.4-0.3c0.3,0,0.5,0,0.6,0c0.1,0,0.3,0,0.5,0.1V61.4   z"
   id="path31686" />
	<path
   class="second-color"
   fill="#58595B"
   d="M290.8,58.3h-1.7v-1.5h1.7V58.3z M290.7,68.5h-1.5v-8.7h1.5V68.5z"
   id="path31688" />
	<path
   class="second-color"
   fill="#58595B"
   d="M300.8,68.5h-1.5v-0.9c-0.1,0.1-0.3,0.2-0.6,0.4c-0.2,0.2-0.5,0.3-0.7,0.4c-0.3,0.1-0.5,0.2-0.9,0.3   c-0.3,0.1-0.7,0.1-1.2,0.1c-0.8,0-1.5-0.3-2.1-0.8c-0.6-0.5-0.9-1.2-0.9-2c0-0.7,0.1-1.2,0.4-1.6c0.3-0.4,0.7-0.7,1.3-1   c0.6-0.2,1.2-0.4,2-0.5c0.8-0.1,1.6-0.1,2.5-0.2v-0.2c0-0.3-0.1-0.6-0.2-0.8c-0.1-0.2-0.3-0.4-0.5-0.5c-0.2-0.1-0.5-0.2-0.8-0.2   c-0.3,0-0.6-0.1-1-0.1c-0.4,0-0.9,0.1-1.3,0.2c-0.5,0.1-1,0.2-1.5,0.4h-0.1v-1.5c0.3-0.1,0.7-0.2,1.3-0.3s1.1-0.1,1.7-0.1   c0.6,0,1.2,0.1,1.7,0.2s0.9,0.3,1.2,0.5c0.3,0.2,0.6,0.5,0.8,0.9c0.2,0.4,0.3,0.9,0.3,1.4V68.5z M299.3,66.3v-2.4   c-0.5,0-1,0.1-1.7,0.1c-0.6,0.1-1.1,0.1-1.5,0.2c-0.4,0.1-0.8,0.3-1.1,0.6c-0.3,0.3-0.4,0.6-0.4,1c0,0.5,0.2,0.9,0.5,1.1   c0.3,0.3,0.8,0.4,1.4,0.4c0.5,0,1-0.1,1.5-0.3C298.5,66.9,298.9,66.6,299.3,66.3z"
   id="path31690" />
	<path
   class="second-color"
   fill="#58595B"
   d="M311.4,68.5h-1.5v-5c0-0.4,0-0.8-0.1-1.1c0-0.4-0.1-0.6-0.3-0.8c-0.1-0.2-0.3-0.4-0.6-0.5   c-0.3-0.1-0.6-0.2-1-0.2c-0.4,0-0.9,0.1-1.3,0.3c-0.5,0.2-0.9,0.5-1.3,0.8v6.5h-1.5v-8.7h1.5v1c0.5-0.4,1-0.7,1.5-0.9   c0.5-0.2,1-0.3,1.6-0.3c1,0,1.7,0.3,2.3,0.9c0.5,0.6,0.8,1.4,0.8,2.5V68.5z"
   id="path31692" />
	<path
   class="second-color"
   fill="#58595B"
   d="M329.2,65.2c0,0.5-0.1,0.9-0.3,1.3c-0.2,0.4-0.5,0.8-0.9,1.1c-0.4,0.3-0.9,0.6-1.5,0.8s-1.3,0.3-2.1,0.3   c-0.9,0-1.7-0.1-2.4-0.2c-0.7-0.2-1.4-0.4-2.1-0.7v-1.9h0.1c0.6,0.5,1.3,0.9,2.1,1.1c0.8,0.3,1.6,0.4,2.3,0.4c1,0,1.8-0.2,2.3-0.5   c0.6-0.4,0.8-0.8,0.8-1.4c0-0.5-0.1-0.9-0.4-1.1c-0.3-0.2-0.7-0.4-1.2-0.6c-0.4-0.1-0.9-0.2-1.3-0.3c-0.5-0.1-1-0.2-1.5-0.3   c-1.1-0.2-1.9-0.6-2.4-1.1c-0.5-0.5-0.8-1.2-0.8-2.1c0-1,0.4-1.8,1.3-2.4c0.9-0.6,2-0.9,3.3-0.9c0.9,0,1.6,0.1,2.4,0.2   c0.7,0.2,1.3,0.3,1.9,0.6v1.8h-0.1c-0.5-0.4-1.1-0.7-1.8-0.9c-0.8-0.2-1.5-0.4-2.3-0.4c-0.9,0-1.6,0.2-2.1,0.5   c-0.5,0.3-0.8,0.8-0.8,1.3c0,0.5,0.1,0.9,0.4,1.1c0.3,0.3,0.7,0.5,1.4,0.6c0.3,0.1,0.8,0.2,1.5,0.3c0.6,0.1,1.2,0.2,1.6,0.3   c0.9,0.2,1.6,0.6,2,1C329,63.7,329.2,64.3,329.2,65.2z"
   id="path31694" />
	<path
   class="second-color"
   fill="#58595B"
   d="M339.3,68.5h-1.5v-5c0-0.4,0-0.8-0.1-1.1c0-0.4-0.1-0.6-0.3-0.8c-0.1-0.2-0.3-0.4-0.6-0.5   c-0.3-0.1-0.6-0.2-1-0.2c-0.4,0-0.9,0.1-1.3,0.3c-0.5,0.2-0.9,0.5-1.3,0.8v6.5h-1.5V56.3h1.5v4.4c0.5-0.4,1-0.7,1.5-0.9   c0.5-0.2,1-0.3,1.6-0.3c1,0,1.7,0.3,2.3,0.9c0.5,0.6,0.8,1.4,0.8,2.5V68.5z"
   id="path31696" />
	<path
   class="second-color"
   fill="#58595B"
   d="M349.9,64.3h-6.7c0,0.5,0.1,1,0.3,1.4c0.2,0.4,0.4,0.7,0.7,1c0.3,0.2,0.6,0.4,1,0.6   c0.4,0.1,0.8,0.2,1.3,0.2c0.6,0,1.2-0.1,1.9-0.4c0.6-0.2,1.1-0.5,1.3-0.7h0.1v1.6c-0.5,0.2-1,0.4-1.6,0.5s-1.1,0.2-1.7,0.2   c-1.5,0-2.7-0.4-3.5-1.2c-0.8-0.8-1.3-1.9-1.3-3.3c0-1.4,0.4-2.6,1.2-3.4c0.8-0.8,1.9-1.3,3.2-1.3c1.2,0,2.2,0.3,2.8,1s1,1.7,1,2.9   V64.3z M348.4,63.1c0-0.8-0.2-1.4-0.6-1.8s-1-0.6-1.8-0.6c-0.8,0-1.5,0.2-2,0.7c-0.5,0.5-0.8,1-0.8,1.7H348.4z"
   id="path31698" />
	<path
   class="second-color"
   fill="#58595B"
   d="M353.8,68.5h-1.5V56.3h1.5V68.5z"
   id="path31700" />
	<path
   class="second-color"
   fill="#58595B"
   d="M361.6,68.4c-0.3,0.1-0.6,0.1-0.9,0.2c-0.3,0-0.6,0.1-0.9,0.1c-0.9,0-1.6-0.2-2.1-0.7   c-0.5-0.5-0.7-1.2-0.7-2.3V61h-1v-1.2h1v-2.5h1.5v2.5h3.2V61h-3.2v4c0,0.5,0,0.8,0,1.1s0.1,0.5,0.2,0.7c0.1,0.2,0.3,0.4,0.5,0.5   c0.2,0.1,0.5,0.1,1,0.1c0.3,0,0.5,0,0.8-0.1s0.5-0.1,0.6-0.2h0.1V68.4z"
   id="path31702" />
	<path
   class="second-color"
   fill="#58595B"
   d="M371.1,64.3h-6.7c0,0.5,0.1,1,0.3,1.4c0.2,0.4,0.4,0.7,0.7,1c0.3,0.2,0.6,0.4,1,0.6   c0.4,0.1,0.8,0.2,1.3,0.2c0.6,0,1.2-0.1,1.9-0.4c0.6-0.2,1.1-0.5,1.3-0.7h0.1v1.6c-0.5,0.2-1,0.4-1.6,0.5s-1.1,0.2-1.7,0.2   c-1.5,0-2.7-0.4-3.5-1.2c-0.8-0.8-1.3-1.9-1.3-3.3c0-1.4,0.4-2.6,1.2-3.4c0.8-0.8,1.9-1.3,3.2-1.3c1.2,0,2.2,0.3,2.8,1s1,1.7,1,2.9   V64.3z M369.6,63.1c0-0.8-0.2-1.4-0.6-1.8s-1-0.6-1.8-0.6c-0.8,0-1.5,0.2-2,0.7c-0.5,0.5-0.8,1-0.8,1.7H369.6z"
   id="path31704" />
	<path
   class="second-color"
   fill="#58595B"
   d="M379.1,61.4L379.1,61.4c-0.3-0.1-0.5-0.1-0.7-0.1c-0.2,0-0.5,0-0.8,0c-0.5,0-0.9,0.1-1.4,0.3   c-0.4,0.2-0.9,0.5-1.3,0.8v6.2h-1.5v-8.7h1.5V61c0.6-0.5,1.1-0.8,1.6-1s0.9-0.3,1.4-0.3c0.3,0,0.5,0,0.6,0c0.1,0,0.3,0,0.5,0.1   V61.4z"
   id="path31706" />
</g>
<g
   id="g31750">
	<path
   fill="#7F1416"
   d="M103,30.6c-0.8,0.3-1.8,0.6-3.1,0.9S97.3,32,96,32c-3,0-5.3-0.8-7-2.4s-2.5-3.8-2.5-6.7   c0-2.7,0.8-4.9,2.5-6.6s4.1-2.5,7.1-2.5c1.1,0,2.2,0.1,3.3,0.3s2.2,0.6,3.5,1.2v4.1h-0.5c-0.2-0.2-0.5-0.4-1-0.7s-0.8-0.6-1.2-0.8   c-0.5-0.2-1-0.5-1.6-0.6s-1.2-0.3-1.9-0.3c-0.8,0-1.5,0.1-2.2,0.4s-1.2,0.6-1.7,1.1c-0.5,0.5-0.9,1.1-1.2,1.8s-0.4,1.6-0.4,2.5   c0,1.9,0.5,3.4,1.5,4.4s2.5,1.5,4.5,1.5c0.2,0,0.4,0,0.6,0s0.4,0,0.6,0v-3.4h-3.5V22h8.1V30.6z"
   id="path31710" />
	<path
   fill="#7F1416"
   d="M111,31.6h-4.2V13.4h4.2V31.6z"
   id="path31712" />
	<path
   fill="#7F1416"
   d="M128.4,25c0,2.2-0.6,3.9-1.9,5.1s-3,1.9-5.3,1.9s-4.1-0.6-5.3-1.9s-1.9-3-1.9-5.1c0-2.2,0.6-3.9,1.9-5.1   s3-1.9,5.3-1.9c2.3,0,4.1,0.6,5.3,1.9S128.4,22.9,128.4,25z M123.3,28.2c0.3-0.3,0.5-0.7,0.6-1.2s0.2-1.1,0.2-2   c0-0.8-0.1-1.4-0.2-1.9s-0.3-0.9-0.6-1.3c-0.2-0.3-0.6-0.5-0.9-0.7s-0.7-0.2-1.1-0.2s-0.8,0.1-1.1,0.2s-0.6,0.3-0.9,0.7   c-0.3,0.3-0.5,0.7-0.6,1.3s-0.2,1.2-0.2,2c0,0.7,0.1,1.3,0.2,1.9s0.3,1,0.6,1.3c0.2,0.3,0.5,0.5,0.9,0.7s0.7,0.2,1.2,0.2   c0.4,0,0.7-0.1,1.1-0.2S123,28.5,123.3,28.2z"
   id="path31714" />
	<path
   fill="#7F1416"
   d="M145.2,24.8c0,2.1-0.6,3.8-1.7,5.1s-2.6,2-4.3,2c-0.7,0-1.4-0.1-1.9-0.2s-1.1-0.4-1.6-0.7l-0.2,0.7h-4.1   V13.4h4.2v6.4c0.6-0.5,1.3-0.9,2-1.3c0.7-0.3,1.5-0.5,2.3-0.5c1.7,0,2.9,0.6,3.8,1.8C144.8,21.1,145.2,22.7,145.2,24.8z    M140.9,24.9c0-1.2-0.2-2.1-0.6-2.7c-0.4-0.6-1.1-0.9-2.1-0.9c-0.4,0-0.8,0.1-1.2,0.2c-0.4,0.1-0.8,0.3-1.2,0.5v6.6   c0.3,0.1,0.6,0.2,0.9,0.2s0.6,0.1,1,0.1c1.1,0,1.9-0.3,2.5-1C140.6,27.2,140.9,26.2,140.9,24.9z"
   id="path31716" />
	<path
   fill="#7F1416"
   d="M156.2,30.2c-0.2,0.2-0.5,0.4-0.8,0.6s-0.7,0.4-0.9,0.6c-0.4,0.2-0.8,0.3-1.3,0.4s-0.9,0.1-1.5,0.1   c-1.2,0-2.3-0.4-3.1-1.2s-1.3-1.8-1.3-3c0-1,0.2-1.7,0.6-2.4s1-1.1,1.8-1.4c0.8-0.4,1.8-0.6,2.9-0.8s2.4-0.3,3.6-0.3v-0.1   c0-0.7-0.3-1.2-0.9-1.5s-1.5-0.4-2.6-0.4c-0.7,0-1.4,0.1-2.2,0.4s-1.4,0.4-1.7,0.6h-0.4v-3.2c0.4-0.1,1.2-0.3,2.2-0.4s2-0.2,3-0.2   c2.4,0,4.1,0.4,5.2,1.1s1.6,1.9,1.6,3.5v9h-4.2V30.2z M156.2,28.1v-2.7c-0.6,0-1.2,0.1-1.9,0.2s-1.2,0.2-1.5,0.3   c-0.4,0.1-0.7,0.3-1,0.6c-0.2,0.3-0.3,0.6-0.3,1c0,0.3,0,0.5,0.1,0.7s0.2,0.3,0.4,0.5c0.2,0.2,0.4,0.3,0.6,0.3   c0.2,0.1,0.6,0.1,1.2,0.1c0.4,0,0.8-0.1,1.3-0.3S155.9,28.4,156.2,28.1z"
   id="path31718" />
	<path
   fill="#7F1416"
   d="M168.5,31.6h-4.2V13.4h4.2V31.6z"
   id="path31720" />
	<path
   fill="#7F1416"
   d="M194.9,26.1c0,1.7-0.7,3.1-2.2,4.2s-3.4,1.6-5.9,1.6c-1.4,0-2.7-0.1-3.8-0.4s-2.1-0.6-3-1v-4.2h0.5   c0.9,0.7,2,1.3,3.1,1.7s2.3,0.6,3.3,0.6c0.3,0,0.6,0,1.1-0.1s0.8-0.1,1.1-0.2c0.3-0.1,0.6-0.3,0.8-0.5s0.3-0.5,0.3-0.9   c0-0.4-0.2-0.7-0.5-1s-0.8-0.5-1.4-0.6c-0.7-0.2-1.3-0.3-2.1-0.4s-1.4-0.3-2.1-0.5c-1.5-0.5-2.5-1.1-3.2-1.9s-1-1.8-1-3   c0-1.6,0.7-3,2.2-4s3.3-1.5,5.6-1.5c1.1,0,2.3,0.1,3.4,0.3s2.1,0.5,2.9,0.8v4h-0.5c-0.7-0.6-1.6-1-2.6-1.4S189.1,17,188,17   c-0.4,0-0.7,0-1.1,0.1s-0.7,0.1-1.1,0.3c-0.3,0.1-0.6,0.3-0.8,0.5s-0.3,0.5-0.3,0.8c0,0.5,0.2,0.8,0.5,1.1s1,0.5,2,0.7   c0.6,0.1,1.3,0.3,1.8,0.4s1.2,0.3,1.9,0.5c1.3,0.4,2.3,1,3,1.8S194.9,24.9,194.9,26.1z"
   id="path31722" />
	<path
   fill="#7F1416"
   d="M211,31.6h-4.2v-6.5c0-0.5,0-1.1-0.1-1.6s-0.1-0.9-0.3-1.2c-0.2-0.3-0.4-0.5-0.7-0.6s-0.7-0.2-1.3-0.2   c-0.4,0-0.8,0.1-1.2,0.2s-0.8,0.3-1.3,0.6v9.3h-4.2V13.4h4.2v6.5c0.7-0.6,1.5-1,2.2-1.3s1.5-0.5,2.3-0.5c1.4,0,2.5,0.4,3.3,1.2   c0.8,0.8,1.2,2.1,1.2,3.7V31.6z"
   id="path31724" />
	<path
   fill="#7F1416"
   d="M227.8,25.8h-9.7c0.1,1,0.5,1.8,1.2,2.4s1.8,0.8,3.2,0.8c0.9,0,1.8-0.2,2.6-0.5s1.5-0.7,2-1h0.5v3.4   c-1,0.4-1.9,0.7-2.7,0.8s-1.8,0.3-2.8,0.3c-2.6,0-4.7-0.6-6.1-1.8s-2.1-2.9-2.1-5.1c0-2.2,0.7-3.9,2-5.2s3.2-1.9,5.5-1.9   c2.1,0,3.8,0.5,4.8,1.6s1.6,2.6,1.6,4.7V25.8z M223.6,23.3c0-0.9-0.2-1.5-0.7-2s-1.1-0.7-1.9-0.7c-0.8,0-1.5,0.2-2,0.6   s-0.8,1.1-0.9,2H223.6z"
   id="path31726" />
	<path
   fill="#7F1416"
   d="M235,31.6h-4.2V13.4h4.2V31.6z"
   id="path31728" />
	<path
   fill="#7F1416"
   d="M247.4,31.5c-0.5,0.1-0.9,0.2-1.4,0.3c-0.5,0.1-1.1,0.1-1.9,0.1c-1.6,0-2.9-0.3-3.7-1s-1.2-1.8-1.2-3.4   v-6.2h-1.7v-2.9h1.7v-3.8h4.2v3.8h3.9v2.9h-3.9V26c0,0.5,0,0.9,0,1.2s0.1,0.7,0.2,0.9c0.1,0.3,0.3,0.5,0.6,0.7   c0.3,0.2,0.7,0.2,1.2,0.2c0.2,0,0.5,0,0.9-0.1s0.6-0.2,0.7-0.3h0.4V31.5z"
   id="path31730" />
	<path
   fill="#7F1416"
   d="M262.9,25.8h-9.7c0.1,1,0.5,1.8,1.2,2.4s1.8,0.8,3.2,0.8c0.9,0,1.8-0.2,2.6-0.5s1.5-0.7,2-1h0.5v3.4   c-1,0.4-1.9,0.7-2.7,0.8s-1.8,0.3-2.8,0.3c-2.6,0-4.7-0.6-6.1-1.8s-2.1-2.9-2.1-5.1c0-2.2,0.7-3.9,2-5.2s3.2-1.9,5.5-1.9   c2.1,0,3.8,0.5,4.8,1.6s1.6,2.6,1.6,4.7V25.8z M258.7,23.3c0-0.9-0.2-1.5-0.7-2s-1.1-0.7-1.9-0.7c-0.8,0-1.5,0.2-2,0.6   s-0.8,1.1-0.9,2H258.7z"
   id="path31732" />
	<path
   fill="#7F1416"
   d="M275.4,22.4H275c-0.2-0.1-0.5-0.1-0.9-0.1s-0.7,0-1,0c-0.6,0-1.1,0-1.6,0.1s-1,0.2-1.5,0.4v8.8h-4.2V18.4   h4.2v1.9c0.9-0.8,1.7-1.3,2.4-1.6c0.7-0.3,1.3-0.4,1.9-0.4c0.1,0,0.3,0,0.5,0c0.2,0,0.4,0,0.5,0V22.4z"
   id="path31734" />
	<path
   fill="#7F1416"
   d="M294.1,31.9c-1.3,0-2.5-0.2-3.6-0.6s-2-1-2.8-1.7s-1.4-1.7-1.8-2.8s-0.7-2.4-0.7-3.9c0-1.4,0.2-2.6,0.6-3.8   s1-2.1,1.8-2.9c0.8-0.8,1.7-1.4,2.8-1.8s2.3-0.6,3.7-0.6c0.7,0,1.4,0,2,0.1s1.1,0.2,1.6,0.3c0.5,0.1,1,0.3,1.4,0.5s0.8,0.4,1.1,0.5   v4.2h-0.5c-0.2-0.2-0.5-0.4-0.8-0.7s-0.7-0.5-1.1-0.8c-0.4-0.2-0.9-0.5-1.4-0.6c-0.5-0.2-1-0.3-1.6-0.3c-0.6,0-1.2,0.1-1.8,0.3   s-1.1,0.5-1.6,1c-0.5,0.4-0.8,1-1.1,1.8s-0.4,1.6-0.4,2.7c0,1.1,0.2,2,0.5,2.7c0.3,0.7,0.7,1.3,1.2,1.7c0.5,0.4,1,0.7,1.6,0.9   s1.2,0.3,1.7,0.3c0.5,0,1.1-0.1,1.6-0.2c0.5-0.2,1-0.4,1.5-0.7c0.4-0.2,0.7-0.5,1.1-0.7c0.3-0.3,0.6-0.5,0.8-0.7h0.5v4.2   c-0.4,0.2-0.9,0.4-1.3,0.6s-0.8,0.3-1.3,0.4c-0.6,0.2-1.1,0.3-1.6,0.4S295,31.9,294.1,31.9z"
   id="path31736" />
	<path
   fill="#7F1416"
   d="M307.6,31.6h-4.2V13.4h4.2V31.6z"
   id="path31738" />
	<path
   fill="#7F1416"
   d="M324.7,31.6h-4.2v-1.5c-0.8,0.6-1.5,1-2.1,1.4S316.9,32,316,32c-1.5,0-2.6-0.4-3.4-1.3s-1.2-2.1-1.2-3.7   v-8.6h4.2V25c0,0.7,0,1.2,0.1,1.7s0.1,0.8,0.3,1.1c0.1,0.3,0.4,0.5,0.7,0.6s0.7,0.2,1.3,0.2c0.4,0,0.8-0.1,1.2-0.2s0.9-0.3,1.3-0.6   v-9.3h4.2V31.6z"
   id="path31740" />
	<path
   fill="#7F1416"
   d="M340.1,27.4c0,1.4-0.6,2.5-1.8,3.3s-2.9,1.2-5,1.2c-1.2,0-2.2-0.1-3.2-0.3s-1.7-0.5-2.3-0.7v-3.5h0.4   c0.2,0.1,0.5,0.3,0.7,0.5s0.7,0.4,1.2,0.6c0.4,0.2,0.9,0.3,1.5,0.5s1.1,0.2,1.8,0.2c0.8,0,1.4-0.1,1.8-0.3s0.6-0.5,0.6-0.8   c0-0.3-0.1-0.6-0.4-0.7s-0.7-0.3-1.3-0.4c-0.3-0.1-0.7-0.1-1.3-0.2s-1-0.2-1.5-0.3c-1.2-0.3-2.1-0.8-2.7-1.5s-0.9-1.5-0.9-2.5   c0-1.3,0.6-2.3,1.8-3.2s2.8-1.3,4.9-1.3c1,0,1.9,0.1,2.8,0.3s1.6,0.4,2.1,0.6v3.3h-0.4c-0.6-0.4-1.3-0.8-2.1-1s-1.6-0.4-2.4-0.4   c-0.7,0-1.3,0.1-1.7,0.3s-0.7,0.5-0.7,0.8c0,0.3,0.1,0.6,0.3,0.7s0.7,0.3,1.5,0.5c0.4,0.1,0.9,0.2,1.4,0.3s1,0.2,1.5,0.3   c1.1,0.3,1.9,0.7,2.5,1.4S340.1,26.5,340.1,27.4z"
   id="path31742" />
	<path
   fill="#7F1416"
   d="M351.3,31.5c-0.5,0.1-0.9,0.2-1.4,0.3c-0.5,0.1-1.1,0.1-1.9,0.1c-1.6,0-2.9-0.3-3.7-1s-1.2-1.8-1.2-3.4   v-6.2h-1.7v-2.9h1.7v-3.8h4.2v3.8h3.9v2.9h-3.9V26c0,0.5,0,0.9,0,1.2s0.1,0.7,0.2,0.9c0.1,0.3,0.3,0.5,0.6,0.7   c0.3,0.2,0.7,0.2,1.2,0.2c0.2,0,0.5,0,0.9-0.1s0.6-0.2,0.7-0.3h0.4V31.5z"
   id="path31744" />
	<path
   fill="#7F1416"
   d="M366.8,25.8h-9.7c0.1,1,0.5,1.8,1.2,2.4s1.8,0.8,3.2,0.8c0.9,0,1.8-0.2,2.6-0.5s1.5-0.7,2-1h0.5v3.4   c-1,0.4-1.9,0.7-2.7,0.8s-1.8,0.3-2.8,0.3c-2.6,0-4.7-0.6-6.1-1.8s-2.1-2.9-2.1-5.1c0-2.2,0.7-3.9,2-5.2s3.2-1.9,5.5-1.9   c2.1,0,3.8,0.5,4.8,1.6s1.6,2.6,1.6,4.7V25.8z M362.6,23.3c0-0.9-0.2-1.5-0.7-2s-1.1-0.7-1.9-0.7c-0.8,0-1.5,0.2-2,0.6   s-0.8,1.1-0.9,2H362.6z"
   id="path31746" />
	<path
   fill="#7F1416"
   d="M379.3,22.4h-0.4c-0.2-0.1-0.5-0.1-0.9-0.1s-0.7,0-1,0c-0.6,0-1.1,0-1.6,0.1s-1,0.2-1.5,0.4v8.8h-4.2V18.4   h4.2v1.9c0.9-0.8,1.7-1.3,2.4-1.6c0.7-0.3,1.3-0.4,1.9-0.4c0.1,0,0.3,0,0.5,0c0.2,0,0.4,0,0.5,0V22.4z"
   id="path31748" />
</g>
</svg>
