<?xml version="1.0" encoding="UTF-8" standalone="no"?>
<!-- Generator: Adobe Illustrator 18.1.0, SVG Export Plug-In . SVG Version: 6.00 Build 0)  -->

<svg
   version="1.1"
   id="Layer_1"
   x="0px"
   y="0px"
   viewBox="0 0 410.17618 82.077682"
   enable-background="new 0 0 391 82"
   xml:space="preserve"
   sodipodi:docname="logo-vanuatu-shelter-cluster.svg"
   inkscape:version="1.2.2 (732a01da63, 2022-12-09)"
   width="410.17618"
   height="82.077682"
   inkscape:export-filename="logo-vanuatu-shelter-cluster-300dpi.png"
   inkscape:export-xdpi="300"
   inkscape:export-ydpi="300"
   xmlns:inkscape="http://www.inkscape.org/namespaces/inkscape"
   xmlns:sodipodi="http://sodipodi.sourceforge.net/DTD/sodipodi-0.dtd"
   xmlns="http://www.w3.org/2000/svg"
   xmlns:svg="http://www.w3.org/2000/svg"><defs
   id="defs31755"><rect
   x="26.174379"
   y="-44.916527"
   width="306.01404"
   height="26.49752"
   id="rect415" />
	
	
	
	
	
	
	
	
	
	
	
	
	
	
	
	
	
	
	
	

	
	
	
	
	
	
	
	
	
	
	
	
	
	
	
	
	
	
	
	
	
	
	
	
	
	
	
	
	
	
	
</defs><sodipodi:namedview
   id="namedview31753"
   pagecolor="#ffffff"
   bordercolor="#000000"
   borderopacity="0.25"
   inkscape:showpageshadow="2"
   inkscape:pageopacity="0.0"
   inkscape:pagecheckerboard="0"
   inkscape:deskcolor="#d1d1d1"
   showgrid="false"
   inkscape:zoom="2.1882333"
   inkscape:cx="135.26894"
   inkscape:cy="3.1989276"
   inkscape:window-width="1920"
   inkscape:window-height="1009"
   inkscape:window-x="1912"
   inkscape:window-y="-8"
   inkscape:window-maximized="1"
   inkscape:current-layer="Layer_1" />





<g
   id="g4954"><rect
     style="fill:#ffffff;stroke-width:1.0238"
     id="rect31926"
     width="410.17618"
     height="82.077682"
     x="0"
     y="0" /><polygon
     fill="#944031"
     points="40.5,37 40.5,72.6 75.6,52.4 75.6,18.5 58.1,12.2 40.5,37 "
     id="polygon31604" /><path
     class="second-color"
     fill="#7f1416"
     d="M 58.1,12.2 55.5,11.4 38.2,35.7 17.4,23.6 v 0 c 0,0 -1.8,-0.7 -1.8,1.5 0,2 -0.4,3.5 1.8,4.8 l 5,2.9 c 0.2,0.1 0.3,0.4 0.2,0.6 -0.1,0.1 -0.2,0.2 -0.4,0.2 -0.1,0 -0.1,0 -0.2,-0.1 L 20,32.4 8.7,26 c 0,0 -1.8,-0.8 -1.8,1.6 0,2.1 -0.4,3.6 1.8,4.9 3.1,1.7 7.9,4.5 11.4,6.4 1.4,0.8 2.4,1.4 2.4,1.4 0.2,0.1 0.3,0.4 0.2,0.6 -0.1,0.1 -0.2,0.2 -0.4,0.2 -0.1,0 -0.1,0 -0.2,-0.1 L 7.2,32.5 v 0 c 0,0 -1.8,-0.8 -1.8,1.6 0,2.1 -0.4,3.6 1.8,4.9 5.1,2.9 5.1,2.9 15.2,8.7 0.2,0.1 0.3,0.4 0.2,0.6 -0.1,0.1 -0.2,0.2 -0.4,0.2 -0.1,0 -0.1,0 -0.2,-0.1 L 8,40.3 c 0,0 -1.8,-0.8 -1.8,1.6 0,2.1 -0.4,3.6 1.8,4.9 v 0 c 8.3,4.7 7.6,4.3 14.5,8.3 0.2,0.1 0.3,0.4 0.2,0.6 -0.1,0.1 -0.2,0.2 -0.4,0.2 -0.1,0 -0.1,0 -0.2,-0.1 L 11.2,49.7 v 0 c 0,0 -1.8,-0.7 -1.8,1.5 0,2 -0.4,3.4 1.8,4.7 L 40.6,72.7 V 37 Z"
     id="path31606" /><text
     xml:space="preserve"
     style="font-style:normal;font-variant:normal;font-weight:bold;font-stretch:normal;font-size:18px;font-family:Verdana;-inkscape-font-specification:'Verdana Bold';fill:#7f1416;fill-opacity:1"
     x="86.322266"
     y="51.079002"
     id="text3998"><tspan
       sodipodi:role="line"
       id="tspan3996"
       x="86.322266"
       y="51.079002"
       style="font-style:normal;font-variant:normal;font-weight:normal;font-stretch:normal;font-size:18px;font-family:Verdana;-inkscape-font-specification:Verdana;fill:#7f1416;fill-opacity:1">ShelterCluster.org</tspan></text><text
     xml:space="preserve"
     id="text413"
     style="font-size:12.4392px;white-space:pre;shape-inside:url(#rect415);display:inline;fill:#7f1416;fill-opacity:1"
     transform="matrix(1.9293835,0,0,1.9293835,34.793617,96.576408)"><tspan
       x="26.173828"
       y="-33.567356"
       id="tspan261"><tspan
         style="font-weight:bold;font-family:Verdana;-inkscape-font-specification:'Verdana Bold'"
         id="tspan259">Shelter Cluster Vanuatu</tspan></tspan></text><text
     xml:space="preserve"
     style="font-style:normal;font-variant:normal;font-weight:normal;font-stretch:normal;font-size:16.6667px;font-family:Verdana;-inkscape-font-specification:Verdana;fill:#58595b;fill-opacity:1"
     x="86.364128"
     y="68.581169"
     id="text4419"><tspan
       sodipodi:role="line"
       id="tspan4417"
       x="86.364128"
       y="68.581169"
       style="font-size:16.6667px;fill:#58595b;fill-opacity:1">Coordinating Humanitarian Shelter</tspan></text></g></svg>
