<?xml version="1.0" encoding="UTF-8" standalone="no"?>
<!-- Generator: Adobe Illustrator 19.2.1, SVG Export Plug-In . SVG Version: 6.00 Build 0)  -->

<svg
   version="1.1"
   id="layer"
   x="0px"
   y="0px"
   viewBox="0 0 599.90002 132.3"
   xml:space="preserve"
   sodipodi:docname="qatar-red-crescent-logo.svg"
   width="599.90002"
   height="132.3"
   inkscape:version="1.1.1 (3bf5ae0d25, 2021-09-20)"
   xmlns:inkscape="http://www.inkscape.org/namespaces/inkscape"
   xmlns:sodipodi="http://sodipodi.sourceforge.net/DTD/sodipodi-0.dtd"
   xmlns="http://www.w3.org/2000/svg"
   xmlns:svg="http://www.w3.org/2000/svg"><defs
   id="defs45" /><sodipodi:namedview
   id="namedview43"
   pagecolor="#ffffff"
   bordercolor="#666666"
   borderopacity="1.0"
   inkscape:pageshadow="2"
   inkscape:pageopacity="0.0"
   inkscape:pagecheckerboard="0"
   showgrid="false"
   fit-margin-top="0"
   fit-margin-left="0"
   fit-margin-right="0"
   fit-margin-bottom="0"
   inkscape:zoom="0.63803681"
   inkscape:cx="224.90865"
   inkscape:cy="104.22596"
   inkscape:window-width="1920"
   inkscape:window-height="1017"
   inkscape:window-x="-8"
   inkscape:window-y="-8"
   inkscape:window-maximized="1"
   inkscape:current-layer="layer" />
<style
   type="text/css"
   id="style2">
	.st0{fill:#DF271C;}
</style>
<g
   id="g40"
   transform="translate(-20.4,-255.6)">
	<path
   class="st0"
   d="m 51.4,321.7 c 0,-30.1 24.3,-54.5 54.4,-54.5 9.6,0 18.6,2.5 26.4,6.9 -11.9,-11.5 -28,-18.5 -45.8,-18.5 -36.4,0 -66,29.6 -66,66.2 0,36.5 29.6,66.1 66,66.1 17.8,0 33.9,-7 45.8,-18.5 -7.8,4.4 -16.8,6.9 -26.4,6.9 -30.1,-0.1 -54.4,-24.5 -54.4,-54.6"
   id="path4" />
	<path
   d="m 615.9,307.5 h 4.4 V 270 h -4.4 z M 570.8,303 c -3.8,0 -5.9,-3 -5.9,-7.4 0,-5.1 2.2,-7.8 6.2,-7.9 3.6,0 5.6,2.5 5.6,7.3 0,5.5 -1.9,8 -5.9,8 m 33.7,-7.6 c 0,2.6 -0.3,4.4 -0.8,5.4 -0.8,1.5 -2.3,2.3 -4.7,2.3 h -1.1 v 0 h -6.5 c 0.1,-1.2 0.2,-2.4 0.2,-3.6 0,-5.7 -1.4,-10.6 -4.1,-14.6 -3.1,-4.6 -8.9,-8.5 -13.4,-9.3 h -0.3 v 4.5 h 0.2 c 7.2,2.1 13.3,9.1 13.3,18.5 0,1.5 -0.2,3 -0.5,4.4 H 579 c 1.6,-2 2.5,-4.6 2.5,-7.7 0,-6.8 -4.1,-11.3 -10.3,-11.3 -6.4,0 -10.6,4.9 -10.6,11.4 0,3.1 0.8,5.6 2.4,7.7 h -8 V 303 h -9.8 c 0.7,-1.6 1.1,-3.5 1.1,-5.9 V 270 h -4.5 v 25.4 c 0,6.2 -1.4,7.6 -5.5,7.7 h -1.5 l -7.3,-28.7 h -4.7 l 7.4,28.7 h -9.3 v 4.4 h 76.9 2.5 c 5.7,0 8.6,-3.5 8.6,-10.3 V 270 h -4.4 z m -93.7,0.9 c 0,4.5 -0.9,8.2 -2.7,11.1 -2.1,3.5 -5.1,5.3 -9.3,5.3 -4.1,0 -7.1,-1.7 -9.3,-5.3 -1.8,-2.9 -2.7,-6.6 -2.7,-11.1 v -4.9 h -4.4 v 5.7 c 0,5.8 1.6,10.6 4.7,14.3 3.2,3.7 7.1,5.6 11.8,5.6 v 0 c 4.6,0 8.5,-1.9 11.5,-5.5 3.2,-3.8 4.8,-8.6 4.8,-14.4 v -27 h -4.4 z m -46,11.2 h 4.4 V 270 h -4.4 z m -11.4,-12.1 c -0.1,6.2 -1.5,7.6 -5.5,7.7 h -1.5 l -7.3,-28.6 h -4.8 l 7.4,28.6 h -9.3 v 4.4 h 16.8 c 5.7,0 8.6,-3.5 8.6,-10.3 V 270 h -4.4 z M 441.7,268 h -6.2 c -0.3,-0.5 -0.5,-1.1 -0.5,-1.8 0,-2 0.7,-2.8 2.1,-2.9 1.1,0 1.7,0.6 1.9,1.8 v 0.2 l 2.8,-0.3 -0.1,-0.2 c -0.5,-2.5 -2.1,-3.9 -4.7,-3.8 -3.3,0 -4.9,2.3 -4.9,5.3 0,0.6 0.1,1.2 0.3,1.8 h -2.2 v 2.7 h 11.4 V 268 Z M 370,308.4 c -2.4,0 -4.2,-0.9 -5.5,-2.7 -1.1,-1.5 -1.6,-3.6 -1.6,-6.2 0,-2.8 0.5,-4.9 1.6,-6.5 1.3,-1.9 3.2,-2.9 5.7,-2.9 2.4,0 4.1,0.9 5.3,2.7 1,1.5 1.5,3.5 1.5,6.1 0,6.4 -2.3,9.5 -7,9.5 m 37.6,-26.6 c -6.3,0 -11.1,2 -14.4,6.2 l -0.1,0.1 0.1,0.1 c 1.8,1.8 2.9,2.9 3.5,3.5 l 0.2,0.2 0.1,-0.2 c 2.3,-3.7 5.8,-5.6 10.6,-5.6 8.9,0 13.9,5.4 13.9,15 0,0.6 -0.1,1.2 -0.1,1.9 h -32.9 v 0 h -6.9 c 0.3,-1.2 0.4,-2.4 0.4,-3.8 0,-3.8 -1,-7 -3.1,-9.4 -2.2,-2.5 -5.2,-3.8 -9,-3.8 -3.8,0 -6.8,1.2 -9,3.7 -2.2,2.5 -3.3,5.6 -3.3,9.4 0,1.4 0.2,2.6 0.4,3.7 h -6.7 -7.7 v -22 h -4.4 v 22.1 c 0,6.7 -2.6,9.4 -7.8,9.4 h -0.2 v 4.3 h 0.2 c 6.6,-0.4 10.7,-3.5 11.8,-9.4 h 9.9 6.8 c 2.2,3.3 5.6,5 10,5 v 0 c 4.2,0 7.5,-1.7 9.7,-5 h 6.8 40.2 v -6 c 0.1,-11.7 -7.4,-19.4 -19,-19.4 m -93.9,25.7 h 4.4 V 270 h -4.4 z m -38.3,-8.3 c -2.5,-1.1 -4.5,-2.6 -5.9,-4.6 -1.3,-1.9 -1.9,-3.8 -1.9,-5.9 0,-4.2 2.9,-7.5 7.8,-7.6 2.5,0 4.4,0.8 5.8,2.3 1.3,1.4 2,3.2 2,5.3 0,2.1 -0.7,4 -2,5.9 -1.4,2.1 -3.3,3.6 -5.8,4.6 m -29.8,3.9 h -27.9 c 2.7,-9.4 11.2,-18 18.3,-18 6.1,0 9.8,5.8 9.8,14.6 -0.1,1.1 -0.1,2.2 -0.2,3.4 m 56.7,-7.7 c 0,2.6 -0.3,4.4 -0.8,5.4 -0.8,1.5 -2.2,2.3 -4.7,2.3 h -2.1 V 303 h -9.3 c -1.9,0 -3.7,-0.4 -5.4,-1.2 2.4,-1.2 4.4,-3 5.8,-5.2 1.4,-2.2 2.1,-4.7 2.1,-7.3 0,-3.3 -1.1,-6.1 -3.2,-8.4 -2.4,-2.5 -5.5,-3.7 -9.5,-3.7 -3.9,0 -7.1,1.2 -9.4,3.7 -2.2,2.3 -3.2,5.1 -3.2,8.4 0,2.6 0.7,5.1 2.1,7.3 1.4,2.3 3.3,4 5.8,5.2 -1.6,0.8 -3.4,1.2 -5.4,1.2 h -9.3 -5.7 c 0.1,-0.9 0.1,-1.6 0.1,-2.4 0,-12.9 -4.7,-19.6 -14,-19.6 -7.1,0 -14.6,5.8 -18.7,14.7 l 0.9,-25.7 h -4.7 v 33 h -7 v 0 h -9.5 v -22 h -4.5 v 22.1 c 0,6.7 -2.6,9.4 -7.8,9.4 h -0.2 v 4.3 h 0.3 c 6.6,-0.4 10.7,-3.5 11.8,-9.4 h 9.9 v 0 h 49.2 v 0 h 5.9 c 3.3,0 5.5,-0.1 6.7,-0.4 2.1,-0.4 4.4,-1.3 6.8,-2.7 2.4,1.4 4.7,2.3 6.8,2.7 1.2,0.2 3.4,0.4 6.6,0.4 h 4.1 5.2 c 5.7,0 8.6,-3.5 8.6,-10.3 V 270 h -4.4 v 25.4 z M 281.5,267.6 H 277 v 5.3 h 4.5 z m -7.5,0 h -4.5 v 5.3 h 4.5 z m -110.3,58.3 h 4.5 v -5.3 h -4.5 z m -7.5,0 h 4.5 v -5.3 h -4.5 z m 25,-34.3 h -14 c 1.7,-6.3 5.5,-9.4 11.6,-9.4 h 0.2 v -3.9 h -0.2 c -10.3,0 -16.4,5.8 -17.1,17.6 v 0.2 h 15.1 c -0.1,10.2 -5.6,16.5 -14.6,16.5 -8.3,0 -13.7,-5.5 -14.4,-14.8 -0.1,-0.5 -0.1,-2.6 -0.1,-6.2 v -0.2 h -4.5 v 5.7 c 0,11.1 8.2,19.7 18.8,19.8 h 0.3 c 10.5,0 18.8,-8.6 18.9,-19.5 v -0.2 h -0.2 0.2 z"
   id="path6" />
	<path
   d="m 171.3,365 c 1.5,-1.5 2.7,-3.4 3.4,-5.6 0.8,-2.2 1.1,-4.5 1.1,-6.9 0,-2 -0.3,-3.9 -0.8,-5.8 -0.5,-1.9 -1.3,-3.7 -2.4,-5.2 -1.1,-1.5 -2.5,-2.8 -4.2,-3.7 -1.7,-0.9 -3.8,-1.4 -6.1,-1.4 -2.4,0 -4.4,0.5 -6.2,1.4 -1.7,1 -3.2,2.2 -4.3,3.7 -1.1,1.5 -1.9,3.3 -2.4,5.2 -0.5,1.9 -0.8,3.9 -0.8,5.8 0,2 0.3,3.9 0.8,5.8 0.5,1.9 1.3,3.7 2.4,5.2 1.1,1.5 2.5,2.8 4.3,3.7 1.7,0.9 3.8,1.4 6.2,1.4 1.9,0 3.7,-0.4 5.4,-1.1 l -4.3,-3.5 2.7,-3.2 z m 0.3,5.6 c -2.7,1.5 -5.8,2.3 -9.4,2.3 -3.1,0 -5.9,-0.6 -8.2,-1.7 -2.3,-1.1 -4.3,-2.6 -5.9,-4.5 -1.6,-1.9 -2.8,-4.1 -3.5,-6.6 -0.8,-2.5 -1.2,-5 -1.2,-7.7 0,-2.7 0.4,-5.2 1.2,-7.7 0.8,-2.5 2,-4.7 3.5,-6.6 1.6,-1.9 3.6,-3.4 5.9,-4.6 2.3,-1.1 5.1,-1.7 8.2,-1.7 3.1,0 5.8,0.6 8.2,1.7 2.3,1.1 4.3,2.7 5.9,4.6 1.6,1.9 2.8,4.1 3.5,6.6 0.8,2.5 1.2,5 1.2,7.7 0,3 -0.5,5.9 -1.5,8.6 -1,2.7 -2.5,5 -4.5,7 l 5.2,4.1 -2.7,3.3 z"
   id="path8" />
	<path
   d="m 201.5,358.4 c -1,0.2 -1.9,0.4 -3,0.5 -1.1,0.1 -2.1,0.3 -3.2,0.4 -1.1,0.2 -2,0.4 -2.9,0.8 -0.9,0.4 -1.6,0.9 -2.1,1.6 -0.5,0.7 -0.8,1.6 -0.8,2.8 0,0.8 0.1,1.4 0.5,1.9 0.3,0.5 0.7,1 1.2,1.3 0.5,0.3 1.1,0.6 1.8,0.7 0.7,0.1 1.4,0.2 2,0.2 1.6,0 2.9,-0.2 4,-0.6 1.1,-0.4 2,-0.9 2.7,-1.6 0.7,-0.6 1.2,-1.3 1.6,-2.1 0.3,-0.8 0.5,-1.5 0.5,-2.1 v -4.8 c -0.6,0.4 -1.4,0.8 -2.3,1 m 6.5,14.2 c -1.2,0 -2.2,-0.3 -2.9,-1 -0.7,-0.7 -1.1,-1.8 -1.1,-3.3 -1.3,1.5 -2.8,2.6 -4.5,3.3 -1.7,0.7 -3.5,1 -5.5,1 -1.3,0 -2.5,-0.1 -3.6,-0.4 -1.1,-0.3 -2.1,-0.7 -3,-1.4 -0.9,-0.6 -1.6,-1.5 -2,-2.5 -0.5,-1 -0.7,-2.2 -0.7,-3.7 0,-1.6 0.3,-2.9 0.8,-3.9 0.5,-1 1.3,-1.9 2.2,-2.5 0.9,-0.6 1.9,-1.1 3.1,-1.4 1.2,-0.3 2.3,-0.6 3.5,-0.8 1.3,-0.2 2.5,-0.4 3.7,-0.6 1.2,-0.1 2.2,-0.3 3.1,-0.5 0.9,-0.2 1.6,-0.6 2.1,-1 0.5,-0.4 0.8,-1.1 0.8,-2 0,-1 -0.2,-1.8 -0.6,-2.5 -0.4,-0.6 -0.9,-1.1 -1.5,-1.4 -0.6,-0.3 -1.3,-0.5 -2,-0.7 -0.8,-0.1 -1.5,-0.2 -2.2,-0.2 -2,0 -3.6,0.4 -5,1.1 -1.3,0.8 -2,2.2 -2.2,4.3 h -4.7 c 0.1,-1.8 0.5,-3.2 1.1,-4.4 0.7,-1.2 1.5,-2.2 2.6,-2.9 1.1,-0.7 2.4,-1.3 3.8,-1.6 1.4,-0.3 2.9,-0.5 4.5,-0.5 1.3,0 2.6,0.1 3.8,0.3 1.3,0.2 2.4,0.5 3.4,1.1 1,0.6 1.8,1.4 2.5,2.4 0.6,1 0.9,2.4 0.9,4 v 14.6 c 0,1.1 0.1,1.9 0.2,2.4 0.1,0.5 0.5,0.8 1.3,0.8 0.4,0 0.9,-0.1 1.4,-0.3 v 3.6 c -0.7,0.4 -1.8,0.6 -3.3,0.6"
   id="path10" />
	<path
   d="m 227.5,343.7 v 4.1 h -5.7 v 17.6 c 0,0.5 0.1,1 0.1,1.3 0.1,0.3 0.3,0.6 0.5,0.8 0.3,0.2 0.6,0.3 1.1,0.4 0.4,0.1 1.1,0.1 1.8,0.1 h 2.1 v 4.1 h -3.6 c -1.2,0 -2.3,-0.1 -3.1,-0.2 -0.8,-0.2 -1.5,-0.5 -2.1,-0.9 -0.5,-0.4 -0.9,-1.1 -1.2,-1.9 -0.3,-0.8 -0.4,-1.9 -0.4,-3.2 v -18 h -4.9 v -4.1 h 4.9 v -8.5 h 4.7 v 8.5 h 5.8 z"
   id="path12" />
	<path
   d="m 247.5,358.4 c -1,0.2 -1.9,0.4 -3,0.5 -1,0.1 -2.1,0.3 -3.2,0.4 -1,0.2 -2,0.4 -2.8,0.8 -0.9,0.4 -1.5,0.9 -2.1,1.6 -0.5,0.7 -0.8,1.6 -0.8,2.8 0,0.8 0.2,1.4 0.5,1.9 0.3,0.5 0.7,1 1.2,1.3 0.5,0.3 1.1,0.6 1.7,0.7 0.7,0.1 1.4,0.2 2.1,0.2 1.5,0 2.9,-0.2 4,-0.6 1.1,-0.4 2,-0.9 2.7,-1.6 0.7,-0.6 1.2,-1.3 1.6,-2.1 0.3,-0.8 0.5,-1.5 0.5,-2.1 v -4.8 c -0.7,0.4 -1.5,0.8 -2.4,1 m 6.5,14.2 c -1.2,0 -2.2,-0.3 -2.9,-1 -0.7,-0.7 -1.1,-1.8 -1.1,-3.3 -1.3,1.5 -2.8,2.6 -4.5,3.3 -1.7,0.7 -3.5,1 -5.5,1 -1.3,0 -2.5,-0.1 -3.6,-0.4 -1.1,-0.3 -2.1,-0.7 -3,-1.4 -0.9,-0.6 -1.6,-1.5 -2,-2.5 -0.5,-1 -0.7,-2.2 -0.7,-3.7 0,-1.6 0.3,-2.9 0.8,-3.9 0.6,-1 1.3,-1.9 2.2,-2.5 0.9,-0.6 1.9,-1.1 3.1,-1.4 1.1,-0.3 2.3,-0.6 3.5,-0.8 1.3,-0.2 2.5,-0.4 3.7,-0.6 1.1,-0.1 2.2,-0.3 3.1,-0.5 0.9,-0.2 1.6,-0.6 2.1,-1 0.5,-0.4 0.8,-1.1 0.8,-2 0,-1 -0.2,-1.8 -0.6,-2.5 -0.4,-0.6 -0.9,-1.1 -1.5,-1.4 -0.6,-0.3 -1.3,-0.5 -2,-0.7 -0.8,-0.1 -1.5,-0.2 -2.2,-0.2 -2,0 -3.6,0.4 -5,1.1 -1.3,0.8 -2,2.2 -2.2,4.3 h -4.7 c 0.1,-1.8 0.4,-3.2 1.1,-4.4 0.7,-1.2 1.5,-2.2 2.7,-2.9 1.1,-0.7 2.4,-1.3 3.8,-1.6 1.4,-0.3 2.9,-0.5 4.5,-0.5 1.3,0 2.5,0.1 3.8,0.3 1.3,0.2 2.4,0.5 3.4,1.1 1,0.6 1.9,1.4 2.5,2.4 0.6,1 0.9,2.4 0.9,4 v 14.6 c 0,1.1 0.1,1.9 0.2,2.4 0.1,0.5 0.6,0.8 1.3,0.8 0.4,0 0.9,-0.1 1.4,-0.3 v 3.6 c -0.8,0.4 -1.9,0.6 -3.4,0.6"
   id="path14" />
	<path
   d="m 265.5,343.7 v 6 h 0.1 c 1.1,-2.3 2.5,-4 4.2,-5.1 1.7,-1.1 3.7,-1.6 6.3,-1.5 v 4.9 c -1.9,0 -3.5,0.3 -4.8,0.8 -1.3,0.5 -2.4,1.3 -3.2,2.3 -0.8,1 -1.4,2.2 -1.8,3.6 -0.3,1.4 -0.5,3 -0.5,4.8 V 372 h -4.7 v -28.4 h 4.4 z"
   id="path16" />
	<path
   d="m 314.4,350.7 c 1.1,-0.2 2.1,-0.5 2.9,-1.1 0.8,-0.5 1.5,-1.3 2,-2.1 0.5,-0.9 0.7,-2.1 0.7,-3.5 0,-2 -0.6,-3.6 -1.6,-4.8 -1.1,-1.3 -2.9,-1.9 -5.3,-1.9 h -13 V 351 H 311 c 1.1,-0.1 2.3,-0.2 3.4,-0.3 m -1.1,-17.8 c 3.7,0 6.6,0.9 8.8,2.7 2.1,1.8 3.2,4.3 3.2,7.5 0,2.4 -0.5,4.5 -1.6,6.2 -1.1,1.8 -2.8,3 -5.2,3.7 v 0.1 c 1.2,0.2 2.1,0.6 2.8,1.1 0.7,0.5 1.3,1.1 1.7,1.8 0.4,0.7 0.7,1.5 0.9,2.4 0.2,0.9 0.4,1.8 0.5,2.7 0.1,1 0.1,1.9 0.2,2.9 0,1 0.1,1.9 0.3,2.9 0.2,0.9 0.4,1.9 0.6,2.7 0.3,0.9 0.7,1.6 1.2,2.3 h -5.8 c -0.4,-0.4 -0.6,-0.9 -0.7,-1.6 -0.1,-0.7 -0.2,-1.5 -0.3,-2.3 0,-0.9 -0.1,-1.8 -0.1,-2.8 -0.1,-1 -0.2,-1.9 -0.3,-2.9 -0.1,-0.9 -0.3,-1.9 -0.5,-2.7 -0.2,-0.8 -0.6,-1.6 -1,-2.2 -0.5,-0.6 -1.1,-1.1 -1.9,-1.5 -0.8,-0.4 -1.8,-0.6 -3.1,-0.6 H 300 V 372 h -5.2 v -39.1 z"
   id="path18" />
	<path
   d="m 350.3,352 c -0.4,-1 -1,-1.8 -1.7,-2.6 -0.7,-0.7 -1.6,-1.3 -2.5,-1.7 -1,-0.4 -2,-0.6 -3.2,-0.6 -1.2,0 -2.3,0.2 -3.3,0.6 -1,0.4 -1.8,1 -2.5,1.7 -0.7,0.7 -1.3,1.6 -1.7,2.5 -0.4,1 -0.6,2 -0.7,3.1 H 351 c 0,-0.9 -0.3,-2 -0.7,-3 m 1.1,18.2 c -2.1,1.6 -4.8,2.4 -8,2.4 -2.3,0 -4.2,-0.4 -5.9,-1.1 -1.7,-0.7 -3.1,-1.8 -4.2,-3.1 -1.2,-1.3 -2,-2.9 -2.6,-4.7 -0.6,-1.8 -0.9,-3.8 -1,-6 0,-2.2 0.3,-4.1 1,-5.9 0.7,-1.8 1.6,-3.3 2.8,-4.7 1.2,-1.3 2.6,-2.3 4.3,-3.1 1.6,-0.7 3.4,-1.1 5.3,-1.1 2.5,0 4.6,0.5 6.3,1.6 1.7,1 3,2.4 4,4 1,1.6 1.7,3.4 2.1,5.3 0.4,1.9 0.5,3.7 0.5,5.4 h -21.3 c 0,1.3 0.1,2.4 0.5,3.5 0.3,1.1 0.8,2.1 1.6,3 0.7,0.9 1.7,1.5 2.8,2.1 1.1,0.5 2.4,0.8 4,0.8 2,0 3.6,-0.5 4.9,-1.4 1.3,-0.9 2.1,-2.3 2.5,-4.2 h 4.6 c -0.7,3.2 -2.1,5.6 -4.2,7.2"
   id="path20" />
	<path
   d="m 364.3,362 c 0.4,1.3 0.9,2.4 1.6,3.4 0.7,1 1.6,1.8 2.7,2.4 1.1,0.6 2.4,0.9 3.9,0.9 1.6,0 2.9,-0.3 4,-0.9 1.1,-0.6 2,-1.4 2.7,-2.4 0.7,-1 1.2,-2.1 1.5,-3.4 0.3,-1.3 0.5,-2.6 0.5,-3.9 0,-1.4 -0.2,-2.7 -0.5,-4 -0.3,-1.3 -0.9,-2.4 -1.6,-3.4 -0.7,-1 -1.6,-1.8 -2.8,-2.4 -1.1,-0.6 -2.5,-0.9 -4.1,-0.9 -1.6,0 -2.9,0.3 -4,0.9 -1.1,0.6 -2,1.4 -2.6,2.5 -0.7,1 -1.1,2.2 -1.4,3.5 -0.3,1.3 -0.4,2.7 -0.4,4.1 0,1 0.2,2.3 0.5,3.6 m 16.8,10 v -3.8 H 381 c -0.7,1.6 -2,2.7 -3.6,3.4 -1.7,0.7 -3.5,1 -5.5,1 -2.2,0 -4.1,-0.4 -5.7,-1.2 -1.6,-0.8 -3,-1.9 -4.1,-3.2 -1.1,-1.4 -1.9,-2.9 -2.4,-4.7 -0.6,-1.8 -0.8,-3.7 -0.8,-5.7 0,-2 0.3,-3.9 0.8,-5.7 0.5,-1.8 1.3,-3.4 2.4,-4.7 1.1,-1.3 2.4,-2.4 4.1,-3.2 1.6,-0.8 3.6,-1.2 5.7,-1.2 0.7,0 1.5,0.1 2.4,0.2 0.9,0.2 1.7,0.4 2.5,0.7 0.8,0.4 1.6,0.8 2.4,1.4 0.7,0.6 1.4,1.3 1.9,2.1 h 0.1 v -14.6 h 4.7 V 372 Z"
   id="path22" />
	<path
   d="m 431.9,338.4 c -2,-1.4 -4.4,-2.1 -7.1,-2.1 -2.3,0 -4.3,0.4 -6,1.3 -1.7,0.9 -3,2.1 -4.1,3.5 -1.1,1.5 -1.9,3.2 -2.4,5.1 -0.5,1.9 -0.8,3.9 -0.8,5.9 0,2.2 0.3,4.3 0.8,6.3 0.5,2 1.3,3.7 2.4,5.2 1.1,1.5 2.5,2.7 4.2,3.5 1.7,0.9 3.7,1.3 6.1,1.3 1.7,0 3.2,-0.3 4.6,-0.9 1.4,-0.6 2.5,-1.3 3.5,-2.4 1,-1 1.8,-2.2 2.3,-3.6 0.6,-1.4 0.9,-2.9 1,-4.5 h 5.2 c -0.5,4.9 -2.2,8.8 -5.1,11.5 -2.9,2.7 -6.9,4.1 -11.9,4.1 -3,0 -5.7,-0.5 -8,-1.6 -2.3,-1.1 -4.2,-2.5 -5.7,-4.3 -1.5,-1.8 -2.6,-4 -3.4,-6.5 -0.8,-2.5 -1.1,-5.2 -1.1,-8 0,-2.9 0.4,-5.5 1.2,-8 0.8,-2.5 2,-4.7 3.5,-6.6 1.6,-1.9 3.5,-3.3 5.8,-4.4 2.3,-1.1 5,-1.6 8,-1.6 2.1,0 4,0.3 5.8,0.8 1.8,0.5 3.5,1.3 4.9,2.4 1.4,1.1 2.6,2.4 3.6,4 1,1.6 1.6,3.4 1.9,5.5 h -5.2 c -0.7,-2.4 -2,-4.5 -4,-5.9"
   id="path24" />
	<path
   d="m 450.9,343.7 v 6 h 0.1 c 1.1,-2.3 2.6,-4 4.2,-5.1 1.7,-1.1 3.8,-1.6 6.3,-1.5 v 4.9 c -1.9,0 -3.5,0.3 -4.8,0.8 -1.3,0.5 -2.4,1.3 -3.2,2.3 -0.8,1 -1.4,2.2 -1.8,3.6 -0.3,1.4 -0.5,3 -0.5,4.8 V 372 h -4.7 v -28.4 h 4.4 z"
   id="path26" />
	<path
   d="m 482.6,352 c -0.4,-1 -1,-1.8 -1.7,-2.6 -0.7,-0.7 -1.6,-1.3 -2.5,-1.7 -1,-0.4 -2,-0.6 -3.2,-0.6 -1.2,0 -2.3,0.2 -3.3,0.6 -1,0.4 -1.8,1 -2.5,1.7 -0.7,0.7 -1.3,1.6 -1.7,2.5 -0.4,1 -0.6,2 -0.7,3.1 h 16.3 c 0,-0.9 -0.3,-2 -0.7,-3 m 1.1,18.2 c -2.1,1.6 -4.8,2.4 -8,2.4 -2.3,0 -4.2,-0.4 -5.9,-1.1 -1.7,-0.7 -3.1,-1.8 -4.2,-3.1 -1.2,-1.3 -2,-2.9 -2.6,-4.7 -0.6,-1.8 -0.9,-3.8 -1,-6 0,-2.2 0.3,-4.1 1,-5.9 0.7,-1.8 1.6,-3.3 2.8,-4.7 1.2,-1.3 2.6,-2.3 4.2,-3.1 1.6,-0.7 3.4,-1.1 5.4,-1.1 2.6,0 4.6,0.5 6.3,1.6 1.7,1 3,2.4 4,4 1,1.6 1.7,3.4 2.1,5.3 0.4,1.9 0.5,3.7 0.5,5.4 H 467 c -0.1,1.3 0.1,2.4 0.4,3.5 0.3,1.1 0.9,2.1 1.6,3 0.7,0.9 1.7,1.5 2.8,2.1 1.1,0.5 2.5,0.8 4,0.8 2,0 3.6,-0.5 4.9,-1.4 1.3,-0.9 2.1,-2.3 2.5,-4.2 h 4.6 c -0.6,3.2 -1.9,5.6 -4.1,7.2"
   id="path28" />
	<path
   d="m 496.3,365.7 c 0.4,0.7 1,1.3 1.7,1.7 0.7,0.4 1.5,0.7 2.4,0.9 0.9,0.2 1.8,0.3 2.8,0.3 0.7,0 1.5,-0.1 2.3,-0.2 0.8,-0.1 1.5,-0.3 2.2,-0.6 0.7,-0.3 1.3,-0.7 1.7,-1.3 0.4,-0.6 0.6,-1.3 0.6,-2.2 0,-1.2 -0.5,-2.1 -1.4,-2.7 -0.9,-0.6 -2.1,-1.1 -3.4,-1.5 -1.4,-0.4 -2.9,-0.7 -4.5,-1 -1.6,-0.3 -3.1,-0.8 -4.5,-1.3 -1.4,-0.6 -2.5,-1.3 -3.4,-2.4 -0.9,-1 -1.4,-2.4 -1.4,-4.3 0,-1.4 0.3,-2.6 1,-3.7 0.6,-1 1.5,-1.9 2.5,-2.5 1,-0.6 2.2,-1.1 3.4,-1.4 1.3,-0.3 2.5,-0.5 3.8,-0.5 1.6,0 3.1,0.1 4.5,0.4 1.3,0.3 2.6,0.7 3.6,1.4 1,0.7 1.9,1.6 2.5,2.7 0.6,1.2 1,2.6 1.1,4.3 h -4.7 c -0.1,-0.9 -0.3,-1.7 -0.7,-2.3 -0.4,-0.6 -0.9,-1.1 -1.5,-1.5 -0.6,-0.4 -1.3,-0.6 -2.1,-0.8 -0.7,-0.2 -1.5,-0.2 -2.3,-0.2 -0.7,0 -1.4,0.1 -2.1,0.2 -0.7,0.1 -1.4,0.3 -2,0.6 -0.6,0.3 -1.1,0.6 -1.4,1.1 -0.4,0.5 -0.6,1.1 -0.6,1.8 0,0.8 0.3,1.5 0.9,2 0.6,0.5 1.3,1 2.2,1.3 0.9,0.3 1.9,0.6 3,0.9 1.1,0.2 2.2,0.5 3.3,0.7 1.2,0.3 2.3,0.6 3.5,0.9 1.1,0.4 2.1,0.8 3,1.4 0.9,0.6 1.5,1.4 2.1,2.3 0.5,0.9 0.8,2 0.8,3.4 0,1.7 -0.3,3.1 -1.1,4.3 -0.7,1.1 -1.6,2 -2.8,2.7 -1.2,0.7 -2.5,1.2 -3.9,1.5 -1.5,0.3 -2.9,0.4 -4.3,0.4 -1.6,0 -3.1,-0.2 -4.5,-0.5 -1.4,-0.3 -2.7,-0.9 -3.8,-1.6 -1.1,-0.7 -2,-1.7 -2.6,-3 -0.6,-1.2 -1,-2.7 -1.1,-4.5 h 4.7 c -0.2,1.2 0,2.1 0.5,2.8"
   id="path30" />
	<path
   d="m 536.8,348.6 c -1.2,-1 -2.8,-1.5 -4.7,-1.5 -1.7,0 -3.1,0.3 -4.2,0.9 -1.1,0.6 -2,1.4 -2.7,2.5 -0.7,1 -1.2,2.2 -1.5,3.5 -0.3,1.3 -0.4,2.7 -0.4,4.1 0,1.3 0.2,2.6 0.5,3.8 0.3,1.2 0.8,2.4 1.4,3.3 0.7,1 1.5,1.7 2.6,2.3 1.1,0.6 2.3,0.9 3.8,0.9 2.3,0 4.1,-0.6 5.4,-1.8 1.3,-1.2 2.1,-2.9 2.4,-5.1 h 4.8 c -0.5,3.5 -1.8,6.2 -3.9,8.1 -2.1,1.9 -5,2.9 -8.6,2.9 -2.1,0 -4.1,-0.3 -5.7,-1 -1.7,-0.7 -3.1,-1.7 -4.2,-3 -1.1,-1.3 -2,-2.8 -2.5,-4.6 -0.6,-1.8 -0.8,-3.7 -0.8,-5.8 0,-2.1 0.3,-4.1 0.8,-6 0.6,-1.8 1.4,-3.4 2.5,-4.8 1.1,-1.4 2.5,-2.4 4.2,-3.2 1.7,-0.8 3.7,-1.2 5.9,-1.2 1.6,0 3.1,0.2 4.5,0.6 1.4,0.4 2.6,1 3.7,1.8 1.1,0.8 2,1.8 2.7,3 0.7,1.2 1.1,2.7 1.3,4.4 h -4.8 c -0.6,-1.7 -1.4,-3.1 -2.5,-4.1"
   id="path32" />
	<path
   d="m 567.9,352 c -0.4,-1 -1,-1.8 -1.7,-2.6 -0.7,-0.7 -1.6,-1.3 -2.5,-1.7 -1,-0.4 -2,-0.6 -3.2,-0.6 -1.2,0 -2.3,0.2 -3.3,0.6 -1,0.4 -1.8,1 -2.5,1.7 -0.7,0.7 -1.2,1.6 -1.6,2.5 -0.4,1 -0.7,2 -0.7,3.1 h 16.3 c -0.2,-0.9 -0.4,-2 -0.8,-3 m 1.1,18.2 c -2.1,1.6 -4.8,2.4 -8,2.4 -2.3,0 -4.3,-0.4 -5.9,-1.1 -1.7,-0.7 -3,-1.8 -4.2,-3.1 -1.1,-1.3 -2,-2.9 -2.5,-4.7 -0.6,-1.8 -0.9,-3.8 -1,-6 0,-2.2 0.3,-4.1 1,-5.9 0.6,-1.8 1.6,-3.3 2.8,-4.7 1.2,-1.3 2.6,-2.3 4.2,-3.1 1.6,-0.7 3.4,-1.1 5.4,-1.1 2.5,0 4.6,0.5 6.3,1.6 1.7,1 3,2.4 4,4 1,1.6 1.7,3.4 2.1,5.3 0.4,1.9 0.5,3.7 0.5,5.4 h -21.3 c 0,1.3 0.1,2.4 0.5,3.5 0.3,1.1 0.8,2.1 1.6,3 0.7,0.9 1.7,1.5 2.8,2.1 1.1,0.5 2.5,0.8 4,0.8 2,0 3.6,-0.5 4.9,-1.4 1.3,-0.9 2.1,-2.3 2.5,-4.2 h 4.6 c -0.8,3.2 -2.2,5.6 -4.3,7.2"
   id="path34" />
	<path
   d="m 582.4,343.7 v 4.5 h 0.1 c 1.9,-3.4 5,-5.1 9.2,-5.1 1.9,0 3.4,0.3 4.7,0.8 1.2,0.5 2.3,1.2 3,2.1 0.8,0.9 1.3,2 1.6,3.3 0.3,1.3 0.5,2.7 0.5,4.2 V 372 h -4.7 v -19.2 c 0,-1.8 -0.5,-3.1 -1.6,-4.2 -1,-1 -2.4,-1.5 -4.2,-1.5 -1.4,0 -2.7,0.2 -3.7,0.7 -1,0.4 -1.9,1.1 -2.6,1.9 -0.7,0.8 -1.2,1.8 -1.6,2.8 -0.4,1.1 -0.5,2.3 -0.5,3.5 v 16 H 578 v -28.4 h 4.4 z"
   id="path36" />
	<path
   d="m 620.3,343.7 v 4.1 h -5.7 v 17.6 c 0,0.5 0.1,1 0.1,1.3 0.1,0.3 0.3,0.6 0.5,0.8 0.3,0.2 0.6,0.3 1.1,0.4 0.4,0.1 1,0.1 1.8,0.1 h 2.1 v 4.1 h -3.6 c -1.2,0 -2.3,-0.1 -3.1,-0.2 -0.9,-0.2 -1.6,-0.5 -2.1,-0.9 -0.5,-0.4 -0.9,-1.1 -1.2,-1.9 -0.3,-0.8 -0.4,-1.9 -0.4,-3.2 v -18 h -4.9 v -4.1 h 4.9 v -8.5 h 4.7 v 8.5 h 5.8 z"
   id="path38" />
</g>
</svg>
