<svg xmlns="http://www.w3.org/2000/svg" width="35.82" height="31.348" viewBox="0 0 35.82 31.348">
  <g id="Group_860" data-name="Group 860" transform="translate(-271.001 -12.358)">
    <g id="Icons" transform="translate(172.051 -116.613)">
      <path id="Path_14343" data-name="Path 14343" d="M130.82,328.72a2.95,2.95,0,0,1,2.95,2.95h0a2.95,2.95,0,0,1-2.95,2.95H102.9a2.95,2.95,0,0,1-2.95-2.95h0a2.95,2.95,0,0,1,2.95-2.95" transform="translate(0 -174.301)" fill="#f5333f"/>
      <path id="Path_14344" data-name="Path 14344" d="M124.75,148.882v-5.044a13.859,13.859,0,1,1,27.718,0v5.044" transform="translate(-21.749 -0.009)" fill="none" stroke="#011e41" stroke-miterlimit="10" stroke-width="2"/>
      <path id="Path_14345" data-name="Path 14345" d="M127.772,193.482a13.864,13.864,0,1,1,21.623,0" transform="translate(-21.723 -35.93)" fill="none" stroke="#011e41" stroke-miterlimit="10" stroke-width="2"/>
      <circle id="Ellipse_66" data-name="Ellipse 66" cx="8.679" cy="8.679" r="8.679" transform="translate(108.181 140.195)" fill="none" stroke="#011e41" stroke-miterlimit="10" stroke-width="2"/>
      <path id="Path_14346" data-name="Path 14346" d="M130.82,305.72a2.95,2.95,0,0,1,2.95,2.95h0a2.95,2.95,0,0,1-2.95,2.95H102.9a2.95,2.95,0,0,1-2.95-2.95h0a2.95,2.95,0,0,1,2.95-2.95" transform="translate(0 -154.13)" fill="none" stroke="#011e41" stroke-miterlimit="10" stroke-width="2"/>
      <line id="Line_182" data-name="Line 182" y2="5.04" transform="translate(118.893 129.97)" fill="none" stroke="#011e41" stroke-miterlimit="10" stroke-width="2"/>
      <line id="Line_183" data-name="Line 183" y2="5.039" transform="translate(122.738 131.053)" fill="none" stroke="#011e41" stroke-miterlimit="10" stroke-width="2"/>
      <line id="Line_184" data-name="Line 184" y2="5.039" transform="translate(126.584 134.073)" fill="none" stroke="#011e41" stroke-miterlimit="10" stroke-width="2"/>
      <line id="Line_185" data-name="Line 185" y2="5.04" transform="translate(115.048 129.97)" fill="none" stroke="#011e41" stroke-miterlimit="10" stroke-width="2"/>
      <line id="Line_186" data-name="Line 186" y2="5.039" transform="translate(111.203 131.053)" fill="none" stroke="#011e41" stroke-miterlimit="10" stroke-width="2"/>
      <line id="Line_187" data-name="Line 187" y2="5.039" transform="translate(107.358 134.073)" fill="none" stroke="#011e41" stroke-miterlimit="10" stroke-width="2"/>
      <path id="Path_14648" data-name="Path 14648" d="M4.326-9.8V0H2.058V-7.98H.1V-9.8Z" transform="translate(113.949 153.613)" fill="#12284c"/>
    </g>
  </g>
</svg>
