<?xml version="1.0" encoding="utf-8"?>
<!-- Generator: Adobe Illustrator 26.0.1, SVG Export Plug-In . SVG Version: 6.00 Build 0)  -->
<svg version="1.1" xmlns="http://www.w3.org/2000/svg" xmlns:xlink="http://www.w3.org/1999/xlink" x="0px" y="0px"
	 viewBox="0 0 500 500" style="enable-background:new 0 0 500 500;" xml:space="preserve">
<style type="text/css">
	.st0{fill:#F5333F;}
	.st1{fill:none;stroke:#011E41;stroke-width:16;stroke-miterlimit:10;}
	.st2{display:none;}
	.st3{display:inline;}
	.st4{fill:none;stroke:#D1D3D4;stroke-width:2;stroke-miterlimit:10;}
	.st5{display:inline;fill:none;stroke:#BCBEC0;stroke-width:4;stroke-miterlimit:10;}
	.st6{fill:none;stroke:#BCBEC0;stroke-width:4;stroke-miterlimit:10;}
	.st7{display:inline;fill:none;stroke:#D1D3D4;stroke-width:2;stroke-miterlimit:10;}
	.st8{display:none;opacity:0.35;fill:none;stroke:#000000;stroke-width:16;stroke-miterlimit:10;}
	.st9{fill:none;stroke:#011E41;stroke-width:16;stroke-linejoin:bevel;stroke-miterlimit:10;}
	.st10{fill:none;stroke:#F5333F;stroke-width:16;stroke-miterlimit:10;}
	.st11{fill:#011E41;}
	.st12{fill:none;stroke:#011E41;stroke-width:16;stroke-linecap:square;stroke-miterlimit:10;}
	.st13{fill:none;stroke:#011E41;stroke-width:16;stroke-linecap:round;stroke-miterlimit:10;}
	.st14{fill:none;stroke:#EF3741;stroke-width:16;stroke-miterlimit:10;}
	.st15{fill:#F5333F;stroke:#011E41;stroke-width:16;stroke-miterlimit:10;}
	.st16{fill:#EF3741;}
	.st17{fill:none;stroke:#011E41;stroke-width:8;stroke-miterlimit:10;}
	.st18{fill:none;stroke:#E73843;stroke-width:16;stroke-miterlimit:10;}
	.st19{fill:none;stroke:#011E41;stroke-width:13.4168;stroke-miterlimit:10;}
	.st20{fill:none;stroke:#011E41;stroke-width:13.8969;stroke-miterlimit:10;}
	.st21{fill:none;stroke:#011E41;stroke-width:14.2064;stroke-miterlimit:10;}
	.st22{fill:none;stroke:#011E41;stroke-width:15.0584;stroke-miterlimit:10;}
	.st23{fill:none;stroke:#011E41;stroke-width:15.1473;stroke-miterlimit:10;}
	.st24{fill:none;stroke:#011E41;stroke-width:16.5604;stroke-miterlimit:10;}
	.st25{fill:none;stroke:#011E41;stroke-width:14.3418;stroke-miterlimit:10;}
	.st26{fill:none;stroke:#011E41;stroke-width:15.8515;stroke-miterlimit:10;}
	.st27{fill:#F53340;}
</style>
<g id="Icons">
</g>
<g id="Text">
	<g>
		<circle class="st1" cx="250" cy="250" r="191.91"/>
		<circle class="st0" cx="250" cy="250" r="102.76"/>
		<polyline class="st1" points="74.38,172.52 90.88,190.83 82.63,230.49 82.63,254.36 102.61,261.2 		"/>
		<line class="st1" x1="97.73" y1="311.89" x2="97.73" y2="331.57"/>
		<polyline class="st1" points="74.38,316.91 83.07,300.29 78.72,273.9 93.24,257.99 		"/>
		<polyline class="st1" points="97.73,168.27 114.34,185.94 126.07,158.57 111.9,151.73 93.24,158.57 115.32,126.32 126.07,130.23 
			168.1,104.05 136.11,104.05 		"/>
		<polyline class="st1" points="359.77,160.64 352.82,141.96 350.21,126.75 350.21,115.4 343.05,104.05 326.43,109.7 312.75,114.59 
			293.2,114.59 284.4,121.43 273.65,112.74 255.43,121.43 255.43,107.21 221.2,121.43 209.91,115.46 199.05,126.75 145.6,118.07 		
			"/>
		<polyline class="st1" points="343.26,125.45 335.88,142.83 318.5,147.17 315.03,164.55 335.44,172.52 331.1,191.91 317.2,200.6 
			301.13,206.68 285.49,210.59 302.43,236.65 296.78,252.29 262.03,261.2 255.43,266.63 269.42,280.53 259.43,287.45 236.84,274.45 
			219.9,254.9 192.53,257.99 178.2,270.54 168.1,277.05 163.43,250 150.83,232.74 130.67,224.06 117.38,206.45 108.26,206.45 
			102.61,212.03 102.61,237.52 126.91,236.98 		"/>
		<line class="st1" x1="107.16" y1="178.3" x2="97.73" y2="210.16"/>
		<line class="st1" x1="227.72" y1="298.77" x2="260.73" y2="324.4"/>
		<line class="st1" x1="275.07" y1="311.59" x2="299.83" y2="295.73"/>
		<polyline class="st26" points="280.15,310.89 291.23,311.84 296.44,299.66 		"/>
		<polyline class="st26" points="308.51,265.32 308.51,275.31 324.15,290.08 		"/>
		<polyline class="st26" points="340.22,303.66 351.95,305.75 378.88,305.75 384.97,307.89 		"/>
		<line class="st26" x1="308.51" y1="319.62" x2="316.33" y2="305.78"/>
		<polyline class="st26" points="372.11,330.28 384.97,339.17 359.12,366.54 340.22,363.06 292.87,379.57 287.45,361.32 
			308.51,350.9 331.97,337.43 346.3,334.83 365.42,334.83 371.93,321.73 		"/>
		<line class="st26" x1="366.73" y1="383.38" x2="360.63" y2="374.89"/>
		<line class="st26" x1="268.9" y1="332.14" x2="269.88" y2="321.73"/>
		<line class="st26" x1="284.04" y1="333.46" x2="285.01" y2="323.04"/>
		<line class="st26" x1="299.11" y1="333.83" x2="298.54" y2="323.39"/>
		<line class="st26" x1="319.92" y1="330.07" x2="319.34" y2="319.62"/>
		<line class="st26" x1="236.96" y1="293.86" x2="245.22" y2="287.45"/>
		<line class="st26" x1="245.87" y1="305.19" x2="254.13" y2="298.77"/>
		<line class="st26" x1="393.48" y1="303.66" x2="395.42" y2="293.38"/>
		<line class="st26" x1="311.63" y1="219.15" x2="321.03" y2="214.56"/>
		<polyline class="st26" points="128.02,166.07 145.6,172.52 130.67,202.88 117.38,206.45 		"/>
		<path class="st26" d="M332.59,228.94c0,0-0.33-7.56,9.77-10.46s8.47-6.7,8.47-6.7l0.1-23.9"/>
	</g>
</g>
</svg>
