<?xml version="1.0" encoding="utf-8"?>
<!-- Generator: Adobe Illustrator 26.0.1, SVG Export Plug-In . SVG Version: 6.00 Build 0)  -->
<svg version="1.1" xmlns="http://www.w3.org/2000/svg" xmlns:xlink="http://www.w3.org/1999/xlink" x="0px" y="0px"
	 viewBox="0 0 500 500" style="enable-background:new 0 0 500 500;" xml:space="preserve">
<style type="text/css">
	.st0{fill:#F5333F;}
	.st1{fill:none;stroke:#011E41;stroke-width:16;stroke-miterlimit:10;}
	.st2{display:none;}
	.st3{display:inline;}
	.st4{fill:none;stroke:#D1D3D4;stroke-width:2;stroke-miterlimit:10;}
	.st5{display:inline;fill:none;stroke:#BCBEC0;stroke-width:4;stroke-miterlimit:10;}
	.st6{fill:none;stroke:#BCBEC0;stroke-width:4;stroke-miterlimit:10;}
	.st7{display:inline;fill:none;stroke:#D1D3D4;stroke-width:2;stroke-miterlimit:10;}
	.st8{display:none;opacity:0.35;fill:none;stroke:#000000;stroke-width:16;stroke-miterlimit:10;}
	.st9{fill:none;stroke:#011E41;stroke-width:16;stroke-linejoin:bevel;stroke-miterlimit:10;}
	.st10{fill:none;stroke:#F5333F;stroke-width:16;stroke-miterlimit:10;}
	.st11{fill:#011E41;}
	.st12{fill:none;stroke:#011E41;stroke-width:16;stroke-linecap:square;stroke-miterlimit:10;}
	.st13{fill:none;stroke:#011E41;stroke-width:16;stroke-linecap:round;stroke-miterlimit:10;}
	.st14{fill:none;stroke:#EF3741;stroke-width:16;stroke-miterlimit:10;}
	.st15{fill:#F5333F;stroke:#011E41;stroke-width:16;stroke-miterlimit:10;}
	.st16{fill:#EF3741;}
	.st17{fill:none;stroke:#011E41;stroke-width:8;stroke-miterlimit:10;}
	.st18{fill:none;stroke:#E73843;stroke-width:16;stroke-miterlimit:10;}
	.st19{fill:none;stroke:#011E41;stroke-width:13.4168;stroke-miterlimit:10;}
	.st20{fill:none;stroke:#011E41;stroke-width:13.8969;stroke-miterlimit:10;}
	.st21{fill:none;stroke:#011E41;stroke-width:14.2064;stroke-miterlimit:10;}
	.st22{fill:none;stroke:#011E41;stroke-width:15.0584;stroke-miterlimit:10;}
	.st23{fill:none;stroke:#011E41;stroke-width:15.1473;stroke-miterlimit:10;}
	.st24{fill:none;stroke:#011E41;stroke-width:16.5604;stroke-miterlimit:10;}
	.st25{fill:none;stroke:#011E41;stroke-width:14.3418;stroke-miterlimit:10;}
	.st26{fill:none;stroke:#011E41;stroke-width:15.8515;stroke-miterlimit:10;}
	.st27{fill:#F53340;}
</style>
<g id="Icons">
	<g>
		<path class="st0" d="M144.63,295.36c-16.42,20.55-37.16,33.24-60.84,45.22l-3.8,79.29h129.29l-3.8-79.29
			C181.79,328.6,161.05,315.92,144.63,295.36z"/>
	</g>
	<polygon class="st0" points="348.24,161.99 348.24,283.94 308.05,283.94 281.22,338.19 280.37,419.88 183.85,419.88 183.85,161.99 
			"/>
	<path class="st10" d="M370.01,108.43C336.98,82.44,295.3,66.93,250,66.93c-45.3,0-86.98,15.51-120.01,41.5"/>
	<g>
		<polygon class="st0" points="302.37,323.92 332.92,268.37 415.01,268.37 445.57,323.92 		"/>
		<g>
			<g>
				<polygon class="st21" points="281.22,432.73 281.22,338.19 434.61,338.19 434.61,433.07 				"/>
				<polyline class="st21" points="280.37,334.57 308.05,283.94 407.78,283.94 435.44,334.57 				"/>
				<g>
					<rect x="310.58" y="365" class="st21" width="31.55" height="40.98"/>
					<rect x="373.69" y="365" class="st21" width="31.55" height="40.98"/>
				</g>
			</g>
		</g>
	</g>
	<g>
		<polyline class="st21" points="169.76,338.01 169.76,182.06 333.24,182.06 333.24,285.01 		"/>
		<g>
			<g>
				<g>
					<rect x="203.58" y="220.52" class="st21" width="31.95" height="41.66"/>
				</g>
				<g>
					<rect x="267.47" y="220.52" class="st21" width="31.95" height="41.66"/>
				</g>
			</g>
			<g>
				<g>
					<polyline class="st21" points="229.88,432.7 229.88,376.9 273.12,376.9 273.12,432.7 					"/>
				</g>
			</g>
			<g>
				<g>
					<polyline class="st21" points="287.05,339.85 267.47,339.85 267.47,298.2 296.42,298.2 					"/>
				</g>
				<g>
					<rect x="203.58" y="298.2" class="st21" width="31.95" height="41.66"/>
				</g>
			</g>
		</g>
	</g>
	<g>
		<g>
			<path class="st21" d="M134.15,305.14c-17.44,21.83-39.46,35.29-64.6,48.02l-4.04,79.55h137.29l-4.04-79.55
				C173.61,340.43,151.59,326.97,134.15,305.14z"/>
		</g>
		<polyline class="st21" points="134.63,374.53 154.35,427.65 171.69,414.31 134.56,372.11 97.29,414.31 114.63,427.65 
			134.35,374.53 		"/>
		<path class="st21" d="M134.15,309.98L134.15,309.98c0,23.85,19.33,43.18,43.18,43.18h20.93"/>
		<g>
			<line class="st21" x1="199.05" y1="351.15" x2="229.48" y2="437.43"/>
		</g>
		<g>
			<line class="st21" x1="69.17" y1="351.1" x2="38.98" y2="435.14"/>
		</g>
	</g>
	<line class="st21" x1="278.12" y1="432.7" x2="199.88" y2="432.7"/>
</g>
<g id="Text">
</g>
</svg>
