<?xml version="1.0" encoding="utf-8"?>
<!-- Generator: Adobe Illustrator 26.0.1, SVG Export Plug-In . SVG Version: 6.00 Build 0)  -->
<svg version="1.1" xmlns="http://www.w3.org/2000/svg" xmlns:xlink="http://www.w3.org/1999/xlink" x="0px" y="0px"
	 viewBox="0 0 500 500" style="enable-background:new 0 0 500 500;" xml:space="preserve">
<style type="text/css">
	.st0{fill:#F5333F;}
	.st1{fill:none;stroke:#011E41;stroke-width:16;stroke-miterlimit:10;}
	.st2{display:none;}
	.st3{display:inline;}
	.st4{fill:none;stroke:#D1D3D4;stroke-width:2;stroke-miterlimit:10;}
	.st5{display:inline;fill:none;stroke:#BCBEC0;stroke-width:4;stroke-miterlimit:10;}
	.st6{fill:none;stroke:#BCBEC0;stroke-width:4;stroke-miterlimit:10;}
	.st7{display:inline;fill:none;stroke:#D1D3D4;stroke-width:2;stroke-miterlimit:10;}
	.st8{display:none;opacity:0.35;fill:none;stroke:#000000;stroke-width:16;stroke-miterlimit:10;}
	.st9{fill:none;stroke:#011E41;stroke-width:16;stroke-linejoin:bevel;stroke-miterlimit:10;}
	.st10{fill:none;stroke:#F5333F;stroke-width:16;stroke-miterlimit:10;}
	.st11{fill:#011E41;}
	.st12{fill:none;stroke:#011E41;stroke-width:16;stroke-linecap:square;stroke-miterlimit:10;}
	.st13{fill:none;stroke:#011E41;stroke-width:16;stroke-linecap:round;stroke-miterlimit:10;}
	.st14{fill:none;stroke:#EF3741;stroke-width:16;stroke-miterlimit:10;}
	.st15{fill:#F5333F;stroke:#011E41;stroke-width:16;stroke-miterlimit:10;}
	.st16{fill:#EF3741;}
	.st17{fill:none;stroke:#011E41;stroke-width:8;stroke-miterlimit:10;}
	.st18{fill:none;stroke:#E73843;stroke-width:16;stroke-miterlimit:10;}
	.st19{fill:none;stroke:#011E41;stroke-width:13.4168;stroke-miterlimit:10;}
	.st20{fill:none;stroke:#011E41;stroke-width:13.8969;stroke-miterlimit:10;}
	.st21{fill:none;stroke:#011E41;stroke-width:14.2064;stroke-miterlimit:10;}
	.st22{fill:none;stroke:#011E41;stroke-width:15.0584;stroke-miterlimit:10;}
	.st23{fill:none;stroke:#011E41;stroke-width:15.1473;stroke-miterlimit:10;}
	.st24{fill:none;stroke:#011E41;stroke-width:16.5604;stroke-miterlimit:10;}
	.st25{fill:none;stroke:#011E41;stroke-width:14.3418;stroke-miterlimit:10;}
	.st26{fill:none;stroke:#011E41;stroke-width:15.8515;stroke-miterlimit:10;}
	.st27{fill:#F53340;}
</style>
<g id="Icons">
	<g>
		<g>
			<path class="st0" d="M426.54,290.43v-2.2c-9.44-29.62-35.63-50.75-66.58-53.72l-5.09-0.49l-1.06,0.31
				c-1.97-18.33-22.18-30.69-31.89-25.81c-5.07,2.55-3.76,8.71-1.33,14.86l-8.38-8.51c-48.1-48.85-119.2-57.18-175.4-20.53
				l-8.06,5.6c-18.84,13.08-31.19,33.6-33.93,56.37c1.13,22.46,19.67,40.09,42.16,40.09h14.26c1.57,0.07,3.07,0.06,4.54,0h3.31
				l0.71-0.31c4.01-0.48,7.6-1.4,10.76-2.55c4.05-1.48,7.46-3.82,10.17-6.71l12.17-5.39l11.99-3.51l31.46-5.23
				c14.35,1.11,28.27,5.6,40.6,13.16l11.92,7.31v0c3.83,6.21,10.6,9.99,17.9,9.99h7.17c0.03,0.01,0.05,0.02,0.08,0.03l-0.04-0.03
				h13.44c1.8,0,3.57,0.12,5.28,0.34c6.48,0.84,11.59-5.47,9.39-11.62c-1.32-3.69-2.54-7.49-3.55-11.26
				c4.11,9.3,13.41,15.79,24.23,15.79h57.79C423.87,296.4,426.54,293.73,426.54,290.43z"/>
		</g>
		<g>
			<path class="st1" d="M365.87,214.02l5.09,0.49c30.94,2.97,57.14,24.1,66.58,53.72v0c1.29,4.05-1.73,8.18-5.97,8.18h-57.79
				c-14.62,0-26.48-11.85-26.48-26.48v0"/>
			<path class="st1" d="M170.1,276.4h-22.12c-22.49,0-41.03-17.63-42.16-40.09l0,0c2.74-22.78,15.09-43.29,33.93-56.37l8.06-5.6
				c56.19-36.65,127.3-28.32,175.4,20.53l9.42,9.56"/>
			<path class="st1" d="M162.92,273.16L162.92,273.16c3.83,6.21,10.6,9.99,17.9,9.99h20.65c15.77,0,28.55,8.85,28.55,19.77"/>
			<path class="st1" d="M332.92,188.52c10.09-5.07,31.52,8.48,32.04,27.99c0.27,10.24-26.62,6.73-28.04-0.08
				C335.5,209.62,323.74,193.13,332.92,188.52z"/>
			<path class="st1" d="M221.58,348.37H120.77c-32.38,0-58.62-26.25-58.62-58.62v0c0-27.38,18.78-50.38,44.15-56.82"/>
			<path class="st1" d="M146.11,214.02c0,0,30.74,0.16,45.84,17.11c0.32,0.36,0.63,0.72,0.94,1.08
				c11.63,13.84,5.66,35.12-11.31,41.33c-5.26,1.92-11.72,3.22-19.32,2.87"/>
			<path class="st1" d="M366.98,302.93c0-10.92-12.78-19.77-28.55-19.77h-20.65c-7.3,0-14.07-3.78-17.9-9.99v0l-11.92-7.31
				c-14.32-8.79-30.8-13.44-47.6-13.44h0c-12.39,0-24.65,2.53-36.02,7.43l-10.59,4.56"/>
			<path class="st1" d="M286.52,232.67c0,0,19.44,10.96,23.03,27.04c0.08,0.34,0.15,0.68,0.21,1.02
				c2.49,12.88,3.27,18.48,15.26,22.46"/>
		</g>
	</g>
</g>
<g id="Text">
</g>
</svg>
