<?xml version="1.0" encoding="utf-8"?>
<!-- Generator: Adobe Illustrator 26.0.1, SVG Export Plug-In . SVG Version: 6.00 Build 0)  -->
<svg version="1.1" xmlns="http://www.w3.org/2000/svg" xmlns:xlink="http://www.w3.org/1999/xlink" x="0px" y="0px"
	 viewBox="0 0 500 500" style="enable-background:new 0 0 500 500;" xml:space="preserve">
<style type="text/css">
	.st0{fill:#F5333F;}
	.st1{fill:none;stroke:#011E41;stroke-width:16;stroke-miterlimit:10;}
	.st2{display:none;}
	.st3{display:inline;}
	.st4{fill:none;stroke:#D1D3D4;stroke-width:2;stroke-miterlimit:10;}
	.st5{display:inline;fill:none;stroke:#BCBEC0;stroke-width:4;stroke-miterlimit:10;}
	.st6{fill:none;stroke:#BCBEC0;stroke-width:4;stroke-miterlimit:10;}
	.st7{display:inline;fill:none;stroke:#D1D3D4;stroke-width:2;stroke-miterlimit:10;}
	.st8{display:none;opacity:0.35;fill:none;stroke:#000000;stroke-width:16;stroke-miterlimit:10;}
	.st9{fill:none;stroke:#011E41;stroke-width:16;stroke-linejoin:bevel;stroke-miterlimit:10;}
	.st10{fill:none;stroke:#F5333F;stroke-width:16;stroke-miterlimit:10;}
	.st11{fill:#011E41;}
	.st12{fill:none;stroke:#011E41;stroke-width:16;stroke-linecap:square;stroke-miterlimit:10;}
	.st13{fill:none;stroke:#011E41;stroke-width:16;stroke-linecap:round;stroke-miterlimit:10;}
	.st14{fill:none;stroke:#EF3741;stroke-width:16;stroke-miterlimit:10;}
	.st15{fill:#F5333F;stroke:#011E41;stroke-width:16;stroke-miterlimit:10;}
	.st16{fill:#EF3741;}
	.st17{fill:none;stroke:#011E41;stroke-width:8;stroke-miterlimit:10;}
	.st18{fill:none;stroke:#E73843;stroke-width:16;stroke-miterlimit:10;}
	.st19{fill:none;stroke:#011E41;stroke-width:13.4168;stroke-miterlimit:10;}
	.st20{fill:none;stroke:#011E41;stroke-width:13.8969;stroke-miterlimit:10;}
	.st21{fill:none;stroke:#011E41;stroke-width:14.2064;stroke-miterlimit:10;}
	.st22{fill:none;stroke:#011E41;stroke-width:15.0584;stroke-miterlimit:10;}
	.st23{fill:none;stroke:#011E41;stroke-width:15.1473;stroke-miterlimit:10;}
	.st24{fill:none;stroke:#011E41;stroke-width:16.5604;stroke-miterlimit:10;}
	.st25{fill:none;stroke:#011E41;stroke-width:14.3418;stroke-miterlimit:10;}
	.st26{fill:none;stroke:#011E41;stroke-width:15.8515;stroke-miterlimit:10;}
	.st27{fill:#F53340;}
</style>
<g id="Icons">
	<g>
		<g>
			<path class="st1" d="M269.94,139.93l13.75,69.22c1.26,5.07-1.83,10.2-6.9,11.45c-5.07,1.26-10.2-1.83-11.45-6.9l-13.89-56.55
				c-3.49,1.48-4.84,1.95-8.57,2.92l0.96,75.5c0.17,5.22-3.92,9.59-9.14,9.76c-5.22,0.17-9.59-3.92-9.76-9.14l-3.46-72.74
				c-1.53,0.05-7.58-0.24-9.82-0.48l-8.74,58.8c-0.77,5.17-5.57,8.73-10.74,7.97c-5.17-0.77-8.73-5.57-7.97-10.74l8.04-60.73
				c-3.16-1.15-5.19-2.05-8.15-3.57l-18.71,41.6c-1.69,4.12-6.4,6.1-10.53,4.41s-6.1-6.4-4.41-10.53l31.89-117.09
				c3.68-13.51,15.74-23.04,29.74-23.5l44.37-1.45l68.66,98.07c-6.93,7.55-18.69,8-26.17,0.99l-33.57-31.45"/>
		</g>
		<g>
			<path class="st1" d="M113.91,314.48l45.49-53.96c3.17-4.15,9.11-4.93,13.25-1.76c4.15,3.17,4.93,9.11,1.76,13.25l-35.5,46.16
				c3.34,1.8,4.54,2.57,7.64,4.87l58.38-47.89c3.97-3.39,9.94-2.92,13.33,1.05s2.92,9.94-1.05,13.33l-54.66,48.12
				c0.99,1.16,4.55,6.07,5.75,7.97l51.38-29.88c4.51-2.63,10.3-1.1,12.93,3.41c2.63,4.51,1.1,10.3-3.41,12.93l-52.46,31.64
				c1.07,3.18,1.64,5.33,2.29,8.59l44.18-11.36c4.28-1.26,8.76,1.19,10.02,5.47c1.26,4.28-1.19,8.76-5.47,10.02l-111.37,48.2
				c-12.85,5.56-27.83,2.09-36.92-8.55l-28.84-33.76l33.74-114.87c10.23,0.7,17.92,9.6,17.11,19.82l-3.6,45.86"/>
		</g>
		<g>
			<path class="st1" d="M345.69,362.22l-65.87-25.34c-4.96-1.64-7.64-6.99-6-11.95c1.64-4.96,6.99-7.64,11.95-6l55.23,18.45
				c0.61-3.74,0.94-5.13,2.11-8.81l-64.35-39.5c-4.5-2.64-6.01-8.44-3.37-12.94s8.44-6.01,12.94-3.37l63.36,35.91
				c0.77-1.32,4.25-6.28,5.65-8.04l-45.05-38.78c-3.96-3.41-4.41-9.37-1-13.33c3.41-3.96,9.37-4.41,13.33-1l47.06,39.23
				c2.65-2.06,4.51-3.29,7.37-4.98l-25.18-38.03c-2.59-3.63-1.74-8.67,1.89-11.26c3.63-2.59,8.67-1.74,11.26,1.89l81.98,89.48
				c9.46,10.33,11.08,25.61,3.99,37.69l-22.47,38.29l-119.58,5.69c-2.69-9.89,3.22-20.07,13.13-22.65l44.52-11.59"/>
		</g>
		<g>
			<path class="st10" d="M138.23,122.19c-43.78,30.09-73.64,78.96-77.94,135"/>
			<path class="st10" d="M419.69,248.5c-6.18-49.35-32.27-92.5-69.96-121.18"/>
			<path class="st10" d="M166.99,436.3c22.44,10,47.29,15.56,73.44,15.56c26.15,0,51-5.56,73.44-15.56"/>
		</g>
	</g>
</g>
<g id="Text">
</g>
</svg>
