<?xml version="1.0" encoding="utf-8"?>
<!-- Generator: Adobe Illustrator 26.0.1, SVG Export Plug-In . SVG Version: 6.00 Build 0)  -->
<svg version="1.1" xmlns="http://www.w3.org/2000/svg" xmlns:xlink="http://www.w3.org/1999/xlink" x="0px" y="0px"
	 viewBox="0 0 500 500" style="enable-background:new 0 0 500 500;" xml:space="preserve">
<style type="text/css">
	.st0{fill:#F5333F;}
	.st1{fill:none;stroke:#011E41;stroke-width:16;stroke-miterlimit:10;}
	.st2{display:none;}
	.st3{display:inline;}
	.st4{fill:none;stroke:#D1D3D4;stroke-width:2;stroke-miterlimit:10;}
	.st5{display:inline;fill:none;stroke:#BCBEC0;stroke-width:4;stroke-miterlimit:10;}
	.st6{fill:none;stroke:#BCBEC0;stroke-width:4;stroke-miterlimit:10;}
	.st7{display:inline;fill:none;stroke:#D1D3D4;stroke-width:2;stroke-miterlimit:10;}
	.st8{display:none;opacity:0.35;fill:none;stroke:#000000;stroke-width:16;stroke-miterlimit:10;}
	.st9{fill:none;stroke:#011E41;stroke-width:16;stroke-linejoin:bevel;stroke-miterlimit:10;}
	.st10{fill:none;stroke:#F5333F;stroke-width:16;stroke-miterlimit:10;}
	.st11{fill:#011E41;}
	.st12{fill:none;stroke:#011E41;stroke-width:16;stroke-linecap:square;stroke-miterlimit:10;}
	.st13{fill:none;stroke:#011E41;stroke-width:16;stroke-linecap:round;stroke-miterlimit:10;}
	.st14{fill:none;stroke:#EF3741;stroke-width:16;stroke-miterlimit:10;}
	.st15{fill:#F5333F;stroke:#011E41;stroke-width:16;stroke-miterlimit:10;}
	.st16{fill:#EF3741;}
	.st17{fill:none;stroke:#011E41;stroke-width:8;stroke-miterlimit:10;}
	.st18{fill:none;stroke:#E73843;stroke-width:16;stroke-miterlimit:10;}
	.st19{fill:none;stroke:#011E41;stroke-width:13.4168;stroke-miterlimit:10;}
	.st20{fill:none;stroke:#011E41;stroke-width:13.8969;stroke-miterlimit:10;}
	.st21{fill:none;stroke:#011E41;stroke-width:14.2064;stroke-miterlimit:10;}
	.st22{fill:none;stroke:#011E41;stroke-width:15.0584;stroke-miterlimit:10;}
	.st23{fill:none;stroke:#011E41;stroke-width:15.1473;stroke-miterlimit:10;}
	.st24{fill:none;stroke:#011E41;stroke-width:16.5604;stroke-miterlimit:10;}
	.st25{fill:none;stroke:#011E41;stroke-width:14.3418;stroke-miterlimit:10;}
	.st26{fill:none;stroke:#011E41;stroke-width:15.8515;stroke-miterlimit:10;}
	.st27{fill:#F53340;}
</style>
<g id="Icons">
</g>
<g id="Text">
	<g>
		<circle class="st0" cx="250" cy="250" r="102.76"/>
		<circle class="st1" cx="250" cy="250" r="191.91"/>
		<path class="st22" d="M118.54,218.51H154l9.54,11.4l17.92,1.3l28.02,12.38l-0.65,6.41l31.93,34.97l15.25,2.99l-9.84,11.58
			c-5.79,3.45-14.37,8.09-14.37,15.99s4.58,13.46,3.43,15.78s-8.01,10.68-8.01,10.68l-7.44,9.64l-6.86,8l-1.72,5.57
			c0,0-1.45,13-21.89,16.25c-20.44,3.25-23.87-31.49-26.16-35.48c-2.29-3.98-2.29-14.2,1.14-20.7c3.43-6.5-9.29-11.07-12.72-16.18
			s3.57-16.99-3.29-18.05s-20.02,0.66-29.74,0.19c-9.72-0.46-25.71-7.58-25.7-37.55C92.84,246.24,118.54,218.51,118.54,218.51z"/>
		<polyline class="st22" points="178.2,169.46 183.96,147.39 213.38,127.28 238.79,142.27 256,135.75 272.02,127.28 278.54,116.86 
			284.99,97.96 303.97,100.57 308.51,80.37 354.78,107.74 367.16,117.51 388.01,136.41 388.01,164.42 408.86,195.05 395.17,214.6 
			405.36,230.23 402.34,241.31 374.97,230.23 346.96,250 350.21,274.54 341.74,274.54 315.03,241.31 279.84,243.27 251.47,236.85 
			261.5,255.65 274.63,259.23 252.8,270.31 222.34,239.64 231.63,217.2 208.82,218.51 199.26,203.75 186.02,211.99 178.63,202.36 
			165.16,195.05 148.22,195.05 131.28,210.03 118.9,200.91 126.72,190.49 122.11,195.56 133.57,181.88 141.06,177.46 150.5,164.1 
			156.37,177.46 194.49,177.46 215.99,161.82 206.12,135.79 		"/>
		<polyline class="st22" points="203.05,200.91 227.72,195.37 236.84,213.29 		"/>
		<polyline class="st22" points="183.46,69.94 216.64,85.58 168.42,113.6 136.11,120.77 183.35,70.37 		"/>
		<line class="st22" x1="151.48" y1="128.45" x2="155.39" y2="136.92"/>
		<polyline class="st22" points="436.87,262.16 413.42,280.41 392.57,262.16 392.57,245.22 		"/>
		<line class="st22" x1="421.89" y1="236.85" x2="424.49" y2="274.54"/>
		<line class="st22" x1="417.98" y1="208.08" x2="427.75" y2="226.32"/>
		<path class="st22" d="M260.3,105.78c0,0-13.09,7.29-8.83,25.67"/>
		<line class="st23" x1="266.38" y1="339.92" x2="250.61" y2="363.37"/>
		<polyline class="st22" points="256,195.37 263.88,208.08 263.88,221.11 		"/>
		<line class="st22" x1="219.9" y1="101.1" x2="224.46" y2="108.27"/>
		<line class="st22" x1="263.88" y1="95.36" x2="284.99" y2="97.96"/>
	</g>
</g>
</svg>
