<?xml version="1.0" encoding="utf-8"?>
<!-- Generator: Adobe Illustrator 26.0.1, SVG Export Plug-In . SVG Version: 6.00 Build 0)  -->
<svg version="1.1" xmlns="http://www.w3.org/2000/svg" xmlns:xlink="http://www.w3.org/1999/xlink" x="0px" y="0px"
	 viewBox="0 0 500 500" style="enable-background:new 0 0 500 500;" xml:space="preserve">
<style type="text/css">
	.st0{fill:#F5333F;}
	.st1{fill:none;stroke:#011E41;stroke-width:16;stroke-miterlimit:10;}
	.st2{display:none;}
	.st3{display:inline;}
	.st4{fill:none;stroke:#D1D3D4;stroke-width:2;stroke-miterlimit:10;}
	.st5{display:inline;fill:none;stroke:#BCBEC0;stroke-width:4;stroke-miterlimit:10;}
	.st6{fill:none;stroke:#BCBEC0;stroke-width:4;stroke-miterlimit:10;}
	.st7{display:inline;fill:none;stroke:#D1D3D4;stroke-width:2;stroke-miterlimit:10;}
	.st8{display:none;opacity:0.35;fill:none;stroke:#000000;stroke-width:16;stroke-miterlimit:10;}
	.st9{fill:none;stroke:#011E41;stroke-width:16;stroke-linejoin:bevel;stroke-miterlimit:10;}
	.st10{fill:none;stroke:#F5333F;stroke-width:16;stroke-miterlimit:10;}
	.st11{fill:#011E41;}
	.st12{fill:none;stroke:#011E41;stroke-width:16;stroke-linecap:square;stroke-miterlimit:10;}
	.st13{fill:none;stroke:#011E41;stroke-width:16;stroke-linecap:round;stroke-miterlimit:10;}
	.st14{fill:none;stroke:#EF3741;stroke-width:16;stroke-miterlimit:10;}
	.st15{fill:#F5333F;stroke:#011E41;stroke-width:16;stroke-miterlimit:10;}
	.st16{fill:#EF3741;}
	.st17{fill:none;stroke:#011E41;stroke-width:8;stroke-miterlimit:10;}
	.st18{fill:none;stroke:#E73843;stroke-width:16;stroke-miterlimit:10;}
	.st19{fill:none;stroke:#011E41;stroke-width:13.4168;stroke-miterlimit:10;}
	.st20{fill:none;stroke:#011E41;stroke-width:13.8969;stroke-miterlimit:10;}
	.st21{fill:none;stroke:#011E41;stroke-width:14.2064;stroke-miterlimit:10;}
	.st22{fill:none;stroke:#011E41;stroke-width:15.0584;stroke-miterlimit:10;}
	.st23{fill:none;stroke:#011E41;stroke-width:15.1473;stroke-miterlimit:10;}
	.st24{fill:none;stroke:#011E41;stroke-width:16.5604;stroke-miterlimit:10;}
	.st25{fill:none;stroke:#011E41;stroke-width:14.3418;stroke-miterlimit:10;}
	.st26{fill:none;stroke:#011E41;stroke-width:15.8515;stroke-miterlimit:10;}
	.st27{fill:#F53340;}
</style>
<g id="Icons">
	<g>
		<polygon class="st0" points="192.29,229.2 234.34,187.15 234.34,289.43 265.66,289.43 265.66,187.15 307.19,228.68 328.24,207.63 
			250,129.4 171.24,208.16 		"/>
		<g>
			<path class="st1" d="M59.94,156.27l24.87,12.58c14.48,7.32,31.55,7.4,46.1,0.22l1.59-0.78c14.71-7.27,32.01-7.1,46.58,0.46l0,0
				c14.74,7.65,32.25,7.73,47.06,0.22l0,0c14.64-7.42,31.93-7.43,46.58-0.02l1.58,0.8c14.48,7.32,31.55,7.4,46.1,0.22l1.59-0.78
				c14.71-7.27,32.01-7.1,46.58,0.46l0.3,0.16c14.57,7.56,31.86,7.73,46.58,0.46l24.69-12.2"/>
			<path class="st1" d="M59.94,72.21l24.87,12.58c14.48,7.32,31.55,7.4,46.1,0.22l1.59-0.78c14.71-7.27,32.01-7.1,46.58,0.46l0,0
				c14.74,7.65,32.25,7.73,47.06,0.22l0,0c14.64-7.42,31.93-7.43,46.58-0.02l1.58,0.8c14.48,7.32,31.55,7.4,46.1,0.22l1.59-0.78
				c14.71-7.27,32.01-7.1,46.58,0.46l0.3,0.16c14.57,7.56,31.86,7.73,46.58,0.46l24.69-12.2"/>
			<path class="st1" d="M59.94,114.24l24.87,12.58c14.48,7.32,31.55,7.4,46.1,0.22l1.59-0.78c14.71-7.27,32.01-7.1,46.58,0.46l0,0
				c14.74,7.65,32.25,7.73,47.06,0.22l0,0c14.64-7.42,31.93-7.43,46.58-0.02l1.58,0.8c14.48,7.32,31.55,7.4,46.1,0.22l1.59-0.78
				c14.71-7.27,32.01-7.1,46.58,0.46l0.3,0.16c14.57,7.56,31.86,7.73,46.58,0.46l24.69-12.2"/>
			<path class="st1" d="M263.23,291.37c3.25,0.9,6.43,2.13,9.49,3.68l1.58,0.8c14.48,7.32,31.55,7.4,46.1,0.22l1.59-0.78
				c14.71-7.27,32.01-7.1,46.58,0.46l0.3,0.16c14.57,7.56,31.86,7.73,46.58,0.46l24.69-12.2"/>
			<path class="st1" d="M59.94,282.38l24.87,12.58c14.48,7.32,31.55,7.4,46.1,0.22l1.59-0.78c14.71-7.27,32.01-7.1,46.58,0.46h0
				c14.74,7.65,32.25,7.73,47.06,0.22l0,0c2.39-1.21,4.85-2.23,7.36-3.04"/>
			<path class="st1" d="M300.79,217.23c6.73-0.42,13.4-2.17,19.61-5.23l1.59-0.78c14.71-7.27,32.01-7.1,46.58,0.46l0.3,0.16
				c14.57,7.56,31.86,7.73,46.58,0.46l24.69-12.2"/>
			<path class="st1" d="M59.94,198.31l24.87,12.58c14.48,7.32,31.55,7.4,46.1,0.22l1.59-0.78c14.71-7.27,32.01-7.1,46.58,0.46l0,0
				c7.16,3.71,14.97,5.64,22.81,5.79"/>
			<path class="st1" d="M321.98,253.25c14.71-7.27,32.01-7.1,46.58,0.46l0.3,0.16c14.57,7.56,31.86,7.73,46.58,0.46l24.69-12.2"/>
			<path class="st1" d="M59.94,240.34l24.87,12.58c14.48,7.32,31.55,7.4,46.1,0.22l1.59-0.78c14.71-7.27,32.01-7.1,46.58,0.46l0,0"
				/>
			<path class="st1" d="M59.94,408.48l24.87,12.58c14.48,7.32,31.55,7.4,46.1,0.22l1.59-0.78c14.71-7.27,32.01-7.1,46.58,0.46h0
				c14.74,7.65,32.25,7.73,47.06,0.22l0,0c14.64-7.42,31.93-7.43,46.58-0.02l1.58,0.8c14.48,7.32,31.55,7.4,46.1,0.22l1.59-0.78
				c14.71-7.27,32.01-7.1,46.58,0.46l0.3,0.16c14.57,7.56,31.86,7.73,46.58,0.46l24.69-12.2"/>
			<path class="st1" d="M59.94,324.41l24.87,12.58c14.48,7.32,31.55,7.4,46.1,0.22l1.59-0.78c14.71-7.27,32.01-7.1,46.58,0.46l0,0
				c14.74,7.65,32.25,7.73,47.06,0.22l0,0c14.64-7.42,31.93-7.43,46.58-0.02l1.58,0.8c14.48,7.32,31.55,7.4,46.1,0.22l1.59-0.78
				c14.71-7.27,32.01-7.1,46.58,0.46l0.3,0.16c14.57,7.56,31.86,7.73,46.58,0.46l24.69-12.2"/>
			<path class="st1" d="M59.94,366.45l24.87,12.58c14.48,7.32,31.55,7.4,46.1,0.22l1.59-0.78c14.71-7.27,32.01-7.1,46.58,0.46l0,0
				c14.74,7.65,32.25,7.73,47.06,0.22l0,0c14.64-7.42,31.93-7.43,46.58-0.02l1.58,0.8c14.48,7.32,31.55,7.4,46.1,0.22l1.59-0.78
				c14.71-7.27,32.01-7.1,46.58,0.46l0.3,0.16c14.57,7.56,31.86,7.73,46.58,0.46l24.69-12.2"/>
		</g>
		<polygon class="st1" points="192.29,269.79 234.34,227.74 234.34,330.02 265.66,330.02 265.66,227.74 307.19,269.27 
			328.24,248.22 250,169.98 171.24,248.75 		"/>
	</g>
</g>
<g id="Text">
</g>
</svg>
