<?xml version="1.0" encoding="utf-8"?>
<!-- Generator: Adobe Illustrator 26.0.1, SVG Export Plug-In . SVG Version: 6.00 Build 0)  -->
<svg version="1.1" xmlns="http://www.w3.org/2000/svg" xmlns:xlink="http://www.w3.org/1999/xlink" x="0px" y="0px"
	 viewBox="0 0 500 500" style="enable-background:new 0 0 500 500;" xml:space="preserve">
<style type="text/css">
	.st0{fill:#F5333F;}
	.st1{fill:none;stroke:#011E41;stroke-width:16;stroke-miterlimit:10;}
	.st2{display:none;}
	.st3{display:inline;}
	.st4{fill:none;stroke:#D1D3D4;stroke-width:2;stroke-miterlimit:10;}
	.st5{display:inline;fill:none;stroke:#BCBEC0;stroke-width:4;stroke-miterlimit:10;}
	.st6{fill:none;stroke:#BCBEC0;stroke-width:4;stroke-miterlimit:10;}
	.st7{display:inline;fill:none;stroke:#D1D3D4;stroke-width:2;stroke-miterlimit:10;}
	.st8{display:none;opacity:0.35;fill:none;stroke:#000000;stroke-width:16;stroke-miterlimit:10;}
	.st9{fill:none;stroke:#011E41;stroke-width:16;stroke-linejoin:bevel;stroke-miterlimit:10;}
	.st10{fill:none;stroke:#F5333F;stroke-width:16;stroke-miterlimit:10;}
	.st11{fill:#011E41;}
	.st12{fill:none;stroke:#011E41;stroke-width:16;stroke-linecap:square;stroke-miterlimit:10;}
	.st13{fill:none;stroke:#011E41;stroke-width:16;stroke-linecap:round;stroke-miterlimit:10;}
	.st14{fill:none;stroke:#EF3741;stroke-width:16;stroke-miterlimit:10;}
	.st15{fill:#F5333F;stroke:#011E41;stroke-width:16;stroke-miterlimit:10;}
	.st16{fill:#EF3741;}
	.st17{fill:none;stroke:#011E41;stroke-width:8;stroke-miterlimit:10;}
	.st18{fill:none;stroke:#E73843;stroke-width:16;stroke-miterlimit:10;}
	.st19{fill:none;stroke:#011E41;stroke-width:13.4168;stroke-miterlimit:10;}
	.st20{fill:none;stroke:#011E41;stroke-width:13.8969;stroke-miterlimit:10;}
	.st21{fill:none;stroke:#011E41;stroke-width:14.2064;stroke-miterlimit:10;}
	.st22{fill:none;stroke:#011E41;stroke-width:15.0584;stroke-miterlimit:10;}
	.st23{fill:none;stroke:#011E41;stroke-width:15.1473;stroke-miterlimit:10;}
	.st24{fill:none;stroke:#011E41;stroke-width:16.5604;stroke-miterlimit:10;}
	.st25{fill:none;stroke:#011E41;stroke-width:14.3418;stroke-miterlimit:10;}
	.st26{fill:none;stroke:#011E41;stroke-width:15.8515;stroke-miterlimit:10;}
	.st27{fill:#F53340;}
</style>
<g id="Icons">
	<g>
		<path class="st0" d="M197.32,175.98l-0.01,0.86c-0.38,34.62-18.57,66.6-48.13,84.61l-7.08,4.31c-10,6.09-22.8-1.15-22.73-12.85
			l0.05-9.16c0.2-34.62,18.22-66.69,47.68-84.86l0,0c1.97-1.22,4.03-2.04,6.1-2.51c5.6-1.27,11.31,0.06,15.77,3.21
			C193.97,163.13,197.4,168.95,197.32,175.98z"/>
		<path class="st0" d="M300.94,132.63l-0.19,0.8c-7.71,31.97,1.61,65.66,24.65,89.12l5.52,5.62c7.79,7.93,21.26,4.25,23.93-6.55
			l2.08-8.45c7.87-31.93-1.27-65.66-24.18-89.24l0,0c-1.53-1.58-3.23-2.81-5.03-3.73c-4.86-2.47-10.43-2.58-15.27-0.71
			C307.02,121.57,302.51,126.14,300.94,132.63z"/>
		<g>
			<g>
				<path class="st1" d="M280.94,132.63l-0.19,0.8c-7.71,31.97,1.61,65.66,24.65,89.12l5.52,5.62c7.79,7.93,21.26,4.25,23.93-6.55
					l2.08-8.45c7.87-31.93-1.27-65.66-24.18-89.24l0,0c-1.53-1.58-3.23-2.81-5.03-3.73c-4.86-2.47-10.43-2.58-15.27-0.71
					C287.02,121.57,282.51,126.14,280.94,132.63z"/>
				<g>
					<path class="st1" d="M322.41,230.58c-5.03-25.54-4.3-82.38-29.97-111.1"/>
					<line class="st1" x1="339.7" y1="196.72" x2="314.56" y2="177.85"/>
					<line class="st1" x1="334.42" y1="159.07" x2="306.62" y2="143.71"/>
					<line class="st1" x1="296.55" y1="209.24" x2="314.56" y2="177.85"/>
					<line class="st1" x1="283.36" y1="183.65" x2="307.48" y2="142.81"/>
				</g>
			</g>
			<polyline class="st1" points="255.78,301.79 297.85,263.49 364.35,272.42 419.78,249.65 375.36,296.76 303.14,296.76 
				261.86,333.76 176.5,332.31 145.49,366.78 74.41,366.73 117.93,343.88 173.92,307.39 230.03,306.23 			"/>
			<polyline class="st1" points="162.66,351.44 225.88,363.44 247.1,411.41 302.7,425.35 			"/>
			<line class="st1" x1="145.05" y1="418.31" x2="237.88" y2="394.09"/>
			<polyline class="st1" points="325.16,299.85 318.99,363.44 352.02,406.2 			"/>
			<line class="st1" x1="258.49" y1="333.7" x2="319.18" y2="361.47"/>
			<line class="st1" x1="96.61" y1="284.87" x2="173.92" y2="307.39"/>
			<line class="st1" x1="194.7" y1="267.48" x2="211.56" y2="306.61"/>
			<g>
				<path class="st1" d="M217.32,185.98l-0.01,0.86c-0.38,34.62-18.57,66.6-48.13,84.61l-7.08,4.31c-10,6.09-22.8-1.15-22.73-12.85
					l0.05-9.16c0.2-34.62,18.22-66.69,47.68-84.86l0,0c1.97-1.22,4.03-2.04,6.1-2.51c5.6-1.27,11.31,0.06,15.77,3.21
					C213.97,173.13,217.4,178.95,217.32,185.98z"/>
				<g>
					<path class="st1" d="M149.74,275.27c11.71-24.77,25.62-82.98,59.23-105.67"/>
					<line class="st1" x1="140.82" y1="236.26" x2="171.34" y2="223.47"/>
					<line class="st1" x1="155.92" y1="199.18" x2="188.25" y2="190.67"/>
					<line class="st1" x1="181.64" y1="260.15" x2="171.34" y2="223.47"/>
					<line class="st1" x1="201.7" y1="237.44" x2="187.61" y2="189.54"/>
				</g>
			</g>
			<path class="st1" d="M196.26,163.26v-8.07c0-17.88,14.49-32.37,32.37-32.37h0c17.88,0,32.37,14.49,32.37,32.37
				c0,0,10.83,116.22-17.07,177.76"/>
			<path class="st1" d="M217.14,182.16v-25.77c0-6.64,5.38-12.02,12.02-12.02h0c6.64,0,12.02,5.38,12.02,12.02
				c0,0,12.37,113.32-17.07,176.57"/>
			<path class="st1" d="M239.55,122.82v-15.8c0-17.88,14.49-32.37,32.37-32.37h0c17.88,0,32.37,14.49,32.37,32.37v18.09"/>
			<path class="st1" d="M260.42,150.21v-42c0-6.64,5.38-12.02,12.02-12.02h0c6.64,0,12.02,5.38,12.02,12.02v16.93"/>
		</g>
	</g>
</g>
<g id="Text">
</g>
</svg>
