<?xml version="1.0" encoding="utf-8"?>
<!-- Generator: Adobe Illustrator 26.0.1, SVG Export Plug-In . SVG Version: 6.00 Build 0)  -->
<svg version="1.1" xmlns="http://www.w3.org/2000/svg" xmlns:xlink="http://www.w3.org/1999/xlink" x="0px" y="0px"
	 viewBox="0 0 500 500" style="enable-background:new 0 0 500 500;" xml:space="preserve">
<style type="text/css">
	.st0{fill:#F5333F;}
	.st1{fill:none;stroke:#011E41;stroke-width:16;stroke-miterlimit:10;}
	.st2{display:none;}
	.st3{display:inline;}
	.st4{fill:none;stroke:#D1D3D4;stroke-width:2;stroke-miterlimit:10;}
	.st5{display:inline;fill:none;stroke:#BCBEC0;stroke-width:4;stroke-miterlimit:10;}
	.st6{fill:none;stroke:#BCBEC0;stroke-width:4;stroke-miterlimit:10;}
	.st7{display:inline;fill:none;stroke:#D1D3D4;stroke-width:2;stroke-miterlimit:10;}
	.st8{display:none;opacity:0.35;fill:none;stroke:#000000;stroke-width:16;stroke-miterlimit:10;}
	.st9{fill:none;stroke:#011E41;stroke-width:16;stroke-linejoin:bevel;stroke-miterlimit:10;}
	.st10{fill:none;stroke:#F5333F;stroke-width:16;stroke-miterlimit:10;}
	.st11{fill:#011E41;}
	.st12{fill:none;stroke:#011E41;stroke-width:16;stroke-linecap:square;stroke-miterlimit:10;}
	.st13{fill:none;stroke:#011E41;stroke-width:16;stroke-linecap:round;stroke-miterlimit:10;}
	.st14{fill:none;stroke:#EF3741;stroke-width:16;stroke-miterlimit:10;}
	.st15{fill:#F5333F;stroke:#011E41;stroke-width:16;stroke-miterlimit:10;}
	.st16{fill:#EF3741;}
	.st17{fill:none;stroke:#011E41;stroke-width:8;stroke-miterlimit:10;}
	.st18{fill:none;stroke:#E73843;stroke-width:16;stroke-miterlimit:10;}
	.st19{fill:none;stroke:#011E41;stroke-width:13.4168;stroke-miterlimit:10;}
	.st20{fill:none;stroke:#011E41;stroke-width:13.8969;stroke-miterlimit:10;}
	.st21{fill:none;stroke:#011E41;stroke-width:14.2064;stroke-miterlimit:10;}
	.st22{fill:none;stroke:#011E41;stroke-width:15.0584;stroke-miterlimit:10;}
	.st23{fill:none;stroke:#011E41;stroke-width:15.1473;stroke-miterlimit:10;}
	.st24{fill:none;stroke:#011E41;stroke-width:16.5604;stroke-miterlimit:10;}
	.st25{fill:none;stroke:#011E41;stroke-width:14.3418;stroke-miterlimit:10;}
	.st26{fill:none;stroke:#011E41;stroke-width:15.8515;stroke-miterlimit:10;}
	.st27{fill:#F53340;}
</style>
<g id="Icons">
	<g>
		<path class="st0" d="M289.84,169.98c0.85-33.6-25.69-61.53-59.29-62.38c-33.6-0.85-61.53,25.69-62.38,59.29
			c-0.63,24.72,13.58,46.37,34.51,56.43l-2.9,114.23l24.3,21.51l25.52-19.59l0.42-16.41l-11.43-12.52l12.05-11.93l0.09-3.64
			l-3.82-7.85l4.22-7.64l0.02-0.69l-11.43-12.53l12.05-11.93l0.76-29.75C273.92,215.6,289.21,194.7,289.84,169.98z"/>
		<g>
			<g>
				<g>
					<g>
						<g>
							<path class="st1" d="M396.72,452.08l-16.58-44.12c-1.81-4.82-0.98-10.23,2.2-14.28l47.3-60.4c2.86-3.65,4.19-8.26,3.73-12.87
								l-5.67-56.2l-30.61-74.85c-2.96-8.4-12.17-12.81-20.57-9.85c-8.4,2.96-12.81,12.17-9.85,20.57l24.29,68.46"/>
							<path class="st1" d="M377.4,351.71l28.28-83.31h0c-13.35-4.45-27.82,2.54-32.64,15.76l-11.19,30.74l-24.78,18.62
								c-24.07,18.09-33.19,49.98-22.31,78.06l17.62,45.49"/>
						</g>
						<g>
							<path class="st1" d="M103.28,452.08l16.58-44.12c1.81-4.82,0.98-10.23-2.2-14.28l-47.3-60.4c-2.86-3.65-4.19-8.26-3.73-12.87
								l5.67-56.2l30.61-74.85c2.96-8.4,12.17-12.81,20.57-9.85c8.4,2.96,12.81,12.17,9.85,20.57l-24.29,68.46"/>
							<path class="st1" d="M122.6,351.71L94.31,268.4h0c13.35-4.45,27.82,2.54,32.64,15.76l11.19,30.74l24.78,18.62
								c24.07,18.09,33.19,49.98,22.31,78.06l-17.62,45.49"/>
						</g>
					</g>
				</g>
			</g>
			<g>
				<circle class="st1" cx="252.67" cy="147.14" r="14.13"/>
				<path class="st1" d="M312.84,174.98c0.85-33.6-25.69-61.53-59.29-62.38c-33.6-0.85-61.53,25.69-62.38,59.29
					c-0.63,24.72,13.58,46.37,34.51,56.43l-2.9,114.23l24.3,21.51l25.52-19.59l0.42-16.41l-11.43-12.52l12.05-11.93l0.09-3.64
					l-3.82-7.85l4.22-7.64l0.02-0.69l-11.43-12.53l12.05-11.93l0.76-29.75C296.92,220.6,312.21,199.7,312.84,174.98z"/>
			</g>
		</g>
		<path class="st10" d="M370.01,84.42C336.98,58.43,295.3,42.92,250,42.92c-45.3,0-86.98,15.51-120.01,41.5"/>
	</g>
</g>
<g id="Text">
</g>
</svg>
