<?xml version="1.0" encoding="utf-8"?>
<!-- Generator: Adobe Illustrator 26.0.1, SVG Export Plug-In . SVG Version: 6.00 Build 0)  -->
<svg version="1.1" xmlns="http://www.w3.org/2000/svg" xmlns:xlink="http://www.w3.org/1999/xlink" x="0px" y="0px"
	 viewBox="0 0 500 500" style="enable-background:new 0 0 500 500;" xml:space="preserve">
<style type="text/css">
	.st0{fill:#F5333F;}
	.st1{fill:none;stroke:#011E41;stroke-width:16;stroke-miterlimit:10;}
	.st2{display:none;}
	.st3{display:inline;}
	.st4{fill:none;stroke:#D1D3D4;stroke-width:2;stroke-miterlimit:10;}
	.st5{display:inline;fill:none;stroke:#BCBEC0;stroke-width:4;stroke-miterlimit:10;}
	.st6{fill:none;stroke:#BCBEC0;stroke-width:4;stroke-miterlimit:10;}
	.st7{display:inline;fill:none;stroke:#D1D3D4;stroke-width:2;stroke-miterlimit:10;}
	.st8{display:none;opacity:0.35;fill:none;stroke:#000000;stroke-width:16;stroke-miterlimit:10;}
	.st9{fill:none;stroke:#011E41;stroke-width:16;stroke-linejoin:bevel;stroke-miterlimit:10;}
	.st10{fill:none;stroke:#F5333F;stroke-width:16;stroke-miterlimit:10;}
	.st11{fill:#011E41;}
	.st12{fill:none;stroke:#011E41;stroke-width:16;stroke-linecap:square;stroke-miterlimit:10;}
	.st13{fill:none;stroke:#011E41;stroke-width:16;stroke-linecap:round;stroke-miterlimit:10;}
	.st14{fill:none;stroke:#EF3741;stroke-width:16;stroke-miterlimit:10;}
	.st15{fill:#F5333F;stroke:#011E41;stroke-width:16;stroke-miterlimit:10;}
	.st16{fill:#EF3741;}
	.st17{fill:none;stroke:#011E41;stroke-width:8;stroke-miterlimit:10;}
	.st18{fill:none;stroke:#E73843;stroke-width:16;stroke-miterlimit:10;}
	.st19{fill:none;stroke:#011E41;stroke-width:13.4168;stroke-miterlimit:10;}
	.st20{fill:none;stroke:#011E41;stroke-width:13.8969;stroke-miterlimit:10;}
	.st21{fill:none;stroke:#011E41;stroke-width:14.2064;stroke-miterlimit:10;}
	.st22{fill:none;stroke:#011E41;stroke-width:15.0584;stroke-miterlimit:10;}
	.st23{fill:none;stroke:#011E41;stroke-width:15.1473;stroke-miterlimit:10;}
	.st24{fill:none;stroke:#011E41;stroke-width:16.5604;stroke-miterlimit:10;}
	.st25{fill:none;stroke:#011E41;stroke-width:14.3418;stroke-miterlimit:10;}
	.st26{fill:none;stroke:#011E41;stroke-width:15.8515;stroke-miterlimit:10;}
	.st27{fill:#F53340;}
</style>
<g id="Icons">
	<g>
		<circle class="st0" cx="131.01" cy="327.54" r="34.4"/>
		<circle class="st0" cx="399.69" cy="139.15" r="24"/>
		<circle class="st0" cx="310.49" cy="443.15" r="12.93"/>
		<path class="st1" d="M99.43,434.52l0.33-35c0.22-23.29,19.28-41.99,42.57-41.76l25.5,0.24c34.77,0.33,63.23-27.59,63.56-62.36v0
			c0.22-23.29,19.28-41.99,42.57-41.76l45.68,0.44c23.29,0.22,42.35-18.48,42.57-41.76v0c0.22-23.29,19.28-41.99,42.57-41.76
			l49.61,0.47"/>
		<circle class="st1" cx="161.39" cy="287.82" r="34.4"/>
		<circle class="st1" cx="430.07" cy="99.43" r="24"/>
		<circle class="st1" cx="406.36" cy="217.08" r="12.93"/>
		<circle class="st1" cx="340.88" cy="403.44" r="12.93"/>
		<circle class="st1" cx="285.67" cy="300.43" r="12.93"/>
		<circle class="st1" cx="58.72" cy="404.57" r="12.93"/>
		<g>
			<polyline class="st1" points="247.63,255.94 207.34,155.17 369.76,90.22 400.55,167.22 			"/>
			<polyline class="st12" points="205.67,143.99 212.69,86.15 318.29,43.92 363.26,80.97 			"/>
			<g>
				
					<rect x="258.37" y="165.66" transform="matrix(0.9285 -0.3713 0.3713 0.9285 -50.4633 116.1254)" class="st1" width="35.98" height="46.91"/>
				
					<rect x="325.19" y="138.94" transform="matrix(0.9285 -0.3713 0.3713 0.9285 -35.7664 139.0251)" class="st1" width="35.98" height="46.91"/>
			</g>
		</g>
		<path class="st1" d="M207.37,435.17l0.23-23.93c0.15-15.87,13.12-28.62,28.99-28.5l48.85,0.38c15.87,0.12,28.84-12.63,28.99-28.5
			l0.13-14.05c0.15-15.89,13.16-28.65,29.04-28.49l28.27,0.27c15.89,0.15,28.89-12.61,29.04-28.49v0
			c0.15-15.89,13.16-28.65,29.04-28.49l29.99,0.29"/>
	</g>
</g>
<g id="Text">
</g>
</svg>
