<?xml version="1.0" encoding="utf-8"?>
<!-- Generator: Adobe Illustrator 26.0.1, SVG Export Plug-In . SVG Version: 6.00 Build 0)  -->
<svg version="1.1" xmlns="http://www.w3.org/2000/svg" xmlns:xlink="http://www.w3.org/1999/xlink" x="0px" y="0px"
	 viewBox="0 0 500 500" style="enable-background:new 0 0 500 500;" xml:space="preserve">
<style type="text/css">
	.st0{fill:#F5333F;}
	.st1{fill:none;stroke:#011E41;stroke-width:16;stroke-miterlimit:10;}
	.st2{display:none;}
	.st3{display:inline;}
	.st4{fill:none;stroke:#D1D3D4;stroke-width:2;stroke-miterlimit:10;}
	.st5{display:inline;fill:none;stroke:#BCBEC0;stroke-width:4;stroke-miterlimit:10;}
	.st6{fill:none;stroke:#BCBEC0;stroke-width:4;stroke-miterlimit:10;}
	.st7{display:inline;fill:none;stroke:#D1D3D4;stroke-width:2;stroke-miterlimit:10;}
	.st8{display:none;opacity:0.35;fill:none;stroke:#000000;stroke-width:16;stroke-miterlimit:10;}
	.st9{fill:none;stroke:#011E41;stroke-width:16;stroke-linejoin:bevel;stroke-miterlimit:10;}
	.st10{fill:none;stroke:#F5333F;stroke-width:16;stroke-miterlimit:10;}
	.st11{fill:#011E41;}
	.st12{fill:none;stroke:#011E41;stroke-width:16;stroke-linecap:square;stroke-miterlimit:10;}
	.st13{fill:none;stroke:#011E41;stroke-width:16;stroke-linecap:round;stroke-miterlimit:10;}
	.st14{fill:none;stroke:#EF3741;stroke-width:16;stroke-miterlimit:10;}
	.st15{fill:#F5333F;stroke:#011E41;stroke-width:16;stroke-miterlimit:10;}
	.st16{fill:#EF3741;}
	.st17{fill:none;stroke:#011E41;stroke-width:8;stroke-miterlimit:10;}
	.st18{fill:none;stroke:#E73843;stroke-width:16;stroke-miterlimit:10;}
	.st19{fill:none;stroke:#011E41;stroke-width:13.4168;stroke-miterlimit:10;}
	.st20{fill:none;stroke:#011E41;stroke-width:13.8969;stroke-miterlimit:10;}
	.st21{fill:none;stroke:#011E41;stroke-width:14.2064;stroke-miterlimit:10;}
	.st22{fill:none;stroke:#011E41;stroke-width:15.0584;stroke-miterlimit:10;}
	.st23{fill:none;stroke:#011E41;stroke-width:15.1473;stroke-miterlimit:10;}
	.st24{fill:none;stroke:#011E41;stroke-width:16.5604;stroke-miterlimit:10;}
	.st25{fill:none;stroke:#011E41;stroke-width:14.3418;stroke-miterlimit:10;}
	.st26{fill:none;stroke:#011E41;stroke-width:15.8515;stroke-miterlimit:10;}
	.st27{fill:#F53340;}
</style>
<g id="Icons">
	<g>
		<circle class="st0" cx="250" cy="212.22" r="87.01"/>
		<g>
			<g>
				<g>
					<line class="st1" x1="179.13" y1="270.29" x2="321.54" y2="412.7"/>
					<g>
						<polyline class="st1" points="203.83,255.91 203.87,294.99 164.76,294.99 						"/>
						<polyline class="st1" points="296.84,427.07 296.79,388 335.91,388 						"/>
					</g>
				</g>
				<g>
					<line class="st1" x1="179.13" y1="412.7" x2="321.54" y2="270.29"/>
					<g>
						<polyline class="st1" points="164.76,388 203.83,387.95 203.83,427.07 						"/>
						<polyline class="st1" points="335.91,294.99 296.84,295.03 296.84,255.91 						"/>
					</g>
				</g>
				<g>
					<line class="st1" x1="250.33" y1="240.79" x2="250.33" y2="442.19"/>
					<g>
						<polyline class="st1" points="277.96,248.1 250.36,275.75 222.7,248.1 						"/>
						<polyline class="st1" points="222.7,434.89 250.3,407.23 277.96,434.89 						"/>
					</g>
				</g>
				<g>
					<line class="st1" x1="149.63" y1="341.49" x2="351.03" y2="341.49"/>
					<g>
						<polyline class="st1" points="156.94,313.86 184.59,341.46 156.94,369.12 						"/>
						<polyline class="st1" points="343.73,369.12 316.07,341.52 343.73,313.86 						"/>
					</g>
				</g>
			</g>
			<g>
				<g>
					<line class="st1" x1="286.96" y1="87.3" x2="429.37" y2="229.71"/>
					<g>
						<polyline class="st1" points="311.66,72.93 311.7,112 272.58,112 						"/>
						<polyline class="st1" points="404.67,244.09 404.62,205.01 443.74,205.01 						"/>
					</g>
				</g>
				<g>
					<line class="st1" x1="286.96" y1="229.71" x2="429.37" y2="87.3"/>
					<g>
						<polyline class="st1" points="272.58,205.01 311.66,204.97 311.66,244.09 						"/>
						<polyline class="st1" points="443.74,112 404.67,112.05 404.67,72.93 						"/>
					</g>
				</g>
				<g>
					<line class="st1" x1="358.16" y1="57.81" x2="358.16" y2="259.21"/>
					<g>
						<polyline class="st1" points="385.79,65.11 358.19,92.77 330.53,65.11 						"/>
						<polyline class="st1" points="330.53,251.9 358.13,224.25 385.79,251.9 						"/>
					</g>
				</g>
				<g>
					<line class="st1" x1="257.46" y1="158.51" x2="458.86" y2="158.51"/>
					<g>
						<polyline class="st1" points="264.77,130.88 292.42,158.48 264.77,186.14 						"/>
						<polyline class="st1" points="451.56,186.14 423.9,158.54 451.56,130.88 						"/>
					</g>
				</g>
			</g>
			<g>
				<g>
					<line class="st1" x1="70.63" y1="87.3" x2="213.04" y2="229.71"/>
					<g>
						<polyline class="st1" points="95.33,72.93 95.38,112 56.26,112 						"/>
						<polyline class="st1" points="188.34,244.09 188.3,205.01 227.42,205.01 						"/>
					</g>
				</g>
				<g>
					<line class="st1" x1="70.63" y1="229.71" x2="213.04" y2="87.3"/>
					<g>
						<polyline class="st1" points="56.26,205.01 95.33,204.97 95.33,244.09 						"/>
						<polyline class="st1" points="227.42,112 188.34,112.05 188.34,72.93 						"/>
					</g>
				</g>
				<g>
					<line class="st1" x1="141.84" y1="57.81" x2="141.84" y2="259.21"/>
					<g>
						<polyline class="st1" points="169.47,65.11 141.87,92.77 114.21,65.11 						"/>
						<polyline class="st1" points="114.21,251.9 141.81,224.25 169.47,251.9 						"/>
					</g>
				</g>
				<g>
					<line class="st1" x1="41.14" y1="158.51" x2="242.54" y2="158.51"/>
					<g>
						<polyline class="st1" points="48.44,130.88 76.1,158.48 48.44,186.14 						"/>
						<polyline class="st1" points="235.23,186.14 207.58,158.54 235.23,130.88 						"/>
					</g>
				</g>
			</g>
		</g>
	</g>
</g>
<g id="Text">
</g>
</svg>
