<?xml version="1.0" encoding="utf-8"?>
<!-- Generator: Adobe Illustrator 26.0.1, SVG Export Plug-In . SVG Version: 6.00 Build 0)  -->
<svg version="1.1" xmlns="http://www.w3.org/2000/svg" xmlns:xlink="http://www.w3.org/1999/xlink" x="0px" y="0px"
	 viewBox="0 0 500 500" style="enable-background:new 0 0 500 500;" xml:space="preserve">
<style type="text/css">
	.st0{fill:#F5333F;}
	.st1{fill:none;stroke:#011E41;stroke-width:16;stroke-miterlimit:10;}
	.st2{display:none;}
	.st3{display:inline;}
	.st4{fill:none;stroke:#D1D3D4;stroke-width:2;stroke-miterlimit:10;}
	.st5{display:inline;fill:none;stroke:#BCBEC0;stroke-width:4;stroke-miterlimit:10;}
	.st6{fill:none;stroke:#BCBEC0;stroke-width:4;stroke-miterlimit:10;}
	.st7{display:inline;fill:none;stroke:#D1D3D4;stroke-width:2;stroke-miterlimit:10;}
	.st8{display:none;opacity:0.35;fill:none;stroke:#000000;stroke-width:16;stroke-miterlimit:10;}
	.st9{fill:none;stroke:#011E41;stroke-width:16;stroke-linejoin:bevel;stroke-miterlimit:10;}
	.st10{fill:none;stroke:#F5333F;stroke-width:16;stroke-miterlimit:10;}
	.st11{fill:#011E41;}
	.st12{fill:none;stroke:#011E41;stroke-width:16;stroke-linecap:square;stroke-miterlimit:10;}
	.st13{fill:none;stroke:#011E41;stroke-width:16;stroke-linecap:round;stroke-miterlimit:10;}
	.st14{fill:none;stroke:#EF3741;stroke-width:16;stroke-miterlimit:10;}
	.st15{fill:#F5333F;stroke:#011E41;stroke-width:16;stroke-miterlimit:10;}
	.st16{fill:#EF3741;}
	.st17{fill:none;stroke:#011E41;stroke-width:8;stroke-miterlimit:10;}
	.st18{fill:none;stroke:#E73843;stroke-width:16;stroke-miterlimit:10;}
	.st19{fill:none;stroke:#011E41;stroke-width:13.4168;stroke-miterlimit:10;}
	.st20{fill:none;stroke:#011E41;stroke-width:13.8969;stroke-miterlimit:10;}
	.st21{fill:none;stroke:#011E41;stroke-width:14.2064;stroke-miterlimit:10;}
	.st22{fill:none;stroke:#011E41;stroke-width:15.0584;stroke-miterlimit:10;}
	.st23{fill:none;stroke:#011E41;stroke-width:15.1473;stroke-miterlimit:10;}
	.st24{fill:none;stroke:#011E41;stroke-width:16.5604;stroke-miterlimit:10;}
	.st25{fill:none;stroke:#011E41;stroke-width:14.3418;stroke-miterlimit:10;}
	.st26{fill:none;stroke:#011E41;stroke-width:15.8515;stroke-miterlimit:10;}
	.st27{fill:#F53340;}
</style>
<g id="Icons">
	<g>
		<path class="st0" d="M127.01,118.94V332.5c0,13.39,6.76,25.87,17.98,33.19l12.69,8.27v10.82c0,5.91,4.79,10.71,10.71,10.71h17.2
			v62.43h20.14v-62.43h49.91v62.43h20.14v-62.43h15.85c5.91,0,10.71-4.79,10.71-10.71v-10.82l12.69-8.27
			c11.21-7.31,17.98-19.8,17.98-33.19V118.94c0-9.79-6.94-18.2-16.54-20.06l-24.27-4.71c-41.07-7.98-83.29-7.98-124.36,0
			l-24.27,4.71C133.94,100.74,127.01,109.15,127.01,118.94z"/>
		<g>
			<g>
				<line class="st1" x1="352.93" y1="293.19" x2="146.94" y2="293.19"/>
				<line class="st1" x1="146.94" y1="136.24" x2="352.93" y2="136.24"/>
			</g>
			<line class="st1" x1="225.72" y1="399.21" x2="275.63" y2="399.21"/>
			<path class="st1" d="M295.77,399.21h21.5c16.41,0,29.72-13.3,29.72-29.72v0l3.18-2.07c17.15-11.18,27.48-30.27,27.48-50.74V98.86
				c0-23.47-17.09-43.44-40.27-47.07l-36.9-5.78c-33.45-5.24-67.52-5.24-100.98,0l-36.9,5.78c-23.18,3.63-40.27,23.6-40.27,47.07
				v217.82c0,20.47,10.34,39.56,27.48,50.74l3.18,2.07v0c0,16.41,13.3,29.72,29.72,29.72h22.86"/>
			<path class="st1" d="M147.01,98.94V312.5c0,13.39,6.76,25.87,17.98,33.19l12.69,8.27v10.82c0,5.91,4.79,10.71,10.71,10.71h17.2
				v62.43h20.14v-62.43h49.91v62.43h20.14v-62.43h15.85c5.91,0,10.71-4.79,10.71-10.71v-10.82l12.69-8.27
				c11.21-7.31,17.98-19.8,17.98-33.19V98.94c0-9.79-6.94-18.2-16.54-20.06l-24.27-4.71c-41.07-7.98-83.29-7.98-124.36,0
				l-24.27,4.71C153.94,80.74,147.01,89.15,147.01,98.94z"/>
			<path class="st1" d="M282.58,226.99c0,18.03-14.62,32.65-32.65,32.65s-32.65-14.62-32.65-32.65s32.65-57.2,32.65-57.2
				S282.58,208.96,282.58,226.99z"/>
		</g>
	</g>
</g>
<g id="Text">
</g>
</svg>
