<?xml version="1.0" encoding="utf-8"?>
<!-- Generator: Adobe Illustrator 26.0.1, SVG Export Plug-In . SVG Version: 6.00 Build 0)  -->
<svg version="1.1" xmlns="http://www.w3.org/2000/svg" xmlns:xlink="http://www.w3.org/1999/xlink" x="0px" y="0px"
	 viewBox="0 0 500 500" style="enable-background:new 0 0 500 500;" xml:space="preserve">
<style type="text/css">
	.st0{fill:#F5333F;}
	.st1{fill:none;stroke:#011E41;stroke-width:16;stroke-miterlimit:10;}
	.st2{display:none;}
	.st3{display:inline;}
	.st4{fill:none;stroke:#D1D3D4;stroke-width:2;stroke-miterlimit:10;}
	.st5{display:inline;fill:none;stroke:#BCBEC0;stroke-width:4;stroke-miterlimit:10;}
	.st6{fill:none;stroke:#BCBEC0;stroke-width:4;stroke-miterlimit:10;}
	.st7{display:inline;fill:none;stroke:#D1D3D4;stroke-width:2;stroke-miterlimit:10;}
	.st8{display:none;opacity:0.35;fill:none;stroke:#000000;stroke-width:16;stroke-miterlimit:10;}
	.st9{fill:none;stroke:#011E41;stroke-width:16;stroke-linejoin:bevel;stroke-miterlimit:10;}
	.st10{fill:none;stroke:#F5333F;stroke-width:16;stroke-miterlimit:10;}
	.st11{fill:#011E41;}
	.st12{fill:none;stroke:#011E41;stroke-width:16;stroke-linecap:square;stroke-miterlimit:10;}
	.st13{fill:none;stroke:#011E41;stroke-width:16;stroke-linecap:round;stroke-miterlimit:10;}
	.st14{fill:none;stroke:#EF3741;stroke-width:16;stroke-miterlimit:10;}
	.st15{fill:#F5333F;stroke:#011E41;stroke-width:16;stroke-miterlimit:10;}
	.st16{fill:#EF3741;}
	.st17{fill:none;stroke:#011E41;stroke-width:8;stroke-miterlimit:10;}
	.st18{fill:none;stroke:#E73843;stroke-width:16;stroke-miterlimit:10;}
	.st19{fill:none;stroke:#011E41;stroke-width:13.4168;stroke-miterlimit:10;}
	.st20{fill:none;stroke:#011E41;stroke-width:13.8969;stroke-miterlimit:10;}
	.st21{fill:none;stroke:#011E41;stroke-width:14.2064;stroke-miterlimit:10;}
	.st22{fill:none;stroke:#011E41;stroke-width:15.0584;stroke-miterlimit:10;}
	.st23{fill:none;stroke:#011E41;stroke-width:15.1473;stroke-miterlimit:10;}
	.st24{fill:none;stroke:#011E41;stroke-width:16.5604;stroke-miterlimit:10;}
	.st25{fill:none;stroke:#011E41;stroke-width:14.3418;stroke-miterlimit:10;}
	.st26{fill:none;stroke:#011E41;stroke-width:15.8515;stroke-miterlimit:10;}
	.st27{fill:#F53340;}
</style>
<g id="Icons">
	<g>
		<path class="st0" d="M441.59,278.83v-31.54c0-18.65-12.24-35.09-30.11-40.43h0H171.35c-22.41,0-75.24,5-83.58,45.58v26.39h0
			c-6.1,0-11.05,4.95-11.05,11.05v4.59c0,6.1,4.95,11.05,11.05,11.05h353.83c5.55,0,10.05-4.5,10.05-10.05v-6.59
			C451.64,283.33,447.14,278.83,441.59,278.83L441.59,278.83z"/>
		<g>
			<path class="st1" d="M391.12,224.72H151.24l0,0c18.8-34.63,46.76-66.05,146.66-66.93c3.92-0.03,7.86,0.1,11.77,0.38h0
				c7.45,0.53,14.87,1.57,22.14,3.27C369.38,170.21,391.12,188.6,391.12,224.72L391.12,224.72z"/>
			<circle class="st1" cx="151.24" cy="324.01" r="24.43"/>
			<circle class="st1" cx="343.14" cy="324.01" r="24.43"/>
			<path class="st1" d="M421.23,297.16v-31.54c0-18.65-12.24-35.09-30.11-40.43h0H150.99c-22.41,0-75.24,5-83.58,45.58v26.39h0
				c-6.1,0-11.05,4.95-11.05,11.05v4.59c0,6.1,4.95,11.05,11.05,11.05h35.86c0.09-26.42,21.53-47.8,47.97-47.8
				c26.44,0,47.88,21.39,47.97,47.8h95.96c0.09-26.42,21.53-47.8,47.97-47.8c26.44,0,47.88,21.39,47.97,47.8h30.12
				c5.55,0,10.05-4.5,10.05-10.05v-6.59C431.28,301.66,426.78,297.16,421.23,297.16L421.23,297.16z"/>
			<line class="st1" x1="266.85" y1="151.55" x2="266.85" y2="221.17"/>
			<line class="st1" x1="351.14" y1="166.2" x2="351.14" y2="219.17"/>
			<line class="st1" x1="67.41" y1="281.14" x2="91.27" y2="281.14"/>
			<line class="st1" x1="391.12" y1="263.18" x2="421.23" y2="263.18"/>
		</g>
	</g>
</g>
<g id="Text">
</g>
</svg>
