<?xml version="1.0" encoding="utf-8"?>
<!-- Generator: Adobe Illustrator 26.0.1, SVG Export Plug-In . SVG Version: 6.00 Build 0)  -->
<svg version="1.1" xmlns="http://www.w3.org/2000/svg" xmlns:xlink="http://www.w3.org/1999/xlink" x="0px" y="0px"
	 viewBox="0 0 500 500" style="enable-background:new 0 0 500 500;" xml:space="preserve">
<style type="text/css">
	.st0{fill:#F5333F;}
	.st1{fill:none;stroke:#011E41;stroke-width:16;stroke-miterlimit:10;}
	.st2{display:none;}
	.st3{display:inline;}
	.st4{fill:none;stroke:#D1D3D4;stroke-width:2;stroke-miterlimit:10;}
	.st5{display:inline;fill:none;stroke:#BCBEC0;stroke-width:4;stroke-miterlimit:10;}
	.st6{fill:none;stroke:#BCBEC0;stroke-width:4;stroke-miterlimit:10;}
	.st7{display:inline;fill:none;stroke:#D1D3D4;stroke-width:2;stroke-miterlimit:10;}
	.st8{display:none;opacity:0.35;fill:none;stroke:#000000;stroke-width:16;stroke-miterlimit:10;}
	.st9{fill:none;stroke:#011E41;stroke-width:16;stroke-linejoin:bevel;stroke-miterlimit:10;}
	.st10{fill:none;stroke:#F5333F;stroke-width:16;stroke-miterlimit:10;}
	.st11{fill:#011E41;}
	.st12{fill:none;stroke:#011E41;stroke-width:16;stroke-linecap:square;stroke-miterlimit:10;}
	.st13{fill:none;stroke:#011E41;stroke-width:16;stroke-linecap:round;stroke-miterlimit:10;}
	.st14{fill:none;stroke:#EF3741;stroke-width:16;stroke-miterlimit:10;}
	.st15{fill:#F5333F;stroke:#011E41;stroke-width:16;stroke-miterlimit:10;}
	.st16{fill:#EF3741;}
	.st17{fill:none;stroke:#011E41;stroke-width:8;stroke-miterlimit:10;}
	.st18{fill:none;stroke:#E73843;stroke-width:16;stroke-miterlimit:10;}
	.st19{fill:none;stroke:#011E41;stroke-width:13.4168;stroke-miterlimit:10;}
	.st20{fill:none;stroke:#011E41;stroke-width:13.8969;stroke-miterlimit:10;}
	.st21{fill:none;stroke:#011E41;stroke-width:14.2064;stroke-miterlimit:10;}
	.st22{fill:none;stroke:#011E41;stroke-width:15.0584;stroke-miterlimit:10;}
	.st23{fill:none;stroke:#011E41;stroke-width:15.1473;stroke-miterlimit:10;}
	.st24{fill:none;stroke:#011E41;stroke-width:16.5604;stroke-miterlimit:10;}
	.st25{fill:none;stroke:#011E41;stroke-width:14.3418;stroke-miterlimit:10;}
	.st26{fill:none;stroke:#011E41;stroke-width:15.8515;stroke-miterlimit:10;}
	.st27{fill:#F53340;}
</style>
<g id="Icons">
	<g>
		<path class="st0" d="M198.2,248.38H59.32l9.44,130.62c0.97,9.94,9.32,17.52,19.31,17.52h81.33c9.99,0,18.34-7.58,19.31-17.52
			L198.2,248.38z"/>
		<path class="st0" d="M397.56,256.59c0-21.37-15.67-39.07-36.15-42.25c-5.23-17.71-21.6-30.64-41.01-30.64
			c-0.72,0-1.44,0.02-2.16,0.05c-7.84-8.99-19.37-14.69-32.24-14.69c-12.87,0-24.4,5.69-32.24,14.69c-0.71-0.04-1.43-0.05-2.16-0.05
			c-19.41,0-35.78,12.93-41.01,30.64c-20.48,3.18-36.15,20.88-36.15,42.25H397.56z"/>
		<g>
			<g>
				<g>
					<path class="st1" d="M73.54,372.66c1.1,11.34,10.63,19.99,22.03,19.99h92.8c11.4,0,20.93-8.65,22.03-19.99"/>
					<polygon class="st1" points="205.38,424.35 78.56,424.35 52.14,152.18 231.81,152.18 					"/>
					<line class="st1" x1="62.77" y1="223.61" x2="221.24" y2="223.61"/>
					<path class="st1" d="M162.45,333.63c-8.25,0-14.94-6.69-14.94-14.94"/>
					<path class="st1" d="M124.85,297.81c0,8.25-6.69,14.94-14.94,14.94"/>
					<path class="st1" d="M83.9,318.7c8.25,0,14.94,6.69,14.94,14.94"/>
					<path class="st1" d="M182.96,273.32c8.25,0,14.94,6.69,14.94,14.94c0,8.25-6.69,14.94-14.94,14.94"/>
					<path class="st1" d="M170.93,272.98c-8.25,0-14.94-6.69-14.94-14.94c0-8.25,6.69-14.94,14.94-14.94"/>
					<path class="st1" d="M116.47,372.66c0-8.25,6.69-14.94,14.94-14.94s14.94,6.69,14.94,14.94"/>
					<path class="st1" d="M115.53,262.81c0,8.25-6.69,14.94-14.94,14.94s-14.94-6.69-14.94-14.94"/>
					<path class="st1" d="M178.1,372.66c0-8.25,6.69-14.94,14.94-14.94"/>
					<rect x="91.74" y="346.05" class="st11" width="14.19" height="14.19"/>
					<rect x="151.64" y="290.47" class="st11" width="14.19" height="14.19"/>
					<rect x="189.04" y="239.16" class="st11" width="14.19" height="14.19"/>
					<rect x="76.8" y="237.64" class="st11" width="14.19" height="14.19"/>
					<rect x="129.21" y="272.8" class="st11" width="14.19" height="14.19"/>
					<rect x="118.18" y="328.99" class="st11" width="14.19" height="14.19"/>
					<rect x="178.48" y="322.16" class="st11" width="14.19" height="14.19"/>
					<rect x="107.62" y="237.64" class="st11" width="14.19" height="14.19"/>
				</g>
				<g>
					<path class="st1" d="M418.2,247.12c0-21.89-16.05-40.02-37.02-43.27c-5.35-18.14-22.13-31.38-42-31.38
						c-0.74,0-1.48,0.02-2.21,0.06c-8.03-9.21-19.84-15.04-33.02-15.04c-13.18,0-24.99,5.83-33.02,15.04
						c-0.73-0.04-1.47-0.06-2.21-0.06c-19.88,0-36.65,13.24-42,31.38"/>
					<path class="st1" d="M222.65,255.42h222.98c0,78.25-63.44,141.69-141.69,141.69c-36.2,0-69.23-13.58-94.28-35.92"/>
					<line class="st1" x1="218.98" y1="284.6" x2="447.86" y2="284.6"/>
					<path class="st1" d="M348.6,220.67c0,8.25-6.69,14.94-14.94,14.94"/>
					<path class="st1" d="M288.3,200.16c0-8.25,6.69-14.94,14.94-14.94c8.25,0,14.94,6.69,14.94,14.94"/>
					<path class="st1" d="M287.95,212.2c0,8.25-6.69,14.94-14.94,14.94s-14.94-6.69-14.94-14.94"/>
					
						<rect x="361.02" y="277.2" transform="matrix(6.123234e-17 -1 1 6.123234e-17 83.8258 652.4091)" class="st11" width="14.19" height="14.19"/>
					
						<rect x="305.44" y="217.3" transform="matrix(6.123234e-17 -1 1 6.123234e-17 88.1469 536.9292)" class="st11" width="14.19" height="14.19"/>
					
						<rect x="254.14" y="190.89" transform="matrix(6.123234e-17 -1 1 6.123234e-17 63.2432 459.2217)" class="st11" width="14.19" height="14.19"/>
					
						<rect x="237.16" y="228.51" transform="matrix(6.123234e-17 -1 1 6.123234e-17 8.6514 479.8681)" class="st11" width="14.19" height="14.19"/>
					
						<rect x="375" y="224.39" transform="matrix(6.123234e-17 -1 1 6.123234e-17 150.6075 613.5811)" class="st11" width="14.19" height="14.19"/>
					
						<rect x="337.14" y="190.46" transform="matrix(6.123234e-17 -1 1 6.123234e-17 146.6791 541.7879)" class="st11" width="14.19" height="14.19"/>
				</g>
			</g>
			<polyline class="st1" points="379.01,128.48 395.51,142.77 412.01,128.48 			"/>
			<polyline class="st1" points="311.15,75.65 327.65,89.94 344.15,75.65 			"/>
			<polyline class="st1" points="244.73,109.34 261.23,123.63 277.73,109.34 			"/>
			<path class="st1" d="M336.82,357.09h-39.66c-21.63,0-39.17-17.54-39.17-39.17v0h39.66C319.28,317.92,336.82,335.46,336.82,357.09
				L336.82,357.09z"/>
		</g>
	</g>
</g>
<g id="Text">
</g>
</svg>
