<?xml version="1.0" encoding="utf-8"?>
<!-- Generator: Adobe Illustrator 26.0.1, SVG Export Plug-In . SVG Version: 6.00 Build 0)  -->
<svg version="1.1" xmlns="http://www.w3.org/2000/svg" xmlns:xlink="http://www.w3.org/1999/xlink" x="0px" y="0px"
	 viewBox="0 0 500 500" style="enable-background:new 0 0 500 500;" xml:space="preserve">
<style type="text/css">
	.st0{fill:#F5333F;}
	.st1{fill:none;stroke:#011E41;stroke-width:16;stroke-miterlimit:10;}
	.st2{display:none;}
	.st3{display:inline;}
	.st4{fill:none;stroke:#D1D3D4;stroke-width:2;stroke-miterlimit:10;}
	.st5{display:inline;fill:none;stroke:#BCBEC0;stroke-width:4;stroke-miterlimit:10;}
	.st6{fill:none;stroke:#BCBEC0;stroke-width:4;stroke-miterlimit:10;}
	.st7{display:inline;fill:none;stroke:#D1D3D4;stroke-width:2;stroke-miterlimit:10;}
	.st8{display:none;opacity:0.35;fill:none;stroke:#000000;stroke-width:16;stroke-miterlimit:10;}
	.st9{fill:none;stroke:#011E41;stroke-width:16;stroke-linejoin:bevel;stroke-miterlimit:10;}
	.st10{fill:none;stroke:#F5333F;stroke-width:16;stroke-miterlimit:10;}
	.st11{fill:#011E41;}
	.st12{fill:none;stroke:#011E41;stroke-width:16;stroke-linecap:square;stroke-miterlimit:10;}
	.st13{fill:none;stroke:#011E41;stroke-width:16;stroke-linecap:round;stroke-miterlimit:10;}
	.st14{fill:none;stroke:#EF3741;stroke-width:16;stroke-miterlimit:10;}
	.st15{fill:#F5333F;stroke:#011E41;stroke-width:16;stroke-miterlimit:10;}
	.st16{fill:#EF3741;}
	.st17{fill:none;stroke:#011E41;stroke-width:8;stroke-miterlimit:10;}
	.st18{fill:none;stroke:#E73843;stroke-width:16;stroke-miterlimit:10;}
	.st19{fill:none;stroke:#011E41;stroke-width:13.4168;stroke-miterlimit:10;}
	.st20{fill:none;stroke:#011E41;stroke-width:13.8969;stroke-miterlimit:10;}
	.st21{fill:none;stroke:#011E41;stroke-width:14.2064;stroke-miterlimit:10;}
	.st22{fill:none;stroke:#011E41;stroke-width:15.0584;stroke-miterlimit:10;}
	.st23{fill:none;stroke:#011E41;stroke-width:15.1473;stroke-miterlimit:10;}
	.st24{fill:none;stroke:#011E41;stroke-width:16.5604;stroke-miterlimit:10;}
	.st25{fill:none;stroke:#011E41;stroke-width:14.3418;stroke-miterlimit:10;}
	.st26{fill:none;stroke:#011E41;stroke-width:15.8515;stroke-miterlimit:10;}
	.st27{fill:#F53340;}
</style>
<g id="Icons">
	<g>
		<path class="st0" d="M178.8,324.92c0.31-1.19,0.48-2.43,0.48-3.72c0-7.99-6.48-14.47-14.47-14.47c-4.85,0-9.13,2.38-11.76,6.04
			c-3.43-7.48-10.97-12.69-19.74-12.69c-11.99,0-21.71,9.72-21.71,21.71c0,1.89,0.24,3.73,0.7,5.48c-4.28-2.73-9.36-4.32-14.82-4.32
			c-15.25,0-27.61,12.36-27.61,27.61c0,5.18,1.43,10.02,3.91,14.16c-9.32,2.28-16.24,10.69-16.24,20.71
			c0,11.78,9.55,21.33,21.33,21.33c10.56,0,19.33-7.68,21.03-17.76c2.73,1.36,5.8,2.14,9.06,2.14c9.57,0,17.58-6.63,19.72-15.54
			c11.62-0.14,21.01-9.6,21.01-21.26c0-1.82-0.23-3.58-0.66-5.27c3.15,2.19,6.97,3.47,11.1,3.47c5.9,0,11.18-2.63,14.75-6.77
			c1.13,0.41,2.35,0.64,3.62,0.64c5.95,0,10.77-4.82,10.77-10.77C189.27,329.83,184.61,325.08,178.8,324.92z"/>
		<path class="st0" d="M225.48,85.25c-1.69,0-3.35,0.16-4.95,0.46c1.07-2.91,1.66-6.05,1.66-9.34c0-14.91-12.09-27-27-27
			c-9.61,0-18.04,5.03-22.83,12.59c-4.78-7.56-13.22-12.59-22.83-12.59c-14.91,0-27,12.09-27,27c0,3.28,0.59,6.43,1.66,9.34
			c-1.61-0.3-3.26-0.46-4.95-0.46c-14.91,0-27,12.09-27,27s12.09,27,27,27c14.91,0,91.32,0,106.23,0s27-12.09,27-27
			S240.39,85.25,225.48,85.25z"/>
		<path class="st0" d="M393.81,224.35c0-15.42,7.06-29.18,18.12-38.24c1.18-1.15,2.41-2.24,3.71-3.27l0,0
			c10.86-8.59,17.8-21.18,19.26-34.95v-1.66c0-8.58-1.5-17.07-4.19-25.22c-8.14-24.67-4.8-52.04,9.41-74.39H315.05
			c-6.45,23.39-4.97,48.35,4.68,70.62c4.82,11.13,11.2,21.43,18.86,30.62c1.95,2.34,3.7,4.82,5.21,7.46l0,0
			c6.29,11.01,8.22,23.97,5.42,36.34l-1.15,5.05c-1.14,5.02-1.56,10.18-1.24,15.33c0.53,8.55,3.06,16.88,7.47,24.23
			c7.17,11.94,17.23,22,29.36,29.18c8.15,4.68,12.62,13.87,11.27,23.17l-0.53,3.61h14.06l0.01-0.04c2.78-7.09,3.47-14.62,2.25-21.86
			c-1.03-6.12-3.72-11.8-7.38-16.81C397.35,245.33,393.81,235.25,393.81,224.35z"/>
		<g>
			<path class="st9" d="M158.8,324.92c0.31-1.19,0.48-2.43,0.48-3.72c0-7.99-6.48-14.47-14.47-14.47c-4.85,0-9.13,2.38-11.76,6.04
				c-3.43-7.48-10.97-12.69-19.74-12.69c-11.99,0-21.71,9.72-21.71,21.71c0,1.89,0.24,3.73,0.7,5.48
				c-4.28-2.73-9.36-4.32-14.82-4.32c-15.25,0-27.61,12.36-27.61,27.61c0,5.18,1.43,10.02,3.91,14.16
				c-9.32,2.28-16.24,10.69-16.24,20.71c0,11.78,9.55,21.33,21.33,21.33c10.56,0,19.33-7.68,21.03-17.76
				c2.73,1.36,5.8,2.14,9.06,2.14c9.57,0,17.58-6.63,19.72-15.54c11.62-0.14,21.01-9.6,21.01-21.26c0-1.82-0.23-3.58-0.66-5.27
				c3.15,2.19,6.97,3.47,11.1,3.47c5.9,0,11.18-2.63,14.75-6.77c1.13,0.41,2.35,0.64,3.62,0.64c5.95,0,10.77-4.82,10.77-10.77
				C169.27,329.83,164.61,325.08,158.8,324.92z"/>
			<path class="st9" d="M102.07,386.35c7.32,23.03,28.87,39.72,54.33,39.72h35.82"/>
			<path class="st9" d="M268.43,403.24H161.96c-15.81,0-28.63-12.82-28.63-28.63v0c0-15.81,12.82-28.63,28.63-28.63"/>
			<path class="st9" d="M299.53,403.24h-65.24c-27.7,0-50.15,22.45-50.15,50.15v0"/>
			<g>
				<path class="st1" d="M299.53,445.46v-94.91h153.4v95.25l-261.88-0.58h-49.18c-30.38,0-56.94-16.35-71.36-40.72"/>
				<polyline class="st12" points="301.81,340.9 326.37,296.09 426.1,296.09 450.65,340.9 				"/>
				<g>
					<rect x="328.9" y="377.47" class="st1" width="31.55" height="41.14"/>
					<rect x="392.01" y="377.47" class="st1" width="31.55" height="41.14"/>
				</g>
			</g>
			<g>
				<line class="st1" x1="141.82" y1="136.05" x2="141.82" y2="166.99"/>
				<line class="st1" x1="164.91" y1="136.05" x2="164.91" y2="166.99"/>
				<path class="st1" d="M112.85,227.79l25.61-28.09c1.51-1.66,4.25-1.09,4.98,1.04l6.68,19.6c0.89,2.62,4.57,2.68,5.55,0.09
					l7.51-19.83c0.79-2.08,3.51-2.57,4.98-0.9l24.99,28.41"/>
				<line class="st1" x1="153.22" y1="243.52" x2="153.22" y2="283.41"/>
				<path class="st1" d="M174.27,232.9c8.05,17.72,18.86,33.47,31.85,46.01"/>
				<path class="st1" d="M132.08,232.9c-8.05,17.72-18.86,33.47-31.85,46.01"/>
			</g>
			<path class="st1" d="M205.48,85.25c-1.69,0-3.35,0.16-4.95,0.46c1.07-2.91,1.66-6.05,1.66-9.34c0-14.91-12.09-27-27-27
				c-9.61,0-18.04,5.03-22.83,12.59c-4.78-7.56-13.22-12.59-22.83-12.59c-14.91,0-27,12.09-27,27c0,3.28,0.59,6.43,1.66,9.34
				c-1.61-0.3-3.26-0.46-4.95-0.46c-14.91,0-27,12.09-27,27s12.09,27,27,27c14.91,0,91.32,0,106.23,0s27-12.09,27-27
				S220.39,85.25,205.48,85.25z"/>
			<line class="st1" x1="253.14" y1="67.15" x2="337.8" y2="67.15"/>
			<line class="st1" x1="361.2" y1="88.28" x2="445.87" y2="88.28"/>
			<line class="st1" x1="309.9" y1="113.25" x2="394.57" y2="113.25"/>
			<line class="st1" x1="374.99" y1="154.85" x2="436.26" y2="154.85"/>
			<line class="st1" x1="300.65" y1="188.14" x2="355.27" y2="188.14"/>
			<path class="st1" d="M461.68,296.31H317.34c-52.56,0-101.27-27.96-127.38-73.57c-8.36-14.61-15.03-30.22-19.79-46.46
				c-1.16-3.96-4.75-6.7-8.87-6.72l-16.4-0.09c-4.16-0.02-7.8,2.73-8.97,6.72c-14.45,49.27-46.52,91.6-90.23,118.85"/>
			<g>
				<path class="st1" d="M462.45,220.06c-38.97-6.58-50.09-5.92-88.58,1.79"/>
				<path class="st1" d="M334.29,236.25c-0.15-0.25-2.7,0.68-6.52,2.25c-27.77,11.4-57.39,17.63-87.4,18.55l-21.31,0.29"/>
			</g>
			<g>
				<path class="st1" d="M184.93,206.68l49.86,1.52c18.28,0.56,36.4,3.95,53.51,10.4c0.12,0.05,0.25,0.09,0.37,0.14l45.47,17.24"/>
				<path class="st1" d="M382.02,251.6c36.99,7.33,29.74,13.23,79.67,12.84"/>
			</g>
			<path class="st1" d="M373.81,224.35c0-15.42,7.06-29.18,18.12-38.24c1.18-1.15,2.41-2.24,3.71-3.27l0,0
				c10.86-8.59,17.8-21.18,19.26-34.95v-1.66c0-8.58-1.5-17.07-4.19-25.22c-8.14-24.67-4.8-52.04,9.41-74.39H295.05
				c-6.45,23.39-4.97,48.35,4.68,70.62c4.82,11.13,11.2,21.43,18.86,30.62c1.95,2.34,3.7,4.82,5.21,7.46l0,0
				c6.29,11.01,8.22,23.97,5.42,36.34l-1.15,5.05c-1.14,5.02-1.56,10.18-1.24,15.33c0.53,8.55,3.06,16.88,7.47,24.23
				c7.17,11.94,17.23,22,29.36,29.18c8.15,4.68,12.62,13.87,11.27,23.17l-0.53,3.61h14.06l0.01-0.04
				c2.78-7.09,3.47-14.62,2.25-21.86c-1.03-6.12-3.72-11.8-7.38-16.81C377.35,245.33,373.81,235.25,373.81,224.35z"/>
			<polyline class="st1" points="253.6,399.5 263.37,368.08 234.33,370.5 242.87,343.08 213.83,345.49 222.36,318.07 189.1,320.84 
							"/>
		</g>
	</g>
</g>
<g id="Text">
</g>
</svg>
