<?xml version="1.0" encoding="utf-8"?>
<!-- Generator: Adobe Illustrator 26.0.1, SVG Export Plug-In . SVG Version: 6.00 Build 0)  -->
<svg version="1.1" xmlns="http://www.w3.org/2000/svg" xmlns:xlink="http://www.w3.org/1999/xlink" x="0px" y="0px"
	 viewBox="0 0 500 500" style="enable-background:new 0 0 500 500;" xml:space="preserve">
<style type="text/css">
	.st0{fill:#F5333F;}
	.st1{fill:none;stroke:#011E41;stroke-width:16;stroke-miterlimit:10;}
	.st2{display:none;}
	.st3{display:inline;}
	.st4{fill:none;stroke:#D1D3D4;stroke-width:2;stroke-miterlimit:10;}
	.st5{display:inline;fill:none;stroke:#BCBEC0;stroke-width:4;stroke-miterlimit:10;}
	.st6{fill:none;stroke:#BCBEC0;stroke-width:4;stroke-miterlimit:10;}
	.st7{display:inline;fill:none;stroke:#D1D3D4;stroke-width:2;stroke-miterlimit:10;}
	.st8{display:none;opacity:0.35;fill:none;stroke:#000000;stroke-width:16;stroke-miterlimit:10;}
	.st9{fill:none;stroke:#011E41;stroke-width:16;stroke-linejoin:bevel;stroke-miterlimit:10;}
	.st10{fill:none;stroke:#F5333F;stroke-width:16;stroke-miterlimit:10;}
	.st11{fill:#011E41;}
	.st12{fill:none;stroke:#011E41;stroke-width:16;stroke-linecap:square;stroke-miterlimit:10;}
	.st13{fill:none;stroke:#011E41;stroke-width:16;stroke-linecap:round;stroke-miterlimit:10;}
	.st14{fill:none;stroke:#EF3741;stroke-width:16;stroke-miterlimit:10;}
	.st15{fill:#F5333F;stroke:#011E41;stroke-width:16;stroke-miterlimit:10;}
	.st16{fill:#EF3741;}
	.st17{fill:none;stroke:#011E41;stroke-width:8;stroke-miterlimit:10;}
	.st18{fill:none;stroke:#E73843;stroke-width:16;stroke-miterlimit:10;}
	.st19{fill:none;stroke:#011E41;stroke-width:13.4168;stroke-miterlimit:10;}
	.st20{fill:none;stroke:#011E41;stroke-width:13.8969;stroke-miterlimit:10;}
	.st21{fill:none;stroke:#011E41;stroke-width:14.2064;stroke-miterlimit:10;}
	.st22{fill:none;stroke:#011E41;stroke-width:15.0584;stroke-miterlimit:10;}
	.st23{fill:none;stroke:#011E41;stroke-width:15.1473;stroke-miterlimit:10;}
	.st24{fill:none;stroke:#011E41;stroke-width:16.5604;stroke-miterlimit:10;}
	.st25{fill:none;stroke:#011E41;stroke-width:14.3418;stroke-miterlimit:10;}
	.st26{fill:none;stroke:#011E41;stroke-width:15.8515;stroke-miterlimit:10;}
	.st27{fill:#F53340;}
</style>
<g id="Icons">
	<g>
		<g>
			<path class="st0" d="M202.69,262.44v64.65c0,42.91-25.57,81.68-65.01,98.58l-34.05,14.58c-8.72,3.73-18.11,5.66-27.59,5.66h0
				c-17.37,0-31.46-14.09-31.46-31.46v-25.28c0-26.02,3.58-51.91,10.65-76.96l1.97-7c13.84-49.04,41.86-92.9,80.55-126.06
				l15.79-13.54c5.7-4.89,12.96-7.57,20.47-7.57h0c17.37,0,31.46,14.09,31.46,31.46v36.82L202.69,262.44z"/>
			<path class="st0" d="M270.31,262.44v64.65c0,42.91,25.57,81.68,65.01,98.58l34.05,14.58c8.72,3.73,18.11,5.66,27.59,5.66h0
				c17.37,0,31.46-14.09,31.46-31.46v-25.28c0-26.02-3.58-51.91-10.65-76.96l-1.97-7c-13.84-49.04-41.86-92.9-80.55-126.06
				l-15.79-13.54c-5.7-4.89-12.96-7.57-20.47-7.57h0c-17.37,0-31.46,14.09-31.46,31.46v36.82L270.31,262.44z"/>
		</g>
		<g>
			<g>
				<path class="st1" d="M241.95,54.09v115.36c0,14.16-6.16,27.62-16.87,36.88L191.9,235c-8.24,7.12-13.86,16.8-15.96,27.49
					l-4.89,24.93"/>
				<path class="st1" d="M269.05,54.09v115.36c0,14.16,6.16,27.62,16.87,36.88L319.1,235c8.24,7.12,13.86,16.8,15.96,27.49
					l4.89,24.93"/>
			</g>
			<path class="st1" d="M193.54,297.25l5.96-28.77c1.29-6.23,4.6-11.87,9.4-16.04l27.56-23.92c10.92-9.48,27.16-9.48,38.08,0
				l27.56,23.92c4.81,4.17,8.11,9.81,9.4,16.04l5.96,28.77"/>
			<g>
				<path class="st1" d="M224.48,206.33v-36.82c0-17.37-14.09-31.46-31.46-31.46h0c-7.51,0-14.77,2.69-20.47,7.57l-15.79,13.54
					c-38.69,33.16-66.71,77.02-80.55,126.06l-1.97,7c-7.07,25.04-10.65,50.94-10.65,76.96v25.28c0,17.37,14.09,31.46,31.46,31.46h0
					c9.49,0,18.87-1.93,27.59-5.66l34.05-14.58c39.44-16.89,65.01-55.67,65.01-98.58v-64.65"/>
				<path class="st1" d="M286.52,206.33v-36.82c0-17.37,14.09-31.46,31.46-31.46h0c7.51,0,14.77,2.69,20.47,7.57l15.79,13.54
					c38.69,33.16,66.71,77.02,80.55,126.06l1.97,7c7.07,25.04,10.65,50.94,10.65,76.96v25.28c0,17.37-14.09,31.46-31.46,31.46h0
					c-9.49,0-18.87-1.93-27.59-5.66l-34.05-14.58c-39.44-16.89-65.01-55.67-65.01-98.58v-64.65"/>
			</g>
		</g>
	</g>
</g>
<g id="Text">
</g>
</svg>
