<?xml version="1.0" encoding="utf-8"?>
<!-- Generator: Adobe Illustrator 26.0.1, SVG Export Plug-In . SVG Version: 6.00 Build 0)  -->
<svg version="1.1" xmlns="http://www.w3.org/2000/svg" xmlns:xlink="http://www.w3.org/1999/xlink" x="0px" y="0px"
	 viewBox="0 0 500 500" style="enable-background:new 0 0 500 500;" xml:space="preserve">
<style type="text/css">
	.st0{fill:#F5333F;}
	.st1{fill:none;stroke:#011E41;stroke-width:16;stroke-miterlimit:10;}
	.st2{display:none;}
	.st3{display:inline;}
	.st4{fill:none;stroke:#D1D3D4;stroke-width:2;stroke-miterlimit:10;}
	.st5{display:inline;fill:none;stroke:#BCBEC0;stroke-width:4;stroke-miterlimit:10;}
	.st6{fill:none;stroke:#BCBEC0;stroke-width:4;stroke-miterlimit:10;}
	.st7{display:inline;fill:none;stroke:#D1D3D4;stroke-width:2;stroke-miterlimit:10;}
	.st8{display:none;opacity:0.35;fill:none;stroke:#000000;stroke-width:16;stroke-miterlimit:10;}
	.st9{fill:none;stroke:#011E41;stroke-width:16;stroke-linejoin:bevel;stroke-miterlimit:10;}
	.st10{fill:none;stroke:#F5333F;stroke-width:16;stroke-miterlimit:10;}
	.st11{fill:#011E41;}
	.st12{fill:none;stroke:#011E41;stroke-width:16;stroke-linecap:square;stroke-miterlimit:10;}
	.st13{fill:none;stroke:#011E41;stroke-width:16;stroke-linecap:round;stroke-miterlimit:10;}
	.st14{fill:none;stroke:#EF3741;stroke-width:16;stroke-miterlimit:10;}
	.st15{fill:#F5333F;stroke:#011E41;stroke-width:16;stroke-miterlimit:10;}
	.st16{fill:#EF3741;}
	.st17{fill:none;stroke:#011E41;stroke-width:8;stroke-miterlimit:10;}
	.st18{fill:none;stroke:#E73843;stroke-width:16;stroke-miterlimit:10;}
	.st19{fill:none;stroke:#011E41;stroke-width:13.4168;stroke-miterlimit:10;}
	.st20{fill:none;stroke:#011E41;stroke-width:13.8969;stroke-miterlimit:10;}
	.st21{fill:none;stroke:#011E41;stroke-width:14.2064;stroke-miterlimit:10;}
	.st22{fill:none;stroke:#011E41;stroke-width:15.0584;stroke-miterlimit:10;}
	.st23{fill:none;stroke:#011E41;stroke-width:15.1473;stroke-miterlimit:10;}
	.st24{fill:none;stroke:#011E41;stroke-width:16.5604;stroke-miterlimit:10;}
	.st25{fill:none;stroke:#011E41;stroke-width:14.3418;stroke-miterlimit:10;}
	.st26{fill:none;stroke:#011E41;stroke-width:15.8515;stroke-miterlimit:10;}
	.st27{fill:#F53340;}
</style>
<g id="Icons">
</g>
<g id="Text">
	<polyline class="st1" points="357.32,65.76 412.78,65.76 412.78,413.35 125.84,413.35 	"/>
	<line class="st1" x1="152.46" y1="65.76" x2="333.76" y2="65.76"/>
	<polyline class="st1" points="110.18,413.35 70.55,413.35 70.55,65.76 128.9,65.76 	"/>
	<polyline class="st1" points="412.78,85.51 437.6,85.51 437.6,438.66 86.2,438.66 86.2,413.35 	"/>
	<g>
		<rect x="128.9" y="41.86" class="st1" width="23.57" height="47.79"/>
		<rect x="333.76" y="41.86" class="st1" width="23.57" height="47.79"/>
	</g>
	<g>
		<rect x="113.01" y="284.65" class="st1" width="33.66" height="26.79"/>
		<rect x="185.08" y="284.65" class="st1" width="33.66" height="26.79"/>
		<rect x="257.16" y="227.21" class="st1" width="33.66" height="26.79"/>
		<rect x="257.16" y="284.65" class="st1" width="33.66" height="26.79"/>
		<rect x="113.01" y="342.3" class="st1" width="33.66" height="26.79"/>
		<rect x="185.08" y="342.3" class="st1" width="33.66" height="26.79"/>
		<rect x="257.16" y="342.89" class="st1" width="33.66" height="26.79"/>
		<rect x="113.01" y="169.37" class="st1" width="33.66" height="26.79"/>
		<rect x="113.01" y="227.01" class="st1" width="33.66" height="26.79"/>
		<rect x="185.08" y="169.37" class="st1" width="33.66" height="26.79"/>
		<rect x="185.08" y="227.01" class="st1" width="33.66" height="26.79"/>
		<rect x="257.16" y="169.37" class="st1" width="33.66" height="26.79"/>
		<rect x="329.23" y="169.37" class="st1" width="33.66" height="26.79"/>
		<rect x="329.23" y="227.01" class="st1" width="33.66" height="26.79"/>
		<rect x="329.23" y="284.65" class="st1" width="33.66" height="26.79"/>
	</g>
	<line class="st1" x1="310.68" y1="122.17" x2="412.78" y2="122.17"/>
	<line class="st1" x1="70.55" y1="122.17" x2="295.05" y2="122.17"/>
	<polygon class="st1" points="353.8,386.93 388.95,351.78 353.8,351.78 	"/>
	<polygon class="st0" points="399.02,362.77 363.87,397.92 399.02,397.92 	"/>
</g>
</svg>
