<?xml version="1.0" encoding="utf-8"?>
<!-- Generator: Adobe Illustrator 26.0.1, SVG Export Plug-In . SVG Version: 6.00 Build 0)  -->
<svg version="1.1" xmlns="http://www.w3.org/2000/svg" xmlns:xlink="http://www.w3.org/1999/xlink" x="0px" y="0px"
	 viewBox="0 0 500 500" style="enable-background:new 0 0 500 500;" xml:space="preserve">
<style type="text/css">
	.st0{fill:#F5333F;}
	.st1{fill:none;stroke:#011E41;stroke-width:16;stroke-miterlimit:10;}
	.st2{display:none;}
	.st3{display:inline;}
	.st4{fill:none;stroke:#D1D3D4;stroke-width:2;stroke-miterlimit:10;}
	.st5{display:inline;fill:none;stroke:#BCBEC0;stroke-width:4;stroke-miterlimit:10;}
	.st6{fill:none;stroke:#BCBEC0;stroke-width:4;stroke-miterlimit:10;}
	.st7{display:inline;fill:none;stroke:#D1D3D4;stroke-width:2;stroke-miterlimit:10;}
	.st8{display:none;opacity:0.35;fill:none;stroke:#000000;stroke-width:16;stroke-miterlimit:10;}
	.st9{fill:none;stroke:#011E41;stroke-width:16;stroke-linejoin:bevel;stroke-miterlimit:10;}
	.st10{fill:none;stroke:#F5333F;stroke-width:16;stroke-miterlimit:10;}
	.st11{fill:#011E41;}
	.st12{fill:none;stroke:#011E41;stroke-width:16;stroke-linecap:square;stroke-miterlimit:10;}
	.st13{fill:none;stroke:#011E41;stroke-width:16;stroke-linecap:round;stroke-miterlimit:10;}
	.st14{fill:none;stroke:#EF3741;stroke-width:16;stroke-miterlimit:10;}
	.st15{fill:#F5333F;stroke:#011E41;stroke-width:16;stroke-miterlimit:10;}
	.st16{fill:#EF3741;}
	.st17{fill:none;stroke:#011E41;stroke-width:8;stroke-miterlimit:10;}
	.st18{fill:none;stroke:#E73843;stroke-width:16;stroke-miterlimit:10;}
	.st19{fill:none;stroke:#011E41;stroke-width:13.4168;stroke-miterlimit:10;}
	.st20{fill:none;stroke:#011E41;stroke-width:13.8969;stroke-miterlimit:10;}
	.st21{fill:none;stroke:#011E41;stroke-width:14.2064;stroke-miterlimit:10;}
	.st22{fill:none;stroke:#011E41;stroke-width:15.0584;stroke-miterlimit:10;}
	.st23{fill:none;stroke:#011E41;stroke-width:15.1473;stroke-miterlimit:10;}
	.st24{fill:none;stroke:#011E41;stroke-width:16.5604;stroke-miterlimit:10;}
	.st25{fill:none;stroke:#011E41;stroke-width:14.3418;stroke-miterlimit:10;}
	.st26{fill:none;stroke:#011E41;stroke-width:15.8515;stroke-miterlimit:10;}
	.st27{fill:#F53340;}
</style>
<g id="Icons">
	<g>
		<polygon class="st16" points="166.14,75.91 166.14,93.41 60.7,93.41 60.7,75.91 30.58,75.91 30.58,227.36 60.7,227.36 60.7,216.5 
			166.14,216.5 166.14,227.36 196.27,227.36 196.27,75.91 		"/>
		<line class="st1" x1="81.95" y1="75.91" x2="181.53" y2="75.91"/>
		<line class="st1" x1="181.53" y1="199" x2="76.09" y2="199"/>
		<path class="st1" d="M212.14,159.09c25.93,0,49.77,9.01,68.53,24.07c14.05,11.28,25.26,25.94,32.4,42.76"/>
		<path class="st1" d="M318.8,243.41c1.91,8.11,2.93,16.56,2.93,25.26"/>
		<path class="st1" d="M37.05,349.63h161.53c-11.48-7.4-17.96-17.29-15.85-26.36c3.26-14.03,25.81-20.78,50.37-15.08
			c2.97,0.69,5.82,1.53,8.55,2.5c-5.22-13.25-3.62-26.25,4.52-30.95c7.35-4.25,17.89-0.48,26.4,8.49c0.18-2.49,0.28-5,0.28-7.53
			c0-41.83-25.16-77.78-61.17-93.54"/>
		<path class="st1" d="M453.77,349.63h-32.1c0,0,27.76-25.07,13.89-42.14c-12.58-15.49-46.9,1.02-46.9,1.02
			c8.44-4.85,12.09-25.12,1.74-35.13c-8.59-8.31-22.98-3.07-29.42,4.9l-0.14-0.18c1.19-6.94,2.53-15.06,2.53-22.34
			c0-69.25-56.13-125.38-125.38-125.38c-9.19,0-18.15,0.99-26.78,2.87"/>
		<path class="st1" d="M391.13,364.3c-39.91,15.88-104.62,15.88-144.53,0"/>
		<path class="st1" d="M444.37,420.9c-69.32,27.59-181.7,27.59-251.02,0"/>
		<path class="st1" d="M422.35,390.9c-57.15,22.75-149.82,22.75-206.97,0"/>
		<path class="st1" d="M438.92,252.55c-5.05,5.05-25.94,11.21-28.54,6.87c-3.67-6.12,5.21-20.1,10.26-25.15s13.23-5.05,18.28,0
			S443.97,247.5,438.92,252.55z"/>
		<path class="st1" d="M218.81,286.3c-2.76,6.58-21.01-3.82-26.06-8.87c-5.05-5.05-5.05-13.23,0-18.28c5.05-5.05,13.23-5.05,18.28,0
			C216.08,264.2,220.37,282.59,218.81,286.3z"/>
		<circle class="st1" cx="117.93" cy="286.3" r="12.93"/>
		<circle class="st1" cx="176.97" cy="390.17" r="12.93"/>
		<path class="st1" d="M165.44,427.72c-9.36,0-16.96-7.59-16.96-16.96"/>
		<path class="st1" d="M340.86,334.75c0-9.36,7.59-16.96,16.96-16.96c9.36,0,16.96,7.59,16.96,16.96"/>
		<path class="st1" d="M110.9,409.76c0,9.36-7.59,16.96-16.96,16.96s-16.96-7.59-16.96-16.96"/>
		<path class="st1" d="M113.42,391.17c0-9.36,7.59-16.96,16.96-16.96"/>
		<rect x="61.9" y="371.64" class="st11" width="16.11" height="16.11"/>
		<rect x="434.65" y="371.64" class="st11" width="16.11" height="16.11"/>
		<rect x="313.78" y="290.24" class="st11" width="16.11" height="16.11"/>
		<rect x="45.97" y="58.41" class="st1" width="30.13" height="151.45"/>
		<rect x="181.53" y="58.41" class="st1" width="30.13" height="151.45"/>
	</g>
</g>
<g id="Text">
</g>
</svg>
