<?xml version="1.0" encoding="utf-8"?>
<!-- Generator: Adobe Illustrator 26.0.1, SVG Export Plug-In . SVG Version: 6.00 Build 0)  -->
<svg version="1.1" xmlns="http://www.w3.org/2000/svg" xmlns:xlink="http://www.w3.org/1999/xlink" x="0px" y="0px"
	 viewBox="0 0 500 500" style="enable-background:new 0 0 500 500;" xml:space="preserve">
<style type="text/css">
	.st0{fill:#F5333F;}
	.st1{fill:none;stroke:#011E41;stroke-width:16;stroke-miterlimit:10;}
	.st2{display:none;}
	.st3{display:inline;}
	.st4{fill:none;stroke:#D1D3D4;stroke-width:2;stroke-miterlimit:10;}
	.st5{display:inline;fill:none;stroke:#BCBEC0;stroke-width:4;stroke-miterlimit:10;}
	.st6{fill:none;stroke:#BCBEC0;stroke-width:4;stroke-miterlimit:10;}
	.st7{display:inline;fill:none;stroke:#D1D3D4;stroke-width:2;stroke-miterlimit:10;}
	.st8{display:none;opacity:0.35;fill:none;stroke:#000000;stroke-width:16;stroke-miterlimit:10;}
	.st9{fill:none;stroke:#011E41;stroke-width:16;stroke-linejoin:bevel;stroke-miterlimit:10;}
	.st10{fill:none;stroke:#F5333F;stroke-width:16;stroke-miterlimit:10;}
	.st11{fill:#011E41;}
	.st12{fill:none;stroke:#011E41;stroke-width:16;stroke-linecap:square;stroke-miterlimit:10;}
	.st13{fill:none;stroke:#011E41;stroke-width:16;stroke-linecap:round;stroke-miterlimit:10;}
	.st14{fill:none;stroke:#EF3741;stroke-width:16;stroke-miterlimit:10;}
	.st15{fill:#F5333F;stroke:#011E41;stroke-width:16;stroke-miterlimit:10;}
	.st16{fill:#EF3741;}
	.st17{fill:none;stroke:#011E41;stroke-width:8;stroke-miterlimit:10;}
	.st18{fill:none;stroke:#E73843;stroke-width:16;stroke-miterlimit:10;}
	.st19{fill:none;stroke:#011E41;stroke-width:13.4168;stroke-miterlimit:10;}
	.st20{fill:none;stroke:#011E41;stroke-width:13.8969;stroke-miterlimit:10;}
	.st21{fill:none;stroke:#011E41;stroke-width:14.2064;stroke-miterlimit:10;}
	.st22{fill:none;stroke:#011E41;stroke-width:15.0584;stroke-miterlimit:10;}
	.st23{fill:none;stroke:#011E41;stroke-width:15.1473;stroke-miterlimit:10;}
	.st24{fill:none;stroke:#011E41;stroke-width:16.5604;stroke-miterlimit:10;}
	.st25{fill:none;stroke:#011E41;stroke-width:14.3418;stroke-miterlimit:10;}
	.st26{fill:none;stroke:#011E41;stroke-width:15.8515;stroke-miterlimit:10;}
	.st27{fill:#F53340;}
</style>
<g id="Icons">
	<g>
		<circle class="st0" cx="230" cy="262.5" r="146.1"/>
		<path class="st1" d="M347.24,351.53c-55.31-49.41-139.18-49.41-194.48,0"/>
		<g>
			<line class="st1" x1="359.82" y1="242.5" x2="397.27" y2="242.5"/>
		</g>
		<g>
			<line class="st1" x1="103.9" y1="242.5" x2="141.36" y2="242.5"/>
		</g>
		<line class="st1" x1="250" y1="212.45" x2="250" y2="91.4"/>
		<line class="st1" x1="250" y1="383.1" x2="250" y2="276.98"/>
		<path class="st1" d="M152.76,133.47c55.31,49.41,139.18,49.41,194.48,0"/>
		<circle class="st1" cx="250" cy="242.5" r="146.1"/>
		<polyline class="st1" points="219.66,219.73 238.81,249.28 250.26,230.78 261.7,249.28 280.08,219.73 		"/>
		<polyline class="st1" points="144.7,219.73 163.85,249.28 175.3,230.78 186.74,249.28 205.12,219.73 		"/>
		<polyline class="st1" points="294.62,219.73 313.77,249.28 325.22,230.78 336.66,249.28 355.04,219.73 		"/>
		<g>
			<path class="st1" d="M328.71,212.45c-3.09-26.84-10.36-52.42-21.83-73.26c-31.41-57.05-82.34-57.05-113.76,0
				c-11.47,20.84-18.74,46.42-21.83,73.26"/>
			<path class="st1" d="M171.83,276.98c3.36,25.22,10.45,49.14,21.3,68.83c31.41,57.06,82.34,57.06,113.76,0
				c10.84-19.69,17.94-43.61,21.3-68.83"/>
		</g>
	</g>
</g>
<g id="Text">
</g>
</svg>
