<?xml version="1.0" encoding="utf-8"?>
<!-- Generator: Adobe Illustrator 26.0.1, SVG Export Plug-In . SVG Version: 6.00 Build 0)  -->
<svg version="1.1" xmlns="http://www.w3.org/2000/svg" xmlns:xlink="http://www.w3.org/1999/xlink" x="0px" y="0px"
	 viewBox="0 0 500 500" style="enable-background:new 0 0 500 500;" xml:space="preserve">
<style type="text/css">
	.st0{fill:#F5333F;}
	.st1{fill:none;stroke:#011E41;stroke-width:16;stroke-miterlimit:10;}
	.st2{display:none;}
	.st3{display:inline;}
	.st4{fill:none;stroke:#D1D3D4;stroke-width:2;stroke-miterlimit:10;}
	.st5{display:inline;fill:none;stroke:#BCBEC0;stroke-width:4;stroke-miterlimit:10;}
	.st6{fill:none;stroke:#BCBEC0;stroke-width:4;stroke-miterlimit:10;}
	.st7{display:inline;fill:none;stroke:#D1D3D4;stroke-width:2;stroke-miterlimit:10;}
	.st8{display:none;opacity:0.35;fill:none;stroke:#000000;stroke-width:16;stroke-miterlimit:10;}
	.st9{fill:none;stroke:#011E41;stroke-width:16;stroke-linejoin:bevel;stroke-miterlimit:10;}
	.st10{fill:none;stroke:#F5333F;stroke-width:16;stroke-miterlimit:10;}
	.st11{fill:#011E41;}
	.st12{fill:none;stroke:#011E41;stroke-width:16;stroke-linecap:square;stroke-miterlimit:10;}
	.st13{fill:none;stroke:#011E41;stroke-width:16;stroke-linecap:round;stroke-miterlimit:10;}
	.st14{fill:none;stroke:#EF3741;stroke-width:16;stroke-miterlimit:10;}
	.st15{fill:#F5333F;stroke:#011E41;stroke-width:16;stroke-miterlimit:10;}
	.st16{fill:#EF3741;}
	.st17{fill:none;stroke:#011E41;stroke-width:8;stroke-miterlimit:10;}
	.st18{fill:none;stroke:#E73843;stroke-width:16;stroke-miterlimit:10;}
	.st19{fill:none;stroke:#011E41;stroke-width:13.4168;stroke-miterlimit:10;}
	.st20{fill:none;stroke:#011E41;stroke-width:13.8969;stroke-miterlimit:10;}
	.st21{fill:none;stroke:#011E41;stroke-width:14.2064;stroke-miterlimit:10;}
	.st22{fill:none;stroke:#011E41;stroke-width:15.0584;stroke-miterlimit:10;}
	.st23{fill:none;stroke:#011E41;stroke-width:15.1473;stroke-miterlimit:10;}
	.st24{fill:none;stroke:#011E41;stroke-width:16.5604;stroke-miterlimit:10;}
	.st25{fill:none;stroke:#011E41;stroke-width:14.3418;stroke-miterlimit:10;}
	.st26{fill:none;stroke:#011E41;stroke-width:15.8515;stroke-miterlimit:10;}
	.st27{fill:#F53340;}
</style>
<g id="Icons">
	<g>
		<path class="st0" d="M289.51,83.84l-35.26,5.6c-15.98,2.54-27.74,16.31-27.74,32.49v60.24c0,16.18,11.76,29.95,27.74,32.49
			l35.26,5.6c13.71,9.85,30.49,15.7,48.65,15.76c45.46,0.15,83.19-36.55,84.22-82c1.08-47.26-36.92-85.92-83.94-85.92
			C320.18,68.09,303.29,73.94,289.51,83.84z"/>
		<path class="st0" d="M189.76,319.02l-5.6-35.26c-2.54-15.98-16.31-27.74-32.49-27.74H91.43c-16.18,0-29.95,11.76-32.49,27.74
			l-5.6,35.26c-9.85,13.71-15.7,30.49-15.76,48.65c-0.15,45.46,36.55,83.19,82,84.22c47.26,1.08,85.92-36.92,85.92-83.94
			C205.51,349.69,199.66,332.8,189.76,319.02z"/>
		<g>
			<g>
				<circle class="st1" cx="141.54" cy="413.92" r="17.99"/>
				<circle class="st1" cx="170.65" cy="268" r="11.99"/>
				<circle class="st1" cx="141.54" cy="347.96" r="47.98"/>
				<path class="st1" d="M209.76,299.02l-5.6-35.26c-2.54-15.98-16.31-27.74-32.49-27.74h-60.24c-16.18,0-29.95,11.76-32.49,27.74
					l-5.6,35.26c-9.85,13.71-15.7,30.49-15.76,48.65c-0.15,45.46,36.55,83.19,82,84.22c47.26,1.08,85.92-36.92,85.92-83.94
					C225.51,329.69,219.66,312.8,209.76,299.02z"/>
				<line class="st1" x1="209.76" y1="299.98" x2="141.54" y2="299.98"/>
			</g>
			<line class="st1" x1="141.54" y1="236.02" x2="141.54" y2="210.04"/>
			<line class="st1" x1="141.54" y1="175.04" x2="141.54" y2="149.06"/>
			<circle class="st1" cx="141.55" cy="192.05" r="17.99"/>
			<g>
				<circle class="st1" cx="424.41" cy="132.06" r="17.99"/>
				<circle class="st1" cx="278.49" cy="102.95" r="11.99"/>
				<circle class="st1" cx="358.45" cy="132.06" r="47.98"/>
				<path class="st1" d="M309.51,63.84l-35.26,5.6c-15.98,2.54-27.74,16.31-27.74,32.49v60.24c0,16.18,11.76,29.95,27.74,32.49
					l35.26,5.6c13.71,9.85,30.49,15.7,48.65,15.76c45.46,0.15,83.19-36.55,84.22-82c1.08-47.26-36.92-85.92-83.94-85.92
					C340.18,48.09,323.29,53.94,309.51,63.84z"/>
				<line class="st1" x1="310.47" y1="63.84" x2="310.47" y2="132.06"/>
			</g>
			<line class="st1" x1="246.51" y1="132.06" x2="220.53" y2="132.06"/>
			<line class="st1" x1="185.53" y1="132.06" x2="159.55" y2="132.06"/>
			<circle class="st1" cx="202.54" cy="132.04" r="17.99"/>
			<circle class="st1" cx="141.55" cy="132.04" r="17.99"/>
		</g>
	</g>
</g>
<g id="Text">
</g>
</svg>
