<?xml version="1.0" encoding="utf-8"?>
<!-- Generator: Adobe Illustrator 26.0.1, SVG Export Plug-In . SVG Version: 6.00 Build 0)  -->
<svg version="1.1" xmlns="http://www.w3.org/2000/svg" xmlns:xlink="http://www.w3.org/1999/xlink" x="0px" y="0px"
	 viewBox="0 0 500 500" style="enable-background:new 0 0 500 500;" xml:space="preserve">
<style type="text/css">
	.st0{fill:#F5333F;}
	.st1{fill:none;stroke:#011E41;stroke-width:16;stroke-miterlimit:10;}
	.st2{display:none;}
	.st3{display:inline;}
	.st4{fill:none;stroke:#D1D3D4;stroke-width:2;stroke-miterlimit:10;}
	.st5{display:inline;fill:none;stroke:#BCBEC0;stroke-width:4;stroke-miterlimit:10;}
	.st6{fill:none;stroke:#BCBEC0;stroke-width:4;stroke-miterlimit:10;}
	.st7{display:inline;fill:none;stroke:#D1D3D4;stroke-width:2;stroke-miterlimit:10;}
	.st8{display:none;opacity:0.35;fill:none;stroke:#000000;stroke-width:16;stroke-miterlimit:10;}
	.st9{fill:none;stroke:#011E41;stroke-width:16;stroke-linejoin:bevel;stroke-miterlimit:10;}
	.st10{fill:none;stroke:#F5333F;stroke-width:16;stroke-miterlimit:10;}
	.st11{fill:#011E41;}
	.st12{fill:none;stroke:#011E41;stroke-width:16;stroke-linecap:square;stroke-miterlimit:10;}
	.st13{fill:none;stroke:#011E41;stroke-width:16;stroke-linecap:round;stroke-miterlimit:10;}
	.st14{fill:none;stroke:#EF3741;stroke-width:16;stroke-miterlimit:10;}
	.st15{fill:#F5333F;stroke:#011E41;stroke-width:16;stroke-miterlimit:10;}
	.st16{fill:#EF3741;}
	.st17{fill:none;stroke:#011E41;stroke-width:8;stroke-miterlimit:10;}
	.st18{fill:none;stroke:#E73843;stroke-width:16;stroke-miterlimit:10;}
	.st19{fill:none;stroke:#011E41;stroke-width:13.4168;stroke-miterlimit:10;}
	.st20{fill:none;stroke:#011E41;stroke-width:13.8969;stroke-miterlimit:10;}
	.st21{fill:none;stroke:#011E41;stroke-width:14.2064;stroke-miterlimit:10;}
	.st22{fill:none;stroke:#011E41;stroke-width:15.0584;stroke-miterlimit:10;}
	.st23{fill:none;stroke:#011E41;stroke-width:15.1473;stroke-miterlimit:10;}
	.st24{fill:none;stroke:#011E41;stroke-width:16.5604;stroke-miterlimit:10;}
	.st25{fill:none;stroke:#011E41;stroke-width:14.3418;stroke-miterlimit:10;}
	.st26{fill:none;stroke:#011E41;stroke-width:15.8515;stroke-miterlimit:10;}
	.st27{fill:#F53340;}
</style>
<g id="Icons">
	<g>
		<path class="st1" d="M140.28,316.96c-37.13,0-67.32-30.21-67.32-67.32s30.19-67.32,67.32-67.32s67.33,30.21,67.33,67.32
			C207.61,286.75,177.41,316.96,140.28,316.96L140.28,316.96z"/>
		<path class="st1" d="M359.87,208.08c-37.13,0-67.32-30.21-67.32-67.32c0-37.12,30.19-67.32,67.32-67.32s67.33,30.21,67.33,67.32
			C427.2,177.87,397,208.08,359.87,208.08L359.87,208.08z"/>
		<path class="st1" d="M359.92,426.57c-37.13,0-67.32-30.21-67.32-67.32c0-37.12,30.19-67.32,67.32-67.32s67.33,30.21,67.33,67.32
			C427.24,396.36,397.05,426.57,359.92,426.57L359.92,426.57z"/>
		<line class="st1" x1="200.54" y1="279.53" x2="300.83" y2="329.69"/>
		<line class="st1" x1="200.1" y1="219.34" x2="299.9" y2="168.22"/>
		<path class="st0" d="M140.29,284.41c-19.18,0-34.78-15.6-34.78-34.78s15.6-34.78,34.78-34.78s34.78,15.61,34.78,34.78
			C175.07,268.81,159.47,284.41,140.29,284.41L140.29,284.41z"/>
		<path class="st0" d="M359.87,175.53c-19.18,0-34.78-15.6-34.78-34.78c0-19.17,15.6-34.78,34.78-34.78
			c19.18,0,34.78,15.61,34.78,34.78C394.65,159.93,379.05,175.53,359.87,175.53L359.87,175.53z"/>
		<path class="st0" d="M359.92,394.02c-19.18,0-34.78-15.6-34.78-34.78s15.6-34.78,34.78-34.78c19.18,0,34.78,15.61,34.78,34.78
			C394.7,378.42,379.1,394.02,359.92,394.02L359.92,394.02z"/>
	</g>
</g>
<g id="Text">
</g>
</svg>
