<?xml version="1.0" encoding="utf-8"?>
<!-- Generator: Adobe Illustrator 26.0.1, SVG Export Plug-In . SVG Version: 6.00 Build 0)  -->
<svg version="1.1" xmlns="http://www.w3.org/2000/svg" xmlns:xlink="http://www.w3.org/1999/xlink" x="0px" y="0px"
	 viewBox="0 0 500 500" style="enable-background:new 0 0 500 500;" xml:space="preserve">
<style type="text/css">
	.st0{fill:#F5333F;}
	.st1{fill:none;stroke:#011E41;stroke-width:16;stroke-miterlimit:10;}
	.st2{display:none;}
	.st3{display:inline;}
	.st4{fill:none;stroke:#D1D3D4;stroke-width:2;stroke-miterlimit:10;}
	.st5{display:inline;fill:none;stroke:#BCBEC0;stroke-width:4;stroke-miterlimit:10;}
	.st6{fill:none;stroke:#BCBEC0;stroke-width:4;stroke-miterlimit:10;}
	.st7{display:inline;fill:none;stroke:#D1D3D4;stroke-width:2;stroke-miterlimit:10;}
	.st8{display:none;opacity:0.35;fill:none;stroke:#000000;stroke-width:16;stroke-miterlimit:10;}
	.st9{fill:none;stroke:#011E41;stroke-width:16;stroke-linejoin:bevel;stroke-miterlimit:10;}
	.st10{fill:none;stroke:#F5333F;stroke-width:16;stroke-miterlimit:10;}
	.st11{fill:#011E41;}
	.st12{fill:none;stroke:#011E41;stroke-width:16;stroke-linecap:square;stroke-miterlimit:10;}
	.st13{fill:none;stroke:#011E41;stroke-width:16;stroke-linecap:round;stroke-miterlimit:10;}
	.st14{fill:none;stroke:#EF3741;stroke-width:16;stroke-miterlimit:10;}
	.st15{fill:#F5333F;stroke:#011E41;stroke-width:16;stroke-miterlimit:10;}
	.st16{fill:#EF3741;}
	.st17{fill:none;stroke:#011E41;stroke-width:8;stroke-miterlimit:10;}
	.st18{fill:none;stroke:#E73843;stroke-width:16;stroke-miterlimit:10;}
	.st19{fill:none;stroke:#011E41;stroke-width:13.4168;stroke-miterlimit:10;}
	.st20{fill:none;stroke:#011E41;stroke-width:13.8969;stroke-miterlimit:10;}
	.st21{fill:none;stroke:#011E41;stroke-width:14.2064;stroke-miterlimit:10;}
	.st22{fill:none;stroke:#011E41;stroke-width:15.0584;stroke-miterlimit:10;}
	.st23{fill:none;stroke:#011E41;stroke-width:15.1473;stroke-miterlimit:10;}
	.st24{fill:none;stroke:#011E41;stroke-width:16.5604;stroke-miterlimit:10;}
	.st25{fill:none;stroke:#011E41;stroke-width:14.3418;stroke-miterlimit:10;}
	.st26{fill:none;stroke:#011E41;stroke-width:15.8515;stroke-miterlimit:10;}
	.st27{fill:#F53340;}
</style>
<g id="Icons">
	<path class="st0" d="M350.9,328.72c13.24,0,23.98,10.73,23.98,23.98v0c0,13.24-10.73,23.98-23.98,23.98H123.93
		c-13.24,0-23.98-10.73-23.98-23.98v0c0-13.24,10.73-23.98,23.98-23.98"/>
	<path class="st1" d="M124.75,283.64v-41c0-62.22,50.44-112.66,112.66-112.66s112.66,50.44,112.66,112.66v41"/>
	<path class="st1" d="M149.53,354.19c-15.52-19.31-24.81-43.85-24.81-70.55c0-62.24,50.46-112.7,112.7-112.7
		s112.7,50.46,112.7,112.7c0,26.71-9.29,51.24-24.81,70.55"/>
	<circle class="st1" cx="237.41" cy="283.64" r="70.55"/>
	<path class="st1" d="M350.9,305.72c13.24,0,23.98,10.73,23.98,23.98v0c0,13.24-10.73,23.98-23.98,23.98H123.93
		c-13.24,0-23.98-10.73-23.98-23.98v0c0-13.24,10.73-23.98,23.98-23.98"/>
	<line class="st1" x1="253.94" y1="129.97" x2="253.94" y2="170.94"/>
	<line class="st1" x1="285.2" y1="138.77" x2="285.2" y2="179.73"/>
	<line class="st1" x1="316.46" y1="163.32" x2="316.46" y2="204.28"/>
	<line class="st1" x1="222.68" y1="129.97" x2="222.68" y2="170.94"/>
	<line class="st1" x1="191.43" y1="138.77" x2="191.43" y2="179.73"/>
	<line class="st1" x1="160.17" y1="163.32" x2="160.17" y2="204.28"/>
</g>
<g id="Text">
</g>
</svg>
