<?xml version="1.0" encoding="utf-8"?>
<!-- Generator: Adobe Illustrator 26.0.1, SVG Export Plug-In . SVG Version: 6.00 Build 0)  -->
<svg version="1.1" xmlns="http://www.w3.org/2000/svg" xmlns:xlink="http://www.w3.org/1999/xlink" x="0px" y="0px"
	 viewBox="0 0 500 500" style="enable-background:new 0 0 500 500;" xml:space="preserve">
<style type="text/css">
	.st0{fill:#F5333F;}
	.st1{fill:none;stroke:#011E41;stroke-width:16;stroke-miterlimit:10;}
	.st2{display:none;}
	.st3{display:inline;}
	.st4{fill:none;stroke:#D1D3D4;stroke-width:2;stroke-miterlimit:10;}
	.st5{display:inline;fill:none;stroke:#BCBEC0;stroke-width:4;stroke-miterlimit:10;}
	.st6{fill:none;stroke:#BCBEC0;stroke-width:4;stroke-miterlimit:10;}
	.st7{display:inline;fill:none;stroke:#D1D3D4;stroke-width:2;stroke-miterlimit:10;}
	.st8{display:none;opacity:0.35;fill:none;stroke:#000000;stroke-width:16;stroke-miterlimit:10;}
	.st9{fill:none;stroke:#011E41;stroke-width:16;stroke-linejoin:bevel;stroke-miterlimit:10;}
	.st10{fill:none;stroke:#F5333F;stroke-width:16;stroke-miterlimit:10;}
	.st11{fill:#011E41;}
	.st12{fill:none;stroke:#011E41;stroke-width:16;stroke-linecap:square;stroke-miterlimit:10;}
	.st13{fill:none;stroke:#011E41;stroke-width:16;stroke-linecap:round;stroke-miterlimit:10;}
	.st14{fill:none;stroke:#EF3741;stroke-width:16;stroke-miterlimit:10;}
	.st15{fill:#F5333F;stroke:#011E41;stroke-width:16;stroke-miterlimit:10;}
	.st16{fill:#EF3741;}
	.st17{fill:none;stroke:#011E41;stroke-width:8;stroke-miterlimit:10;}
	.st18{fill:none;stroke:#E73843;stroke-width:16;stroke-miterlimit:10;}
	.st19{fill:none;stroke:#011E41;stroke-width:13.4168;stroke-miterlimit:10;}
	.st20{fill:none;stroke:#011E41;stroke-width:13.8969;stroke-miterlimit:10;}
	.st21{fill:none;stroke:#011E41;stroke-width:14.2064;stroke-miterlimit:10;}
	.st22{fill:none;stroke:#011E41;stroke-width:15.0584;stroke-miterlimit:10;}
	.st23{fill:none;stroke:#011E41;stroke-width:15.1473;stroke-miterlimit:10;}
	.st24{fill:none;stroke:#011E41;stroke-width:16.5604;stroke-miterlimit:10;}
	.st25{fill:none;stroke:#011E41;stroke-width:14.3418;stroke-miterlimit:10;}
	.st26{fill:none;stroke:#011E41;stroke-width:15.8515;stroke-miterlimit:10;}
	.st27{fill:#F53340;}
</style>
<g id="Icons">
	<g>
		<polygon class="st0" points="296.99,338.69 296.99,263.13 162.14,338.69 162.14,263.13 26.96,338.9 26.96,464.08 161.81,464.08 
			162.14,464.08 296.66,464.08 296.99,464.08 431.84,464.08 431.84,263.13 		"/>
		<g>
			<rect x="85.27" y="355.71" class="st1" width="32.29" height="32.29"/>
			<rect x="159.83" y="355.71" class="st1" width="32.29" height="32.29"/>
			<rect x="234.38" y="355.71" class="st1" width="32.29" height="32.29"/>
			<rect x="308.94" y="355.71" class="st1" width="32.29" height="32.29"/>
			<rect x="383.5" y="355.71" class="st1" width="32.29" height="32.29"/>
		</g>
		<g>
			<polyline class="st1" points="117.56,264.33 117.56,157.75 85.27,157.75 85.27,282.43 			"/>
			<polyline class="st1" points="266.68,256.32 266.68,157.75 234.38,157.75 234.38,274.42 			"/>
			<polyline class="st1" points="415.79,248.33 415.79,157.75 383.5,157.75 383.5,266.43 			"/>
		</g>
		<path class="st1" d="M85.27,157.75v-10.48c0-17.83,14.46-32.29,32.29-32.29h0v0c0-19.87,16.11-35.98,35.98-35.98h24.36v0
			c0-19.87,16.11-35.98,35.98-35.98h243.76"/>
		<path class="st1" d="M117.56,157.75L117.56,157.75c0-10.37,8.41-18.78,18.78-18.78h15.64c13.25,0,23.99-10.74,23.99-23.99v0h30.54
			c15.39,0,27.87-12.48,27.87-27.87V79"/>
		<path class="st1" d="M234.38,157.75v-3.3c0-21.8,17.67-39.48,39.48-39.48h0v0c0-19.87,16.11-35.98,35.98-35.98h0v0
			c0-19.87,16.11-35.98,35.98-35.98h131.94"/>
		<path class="st1" d="M266.68,157.75L266.68,157.75c0-10.37,8.41-18.78,18.78-18.78h5.66c16.96,0,30.72-13.75,30.72-30.72v0"/>
		<path class="st1" d="M376.07,84.8v7.95c0,18.91-15.33,34.23-34.23,34.23h-30"/>
		<path class="st1" d="M383.5,157.75v-8.48c0-18.94,15.35-34.29,34.29-34.29h0v0c0-19.87,16.11-35.98,35.98-35.98h23.99"/>
		<path class="st1" d="M415.79,157.75L415.79,157.75c0-10.37,8.41-18.78,18.78-18.78h0c9.5,0,17.21-7.7,17.21-17.21v0
			c0-7.46,6.05-13.51,13.51-13.51h12.47"/>
		<line class="st1" x1="417.79" y1="100.39" x2="373.2" y2="100.39"/>
		<rect x="174.1" y="150.66" class="st0" width="14.19" height="14.19"/>
		<rect x="201.89" y="134.59" class="st0" width="14.19" height="14.19"/>
		<rect x="171.33" y="181.31" class="st0" width="14.19" height="14.19"/>
		<rect x="146.3" y="199.66" class="st0" width="14.19" height="14.19"/>
		<rect x="146.3" y="162.96" class="st0" width="14.19" height="14.19"/>
		<rect x="103.38" y="59.59" class="st0" width="14.19" height="14.19"/>
		<rect x="77.03" y="35.92" class="st0" width="14.19" height="14.19"/>
		<rect x="129.73" y="35.92" class="st0" width="14.19" height="14.19"/>
		<rect x="77.03" y="83.25" class="st0" width="14.19" height="14.19"/>
		<rect x="317.99" y="150.66" class="st0" width="14.19" height="14.19"/>
		<rect x="345.79" y="199.66" class="st0" width="14.19" height="14.19"/>
		<rect x="315.22" y="181.31" class="st0" width="14.19" height="14.19"/>
		<rect x="290.2" y="199.66" class="st0" width="14.19" height="14.19"/>
		<rect x="290.2" y="162.96" class="st0" width="14.19" height="14.19"/>
		<rect x="345.79" y="162.96" class="st0" width="14.19" height="14.19"/>
		<rect x="462.07" y="177.31" class="st0" width="14.19" height="14.19"/>
		<rect x="437.04" y="195.66" class="st0" width="14.19" height="14.19"/>
		<rect x="437.04" y="158.96" class="st0" width="14.19" height="14.19"/>
		<polygon class="st1" points="316.99,303.69 316.99,228.13 182.14,303.69 182.14,228.13 46.96,303.9 46.96,429.08 181.81,429.08 
			182.14,429.08 316.66,429.08 316.99,429.08 451.84,429.08 451.84,228.13 		"/>
	</g>
</g>
<g id="Text">
</g>
</svg>
