<?xml version="1.0" encoding="utf-8"?>
<!-- Generator: Adobe Illustrator 26.0.1, SVG Export Plug-In . SVG Version: 6.00 Build 0)  -->
<svg version="1.1" xmlns="http://www.w3.org/2000/svg" xmlns:xlink="http://www.w3.org/1999/xlink" x="0px" y="0px"
	 viewBox="0 0 500 500" style="enable-background:new 0 0 500 500;" xml:space="preserve">
<style type="text/css">
	.st0{fill:#F5333F;}
	.st1{fill:none;stroke:#011E41;stroke-width:16;stroke-miterlimit:10;}
	.st2{display:none;}
	.st3{display:inline;}
	.st4{fill:none;stroke:#D1D3D4;stroke-width:2;stroke-miterlimit:10;}
	.st5{display:inline;fill:none;stroke:#BCBEC0;stroke-width:4;stroke-miterlimit:10;}
	.st6{fill:none;stroke:#BCBEC0;stroke-width:4;stroke-miterlimit:10;}
	.st7{display:inline;fill:none;stroke:#D1D3D4;stroke-width:2;stroke-miterlimit:10;}
	.st8{display:none;opacity:0.35;fill:none;stroke:#000000;stroke-width:16;stroke-miterlimit:10;}
	.st9{fill:none;stroke:#011E41;stroke-width:16;stroke-linejoin:bevel;stroke-miterlimit:10;}
	.st10{fill:none;stroke:#F5333F;stroke-width:16;stroke-miterlimit:10;}
	.st11{fill:#011E41;}
	.st12{fill:none;stroke:#011E41;stroke-width:16;stroke-linecap:square;stroke-miterlimit:10;}
	.st13{fill:none;stroke:#011E41;stroke-width:16;stroke-linecap:round;stroke-miterlimit:10;}
	.st14{fill:none;stroke:#EF3741;stroke-width:16;stroke-miterlimit:10;}
	.st15{fill:#F5333F;stroke:#011E41;stroke-width:16;stroke-miterlimit:10;}
	.st16{fill:#EF3741;}
	.st17{fill:none;stroke:#011E41;stroke-width:8;stroke-miterlimit:10;}
	.st18{fill:none;stroke:#E73843;stroke-width:16;stroke-miterlimit:10;}
	.st19{fill:none;stroke:#011E41;stroke-width:13.4168;stroke-miterlimit:10;}
	.st20{fill:none;stroke:#011E41;stroke-width:13.8969;stroke-miterlimit:10;}
	.st21{fill:none;stroke:#011E41;stroke-width:14.2064;stroke-miterlimit:10;}
	.st22{fill:none;stroke:#011E41;stroke-width:15.0584;stroke-miterlimit:10;}
	.st23{fill:none;stroke:#011E41;stroke-width:15.1473;stroke-miterlimit:10;}
	.st24{fill:none;stroke:#011E41;stroke-width:16.5604;stroke-miterlimit:10;}
	.st25{fill:none;stroke:#011E41;stroke-width:14.3418;stroke-miterlimit:10;}
	.st26{fill:none;stroke:#011E41;stroke-width:15.8515;stroke-miterlimit:10;}
	.st27{fill:#F53340;}
</style>
<g id="Icons">
</g>
<g id="Text">
	<g>
		<circle class="st0" cx="250" cy="250" r="102.76"/>
		<circle class="st1" cx="250" cy="250" r="191.91"/>
		<path class="st25" d="M181.55,285.94h40.6l10.92,9.03l20.52,1.03l32.08,9.81l-0.75,5.08l36.55,27.7l3.07,0.42
			c5.46,0.74,7.41,7.65,3.13,11.13l0,0c-6.63,2.73-16.45,6.41-16.45,12.67c0,6.25,5.24,10.67,3.93,12.5
			c-1.31,1.84-9.17,8.46-9.17,8.46l-8.51,7.64l-7.86,6.34l-1.96,4.41c0,0-1.66,10.3-25.06,12.87c-23.4,2.57-27.33-24.95-29.95-28.11
			c-2.62-3.16-2.62-11.25,1.31-16.4c3.93-5.15-10.64-8.77-14.57-12.82c-3.93-4.05,4.09-13.46-3.77-14.3s-22.92,0.52-34.05,0.15
			c-11.13-0.37-29.43-6.01-29.42-29.75C152.13,307.91,181.55,285.94,181.55,285.94z"/>
		<line class="st23" x1="346.82" y1="373.02" x2="331.05" y2="396.47"/>
		<polyline class="st25" points="250,58.09 239.45,71.09 192.53,80.21 152.13,116.05 128.02,116.05 86.32,175.4 110.43,198.8 
			140.11,142.9 99.83,155.15 		"/>
		<polygon class="st25" points="229.02,123.87 188.62,173.62 145.62,175.4 190.06,123.01 197.53,84.21 219.9,123.87 		"/>
		<line class="st25" x1="193.06" y1="107.43" x2="140.11" y2="142.9"/>
		<line class="st25" x1="250" y1="142.9" x2="240.1" y2="157.75"/>
		<line class="st25" x1="193.06" y1="190.33" x2="178.85" y2="190.33"/>
		<polyline class="st25" points="201,219 196.44,224.86 201,240.5 		"/>
		<line class="st25" x1="182.11" y1="226.82" x2="182.11" y2="235.94"/>
		<line class="st25" x1="287.01" y1="118.66" x2="287.01" y2="127.78"/>
		<polyline class="st25" points="219.81,218 234.88,212.48 257.04,184.47 277.89,190.33 		"/>
		<polyline class="st25" points="254.43,215.74 262.9,206.62 262.9,190.33 		"/>
		<path class="st25" d="M406.9,290.67l-2.61-24.76l9.12-29.97l17.59-4.56v-15.64l-10.43-5.86l-5.86-39.09l-20.85-13.68
			c0,0,0,0,0-9.77c0-9.77-26.11-46.87-26.11-46.87l-12.98,10.38c0,0-33.23-24.11-46.91-30.62c-13.68-6.52-44.96-7.82-44.96-7.82"/>
		<polyline class="st25" points="188.85,260.7 174.94,273.73 187.32,279.94 205.56,260.7 201,250 229.02,243.11 254.43,240.5 
			302,172.09 322.85,169.48 303.95,118.66 		"/>
		<polyline class="st25" points="307.86,80.21 307.86,93.25 322.85,107.43 315.35,138.86 		"/>
		<polyline class="st25" points="397.13,285.94 389.96,267.87 378.23,267.87 346.96,285.94 331.05,280.25 		"/>
		<polyline class="st25" points="364.09,293.93 346.82,303.71 322.85,285.94 		"/>
		<polyline class="st25" points="272.02,280.25 294.18,273.08 315.35,267.87 298.09,246.37 277.89,252.88 258.67,272.43 
			258.67,285.94 		"/>
		<polyline class="st25" points="205.56,260.7 229.02,260.7 240.1,260.7 258.67,272.43 		"/>
		<line class="st25" x1="241.49" y1="284.94" x2="223.81" y2="260.7"/>
		<polyline class="st25" points="285.66,305.81 300.04,290.67 300.04,276.9 		"/>
		<polyline class="st25" points="346.82,303.71 328.06,325.21 300.04,299.15 		"/>
		<line class="st25" x1="350.87" y1="332.55" x2="331.05" y2="339.9"/>
		<polyline class="st25" points="287.01,142.9 285.66,153.84 292.85,167.53 		"/>
		<line class="st25" x1="303.95" y1="155.21" x2="315.35" y2="167.53"/>
	</g>
</g>
</svg>
