<?xml version="1.0" encoding="utf-8"?>
<!-- Generator: Adobe Illustrator 26.0.1, SVG Export Plug-In . SVG Version: 6.00 Build 0)  -->
<svg version="1.1" xmlns="http://www.w3.org/2000/svg" xmlns:xlink="http://www.w3.org/1999/xlink" x="0px" y="0px"
	 viewBox="0 0 500 500" style="enable-background:new 0 0 500 500;" xml:space="preserve">
<style type="text/css">
	.st0{fill:#F5333F;}
	.st1{fill:none;stroke:#011E41;stroke-width:16;stroke-miterlimit:10;}
	.st2{display:none;}
	.st3{display:inline;}
	.st4{fill:none;stroke:#D1D3D4;stroke-width:2;stroke-miterlimit:10;}
	.st5{display:inline;fill:none;stroke:#BCBEC0;stroke-width:4;stroke-miterlimit:10;}
	.st6{fill:none;stroke:#BCBEC0;stroke-width:4;stroke-miterlimit:10;}
	.st7{display:inline;fill:none;stroke:#D1D3D4;stroke-width:2;stroke-miterlimit:10;}
	.st8{display:none;opacity:0.35;fill:none;stroke:#000000;stroke-width:16;stroke-miterlimit:10;}
	.st9{fill:none;stroke:#011E41;stroke-width:16;stroke-linejoin:bevel;stroke-miterlimit:10;}
	.st10{fill:none;stroke:#F5333F;stroke-width:16;stroke-miterlimit:10;}
	.st11{fill:#011E41;}
	.st12{fill:none;stroke:#011E41;stroke-width:16;stroke-linecap:square;stroke-miterlimit:10;}
	.st13{fill:none;stroke:#011E41;stroke-width:16;stroke-linecap:round;stroke-miterlimit:10;}
	.st14{fill:none;stroke:#EF3741;stroke-width:16;stroke-miterlimit:10;}
	.st15{fill:#F5333F;stroke:#011E41;stroke-width:16;stroke-miterlimit:10;}
	.st16{fill:#EF3741;}
	.st17{fill:none;stroke:#011E41;stroke-width:8;stroke-miterlimit:10;}
	.st18{fill:none;stroke:#E73843;stroke-width:16;stroke-miterlimit:10;}
	.st19{fill:none;stroke:#011E41;stroke-width:13.4168;stroke-miterlimit:10;}
	.st20{fill:none;stroke:#011E41;stroke-width:13.8969;stroke-miterlimit:10;}
	.st21{fill:none;stroke:#011E41;stroke-width:14.2064;stroke-miterlimit:10;}
	.st22{fill:none;stroke:#011E41;stroke-width:15.0584;stroke-miterlimit:10;}
	.st23{fill:none;stroke:#011E41;stroke-width:15.1473;stroke-miterlimit:10;}
	.st24{fill:none;stroke:#011E41;stroke-width:16.5604;stroke-miterlimit:10;}
	.st25{fill:none;stroke:#011E41;stroke-width:14.3418;stroke-miterlimit:10;}
	.st26{fill:none;stroke:#011E41;stroke-width:15.8515;stroke-miterlimit:10;}
	.st27{fill:#F53340;}
</style>
<g id="Icons">
	<g>
		<g>
			<g>
				<path class="st1" d="M249.42,386.29l-84.8,31.38c-12.64,6.03-27.73,3.1-37.21-7.21l-30.05-32.68l29.54-116.02
					c10.24,0.32,18.25,8.95,17.82,19.19l-1.93,45.96"/>
				<path class="st1" d="M144.74,322.09l56.89-70c3.02-4.26,8.92-5.26,13.18-2.24c4.26,3.02,5.26,8.92,2.24,13.18l-26.8,51.42
					l0.81,0.59l41.61-36.74l14.99-13.24"/>
				<line class="st1" x1="236.93" y1="318.09" x2="209.56" y2="341.27"/>
				<polyline class="st1" points="268.66,350.8 233.31,362.44 232.73,361.03 250.95,345.45 				"/>
			</g>
			<g>
				<path class="st1" d="M294,380.88l-59.22-56.72c-4.26-3.02-5.26-8.92-2.24-13.18c3.02-4.26,8.92-5.26,13.18-2.24l47.42,33.8
					c1.68-3.4,2.4-4.63,4.59-7.81l-49.98-56.6c-3.53-3.84-3.28-9.83,0.56-13.36c3.84-3.53,9.83-3.28,13.36,0.56l50.08,52.87
					c1.12-1.03,5.9-4.77,7.75-6.04l-31.73-50.26c-2.79-4.41-1.47-10.25,2.94-13.04c4.41-2.79,10.25-1.47,13.04,2.94l33.53,51.28
					c3.14-1.19,5.27-1.83,8.51-2.61l-12.96-43.73c-1.41-4.23,0.87-8.8,5.1-10.21c4.23-1.41,8.8,0.87,10.21,5.1l52.22,109.55
					c6.03,12.64,3.1,27.73-7.21,37.21l-32.68,30.05l-116.02-29.54c0.32-10.24,8.95-18.25,19.19-17.82l34.96,1.93"/>
			</g>
			<g>
				<path class="st1" d="M137.72,260.98l50.5-111.19c4.68-13.2,17.42-21.8,31.41-21.22l54.36-0.13l65.15,104.92
					c-7.47,7.01-19.23,6.58-26.17-0.96l-29.13-27.87"/>
				<line class="st1" x1="263.32" y1="267.95" x2="254.86" y2="223.13"/>
				<polyline class="st1" points="228.04,279.63 222.05,235.23 218.68,235.23 214.81,249.85 				"/>
				<polyline class="st1" points="179,280.44 184.32,229.53 183.51,229.2 144.72,280.95 				"/>
				<line class="st1" x1="286.61" y1="208.61" x2="299" y2="266.27"/>
			</g>
		</g>
		<path class="st10" d="M370.01,113.08C336.98,87.08,295.3,71.58,250,71.58c-45.3,0-86.98,15.51-120.01,41.5"/>
	</g>
</g>
<g id="Text">
</g>
</svg>
