<?xml version="1.0" encoding="utf-8"?>
<!-- Generator: Adobe Illustrator 26.0.1, SVG Export Plug-In . SVG Version: 6.00 Build 0)  -->
<svg version="1.1" xmlns="http://www.w3.org/2000/svg" xmlns:xlink="http://www.w3.org/1999/xlink" x="0px" y="0px"
	 viewBox="0 0 500 500" style="enable-background:new 0 0 500 500;" xml:space="preserve">
<style type="text/css">
	.st0{fill:#F5333F;}
	.st1{fill:none;stroke:#011E41;stroke-width:16;stroke-miterlimit:10;}
	.st2{display:none;}
	.st3{display:inline;}
	.st4{fill:none;stroke:#D1D3D4;stroke-width:2;stroke-miterlimit:10;}
	.st5{display:inline;fill:none;stroke:#BCBEC0;stroke-width:4;stroke-miterlimit:10;}
	.st6{fill:none;stroke:#BCBEC0;stroke-width:4;stroke-miterlimit:10;}
	.st7{display:inline;fill:none;stroke:#D1D3D4;stroke-width:2;stroke-miterlimit:10;}
	.st8{display:none;opacity:0.35;fill:none;stroke:#000000;stroke-width:16;stroke-miterlimit:10;}
	.st9{fill:none;stroke:#011E41;stroke-width:16;stroke-linejoin:bevel;stroke-miterlimit:10;}
	.st10{fill:none;stroke:#F5333F;stroke-width:16;stroke-miterlimit:10;}
	.st11{fill:#011E41;}
	.st12{fill:none;stroke:#011E41;stroke-width:16;stroke-linecap:square;stroke-miterlimit:10;}
	.st13{fill:none;stroke:#011E41;stroke-width:16;stroke-linecap:round;stroke-miterlimit:10;}
	.st14{fill:none;stroke:#EF3741;stroke-width:16;stroke-miterlimit:10;}
	.st15{fill:#F5333F;stroke:#011E41;stroke-width:16;stroke-miterlimit:10;}
	.st16{fill:#EF3741;}
	.st17{fill:none;stroke:#011E41;stroke-width:8;stroke-miterlimit:10;}
	.st18{fill:none;stroke:#E73843;stroke-width:16;stroke-miterlimit:10;}
	.st19{fill:none;stroke:#011E41;stroke-width:13.4168;stroke-miterlimit:10;}
	.st20{fill:none;stroke:#011E41;stroke-width:13.8969;stroke-miterlimit:10;}
	.st21{fill:none;stroke:#011E41;stroke-width:14.2064;stroke-miterlimit:10;}
	.st22{fill:none;stroke:#011E41;stroke-width:15.0584;stroke-miterlimit:10;}
	.st23{fill:none;stroke:#011E41;stroke-width:15.1473;stroke-miterlimit:10;}
	.st24{fill:none;stroke:#011E41;stroke-width:16.5604;stroke-miterlimit:10;}
	.st25{fill:none;stroke:#011E41;stroke-width:14.3418;stroke-miterlimit:10;}
	.st26{fill:none;stroke:#011E41;stroke-width:15.8515;stroke-miterlimit:10;}
	.st27{fill:#F53340;}
</style>
<g id="Icons">
	<g>
		<path class="st0" d="M250.1,234.75c0.48-1.83,0.75-3.74,0.75-5.72c0-12.29-9.97-22.26-22.26-22.26c-7.45,0-14.05,3.67-18.09,9.29
			c-5.27-11.51-16.89-19.52-30.38-19.52c-18.45,0-33.4,14.95-33.4,33.4c0,2.92,0.38,5.74,1.08,8.44c-6.59-4.2-14.4-6.64-22.8-6.64
			c-23.46,0-42.48,19.02-42.48,42.48c0,7.97,2.2,15.42,6.01,21.79c-14.34,3.51-24.99,16.44-24.99,31.87
			c0,18.12,14.69,32.82,32.82,32.82c16.25,0,29.74-11.82,32.35-27.33c4.2,2.1,8.93,3.29,13.94,3.29c14.72,0,27.05-10.19,30.35-23.91
			c17.89-0.21,32.32-14.77,32.32-32.71c0-2.8-0.35-5.51-1.01-8.1c4.84,3.37,10.73,5.35,17.07,5.35c9.08,0,17.2-4.04,22.7-10.41
			c1.74,0.62,3.61,0.98,5.57,0.98c9.15,0,16.56-7.42,16.56-16.56C266.22,242.3,259.04,235,250.1,234.75z"/>
		<path class="st0" d="M341.24,146.02c1.63-0.95,3.17-2.12,4.57-3.52c8.69-8.69,8.69-22.79,0-31.48
			c-5.27-5.27-12.53-7.34-19.36-6.22c4.42-11.87,1.86-25.74-7.68-35.28c-13.04-13.04-34.19-13.04-47.23,0
			c-2.06,2.06-3.8,4.33-5.21,6.73c-1.69-7.63-5.49-14.88-11.42-20.82c-16.59-16.59-43.49-16.59-60.08,0
			c-5.63,5.63-9.35,12.46-11.16,19.66c-12.62-7.66-29.3-6.04-40.2,4.87c-12.82,12.82-12.82,33.59,0,46.41
			c11.49,11.49,29.39,12.67,42.2,3.55c1.48,4.45,3.99,8.64,7.53,12.18c10.41,10.41,26.34,11.92,38.36,4.55
			c12.8,12.5,33.3,12.41,45.98-0.27c1.98-1.98,3.65-4.15,5.01-6.44c1.05,5.81,3.8,11.36,8.29,15.85c6.42,6.42,15.02,9.31,23.41,8.68
			c0.79,1.67,1.86,3.25,3.25,4.63c6.47,6.47,16.96,6.47,23.42,0C347.3,162.75,347.39,152.51,341.24,146.02z"/>
		<path class="st1" d="M364.71,204.83c-18.11,0.02-32.77,14.71-32.75,32.82c0.01,6.19,1.73,11.97,4.71,16.9
			c-16.94,1.49-30.22,15.71-30.2,33.04c0.02,18.3,14.87,33.13,33.17,33.11c6.2-0.01,11.99-1.72,16.95-4.68
			c7.87,9.2,19.56,15.04,32.62,15.02c23.67-0.02,42.85-19.24,42.82-42.91c-0.01-6.84-1.63-13.31-4.48-19.04
			c7.88-6.7,12.89-16.69,12.87-27.84c-0.02-20.15-16.37-36.47-36.52-36.45c-7.46,0.01-14.39,2.26-20.17,6.11
			C378.37,207.07,371.81,204.82,364.71,204.83z"/>
		<circle class="st1" cx="287.09" cy="233.46" r="16.33"/>
		<circle class="st1" cx="121.18" cy="325.07" r="16.33"/>
		<circle class="st1" cx="92.47" cy="431.84" r="17.94"/>
		<path class="st1" d="M349.41,457.01c0-18.29,14.82-33.11,33.11-33.11s33.11,14.82,33.11,33.11"/>
		<circle class="st1" cx="260.22" cy="340.4" r="10.33"/>
		<circle class="st1" cx="182.47" cy="275.31" r="10.33"/>
		<path class="st9" d="M114.26,387.18c22.19,37.51,63.06,62.66,109.8,62.66h75.67"/>
		<path class="st9" d="M162.82,359.26c11.26,35.44,44.42,61.11,83.58,61.11h55.11"/>
		<path class="st9" d="M418.78,385.25h-163.8c-24.33,0-44.05-19.72-44.05-44.05v0c0-24.33,19.72-44.05,44.05-44.05"/>
		<circle class="st1" cx="219.33" cy="120.51" r="16.33"/>
		<circle class="st1" cx="77.51" cy="230.12" r="17.94"/>
		<circle class="st1" cx="382.52" cy="169.15" r="10.33"/>
		<path class="st9" d="M298.03,217.12c5.54-7.84,12.26-15.05,20.12-21.37"/>
		<path class="st9" d="M382.52,383.27c-30.26-0.48-60.09-13.93-80.53-39.37l0,0c-22.34-27.8-28.27-63.47-19.08-95.32"/>
		<path class="st9" d="M126.32,261.46c-7.88-36.46-4-74.23,10.36-107.95"/>
		<path class="st9" d="M212.14,241.88c-2.29-24.06,3.08-48.07,14.9-68.66"/>
		<line class="st1" x1="382.52" y1="237.11" x2="382.52" y2="423.9"/>
		<line class="st1" x1="352.39" y1="268.34" x2="382.52" y2="317.81"/>
		<line class="st1" x1="405.56" y1="248.78" x2="383.19" y2="285.51"/>
		<path class="st9" d="M429.68,385.04h-65.84c-39.75,0-71.96,32.22-71.96,71.97v0"/>
		<path class="st9" d="M250.1,264.75c0.48-1.83,0.75-3.74,0.75-5.72c0-12.29-9.97-22.26-22.26-22.26c-7.45,0-14.05,3.67-18.09,9.29
			c-5.27-11.51-16.89-19.52-30.38-19.52c-18.45,0-33.4,14.95-33.4,33.4c0,2.92,0.38,5.74,1.08,8.44c-6.59-4.2-14.4-6.64-22.8-6.64
			c-23.46,0-42.48,19.02-42.48,42.48c0,7.97,2.2,15.42,6.01,21.79c-14.34,3.51-24.99,16.44-24.99,31.87
			c0,18.12,14.69,32.82,32.82,32.82c16.25,0,29.74-11.82,32.35-27.33c4.2,2.1,8.93,3.29,13.94,3.29c14.72,0,27.05-10.19,30.35-23.91
			c17.89-0.21,32.32-14.77,32.32-32.71c0-2.8-0.35-5.51-1.01-8.1c4.84,3.37,10.73,5.35,17.07,5.35c9.08,0,17.2-4.04,22.7-10.41
			c1.74,0.62,3.61,0.98,5.57,0.98c9.15,0,16.56-7.42,16.56-16.56C266.22,272.3,259.04,265,250.1,264.75z"/>
		<path class="st9" d="M333.24,169.02c1.63-0.95,3.17-2.12,4.57-3.52c8.69-8.69,8.69-22.79,0-31.48
			c-5.27-5.27-12.53-7.34-19.36-6.22c4.42-11.87,1.86-25.74-7.68-35.28c-13.04-13.04-34.19-13.04-47.23,0
			c-2.06,2.06-3.8,4.33-5.21,6.73c-1.69-7.63-5.49-14.88-11.42-20.82c-16.59-16.59-43.49-16.59-60.08,0
			c-5.63,5.63-9.35,12.46-11.16,19.66c-12.62-7.66-29.3-6.04-40.2,4.87c-12.82,12.82-12.82,33.59,0,46.41
			c11.49,11.49,29.39,12.67,42.2,3.55c1.48,4.45,3.99,8.64,7.53,12.18c10.41,10.41,26.34,11.92,38.36,4.55
			c12.8,12.5,33.3,12.41,45.98-0.27c1.98-1.98,3.65-4.15,5.01-6.44c1.05,5.81,3.8,11.36,8.29,15.85c6.42,6.42,15.02,9.31,23.41,8.68
			c0.79,1.67,1.86,3.25,3.25,4.63c6.47,6.47,16.96,6.47,23.42,0C339.3,185.75,339.39,175.51,333.24,169.02z"/>
	</g>
</g>
<g id="Text">
</g>
</svg>
