<?xml version="1.0" encoding="utf-8"?>
<!-- Generator: Adobe Illustrator 26.0.1, SVG Export Plug-In . SVG Version: 6.00 Build 0)  -->
<svg version="1.1" xmlns="http://www.w3.org/2000/svg" xmlns:xlink="http://www.w3.org/1999/xlink" x="0px" y="0px"
	 viewBox="0 0 500 500" style="enable-background:new 0 0 500 500;" xml:space="preserve">
<style type="text/css">
	.st0{fill:#F5333F;}
	.st1{fill:none;stroke:#011E41;stroke-width:16;stroke-miterlimit:10;}
	.st2{display:none;}
	.st3{display:inline;}
	.st4{fill:none;stroke:#D1D3D4;stroke-width:2;stroke-miterlimit:10;}
	.st5{display:inline;fill:none;stroke:#BCBEC0;stroke-width:4;stroke-miterlimit:10;}
	.st6{fill:none;stroke:#BCBEC0;stroke-width:4;stroke-miterlimit:10;}
	.st7{display:inline;fill:none;stroke:#D1D3D4;stroke-width:2;stroke-miterlimit:10;}
	.st8{display:none;opacity:0.35;fill:none;stroke:#000000;stroke-width:16;stroke-miterlimit:10;}
	.st9{fill:none;stroke:#011E41;stroke-width:16;stroke-linejoin:bevel;stroke-miterlimit:10;}
	.st10{fill:none;stroke:#F5333F;stroke-width:16;stroke-miterlimit:10;}
	.st11{fill:#011E41;}
	.st12{fill:none;stroke:#011E41;stroke-width:16;stroke-linecap:square;stroke-miterlimit:10;}
	.st13{fill:none;stroke:#011E41;stroke-width:16;stroke-linecap:round;stroke-miterlimit:10;}
	.st14{fill:none;stroke:#EF3741;stroke-width:16;stroke-miterlimit:10;}
	.st15{fill:#F5333F;stroke:#011E41;stroke-width:16;stroke-miterlimit:10;}
	.st16{fill:#EF3741;}
	.st17{fill:none;stroke:#011E41;stroke-width:8;stroke-miterlimit:10;}
	.st18{fill:none;stroke:#E73843;stroke-width:16;stroke-miterlimit:10;}
	.st19{fill:none;stroke:#011E41;stroke-width:13.4168;stroke-miterlimit:10;}
	.st20{fill:none;stroke:#011E41;stroke-width:13.8969;stroke-miterlimit:10;}
	.st21{fill:none;stroke:#011E41;stroke-width:14.2064;stroke-miterlimit:10;}
	.st22{fill:none;stroke:#011E41;stroke-width:15.0584;stroke-miterlimit:10;}
	.st23{fill:none;stroke:#011E41;stroke-width:15.1473;stroke-miterlimit:10;}
	.st24{fill:none;stroke:#011E41;stroke-width:16.5604;stroke-miterlimit:10;}
	.st25{fill:none;stroke:#011E41;stroke-width:14.3418;stroke-miterlimit:10;}
	.st26{fill:none;stroke:#011E41;stroke-width:15.8515;stroke-miterlimit:10;}
	.st27{fill:#F53340;}
</style>
<g id="Icons">
	<g>
		<path class="st0" d="M286.88,321.23c0-22.22,10.18-42.06,26.12-55.12c1.7-1.66,3.48-3.24,5.35-4.72l0,0
			c15.65-12.37,25.66-30.53,27.76-50.37v-2.4c0-12.37-2.17-24.61-6.05-36.35c-11.74-35.55-6.92-75.02,13.56-107.23H173.36
			c-9.29,33.72-7.16,69.7,6.74,101.79c6.95,16.04,16.14,30.88,27.18,44.13c2.81,3.37,5.34,6.95,7.51,10.75l0,0
			c9.07,15.86,11.85,34.55,7.81,52.37l-1.65,7.27c-1.64,7.24-2.24,14.68-1.78,22.09c0.77,12.33,4.41,24.33,10.76,34.92
			c10.33,17.21,24.83,31.71,42.31,42.06c11.75,6.75,18.19,19.99,16.24,33.4l-0.76,5.21h20.27l0.02-0.05c4-10.21,5-21.07,3.25-31.51
			c-1.48-8.82-5.36-17.02-10.64-24.23C291.99,351.47,286.88,336.95,286.88,321.23z"/>
		<circle class="st1" cx="107.83" cy="155.09" r="12.93"/>
		<circle class="st1" cx="389.68" cy="230.13" r="12.93"/>
		<line class="st1" x1="92.95" y1="104.64" x2="214.99" y2="104.64"/>
		<line class="st1" x1="248.71" y1="135.1" x2="370.75" y2="135.1"/>
		<line class="st1" x1="174.76" y1="171.09" x2="296.8" y2="171.09"/>
		<line class="st1" x1="268.58" y1="231.06" x2="356.9" y2="231.06"/>
		<line class="st1" x1="161.43" y1="279.03" x2="240.16" y2="279.03"/>
		<line class="st1" x1="61.02" y1="434.96" x2="436.78" y2="434.96"/>
		<g>
			<path class="st1" d="M437.9,325.05c-56.17-9.49-115.44-8.54-170.92,2.58"/>
			<path class="st1" d="M209.93,348.38c-0.21-0.35-3.89,0.99-9.4,3.25c-40.03,16.43-82.73,25.41-125.98,26.74l-13.53,0.41"/>
		</g>
		<g>
			<path class="st1" d="M89.08,308.65c18.82,2.9,37.29,7.76,55.09,14.51L209.71,348"/>
			<path class="st1" d="M64.25,305.76l24.83,2.88c-4.77-0.74-9.56-1.35-14.37-1.83L64.25,305.76z"/>
			<path class="st1" d="M278.71,370.51c53.32,10.57,86.11,19.06,158.07,18.51"/>
		</g>
		<path class="st1" d="M266.88,331.23c0-22.22,10.18-42.06,26.12-55.12c1.7-1.66,3.48-3.24,5.35-4.72l0,0
			c15.65-12.38,25.66-30.53,27.76-50.37v-2.4c0-12.37-2.17-24.61-6.05-36.35c-11.74-35.55-6.92-75.02,13.56-107.23H153.36
			c-9.29,33.72-7.16,69.7,6.74,101.79c6.95,16.04,16.14,30.88,27.18,44.13c2.81,3.37,5.34,6.95,7.51,10.75l0,0
			c9.07,15.86,11.85,34.55,7.81,52.37l-1.65,7.27c-1.64,7.24-2.24,14.68-1.78,22.09c0.77,12.33,4.41,24.33,10.76,34.92
			c10.33,17.21,24.83,31.71,42.31,42.06c11.75,6.75,18.19,19.99,16.24,33.4l-0.76,5.21h20.27l0.02-0.05c4-10.21,5-21.07,3.25-31.51
			c-1.48-8.82-5.36-17.02-10.64-24.23C271.99,361.47,266.88,346.95,266.88,331.23z"/>
	</g>
</g>
<g id="Text">
</g>
</svg>
