<?xml version="1.0" encoding="utf-8"?>
<!-- Generator: Adobe Illustrator 26.0.1, SVG Export Plug-In . SVG Version: 6.00 Build 0)  -->
<svg version="1.1" xmlns="http://www.w3.org/2000/svg" xmlns:xlink="http://www.w3.org/1999/xlink" x="0px" y="0px"
	 viewBox="0 0 500 500" style="enable-background:new 0 0 500 500;" xml:space="preserve">
<style type="text/css">
	.st0{fill:#F5333F;}
	.st1{fill:none;stroke:#011E41;stroke-width:16;stroke-miterlimit:10;}
	.st2{display:none;}
	.st3{display:inline;}
	.st4{fill:none;stroke:#D1D3D4;stroke-width:2;stroke-miterlimit:10;}
	.st5{display:inline;fill:none;stroke:#BCBEC0;stroke-width:4;stroke-miterlimit:10;}
	.st6{fill:none;stroke:#BCBEC0;stroke-width:4;stroke-miterlimit:10;}
	.st7{display:inline;fill:none;stroke:#D1D3D4;stroke-width:2;stroke-miterlimit:10;}
	.st8{display:none;opacity:0.35;fill:none;stroke:#000000;stroke-width:16;stroke-miterlimit:10;}
	.st9{fill:none;stroke:#011E41;stroke-width:16;stroke-linejoin:bevel;stroke-miterlimit:10;}
	.st10{fill:none;stroke:#F5333F;stroke-width:16;stroke-miterlimit:10;}
	.st11{fill:#011E41;}
	.st12{fill:none;stroke:#011E41;stroke-width:16;stroke-linecap:square;stroke-miterlimit:10;}
	.st13{fill:none;stroke:#011E41;stroke-width:16;stroke-linecap:round;stroke-miterlimit:10;}
	.st14{fill:none;stroke:#EF3741;stroke-width:16;stroke-miterlimit:10;}
	.st15{fill:#F5333F;stroke:#011E41;stroke-width:16;stroke-miterlimit:10;}
	.st16{fill:#EF3741;}
	.st17{fill:none;stroke:#011E41;stroke-width:8;stroke-miterlimit:10;}
	.st18{fill:none;stroke:#E73843;stroke-width:16;stroke-miterlimit:10;}
	.st19{fill:none;stroke:#011E41;stroke-width:13.4168;stroke-miterlimit:10;}
	.st20{fill:none;stroke:#011E41;stroke-width:13.8969;stroke-miterlimit:10;}
	.st21{fill:none;stroke:#011E41;stroke-width:14.2064;stroke-miterlimit:10;}
	.st22{fill:none;stroke:#011E41;stroke-width:15.0584;stroke-miterlimit:10;}
	.st23{fill:none;stroke:#011E41;stroke-width:15.1473;stroke-miterlimit:10;}
	.st24{fill:none;stroke:#011E41;stroke-width:16.5604;stroke-miterlimit:10;}
	.st25{fill:none;stroke:#011E41;stroke-width:14.3418;stroke-miterlimit:10;}
	.st26{fill:none;stroke:#011E41;stroke-width:15.8515;stroke-miterlimit:10;}
	.st27{fill:#F53340;}
</style>
<g id="Icons">
	<g>
		<g>
			<path class="st0" d="M364.88,240.02c0-27.19-22.04-49.23-49.23-49.23c-19.6,0-36.52,11.46-44.44,28.04
				c-7.92-16.58-24.84-28.04-44.44-28.04s-36.52,11.46-44.44,28.04c-7.92-16.58-24.84-28.04-44.44-28.04
				c-27.19,0-49.23,22.04-49.23,49.23v-18.38c0-76.27,61.83-138.11,138.11-138.11h0c76.27,0,138.11,61.83,138.11,138.11V240.02z"/>
		</g>
		<g>
			<g>
				<g>
					<g>
						<path class="st1" d="M388.19,275.38c0-27.19-22.04-49.23-49.23-49.23c-19.6,0-36.52,11.46-44.44,28.04
							c-7.92-16.58-24.84-28.04-44.44-28.04s-36.52,11.46-44.44,28.04c-7.92-16.58-24.84-28.04-44.44-28.04
							c-27.19,0-49.23,22.04-49.23,49.23V257c0-76.27,61.83-138.11,138.11-138.11h0c76.27,0,138.11,61.83,138.11,138.11V275.38z"/>
					</g>
					<path class="st1" d="M205.48,275.38V257c0-76.27,13.93-138.11,44.6-138.11"/>
					<path class="st1" d="M293.86,275.38V257c0-76.27-13.93-138.11-44.6-138.11"/>
				</g>
				<path class="st1" d="M320.17,378.53c0,19.39-15.72,35.12-35.12,35.12c-19.39,0-35.12-15.72-35.12-35.12V224.15"/>
				<line class="st1" x1="250.08" y1="99.97" x2="250.08" y2="118.45"/>
			</g>
			<rect x="45.95" y="42.74" class="st11" width="14.19" height="14.19"/>
			<rect x="45.95" y="71.31" class="st11" width="14.19" height="14.19"/>
			<rect x="45.95" y="99.88" class="st11" width="14.19" height="14.19"/>
			<rect x="45.95" y="128.45" class="st11" width="14.19" height="14.19"/>
			<rect x="45.95" y="157.02" class="st11" width="14.19" height="14.19"/>
			<rect x="45.95" y="185.76" class="st11" width="14.19" height="14.19"/>
			<rect x="45.95" y="214.33" class="st11" width="14.19" height="14.19"/>
			<rect x="45.95" y="242.9" class="st11" width="14.19" height="14.19"/>
			<rect x="45.95" y="271.48" class="st11" width="14.19" height="14.19"/>
			<rect x="45.95" y="300.05" class="st11" width="14.19" height="14.19"/>
			<rect x="45.95" y="328.79" class="st11" width="14.19" height="14.19"/>
			<rect x="45.95" y="357.36" class="st11" width="14.19" height="14.19"/>
			<rect x="45.95" y="385.93" class="st11" width="14.19" height="14.19"/>
			<rect x="45.95" y="414.5" class="st11" width="14.19" height="14.19"/>
			<rect x="45.95" y="443.07" class="st11" width="14.19" height="14.19"/>
			<rect x="81.76" y="42.74" class="st11" width="14.19" height="14.19"/>
			<rect x="81.76" y="71.31" class="st11" width="14.19" height="14.19"/>
			<rect x="81.76" y="99.88" class="st11" width="14.19" height="14.19"/>
			<rect x="81.76" y="128.45" class="st11" width="14.19" height="14.19"/>
			<rect x="81.76" y="157.02" class="st11" width="14.19" height="14.19"/>
			<rect x="81.76" y="185.76" class="st11" width="14.19" height="14.19"/>
			<rect x="81.76" y="214.33" class="st11" width="14.19" height="14.19"/>
			<rect x="81.76" y="242.9" class="st11" width="14.19" height="14.19"/>
			<rect x="81.76" y="271.48" class="st11" width="14.19" height="14.19"/>
			<rect x="81.76" y="300.05" class="st11" width="14.19" height="14.19"/>
			<rect x="81.76" y="328.79" class="st11" width="14.19" height="14.19"/>
			<rect x="81.76" y="357.36" class="st11" width="14.19" height="14.19"/>
			<rect x="81.76" y="385.93" class="st11" width="14.19" height="14.19"/>
			<rect x="81.76" y="414.5" class="st11" width="14.19" height="14.19"/>
			<rect x="81.76" y="443.07" class="st11" width="14.19" height="14.19"/>
			<rect x="117.57" y="42.74" class="st11" width="14.19" height="14.19"/>
			<rect x="117.57" y="71.31" class="st11" width="14.19" height="14.19"/>
			<rect x="117.57" y="99.88" class="st11" width="14.19" height="14.19"/>
			<rect x="117.57" y="128.45" class="st11" width="14.19" height="14.19"/>
			<rect x="153.38" y="42.74" class="st11" width="14.19" height="14.19"/>
			<rect x="153.38" y="71.31" class="st11" width="14.19" height="14.19"/>
			<rect x="153.38" y="99.88" class="st11" width="14.19" height="14.19"/>
			<rect x="189.19" y="42.74" class="st11" width="14.19" height="14.19"/>
			<rect x="189.19" y="71.31" class="st11" width="14.19" height="14.19"/>
			<rect x="189.19" y="99.88" class="st11" width="14.19" height="14.19"/>
			<rect x="225" y="42.74" class="st11" width="14.19" height="14.19"/>
			<rect x="225" y="71.31" class="st11" width="14.19" height="14.19"/>
			<rect x="260.81" y="42.74" class="st11" width="14.19" height="14.19"/>
			<rect x="260.81" y="71.31" class="st11" width="14.19" height="14.19"/>
			<rect x="296.62" y="42.74" class="st11" width="14.19" height="14.19"/>
			<rect x="296.62" y="71.31" class="st11" width="14.19" height="14.19"/>
			<rect x="296.62" y="99.88" class="st11" width="14.19" height="14.19"/>
			<rect x="332.43" y="42.74" class="st11" width="14.19" height="14.19"/>
			<rect x="332.43" y="71.31" class="st11" width="14.19" height="14.19"/>
			<rect x="332.43" y="99.88" class="st11" width="14.19" height="14.19"/>
			<rect x="368.24" y="42.74" class="st11" width="14.19" height="14.19"/>
			<rect x="368.24" y="71.31" class="st11" width="14.19" height="14.19"/>
			<rect x="368.24" y="99.88" class="st11" width="14.19" height="14.19"/>
			<rect x="368.24" y="128.45" class="st11" width="14.19" height="14.19"/>
			<rect x="404.05" y="42.74" class="st11" width="14.19" height="14.19"/>
			<rect x="404.05" y="71.31" class="st11" width="14.19" height="14.19"/>
			<rect x="404.05" y="99.88" class="st11" width="14.19" height="14.19"/>
			<rect x="404.05" y="128.45" class="st11" width="14.19" height="14.19"/>
			<rect x="404.05" y="157.02" class="st11" width="14.19" height="14.19"/>
			<rect x="404.05" y="185.76" class="st11" width="14.19" height="14.19"/>
			<rect x="404.05" y="214.33" class="st11" width="14.19" height="14.19"/>
			<rect x="404.05" y="242.9" class="st11" width="14.19" height="14.19"/>
			<rect x="404.05" y="271.48" class="st11" width="14.19" height="14.19"/>
			<rect x="404.05" y="300.05" class="st11" width="14.19" height="14.19"/>
			<rect x="404.05" y="328.79" class="st11" width="14.19" height="14.19"/>
			<rect x="404.05" y="357.36" class="st11" width="14.19" height="14.19"/>
			<rect x="404.05" y="385.93" class="st11" width="14.19" height="14.19"/>
			<rect x="404.05" y="414.5" class="st11" width="14.19" height="14.19"/>
			<rect x="404.05" y="443.07" class="st11" width="14.19" height="14.19"/>
			<rect x="439.86" y="42.74" class="st11" width="14.19" height="14.19"/>
			<rect x="439.86" y="71.31" class="st11" width="14.19" height="14.19"/>
			<rect x="439.86" y="99.88" class="st11" width="14.19" height="14.19"/>
			<rect x="439.86" y="128.45" class="st11" width="14.19" height="14.19"/>
			<rect x="439.86" y="157.02" class="st11" width="14.19" height="14.19"/>
			<rect x="439.86" y="185.76" class="st11" width="14.19" height="14.19"/>
			<rect x="439.86" y="214.33" class="st11" width="14.19" height="14.19"/>
			<rect x="439.86" y="242.9" class="st11" width="14.19" height="14.19"/>
			<rect x="439.86" y="271.48" class="st11" width="14.19" height="14.19"/>
			<rect x="439.86" y="300.05" class="st11" width="14.19" height="14.19"/>
			<rect x="439.86" y="328.79" class="st11" width="14.19" height="14.19"/>
			<rect x="439.86" y="357.36" class="st11" width="14.19" height="14.19"/>
			<rect x="439.86" y="385.93" class="st11" width="14.19" height="14.19"/>
			<rect x="439.86" y="414.5" class="st11" width="14.19" height="14.19"/>
			<rect x="439.86" y="443.07" class="st11" width="14.19" height="14.19"/>
		</g>
	</g>
</g>
<g id="Text">
</g>
</svg>
