<?xml version="1.0" encoding="utf-8"?>
<!-- Generator: Adobe Illustrator 26.0.1, SVG Export Plug-In . SVG Version: 6.00 Build 0)  -->
<svg version="1.1" xmlns="http://www.w3.org/2000/svg" xmlns:xlink="http://www.w3.org/1999/xlink" x="0px" y="0px"
	 viewBox="0 0 500 500" style="enable-background:new 0 0 500 500;" xml:space="preserve">
<style type="text/css">
	.st0{fill:#F5333F;}
	.st1{fill:none;stroke:#011E41;stroke-width:16;stroke-miterlimit:10;}
	.st2{display:none;}
	.st3{display:inline;}
	.st4{fill:none;stroke:#D1D3D4;stroke-width:2;stroke-miterlimit:10;}
	.st5{display:inline;fill:none;stroke:#BCBEC0;stroke-width:4;stroke-miterlimit:10;}
	.st6{fill:none;stroke:#BCBEC0;stroke-width:4;stroke-miterlimit:10;}
	.st7{display:inline;fill:none;stroke:#D1D3D4;stroke-width:2;stroke-miterlimit:10;}
	.st8{display:none;opacity:0.35;fill:none;stroke:#000000;stroke-width:16;stroke-miterlimit:10;}
	.st9{fill:none;stroke:#011E41;stroke-width:16;stroke-linejoin:bevel;stroke-miterlimit:10;}
	.st10{fill:none;stroke:#F5333F;stroke-width:16;stroke-miterlimit:10;}
	.st11{fill:#011E41;}
	.st12{fill:none;stroke:#011E41;stroke-width:16;stroke-linecap:square;stroke-miterlimit:10;}
	.st13{fill:none;stroke:#011E41;stroke-width:16;stroke-linecap:round;stroke-miterlimit:10;}
	.st14{fill:none;stroke:#EF3741;stroke-width:16;stroke-miterlimit:10;}
	.st15{fill:#F5333F;stroke:#011E41;stroke-width:16;stroke-miterlimit:10;}
	.st16{fill:#EF3741;}
	.st17{fill:none;stroke:#011E41;stroke-width:8;stroke-miterlimit:10;}
	.st18{fill:none;stroke:#E73843;stroke-width:16;stroke-miterlimit:10;}
	.st19{fill:none;stroke:#011E41;stroke-width:13.4168;stroke-miterlimit:10;}
	.st20{fill:none;stroke:#011E41;stroke-width:13.8969;stroke-miterlimit:10;}
	.st21{fill:none;stroke:#011E41;stroke-width:14.2064;stroke-miterlimit:10;}
	.st22{fill:none;stroke:#011E41;stroke-width:15.0584;stroke-miterlimit:10;}
	.st23{fill:none;stroke:#011E41;stroke-width:15.1473;stroke-miterlimit:10;}
	.st24{fill:none;stroke:#011E41;stroke-width:16.5604;stroke-miterlimit:10;}
	.st25{fill:none;stroke:#011E41;stroke-width:14.3418;stroke-miterlimit:10;}
	.st26{fill:none;stroke:#011E41;stroke-width:15.8515;stroke-miterlimit:10;}
	.st27{fill:#F53340;}
</style>
<g id="Icons">
</g>
<g id="Text">
	<g>
		<g>
			<g>
				<circle class="st1" cx="250" cy="250" r="191.91"/>
			</g>
		</g>
		<circle class="st0" cx="250" cy="250" r="102.76"/>
		<polyline class="st1" points="122.81,135.29 147.57,140.5 155.39,122.25 176.24,108.57 193.18,124.53 206.87,128.77 
			217.94,134.63 253.13,134.63 240.1,158.09 253.13,170.47 278.54,182.85 287.66,168.52 281.15,150.27 		"/>
		<polyline class="st1" points="326.76,173.08 302.65,155.48 287.66,168.52 		"/>
		<line class="st1" x1="339.14" y1="182.04" x2="326.76" y2="182.04"/>
		<polyline class="st1" points="323.5,191.32 302,193.93 290.92,212.82 271.5,234.98 234.88,234.98 222.5,250 232.28,263.82 
			253.78,274.07 260.95,260.39 		"/>
		<path class="st1" d="M261.6,274.07l20.2,12.38h9.12l5.86,5.21l-5.86,13.03l-3.26,14.33l13.68,16.94l17.59,1.3l-1.3,22.15
			l-15.43,43.19c-0.21,0.6,0.53,1.07,0.98,0.63l29.76-28.84l22.81-16.29l31.6-29.32l16.8-36.82c0.06-0.13-0.06-0.28-0.2-0.25
			l-32.89,7.09v-15.96l-47.57-6.19l-26.71,14.99"/>
		<polyline class="st1" points="155.39,122.25 172.33,145.71 172.33,169.82 189.27,182.04 172.33,203.05 178.2,223.25 
			200.35,238.89 213.38,258.82 232.28,263.82 		"/>
		<polyline class="st1" points="323.5,130.07 323.5,108.57 303.95,97.49 268.11,85.77 271.5,104.66 295.48,111.83 307.21,125.51 
			330.02,141.8 		"/>
		<polyline class="st1" points="254.43,91.63 254.43,113.78 287.66,133.33 290.92,145.71 		"/>
		<line class="st1" x1="253.13" y1="134.63" x2="265.51" y2="145.71"/>
		<line class="st1" x1="215.34" y1="113.78" x2="232.28" y2="132.03"/>
		<line class="st1" x1="233.07" y1="100.01" x2="245.96" y2="122.91"/>
		<line class="st1" x1="316.33" y1="74.69" x2="364.55" y2="108.57"/>
		<line class="st1" x1="369.11" y1="118.67" x2="404.17" y2="164.28"/>
		<polyline class="st1" points="413.42,155.48 418.63,197.19 433.62,232.7 441.81,244.03 		"/>
		<polyline class="st1" points="133.24,100.57 155.39,100.01 178.2,77.95 201.65,64.24 		"/>
		<line class="st1" x1="273" y1="256.48" x2="299.06" y2="256.48"/>
		<line class="st1" x1="307.21" y1="261.69" x2="330.02" y2="258.69"/>
		<line class="st1" x1="277.24" y1="232.7" x2="286.03" y2="250"/>
		<polyline class="st1" points="290.92,212.82 265.51,215.43 245.96,199.79 261.6,182.85 290.92,199.79 307.21,176.99 323.5,164.28 
					"/>
		<line class="st1" x1="340.44" y1="113.78" x2="347.61" y2="122.25"/>
	</g>
</g>
</svg>
