<?xml version="1.0" encoding="utf-8"?>
<!-- Generator: Adobe Illustrator 26.0.1, SVG Export Plug-In . SVG Version: 6.00 Build 0)  -->
<svg version="1.1" xmlns="http://www.w3.org/2000/svg" xmlns:xlink="http://www.w3.org/1999/xlink" x="0px" y="0px"
	 viewBox="0 0 500 500" style="enable-background:new 0 0 500 500;" xml:space="preserve">
<style type="text/css">
	.st0{fill:#F5333F;}
	.st1{fill:none;stroke:#011E41;stroke-width:16;stroke-miterlimit:10;}
	.st2{display:none;}
	.st3{display:inline;}
	.st4{fill:none;stroke:#D1D3D4;stroke-width:2;stroke-miterlimit:10;}
	.st5{display:inline;fill:none;stroke:#BCBEC0;stroke-width:4;stroke-miterlimit:10;}
	.st6{fill:none;stroke:#BCBEC0;stroke-width:4;stroke-miterlimit:10;}
	.st7{display:inline;fill:none;stroke:#D1D3D4;stroke-width:2;stroke-miterlimit:10;}
	.st8{display:none;opacity:0.35;fill:none;stroke:#000000;stroke-width:16;stroke-miterlimit:10;}
	.st9{fill:none;stroke:#011E41;stroke-width:16;stroke-linejoin:bevel;stroke-miterlimit:10;}
	.st10{fill:none;stroke:#F5333F;stroke-width:16;stroke-miterlimit:10;}
	.st11{fill:#011E41;}
	.st12{fill:none;stroke:#011E41;stroke-width:16;stroke-linecap:square;stroke-miterlimit:10;}
	.st13{fill:none;stroke:#011E41;stroke-width:16;stroke-linecap:round;stroke-miterlimit:10;}
	.st14{fill:none;stroke:#EF3741;stroke-width:16;stroke-miterlimit:10;}
	.st15{fill:#F5333F;stroke:#011E41;stroke-width:16;stroke-miterlimit:10;}
	.st16{fill:#EF3741;}
	.st17{fill:none;stroke:#011E41;stroke-width:8;stroke-miterlimit:10;}
	.st18{fill:none;stroke:#E73843;stroke-width:16;stroke-miterlimit:10;}
	.st19{fill:none;stroke:#011E41;stroke-width:13.4168;stroke-miterlimit:10;}
	.st20{fill:none;stroke:#011E41;stroke-width:13.8969;stroke-miterlimit:10;}
	.st21{fill:none;stroke:#011E41;stroke-width:14.2064;stroke-miterlimit:10;}
	.st22{fill:none;stroke:#011E41;stroke-width:15.0584;stroke-miterlimit:10;}
	.st23{fill:none;stroke:#011E41;stroke-width:15.1473;stroke-miterlimit:10;}
	.st24{fill:none;stroke:#011E41;stroke-width:16.5604;stroke-miterlimit:10;}
	.st25{fill:none;stroke:#011E41;stroke-width:14.3418;stroke-miterlimit:10;}
	.st26{fill:none;stroke:#011E41;stroke-width:15.8515;stroke-miterlimit:10;}
	.st27{fill:#F53340;}
</style>
<g id="Icons">
	<g>
		<path class="st0" d="M359.84,279.6c-4.6,8.57-10.11,14.94-16.39,18.95c-1.65,1.05-2.66,2.87-2.68,4.82
			c-0.33,32.69-13.32,63.38-36.56,86.4c-23.26,23.04-54.1,35.73-86.83,35.73c-68.05,0-123.41-55.36-123.41-123.41
			c0-25.61,7.78-50.18,22.49-71.04c0.93-1.31,1.26-2.95,0.94-4.52c-0.47-2.28-0.86-4.65-1.15-7.04
			c-3.57-29.36,9.88-46.12,21.03-54.77c-1.97,8.14-2.09,17.68,4.5,24.6c0.01,0.01,0.05,0.06,0.06,0.06l0.08,0.08
			c3.47,3.6,8.46,5.07,13.34,3.93c4.97-1.16,8.87-4.76,10.42-9.63c9.31-29.27,32.56-45.11,53.06-59.09
			c14.33-9.77,27.86-18.99,35.27-31.65c8.67-14.81,7.79-30.31-2.55-44.82c-0.17-0.24-0.34-0.47-0.51-0.7
			c0.82,0.34,1.66,0.7,2.5,1.09c16.28,7.44,28.03,19.37,34.93,35.46c9.84,22.96-0.16,43.65-8.98,61.91
			c-6.4,13.24-12.44,25.75-9.48,37.23c2.09,8.1,8.24,12.51,16.04,11.53c14.87-1.89,36.56-24.91,42.9-54.74
			c7.74,13.92,17.5,37.09,14.39,61.48c-1.05,8.23-4.45,16.86-10.12,25.63c-3.75,5.81-3,13,1.87,17.9c4.9,4.93,12.13,5.73,17.99,1.99
			c7.53-4.81,12.95-13.5,16.68-21.81C371.24,239.49,370.52,259.7,359.84,279.6z"/>
		<path class="st1" d="M377.84,306.6c-4.6,8.57-10.11,14.94-16.39,18.95c-1.65,1.05-2.66,2.87-2.68,4.82
			c-0.33,32.69-13.32,63.38-36.56,86.4c-23.26,23.04-54.1,35.73-86.83,35.73c-68.05,0-123.41-55.36-123.41-123.41
			c0-25.61,7.78-50.18,22.49-71.04c0.93-1.31,1.26-2.95,0.94-4.52c-0.47-2.28-0.86-4.65-1.15-7.04
			c-3.57-29.36,9.88-46.12,21.03-54.77c-1.97,8.14-2.09,17.68,4.5,24.6c0.01,0.01,0.05,0.06,0.06,0.06l0.08,0.08
			c3.47,3.6,8.46,5.07,13.34,3.93c4.97-1.16,8.87-4.76,10.42-9.63c9.31-29.27,32.56-45.11,53.06-59.09
			c14.33-9.77,27.86-18.99,35.27-31.65c8.67-14.81,7.79-30.31-2.55-44.82c-0.17-0.24-0.34-0.47-0.51-0.7
			c0.82,0.34,1.66,0.7,2.5,1.09c16.28,7.44,28.03,19.37,34.93,35.46c9.84,22.96-0.16,43.65-8.98,61.91
			c-6.4,13.24-12.44,25.75-9.48,37.23c2.09,8.1,8.24,12.51,16.04,11.53c14.87-1.89,36.56-24.91,42.9-54.74
			c7.74,13.92,17.5,37.09,14.39,61.48c-1.05,8.23-4.45,16.86-10.12,25.63c-3.75,5.81-3,13,1.87,17.9c4.9,4.93,12.13,5.73,17.99,1.99
			c7.53-4.81,12.95-13.5,16.68-21.81C389.24,266.49,388.52,286.7,377.84,306.6z"/>
		<circle class="st1" cx="235.49" cy="330.01" r="96.67"/>
		<path class="st1" d="M241.53,233.55l0,0.15c0,0-3.71,27.92-18.56,37.22"/>
		<path class="st1" d="M222.96,270.92c-14.85,9.3-25.99,24.2-17.64,40.95c8.35,16.75,26.92,10.24,44.09,7.91
			c17.17-2.33,4.18,50.72,14.39,63.75c10.21,13.03,38.98-13.03,36.2-29.78c-4.12-24.8-5.57-33.5,27.85-51.18l0.09-0.03"/>
		<path class="st1" d="M178.38,407.89l0.03-2.03c0,0,3.71-15.82-6.96-32.11"/>
		<path class="st1" d="M171.45,373.75c-4.46-6.8,7.89-22.8,10.67-34.9c2.78-12.1-13.92-11.17-19.03-15.35
			c-5.11-4.19-12.07-22.33-17.17-26.52l-0.82-0.65"/>
	</g>
</g>
<g id="Text">
</g>
</svg>
