<?xml version="1.0" encoding="utf-8"?>
<!-- Generator: Adobe Illustrator 26.0.1, SVG Export Plug-In . SVG Version: 6.00 Build 0)  -->
<svg version="1.1" xmlns="http://www.w3.org/2000/svg" xmlns:xlink="http://www.w3.org/1999/xlink" x="0px" y="0px"
	 viewBox="0 0 500 500" style="enable-background:new 0 0 500 500;" xml:space="preserve">
<style type="text/css">
	.st0{fill:#F5333F;}
	.st1{fill:none;stroke:#011E41;stroke-width:16;stroke-miterlimit:10;}
	.st2{display:none;}
	.st3{display:inline;}
	.st4{fill:none;stroke:#D1D3D4;stroke-width:2;stroke-miterlimit:10;}
	.st5{display:inline;fill:none;stroke:#BCBEC0;stroke-width:4;stroke-miterlimit:10;}
	.st6{fill:none;stroke:#BCBEC0;stroke-width:4;stroke-miterlimit:10;}
	.st7{display:inline;fill:none;stroke:#D1D3D4;stroke-width:2;stroke-miterlimit:10;}
	.st8{display:none;opacity:0.35;fill:none;stroke:#000000;stroke-width:16;stroke-miterlimit:10;}
	.st9{fill:none;stroke:#011E41;stroke-width:16;stroke-linejoin:bevel;stroke-miterlimit:10;}
	.st10{fill:none;stroke:#F5333F;stroke-width:16;stroke-miterlimit:10;}
	.st11{fill:#011E41;}
	.st12{fill:none;stroke:#011E41;stroke-width:16;stroke-linecap:square;stroke-miterlimit:10;}
	.st13{fill:none;stroke:#011E41;stroke-width:16;stroke-linecap:round;stroke-miterlimit:10;}
	.st14{fill:none;stroke:#EF3741;stroke-width:16;stroke-miterlimit:10;}
	.st15{fill:#F5333F;stroke:#011E41;stroke-width:16;stroke-miterlimit:10;}
	.st16{fill:#EF3741;}
	.st17{fill:none;stroke:#011E41;stroke-width:8;stroke-miterlimit:10;}
	.st18{fill:none;stroke:#E73843;stroke-width:16;stroke-miterlimit:10;}
	.st19{fill:none;stroke:#011E41;stroke-width:13.4168;stroke-miterlimit:10;}
	.st20{fill:none;stroke:#011E41;stroke-width:13.8969;stroke-miterlimit:10;}
	.st21{fill:none;stroke:#011E41;stroke-width:14.2064;stroke-miterlimit:10;}
	.st22{fill:none;stroke:#011E41;stroke-width:15.0584;stroke-miterlimit:10;}
	.st23{fill:none;stroke:#011E41;stroke-width:15.1473;stroke-miterlimit:10;}
	.st24{fill:none;stroke:#011E41;stroke-width:16.5604;stroke-miterlimit:10;}
	.st25{fill:none;stroke:#011E41;stroke-width:14.3418;stroke-miterlimit:10;}
	.st26{fill:none;stroke:#011E41;stroke-width:15.8515;stroke-miterlimit:10;}
	.st27{fill:#F53340;}
</style>
<g id="Icons">
	<g>
		<rect x="54.16" y="231.57" class="st0" width="363.68" height="204.71"/>
		<g>
			<g>
				<polyline class="st1" points="74.16,211.57 74.16,63.72 437.84,63.72 437.84,211.57 				"/>
				<polyline class="st1" points="108.79,211.55 108.79,92.16 403.21,92.16 403.21,211.55 				"/>
				<rect x="74.16" y="211.57" class="st1" width="363.68" height="204.71"/>
			</g>
			<g>
				<polygon class="st1" points="180.93,182.59 192.67,162.54 186.94,113.85 168.37,113.85 162.63,162.54 174.37,182.59 				"/>
				<line class="st1" x1="177.65" y1="190.47" x2="177.65" y2="211.57"/>
				<g>
					<polyline class="st1" points="325.37,176.84 349.37,176.84 349.37,119.6 325.37,119.6 					"/>
					<path class="st1" d="M318.04,140.05V119.6h-41.4c-28.17,0-51.01,22.84-51.01,51.01v0c9.24-9.49,21.88-14.9,35.13-15.02
						l1.38-0.01l0,21.26h55.9v-19.67"/>
					<line class="st1" x1="279.7" y1="211.57" x2="279.7" y2="176.84"/>
					<line class="st1" x1="305.42" y1="176.84" x2="305.42" y2="211.57"/>
				</g>
			</g>
			<line class="st1" x1="74.16" y1="279.89" x2="437.84" y2="279.89"/>
			<line class="st1" x1="74.16" y1="348.08" x2="437.84" y2="348.08"/>
			<g>
				<g>
					<rect x="91.45" y="228.9" class="st11" width="11.2" height="11.2"/>
					<rect x="91.45" y="254.19" class="st11" width="11.2" height="11.2"/>
				</g>
				<g>
					<rect x="409.35" y="228.9" class="st11" width="11.2" height="11.2"/>
					<rect x="409.35" y="254.19" class="st11" width="11.2" height="11.2"/>
				</g>
			</g>
			<g>
				<g>
					<rect x="91.45" y="295.74" class="st11" width="11.2" height="11.2"/>
					<rect x="91.45" y="321.03" class="st11" width="11.2" height="11.2"/>
				</g>
				<g>
					<rect x="409.35" y="295.74" class="st11" width="11.2" height="11.2"/>
					<rect x="409.35" y="321.03" class="st11" width="11.2" height="11.2"/>
				</g>
			</g>
			<g>
				<g>
					<rect x="91.45" y="363.93" class="st11" width="11.2" height="11.2"/>
					<rect x="91.45" y="389.22" class="st11" width="11.2" height="11.2"/>
				</g>
				<g>
					<rect x="409.35" y="363.93" class="st11" width="11.2" height="11.2"/>
					<rect x="409.35" y="389.22" class="st11" width="11.2" height="11.2"/>
				</g>
			</g>
		</g>
	</g>
</g>
<g id="Text">
</g>
</svg>
