<?xml version="1.0" encoding="utf-8"?>
<!-- Generator: Adobe Illustrator 26.0.1, SVG Export Plug-In . SVG Version: 6.00 Build 0)  -->
<svg version="1.1" xmlns="http://www.w3.org/2000/svg" xmlns:xlink="http://www.w3.org/1999/xlink" x="0px" y="0px"
	 viewBox="0 0 500 500" style="enable-background:new 0 0 500 500;" xml:space="preserve">
<style type="text/css">
	.st0{fill:#F5333F;}
	.st1{fill:none;stroke:#011E41;stroke-width:16;stroke-miterlimit:10;}
	.st2{display:none;}
	.st3{display:inline;}
	.st4{fill:none;stroke:#D1D3D4;stroke-width:2;stroke-miterlimit:10;}
	.st5{display:inline;fill:none;stroke:#BCBEC0;stroke-width:4;stroke-miterlimit:10;}
	.st6{fill:none;stroke:#BCBEC0;stroke-width:4;stroke-miterlimit:10;}
	.st7{display:inline;fill:none;stroke:#D1D3D4;stroke-width:2;stroke-miterlimit:10;}
	.st8{display:none;opacity:0.35;fill:none;stroke:#000000;stroke-width:16;stroke-miterlimit:10;}
	.st9{fill:none;stroke:#011E41;stroke-width:16;stroke-linejoin:bevel;stroke-miterlimit:10;}
	.st10{fill:none;stroke:#F5333F;stroke-width:16;stroke-miterlimit:10;}
	.st11{fill:#011E41;}
	.st12{fill:none;stroke:#011E41;stroke-width:16;stroke-linecap:square;stroke-miterlimit:10;}
	.st13{fill:none;stroke:#011E41;stroke-width:16;stroke-linecap:round;stroke-miterlimit:10;}
	.st14{fill:none;stroke:#EF3741;stroke-width:16;stroke-miterlimit:10;}
	.st15{fill:#F5333F;stroke:#011E41;stroke-width:16;stroke-miterlimit:10;}
	.st16{fill:#EF3741;}
	.st17{fill:none;stroke:#011E41;stroke-width:8;stroke-miterlimit:10;}
	.st18{fill:none;stroke:#E73843;stroke-width:16;stroke-miterlimit:10;}
	.st19{fill:none;stroke:#011E41;stroke-width:13.4168;stroke-miterlimit:10;}
	.st20{fill:none;stroke:#011E41;stroke-width:13.8969;stroke-miterlimit:10;}
	.st21{fill:none;stroke:#011E41;stroke-width:14.2064;stroke-miterlimit:10;}
	.st22{fill:none;stroke:#011E41;stroke-width:15.0584;stroke-miterlimit:10;}
	.st23{fill:none;stroke:#011E41;stroke-width:15.1473;stroke-miterlimit:10;}
	.st24{fill:none;stroke:#011E41;stroke-width:16.5604;stroke-miterlimit:10;}
	.st25{fill:none;stroke:#011E41;stroke-width:14.3418;stroke-miterlimit:10;}
	.st26{fill:none;stroke:#011E41;stroke-width:15.8515;stroke-miterlimit:10;}
	.st27{fill:#F53340;}
</style>
<g id="Icons">
	<g>
		<path class="st0" d="M171.87,360.37c4.07,23.6,50.88,69.08,130.49,38.2c53.44-20.73,102.54-77.75,118.85-134.63l-5.27-2.61
			c-10.04-5.02-21.88-4.96-31.87,0.17l0,0c-10.11,5.18-22.09,5.18-32.19,0l0,0c-9.99-5.13-21.82-5.19-31.87-0.17l-1.08,0.54
			c-9.93,4.96-21.61,4.96-31.54,0l-14.57-7.01c-13.06,25.2-33.06,46.17-69.73,50.83l-3.7,0.55c-14.02,2.08-28.68,14.93-28.99,25.16
			C170.11,341.62,169.49,349.07,171.87,360.37z"/>
		<circle class="st1" cx="203.52" cy="327.07" r="12.93"/>
		<circle class="st1" cx="329.46" cy="296.51" r="12.93"/>
		<rect x="269.5" y="315.96" class="st11" width="16.11" height="16.11"/>
		<rect x="238.38" y="289.4" class="st11" width="16.11" height="16.11"/>
		<rect x="238.38" y="344.37" class="st11" width="16.11" height="16.11"/>
		<rect x="277.55" y="271.73" class="st11" width="16.11" height="16.11"/>
		<rect x="361.39" y="265.41" class="st11" width="16.11" height="16.11"/>
		<path class="st1" d="M179.03,69.56v13.72c0,32.16,12.53,62.41,35.28,85.2c17.95,17.98,40.6,29.62,65.19,33.79
			c-12.7,37.01-31.47,74.96-82.4,81.42l-3.7,0.55c-14.02,2.08-25.13,12.14-28.99,25.16c-23.33,1.2-44.82,14.33-60.84,37.3
			c-15.7,22.51-24.4,52.22-24.5,83.66"/>
		<path class="st1" d="M108.08,430.44c0.08-25.59,6.92-49.43,19.28-67.15c10.72-15.37,24.33-24.14,38.52-24.91
			c9.24,26.81,50.88,69.08,130.49,38.2c88.35-34.27,164.83-167.72,100.91-235.76c-22.22-24.7-73.6-35.27-96.56,4.09
			c-4.71,8.07-8.45,18.23-12.12,29.38c-45.33-5.66-80.57-44.38-80.57-91.01V69.56"/>
		<path class="st1" d="M264.35,231.35l17.06,8.53c9.93,4.96,21.61,4.96,31.54,0l1.08-0.54c10.04-5.02,21.88-4.96,31.87,0.17l0,0
			c10.11,5.18,22.09,5.18,32.19,0l0,0c9.99-5.13,21.82-5.19,31.87-0.17l1.08,0.54"/>
	</g>
</g>
<g id="Text">
</g>
</svg>
