<?xml version="1.0" encoding="utf-8"?>
<!-- Generator: Adobe Illustrator 26.0.1, SVG Export Plug-In . SVG Version: 6.00 Build 0)  -->
<svg version="1.1" xmlns="http://www.w3.org/2000/svg" xmlns:xlink="http://www.w3.org/1999/xlink" x="0px" y="0px"
	 viewBox="0 0 500 500" style="enable-background:new 0 0 500 500;" xml:space="preserve">
<style type="text/css">
	.st0{fill:#F5333F;}
	.st1{fill:none;stroke:#011E41;stroke-width:16;stroke-miterlimit:10;}
	.st2{display:none;}
	.st3{display:inline;}
	.st4{fill:none;stroke:#D1D3D4;stroke-width:2;stroke-miterlimit:10;}
	.st5{display:inline;fill:none;stroke:#BCBEC0;stroke-width:4;stroke-miterlimit:10;}
	.st6{fill:none;stroke:#BCBEC0;stroke-width:4;stroke-miterlimit:10;}
	.st7{display:inline;fill:none;stroke:#D1D3D4;stroke-width:2;stroke-miterlimit:10;}
	.st8{display:none;opacity:0.35;fill:none;stroke:#000000;stroke-width:16;stroke-miterlimit:10;}
	.st9{fill:none;stroke:#011E41;stroke-width:16;stroke-linejoin:bevel;stroke-miterlimit:10;}
	.st10{fill:none;stroke:#F5333F;stroke-width:16;stroke-miterlimit:10;}
	.st11{fill:#011E41;}
	.st12{fill:none;stroke:#011E41;stroke-width:16;stroke-linecap:square;stroke-miterlimit:10;}
	.st13{fill:none;stroke:#011E41;stroke-width:16;stroke-linecap:round;stroke-miterlimit:10;}
	.st14{fill:none;stroke:#EF3741;stroke-width:16;stroke-miterlimit:10;}
	.st15{fill:#F5333F;stroke:#011E41;stroke-width:16;stroke-miterlimit:10;}
	.st16{fill:#EF3741;}
	.st17{fill:none;stroke:#011E41;stroke-width:8;stroke-miterlimit:10;}
	.st18{fill:none;stroke:#E73843;stroke-width:16;stroke-miterlimit:10;}
	.st19{fill:none;stroke:#011E41;stroke-width:13.4168;stroke-miterlimit:10;}
	.st20{fill:none;stroke:#011E41;stroke-width:13.8969;stroke-miterlimit:10;}
	.st21{fill:none;stroke:#011E41;stroke-width:14.2064;stroke-miterlimit:10;}
	.st22{fill:none;stroke:#011E41;stroke-width:15.0584;stroke-miterlimit:10;}
	.st23{fill:none;stroke:#011E41;stroke-width:15.1473;stroke-miterlimit:10;}
	.st24{fill:none;stroke:#011E41;stroke-width:16.5604;stroke-miterlimit:10;}
	.st25{fill:none;stroke:#011E41;stroke-width:14.3418;stroke-miterlimit:10;}
	.st26{fill:none;stroke:#011E41;stroke-width:15.8515;stroke-miterlimit:10;}
	.st27{fill:#F53340;}
</style>
<g id="Icons">
	<g>
		<g>
			<path class="st1" d="M297.55,189.46l105.57,75.69c8.07,5.23,10.37,16,5.14,24.07c-5.23,8.07-16,10.37-24.07,5.14l-89.81-58.48
				c-2.83,6.39-4.05,8.71-7.84,14.72l96.29,100.21c6.8,6.8,6.8,17.81,0,24.61c-6.8,6.8-17.81,6.8-24.61,0l-96.19-93.36
				c-1.99,1.99-10.48,9.22-13.79,11.71l62.25,89.97c5.47,7.9,3.5,18.74-4.4,24.21c-7.9,5.47-18.74,3.5-24.21-4.4l-65.62-91.7
				c-5.68,2.43-9.55,3.77-15.44,5.45l27.21,79.42c2.92,7.67-0.92,16.25-8.59,19.17c-7.67,2.92-16.25-0.92-19.17-8.59L95.76,209.89
				c-12.06-22.78-7.85-50.76,10.37-68.98l57.78-57.78l215.63,45.34c0.2,18.86-15.04,34.26-33.9,34.26l-84.67,0"/>
		</g>
		<path class="st0" d="M201.19,156.93c-7.4,6.53-11.69,15.26-12.77,24.35c-9.15-0.07-18.35,3.09-25.76,9.62
			c-15.96,14.07-17.49,38.41-3.42,54.37c28.37,32.18,106.58,23.8,106.58,23.8s18.11-76.54-10.26-108.72
			C241.49,144.39,217.15,142.86,201.19,156.93z"/>
		<path class="st1" d="M180.65,137.39c-7.4,6.53-11.69,15.26-12.77,24.35c-9.15-0.07-18.35,3.09-25.76,9.62
			c-15.96,14.07-17.49,38.41-3.42,54.37c28.37,32.18,106.58,23.8,106.58,23.8s18.11-76.54-10.26-108.72
			C220.96,124.85,196.61,123.32,180.65,137.39z"/>
	</g>
</g>
<g id="Text">
</g>
</svg>
