<?xml version="1.0" encoding="utf-8"?>
<!-- Generator: Adobe Illustrator 26.0.1, SVG Export Plug-In . SVG Version: 6.00 Build 0)  -->
<svg version="1.1" xmlns="http://www.w3.org/2000/svg" xmlns:xlink="http://www.w3.org/1999/xlink" x="0px" y="0px"
	 viewBox="0 0 500 500" style="enable-background:new 0 0 500 500;" xml:space="preserve">
<style type="text/css">
	.st0{fill:#F5333F;}
	.st1{fill:none;stroke:#011E41;stroke-width:16;stroke-miterlimit:10;}
	.st2{display:none;}
	.st3{display:inline;}
	.st4{fill:none;stroke:#D1D3D4;stroke-width:2;stroke-miterlimit:10;}
	.st5{display:inline;fill:none;stroke:#BCBEC0;stroke-width:4;stroke-miterlimit:10;}
	.st6{fill:none;stroke:#BCBEC0;stroke-width:4;stroke-miterlimit:10;}
	.st7{display:inline;fill:none;stroke:#D1D3D4;stroke-width:2;stroke-miterlimit:10;}
	.st8{display:none;opacity:0.35;fill:none;stroke:#000000;stroke-width:16;stroke-miterlimit:10;}
	.st9{fill:none;stroke:#011E41;stroke-width:16;stroke-linejoin:bevel;stroke-miterlimit:10;}
	.st10{fill:none;stroke:#F5333F;stroke-width:16;stroke-miterlimit:10;}
	.st11{fill:#011E41;}
	.st12{fill:none;stroke:#011E41;stroke-width:16;stroke-linecap:square;stroke-miterlimit:10;}
	.st13{fill:none;stroke:#011E41;stroke-width:16;stroke-linecap:round;stroke-miterlimit:10;}
	.st14{fill:none;stroke:#EF3741;stroke-width:16;stroke-miterlimit:10;}
	.st15{fill:#F5333F;stroke:#011E41;stroke-width:16;stroke-miterlimit:10;}
	.st16{fill:#EF3741;}
	.st17{fill:none;stroke:#011E41;stroke-width:8;stroke-miterlimit:10;}
	.st18{fill:none;stroke:#E73843;stroke-width:16;stroke-miterlimit:10;}
	.st19{fill:none;stroke:#011E41;stroke-width:13.4168;stroke-miterlimit:10;}
	.st20{fill:none;stroke:#011E41;stroke-width:13.8969;stroke-miterlimit:10;}
	.st21{fill:none;stroke:#011E41;stroke-width:14.2064;stroke-miterlimit:10;}
	.st22{fill:none;stroke:#011E41;stroke-width:15.0584;stroke-miterlimit:10;}
	.st23{fill:none;stroke:#011E41;stroke-width:15.1473;stroke-miterlimit:10;}
	.st24{fill:none;stroke:#011E41;stroke-width:16.5604;stroke-miterlimit:10;}
	.st25{fill:none;stroke:#011E41;stroke-width:14.3418;stroke-miterlimit:10;}
	.st26{fill:none;stroke:#011E41;stroke-width:15.8515;stroke-miterlimit:10;}
	.st27{fill:#F53340;}
</style>
<g id="Icons">
	<circle class="st0" cx="138.06" cy="415.6" r="49.94"/>
	<g>
		<g>
			<line class="st1" x1="151.52" y1="269.45" x2="151.53" y2="352.83"/>
		</g>
	</g>
	<circle class="st1" cx="112.7" cy="415.31" r="42.25"/>
	<g>
		<circle class="st1" cx="424.07" cy="341.98" r="19.63"/>
		<g>
			<polyline class="st1" points="484,360.06 447.8,377.55 447.8,459.11 			"/>
		</g>
		<g>
			<line class="st1" x1="402.57" y1="377.55" x2="402.57" y2="459.11"/>
		</g>
	</g>
	<path class="st1" d="M228.7,459.11V334.1c0-9.53-6.33-17.77-15.43-20.6c-21.12-6.57-36.45-26.27-36.45-49.55
		s15.33-42.98,36.45-49.55c9.1-2.83,15.43-11.07,15.43-20.6v-13.29l-106.1-60.84"/>
	<polyline class="st1" points="281.62,459.11 281.62,180.52 387.72,119.68 	"/>
	<circle class="st1" cx="254.88" cy="132.89" r="23.95"/>
	<g>
		<g>
			<circle class="st1" cx="131.5" cy="230.28" r="23.95"/>
		</g>
	</g>
	<path class="st10" d="M374.65,74.79c-32.97-25.94-74.56-41.41-119.76-41.41c-45.2,0-86.79,15.47-119.76,41.41"/>
	<g>
		<g>
			<polyline class="st1" points="446.23,238.38 364.45,276.04 364.45,459.11 			"/>
		</g>
	</g>
	<g>
		<g>
			<line class="st1" x1="318.74" y1="270.69" x2="318.73" y2="459.11"/>
		</g>
	</g>
	<path class="st1" d="M29.57,236.51l81.78,37.66l-0.21,68.5c-38.9,0-70.44,31.54-70.44,70.44l-0.18,40.14"/>
	<circle class="st1" cx="342.68" cy="230.95" r="23.95"/>
</g>
<g id="Text">
</g>
</svg>
