<?xml version="1.0" encoding="utf-8"?>
<!-- Generator: Adobe Illustrator 26.0.1, SVG Export Plug-In . SVG Version: 6.00 Build 0)  -->
<svg version="1.1" xmlns="http://www.w3.org/2000/svg" xmlns:xlink="http://www.w3.org/1999/xlink" x="0px" y="0px"
	 viewBox="0 0 500 500" style="enable-background:new 0 0 500 500;" xml:space="preserve">
<style type="text/css">
	.st0{fill:#F5333F;}
	.st1{fill:none;stroke:#011E41;stroke-width:16;stroke-miterlimit:10;}
	.st2{display:none;}
	.st3{display:inline;}
	.st4{fill:none;stroke:#D1D3D4;stroke-width:2;stroke-miterlimit:10;}
	.st5{display:inline;fill:none;stroke:#BCBEC0;stroke-width:4;stroke-miterlimit:10;}
	.st6{fill:none;stroke:#BCBEC0;stroke-width:4;stroke-miterlimit:10;}
	.st7{display:inline;fill:none;stroke:#D1D3D4;stroke-width:2;stroke-miterlimit:10;}
	.st8{display:none;opacity:0.35;fill:none;stroke:#000000;stroke-width:16;stroke-miterlimit:10;}
	.st9{fill:none;stroke:#011E41;stroke-width:16;stroke-linejoin:bevel;stroke-miterlimit:10;}
	.st10{fill:none;stroke:#F5333F;stroke-width:16;stroke-miterlimit:10;}
	.st11{fill:#011E41;}
	.st12{fill:none;stroke:#011E41;stroke-width:16;stroke-linecap:square;stroke-miterlimit:10;}
	.st13{fill:none;stroke:#011E41;stroke-width:16;stroke-linecap:round;stroke-miterlimit:10;}
	.st14{fill:none;stroke:#EF3741;stroke-width:16;stroke-miterlimit:10;}
	.st15{fill:#F5333F;stroke:#011E41;stroke-width:16;stroke-miterlimit:10;}
	.st16{fill:#EF3741;}
	.st17{fill:none;stroke:#011E41;stroke-width:8;stroke-miterlimit:10;}
	.st18{fill:none;stroke:#E73843;stroke-width:16;stroke-miterlimit:10;}
	.st19{fill:none;stroke:#011E41;stroke-width:13.4168;stroke-miterlimit:10;}
	.st20{fill:none;stroke:#011E41;stroke-width:13.8969;stroke-miterlimit:10;}
	.st21{fill:none;stroke:#011E41;stroke-width:14.2064;stroke-miterlimit:10;}
	.st22{fill:none;stroke:#011E41;stroke-width:15.0584;stroke-miterlimit:10;}
	.st23{fill:none;stroke:#011E41;stroke-width:15.1473;stroke-miterlimit:10;}
	.st24{fill:none;stroke:#011E41;stroke-width:16.5604;stroke-miterlimit:10;}
	.st25{fill:none;stroke:#011E41;stroke-width:14.3418;stroke-miterlimit:10;}
	.st26{fill:none;stroke:#011E41;stroke-width:15.8515;stroke-miterlimit:10;}
	.st27{fill:#F53340;}
</style>
<g id="Icons">
</g>
<g id="Text">
	<g>
		<path class="st0" d="M377.26,234.14l-61.92-19.23l-18.82-61.52l-42.56,42.56l-0.84,28.71l-35.59,7.72L116.82,333.09
			c-26.14,26.14-39.62,62.35-36.95,99.22l1.32,18.19l18.08,1.08c36.34,2.17,71.87-11.31,97.61-37.05l101.39-101.39l7.84-36.12
			l28.59-0.31L377.26,234.14z"/>
		<g>
			<g>
				<g>
					<line class="st1" x1="214.39" y1="211.14" x2="243.21" y2="239.96"/>
				</g>
				<g>
					<line class="st1" x1="254.82" y1="251.56" x2="266.21" y2="262.95"/>
				</g>
			</g>
			<g>
				<g>
					<line class="st1" x1="191.47" y1="373.49" x2="162.65" y2="344.67"/>
				</g>
				<g>
					<line class="st1" x1="151.05" y1="333.07" x2="139.66" y2="321.68"/>
				</g>
			</g>
			<line class="st1" x1="379.98" y1="173" x2="421.46" y2="131.52"/>
			<line class="st1" x1="322.83" y1="115.86" x2="390.49" y2="48.2"/>
			<line class="st1" x1="297.2" y1="198.64" x2="347.23" y2="148.61"/>
			<line class="st1" x1="361.04" y1="134.79" x2="374.76" y2="121.07"/>
			<path class="st1" d="M305.11,243l-7.84,36.12L195.88,380.52c-25.74,25.74-61.27,39.23-97.61,37.05l-18.08-1.08l-1.32-18.19
				c-2.68-36.87,10.81-73.08,36.95-99.22l100.71-100.71l36.12-7.84L305.11,243z"/>
			<polygon class="st1" points="376.26,200.14 333.7,242.7 305.42,242.7 252.96,190.24 252.96,161.95 295.52,119.39 314.34,180.91 
							"/>
			<line class="st1" x1="98.22" y1="321.1" x2="174.73" y2="397.62"/>
			<line class="st1" x1="158" y1="209.92" x2="225.65" y2="142.27"/>
			<line class="st1" x1="332.42" y1="296.51" x2="400.08" y2="228.85"/>
		</g>
	</g>
</g>
</svg>
