<?xml version="1.0" encoding="utf-8"?>
<!-- Generator: Adobe Illustrator 26.0.1, SVG Export Plug-In . SVG Version: 6.00 Build 0)  -->
<svg version="1.1" xmlns="http://www.w3.org/2000/svg" xmlns:xlink="http://www.w3.org/1999/xlink" x="0px" y="0px"
	 viewBox="0 0 500 500" style="enable-background:new 0 0 500 500;" xml:space="preserve">
<style type="text/css">
	.st0{fill:#F5333F;}
	.st1{fill:none;stroke:#011E41;stroke-width:16;stroke-miterlimit:10;}
	.st2{display:none;}
	.st3{display:inline;}
	.st4{fill:none;stroke:#D1D3D4;stroke-width:2;stroke-miterlimit:10;}
	.st5{display:inline;fill:none;stroke:#BCBEC0;stroke-width:4;stroke-miterlimit:10;}
	.st6{fill:none;stroke:#BCBEC0;stroke-width:4;stroke-miterlimit:10;}
	.st7{display:inline;fill:none;stroke:#D1D3D4;stroke-width:2;stroke-miterlimit:10;}
	.st8{display:none;opacity:0.35;fill:none;stroke:#000000;stroke-width:16;stroke-miterlimit:10;}
	.st9{fill:none;stroke:#011E41;stroke-width:16;stroke-linejoin:bevel;stroke-miterlimit:10;}
	.st10{fill:none;stroke:#F5333F;stroke-width:16;stroke-miterlimit:10;}
	.st11{fill:#011E41;}
	.st12{fill:none;stroke:#011E41;stroke-width:16;stroke-linecap:square;stroke-miterlimit:10;}
	.st13{fill:none;stroke:#011E41;stroke-width:16;stroke-linecap:round;stroke-miterlimit:10;}
	.st14{fill:none;stroke:#EF3741;stroke-width:16;stroke-miterlimit:10;}
	.st15{fill:#F5333F;stroke:#011E41;stroke-width:16;stroke-miterlimit:10;}
	.st16{fill:#EF3741;}
	.st17{fill:none;stroke:#011E41;stroke-width:8;stroke-miterlimit:10;}
	.st18{fill:none;stroke:#E73843;stroke-width:16;stroke-miterlimit:10;}
	.st19{fill:none;stroke:#011E41;stroke-width:13.4168;stroke-miterlimit:10;}
	.st20{fill:none;stroke:#011E41;stroke-width:13.8969;stroke-miterlimit:10;}
	.st21{fill:none;stroke:#011E41;stroke-width:14.2064;stroke-miterlimit:10;}
	.st22{fill:none;stroke:#011E41;stroke-width:15.0584;stroke-miterlimit:10;}
	.st23{fill:none;stroke:#011E41;stroke-width:15.1473;stroke-miterlimit:10;}
	.st24{fill:none;stroke:#011E41;stroke-width:16.5604;stroke-miterlimit:10;}
	.st25{fill:none;stroke:#011E41;stroke-width:14.3418;stroke-miterlimit:10;}
	.st26{fill:none;stroke:#011E41;stroke-width:15.8515;stroke-miterlimit:10;}
	.st27{fill:#F53340;}
</style>
<g id="Icons">
	<g>
		<path class="st0" d="M277.13,195.41l35.01,47.14c3.41,4.59,8.78,7.29,14.5,7.29h17.42c12.66,0,23.9-8.12,27.87-20.15l9.57-43.4
			c5.31-24.08,5.16-49.05-0.44-73.06l0,0c-2.21-9.49-10.68-16.21-20.43-16.21H165.61c-9.75,0-18.21,6.72-20.43,16.21l0,0
			c-5.6,24.02-5.75,48.98-0.44,73.06l9.57,43.4c3.97,12.02,15.21,20.15,27.87,20.15h17.42c5.71,0,11.09-2.7,14.5-7.29l35.01-47.14
			c3.29-4.43,8.49-7.04,14.01-7.04l0,0C268.64,188.36,273.84,190.97,277.13,195.41z"/>
		<g>
			<path class="st1" d="M263.13,211.41l35.01,47.14c3.41,4.59,8.78,7.29,14.5,7.29h17.42c12.66,0,23.9-8.12,27.87-20.15l9.57-43.4
				c5.31-24.08,5.16-49.05-0.44-73.06l0,0c-2.21-9.49-10.68-16.21-20.43-16.21H151.61c-9.75,0-18.21,6.72-20.43,16.21l0,0
				c-5.6,24.02-5.75,48.98-0.44,73.06l9.57,43.4c3.97,12.02,15.21,20.15,27.87,20.15h17.42c5.71,0,11.09-2.7,14.5-7.29l35.01-47.14
				c3.29-4.43,8.49-7.04,14.01-7.04h0C254.64,204.36,259.84,206.97,263.13,211.41z"/>
			<path class="st1" d="M149.2,110.99c20.54-33.5,57.5-55.85,99.67-55.85c42.52,0,79.74,22.72,100.18,56.67"/>
			<path class="st1" d="M314.38,244.31h15.68c3.13,0,5.92-1.85,7.16-4.67l9.26-41.99c4.56-20.67,4.46-42.48-0.28-63.11H152.05
				c-4.74,20.63-4.84,42.44-0.28,63.11l9.26,41.99c1.24,2.82,4.03,4.67,7.16,4.67h15.68l33.97-45.74
				c7.32-9.85,19.02-15.74,31.29-15.74s23.97,5.88,31.29,15.74L314.38,244.31z"/>
			<path class="st11" d="M249.12,224.24c0,0,0.01,0.01,0.01,0.01L249.12,224.24z"/>
			<path class="st1" d="M175.03,262.31v72.35l5.25,1.61c46.87,14.33,96.34,13.78,142.94-1.61l0-71.87"/>
			<path class="st1" d="M273.76,191.63l44.38,27.16c10.61,6.14,24.71-0.59,24.77-11.9c0-0.14,0-0.29,0-0.43
				c0-30.52-18.2-57.24-45.41-71.92"/>
			<path class="st1" d="M202.01,134.54c-27.21,14.68-45.41,41.4-45.41,71.92c0,0.08,0,0.17,0,0.25
				c0.04,11.35,14.26,18.07,24.86,11.84L226.44,190"/>
			<g>
				<line class="st1" x1="178.85" y1="305.31" x2="208.37" y2="315.92"/>
				<line class="st1" x1="208.37" y1="282.51" x2="178.85" y2="293.12"/>
			</g>
			<g>
				<line class="st1" x1="318.9" y1="293.12" x2="289.38" y2="282.51"/>
				<line class="st1" x1="289.38" y1="315.92" x2="318.9" y2="305.31"/>
			</g>
			<line class="st1" x1="323.22" y1="334.66" x2="356.83" y2="334.33"/>
			<line class="st1" x1="141.96" y1="334.66" x2="175.57" y2="334.33"/>
			<path class="st1" d="M187.5,369.01c8.97,1.56,18.06,2.9,26.47,4.01c25.78,3.42,51.89,3.3,77.65-0.31
				c7.17-1,14.78-2.18,22.34-3.52"/>
			<path class="st1" d="M147.25,260.56L147.25,260.56c-6.73,6.57-6.73,17.4,0,23.97l0,0h0c-6.85,6.68-7.16,17.59-0.7,24.65l0.7,0.76
				l0,0c-6.65,5.71-7.08,15.84-0.94,22.09l0.94,0.95l0,0c-6.69,6.25-6.8,16.82-0.25,23.21l-76.57,41.79l1.08,0.6
				c111.41,61.9,246.93,61.67,358.13-0.6l0,0l-76.57-41.79c6.55-6.39,6.43-16.96-0.25-23.21l0,0l0.94-0.95
				c6.14-6.25,5.71-16.39-0.94-22.09v0l0.7-0.76c6.46-7.06,6.15-17.97-0.7-24.65l0,0l0,0c6.73-6.57,6.73-17.4,0-23.97l0,0"/>
		</g>
		<path class="st1" d="M136.25,227.28h-15.51c-5.75,0-10.42-6.65-10.42-14.85l-3-52.58c0-8.2,4.66-14.85,10.42-14.85h8.25"/>
		<path class="st1" d="M372.53,145h7.97c5.75,0,10.42,6.65,10.42,14.85l-4,52.58c0,8.2-4.66,14.85-10.42,14.85H362"/>
	</g>
</g>
<g id="Text">
</g>
</svg>
