<?xml version="1.0" encoding="utf-8"?>
<!-- Generator: Adobe Illustrator 26.0.1, SVG Export Plug-In . SVG Version: 6.00 Build 0)  -->
<svg version="1.1" xmlns="http://www.w3.org/2000/svg" xmlns:xlink="http://www.w3.org/1999/xlink" x="0px" y="0px"
	 viewBox="0 0 500 500" style="enable-background:new 0 0 500 500;" xml:space="preserve">
<style type="text/css">
	.st0{fill:#F5333F;}
	.st1{fill:none;stroke:#011E41;stroke-width:16;stroke-miterlimit:10;}
	.st2{display:none;}
	.st3{display:inline;}
	.st4{fill:none;stroke:#D1D3D4;stroke-width:2;stroke-miterlimit:10;}
	.st5{display:inline;fill:none;stroke:#BCBEC0;stroke-width:4;stroke-miterlimit:10;}
	.st6{fill:none;stroke:#BCBEC0;stroke-width:4;stroke-miterlimit:10;}
	.st7{display:inline;fill:none;stroke:#D1D3D4;stroke-width:2;stroke-miterlimit:10;}
	.st8{display:none;opacity:0.35;fill:none;stroke:#000000;stroke-width:16;stroke-miterlimit:10;}
	.st9{fill:none;stroke:#011E41;stroke-width:16;stroke-linejoin:bevel;stroke-miterlimit:10;}
	.st10{fill:none;stroke:#F5333F;stroke-width:16;stroke-miterlimit:10;}
	.st11{fill:#011E41;}
	.st12{fill:none;stroke:#011E41;stroke-width:16;stroke-linecap:square;stroke-miterlimit:10;}
	.st13{fill:none;stroke:#011E41;stroke-width:16;stroke-linecap:round;stroke-miterlimit:10;}
	.st14{fill:none;stroke:#EF3741;stroke-width:16;stroke-miterlimit:10;}
	.st15{fill:#F5333F;stroke:#011E41;stroke-width:16;stroke-miterlimit:10;}
	.st16{fill:#EF3741;}
	.st17{fill:none;stroke:#011E41;stroke-width:8;stroke-miterlimit:10;}
	.st18{fill:none;stroke:#E73843;stroke-width:16;stroke-miterlimit:10;}
	.st19{fill:none;stroke:#011E41;stroke-width:13.4168;stroke-miterlimit:10;}
	.st20{fill:none;stroke:#011E41;stroke-width:13.8969;stroke-miterlimit:10;}
	.st21{fill:none;stroke:#011E41;stroke-width:14.2064;stroke-miterlimit:10;}
	.st22{fill:none;stroke:#011E41;stroke-width:15.0584;stroke-miterlimit:10;}
	.st23{fill:none;stroke:#011E41;stroke-width:15.1473;stroke-miterlimit:10;}
	.st24{fill:none;stroke:#011E41;stroke-width:16.5604;stroke-miterlimit:10;}
	.st25{fill:none;stroke:#011E41;stroke-width:14.3418;stroke-miterlimit:10;}
	.st26{fill:none;stroke:#011E41;stroke-width:15.8515;stroke-miterlimit:10;}
	.st27{fill:#F53340;}
</style>
<g id="Icons">
	<g>
		<rect x="151.91" y="122.07" class="st0" width="156.18" height="275.87"/>
		<rect x="171.91" y="102.07" class="st1" width="156.18" height="275.87"/>
		<polyline class="st1" points="329.34,198.81 426.66,198.81 426.66,377.93 329.34,377.93 		"/>
		<rect x="219.88" y="289.57" class="st1" width="60.23" height="88.36"/>
		<rect x="355.03" y="225.8" class="st1" width="45.95" height="25.13"/>
		<rect x="355.03" y="275.8" class="st1" width="45.95" height="25.13"/>
		<rect x="355.03" y="325.8" class="st1" width="45.95" height="25.13"/>
		<polyline class="st1" points="171.48,198.81 74.16,198.81 74.16,377.93 171.48,377.93 		"/>
		
			<rect x="99.84" y="225.8" transform="matrix(-1 -4.481228e-11 4.481228e-11 -1 245.6341 476.7394)" class="st1" width="45.95" height="25.13"/>
		
			<rect x="99.84" y="275.8" transform="matrix(-1 -4.481228e-11 4.481228e-11 -1 245.6341 576.7388)" class="st1" width="45.95" height="25.13"/>
		
			<rect x="99.84" y="325.8" transform="matrix(-1 -4.504986e-11 4.504986e-11 -1 245.6341 676.7383)" class="st1" width="45.95" height="25.13"/>
		<path class="st1" d="M247.87,191.63c0-20.78,13.66-38.44,32.48-45.28v-0.09c-0.98-0.35-1.98-0.68-2.99-0.97
			c-4.45-1.3-9.15-2.02-14.03-2.02c-27.34,0-49.5,21.66-49.5,48.37c0,26.72,22.16,48.37,49.5,48.37c5.67,0,11.83-0.53,16.89-2.25
			l0-0.3C261.29,230.66,247.87,212.49,247.87,191.63z"/>
	</g>
</g>
<g id="Text">
</g>
</svg>
