<?xml version="1.0" encoding="utf-8"?>
<!-- Generator: Adobe Illustrator 26.0.1, SVG Export Plug-In . SVG Version: 6.00 Build 0)  -->
<svg version="1.1" xmlns="http://www.w3.org/2000/svg" xmlns:xlink="http://www.w3.org/1999/xlink" x="0px" y="0px"
	 viewBox="0 0 500 500" style="enable-background:new 0 0 500 500;" xml:space="preserve">
<style type="text/css">
	.st0{fill:#F5333F;}
	.st1{fill:none;stroke:#011E41;stroke-width:16;stroke-miterlimit:10;}
	.st2{display:none;}
	.st3{display:inline;}
	.st4{fill:none;stroke:#D1D3D4;stroke-width:2;stroke-miterlimit:10;}
	.st5{display:inline;fill:none;stroke:#BCBEC0;stroke-width:4;stroke-miterlimit:10;}
	.st6{fill:none;stroke:#BCBEC0;stroke-width:4;stroke-miterlimit:10;}
	.st7{display:inline;fill:none;stroke:#D1D3D4;stroke-width:2;stroke-miterlimit:10;}
	.st8{display:none;opacity:0.35;fill:none;stroke:#000000;stroke-width:16;stroke-miterlimit:10;}
	.st9{fill:none;stroke:#011E41;stroke-width:16;stroke-linejoin:bevel;stroke-miterlimit:10;}
	.st10{fill:none;stroke:#F5333F;stroke-width:16;stroke-miterlimit:10;}
	.st11{fill:#011E41;}
	.st12{fill:none;stroke:#011E41;stroke-width:16;stroke-linecap:square;stroke-miterlimit:10;}
	.st13{fill:none;stroke:#011E41;stroke-width:16;stroke-linecap:round;stroke-miterlimit:10;}
	.st14{fill:none;stroke:#EF3741;stroke-width:16;stroke-miterlimit:10;}
	.st15{fill:#F5333F;stroke:#011E41;stroke-width:16;stroke-miterlimit:10;}
	.st16{fill:#EF3741;}
	.st17{fill:none;stroke:#011E41;stroke-width:8;stroke-miterlimit:10;}
	.st18{fill:none;stroke:#E73843;stroke-width:16;stroke-miterlimit:10;}
	.st19{fill:none;stroke:#011E41;stroke-width:13.4168;stroke-miterlimit:10;}
	.st20{fill:none;stroke:#011E41;stroke-width:13.8969;stroke-miterlimit:10;}
	.st21{fill:none;stroke:#011E41;stroke-width:14.2064;stroke-miterlimit:10;}
	.st22{fill:none;stroke:#011E41;stroke-width:15.0584;stroke-miterlimit:10;}
	.st23{fill:none;stroke:#011E41;stroke-width:15.1473;stroke-miterlimit:10;}
	.st24{fill:none;stroke:#011E41;stroke-width:16.5604;stroke-miterlimit:10;}
	.st25{fill:none;stroke:#011E41;stroke-width:14.3418;stroke-miterlimit:10;}
	.st26{fill:none;stroke:#011E41;stroke-width:15.8515;stroke-miterlimit:10;}
	.st27{fill:#F53340;}
</style>
<g id="Icons">
	<g>
		<rect x="177.44" y="330.55" class="st1" width="145.31" height="116.89"/>
		<g>
			<line class="st1" x1="177.91" y1="373.6" x2="321.84" y2="373.6"/>
			<line class="st1" x1="177.91" y1="404.38" x2="321.84" y2="404.38"/>
		</g>
		<g>
			<line class="st1" x1="199.55" y1="330.55" x2="113.22" y2="253.19"/>
			<line class="st1" x1="225.61" y1="325.76" x2="213.69" y2="265.79"/>
			<line class="st1" x1="300.64" y1="330.55" x2="386.97" y2="253.19"/>
			<line class="st1" x1="274.59" y1="325.76" x2="286.51" y2="265.79"/>
		</g>
		<path class="st0" d="M230.1,52.56L230.1,52.56c-80.55,0-145.85,65.3-145.85,145.85v0.06c0,20.52,16.79,37.71,37.31,37.31
			c18.64-0.36,33.86-14.64,35.7-32.88c2.21,18.5,18.02,33.24,37.04,32.88c19.88-0.38,35.89-16.62,35.89-36.59
			c0,19.97,15.45,36.21,35.34,36.59c19.84,0.38,36.2-15.68,37.26-35.3c0.67,19.38,16.4,34.93,35.85,35.3
			c20.52,0.39,37.31-16.79,37.31-37.31v-0.06C375.94,117.86,310.65,52.56,230.1,52.56z"/>
		<g>
			<path class="st1" d="M177.45,229.19c0,19.97-16,36.21-35.89,36.59c-20.52,0.39-37.31-16.79-37.31-37.31v-0.06
				c0-80.55,65.3-145.85,145.85-145.85h0c80.55,0,145.85,65.3,145.85,145.85v0.06c0,20.52-16.79,37.71-37.31,37.31
				c-19.88-0.38-35.89-16.62-35.89-36.59"/>
		</g>
		<path class="st1" d="M250.19,229.19c0,19.97,15.45,36.21,35.34,36.59c20.52,0.39,37.31-16.79,37.31-37.31v-0.06
			c0-65.35-21.9-124.62-73.19-144.65l-0.11,0.01c-50.84,20.27-72.55,79.55-72.55,144.64v0.06c0,20.52,16.79,37.71,37.31,37.31
			C234.18,265.4,250.19,249.16,250.19,229.19l-0.63-142.01"/>
	</g>
</g>
<g id="Text">
</g>
</svg>
