<?xml version="1.0" encoding="utf-8"?>
<!-- Generator: Adobe Illustrator 26.0.1, SVG Export Plug-In . SVG Version: 6.00 Build 0)  -->
<svg version="1.1" xmlns="http://www.w3.org/2000/svg" xmlns:xlink="http://www.w3.org/1999/xlink" x="0px" y="0px"
	 viewBox="0 0 500 500" style="enable-background:new 0 0 500 500;" xml:space="preserve">
<style type="text/css">
	.st0{fill:#F5333F;}
	.st1{fill:none;stroke:#011E41;stroke-width:16;stroke-miterlimit:10;}
	.st2{display:none;}
	.st3{display:inline;}
	.st4{fill:none;stroke:#D1D3D4;stroke-width:2;stroke-miterlimit:10;}
	.st5{display:inline;fill:none;stroke:#BCBEC0;stroke-width:4;stroke-miterlimit:10;}
	.st6{fill:none;stroke:#BCBEC0;stroke-width:4;stroke-miterlimit:10;}
	.st7{display:inline;fill:none;stroke:#D1D3D4;stroke-width:2;stroke-miterlimit:10;}
	.st8{display:none;opacity:0.35;fill:none;stroke:#000000;stroke-width:16;stroke-miterlimit:10;}
	.st9{fill:none;stroke:#011E41;stroke-width:16;stroke-linejoin:bevel;stroke-miterlimit:10;}
	.st10{fill:none;stroke:#F5333F;stroke-width:16;stroke-miterlimit:10;}
	.st11{fill:#011E41;}
	.st12{fill:none;stroke:#011E41;stroke-width:16;stroke-linecap:square;stroke-miterlimit:10;}
	.st13{fill:none;stroke:#011E41;stroke-width:16;stroke-linecap:round;stroke-miterlimit:10;}
	.st14{fill:none;stroke:#EF3741;stroke-width:16;stroke-miterlimit:10;}
	.st15{fill:#F5333F;stroke:#011E41;stroke-width:16;stroke-miterlimit:10;}
	.st16{fill:#EF3741;}
	.st17{fill:none;stroke:#011E41;stroke-width:8;stroke-miterlimit:10;}
	.st18{fill:none;stroke:#E73843;stroke-width:16;stroke-miterlimit:10;}
	.st19{fill:none;stroke:#011E41;stroke-width:13.4168;stroke-miterlimit:10;}
	.st20{fill:none;stroke:#011E41;stroke-width:13.8969;stroke-miterlimit:10;}
	.st21{fill:none;stroke:#011E41;stroke-width:14.2064;stroke-miterlimit:10;}
	.st22{fill:none;stroke:#011E41;stroke-width:15.0584;stroke-miterlimit:10;}
	.st23{fill:none;stroke:#011E41;stroke-width:15.1473;stroke-miterlimit:10;}
	.st24{fill:none;stroke:#011E41;stroke-width:16.5604;stroke-miterlimit:10;}
	.st25{fill:none;stroke:#011E41;stroke-width:14.3418;stroke-miterlimit:10;}
	.st26{fill:none;stroke:#011E41;stroke-width:15.8515;stroke-miterlimit:10;}
	.st27{fill:#F53340;}
</style>
<g id="Icons">
	<g>
		<circle class="st0" cx="250" cy="250.57" r="102.21"/>
		<g>
			<circle class="st1" cx="250" cy="250" r="151.12"/>
			<g>
				<circle class="st11" cx="250" cy="123.49" r="9.27"/>
				<circle class="st11" cx="250" cy="376.12" r="9.27"/>
				<circle class="st11" cx="123.68" cy="249.8" r="9.27"/>
				<circle class="st11" cx="376.32" cy="249.8" r="9.27"/>
				<circle class="st11" cx="160.68" cy="160.48" r="9.27"/>
				<circle class="st11" cx="339.32" cy="339.12" r="9.27"/>
				<circle class="st11" cx="160.68" cy="339.12" r="9.27"/>
				<circle class="st11" cx="339.32" cy="160.48" r="9.27"/>
				<circle class="st11" cx="202.52" cy="132.75" r="9.27"/>
				<circle class="st11" cx="297.48" cy="366.85" r="9.27"/>
				<circle class="st11" cx="132.95" cy="297.28" r="9.27"/>
				<circle class="st11" cx="367.05" cy="202.32" r="9.27"/>
				<circle class="st11" cx="133.66" cy="200.61" r="9.27"/>
				<circle class="st11" cx="366.34" cy="299" r="9.27"/>
				<circle class="st11" cx="200.81" cy="366.15" r="9.27"/>
				<circle class="st11" cx="299.19" cy="133.46" r="9.27"/>
				<circle class="st11" cx="233.51" cy="124.57" r="9.27"/>
				<circle class="st11" cx="266.49" cy="375.04" r="9.27"/>
				<circle class="st11" cx="124.76" cy="266.29" r="9.27"/>
				<circle class="st11" cx="375.24" cy="233.32" r="9.27"/>
				<circle class="st11" cx="149.79" cy="172.91" r="9.27"/>
				<circle class="st11" cx="350.21" cy="326.7" r="9.27"/>
				<circle class="st11" cx="173.1" cy="350.01" r="9.27"/>
				<circle class="st11" cx="326.9" cy="149.59" r="9.27"/>
				<circle class="st11" cx="187.65" cy="139.95" r="9.27"/>
				<circle class="st11" cx="312.35" cy="359.66" r="9.27"/>
				<circle class="st11" cx="140.15" cy="312.15" r="9.27"/>
				<circle class="st11" cx="359.85" cy="187.45" r="9.27"/>
				<circle class="st11" cx="128.23" cy="216.21" r="9.27"/>
				<circle class="st11" cx="371.77" cy="283.39" r="9.27"/>
				<circle class="st11" cx="216.41" cy="371.57" r="9.27"/>
				<circle class="st11" cx="283.59" cy="128.04" r="9.27"/>
				<circle class="st11" cx="217.01" cy="127.87" r="9.27"/>
				<circle class="st11" cx="282.99" cy="371.73" r="9.27"/>
				<circle class="st11" cx="128.07" cy="282.8" r="9.27"/>
				<circle class="st11" cx="371.93" cy="216.81" r="9.27"/>
				<circle class="st11" cx="140.45" cy="186.92" r="9.27"/>
				<circle class="st11" cx="359.55" cy="312.69" r="9.27"/>
				<circle class="st11" cx="187.11" cy="359.35" r="9.27"/>
				<circle class="st11" cx="312.89" cy="140.25" r="9.27"/>
				<circle class="st11" cx="173.59" cy="149.22" r="9.27"/>
				<circle class="st11" cx="326.41" cy="350.39" r="9.27"/>
				<circle class="st11" cx="149.41" cy="326.21" r="9.27"/>
				<circle class="st11" cx="350.59" cy="173.39" r="9.27"/>
				<circle class="st11" cx="124.85" cy="232.71" r="9.27"/>
				<circle class="st11" cx="375.15" cy="266.9" r="9.27"/>
				<circle class="st11" cx="232.9" cy="374.96" r="9.27"/>
				<circle class="st11" cx="267.1" cy="124.65" r="9.27"/>
			</g>
			<g>
				<g>
					<line class="st1" x1="269.04" y1="45.31" x2="208.51" y2="48.66"/>
					<line class="st1" x1="238.78" y1="46.98" x2="241.66" y2="99.11"/>
				</g>
				<g>
					<line class="st1" x1="281.65" y1="70.66" x2="276.27" y2="101.18"/>
				</g>
			</g>
			<g>
				<g>
					<line class="st1" x1="454.69" y1="269.04" x2="451.34" y2="208.51"/>
					<line class="st1" x1="453.02" y1="238.78" x2="400.89" y2="241.66"/>
				</g>
				<g>
					<line class="st1" x1="429.34" y1="281.65" x2="398.82" y2="276.27"/>
				</g>
			</g>
			<g>
				<g>
					<line class="st1" x1="230.96" y1="454.69" x2="291.49" y2="451.34"/>
					<line class="st1" x1="261.22" y1="453.02" x2="258.34" y2="400.89"/>
				</g>
				<g>
					<line class="st1" x1="218.35" y1="429.34" x2="223.73" y2="398.82"/>
				</g>
			</g>
			<g>
				<g>
					<line class="st1" x1="45.31" y1="230.96" x2="48.66" y2="291.49"/>
					<line class="st1" x1="46.98" y1="261.22" x2="99.11" y2="258.34"/>
				</g>
				<g>
					<line class="st1" x1="70.66" y1="218.35" x2="101.18" y2="223.73"/>
				</g>
			</g>
			<g>
				<g>
					<line class="st1" x1="369.75" y1="82.9" x2="315.81" y2="55.24"/>
					<line class="st1" x1="342.78" y1="69.07" x2="318.95" y2="115.53"/>
				</g>
				<g>
					<line class="st1" x1="367.84" y1="111.15" x2="347.79" y2="134.78"/>
				</g>
			</g>
			<g>
				<g>
					<line class="st1" x1="417.1" y1="369.75" x2="444.76" y2="315.81"/>
					<line class="st1" x1="430.93" y1="342.78" x2="384.47" y2="318.95"/>
				</g>
				<g>
					<line class="st1" x1="388.85" y1="367.84" x2="365.22" y2="347.79"/>
				</g>
			</g>
			<g>
				<g>
					<line class="st1" x1="130.25" y1="417.1" x2="184.19" y2="444.76"/>
					<line class="st1" x1="157.22" y1="430.93" x2="181.05" y2="384.47"/>
				</g>
				<g>
					<line class="st1" x1="132.16" y1="388.85" x2="152.21" y2="365.22"/>
				</g>
			</g>
			<g>
				<g>
					<line class="st1" x1="82.9" y1="130.25" x2="55.24" y2="184.19"/>
					<line class="st1" x1="69.07" y1="157.22" x2="115.53" y2="181.05"/>
				</g>
				<g>
					<line class="st1" x1="111.15" y1="132.16" x2="134.78" y2="152.21"/>
				</g>
			</g>
			<g>
				<g>
					<line class="st1" x1="437.71" y1="166.18" x2="405.11" y2="115.08"/>
					<line class="st1" x1="421.41" y1="140.63" x2="377.4" y2="168.71"/>
				</g>
				<g>
					<line class="st1" x1="421.81" y1="189.61" x2="392.57" y2="199.89"/>
				</g>
			</g>
			<g>
				<g>
					<line class="st1" x1="333.82" y1="437.71" x2="384.92" y2="405.11"/>
					<line class="st1" x1="359.37" y1="421.41" x2="331.29" y2="377.4"/>
				</g>
				<g>
					<line class="st1" x1="310.39" y1="421.81" x2="300.11" y2="392.57"/>
				</g>
			</g>
			<g>
				<g>
					<line class="st1" x1="62.29" y1="333.82" x2="94.89" y2="384.92"/>
					<line class="st1" x1="78.59" y1="359.37" x2="122.6" y2="331.29"/>
				</g>
				<g>
					<line class="st1" x1="78.19" y1="310.39" x2="107.43" y2="300.11"/>
				</g>
			</g>
			<g>
				<g>
					<line class="st1" x1="166.18" y1="62.29" x2="115.08" y2="94.89"/>
					<line class="st1" x1="140.63" y1="78.59" x2="168.71" y2="122.6"/>
				</g>
				<g>
					<line class="st1" x1="189.61" y1="78.19" x2="199.89" y2="107.43"/>
				</g>
			</g>
			<path class="st1" d="M170.68,291.8c0,0-3.82-96.08,19.69-100.13c23.52-4.06-8.51,130.57,18.54,130.72
				c28.96,0.16,2.5-149.25,29.36-149.25s0.12,162.97,23.85,162.58s9.79-153.75,29.59-153.31c19.8,0.44,2.92,111.7,23.54,113.16
				c20.62,1.46,18.89-83.96,18.89-83.96"/>
			<circle class="st11" cx="60.41" cy="217.53" r="14.44"/>
			<circle class="st11" cx="105.94" cy="127.73" r="14.44"/>
			<circle class="st11" cx="186.96" cy="70.66" r="14.44"/>
			<circle class="st11" cx="282.99" cy="63.07" r="14.44"/>
			<circle class="st11" cx="371.93" cy="106.34" r="14.44"/>
			<circle class="st11" cx="426.95" cy="186.92" r="14.44"/>
			<circle class="st11" cx="435.82" cy="282.8" r="14.44"/>
			<circle class="st11" cx="393.43" cy="371.73" r="14.44"/>
			<circle class="st11" cx="312.89" cy="426.95" r="14.44"/>
			<circle class="st11" cx="217.01" cy="436.93" r="14.44"/>
			<circle class="st11" cx="127.36" cy="394.5" r="14.44"/>
			<circle class="st11" cx="71.64" cy="312.69" r="14.44"/>
			<circle class="st11" cx="224.63" cy="250" r="14.44"/>
			<circle class="st11" cx="303.62" cy="240.22" r="14.44"/>
			<circle class="st11" cx="275.76" cy="302.88" r="14.44"/>
		</g>
	</g>
</g>
<g id="Text">
</g>
</svg>
