<?xml version="1.0" encoding="utf-8"?>
<!-- Generator: Adobe Illustrator 26.0.1, SVG Export Plug-In . SVG Version: 6.00 Build 0)  -->
<svg version="1.1" xmlns="http://www.w3.org/2000/svg" xmlns:xlink="http://www.w3.org/1999/xlink" x="0px" y="0px"
	 viewBox="0 0 500 500" style="enable-background:new 0 0 500 500;" xml:space="preserve">
<style type="text/css">
	.st0{fill:#F5333F;}
	.st1{fill:none;stroke:#011E41;stroke-width:16;stroke-miterlimit:10;}
	.st2{display:none;}
	.st3{display:inline;}
	.st4{fill:none;stroke:#D1D3D4;stroke-width:2;stroke-miterlimit:10;}
	.st5{display:inline;fill:none;stroke:#BCBEC0;stroke-width:4;stroke-miterlimit:10;}
	.st6{fill:none;stroke:#BCBEC0;stroke-width:4;stroke-miterlimit:10;}
	.st7{display:inline;fill:none;stroke:#D1D3D4;stroke-width:2;stroke-miterlimit:10;}
	.st8{display:none;opacity:0.35;fill:none;stroke:#000000;stroke-width:16;stroke-miterlimit:10;}
	.st9{fill:none;stroke:#011E41;stroke-width:16;stroke-linejoin:bevel;stroke-miterlimit:10;}
	.st10{fill:none;stroke:#F5333F;stroke-width:16;stroke-miterlimit:10;}
	.st11{fill:#011E41;}
	.st12{fill:none;stroke:#011E41;stroke-width:16;stroke-linecap:square;stroke-miterlimit:10;}
	.st13{fill:none;stroke:#011E41;stroke-width:16;stroke-linecap:round;stroke-miterlimit:10;}
	.st14{fill:none;stroke:#EF3741;stroke-width:16;stroke-miterlimit:10;}
	.st15{fill:#F5333F;stroke:#011E41;stroke-width:16;stroke-miterlimit:10;}
	.st16{fill:#EF3741;}
	.st17{fill:none;stroke:#011E41;stroke-width:8;stroke-miterlimit:10;}
	.st18{fill:none;stroke:#E73843;stroke-width:16;stroke-miterlimit:10;}
	.st19{fill:none;stroke:#011E41;stroke-width:13.4168;stroke-miterlimit:10;}
	.st20{fill:none;stroke:#011E41;stroke-width:13.8969;stroke-miterlimit:10;}
	.st21{fill:none;stroke:#011E41;stroke-width:14.2064;stroke-miterlimit:10;}
	.st22{fill:none;stroke:#011E41;stroke-width:15.0584;stroke-miterlimit:10;}
	.st23{fill:none;stroke:#011E41;stroke-width:15.1473;stroke-miterlimit:10;}
	.st24{fill:none;stroke:#011E41;stroke-width:16.5604;stroke-miterlimit:10;}
	.st25{fill:none;stroke:#011E41;stroke-width:14.3418;stroke-miterlimit:10;}
	.st26{fill:none;stroke:#011E41;stroke-width:15.8515;stroke-miterlimit:10;}
	.st27{fill:#F53340;}
</style>
<g id="Icons">
	<g>
		<g>
			<path class="st1" d="M289.26,395.83L289.26,395.83c0-17.49-12.41-32.53-29.58-35.84l-28.1-5.43
				c-49.57-9.58-69.43-69.81-35.28-106.99l108.84-118.48c19.51-21.24,30.34-49.03,30.34-77.87v0"/>
			<path class="st1" d="M394.26,328.11c0,29.78-24.14,53.93-53.93,53.93"/>
			<path class="st1" d="M284.88,324.53h55.45c6.15,0,11.14,4.99,11.14,11.14v0c0,6.15-4.99,11.14-11.14,11.14"/>
		</g>
		<g>
			<g>
				<path class="st10" d="M158.66,341.79c0,9.74-7.9,17.64-17.64,17.64h0c-9.74,0-17.64,7.9-17.64,17.64v0
					c0,9.74-7.9,17.64-17.64,17.64"/>
				<path class="st10" d="M185.69,368.83c0,9.74-7.9,17.64-17.64,17.64h0c-9.74,0-17.64,7.9-17.64,17.64v0
					c0,9.74-7.9,17.64-17.64,17.64"/>
				<path class="st10" d="M212.73,395.87c0,9.74-7.9,17.64-17.64,17.64h0c-9.74,0-17.64,7.9-17.64,17.64v0
					c0,9.74-7.9,17.64-17.64,17.64"/>
			</g>
		</g>
	</g>
</g>
<g id="Text">
</g>
</svg>
