<?xml version="1.0" encoding="utf-8"?>
<!-- Generator: Adobe Illustrator 26.0.1, SVG Export Plug-In . SVG Version: 6.00 Build 0)  -->
<svg version="1.1" xmlns="http://www.w3.org/2000/svg" xmlns:xlink="http://www.w3.org/1999/xlink" x="0px" y="0px"
	 viewBox="0 0 500 500" style="enable-background:new 0 0 500 500;" xml:space="preserve">
<style type="text/css">
	.st0{fill:#F5333F;}
	.st1{fill:none;stroke:#011E41;stroke-width:16;stroke-miterlimit:10;}
	.st2{display:none;}
	.st3{display:inline;}
	.st4{fill:none;stroke:#D1D3D4;stroke-width:2;stroke-miterlimit:10;}
	.st5{display:inline;fill:none;stroke:#BCBEC0;stroke-width:4;stroke-miterlimit:10;}
	.st6{fill:none;stroke:#BCBEC0;stroke-width:4;stroke-miterlimit:10;}
	.st7{display:inline;fill:none;stroke:#D1D3D4;stroke-width:2;stroke-miterlimit:10;}
	.st8{display:none;opacity:0.35;fill:none;stroke:#000000;stroke-width:16;stroke-miterlimit:10;}
	.st9{fill:none;stroke:#011E41;stroke-width:16;stroke-linejoin:bevel;stroke-miterlimit:10;}
	.st10{fill:none;stroke:#F5333F;stroke-width:16;stroke-miterlimit:10;}
	.st11{fill:#011E41;}
	.st12{fill:none;stroke:#011E41;stroke-width:16;stroke-linecap:square;stroke-miterlimit:10;}
	.st13{fill:none;stroke:#011E41;stroke-width:16;stroke-linecap:round;stroke-miterlimit:10;}
	.st14{fill:none;stroke:#EF3741;stroke-width:16;stroke-miterlimit:10;}
	.st15{fill:#F5333F;stroke:#011E41;stroke-width:16;stroke-miterlimit:10;}
	.st16{fill:#EF3741;}
	.st17{fill:none;stroke:#011E41;stroke-width:8;stroke-miterlimit:10;}
	.st18{fill:none;stroke:#E73843;stroke-width:16;stroke-miterlimit:10;}
	.st19{fill:none;stroke:#011E41;stroke-width:13.4168;stroke-miterlimit:10;}
	.st20{fill:none;stroke:#011E41;stroke-width:13.8969;stroke-miterlimit:10;}
	.st21{fill:none;stroke:#011E41;stroke-width:14.2064;stroke-miterlimit:10;}
	.st22{fill:none;stroke:#011E41;stroke-width:15.0584;stroke-miterlimit:10;}
	.st23{fill:none;stroke:#011E41;stroke-width:15.1473;stroke-miterlimit:10;}
	.st24{fill:none;stroke:#011E41;stroke-width:16.5604;stroke-miterlimit:10;}
	.st25{fill:none;stroke:#011E41;stroke-width:14.3418;stroke-miterlimit:10;}
	.st26{fill:none;stroke:#011E41;stroke-width:15.8515;stroke-miterlimit:10;}
	.st27{fill:#F53340;}
</style>
<g id="Icons">
	<g>
		<rect x="52.37" y="116.59" class="st0" width="184.01" height="305.15"/>
		<g>
			<g>
				<rect x="72.37" y="93.59" class="st1" width="184.11" height="305.15"/>
				<g>
					<g>
						<g>
							<rect x="110.45" y="135.03" class="st1" width="35.98" height="46.91"/>
						</g>
						<g>
							<rect x="182.42" y="135.03" class="st1" width="35.98" height="46.91"/>
						</g>
					</g>
					<g>
						<g>
							<rect x="110.45" y="222.51" class="st1" width="35.98" height="46.91"/>
						</g>
						<g>
							<rect x="182.42" y="222.51" class="st1" width="35.98" height="46.91"/>
						</g>
					</g>
					<g>
						<g>
							<rect x="110.45" y="309.99" class="st1" width="35.98" height="46.91"/>
						</g>
						<g>
							<rect x="182.42" y="309.99" class="st1" width="35.98" height="46.91"/>
						</g>
					</g>
				</g>
			</g>
			<g>
				<circle class="st1" cx="368.44" cy="167.88" r="34.32"/>
				<line class="st1" x1="367.44" y1="222.52" x2="367.44" y2="258.5"/>
				<line class="st1" x1="367.44" y1="78.25" x2="367.44" y2="114.24"/>
				<line class="st1" x1="421.59" y1="168.38" x2="457.57" y2="168.38"/>
				<line class="st1" x1="277.32" y1="168.38" x2="313.3" y2="168.38"/>
				<line class="st1" x1="405.73" y1="130.09" x2="431.17" y2="104.65"/>
				<line class="st1" x1="303.72" y1="232.11" x2="329.16" y2="206.66"/>
				<line class="st1" x1="405.73" y1="206.66" x2="431.17" y2="232.11"/>
				<line class="st1" x1="303.72" y1="104.65" x2="329.16" y2="130.09"/>
			</g>
			<g>
				<path class="st1" d="M329.61,280c9.23,9.23,9.23,24.19,0,33.42l0,0c-9.23,9.23-9.23,24.19,0,33.42l0,0
					c9.23,9.23,9.23,24.19,0,33.42"/>
				<path class="st1" d="M367.44,280c9.23,9.23,9.23,24.19,0,33.42l0,0c-9.23,9.23-9.23,24.19,0,33.42l0,0
					c9.23,9.23,9.23,24.19,0,33.42"/>
				<path class="st1" d="M405.28,280c9.23,9.23,9.23,24.19,0,33.42l0,0c-9.23,9.23-9.23,24.19,0,33.42l0,0
					c9.23,9.23,9.23,24.19,0,33.42"/>
			</g>
			<line class="st1" x1="40.42" y1="402.1" x2="459.58" y2="402.1"/>
		</g>
	</g>
</g>
<g id="Text">
</g>
</svg>
