<?xml version="1.0" encoding="utf-8"?>
<!-- Generator: Adobe Illustrator 26.0.1, SVG Export Plug-In . SVG Version: 6.00 Build 0)  -->
<svg version="1.1" xmlns="http://www.w3.org/2000/svg" xmlns:xlink="http://www.w3.org/1999/xlink" x="0px" y="0px"
	 viewBox="0 0 500 500" style="enable-background:new 0 0 500 500;" xml:space="preserve">
<style type="text/css">
	.st0{fill:#F5333F;}
	.st1{fill:none;stroke:#011E41;stroke-width:16;stroke-miterlimit:10;}
	.st2{display:none;}
	.st3{display:inline;}
	.st4{fill:none;stroke:#D1D3D4;stroke-width:2;stroke-miterlimit:10;}
	.st5{display:inline;fill:none;stroke:#BCBEC0;stroke-width:4;stroke-miterlimit:10;}
	.st6{fill:none;stroke:#BCBEC0;stroke-width:4;stroke-miterlimit:10;}
	.st7{display:inline;fill:none;stroke:#D1D3D4;stroke-width:2;stroke-miterlimit:10;}
	.st8{display:none;opacity:0.35;fill:none;stroke:#000000;stroke-width:16;stroke-miterlimit:10;}
	.st9{fill:none;stroke:#011E41;stroke-width:16;stroke-linejoin:bevel;stroke-miterlimit:10;}
	.st10{fill:none;stroke:#F5333F;stroke-width:16;stroke-miterlimit:10;}
	.st11{fill:#011E41;}
	.st12{fill:none;stroke:#011E41;stroke-width:16;stroke-linecap:square;stroke-miterlimit:10;}
	.st13{fill:none;stroke:#011E41;stroke-width:16;stroke-linecap:round;stroke-miterlimit:10;}
	.st14{fill:none;stroke:#EF3741;stroke-width:16;stroke-miterlimit:10;}
	.st15{fill:#F5333F;stroke:#011E41;stroke-width:16;stroke-miterlimit:10;}
	.st16{fill:#EF3741;}
	.st17{fill:none;stroke:#011E41;stroke-width:8;stroke-miterlimit:10;}
	.st18{fill:none;stroke:#E73843;stroke-width:16;stroke-miterlimit:10;}
	.st19{fill:none;stroke:#011E41;stroke-width:13.4168;stroke-miterlimit:10;}
	.st20{fill:none;stroke:#011E41;stroke-width:13.8969;stroke-miterlimit:10;}
	.st21{fill:none;stroke:#011E41;stroke-width:14.2064;stroke-miterlimit:10;}
	.st22{fill:none;stroke:#011E41;stroke-width:15.0584;stroke-miterlimit:10;}
	.st23{fill:none;stroke:#011E41;stroke-width:15.1473;stroke-miterlimit:10;}
	.st24{fill:none;stroke:#011E41;stroke-width:16.5604;stroke-miterlimit:10;}
	.st25{fill:none;stroke:#011E41;stroke-width:14.3418;stroke-miterlimit:10;}
	.st26{fill:none;stroke:#011E41;stroke-width:15.8515;stroke-miterlimit:10;}
	.st27{fill:#F53340;}
</style>
<g id="Icons">
	<path class="st0" d="M117.99,171.39c-31.05,0-56.29-25.26-56.29-56.29c0-31.03,25.25-56.29,56.29-56.29s56.3,25.26,56.3,56.29
		C174.29,146.13,149.04,171.39,117.99,171.39L117.99,171.39z"/>
	<path class="st0" d="M380.47,171.39c-31.05,0-56.29-25.26-56.29-56.29c0-31.03,25.25-56.29,56.29-56.29s56.3,25.26,56.3,56.29
		C436.77,146.13,411.51,171.39,380.47,171.39L380.47,171.39z"/>
	<path class="st0" d="M250,306.29c-31.05,0-56.29-25.26-56.29-56.29c0-31.03,25.25-56.29,56.29-56.29s56.3,25.26,56.3,56.29
		C306.3,281.03,281.04,306.29,250,306.29L250,306.29z"/>
	<path class="st0" d="M118.37,436.66c-31.05,0-56.29-25.26-56.29-56.29s25.25-56.29,56.29-56.29s56.3,25.26,56.3,56.29
		C174.67,411.4,149.42,436.66,118.37,436.66L118.37,436.66z"/>
	<path class="st0" d="M380.47,436.66c-31.05,0-56.29-25.26-56.29-56.29s25.25-56.29,56.29-56.29s56.3,25.26,56.3,56.29
		C436.77,411.4,411.51,436.66,380.47,436.66L380.47,436.66z"/>
	<circle class="st1" cx="380.14" cy="115.09" r="72.05"/>
	<circle class="st1" cx="249.88" cy="249.71" r="72.05"/>
	<path class="st19" d="M280.1,210.85h-14.72c-10.38,0-18.79,8.41-18.79,18.79v65.21"/>
	<line class="st19" x1="269.48" y1="248.09" x2="224.54" y2="248.09"/>
	<path class="st19" d="M137.56,152.63H98.42c-10.18,0-18.44-8.26-18.44-18.44V95.06c0-10.18,8.26-18.44,18.44-18.44h39.14
		c10.18,0,18.44,8.26,18.44,18.44v39.14C156,144.38,147.74,152.63,137.56,152.63z"/>
	<circle class="st19" cx="117.99" cy="114.63" r="10.43"/>
	<g>
		<path class="st1" d="M82.31,52.8c14.31-8.27,31.53-11.63,49.04-8.3c38.72,7.38,64.14,44.75,56.76,83.47
			c-7.38,38.72-44.75,64.14-83.47,56.76C65.91,177.37,40.5,140,47.87,101.27c1.48-7.77,4.17-15.01,7.83-21.55"/>
		<path class="st1" d="M63.93,68c2.59-3,5.43-5.77,8.46-8.29"/>
	</g>
	<g>
		<path class="st1" d="M416.15,442.19c-14.31,8.27-31.53,11.63-49.04,8.3c-38.72-7.38-64.14-44.75-56.76-83.47
			c7.38-38.72,44.75-64.14,83.47-56.76c38.72,7.38,64.14,44.75,56.76,83.47c-1.48,7.77-4.17,15.01-7.83,21.55"/>
		<path class="st1" d="M434.53,426.99c-2.59,3-5.43,5.77-8.46,8.29"/>
	</g>
	<polygon class="st19" points="406,379.95 364.36,355.91 364.36,403.99 	"/>
	<circle class="st1" cx="118.38" cy="380.37" r="72.05"/>
	<path class="st20" d="M156.86,355.47l-8.7,0.45c-3.03-5.44-8.83-9.12-15.5-9.12c-9.79,0-17.73,7.94-17.73,17.73
		c0,0-13.18,0.95-33-10.63c-7.14,31.45,17.86,42.73,17.86,42.73L83.9,410.2c0,0,29.33,13.19,53.91-5.18
		c10.08-8.29,14.95-21.28,14.11-33.78L156.86,355.47z"/>
	<line class="st19" x1="351.69" y1="96.38" x2="351.69" y2="151.04"/>
	<line class="st19" x1="378.68" y1="96.38" x2="378.68" y2="151.04"/>
	<path class="st19" d="M378.68,128.15c1.46-18.76,13.66-27.68,24.57-25.66c4.88,0.9,7.7,3.63,9.33,6.3
		c1.47,2.41,2.16,5.22,2.16,8.05v34.19"/>
	<circle class="st11" cx="351.69" cy="82.32" r="7.55"/>
</g>
<g id="Text">
</g>
</svg>
