<?xml version="1.0" encoding="utf-8"?>
<!-- Generator: Adobe Illustrator 26.0.1, SVG Export Plug-In . SVG Version: 6.00 Build 0)  -->
<svg version="1.1" xmlns="http://www.w3.org/2000/svg" xmlns:xlink="http://www.w3.org/1999/xlink" x="0px" y="0px"
	 viewBox="0 0 500 500" style="enable-background:new 0 0 500 500;" xml:space="preserve">
<style type="text/css">
	.st0{fill:#F5333F;}
	.st1{fill:none;stroke:#011E41;stroke-width:16;stroke-miterlimit:10;}
	.st2{display:none;}
	.st3{display:inline;}
	.st4{fill:none;stroke:#D1D3D4;stroke-width:2;stroke-miterlimit:10;}
	.st5{display:inline;fill:none;stroke:#BCBEC0;stroke-width:4;stroke-miterlimit:10;}
	.st6{fill:none;stroke:#BCBEC0;stroke-width:4;stroke-miterlimit:10;}
	.st7{display:inline;fill:none;stroke:#D1D3D4;stroke-width:2;stroke-miterlimit:10;}
	.st8{display:none;opacity:0.35;fill:none;stroke:#000000;stroke-width:16;stroke-miterlimit:10;}
	.st9{fill:none;stroke:#011E41;stroke-width:16;stroke-linejoin:bevel;stroke-miterlimit:10;}
	.st10{fill:none;stroke:#F5333F;stroke-width:16;stroke-miterlimit:10;}
	.st11{fill:#011E41;}
	.st12{fill:none;stroke:#011E41;stroke-width:16;stroke-linecap:square;stroke-miterlimit:10;}
	.st13{fill:none;stroke:#011E41;stroke-width:16;stroke-linecap:round;stroke-miterlimit:10;}
	.st14{fill:none;stroke:#EF3741;stroke-width:16;stroke-miterlimit:10;}
	.st15{fill:#F5333F;stroke:#011E41;stroke-width:16;stroke-miterlimit:10;}
	.st16{fill:#EF3741;}
	.st17{fill:none;stroke:#011E41;stroke-width:8;stroke-miterlimit:10;}
	.st18{fill:none;stroke:#E73843;stroke-width:16;stroke-miterlimit:10;}
	.st19{fill:none;stroke:#011E41;stroke-width:13.4168;stroke-miterlimit:10;}
	.st20{fill:none;stroke:#011E41;stroke-width:13.8969;stroke-miterlimit:10;}
	.st21{fill:none;stroke:#011E41;stroke-width:14.2064;stroke-miterlimit:10;}
	.st22{fill:none;stroke:#011E41;stroke-width:15.0584;stroke-miterlimit:10;}
	.st23{fill:none;stroke:#011E41;stroke-width:15.1473;stroke-miterlimit:10;}
	.st24{fill:none;stroke:#011E41;stroke-width:16.5604;stroke-miterlimit:10;}
	.st25{fill:none;stroke:#011E41;stroke-width:14.3418;stroke-miterlimit:10;}
	.st26{fill:none;stroke:#011E41;stroke-width:15.8515;stroke-miterlimit:10;}
	.st27{fill:#F53340;}
</style>
<g id="Icons">
	<g>
		<g>
			<path class="st1" d="M167.37,442.55c0,18.03-14.62,32.65-32.65,32.65s-32.65-14.62-32.65-32.65c0-18.03,32.65-57.2,32.65-57.2
				S167.37,424.52,167.37,442.55z"/>
			<path class="st1" d="M157.03,376.08h-45.74c-7.92,0-14.34-6.42-14.34-14.34v-21.01c0-7.92,6.42-14.34,14.34-14.34h45.74
				c7.92,0,14.34,6.42,14.34,14.34v21.01C171.37,369.66,164.95,376.08,157.03,376.08z"/>
			<path class="st1" d="M403.05,223.31v74.42h-31.77c-9.9,0-17.92-8.02-17.92-17.92v-38.58c0-9.9,8.02-17.92,17.92-17.92H403.05z"/>
			<path class="st1" d="M290.38,156.58v29.12c0,11.13-9.02,20.15-20.15,20.15h-8.53c-11.13,0-20.15-9.02-20.15-20.15v-29.12H290.38z
				"/>
			<path class="st1" d="M286.39,199.98v2.86c0,20.52,16.63,37.15,37.15,37.15h0h29.81"/>
			<path class="st1" d="M116.18,329.42L116.18,329.42c0-49.39,40.04-89.43,89.43-89.43h2.74c20.52,0,37.15-16.63,37.15-37.15v-2.86"
				/>
			<path class="st1" d="M157.23,329.42L157.23,329.42c0-26.72,21.66-48.38,48.38-48.38h147.75"/>
			<path class="st1" d="M320.78,136.3L320.78,136.3c0,6.79-5.5,12.29-12.29,12.29h-83.18c-6.79,0-12.29-5.5-12.29-12.29v0
				c0-6.79,5.5-12.29,12.29-12.29h83.18C315.28,124.01,320.78,129.51,320.78,136.3z"/>
			<circle class="st1" cx="365.44" cy="136.3" r="17.9"/>
			<circle class="st1" cx="166.5" cy="136.3" r="17.9"/>
			<line class="st1" x1="184.4" y1="136.3" x2="207.2" y2="136.3"/>
			<line class="st1" x1="323.78" y1="136.3" x2="346.57" y2="136.3"/>
		</g>
		<path class="st10" d="M386.32,66.31c-33.04-25.99-74.71-41.5-120.01-41.5c-45.3,0-86.98,15.51-120.01,41.5"/>
	</g>
</g>
<g id="Text">
</g>
</svg>
