<?xml version="1.0" encoding="utf-8"?>
<!-- Generator: Adobe Illustrator 26.0.1, SVG Export Plug-In . SVG Version: 6.00 Build 0)  -->
<svg version="1.1" xmlns="http://www.w3.org/2000/svg" xmlns:xlink="http://www.w3.org/1999/xlink" x="0px" y="0px"
	 viewBox="0 0 500 500" style="enable-background:new 0 0 500 500;" xml:space="preserve">
<style type="text/css">
	.st0{fill:#F5333F;}
	.st1{fill:none;stroke:#011E41;stroke-width:16;stroke-miterlimit:10;}
	.st2{display:none;}
	.st3{display:inline;}
	.st4{fill:none;stroke:#D1D3D4;stroke-width:2;stroke-miterlimit:10;}
	.st5{display:inline;fill:none;stroke:#BCBEC0;stroke-width:4;stroke-miterlimit:10;}
	.st6{fill:none;stroke:#BCBEC0;stroke-width:4;stroke-miterlimit:10;}
	.st7{display:inline;fill:none;stroke:#D1D3D4;stroke-width:2;stroke-miterlimit:10;}
	.st8{display:none;opacity:0.35;fill:none;stroke:#000000;stroke-width:16;stroke-miterlimit:10;}
	.st9{fill:none;stroke:#011E41;stroke-width:16;stroke-linejoin:bevel;stroke-miterlimit:10;}
	.st10{fill:none;stroke:#F5333F;stroke-width:16;stroke-miterlimit:10;}
	.st11{fill:#011E41;}
	.st12{fill:none;stroke:#011E41;stroke-width:16;stroke-linecap:square;stroke-miterlimit:10;}
	.st13{fill:none;stroke:#011E41;stroke-width:16;stroke-linecap:round;stroke-miterlimit:10;}
	.st14{fill:none;stroke:#EF3741;stroke-width:16;stroke-miterlimit:10;}
	.st15{fill:#F5333F;stroke:#011E41;stroke-width:16;stroke-miterlimit:10;}
	.st16{fill:#EF3741;}
	.st17{fill:none;stroke:#011E41;stroke-width:8;stroke-miterlimit:10;}
	.st18{fill:none;stroke:#E73843;stroke-width:16;stroke-miterlimit:10;}
	.st19{fill:none;stroke:#011E41;stroke-width:13.4168;stroke-miterlimit:10;}
	.st20{fill:none;stroke:#011E41;stroke-width:13.8969;stroke-miterlimit:10;}
	.st21{fill:none;stroke:#011E41;stroke-width:14.2064;stroke-miterlimit:10;}
	.st22{fill:none;stroke:#011E41;stroke-width:15.0584;stroke-miterlimit:10;}
	.st23{fill:none;stroke:#011E41;stroke-width:15.1473;stroke-miterlimit:10;}
	.st24{fill:none;stroke:#011E41;stroke-width:16.5604;stroke-miterlimit:10;}
	.st25{fill:none;stroke:#011E41;stroke-width:14.3418;stroke-miterlimit:10;}
	.st26{fill:none;stroke:#011E41;stroke-width:15.8515;stroke-miterlimit:10;}
	.st27{fill:#F53340;}
</style>
<g id="Icons">
</g>
<g id="Text">
	<g>
		<g>
			<circle class="st0" cx="250" cy="250" r="12.04"/>
		</g>
		<path class="st1" d="M435.87,275.19c-7.25-25.49-23.88-46.83-46.82-60.07c-15.98-9.23-33.76-13.83-51.74-13.62
			c9.65-15.52,15.24-33.82,15.24-53.4c0-26.5-10.16-51.57-28.61-70.59c-5-5.16-13.23-5.28-18.38-0.28c-5.16,5-5.28,13.23-0.28,18.38
			c13.72,14.15,21.27,32.79,21.27,52.49c0,41.58-33.82,75.4-75.4,75.4c-41.58,0-75.4-33.82-75.4-75.4c0-19.7,7.55-38.34,21.27-52.49
			c5-5.15,4.88-13.38-0.28-18.38c-5.16-5-13.38-4.88-18.38,0.28c-18.45,19.02-28.61,44.09-28.61,70.59
			c0,18.98,5.25,36.76,14.36,51.97c-18.46-0.48-36.75,4.12-53.15,13.59c-22.94,13.25-39.58,34.58-46.82,60.07
			c-1.96,6.91,2.04,14.1,8.95,16.06c6.91,1.96,14.1-2.04,16.06-8.95c5.39-18.96,17.76-34.82,34.82-44.67
			c17.44-10.07,37.76-12.75,57.22-7.53c19.45,5.21,35.71,17.69,45.78,35.13c6.53,11.3,9.79,23.62,10.07,35.83
			c-0.05,1.54-0.06,3.07-0.04,4.61c-0.96,25.06-14.35,49.12-37.63,62.56c-17.06,9.85-36.98,12.63-56.09,7.82
			c-6.96-1.75-14.03,2.47-15.78,9.43c-1.75,6.96,2.47,14.02,9.43,15.78c8.23,2.07,16.58,3.1,24.88,3.1
			c17.59,0,34.96-4.61,50.56-13.61c16.07-9.28,28.63-22.32,37.23-37.37c8.62,15.67,21.47,29.26,38.06,38.84
			c15.6,9,32.96,13.61,50.56,13.61c8.3,0,16.64-1.02,24.88-3.1c6.96-1.75,11.18-8.82,9.43-15.78c-1.75-6.96-8.82-11.19-15.78-9.43
			c-19.11,4.81-39.03,2.03-56.09-7.82c-23.64-13.65-37.09-38.25-37.67-63.73c0.05-1.52,0.06-3.04,0.04-4.57
			c0.45-11.84,3.7-23.75,10.03-34.7c10.07-17.44,26.33-29.92,45.78-35.13c19.46-5.21,39.78-2.53,57.22,7.54
			c17.06,9.85,29.43,25.71,34.82,44.67c1.96,6.91,9.15,10.91,16.06,8.95C433.83,289.28,437.84,282.09,435.87,275.19L435.87,275.19z"
			/>
	</g>
	<g>
		<path class="st10" d="M207.1,322.18c-26.99-15.78-42.27-42.58-42.11-73.84"/>
		<path class="st10" d="M335,249.25c-0.17,31.27-15.74,57.9-42.9,73.39"/>
		<path class="st10" d="M207.9,174.95c27.16-15.49,58.01-15.32,85,0.46"/>
	</g>
</g>
</svg>
