<?xml version="1.0" encoding="utf-8"?>
<!-- Generator: Adobe Illustrator 26.0.1, SVG Export Plug-In . SVG Version: 6.00 Build 0)  -->
<svg version="1.1" xmlns="http://www.w3.org/2000/svg" xmlns:xlink="http://www.w3.org/1999/xlink" x="0px" y="0px"
	 viewBox="0 0 500 500" style="enable-background:new 0 0 500 500;" xml:space="preserve">
<style type="text/css">
	.st0{fill:#F5333F;}
	.st1{fill:none;stroke:#011E41;stroke-width:16;stroke-miterlimit:10;}
	.st2{display:none;}
	.st3{display:inline;}
	.st4{fill:none;stroke:#D1D3D4;stroke-width:2;stroke-miterlimit:10;}
	.st5{display:inline;fill:none;stroke:#BCBEC0;stroke-width:4;stroke-miterlimit:10;}
	.st6{fill:none;stroke:#BCBEC0;stroke-width:4;stroke-miterlimit:10;}
	.st7{display:inline;fill:none;stroke:#D1D3D4;stroke-width:2;stroke-miterlimit:10;}
	.st8{display:none;opacity:0.35;fill:none;stroke:#000000;stroke-width:16;stroke-miterlimit:10;}
	.st9{fill:none;stroke:#011E41;stroke-width:16;stroke-linejoin:bevel;stroke-miterlimit:10;}
	.st10{fill:none;stroke:#F5333F;stroke-width:16;stroke-miterlimit:10;}
	.st11{fill:#011E41;}
	.st12{fill:none;stroke:#011E41;stroke-width:16;stroke-linecap:square;stroke-miterlimit:10;}
	.st13{fill:none;stroke:#011E41;stroke-width:16;stroke-linecap:round;stroke-miterlimit:10;}
	.st14{fill:none;stroke:#EF3741;stroke-width:16;stroke-miterlimit:10;}
	.st15{fill:#F5333F;stroke:#011E41;stroke-width:16;stroke-miterlimit:10;}
	.st16{fill:#EF3741;}
	.st17{fill:none;stroke:#011E41;stroke-width:8;stroke-miterlimit:10;}
	.st18{fill:none;stroke:#E73843;stroke-width:16;stroke-miterlimit:10;}
	.st19{fill:none;stroke:#011E41;stroke-width:13.4168;stroke-miterlimit:10;}
	.st20{fill:none;stroke:#011E41;stroke-width:13.8969;stroke-miterlimit:10;}
	.st21{fill:none;stroke:#011E41;stroke-width:14.2064;stroke-miterlimit:10;}
	.st22{fill:none;stroke:#011E41;stroke-width:15.0584;stroke-miterlimit:10;}
	.st23{fill:none;stroke:#011E41;stroke-width:15.1473;stroke-miterlimit:10;}
	.st24{fill:none;stroke:#011E41;stroke-width:16.5604;stroke-miterlimit:10;}
	.st25{fill:none;stroke:#011E41;stroke-width:14.3418;stroke-miterlimit:10;}
	.st26{fill:none;stroke:#011E41;stroke-width:15.8515;stroke-miterlimit:10;}
	.st27{fill:#F53340;}
</style>
<g id="Icons">
	<g>
		<path class="st0" d="M358.51,410.7c-0.44-0.54-49.58-60.6-94.48-119.73c34.01-50.37,60.81-98.61,54.24-117.76
			c0.38,0.59,0.58,0.92,0.58,0.92l-19.64-52.58c-7.12-19.05-22.89-33.73-42.54-38.96c-5.33-1.42-11.1-2.31-17.16-2.31
			c-0.74,0-1.48,0.01-2.21,0.04c-25.06,0.83-47,17.09-56.05,40.47l-20.65,53.34c0,0,0.22-0.38,0.65-1.06l-0.65,1.06
			c0,0-9.54,16.7,8.75,56.47c13.78,29.96,28.8,54.28,35.37,64.45c-37.46,50.91-90.78,115.09-91.25,115.65l37.01,30.59
			c0.24-0.29,42.47-51.11,84.63-109.12c42.37,55.38,85.98,108.6,86.41,109.12L358.51,410.7z M239.5,132.78
			c22.4,0,39.67,6.78,52.29,14.85c-8.47,16.69-32.64,63.42-57.73,104c-27.87-38.36-46.51-104.13-46.51-104.13
			C200.07,139.5,217.21,132.78,239.5,132.78z"/>
		<g>
			<path class="st1" d="M282.64,271.28c46.89,62.4,92.18,117.26,92.65,117.83l-37.01,30.59c-0.45-0.55-41.25-49.97-85.73-108.6"/>
			<g>
				<path class="st1" d="M177.36,152.55c0,0,23.59-41.36,78.92-41.36s79.35,41.36,79.35,41.36l-19.64-52.58
					c-7.12-19.05-22.89-33.73-42.54-38.96c-5.33-1.42-11.1-2.31-17.16-2.31c-0.74,0-1.48,0.01-2.22,0.04
					c-25.06,0.83-47,17.09-56.05,40.47L177.36,152.55z"/>
				<path class="st1" d="M204.33,125.93c0,0,18.87,66.58,47.02,104.84"/>
				<path class="st1" d="M177.36,152.55c0,0-9.54,16.7,8.75,56.47s31.81,59.65,31.81,59.65"/>
				<path class="st1" d="M334.37,149.96c21.35,42.94-166.62,269.13-167.13,269.75l-37.01-30.59c0.49-0.6,61.74-74.3,99.06-126.4
					s78.62-136.79,78.62-136.79"/>
			</g>
		</g>
	</g>
</g>
<g id="Text">
</g>
</svg>
