<?xml version="1.0" encoding="utf-8"?>
<!-- Generator: Adobe Illustrator 26.0.1, SVG Export Plug-In . SVG Version: 6.00 Build 0)  -->
<svg version="1.1" xmlns="http://www.w3.org/2000/svg" xmlns:xlink="http://www.w3.org/1999/xlink" x="0px" y="0px"
	 viewBox="0 0 500 547.73" style="enable-background:new 0 0 500 547.73;" xml:space="preserve">
<style type="text/css">
	.st0{fill:#F5333F;}
	.st1{fill:none;stroke:#011E41;stroke-width:16;stroke-miterlimit:10;}
	.st2{display:none;}
	.st3{display:inline;}
	.st4{fill:none;stroke:#D1D3D4;stroke-width:2;stroke-miterlimit:10;}
	.st5{display:inline;fill:none;stroke:#BCBEC0;stroke-width:4;stroke-miterlimit:10;}
	.st6{fill:none;stroke:#BCBEC0;stroke-width:4;stroke-miterlimit:10;}
	.st7{display:inline;fill:none;stroke:#D1D3D4;stroke-width:2;stroke-miterlimit:10;}
	.st8{display:none;opacity:0.35;fill:none;stroke:#000000;stroke-width:16;stroke-miterlimit:10;}
	.st9{fill:none;stroke:#011E41;stroke-width:16;stroke-linejoin:bevel;stroke-miterlimit:10;}
	.st10{fill:none;stroke:#F5333F;stroke-width:16;stroke-miterlimit:10;}
	.st11{fill:#011E41;}
	.st12{fill:none;stroke:#011E41;stroke-width:16;stroke-linecap:square;stroke-miterlimit:10;}
	.st13{fill:none;stroke:#011E41;stroke-width:16;stroke-linecap:round;stroke-miterlimit:10;}
	.st14{fill:none;stroke:#EF3741;stroke-width:16;stroke-miterlimit:10;}
	.st15{fill:#F5333F;stroke:#011E41;stroke-width:16;stroke-miterlimit:10;}
	.st16{fill:#EF3741;}
	.st17{fill:none;stroke:#011E41;stroke-width:8;stroke-miterlimit:10;}
	.st18{fill:none;stroke:#E73843;stroke-width:16;stroke-miterlimit:10;}
	.st19{fill:none;stroke:#011E41;stroke-width:13.4168;stroke-miterlimit:10;}
	.st20{fill:none;stroke:#011E41;stroke-width:13.8969;stroke-miterlimit:10;}
	.st21{fill:none;stroke:#011E41;stroke-width:14.2064;stroke-miterlimit:10;}
	.st22{fill:none;stroke:#011E41;stroke-width:15.0584;stroke-miterlimit:10;}
	.st23{fill:none;stroke:#011E41;stroke-width:15.1473;stroke-miterlimit:10;}
	.st24{fill:none;stroke:#011E41;stroke-width:16.5604;stroke-miterlimit:10;}
	.st25{fill:none;stroke:#011E41;stroke-width:14.3418;stroke-miterlimit:10;}
	.st26{fill:none;stroke:#011E41;stroke-width:15.8515;stroke-miterlimit:10;}
	.st27{fill:#F53340;}
</style>
<g id="Icons">
	<g>
		<g>
			<path class="st1" d="M107.16,210.81c26.56,24.28,28.41,65.49,4.14,92.05l0,0"/>
			<path class="st1" d="M224.54,266.95c-45.54-3.93-79.28-44.04-75.34-89.59l0,0"/>
			<path class="st1" d="M178.65,328.81l-26.82,15.78c-22.21,13.07-50.35,10.12-69.38-7.27L22.13,282.2L57.74,64.74
				c18.83-1.04,34.9,13.49,35.75,32.33l3.8,84.59"/>
			<path class="st1" d="M122.35,143.93l70.87-108.86c4.86-8.29,15.52-11.07,23.81-6.21c8.29,4.86,11.07,15.52,6.21,23.81
				l-54.39,92.35c6.51,2.54,8.88,3.66,15.06,7.17L279.7,51.49c6.48-7.09,17.49-7.59,24.59-1.1s7.59,17.49,1.1,24.59l-88.95,100.28
				c2.08,1.9,9.68,10.05,12.31,13.25l87.09-66.22c7.65-5.82,18.57-4.34,24.39,3.31s4.34,18.57-3.31,24.39l-88.66,69.67
				c2.68,5.57,4.2,9.37,6.14,15.18l78.12-30.75c7.53-3.26,16.27,0.19,19.54,7.72c3.26,7.53-0.19,16.27-7.72,19.54l-71.59,42.12"/>
		</g>
		<g>
			<path class="st10" d="M273.13,333.08l115.02-60.37c8.29-4.86,18.95-2.08,23.81,6.21c4.86,8.29,2.08,18.95-6.21,23.81
				l-92.57,54.01c4.44,5.39,5.96,7.53,9.63,13.61l132.77-41.07c9.12-3.02,18.97,1.92,21.99,11.05c3.02,9.12-1.92,18.97-11.05,21.99
				l-126.6,44.05c0.88,2.67,3.54,13.5,4.27,17.58l108.34-15.24c9.52-1.34,18.32,5.28,19.66,14.8c1.34,9.52-5.28,18.32-14.8,19.66
				l-111.4,17.48c-0.38,6.17-0.92,10.23-2.06,16.24l83.19,11.33c8.16,0.83,14.11,8.12,13.28,16.28
				c-0.83,8.16-8.12,14.11-16.28,13.28l-223.31,4.79c-25.77,0.55-48.88-15.77-56.99-40.23l-25.7-77.57l137.3-172.34
				c16.94,8.29,23.86,28.82,15.4,45.67l-38,75.66"/>
		</g>
	</g>
</g>
<g id="Text">
</g>
</svg>
