<?xml version="1.0" encoding="utf-8"?>
<!-- Generator: Adobe Illustrator 26.0.1, SVG Export Plug-In . SVG Version: 6.00 Build 0)  -->
<svg version="1.1" xmlns="http://www.w3.org/2000/svg" xmlns:xlink="http://www.w3.org/1999/xlink" x="0px" y="0px"
	 viewBox="0 0 500 500" style="enable-background:new 0 0 500 500;" xml:space="preserve">
<style type="text/css">
	.st0{fill:#F5333F;}
	.st1{fill:none;stroke:#011E41;stroke-width:16;stroke-miterlimit:10;}
	.st2{display:none;}
	.st3{display:inline;}
	.st4{fill:none;stroke:#D1D3D4;stroke-width:2;stroke-miterlimit:10;}
	.st5{display:inline;fill:none;stroke:#BCBEC0;stroke-width:4;stroke-miterlimit:10;}
	.st6{fill:none;stroke:#BCBEC0;stroke-width:4;stroke-miterlimit:10;}
	.st7{display:inline;fill:none;stroke:#D1D3D4;stroke-width:2;stroke-miterlimit:10;}
	.st8{display:none;opacity:0.35;fill:none;stroke:#000000;stroke-width:16;stroke-miterlimit:10;}
	.st9{fill:none;stroke:#011E41;stroke-width:16;stroke-linejoin:bevel;stroke-miterlimit:10;}
	.st10{fill:none;stroke:#F5333F;stroke-width:16;stroke-miterlimit:10;}
	.st11{fill:#011E41;}
	.st12{fill:none;stroke:#011E41;stroke-width:16;stroke-linecap:square;stroke-miterlimit:10;}
	.st13{fill:none;stroke:#011E41;stroke-width:16;stroke-linecap:round;stroke-miterlimit:10;}
	.st14{fill:none;stroke:#EF3741;stroke-width:16;stroke-miterlimit:10;}
	.st15{fill:#F5333F;stroke:#011E41;stroke-width:16;stroke-miterlimit:10;}
	.st16{fill:#EF3741;}
	.st17{fill:none;stroke:#011E41;stroke-width:8;stroke-miterlimit:10;}
	.st18{fill:none;stroke:#E73843;stroke-width:16;stroke-miterlimit:10;}
	.st19{fill:none;stroke:#011E41;stroke-width:13.4168;stroke-miterlimit:10;}
	.st20{fill:none;stroke:#011E41;stroke-width:13.8969;stroke-miterlimit:10;}
	.st21{fill:none;stroke:#011E41;stroke-width:14.2064;stroke-miterlimit:10;}
	.st22{fill:none;stroke:#011E41;stroke-width:15.0584;stroke-miterlimit:10;}
	.st23{fill:none;stroke:#011E41;stroke-width:15.1473;stroke-miterlimit:10;}
	.st24{fill:none;stroke:#011E41;stroke-width:16.5604;stroke-miterlimit:10;}
	.st25{fill:none;stroke:#011E41;stroke-width:14.3418;stroke-miterlimit:10;}
	.st26{fill:none;stroke:#011E41;stroke-width:15.8515;stroke-miterlimit:10;}
	.st27{fill:#F53340;}
</style>
<g id="Icons">
	<g>
		<path class="st0" d="M366.45,367.36h-27.79c20.83,0,37.71-16.88,37.71-37.71s-16.88-37.71-37.71-37.71h-49.85
			c23.95,0,43.37-19.42,43.37-43.37c0-23.95-19.42-43.37-43.37-43.37c-23.95,0-43.37-19.42-43.37-43.37v-7.76
			c-23.95,0-43.37,19.42-43.37,43.37s19.42,43.37,43.37,43.37h-35.73c-26.66,0-48.27,21.61-48.27,48.27v2.86h-10.05
			c-20.83,0-37.71,16.88-37.71,37.71s16.88,37.71,37.71,37.71h-41.83c-26.72,0-48.39,21.66-48.39,48.39
			c0,26.72,21.66,48.39,48.39,48.39h256.9c26.72,0,48.39-21.66,48.39-48.39C414.84,389.02,393.17,367.36,366.45,367.36z"/>
		<g>
			<g>
				<path class="st1" d="M215.76,35.87c6.89,6.89,6.89,18.06,0,24.94l0,0c-6.89,6.89-6.89,18.06,0,24.94l0,0
					c6.89,6.89,6.89,18.06,0,24.94"/>
				<path class="st1" d="M254,35.87c6.89,6.89,6.89,18.06,0,24.94l0,0c-6.89,6.89-6.89,18.06,0,24.94l0,0
					c6.89,6.89,6.89,18.06,0,24.94"/>
				<path class="st1" d="M292.24,35.87c6.89,6.89,6.89,18.06,0,24.94l0,0c-6.89,6.89-6.89,18.06,0,24.94l0,0
					c6.89,6.89,6.89,18.06,0,24.94"/>
			</g>
		</g>
		<g>
			<line class="st1" x1="322.32" y1="348.36" x2="337.95" y2="348.36"/>
			<path class="st1" d="M353.29,348.36h29.16c26.72,0,48.39,21.66,48.39,48.39v0c0,26.72-21.66,48.39-48.39,48.39h-256.9
				c-26.72,0-48.39-21.66-48.39-48.39v0c0-26.72,21.66-48.39,48.39-48.39h182.13"/>
			<path class="st1" d="M167.39,348.36c-20.83,0-37.71-16.88-37.71-37.71v0c0-20.83,16.88-37.71,37.71-37.71h187.27
				c20.83,0,37.71,16.88,37.71,37.71v0c0,20.83-16.88,37.71-37.71,37.71"/>
			<path class="st1" d="M177.44,270.07L177.44,270.07c0-26.66,21.61-48.27,48.27-48.27h52.36"/>
			<path class="st1" d="M261.44,221.8c-23.95,0-43.37-19.42-43.37-43.37s19.42-43.37,43.37-43.37v7.76
				c0,23.95,19.42,43.37,43.37,43.37s43.37,19.42,43.37,43.37s-19.42,43.37-43.37,43.37"/>
		</g>
	</g>
</g>
<g id="Text">
</g>
</svg>
