<?xml version="1.0" encoding="utf-8"?>
<!-- Generator: Adobe Illustrator 26.0.1, SVG Export Plug-In . SVG Version: 6.00 Build 0)  -->
<svg version="1.1" xmlns="http://www.w3.org/2000/svg" xmlns:xlink="http://www.w3.org/1999/xlink" x="0px" y="0px"
	 viewBox="0 0 500 500" style="enable-background:new 0 0 500 500;" xml:space="preserve">
<style type="text/css">
	.st0{fill:#F5333F;}
	.st1{fill:none;stroke:#011E41;stroke-width:16;stroke-miterlimit:10;}
	.st2{display:none;}
	.st3{display:inline;}
	.st4{fill:none;stroke:#D1D3D4;stroke-width:2;stroke-miterlimit:10;}
	.st5{display:inline;fill:none;stroke:#BCBEC0;stroke-width:4;stroke-miterlimit:10;}
	.st6{fill:none;stroke:#BCBEC0;stroke-width:4;stroke-miterlimit:10;}
	.st7{display:inline;fill:none;stroke:#D1D3D4;stroke-width:2;stroke-miterlimit:10;}
	.st8{display:none;opacity:0.35;fill:none;stroke:#000000;stroke-width:16;stroke-miterlimit:10;}
	.st9{fill:none;stroke:#011E41;stroke-width:16;stroke-linejoin:bevel;stroke-miterlimit:10;}
	.st10{fill:none;stroke:#F5333F;stroke-width:16;stroke-miterlimit:10;}
	.st11{fill:#011E41;}
	.st12{fill:none;stroke:#011E41;stroke-width:16;stroke-linecap:square;stroke-miterlimit:10;}
	.st13{fill:none;stroke:#011E41;stroke-width:16;stroke-linecap:round;stroke-miterlimit:10;}
	.st14{fill:none;stroke:#EF3741;stroke-width:16;stroke-miterlimit:10;}
	.st15{fill:#F5333F;stroke:#011E41;stroke-width:16;stroke-miterlimit:10;}
	.st16{fill:#EF3741;}
	.st17{fill:none;stroke:#011E41;stroke-width:8;stroke-miterlimit:10;}
	.st18{fill:none;stroke:#E73843;stroke-width:16;stroke-miterlimit:10;}
	.st19{fill:none;stroke:#011E41;stroke-width:13.4168;stroke-miterlimit:10;}
	.st20{fill:none;stroke:#011E41;stroke-width:13.8969;stroke-miterlimit:10;}
	.st21{fill:none;stroke:#011E41;stroke-width:14.2064;stroke-miterlimit:10;}
	.st22{fill:none;stroke:#011E41;stroke-width:15.0584;stroke-miterlimit:10;}
	.st23{fill:none;stroke:#011E41;stroke-width:15.1473;stroke-miterlimit:10;}
	.st24{fill:none;stroke:#011E41;stroke-width:16.5604;stroke-miterlimit:10;}
	.st25{fill:none;stroke:#011E41;stroke-width:14.3418;stroke-miterlimit:10;}
	.st26{fill:none;stroke:#011E41;stroke-width:15.8515;stroke-miterlimit:10;}
	.st27{fill:#F53340;}
</style>
<g id="Icons">
	<g>
		<path class="st0" d="M229.14,99.48c-84.81,0-153.57,68.75-153.57,153.57s68.75,153.57,153.57,153.57s153.57-68.75,153.57-153.57
			S313.96,99.48,229.14,99.48z M229.14,326.79c-40.73,0-73.74-33.02-73.74-73.74c0-40.73,33.02-73.74,73.74-73.74
			s73.74,33.02,73.74,73.74C302.89,293.77,269.87,326.79,229.14,326.79z"/>
		<g>
			<path class="st1" d="M399.58,201.75c2-6.96,3.08-14.32,3.08-21.93c0-43.77-35.48-79.25-79.25-79.25
				c-6.46,0-12.73,0.78-18.74,2.24"/>
			<path class="st1" d="M196.33,102.64c-5.79-1.35-11.83-2.07-18.03-2.07c-43.77,0-79.25,35.48-79.25,79.25
				c0,6.9,0.88,13.6,2.54,19.98"/>
			<path class="st1" d="M102.05,301.51c-1.95,6.88-3,14.13-3,21.63c0,43.77,35.48,79.25,79.25,79.25c7.95,0,15.63-1.18,22.87-3.36"
				/>
			<path class="st1" d="M299.93,398.85c7.42,2.3,15.3,3.54,23.48,3.54c43.77,0,79.25-35.48,79.25-79.25
				c0-8.17-1.25-16.05-3.55-23.47"/>
		</g>
		<path class="st1" d="M338.8,224.7c-8.48-29.72-31.51-53.29-60.9-62.53"/>
		<path class="st1" d="M277.91,337.83c29.4-9.24,52.45-32.84,60.91-62.59"/>
		<path class="st1" d="M161.78,275.45c8.9,30.98,33.62,55.27,64.87,63.54"/>
		<path class="st1" d="M226.66,161.01c-31.23,8.26-55.95,32.53-64.86,63.49"/>
		<path class="st1" d="M402.83,213.33c-13.51-56.4-57.47-100.97-113.54-115.32"/>
		<path class="st1" d="M289.3,401.99c56.09-14.36,100.06-58.95,113.55-115.38"/>
		<path class="st1" d="M97.74,286.82c13.87,57.68,59.61,102.95,117.55,116.14"/>
		<path class="st1" d="M215.3,97.04c-57.93,13.19-103.65,58.43-117.54,116.09"/>
		<path class="st1" d="M411.98,211.71l-84.64,15.02c2.22,7.37,3.43,15.18,3.43,23.27c0,8.07-1.2,15.86-3.41,23.21l84.64,15.02
			c2.89-12.28,4.43-25.07,4.43-38.23C416.42,236.82,414.88,224,411.98,211.71z"/>
		<path class="st1" d="M250.27,169.5c8.95,0,17.54,1.48,25.59,4.18l15.05-84.79c-13-3.26-26.59-5.01-40.6-5.01
			c-12.58,0-24.83,1.41-36.62,4.06l15,84.51C235.56,170.54,242.79,169.5,250.27,169.5z"/>
		<path class="st1" d="M169.77,250c0-8.17,1.23-16.04,3.49-23.47l-83.5-14.82c-2.89,12.28-4.43,25.07-4.43,38.23
			c0,13.18,1.54,26,4.44,38.29l83.47-14.82C170.99,266.01,169.77,258.15,169.77,250z"/>
		<path class="st1" d="M250.27,330.5c-7.48,0-14.72-1.04-21.59-2.95l-15,84.51c11.79,2.65,24.04,4.06,36.63,4.06
			c14.01,0,27.62-1.74,40.61-5.01l-15.05-84.79C267.82,329.02,259.22,330.5,250.27,330.5z"/>
	</g>
</g>
<g id="Text">
</g>
</svg>
