<?xml version="1.0" encoding="utf-8"?>
<!-- Generator: Adobe Illustrator 26.0.1, SVG Export Plug-In . SVG Version: 6.00 Build 0)  -->
<svg version="1.1" xmlns="http://www.w3.org/2000/svg" xmlns:xlink="http://www.w3.org/1999/xlink" x="0px" y="0px"
	 viewBox="0 0 500 500" style="enable-background:new 0 0 500 500;" xml:space="preserve">
<style type="text/css">
	.st0{fill:#F5333F;}
	.st1{fill:none;stroke:#011E41;stroke-width:16;stroke-miterlimit:10;}
	.st2{display:none;}
	.st3{display:inline;}
	.st4{fill:none;stroke:#D1D3D4;stroke-width:2;stroke-miterlimit:10;}
	.st5{display:inline;fill:none;stroke:#BCBEC0;stroke-width:4;stroke-miterlimit:10;}
	.st6{fill:none;stroke:#BCBEC0;stroke-width:4;stroke-miterlimit:10;}
	.st7{display:inline;fill:none;stroke:#D1D3D4;stroke-width:2;stroke-miterlimit:10;}
	.st8{display:none;opacity:0.35;fill:none;stroke:#000000;stroke-width:16;stroke-miterlimit:10;}
	.st9{fill:none;stroke:#011E41;stroke-width:16;stroke-linejoin:bevel;stroke-miterlimit:10;}
	.st10{fill:none;stroke:#F5333F;stroke-width:16;stroke-miterlimit:10;}
	.st11{fill:#011E41;}
	.st12{fill:none;stroke:#011E41;stroke-width:16;stroke-linecap:square;stroke-miterlimit:10;}
	.st13{fill:none;stroke:#011E41;stroke-width:16;stroke-linecap:round;stroke-miterlimit:10;}
	.st14{fill:none;stroke:#EF3741;stroke-width:16;stroke-miterlimit:10;}
	.st15{fill:#F5333F;stroke:#011E41;stroke-width:16;stroke-miterlimit:10;}
	.st16{fill:#EF3741;}
	.st17{fill:none;stroke:#011E41;stroke-width:8;stroke-miterlimit:10;}
	.st18{fill:none;stroke:#E73843;stroke-width:16;stroke-miterlimit:10;}
	.st19{fill:none;stroke:#011E41;stroke-width:13.4168;stroke-miterlimit:10;}
	.st20{fill:none;stroke:#011E41;stroke-width:13.8969;stroke-miterlimit:10;}
	.st21{fill:none;stroke:#011E41;stroke-width:14.2064;stroke-miterlimit:10;}
	.st22{fill:none;stroke:#011E41;stroke-width:15.0584;stroke-miterlimit:10;}
	.st23{fill:none;stroke:#011E41;stroke-width:15.1473;stroke-miterlimit:10;}
	.st24{fill:none;stroke:#011E41;stroke-width:16.5604;stroke-miterlimit:10;}
	.st25{fill:none;stroke:#011E41;stroke-width:14.3418;stroke-miterlimit:10;}
	.st26{fill:none;stroke:#011E41;stroke-width:15.8515;stroke-miterlimit:10;}
	.st27{fill:#F53340;}
</style>
<g id="Icons">
	<g>
		<circle class="st1" cx="317.5" cy="351.81" r="18.08"/>
		<path class="st1" d="M303.18,340.78c-3.31-4.29-8.49-7.05-14.32-7.05c-9.99,0-18.08,8.1-18.08,18.08s8.1,18.08,18.08,18.08
			c5.83,0,11.02-2.76,14.32-7.05"/>
		<rect x="97.86" y="237.22" class="st1" width="76.4" height="43.99"/>
		<line class="st1" x1="343.71" y1="237.22" x2="258.76" y2="237.22"/>
		<g>
			<line class="st1" x1="116.96" y1="374.1" x2="97.14" y2="374.1"/>
			<line class="st1" x1="146.03" y1="374.1" x2="126.21" y2="374.1"/>
			<line class="st1" x1="175.1" y1="374.1" x2="155.28" y2="374.1"/>
			<line class="st1" x1="204.16" y1="374.1" x2="184.34" y2="374.1"/>
		</g>
		<path class="st0" d="M423.83,129.53L155.85,91.07c-9.53-1.37-18.36,5.25-19.73,14.78l-11.34,79.01h249.1
			c11.55,0,20.92,9.37,20.92,20.92V331.7l0.01,0.01h0c9.53,1.37,18.36-5.25,19.73-14.78l24.06-167.68
			C439.97,139.72,433.36,130.89,423.83,129.53z"/>
		<path class="st1" d="M104.78,204.86l11.34-79.01c1.37-9.53,10.2-16.14,19.73-14.78l267.98,38.46c9.53,1.37,16.14,10.2,14.78,19.73
			l-24.06,167.68c-1.37,9.53-10.2,16.14-19.73,14.78l0,0"/>
		<path class="st1" d="M90.14,204.86h263.74c11.55,0,20.92,9.37,20.92,20.92v162.41c0,11.55-9.37,20.92-20.92,20.92H90.14
			c-11.55,0-20.92-9.37-20.92-20.92V225.78C69.21,214.22,78.58,204.86,90.14,204.86z"/>
	</g>
</g>
<g id="Text">
</g>
</svg>
