<?xml version="1.0" encoding="utf-8"?>
<!-- Generator: Adobe Illustrator 26.0.1, SVG Export Plug-In . SVG Version: 6.00 Build 0)  -->
<svg version="1.1" xmlns="http://www.w3.org/2000/svg" xmlns:xlink="http://www.w3.org/1999/xlink" x="0px" y="0px"
	 viewBox="0 0 581.5 500" style="enable-background:new 0 0 581.5 500;" xml:space="preserve">
<style type="text/css">
	.st0{fill:#F5333F;}
	.st1{fill:none;stroke:#011E41;stroke-width:16;stroke-miterlimit:10;}
	.st2{display:none;}
	.st3{display:inline;}
	.st4{fill:none;stroke:#D1D3D4;stroke-width:2;stroke-miterlimit:10;}
	.st5{display:inline;fill:none;stroke:#BCBEC0;stroke-width:4;stroke-miterlimit:10;}
	.st6{fill:none;stroke:#BCBEC0;stroke-width:4;stroke-miterlimit:10;}
	.st7{display:inline;fill:none;stroke:#D1D3D4;stroke-width:2;stroke-miterlimit:10;}
	.st8{display:none;opacity:0.35;fill:none;stroke:#000000;stroke-width:16;stroke-miterlimit:10;}
	.st9{fill:none;stroke:#011E41;stroke-width:16;stroke-linejoin:bevel;stroke-miterlimit:10;}
	.st10{fill:none;stroke:#F5333F;stroke-width:16;stroke-miterlimit:10;}
	.st11{fill:#011E41;}
	.st12{fill:none;stroke:#011E41;stroke-width:16;stroke-linecap:square;stroke-miterlimit:10;}
	.st13{fill:none;stroke:#011E41;stroke-width:16;stroke-linecap:round;stroke-miterlimit:10;}
	.st14{fill:none;stroke:#EF3741;stroke-width:16;stroke-miterlimit:10;}
	.st15{fill:#F5333F;stroke:#011E41;stroke-width:16;stroke-miterlimit:10;}
	.st16{fill:#EF3741;}
	.st17{fill:none;stroke:#011E41;stroke-width:8;stroke-miterlimit:10;}
	.st18{fill:none;stroke:#E73843;stroke-width:16;stroke-miterlimit:10;}
	.st19{fill:none;stroke:#011E41;stroke-width:13.4168;stroke-miterlimit:10;}
	.st20{fill:none;stroke:#011E41;stroke-width:13.8969;stroke-miterlimit:10;}
	.st21{fill:none;stroke:#011E41;stroke-width:14.2064;stroke-miterlimit:10;}
	.st22{fill:none;stroke:#011E41;stroke-width:15.0584;stroke-miterlimit:10;}
	.st23{fill:none;stroke:#011E41;stroke-width:15.1473;stroke-miterlimit:10;}
	.st24{fill:none;stroke:#011E41;stroke-width:16.5604;stroke-miterlimit:10;}
	.st25{fill:none;stroke:#011E41;stroke-width:14.3418;stroke-miterlimit:10;}
	.st26{fill:none;stroke:#011E41;stroke-width:15.8515;stroke-miterlimit:10;}
	.st27{fill:#F53340;}
</style>
<g id="Icons">
	<g>
		<g>
			<path class="st10" d="M167.27,273.91c35.98,0,65.15,29.17,65.15,65.15v0"/>
			<path class="st10" d="M291.79,236.16c-36.27,27.82-88.23,20.97-116.05-15.3l0,0"/>
			<path class="st10" d="M272.62,369.81c-10.39,8.92-23.85,14.16-38.24,14.16h-81.71L32.25,199.44c13.2-13.48,34.86-13.59,48.2-0.25
				l59.87,59.87"/>
			<line class="st10" x1="316.32" y1="258.58" x2="297.55" y2="319.6"/>
			<path class="st10" d="M133.36,214.3L112.23,86.13c-2.01-9.4,3.99-18.65,13.39-20.65c9.4-2.01,18.65,3.99,20.65,13.39
				l22.16,104.86c6.51-2.52,9.02-3.29,15.95-4.86l2.77-138.95c0-9.61,7.79-17.4,17.4-17.4s17.4,7.79,17.4,17.4l2,134.03
				c2.81,0,13.93,0.89,18.03,1.47l19.61-107.64c1.72-9.46,10.78-15.73,20.23-14.01c9.46,1.72,15.73,10.78,14.01,20.23l-18.44,111.24
				c5.74,2.3,9.42,4.09,14.77,7.06l36.92-75.4c3.35-7.49,12.14-10.84,19.63-7.48c7.49,3.35,10.84,12.14,7.48,19.63l-17.11,55.6"/>
		</g>
		<g>
			<path class="st1" d="M357.48,367.44c35.98,0,65.15,29.17,65.15,65.15v0"/>
			<path class="st1" d="M482,329.69c-36.27,27.82-88.23,20.97-116.05-15.3l0,0"/>
			<path class="st1" d="M323.58,307.82l-21.13-128.17c-2.01-9.4,3.99-18.65,13.39-20.65c9.4-2.01,18.65,3.99,20.65,13.39
				l22.16,104.86c6.51-2.52,9.02-3.29,15.95-4.86l2.77-138.95c0-9.61,7.79-17.4,17.4-17.4c9.61,0,17.4,7.79,17.4,17.4l2,134.03
				c2.81,0,13.93,0.89,18.03,1.47l19.61-107.64c1.72-9.46,10.78-15.73,20.23-14.01c9.46,1.72,15.73,10.78,14.01,20.23L467.6,278.76
				c5.74,2.3,9.42,4.09,14.77,7.06l36.92-75.4c3.35-7.49,12.14-10.84,19.63-7.48c7.49,3.35,10.84,12.14,7.48,19.63l-65.69,213.49
				c-7.58,24.63-30.34,41.44-56.11,41.44h-81.71L222.47,292.96c13.2-13.48,34.86-13.59,48.2-0.25l59.87,59.87"/>
		</g>
	</g>
</g>
<g id="Text">
</g>
</svg>
