<?xml version="1.0" encoding="utf-8"?>
<!-- Generator: Adobe Illustrator 26.0.1, SVG Export Plug-In . SVG Version: 6.00 Build 0)  -->
<svg version="1.1" xmlns="http://www.w3.org/2000/svg" xmlns:xlink="http://www.w3.org/1999/xlink" x="0px" y="0px"
	 viewBox="0 0 500 500" style="enable-background:new 0 0 500 500;" xml:space="preserve">
<style type="text/css">
	.st0{fill:#F5333F;}
	.st1{fill:none;stroke:#011E41;stroke-width:16;stroke-miterlimit:10;}
	.st2{display:none;}
	.st3{display:inline;}
	.st4{fill:none;stroke:#D1D3D4;stroke-width:2;stroke-miterlimit:10;}
	.st5{display:inline;fill:none;stroke:#BCBEC0;stroke-width:4;stroke-miterlimit:10;}
	.st6{fill:none;stroke:#BCBEC0;stroke-width:4;stroke-miterlimit:10;}
	.st7{display:inline;fill:none;stroke:#D1D3D4;stroke-width:2;stroke-miterlimit:10;}
	.st8{display:none;opacity:0.35;fill:none;stroke:#000000;stroke-width:16;stroke-miterlimit:10;}
	.st9{fill:none;stroke:#011E41;stroke-width:16;stroke-linejoin:bevel;stroke-miterlimit:10;}
	.st10{fill:none;stroke:#F5333F;stroke-width:16;stroke-miterlimit:10;}
	.st11{fill:#011E41;}
	.st12{fill:none;stroke:#011E41;stroke-width:16;stroke-linecap:square;stroke-miterlimit:10;}
	.st13{fill:none;stroke:#011E41;stroke-width:16;stroke-linecap:round;stroke-miterlimit:10;}
	.st14{fill:none;stroke:#EF3741;stroke-width:16;stroke-miterlimit:10;}
	.st15{fill:#F5333F;stroke:#011E41;stroke-width:16;stroke-miterlimit:10;}
	.st16{fill:#EF3741;}
	.st17{fill:none;stroke:#011E41;stroke-width:8;stroke-miterlimit:10;}
	.st18{fill:none;stroke:#E73843;stroke-width:16;stroke-miterlimit:10;}
	.st19{fill:none;stroke:#011E41;stroke-width:13.4168;stroke-miterlimit:10;}
	.st20{fill:none;stroke:#011E41;stroke-width:13.8969;stroke-miterlimit:10;}
	.st21{fill:none;stroke:#011E41;stroke-width:14.2064;stroke-miterlimit:10;}
	.st22{fill:none;stroke:#011E41;stroke-width:15.0584;stroke-miterlimit:10;}
	.st23{fill:none;stroke:#011E41;stroke-width:15.1473;stroke-miterlimit:10;}
	.st24{fill:none;stroke:#011E41;stroke-width:16.5604;stroke-miterlimit:10;}
	.st25{fill:none;stroke:#011E41;stroke-width:14.3418;stroke-miterlimit:10;}
	.st26{fill:none;stroke:#011E41;stroke-width:15.8515;stroke-miterlimit:10;}
	.st27{fill:#F53340;}
</style>
<g id="Icons">
	<g>
		<polygon class="st0" points="194.77,156.6 225.32,101.06 307.42,101.06 337.97,156.6 		"/>
		<g>
			<g>
				<polygon class="st1" points="170.62,266.42 170.62,171.87 324.01,171.87 324.01,266.75 				"/>
				<polyline class="st12" points="172.9,162.26 197.45,117.63 297.18,117.63 321.73,162.26 				"/>
				<g>
					<rect x="199.98" y="198.68" class="st1" width="31.55" height="40.98"/>
					<rect x="263.09" y="198.68" class="st1" width="31.55" height="40.98"/>
				</g>
			</g>
		</g>
	</g>
	<g>
		<g>
			<polygon class="st0" points="83.37,347.03 113.92,291.49 196.02,291.49 226.57,347.03 			"/>
			<g>
				<g>
					<polygon class="st1" points="59.22,456.85 59.22,362.3 212.61,362.3 212.61,457.18 					"/>
					<polyline class="st12" points="61.5,352.69 86.05,308.05 185.78,308.05 210.33,352.69 					"/>
					<g>
						<rect x="88.58" y="389.11" class="st1" width="31.55" height="40.98"/>
						<rect x="151.69" y="389.11" class="st1" width="31.55" height="40.98"/>
					</g>
				</g>
			</g>
		</g>
		<g>
			<polygon class="st0" points="306.17,347.03 336.72,291.49 418.82,291.49 449.37,347.03 			"/>
			<g>
				<g>
					<polygon class="st1" points="282.02,456.85 282.02,362.3 435.41,362.3 435.41,457.18 					"/>
					<polyline class="st12" points="284.3,352.69 308.85,308.05 408.58,308.05 433.13,352.69 					"/>
					<g>
						<rect x="311.38" y="389.11" class="st1" width="31.55" height="40.98"/>
						<rect x="374.49" y="389.11" class="st1" width="31.55" height="40.98"/>
					</g>
				</g>
			</g>
		</g>
	</g>
	<path class="st10" d="M370.01,86.11C336.98,60.11,295.3,44.6,250,44.6c-45.3,0-86.98,15.51-120.01,41.5"/>
</g>
<g id="Text">
</g>
</svg>
