<?xml version="1.0" encoding="utf-8"?>
<!-- Generator: Adobe Illustrator 26.0.1, SVG Export Plug-In . SVG Version: 6.00 Build 0)  -->
<svg version="1.1" xmlns="http://www.w3.org/2000/svg" xmlns:xlink="http://www.w3.org/1999/xlink" x="0px" y="0px"
	 viewBox="0 0 500 500" style="enable-background:new 0 0 500 500;" xml:space="preserve">
<style type="text/css">
	.st0{fill:#F5333F;}
	.st1{fill:none;stroke:#011E41;stroke-width:16;stroke-miterlimit:10;}
	.st2{display:none;}
	.st3{display:inline;}
	.st4{fill:none;stroke:#D1D3D4;stroke-width:2;stroke-miterlimit:10;}
	.st5{display:inline;fill:none;stroke:#BCBEC0;stroke-width:4;stroke-miterlimit:10;}
	.st6{fill:none;stroke:#BCBEC0;stroke-width:4;stroke-miterlimit:10;}
	.st7{display:inline;fill:none;stroke:#D1D3D4;stroke-width:2;stroke-miterlimit:10;}
	.st8{display:none;opacity:0.35;fill:none;stroke:#000000;stroke-width:16;stroke-miterlimit:10;}
	.st9{fill:none;stroke:#011E41;stroke-width:16;stroke-linejoin:bevel;stroke-miterlimit:10;}
	.st10{fill:none;stroke:#F5333F;stroke-width:16;stroke-miterlimit:10;}
	.st11{fill:#011E41;}
	.st12{fill:none;stroke:#011E41;stroke-width:16;stroke-linecap:square;stroke-miterlimit:10;}
	.st13{fill:none;stroke:#011E41;stroke-width:16;stroke-linecap:round;stroke-miterlimit:10;}
	.st14{fill:none;stroke:#EF3741;stroke-width:16;stroke-miterlimit:10;}
	.st15{fill:#F5333F;stroke:#011E41;stroke-width:16;stroke-miterlimit:10;}
	.st16{fill:#EF3741;}
	.st17{fill:none;stroke:#011E41;stroke-width:8;stroke-miterlimit:10;}
	.st18{fill:none;stroke:#E73843;stroke-width:16;stroke-miterlimit:10;}
	.st19{fill:none;stroke:#011E41;stroke-width:13.4168;stroke-miterlimit:10;}
	.st20{fill:none;stroke:#011E41;stroke-width:13.8969;stroke-miterlimit:10;}
	.st21{fill:none;stroke:#011E41;stroke-width:14.2064;stroke-miterlimit:10;}
	.st22{fill:none;stroke:#011E41;stroke-width:15.0584;stroke-miterlimit:10;}
	.st23{fill:none;stroke:#011E41;stroke-width:15.1473;stroke-miterlimit:10;}
	.st24{fill:none;stroke:#011E41;stroke-width:16.5604;stroke-miterlimit:10;}
	.st25{fill:none;stroke:#011E41;stroke-width:14.3418;stroke-miterlimit:10;}
	.st26{fill:none;stroke:#011E41;stroke-width:15.8515;stroke-miterlimit:10;}
	.st27{fill:#F53340;}
</style>
<g id="Icons">
	<g>
		<circle class="st0" cx="213.14" cy="254.12" r="158.29"/>
		<circle class="st1" cx="213.14" cy="224.12" r="31.06"/>
		<circle class="st1" cx="213.14" cy="224.12" r="158.29"/>
		<circle class="st1" cx="419.82" cy="224.41" r="25.33"/>
		<path class="st1" d="M329.89,397.41h28.57c42.29,0,76.58-34.29,76.58-76.58v-80.56"/>
		<path class="st1" d="M405.53,240.27v76.07c0,29.19-23.66,52.86-52.86,52.86h-24.64"/>
		<g>
			<path class="st1" d="M163.06,274.2c-27.66-27.66-27.66-72.5,0-100.16"/>
			<path class="st1" d="M263.22,174.04c27.66,27.66,27.66,72.5,0,100.16"/>
			<path class="st1" d="M122.61,314.65c-50-50-50-131.06,0-181.06"/>
			<path class="st1" d="M303.67,133.59c50,50,50,131.06,0,181.06"/>
			<path class="st1" d="M143.06,294.2c-38.7-38.7-38.7-101.46,0-140.16"/>
			<path class="st1" d="M283.22,154.04c38.7,38.7,38.7,101.46,0,140.16"/>
		</g>
		<path class="st1" d="M333.62,328.22v67.51c0,21.23-17.21,38.44-38.44,38.44H131.1c-21.23,0-38.44-17.21-38.44-38.44v-67.51"/>
	</g>
</g>
<g id="Text">
</g>
</svg>
