<?xml version="1.0" encoding="utf-8"?>
<!-- Generator: Adobe Illustrator 26.0.1, SVG Export Plug-In . SVG Version: 6.00 Build 0)  -->
<svg version="1.1" xmlns="http://www.w3.org/2000/svg" xmlns:xlink="http://www.w3.org/1999/xlink" x="0px" y="0px"
	 viewBox="0 0 500 500" style="enable-background:new 0 0 500 500;" xml:space="preserve">
<style type="text/css">
	.st0{fill:#F5333F;}
	.st1{fill:none;stroke:#011E41;stroke-width:16;stroke-miterlimit:10;}
	.st2{display:none;}
	.st3{display:inline;}
	.st4{fill:none;stroke:#D1D3D4;stroke-width:2;stroke-miterlimit:10;}
	.st5{display:inline;fill:none;stroke:#BCBEC0;stroke-width:4;stroke-miterlimit:10;}
	.st6{fill:none;stroke:#BCBEC0;stroke-width:4;stroke-miterlimit:10;}
	.st7{display:inline;fill:none;stroke:#D1D3D4;stroke-width:2;stroke-miterlimit:10;}
	.st8{display:none;opacity:0.35;fill:none;stroke:#000000;stroke-width:16;stroke-miterlimit:10;}
	.st9{fill:none;stroke:#011E41;stroke-width:16;stroke-linejoin:bevel;stroke-miterlimit:10;}
	.st10{fill:none;stroke:#F5333F;stroke-width:16;stroke-miterlimit:10;}
	.st11{fill:#011E41;}
	.st12{fill:none;stroke:#011E41;stroke-width:16;stroke-linecap:square;stroke-miterlimit:10;}
	.st13{fill:none;stroke:#011E41;stroke-width:16;stroke-linecap:round;stroke-miterlimit:10;}
	.st14{fill:none;stroke:#EF3741;stroke-width:16;stroke-miterlimit:10;}
	.st15{fill:#F5333F;stroke:#011E41;stroke-width:16;stroke-miterlimit:10;}
	.st16{fill:#EF3741;}
	.st17{fill:none;stroke:#011E41;stroke-width:8;stroke-miterlimit:10;}
	.st18{fill:none;stroke:#E73843;stroke-width:16;stroke-miterlimit:10;}
	.st19{fill:none;stroke:#011E41;stroke-width:13.4168;stroke-miterlimit:10;}
	.st20{fill:none;stroke:#011E41;stroke-width:13.8969;stroke-miterlimit:10;}
	.st21{fill:none;stroke:#011E41;stroke-width:14.2064;stroke-miterlimit:10;}
	.st22{fill:none;stroke:#011E41;stroke-width:15.0584;stroke-miterlimit:10;}
	.st23{fill:none;stroke:#011E41;stroke-width:15.1473;stroke-miterlimit:10;}
	.st24{fill:none;stroke:#011E41;stroke-width:16.5604;stroke-miterlimit:10;}
	.st25{fill:none;stroke:#011E41;stroke-width:14.3418;stroke-miterlimit:10;}
	.st26{fill:none;stroke:#011E41;stroke-width:15.8515;stroke-miterlimit:10;}
	.st27{fill:#F53340;}
</style>
<g id="Icons">
	<g>
		<circle class="st0" cx="250" cy="250" r="146.1"/>
		<g>
			<path class="st1" d="M263.82,207.49l-39.45-40.1c-0.01-0.02-0.03-0.03-0.04-0.05c-2.08-2.08-4.92-3.26-7.94-3.27
				c-3.17-0.01-6.14,1.27-8.32,3.6c-4.24,4.51-3.86,11.67,0.52,16.05l41.74,41.74l42.99-42.99c13.89-14.12,32.59-22.05,52.54-22.21
				c19.95-0.16,38.78,7.46,53,21.45c0.15,0.15,0.3,0.3,0.44,0.44c13.95,13.95,21.71,32.46,21.87,52.2c0.1,11.9-2.57,23.4-7.72,33.77
				c-5.38,10.84-19.73,13.33-28.36,4.85h0c-5.47-5.38-7.06-13.7-3.63-20.56c2.72-5.44,4.13-11.49,4.08-17.76
				c-0.08-10.33-4.14-20.01-11.44-27.31c-0.08-0.08-0.16-0.16-0.23-0.23c-7.44-7.32-17.29-11.31-27.73-11.22
				c-10.44,0.09-20.22,4.23-27.54,11.67l-43.54,43.54c0,0,44.73,45.51,2.83,87.4s-87.4-2.84-87.4-2.84l-19.83,19.83
				c-20.69,20.69-54.39,21.65-75.48,1.36c-21.57-20.77-21.81-55.22-0.74-76.3l7.43-7.43c20.87-20.87,54.71-20.87,75.58,0l12.6,12.6
				l35.07-35.07l-41.42-41.42c-18.41-18.41-18.88-49-0.33-67.28c8.88-8.75,20.62-13.55,33.11-13.51
				c12.51,0.04,24.24,4.92,33.08,13.76c0.07,0.07,0.14,0.14,0.2,0.2l39.51,40.16 M152.27,298.32c-6.95-6.95-18.25-6.94-25.19,0
				l-7.42,7.42c-6.95,6.95-6.95,18.25,0,25.19s18.25,6.95,25.19,0l20.02-20.02L152.27,298.32z M249.19,276.97l-32.82,32.82
				c0,0,19.79,20.06,36.33,3.52S249.19,276.97,249.19,276.97z"/>
		</g>
	</g>
</g>
<g id="Text">
</g>
</svg>
