<?xml version="1.0" encoding="utf-8"?>
<!-- Generator: Adobe Illustrator 26.0.1, SVG Export Plug-In . SVG Version: 6.00 Build 0)  -->
<svg version="1.1" xmlns="http://www.w3.org/2000/svg" xmlns:xlink="http://www.w3.org/1999/xlink" x="0px" y="0px"
	 viewBox="0 0 500 500" style="enable-background:new 0 0 500 500;" xml:space="preserve">
<style type="text/css">
	.st0{fill:#F5333F;}
	.st1{fill:none;stroke:#011E41;stroke-width:16;stroke-miterlimit:10;}
	.st2{display:none;}
	.st3{display:inline;}
	.st4{fill:none;stroke:#D1D3D4;stroke-width:2;stroke-miterlimit:10;}
	.st5{display:inline;fill:none;stroke:#BCBEC0;stroke-width:4;stroke-miterlimit:10;}
	.st6{fill:none;stroke:#BCBEC0;stroke-width:4;stroke-miterlimit:10;}
	.st7{display:inline;fill:none;stroke:#D1D3D4;stroke-width:2;stroke-miterlimit:10;}
	.st8{display:none;opacity:0.35;fill:none;stroke:#000000;stroke-width:16;stroke-miterlimit:10;}
	.st9{fill:none;stroke:#011E41;stroke-width:16;stroke-linejoin:bevel;stroke-miterlimit:10;}
	.st10{fill:none;stroke:#F5333F;stroke-width:16;stroke-miterlimit:10;}
	.st11{fill:#011E41;}
	.st12{fill:none;stroke:#011E41;stroke-width:16;stroke-linecap:square;stroke-miterlimit:10;}
	.st13{fill:none;stroke:#011E41;stroke-width:16;stroke-linecap:round;stroke-miterlimit:10;}
	.st14{fill:none;stroke:#EF3741;stroke-width:16;stroke-miterlimit:10;}
	.st15{fill:#F5333F;stroke:#011E41;stroke-width:16;stroke-miterlimit:10;}
	.st16{fill:#EF3741;}
	.st17{fill:none;stroke:#011E41;stroke-width:8;stroke-miterlimit:10;}
	.st18{fill:none;stroke:#E73843;stroke-width:16;stroke-miterlimit:10;}
	.st19{fill:none;stroke:#011E41;stroke-width:13.4168;stroke-miterlimit:10;}
	.st20{fill:none;stroke:#011E41;stroke-width:13.8969;stroke-miterlimit:10;}
	.st21{fill:none;stroke:#011E41;stroke-width:14.2064;stroke-miterlimit:10;}
	.st22{fill:none;stroke:#011E41;stroke-width:15.0584;stroke-miterlimit:10;}
	.st23{fill:none;stroke:#011E41;stroke-width:15.1473;stroke-miterlimit:10;}
	.st24{fill:none;stroke:#011E41;stroke-width:16.5604;stroke-miterlimit:10;}
	.st25{fill:none;stroke:#011E41;stroke-width:14.3418;stroke-miterlimit:10;}
	.st26{fill:none;stroke:#011E41;stroke-width:15.8515;stroke-miterlimit:10;}
	.st27{fill:#F53340;}
</style>
<g id="Icons">
	<g>
		<path class="st0" d="M412.13,366.96H298.92c-28.38,0-54.41-15.78-67.52-40.95l0,0c-18.22-34.97-50.57-60.44-88.83-69.97
			l-20.17-5.02l15-24h203.88c58.21,0,105.4,47.19,105.4,105.4v0C446.67,351.5,431.2,366.96,412.13,366.96z"/>
		<circle class="st1" cx="87.86" cy="217.02" r="51.53"/>
		<circle class="st1" cx="87.86" cy="217.02" r="24"/>
		<path class="st1" d="M279.76,207.02c0-19.87,16.11-35.98,35.98-35.98c19.87,0,35.98,16.11,35.98,35.98"/>
		<path class="st1" d="M301.76,173.03v-47.98c0-6.62,5.37-11.99,11.99-11.99h0c6.62,0,11.99,5.37,11.99,11.99v47.98"/>
		<line class="st1" x1="163.81" y1="137.05" x2="301.76" y2="137.05"/>
		<line class="st1" x1="325.75" y1="137.05" x2="463.7" y2="137.05"/>
		<g>
			<line class="st1" x1="383.71" y1="381.95" x2="383.71" y2="346.96"/>
			<line class="st1" x1="287.76" y1="381.95" x2="287.76" y2="346.96"/>
		</g>
		<path class="st1" d="M463.67,362.95L463.67,362.95c0.02,13.24-10.72,23.99-23.96,23.99H231.76c-13.23,0-23.96-10.73-23.96-23.96
			v-0.03"/>
		<path class="st1" d="M429.13,346.96H315.92c-28.38,0-54.41-15.78-67.52-40.95l0,0c-18.22-34.97-50.57-60.44-88.83-69.97
			l-20.17-5.02v-24h218.88c58.21,0,105.4,47.19,105.4,105.4v0C463.67,331.5,448.2,346.96,429.13,346.96z"/>
		<polyline class="st1" points="339.74,346.96 339.74,243 437.58,243 		"/>
		<path class="st1" d="M51.88,176.01v-52.95h11.59c9.61,0,17.4,7.79,17.4,17.4v25.03"/>
		<line class="st1" x1="346.07" y1="299.02" x2="465.42" y2="299.02"/>
	</g>
</g>
<g id="Text">
</g>
</svg>
