<?xml version="1.0" encoding="utf-8"?>
<!-- Generator: Adobe Illustrator 26.0.1, SVG Export Plug-In . SVG Version: 6.00 Build 0)  -->
<svg version="1.1" xmlns="http://www.w3.org/2000/svg" xmlns:xlink="http://www.w3.org/1999/xlink" x="0px" y="0px"
	 viewBox="0 0 500 500" style="enable-background:new 0 0 500 500;" xml:space="preserve">
<style type="text/css">
	.st0{fill:#F5333F;}
	.st1{fill:none;stroke:#011E41;stroke-width:16;stroke-miterlimit:10;}
	.st2{display:none;}
	.st3{display:inline;}
	.st4{fill:none;stroke:#D1D3D4;stroke-width:2;stroke-miterlimit:10;}
	.st5{display:inline;fill:none;stroke:#BCBEC0;stroke-width:4;stroke-miterlimit:10;}
	.st6{fill:none;stroke:#BCBEC0;stroke-width:4;stroke-miterlimit:10;}
	.st7{display:inline;fill:none;stroke:#D1D3D4;stroke-width:2;stroke-miterlimit:10;}
	.st8{display:none;opacity:0.35;fill:none;stroke:#000000;stroke-width:16;stroke-miterlimit:10;}
	.st9{fill:none;stroke:#011E41;stroke-width:16;stroke-linejoin:bevel;stroke-miterlimit:10;}
	.st10{fill:none;stroke:#F5333F;stroke-width:16;stroke-miterlimit:10;}
	.st11{fill:#011E41;}
	.st12{fill:none;stroke:#011E41;stroke-width:16;stroke-linecap:square;stroke-miterlimit:10;}
	.st13{fill:none;stroke:#011E41;stroke-width:16;stroke-linecap:round;stroke-miterlimit:10;}
	.st14{fill:none;stroke:#EF3741;stroke-width:16;stroke-miterlimit:10;}
	.st15{fill:#F5333F;stroke:#011E41;stroke-width:16;stroke-miterlimit:10;}
	.st16{fill:#EF3741;}
	.st17{fill:none;stroke:#011E41;stroke-width:8;stroke-miterlimit:10;}
	.st18{fill:none;stroke:#E73843;stroke-width:16;stroke-miterlimit:10;}
	.st19{fill:none;stroke:#011E41;stroke-width:13.4168;stroke-miterlimit:10;}
	.st20{fill:none;stroke:#011E41;stroke-width:13.8969;stroke-miterlimit:10;}
	.st21{fill:none;stroke:#011E41;stroke-width:14.2064;stroke-miterlimit:10;}
	.st22{fill:none;stroke:#011E41;stroke-width:15.0584;stroke-miterlimit:10;}
	.st23{fill:none;stroke:#011E41;stroke-width:15.1473;stroke-miterlimit:10;}
	.st24{fill:none;stroke:#011E41;stroke-width:16.5604;stroke-miterlimit:10;}
	.st25{fill:none;stroke:#011E41;stroke-width:14.3418;stroke-miterlimit:10;}
	.st26{fill:none;stroke:#011E41;stroke-width:15.8515;stroke-miterlimit:10;}
	.st27{fill:#F53340;}
</style>
<g id="Icons">
	<g>
		<g>
			
				<rect x="209.07" y="185.17" transform="matrix(1 -1.613418e-03 1.613418e-03 1 -0.4571 0.4045)" class="st1" width="82.77" height="196.66"/>
			
				<rect x="226.83" y="406.98" transform="matrix(1 -1.613418e-03 1.613418e-03 1 -0.693 0.405)" class="st1" width="47.72" height="45.5"/>
			
				<rect x="188.5" y="381.83" transform="matrix(1 -1.613418e-03 1.613418e-03 1 -0.636 0.4049)" class="st1" width="124.26" height="25.15"/>
			
				<rect x="202.9" y="452.47" transform="matrix(1 -1.613418e-03 1.613418e-03 1 -0.75 0.4052)" class="st1" width="95.69" height="25.15"/>
			<polyline class="st1" points="226.08,185.2 234.69,159.48 265.81,159.43 274.5,185.13 			"/>
			<line class="st1" x1="209.19" y1="357.17" x2="291.95" y2="357.03"/>
			<line class="st1" x1="250.12" y1="160.01" x2="249.99" y2="77.25"/>
			<line class="st1" x1="209.14" y1="328.46" x2="238.4" y2="328.41"/>
			<line class="st1" x1="209.1" y1="299.75" x2="238.35" y2="299.7"/>
			<line class="st1" x1="209.05" y1="271.04" x2="238.31" y2="270.99"/>
			<line class="st1" x1="209" y1="242.33" x2="238.26" y2="242.28"/>
			<line class="st1" x1="208.96" y1="213.62" x2="238.22" y2="213.57"/>
		</g>
		<path class="st10" d="M370.01,63.8C336.98,37.81,295.3,22.3,250,22.3c-45.3,0-86.98,15.51-120.01,41.5"/>
	</g>
</g>
<g id="Text">
</g>
</svg>
