<?xml version="1.0" encoding="utf-8"?>
<!-- Generator: Adobe Illustrator 26.0.1, SVG Export Plug-In . SVG Version: 6.00 Build 0)  -->
<svg version="1.1" xmlns="http://www.w3.org/2000/svg" xmlns:xlink="http://www.w3.org/1999/xlink" x="0px" y="0px"
	 viewBox="0 0 500 500" style="enable-background:new 0 0 500 500;" xml:space="preserve">
<style type="text/css">
	.st0{fill:#F5333F;}
	.st1{fill:none;stroke:#011E41;stroke-width:16;stroke-miterlimit:10;}
	.st2{display:none;}
	.st3{display:inline;}
	.st4{fill:none;stroke:#D1D3D4;stroke-width:2;stroke-miterlimit:10;}
	.st5{display:inline;fill:none;stroke:#BCBEC0;stroke-width:4;stroke-miterlimit:10;}
	.st6{fill:none;stroke:#BCBEC0;stroke-width:4;stroke-miterlimit:10;}
	.st7{display:inline;fill:none;stroke:#D1D3D4;stroke-width:2;stroke-miterlimit:10;}
	.st8{display:none;opacity:0.35;fill:none;stroke:#000000;stroke-width:16;stroke-miterlimit:10;}
	.st9{fill:none;stroke:#011E41;stroke-width:16;stroke-linejoin:bevel;stroke-miterlimit:10;}
	.st10{fill:none;stroke:#F5333F;stroke-width:16;stroke-miterlimit:10;}
	.st11{fill:#011E41;}
	.st12{fill:none;stroke:#011E41;stroke-width:16;stroke-linecap:square;stroke-miterlimit:10;}
	.st13{fill:none;stroke:#011E41;stroke-width:16;stroke-linecap:round;stroke-miterlimit:10;}
	.st14{fill:none;stroke:#EF3741;stroke-width:16;stroke-miterlimit:10;}
	.st15{fill:#F5333F;stroke:#011E41;stroke-width:16;stroke-miterlimit:10;}
	.st16{fill:#EF3741;}
	.st17{fill:none;stroke:#011E41;stroke-width:8;stroke-miterlimit:10;}
	.st18{fill:none;stroke:#E73843;stroke-width:16;stroke-miterlimit:10;}
	.st19{fill:none;stroke:#011E41;stroke-width:13.4168;stroke-miterlimit:10;}
	.st20{fill:none;stroke:#011E41;stroke-width:13.8969;stroke-miterlimit:10;}
	.st21{fill:none;stroke:#011E41;stroke-width:14.2064;stroke-miterlimit:10;}
	.st22{fill:none;stroke:#011E41;stroke-width:15.0584;stroke-miterlimit:10;}
	.st23{fill:none;stroke:#011E41;stroke-width:15.1473;stroke-miterlimit:10;}
	.st24{fill:none;stroke:#011E41;stroke-width:16.5604;stroke-miterlimit:10;}
	.st25{fill:none;stroke:#011E41;stroke-width:14.3418;stroke-miterlimit:10;}
	.st26{fill:none;stroke:#011E41;stroke-width:15.8515;stroke-miterlimit:10;}
	.st27{fill:#F53340;}
</style>
<g id="Icons">
	<g>
		<g>
			<path class="st1" d="M169.53,168.97c-7.04-7.3-6.83-18.92,0.47-25.96c7.3-7.04,18.92-6.83,25.96,0.47l48.05,47.57
				c7.04,7.3,6.83,18.92-0.47,25.96c-7.3,7.04-18.92,6.83-25.96-0.47L169.53,168.97z"/>
			<path class="st1" d="M146.74,197.53c-7.04-7.3-6.83-18.92,0.47-25.96c7.3-7.04,18.92-6.83,25.96,0.47l60.44,59.97
				c7.04,7.3,6.83,18.92-0.47,25.96c-7.3,7.04-18.92,6.83-25.96-0.47L146.74,197.53z"/>
			<path class="st1" d="M127.15,230.56c-7.04-7.3-6.83-18.92,0.47-25.96c7.3-7.04,18.92-6.83,25.96,0.47l48.05,47.57
				c7.04,7.3,6.83,18.92-0.47,25.96c-7.3,7.04-18.92,6.83-25.96-0.47L127.15,230.56z"/>
			<path class="st1" d="M110.7,267.23c-7.04-7.3-6.83-18.92,0.47-25.96c7.3-7.04,18.92-6.83,25.96,0.47l36.48,36.01
				c7.04,7.3,6.83,18.92-0.47,25.96c-7.3,7.04-18.92,6.83-25.96-0.47L110.7,267.23z"/>
			<g>
				<line class="st1" x1="148.22" y1="304.27" x2="97.98" y2="354.33"/>
				<path class="st1" d="M311.81,244.49l46.72-46.95c7.04-7.3,6.83-18.92-0.47-25.96c-7.3-7.04-18.92-6.83-25.96,0.47l-46.93,46.46"
					/>
				<path class="st1" d="M336.74,271.47l41.38-40.91c7.04-7.3,6.83-18.92-0.47-25.96c-7.3-7.04-18.92-6.83-25.96,0.47l-39.88,39.41"
					/>
				<path class="st1" d="M336.68,271.41l33.77-33.3c7.04-7.3,18.66-7.51,25.96-0.47c7.3,7.04,7.51,18.66,0.47,25.96L295.99,364.07
					c-9.7,9.66-22.45,15.64-36.08,16.91h0c-13.67,1.28-26.46,7.29-36.17,16.99l-36.51,36.51"/>
			</g>
			<path class="st1" d="M335.74,168.97c7.04-7.3,6.83-18.92-0.47-25.96c-7.3-7.04-18.92-6.83-25.96,0.47l-56.11,55.98l4.19-25.17
				c1.07-6.44-3.88-12.3-10.41-12.32l-10.94-0.02c-12.79-0.02-23.08-10.5-22.88-23.28l0.23-7.51h55.43
				c14.54,0,26.33,11.79,26.33,26.33v0"/>
			<path class="st1" d="M387.79,351.77l-33.98-32.05c0.04-4.01-0.38-8.02-1.27-11.95"/>
			<path class="st1" d="M233.01,387.85c8,7.96,17.99,12.74,28.37,14.32l37.43,35.38"/>
		</g>
		<path class="st10" d="M370.01,103.95C336.98,77.95,295.3,62.45,250,62.45c-45.3,0-86.98,15.51-120.01,41.5"/>
	</g>
</g>
<g id="Text">
</g>
</svg>
