<?xml version="1.0" encoding="utf-8"?>
<!-- Generator: Adobe Illustrator 26.0.1, SVG Export Plug-In . SVG Version: 6.00 Build 0)  -->
<svg version="1.1" xmlns="http://www.w3.org/2000/svg" xmlns:xlink="http://www.w3.org/1999/xlink" x="0px" y="0px"
	 viewBox="0 0 500 500" style="enable-background:new 0 0 500 500;" xml:space="preserve">
<style type="text/css">
	.st0{fill:#F5333F;}
	.st1{fill:none;stroke:#011E41;stroke-width:16;stroke-miterlimit:10;}
	.st2{display:none;}
	.st3{display:inline;}
	.st4{fill:none;stroke:#D1D3D4;stroke-width:2;stroke-miterlimit:10;}
	.st5{display:inline;fill:none;stroke:#BCBEC0;stroke-width:4;stroke-miterlimit:10;}
	.st6{fill:none;stroke:#BCBEC0;stroke-width:4;stroke-miterlimit:10;}
	.st7{display:inline;fill:none;stroke:#D1D3D4;stroke-width:2;stroke-miterlimit:10;}
	.st8{display:none;opacity:0.35;fill:none;stroke:#000000;stroke-width:16;stroke-miterlimit:10;}
	.st9{fill:none;stroke:#011E41;stroke-width:16;stroke-linejoin:bevel;stroke-miterlimit:10;}
	.st10{fill:none;stroke:#F5333F;stroke-width:16;stroke-miterlimit:10;}
	.st11{fill:#011E41;}
	.st12{fill:none;stroke:#011E41;stroke-width:16;stroke-linecap:square;stroke-miterlimit:10;}
	.st13{fill:none;stroke:#011E41;stroke-width:16;stroke-linecap:round;stroke-miterlimit:10;}
	.st14{fill:none;stroke:#EF3741;stroke-width:16;stroke-miterlimit:10;}
	.st15{fill:#F5333F;stroke:#011E41;stroke-width:16;stroke-miterlimit:10;}
	.st16{fill:#EF3741;}
	.st17{fill:none;stroke:#011E41;stroke-width:8;stroke-miterlimit:10;}
	.st18{fill:none;stroke:#E73843;stroke-width:16;stroke-miterlimit:10;}
	.st19{fill:none;stroke:#011E41;stroke-width:13.4168;stroke-miterlimit:10;}
	.st20{fill:none;stroke:#011E41;stroke-width:13.8969;stroke-miterlimit:10;}
	.st21{fill:none;stroke:#011E41;stroke-width:14.2064;stroke-miterlimit:10;}
	.st22{fill:none;stroke:#011E41;stroke-width:15.0584;stroke-miterlimit:10;}
	.st23{fill:none;stroke:#011E41;stroke-width:15.1473;stroke-miterlimit:10;}
	.st24{fill:none;stroke:#011E41;stroke-width:16.5604;stroke-miterlimit:10;}
	.st25{fill:none;stroke:#011E41;stroke-width:14.3418;stroke-miterlimit:10;}
	.st26{fill:none;stroke:#011E41;stroke-width:15.8515;stroke-miterlimit:10;}
	.st27{fill:#F53340;}
</style>
<g id="Icons">
	<g>
		<polygon class="st0" points="468,273.46 431.37,236.83 468,200.21 392.04,200.21 355.41,236.83 392.04,273.46 		"/>
		<circle class="st0" cx="207.92" cy="237" r="22.22"/>
		<g>
			<g>
				<circle class="st1" cx="207.92" cy="236.83" r="42.56"/>
				<g>
					<path class="st1" d="M110.3,321.02c-19.5-22.59-31.29-52.01-31.29-84.19c0-71.19,57.71-128.9,128.9-128.9
						s128.9,57.71,128.9,128.9s-57.71,128.9-128.9,128.9c-14.29,0-28.03-2.32-40.88-6.62"/>
					<path class="st1" d="M143.47,348.49c-6.2-3.59-12.07-7.68-17.57-12.21"/>
				</g>
				<g>
					<path class="st1" d="M272.38,181.24c12.87,14.91,20.66,34.34,20.66,55.59c0,47.01-38.11,85.12-85.12,85.12
						s-85.12-38.11-85.12-85.12s38.11-85.12,85.12-85.12c9.44,0,18.51,1.54,26.99,4.37"/>
					<path class="st1" d="M250.48,163.1c4.09,2.37,7.97,5.07,11.6,8.06"/>
				</g>
			</g>
			<g>
				<polyline class="st1" points="322.16,367.21 347.73,431.09 301.05,431.09 285.71,392.76 				"/>
				<polyline class="st1" points="93.68,367.21 68.11,431.09 114.8,431.09 130.13,392.76 				"/>
			</g>
			<line class="st1" x1="411.69" y1="236.83" x2="214.05" y2="236.83"/>
			<polyline class="st1" points="230.14,257.17 209.8,236.83 230.14,216.49 			"/>
			<polygon class="st1" points="442,273.46 405.37,236.83 442,200.21 366.04,200.21 329.41,236.83 366.04,273.46 			"/>
			<path class="st1" d="M371.83,273.46c-16.71,75.13-83.75,131.29-163.91,131.29C115.18,404.75,40,329.57,40,236.83
				S115.18,68.91,207.92,68.91c80.16,0,147.2,56.17,163.91,131.29"/>
		</g>
	</g>
</g>
<g id="Text">
</g>
</svg>
