<?xml version="1.0" encoding="utf-8"?>
<!-- Generator: Adobe Illustrator 26.0.1, SVG Export Plug-In . SVG Version: 6.00 Build 0)  -->
<svg version="1.1" xmlns="http://www.w3.org/2000/svg" xmlns:xlink="http://www.w3.org/1999/xlink" x="0px" y="0px"
	 viewBox="0 0 500 500" style="enable-background:new 0 0 500 500;" xml:space="preserve">
<style type="text/css">
	.st0{fill:#F5333F;}
	.st1{fill:none;stroke:#011E41;stroke-width:16;stroke-miterlimit:10;}
	.st2{display:none;}
	.st3{display:inline;}
	.st4{fill:none;stroke:#D1D3D4;stroke-width:2;stroke-miterlimit:10;}
	.st5{display:inline;fill:none;stroke:#BCBEC0;stroke-width:4;stroke-miterlimit:10;}
	.st6{fill:none;stroke:#BCBEC0;stroke-width:4;stroke-miterlimit:10;}
	.st7{display:inline;fill:none;stroke:#D1D3D4;stroke-width:2;stroke-miterlimit:10;}
	.st8{display:none;opacity:0.35;fill:none;stroke:#000000;stroke-width:16;stroke-miterlimit:10;}
	.st9{fill:none;stroke:#011E41;stroke-width:16;stroke-linejoin:bevel;stroke-miterlimit:10;}
	.st10{fill:none;stroke:#F5333F;stroke-width:16;stroke-miterlimit:10;}
	.st11{fill:#011E41;}
	.st12{fill:none;stroke:#011E41;stroke-width:16;stroke-linecap:square;stroke-miterlimit:10;}
	.st13{fill:none;stroke:#011E41;stroke-width:16;stroke-linecap:round;stroke-miterlimit:10;}
	.st14{fill:none;stroke:#EF3741;stroke-width:16;stroke-miterlimit:10;}
	.st15{fill:#F5333F;stroke:#011E41;stroke-width:16;stroke-miterlimit:10;}
	.st16{fill:#EF3741;}
	.st17{fill:none;stroke:#011E41;stroke-width:8;stroke-miterlimit:10;}
	.st18{fill:none;stroke:#E73843;stroke-width:16;stroke-miterlimit:10;}
	.st19{fill:none;stroke:#011E41;stroke-width:13.4168;stroke-miterlimit:10;}
	.st20{fill:none;stroke:#011E41;stroke-width:13.8969;stroke-miterlimit:10;}
	.st21{fill:none;stroke:#011E41;stroke-width:14.2064;stroke-miterlimit:10;}
	.st22{fill:none;stroke:#011E41;stroke-width:15.0584;stroke-miterlimit:10;}
	.st23{fill:none;stroke:#011E41;stroke-width:15.1473;stroke-miterlimit:10;}
	.st24{fill:none;stroke:#011E41;stroke-width:16.5604;stroke-miterlimit:10;}
	.st25{fill:none;stroke:#011E41;stroke-width:14.3418;stroke-miterlimit:10;}
	.st26{fill:none;stroke:#011E41;stroke-width:15.8515;stroke-miterlimit:10;}
	.st27{fill:#F53340;}
</style>
<g id="Icons">
	<g>
		<path class="st0" d="M391.29,365.76l30.85-54.67l-23.82-40.34c0.64-5.55,0.99-11.19,1.01-16.91c0.03-9-0.74-17.83-2.24-26.4
			l23.72-42.18l-32-54l-51.98,0.59c-8.9-6.37-18.52-11.78-28.73-16.09l-26.14-45.6l-62.77-0.2l-26.43,45.44
			c-11.51,4.78-22.3,10.96-32.15,18.33l-51.9,0.51l-30.85,54.67l24.54,41.55c-1.13,7.32-1.73,14.81-1.75,22.44
			c-0.02,7.18,0.47,14.23,1.43,21.14L79.2,314.73l32,54l43.36-0.49c12.55,10.44,26.84,18.85,42.37,24.75l21.12,36.85l62.77,0.2
			l21.35-36.71c16.87-6.29,32.31-15.55,45.66-27.14L391.29,365.76z"/>
		<g>
			<g>
				<path class="st1" d="M225.8,414.38l17.06-30.46l-13.32-22.4c0.35-3.09,0.53-6.23,0.53-9.41c0-5.01-0.44-9.91-1.29-14.68
					l13.12-23.5L224,283.94l-28.91,0.42c-4.96-3.53-10.32-6.52-16.01-8.9l-14.62-25.32h-34.92l-14.62,25.32
					c-6.4,2.68-12.39,6.14-17.85,10.25l-28.87,0.38l-17.06,30.46l13.72,23.07c-0.61,4.07-0.93,8.24-0.93,12.48
					c0,3.99,0.29,7.92,0.83,11.76l-12.66,22.68L70,416.52l24.12-0.35c7,5.78,14.96,10.44,23.61,13.69l11.81,20.46h34.92l11.81-20.46
					c9.38-3.53,17.94-8.71,25.35-15.18L225.8,414.38z"/>
				<circle class="st1" cx="147" cy="350.23" r="44.7"/>
			</g>
			<g>
				<path class="st1" d="M431.8,373.12l17.06-30.46l-13.32-22.4c0.35-3.09,0.53-6.23,0.53-9.41c0-5.01-0.44-9.91-1.29-14.68
					l13.12-23.5L430,242.69l-28.91,0.42c-4.96-3.53-10.32-6.52-16.01-8.9l-14.62-25.32h-34.92l-14.62,25.32
					c-6.4,2.68-12.39,6.14-17.85,10.25l-28.87,0.38l-17.06,30.46l13.72,23.07c-0.61,4.07-0.93,8.24-0.93,12.48
					c0,3.99,0.29,7.92,0.83,11.76l-12.66,22.68L276,375.27l24.12-0.35c7,5.78,14.96,10.44,23.61,13.69l11.81,20.46h34.92
					l11.81-20.46c9.38-3.53,17.94-8.71,25.35-15.18L431.8,373.12z"/>
				<circle class="st1" cx="353" cy="308.98" r="44.7"/>
			</g>
			<g>
				<path class="st1" d="M296.1,213.91l17.06-30.46l-13.32-22.4c0.35-3.09,0.53-6.23,0.53-9.41c0-5.01-0.44-9.91-1.29-14.68
					l13.12-23.5L294.3,83.48l-28.91,0.42c-4.96-3.53-10.32-6.52-16.01-8.9l-14.62-25.32h-34.92l-14.62,25.32
					c-6.4,2.68-12.39,6.14-17.85,10.25l-28.87,0.38l-17.06,30.46l13.72,23.07c-0.61,4.07-0.93,8.24-0.93,12.48
					c0,3.99,0.29,7.92,0.83,11.76l-12.66,22.68l17.89,29.98l24.12-0.35c7,5.78,14.96,10.44,23.61,13.69l11.81,20.46h34.92
					l11.81-20.46c9.38-3.53,17.94-8.71,25.35-15.18L296.1,213.91z"/>
				<circle class="st1" cx="217.3" cy="149.77" r="44.7"/>
			</g>
		</g>
	</g>
</g>
<g id="Text">
</g>
</svg>
