<?xml version="1.0" encoding="utf-8"?>
<!-- Generator: Adobe Illustrator 26.0.1, SVG Export Plug-In . SVG Version: 6.00 Build 0)  -->
<svg version="1.1" xmlns="http://www.w3.org/2000/svg" xmlns:xlink="http://www.w3.org/1999/xlink" x="0px" y="0px"
	 viewBox="0 0 500 500" style="enable-background:new 0 0 500 500;" xml:space="preserve">
<style type="text/css">
	.st0{fill:#F5333F;}
	.st1{fill:none;stroke:#011E41;stroke-width:16;stroke-miterlimit:10;}
	.st2{display:none;}
	.st3{display:inline;}
	.st4{fill:none;stroke:#D1D3D4;stroke-width:2;stroke-miterlimit:10;}
	.st5{display:inline;fill:none;stroke:#BCBEC0;stroke-width:4;stroke-miterlimit:10;}
	.st6{fill:none;stroke:#BCBEC0;stroke-width:4;stroke-miterlimit:10;}
	.st7{display:inline;fill:none;stroke:#D1D3D4;stroke-width:2;stroke-miterlimit:10;}
	.st8{display:none;opacity:0.35;fill:none;stroke:#000000;stroke-width:16;stroke-miterlimit:10;}
	.st9{fill:none;stroke:#011E41;stroke-width:16;stroke-linejoin:bevel;stroke-miterlimit:10;}
	.st10{fill:none;stroke:#F5333F;stroke-width:16;stroke-miterlimit:10;}
	.st11{fill:#011E41;}
	.st12{fill:none;stroke:#011E41;stroke-width:16;stroke-linecap:square;stroke-miterlimit:10;}
	.st13{fill:none;stroke:#011E41;stroke-width:16;stroke-linecap:round;stroke-miterlimit:10;}
	.st14{fill:none;stroke:#EF3741;stroke-width:16;stroke-miterlimit:10;}
	.st15{fill:#F5333F;stroke:#011E41;stroke-width:16;stroke-miterlimit:10;}
	.st16{fill:#EF3741;}
	.st17{fill:none;stroke:#011E41;stroke-width:8;stroke-miterlimit:10;}
	.st18{fill:none;stroke:#E73843;stroke-width:16;stroke-miterlimit:10;}
	.st19{fill:none;stroke:#011E41;stroke-width:13.4168;stroke-miterlimit:10;}
	.st20{fill:none;stroke:#011E41;stroke-width:13.8969;stroke-miterlimit:10;}
	.st21{fill:none;stroke:#011E41;stroke-width:14.2064;stroke-miterlimit:10;}
	.st22{fill:none;stroke:#011E41;stroke-width:15.0584;stroke-miterlimit:10;}
	.st23{fill:none;stroke:#011E41;stroke-width:15.1473;stroke-miterlimit:10;}
	.st24{fill:none;stroke:#011E41;stroke-width:16.5604;stroke-miterlimit:10;}
	.st25{fill:none;stroke:#011E41;stroke-width:14.3418;stroke-miterlimit:10;}
	.st26{fill:none;stroke:#011E41;stroke-width:15.8515;stroke-miterlimit:10;}
	.st27{fill:#F53340;}
</style>
<g id="Icons">
</g>
<g id="Text">
	<circle class="st10" cx="250" cy="250" r="19.51"/>
	<circle class="st1" cx="250" cy="250" r="145.95"/>
	<g>
		<path class="st1" d="M250,78.38c94.78,0,171.62,76.84,171.62,171.62"/>
		<path class="st0" d="M429.51,272.65c0,4.91-3.98,8.89-8.89,8.89c-4.91,0-8.89-3.98-8.89-8.89c0-4.92,3.98-8.89,8.89-8.89
			C425.53,263.75,429.51,267.73,429.51,272.65L429.51,272.65z M429.51,272.65"/>
	</g>
	<g>
		<path class="st1" d="M249.89,421.62c-94.78,0-171.62-76.84-171.62-171.62"/>
		<path class="st0" d="M70.38,227.35c0-4.91,3.98-8.89,8.89-8.89c4.91,0,8.89,3.98,8.89,8.89c0,4.92-3.98,8.89-8.89,8.89
			C74.36,236.25,70.38,232.27,70.38,227.35L70.38,227.35z M70.38,227.35"/>
	</g>
	<path class="st1" d="M288.02,248.91l55.3,1.22c0.76-34.33-15.53-64.04-44.88-81.86l-29.57,48.7"/>
	<path class="st1" d="M232.52,216.21l-27.41-50c-30.11,16.51-47.69,45.47-48.45,79.8l55.41,1.22"/>
	<path class="st1" d="M229.4,281.98l-27.86,45.88c29.35,17.82,63.22,18.57,93.33,2.06l-25.78-47.02"/>
</g>
</svg>
