<?xml version="1.0" encoding="utf-8"?>
<!-- Generator: Adobe Illustrator 26.0.1, SVG Export Plug-In . SVG Version: 6.00 Build 0)  -->
<svg version="1.1" xmlns="http://www.w3.org/2000/svg" xmlns:xlink="http://www.w3.org/1999/xlink" x="0px" y="0px"
	 viewBox="0 0 500 500" style="enable-background:new 0 0 500 500;" xml:space="preserve">
<style type="text/css">
	.st0{fill:#F5333F;}
	.st1{fill:none;stroke:#011E41;stroke-width:16;stroke-miterlimit:10;}
	.st2{display:none;}
	.st3{display:inline;}
	.st4{fill:none;stroke:#D1D3D4;stroke-width:2;stroke-miterlimit:10;}
	.st5{display:inline;fill:none;stroke:#BCBEC0;stroke-width:4;stroke-miterlimit:10;}
	.st6{fill:none;stroke:#BCBEC0;stroke-width:4;stroke-miterlimit:10;}
	.st7{display:inline;fill:none;stroke:#D1D3D4;stroke-width:2;stroke-miterlimit:10;}
	.st8{display:none;opacity:0.35;fill:none;stroke:#000000;stroke-width:16;stroke-miterlimit:10;}
	.st9{fill:none;stroke:#011E41;stroke-width:16;stroke-linejoin:bevel;stroke-miterlimit:10;}
	.st10{fill:none;stroke:#F5333F;stroke-width:16;stroke-miterlimit:10;}
	.st11{fill:#011E41;}
	.st12{fill:none;stroke:#011E41;stroke-width:16;stroke-linecap:square;stroke-miterlimit:10;}
	.st13{fill:none;stroke:#011E41;stroke-width:16;stroke-linecap:round;stroke-miterlimit:10;}
	.st14{fill:none;stroke:#EF3741;stroke-width:16;stroke-miterlimit:10;}
	.st15{fill:#F5333F;stroke:#011E41;stroke-width:16;stroke-miterlimit:10;}
	.st16{fill:#EF3741;}
	.st17{fill:none;stroke:#011E41;stroke-width:8;stroke-miterlimit:10;}
	.st18{fill:none;stroke:#E73843;stroke-width:16;stroke-miterlimit:10;}
	.st19{fill:none;stroke:#011E41;stroke-width:13.4168;stroke-miterlimit:10;}
	.st20{fill:none;stroke:#011E41;stroke-width:13.8969;stroke-miterlimit:10;}
	.st21{fill:none;stroke:#011E41;stroke-width:14.2064;stroke-miterlimit:10;}
	.st22{fill:none;stroke:#011E41;stroke-width:15.0584;stroke-miterlimit:10;}
	.st23{fill:none;stroke:#011E41;stroke-width:15.1473;stroke-miterlimit:10;}
	.st24{fill:none;stroke:#011E41;stroke-width:16.5604;stroke-miterlimit:10;}
	.st25{fill:none;stroke:#011E41;stroke-width:14.3418;stroke-miterlimit:10;}
	.st26{fill:none;stroke:#011E41;stroke-width:15.8515;stroke-miterlimit:10;}
	.st27{fill:#F53340;}
</style>
<g id="Icons">
</g>
<g id="Text">
	<g>
		<circle class="st0" cx="250" cy="250" r="102.76"/>
		<g>
			<g>
				<circle class="st1" cx="250" cy="250" r="191.91"/>
			</g>
		</g>
		<path class="st24" d="M179.42,163.82h39.46l10.61,12.39l19.94,1.42l31.18,9.46l-0.73,6.97l35.53,38l16.97,0.95l-10.95,18.89
			c-6.44,3.75-15.99,8.8-15.99,17.37c0,8.58,5.09,14.63,3.82,17.15c-1.27,2.52-8.91,11.6-8.91,11.6l-8.27,10.48l-7.64,8.69
			l-1.91,6.05c0,0-1.61,14.13-24.36,17.66c-22.75,3.53-26.56-34.23-29.11-38.56c-2.55-4.33-2.55-15.43,1.27-22.49
			c3.82-7.06-10.34-12.03-14.16-17.58c-3.82-5.55,3.97-18.47-3.66-19.62c-7.64-1.15-22.28,0.71-33.1,0.21
			c-10.82-0.5-28.6-8.24-28.59-40.82C150.83,193.96,179.42,163.82,179.42,163.82z"/>
		<line class="st23" x1="342.77" y1="295.4" x2="327.01" y2="318.86"/>
		<polyline class="st24" points="281.8,65.54 292.22,85.74 273.33,98.77 250,85.74 230.32,106.59 227.07,120.92 194.49,135.91 
			199.7,147.64 180.15,157.15 		"/>
		<path class="st24" d="M154.74,102.68c0,0,32.58-29.32,81.45-37.14"/>
		<polyline class="st24" points="209.78,132.26 236.19,153.5 257.69,160.02 285.71,157.15 285.71,178.26 327.01,214.75 
			356.73,194.55 		"/>
		<polyline class="st24" points="264.86,150.25 275.93,135.26 292.22,132.65 306.56,145.68 285.71,163.82 		"/>
		<line class="st24" x1="317.64" y1="135.26" x2="332.39" y2="157.15"/>
		<polyline class="st24" points="325.01,175.01 352.82,184.78 380.19,184.78 408.21,227.78 		"/>
		<polyline class="st24" points="399.08,206.93 412.11,180.87 437.01,204.33 		"/>
		<polyline class="st24" points="231.19,118.92 255.08,120.92 264.86,90.95 		"/>
		<polyline class="st24" points="61.47,215.31 95.45,275.35 80.46,337.9 		"/>
		<line class="st24" x1="107.83" y1="139.82" x2="150.83" y2="90.95"/>
		<line class="st22" x1="189.05" y1="114.41" x2="192.96" y2="122.88"/>
		<line class="st22" x1="193.51" y1="90.95" x2="197.42" y2="99.42"/>
		<line class="st22" x1="203.35" y1="105.94" x2="202.42" y2="132.26"/>
	</g>
</g>
</svg>
