<?xml version="1.0" encoding="utf-8"?>
<!-- Generator: Adobe Illustrator 26.0.1, SVG Export Plug-In . SVG Version: 6.00 Build 0)  -->
<svg version="1.1" xmlns="http://www.w3.org/2000/svg" xmlns:xlink="http://www.w3.org/1999/xlink" x="0px" y="0px"
	 viewBox="0 0 500 500" style="enable-background:new 0 0 500 500;" xml:space="preserve">
<style type="text/css">
	.st0{fill:#F5333F;}
	.st1{fill:none;stroke:#011E41;stroke-width:16;stroke-miterlimit:10;}
	.st2{display:none;}
	.st3{display:inline;}
	.st4{fill:none;stroke:#D1D3D4;stroke-width:2;stroke-miterlimit:10;}
	.st5{display:inline;fill:none;stroke:#BCBEC0;stroke-width:4;stroke-miterlimit:10;}
	.st6{fill:none;stroke:#BCBEC0;stroke-width:4;stroke-miterlimit:10;}
	.st7{display:inline;fill:none;stroke:#D1D3D4;stroke-width:2;stroke-miterlimit:10;}
	.st8{display:none;opacity:0.35;fill:none;stroke:#000000;stroke-width:16;stroke-miterlimit:10;}
	.st9{fill:none;stroke:#011E41;stroke-width:16;stroke-linejoin:bevel;stroke-miterlimit:10;}
	.st10{fill:none;stroke:#F5333F;stroke-width:16;stroke-miterlimit:10;}
	.st11{fill:#011E41;}
	.st12{fill:none;stroke:#011E41;stroke-width:16;stroke-linecap:square;stroke-miterlimit:10;}
	.st13{fill:none;stroke:#011E41;stroke-width:16;stroke-linecap:round;stroke-miterlimit:10;}
	.st14{fill:none;stroke:#EF3741;stroke-width:16;stroke-miterlimit:10;}
	.st15{fill:#F5333F;stroke:#011E41;stroke-width:16;stroke-miterlimit:10;}
	.st16{fill:#EF3741;}
	.st17{fill:none;stroke:#011E41;stroke-width:8;stroke-miterlimit:10;}
	.st18{fill:none;stroke:#E73843;stroke-width:16;stroke-miterlimit:10;}
	.st19{fill:none;stroke:#011E41;stroke-width:13.4168;stroke-miterlimit:10;}
	.st20{fill:none;stroke:#011E41;stroke-width:13.8969;stroke-miterlimit:10;}
	.st21{fill:none;stroke:#011E41;stroke-width:14.2064;stroke-miterlimit:10;}
	.st22{fill:none;stroke:#011E41;stroke-width:15.0584;stroke-miterlimit:10;}
	.st23{fill:none;stroke:#011E41;stroke-width:15.1473;stroke-miterlimit:10;}
	.st24{fill:none;stroke:#011E41;stroke-width:16.5604;stroke-miterlimit:10;}
	.st25{fill:none;stroke:#011E41;stroke-width:14.3418;stroke-miterlimit:10;}
	.st26{fill:none;stroke:#011E41;stroke-width:15.8515;stroke-miterlimit:10;}
	.st27{fill:#F53340;}
</style>
<g id="Icons">
	<g>
		<circle class="st0" cx="169.68" cy="218.35" r="37.59"/>
		<path class="st0" d="M225.21,120.04c47.04,0,86.76,38.06,85.18,85.18c-0.69,20.72-8.5,47.14-8.5,47.14
			c0,16.84,13.65,30.49,30.49,30.49h0c16.84,0,30.49-13.65,30.49-30.49l-0.2-17.25c-0.72-63.77-52.61-115.09-116.38-115.1l-15.34,0
			L225.21,120.04z"/>
		<path class="st1" d="M229.28,119.72l15.34,0c63.77,0.02,115.66,51.34,116.38,115.1l0.2,17.25c0,16.84-13.65,30.49-30.49,30.49h0
			c-16.84,0-30.49-13.65-30.49-30.49"/>
		<circle class="st1" cx="197.37" cy="209.01" r="22.58"/>
		<path class="st1" d="M145.9,164.58c-4.55,9.84-7.09,20.81-7.09,32.37"/>
		<path class="st1" d="M138.8,342.61c0,22.65,18.36,41.02,41.02,41.02h0c19.14,0,36.81-10.25,46.32-26.86
			c0,0,17.87-49.05,37.23-65.07c19.36-16.02,43.35-31.38,45.35-72.44v-14.32c0-47.04-38.14-85.18-85.18-85.18h-7.55"/>
		<path class="st1" d="M173.87,183.36c6.84-18.23,24.4-31.21,44.99-31.21h4.7c26.37,0,48.25,19.29,52.34,44.57"/>
		<path class="st1" d="M170.94,308.7v-1.01c0-12.6,6.27-24.17,16.36-31.71c6.67-4.99,10.98-12.95,10.98-21.91
			s-4.32-16.93-10.98-21.91"/>
		<path class="st1" d="M187.3,232.15c0,0-60.49-31.01-36.51-83.12c21.76-47.26,84.49-29.32,84.49-29.32
			c-94.48,0-59.94,66.46-59.94,66.46l21.54-0.05c29.31,0,51.07,13.76,51.07,43.07c0,24.91-19.54,36.25-31.19,65.45"/>
		<g>
			
				<rect x="316.66" y="258.29" transform="matrix(-1.691919e-12 -1 1 -1.691919e-12 58.3634 580.8628)" class="st11" width="5.91" height="5.91"/>
			
				<rect x="316.66" y="246.3" transform="matrix(6.123234e-17 -1 1 6.123234e-17 70.3576 568.8687)" class="st11" width="5.91" height="5.91"/>
			
				<rect x="316.66" y="234" transform="matrix(6.123234e-17 -1 1 6.123234e-17 82.6604 556.5658)" class="st11" width="5.91" height="5.91"/>
			
				<rect x="328.84" y="258.29" transform="matrix(6.123234e-17 -1 1 6.123234e-17 70.549 593.0483)" class="st11" width="5.91" height="5.91"/>
			
				<rect x="328.84" y="246.3" transform="matrix(6.123234e-17 -1 1 6.123234e-17 82.5431 581.0541)" class="st11" width="5.91" height="5.91"/>
			
				<rect x="328.84" y="234" transform="matrix(6.123234e-17 -1 1 6.123234e-17 94.846 568.7513)" class="st11" width="5.91" height="5.91"/>
			
				<rect x="341.03" y="258.29" transform="matrix(6.123234e-17 -1 1 6.123234e-17 82.7345 605.2339)" class="st11" width="5.91" height="5.91"/>
			
				<rect x="341.03" y="246.3" transform="matrix(6.123234e-17 -1 1 6.123234e-17 94.7287 593.2397)" class="st11" width="5.91" height="5.91"/>
			
				<rect x="341.03" y="234" transform="matrix(6.123234e-17 -1 1 6.123234e-17 107.0315 580.9368)" class="st11" width="5.91" height="5.91"/>
		</g>
	</g>
</g>
<g id="Text">
</g>
</svg>
