<?xml version="1.0" encoding="utf-8"?>
<!-- Generator: Adobe Illustrator 26.0.1, SVG Export Plug-In . SVG Version: 6.00 Build 0)  -->
<svg version="1.1" xmlns="http://www.w3.org/2000/svg" xmlns:xlink="http://www.w3.org/1999/xlink" x="0px" y="0px"
	 viewBox="0 0 500 500" style="enable-background:new 0 0 500 500;" xml:space="preserve">
<style type="text/css">
	.st0{fill:#F5333F;}
	.st1{fill:none;stroke:#011E41;stroke-width:16;stroke-miterlimit:10;}
	.st2{display:none;}
	.st3{display:inline;}
	.st4{fill:none;stroke:#D1D3D4;stroke-width:2;stroke-miterlimit:10;}
	.st5{display:inline;fill:none;stroke:#BCBEC0;stroke-width:4;stroke-miterlimit:10;}
	.st6{fill:none;stroke:#BCBEC0;stroke-width:4;stroke-miterlimit:10;}
	.st7{display:inline;fill:none;stroke:#D1D3D4;stroke-width:2;stroke-miterlimit:10;}
	.st8{display:none;opacity:0.35;fill:none;stroke:#000000;stroke-width:16;stroke-miterlimit:10;}
	.st9{fill:none;stroke:#011E41;stroke-width:16;stroke-linejoin:bevel;stroke-miterlimit:10;}
	.st10{fill:none;stroke:#F5333F;stroke-width:16;stroke-miterlimit:10;}
	.st11{fill:#011E41;}
	.st12{fill:none;stroke:#011E41;stroke-width:16;stroke-linecap:square;stroke-miterlimit:10;}
	.st13{fill:none;stroke:#011E41;stroke-width:16;stroke-linecap:round;stroke-miterlimit:10;}
	.st14{fill:none;stroke:#EF3741;stroke-width:16;stroke-miterlimit:10;}
	.st15{fill:#F5333F;stroke:#011E41;stroke-width:16;stroke-miterlimit:10;}
	.st16{fill:#EF3741;}
	.st17{fill:none;stroke:#011E41;stroke-width:8;stroke-miterlimit:10;}
	.st18{fill:none;stroke:#E73843;stroke-width:16;stroke-miterlimit:10;}
	.st19{fill:none;stroke:#011E41;stroke-width:13.4168;stroke-miterlimit:10;}
	.st20{fill:none;stroke:#011E41;stroke-width:13.8969;stroke-miterlimit:10;}
	.st21{fill:none;stroke:#011E41;stroke-width:14.2064;stroke-miterlimit:10;}
	.st22{fill:none;stroke:#011E41;stroke-width:15.0584;stroke-miterlimit:10;}
	.st23{fill:none;stroke:#011E41;stroke-width:15.1473;stroke-miterlimit:10;}
	.st24{fill:none;stroke:#011E41;stroke-width:16.5604;stroke-miterlimit:10;}
	.st25{fill:none;stroke:#011E41;stroke-width:14.3418;stroke-miterlimit:10;}
	.st26{fill:none;stroke:#011E41;stroke-width:15.8515;stroke-miterlimit:10;}
	.st27{fill:#F53340;}
</style>
<g id="Icons">
	<g>
		<path class="st0" d="M330.25,409.2h-19.22v0c6.6-0.03,11.93-5.39,11.93-11.99s-5.34-11.96-11.93-11.99v0l-26.13-177.47l-0.01-0.05
			c6.13-0.53,10.95-5.67,10.95-11.94c0-6.62-5.37-11.99-11.99-11.99h-4.88l-0.74-2.99c2.5-2.2,4.08-5.41,4.08-9v0
			c0-5.66-3.92-10.39-9.2-11.65l-0.08-0.34l30.52-91.96H275.3l-7,19.99h-21.31V67.81h-21.98V87.8H203.7l-7-19.99h-28.24l30.52,91.96
			l0.1,0.29c-5.37,1.19-9.39,5.97-9.39,11.7v0c0,6.13,4.61,11.19,10.55,11.9l-0.05,0.09h-12.04c-6.62,0-11.99,5.37-11.99,11.99
			c0,6.28,4.82,11.42,10.96,11.94l-0.03,0.05l-26.13,177.47v0c-6.6,0.03-11.93,5.39-11.93,11.99s5.34,11.96,11.93,11.99v0h-19.22
			c-6.62,0-11.99,5.37-11.99,11.99c0,6.62,5.37,11.99,11.99,11.99h188.5c6.62,0,11.99-5.37,11.99-11.99
			C342.25,414.57,336.88,409.2,330.25,409.2z"/>
		<g>
			<path class="st1" d="M330.97,408.2H181.03c-6.62,0-11.99-5.37-11.99-11.99v0c0-6.62,5.37-11.99,11.99-11.99h149.95
				c6.62,0,11.99,5.37,11.99,11.99v0C342.97,402.83,337.6,408.2,330.97,408.2z"/>
			<path class="st1" d="M350.25,432.19h-188.5c-6.62,0-11.99-5.37-11.99-11.99l0,0c0-6.62,5.37-11.99,11.99-11.99h188.5
				c6.62,0,11.99,5.37,11.99,11.99l0,0C362.25,426.82,356.88,432.19,350.25,432.19z"/>
			<path class="st1" d="M290.31,182.76h-68.63c-6.62,0-11.99-5.37-11.99-11.99v0c0-6.62,5.37-11.99,11.99-11.99h68.63
				c6.62,0,11.99,5.37,11.99,11.99v0C302.31,177.39,296.94,182.76,290.31,182.76z"/>
			<path class="st1" d="M303.85,206.74h-95.69c-6.62,0-11.99-5.37-11.99-11.99v0c0-6.62,5.37-11.99,11.99-11.99h95.69
				c6.62,0,11.99,5.37,11.99,11.99v0C315.84,201.37,310.47,206.74,303.85,206.74z"/>
			<polygon class="st1" points="295.3,66.81 288.3,86.8 266.99,86.8 266.99,66.81 245.01,66.81 245.01,86.8 223.7,86.8 216.7,66.81 
				188.45,66.81 218.97,158.77 293.03,158.77 323.55,66.81 			"/>
			<g>
				<line class="st1" x1="207.09" y1="206.74" x2="180.97" y2="384.22"/>
				<line class="st1" x1="304.91" y1="206.74" x2="331.03" y2="384.22"/>
			</g>
		</g>
	</g>
</g>
<g id="Text">
</g>
</svg>
