<?xml version="1.0" encoding="utf-8"?>
<!-- Generator: Adobe Illustrator 26.0.1, SVG Export Plug-In . SVG Version: 6.00 Build 0)  -->
<svg version="1.1" xmlns="http://www.w3.org/2000/svg" xmlns:xlink="http://www.w3.org/1999/xlink" x="0px" y="0px"
	 viewBox="0 0 500 500" style="enable-background:new 0 0 500 500;" xml:space="preserve">
<style type="text/css">
	.st0{fill:#F5333F;}
	.st1{fill:none;stroke:#011E41;stroke-width:16;stroke-miterlimit:10;}
	.st2{display:none;}
	.st3{display:inline;}
	.st4{fill:none;stroke:#D1D3D4;stroke-width:2;stroke-miterlimit:10;}
	.st5{display:inline;fill:none;stroke:#BCBEC0;stroke-width:4;stroke-miterlimit:10;}
	.st6{fill:none;stroke:#BCBEC0;stroke-width:4;stroke-miterlimit:10;}
	.st7{display:inline;fill:none;stroke:#D1D3D4;stroke-width:2;stroke-miterlimit:10;}
	.st8{display:none;opacity:0.35;fill:none;stroke:#000000;stroke-width:16;stroke-miterlimit:10;}
	.st9{fill:none;stroke:#011E41;stroke-width:16;stroke-linejoin:bevel;stroke-miterlimit:10;}
	.st10{fill:none;stroke:#F5333F;stroke-width:16;stroke-miterlimit:10;}
	.st11{fill:#011E41;}
	.st12{fill:none;stroke:#011E41;stroke-width:16;stroke-linecap:square;stroke-miterlimit:10;}
	.st13{fill:none;stroke:#011E41;stroke-width:16;stroke-linecap:round;stroke-miterlimit:10;}
	.st14{fill:none;stroke:#EF3741;stroke-width:16;stroke-miterlimit:10;}
	.st15{fill:#F5333F;stroke:#011E41;stroke-width:16;stroke-miterlimit:10;}
	.st16{fill:#EF3741;}
	.st17{fill:none;stroke:#011E41;stroke-width:8;stroke-miterlimit:10;}
	.st18{fill:none;stroke:#E73843;stroke-width:16;stroke-miterlimit:10;}
	.st19{fill:none;stroke:#011E41;stroke-width:13.4168;stroke-miterlimit:10;}
	.st20{fill:none;stroke:#011E41;stroke-width:13.8969;stroke-miterlimit:10;}
	.st21{fill:none;stroke:#011E41;stroke-width:14.2064;stroke-miterlimit:10;}
	.st22{fill:none;stroke:#011E41;stroke-width:15.0584;stroke-miterlimit:10;}
	.st23{fill:none;stroke:#011E41;stroke-width:15.1473;stroke-miterlimit:10;}
	.st24{fill:none;stroke:#011E41;stroke-width:16.5604;stroke-miterlimit:10;}
	.st25{fill:none;stroke:#011E41;stroke-width:14.3418;stroke-miterlimit:10;}
	.st26{fill:none;stroke:#011E41;stroke-width:15.8515;stroke-miterlimit:10;}
	.st27{fill:#F53340;}
</style>
<g id="Icons">
	<g>
		<path class="st0" d="M368.08,273.21h-21.2c12.12-1.43,21.53-11.73,21.53-24.24l0,0c0-13.48-10.93-24.41-24.41-24.41H116.6
			c-26.54,0-48.05,21.51-48.05,48.05l0,0c0,24.46,18.28,44.64,41.92,47.65c-23.64,3.01-41.92,23.19-41.92,47.65l0,0
			c0,26.54,21.51,48.05,48.05,48.05H344c13.48,0,24.41-10.93,24.41-24.41c0-13.48-10.93-24.41-24.41-24.41l24.08-0.32
			c25.85,0,46.8-20.95,46.8-46.8l0,0C414.88,294.17,393.93,273.21,368.08,273.21z"/>
		<path class="st1" d="M80.95,258.88V131.64c0-26.29,21.31-47.6,47.6-47.6h251.86v144.94"/>
		<polygon class="st1" points="369.22,141.96 321.96,141.96 321.96,94.71 		"/>
		<path class="st1" d="M380.43,143.24L380.43,143.24c25.66,0,46.45,20.8,46.45,46.45v110.32"/>
		<path class="st1" d="M380.42,300.66H128.6c-26.54,0-48.05-21.51-48.05-48.05v0c0-26.54,21.51-48.05,48.05-48.05H356
			c13.48,0,24.41,10.93,24.41,24.41v0c0,13.48-10.93,24.41-24.41,24.41h-23.17"/>
		<path class="st1" d="M134.8,253.21h245.28c25.85,0,46.8,20.95,46.8,46.8v0c0,25.85-20.95,46.8-46.8,46.8H134.8l221.2,0.32
			c13.48,0,24.41,10.93,24.41,24.41v0c0,13.48-10.93,24.41-24.41,24.41H128.6c-26.54,0-48.05-21.51-48.05-48.05v0
			c0-26.54,21.51-48.05,48.05-48.05h251.82"/>
	</g>
</g>
<g id="Text">
</g>
</svg>
