<?xml version="1.0" encoding="utf-8"?>
<!-- Generator: Adobe Illustrator 26.0.1, SVG Export Plug-In . SVG Version: 6.00 Build 0)  -->
<svg version="1.1" xmlns="http://www.w3.org/2000/svg" xmlns:xlink="http://www.w3.org/1999/xlink" x="0px" y="0px"
	 viewBox="0 0 500 500" style="enable-background:new 0 0 500 500;" xml:space="preserve">
<style type="text/css">
	.st0{fill:#F5333F;}
	.st1{fill:none;stroke:#011E41;stroke-width:16;stroke-miterlimit:10;}
	.st2{display:none;}
	.st3{display:inline;}
	.st4{fill:none;stroke:#D1D3D4;stroke-width:2;stroke-miterlimit:10;}
	.st5{display:inline;fill:none;stroke:#BCBEC0;stroke-width:4;stroke-miterlimit:10;}
	.st6{fill:none;stroke:#BCBEC0;stroke-width:4;stroke-miterlimit:10;}
	.st7{display:inline;fill:none;stroke:#D1D3D4;stroke-width:2;stroke-miterlimit:10;}
	.st8{display:none;opacity:0.35;fill:none;stroke:#000000;stroke-width:16;stroke-miterlimit:10;}
	.st9{fill:none;stroke:#011E41;stroke-width:16;stroke-linejoin:bevel;stroke-miterlimit:10;}
	.st10{fill:none;stroke:#F5333F;stroke-width:16;stroke-miterlimit:10;}
	.st11{fill:#011E41;}
	.st12{fill:none;stroke:#011E41;stroke-width:16;stroke-linecap:square;stroke-miterlimit:10;}
	.st13{fill:none;stroke:#011E41;stroke-width:16;stroke-linecap:round;stroke-miterlimit:10;}
	.st14{fill:none;stroke:#EF3741;stroke-width:16;stroke-miterlimit:10;}
	.st15{fill:#F5333F;stroke:#011E41;stroke-width:16;stroke-miterlimit:10;}
	.st16{fill:#EF3741;}
	.st17{fill:none;stroke:#011E41;stroke-width:8;stroke-miterlimit:10;}
	.st18{fill:none;stroke:#E73843;stroke-width:16;stroke-miterlimit:10;}
	.st19{fill:none;stroke:#011E41;stroke-width:13.4168;stroke-miterlimit:10;}
	.st20{fill:none;stroke:#011E41;stroke-width:13.8969;stroke-miterlimit:10;}
	.st21{fill:none;stroke:#011E41;stroke-width:14.2064;stroke-miterlimit:10;}
	.st22{fill:none;stroke:#011E41;stroke-width:15.0584;stroke-miterlimit:10;}
	.st23{fill:none;stroke:#011E41;stroke-width:15.1473;stroke-miterlimit:10;}
	.st24{fill:none;stroke:#011E41;stroke-width:16.5604;stroke-miterlimit:10;}
	.st25{fill:none;stroke:#011E41;stroke-width:14.3418;stroke-miterlimit:10;}
	.st26{fill:none;stroke:#011E41;stroke-width:15.8515;stroke-miterlimit:10;}
	.st27{fill:#F53340;}
</style>
<g id="Icons">
	<g>
		<circle class="st0" cx="159.52" cy="379.98" r="54.14"/>
		<circle class="st0" cx="299.85" cy="310.23" r="54.14"/>
		<g>
			<path class="st1" d="M333.98,320.23v19.7c0,29.9-24.24,54.14-54.14,54.14s-54.14-24.24-54.14-54.14v-19.7"/>
			<path class="st1" d="M322.08,286.32c7.46,9.28,11.92,21.07,11.92,33.9c0,29.91-24.25,54.15-54.15,54.15s-54.15-24.25-54.15-54.15
				c0-12.83,4.46-24.62,11.92-33.9"/>
			<path class="st1" d="M303.58,296.02c6.28,6.15,10.17,14.73,10.17,24.21c0,18.72-15.18,33.9-33.9,33.9s-33.9-15.18-33.9-33.9
				c0-8.14,2.87-15.61,7.65-21.46"/>
			<g>
				<path class="st1" d="M193.65,389.98v19.7c0,29.9-24.24,54.14-54.14,54.14s-54.14-24.24-54.14-54.14v-19.7"/>
				<circle class="st1" cx="139.52" cy="388.91" r="32.98"/>
				<circle class="st1" cx="139.52" cy="388.91" r="54.14"/>
			</g>
			<g>
				<path class="st1" d="M324.94,267.86l-1.09,9.36c-1.44,12.43-10.41,22.72-22.55,25.75c-22.73,5.67-47.56,2.02-61.37-11.8
					l-73.89-73.89c-13.82-13.81-17.47-38.64-11.8-61.37c3.03-12.14,13.32-21.11,25.75-22.55l9.36-1.09"/>
				<path class="st1" d="M247.42,268.48c21.28,21.28,43.44,19.12,68.09,5.14c14.86-6.75,31.12-9.86,47.43-9.09
					c12.62,0.6,23.94-3.04,33.05-9.41c26.73-18.68,29.46-57.34,6.4-80.4L282.6,54.93c-23.06-23.06-61.72-20.33-80.4,6.4
					c-6.37,9.11-10,20.43-9.41,33.05c0.77,16.31-2.34,32.56-9.09,47.43c-12.16,21.28-16.25,47.24,2.94,65.9
					c0,0,32.53,32.54,32.53,32.54"/>
				<g>
					<circle class="st1" cx="197.75" cy="282.86" r="12.42"/>
					<line class="st1" x1="210.16" y1="282.97" x2="232.35" y2="282.97"/>
				</g>
				<g>
					<circle class="st1" cx="173.54" cy="258.66" r="12.42"/>
					<line class="st1" x1="173.43" y1="246.24" x2="173.43" y2="224.05"/>
				</g>
				<line class="st1" x1="228.09" y1="249.16" x2="238.75" y2="259.81"/>
			</g>
		</g>
	</g>
</g>
<g id="Text">
</g>
</svg>
