<?xml version="1.0" encoding="utf-8"?>
<!-- Generator: Adobe Illustrator 26.0.1, SVG Export Plug-In . SVG Version: 6.00 Build 0)  -->
<svg version="1.1" xmlns="http://www.w3.org/2000/svg" xmlns:xlink="http://www.w3.org/1999/xlink" x="0px" y="0px"
	 viewBox="0 0 500 500" style="enable-background:new 0 0 500 500;" xml:space="preserve">
<style type="text/css">
	.st0{fill:#F5333F;}
	.st1{fill:none;stroke:#011E41;stroke-width:16;stroke-miterlimit:10;}
	.st2{display:none;}
	.st3{display:inline;}
	.st4{fill:none;stroke:#D1D3D4;stroke-width:2;stroke-miterlimit:10;}
	.st5{display:inline;fill:none;stroke:#BCBEC0;stroke-width:4;stroke-miterlimit:10;}
	.st6{fill:none;stroke:#BCBEC0;stroke-width:4;stroke-miterlimit:10;}
	.st7{display:inline;fill:none;stroke:#D1D3D4;stroke-width:2;stroke-miterlimit:10;}
	.st8{display:none;opacity:0.35;fill:none;stroke:#000000;stroke-width:16;stroke-miterlimit:10;}
	.st9{fill:none;stroke:#011E41;stroke-width:16;stroke-linejoin:bevel;stroke-miterlimit:10;}
	.st10{fill:none;stroke:#F5333F;stroke-width:16;stroke-miterlimit:10;}
	.st11{fill:#011E41;}
	.st12{fill:none;stroke:#011E41;stroke-width:16;stroke-linecap:square;stroke-miterlimit:10;}
	.st13{fill:none;stroke:#011E41;stroke-width:16;stroke-linecap:round;stroke-miterlimit:10;}
	.st14{fill:none;stroke:#EF3741;stroke-width:16;stroke-miterlimit:10;}
	.st15{fill:#F5333F;stroke:#011E41;stroke-width:16;stroke-miterlimit:10;}
	.st16{fill:#EF3741;}
	.st17{fill:none;stroke:#011E41;stroke-width:8;stroke-miterlimit:10;}
	.st18{fill:none;stroke:#E73843;stroke-width:16;stroke-miterlimit:10;}
	.st19{fill:none;stroke:#011E41;stroke-width:13.4168;stroke-miterlimit:10;}
	.st20{fill:none;stroke:#011E41;stroke-width:13.8969;stroke-miterlimit:10;}
	.st21{fill:none;stroke:#011E41;stroke-width:14.2064;stroke-miterlimit:10;}
	.st22{fill:none;stroke:#011E41;stroke-width:15.0584;stroke-miterlimit:10;}
	.st23{fill:none;stroke:#011E41;stroke-width:15.1473;stroke-miterlimit:10;}
	.st24{fill:none;stroke:#011E41;stroke-width:16.5604;stroke-miterlimit:10;}
	.st25{fill:none;stroke:#011E41;stroke-width:14.3418;stroke-miterlimit:10;}
	.st26{fill:none;stroke:#011E41;stroke-width:15.8515;stroke-miterlimit:10;}
	.st27{fill:#F53340;}
</style>
<g id="Icons">
	<g>
		<path class="st0" d="M378.88,343.74c-2.94,0-5.83,0.23-8.65,0.67c-0.03-0.87-0.08-1.73-0.16-2.59
			c19.53-4.39,34.12-21.83,34.12-42.68c0-24.17-19.59-43.76-43.76-43.76c-9.55,0-18.39,3.07-25.58,8.27
			c-6.76-17.99-24.12-30.79-44.47-30.79c-5.25,0-10.3,0.87-15.03,2.44c-5.37-30.42-31.92-53.54-63.88-53.54
			c-14.97,0-28.75,5.09-39.73,13.61c-46.24,1.45-83.57,38.25-85.85,84.28c-12.37,14.38-19.86,33.08-19.86,53.54
			c0,9.69,1.69,18.98,4.77,27.62c-22.26,3.7-39.24,23.03-39.24,46.34c0,24.43,18.64,44.49,42.47,46.77
			c2.85,0.59,5.81,0.89,8.83,0.89c22.18,0,265.34,0.07,296.03,0.07c30.69,0,55.57-24.88,55.57-55.57
			C434.45,368.61,409.57,343.74,378.88,343.74z"/>
		<g>
			<path class="st1" d="M91.01,195.95c-7,2.59-14.78-0.99-17.36-7.99l-3.18-8.59c-2.98-8.06-3.04-16.92-0.16-25.02l11.22-31.61
				l44.98-16.62l29.08,16.72c7.45,4.28,13.16,11.05,16.14,19.11l3.18,8.59c2.59,7-0.99,14.78-7.99,17.36L91.01,195.95z"/>
			
				<rect x="64.36" y="69.13" transform="matrix(0.938 -0.3466 0.3466 0.938 -23.0799 37.1958)" class="st1" width="56.18" height="27.99"/>
			<g>
				<line class="st1" x1="119.79" y1="87.94" x2="126.51" y2="106.11"/>
				<line class="st1" x1="81.52" y1="122.74" x2="74.81" y2="104.56"/>
			</g>
			<line class="st1" x1="132.9" y1="333.91" x2="81.66" y2="195.22"/>
			<line class="st1" x1="173.54" y1="161.27" x2="224.79" y2="299.96"/>
		</g>
		<g>
			<path class="st1" d="M428.49,133.32L318.23,84.67l18.16-18.56c16.03-16.38,40.53-21.1,61.5-11.85l0,0
				c21.43,9.46,34.52,31.46,32.6,54.81L428.49,133.32z"/>
			<path class="st1" d="M422.27,164.52L422.27,164.52c-36.19-26.14-77.61-44.42-121.31-53.53l0,0"/>
			<path class="st1" d="M401.5,180.34L401.5,180.34c-29.3-21.17-62.84-35.97-98.23-43.35l0,0"/>
			<path class="st1" d="M378.55,195.05L378.55,195.05c-21.08-15.23-45.22-25.88-70.68-31.19h0"/>
			<path class="st1" d="M356.11,210.1L356.11,210.1c-13.87-10.02-29.75-17.03-46.5-20.52h0"/>
			<circle class="st11" cx="387.3" cy="79.54" r="10.35"/>
			<line class="st1" x1="376.9" y1="103.11" x2="314.76" y2="238.55"/>
			<polyline class="st1" points="326.94,270.5 314.51,238.44 283.04,250.64 			"/>
		</g>
		<path class="st1" d="M106.61,254.55c-14.59,14.83-23.59,35.18-23.59,57.63c0,9.69,1.69,18.98,4.77,27.62
			c-22.26,3.7-39.24,23.03-39.24,46.34c0,24.43,18.64,44.49,42.47,46.77c2.85,0.59,5.81,0.89,8.83,0.89
			c22.18,0,265.34,0.07,296.03,0.07c30.69,0,55.57-24.88,55.57-55.57c0-30.69-24.88-55.57-55.57-55.57c-2.94,0-5.83,0.23-8.65,0.67
			c-0.03-0.87-0.08-1.73-0.16-2.59c19.53-4.39,34.12-21.83,34.12-42.68c0-24.17-19.59-43.76-43.76-43.76
			c-9.55,0-18.39,3.07-25.58,8.27c-6.76-17.99-24.12-30.79-44.47-30.79c-5.25,0-10.3,0.87-15.03,2.44
			c-5.37-30.42-31.92-53.54-63.88-53.54c-17.92,0-34.14,7.26-45.88,19.01"/>
		<polyline class="st1" points="215.31,108.28 231.81,122.57 248.31,108.28 		"/>
		<polyline class="st1" points="353.31,276.2 369.81,290.49 386.31,276.2 		"/>
		<polyline class="st1" points="257.36,45.13 273.86,59.41 290.36,45.13 		"/>
		<polyline class="st1" points="240.37,350.15 256.86,364.44 273.36,350.15 		"/>
		<polyline class="st1" points="148.17,69.32 164.67,83.61 181.17,69.32 		"/>
		<circle class="st1" cx="395.3" cy="378.3" r="24"/>
		<circle class="st1" cx="57.96" cy="253.57" r="12.93"/>
		<circle class="st1" cx="322.94" cy="363.3" r="12.93"/>
		<circle class="st1" cx="234.81" cy="213.1" r="12.93"/>
		<circle class="st1" cx="419.3" cy="211.38" r="12.93"/>
		<path class="st1" d="M235.94,315.73l-1.78-4.82c-2.59-7-10.36-10.58-17.36-7.99l-75.9,28.04c-7,2.59-10.58,10.36-7.99,17.36
			l8.51,23.04"/>
		<path class="st1" d="M296.7,332.15c-11.17-14.62-29.81-22.79-49.24-19.67c-19.44,3.12-34.58,16.72-40.6,34.11
			c-5.28-1.49-10.95-1.9-16.72-0.97c-12.91,2.08-23.3,10.3-28.68,21.2c-2.88-0.63-5.92-0.76-9.01-0.26
			c-13.16,2.11-22.11,14.5-20,27.65"/>
	</g>
</g>
<g id="Text">
</g>
</svg>
