<?xml version="1.0" encoding="utf-8"?>
<!-- Generator: Adobe Illustrator 26.0.1, SVG Export Plug-In . SVG Version: 6.00 Build 0)  -->
<svg version="1.1" xmlns="http://www.w3.org/2000/svg" xmlns:xlink="http://www.w3.org/1999/xlink" x="0px" y="0px"
	 viewBox="0 0 500 500" style="enable-background:new 0 0 500 500;" xml:space="preserve">
<style type="text/css">
	.st0{fill:#F5333F;}
	.st1{fill:none;stroke:#011E41;stroke-width:16;stroke-miterlimit:10;}
	.st2{display:none;}
	.st3{display:inline;}
	.st4{fill:none;stroke:#D1D3D4;stroke-width:2;stroke-miterlimit:10;}
	.st5{display:inline;fill:none;stroke:#BCBEC0;stroke-width:4;stroke-miterlimit:10;}
	.st6{fill:none;stroke:#BCBEC0;stroke-width:4;stroke-miterlimit:10;}
	.st7{display:inline;fill:none;stroke:#D1D3D4;stroke-width:2;stroke-miterlimit:10;}
	.st8{display:none;opacity:0.35;fill:none;stroke:#000000;stroke-width:16;stroke-miterlimit:10;}
	.st9{fill:none;stroke:#011E41;stroke-width:16;stroke-linejoin:bevel;stroke-miterlimit:10;}
	.st10{fill:none;stroke:#F5333F;stroke-width:16;stroke-miterlimit:10;}
	.st11{fill:#011E41;}
	.st12{fill:none;stroke:#011E41;stroke-width:16;stroke-linecap:square;stroke-miterlimit:10;}
	.st13{fill:none;stroke:#011E41;stroke-width:16;stroke-linecap:round;stroke-miterlimit:10;}
	.st14{fill:none;stroke:#EF3741;stroke-width:16;stroke-miterlimit:10;}
	.st15{fill:#F5333F;stroke:#011E41;stroke-width:16;stroke-miterlimit:10;}
	.st16{fill:#EF3741;}
	.st17{fill:none;stroke:#011E41;stroke-width:8;stroke-miterlimit:10;}
	.st18{fill:none;stroke:#E73843;stroke-width:16;stroke-miterlimit:10;}
	.st19{fill:none;stroke:#011E41;stroke-width:13.4168;stroke-miterlimit:10;}
	.st20{fill:none;stroke:#011E41;stroke-width:13.8969;stroke-miterlimit:10;}
	.st21{fill:none;stroke:#011E41;stroke-width:14.2064;stroke-miterlimit:10;}
	.st22{fill:none;stroke:#011E41;stroke-width:15.0584;stroke-miterlimit:10;}
	.st23{fill:none;stroke:#011E41;stroke-width:15.1473;stroke-miterlimit:10;}
	.st24{fill:none;stroke:#011E41;stroke-width:16.5604;stroke-miterlimit:10;}
	.st25{fill:none;stroke:#011E41;stroke-width:14.3418;stroke-miterlimit:10;}
	.st26{fill:none;stroke:#011E41;stroke-width:15.8515;stroke-miterlimit:10;}
	.st27{fill:#F53340;}
</style>
<g id="Icons">
</g>
<g id="Text">
	<g>
		<path class="st27" d="M209.33,99.56c-21.92,2.52-49.58,6.64-56.93,13.99c-11.79,11.78-11.79,30.89,0,42.68
			c11.79,11.78,30.89,11.78,42.68,0c6.49-6.5,11.27-34.67,14.15-56.68"/>
		<path class="st1" d="M310.68,184.87l-34.84,93.85 M341.94,117.98c0,13.67-11.09,24.74-24.78,24.74
			c-13.69,0-24.78-11.07-24.78-24.74s11.09-24.75,24.78-24.75C330.85,93.23,341.94,104.31,341.94,117.98z M238.3,315.28
			c0,51.01-41.41,92.36-92.5,92.36"/>
		<path class="st1" d="M220.08,266.15c0,0-30.4-32.04-12.43-72.92c15.23-34.64,60.28-34.5,73.69-33.65
			c1.91,0.12,3.13,2.07,2.44,3.84l-45.25,116.02l60.03,32.78c16.22,8.86,22.82,28.66,15.14,45.41l-31.67,69.16"/>
		<line class="st1" x1="205.03" y1="76.3" x2="356.44" y2="227.7"/>
		<path class="st1" d="M252.79,96.8c0,0-71.64,5.06-83.49,16.9c-11.84,11.84-11.84,31.04,0,42.88c11.84,11.84,31.04,11.84,42.88,0
			c10.18-10.18,16.19-73.59,17.2-83.38"/>
	</g>
</g>
</svg>
