<?xml version="1.0" encoding="utf-8"?>
<!-- Generator: Adobe Illustrator 26.0.1, SVG Export Plug-In . SVG Version: 6.00 Build 0)  -->
<svg version="1.1" xmlns="http://www.w3.org/2000/svg" xmlns:xlink="http://www.w3.org/1999/xlink" x="0px" y="0px"
	 viewBox="0 0 500 500" style="enable-background:new 0 0 500 500;" xml:space="preserve">
<style type="text/css">
	.st0{fill:#F5333F;}
	.st1{fill:none;stroke:#011E41;stroke-width:16;stroke-miterlimit:10;}
	.st2{display:none;}
	.st3{display:inline;}
	.st4{fill:none;stroke:#D1D3D4;stroke-width:2;stroke-miterlimit:10;}
	.st5{display:inline;fill:none;stroke:#BCBEC0;stroke-width:4;stroke-miterlimit:10;}
	.st6{fill:none;stroke:#BCBEC0;stroke-width:4;stroke-miterlimit:10;}
	.st7{display:inline;fill:none;stroke:#D1D3D4;stroke-width:2;stroke-miterlimit:10;}
	.st8{display:none;opacity:0.35;fill:none;stroke:#000000;stroke-width:16;stroke-miterlimit:10;}
	.st9{fill:none;stroke:#011E41;stroke-width:16;stroke-linejoin:bevel;stroke-miterlimit:10;}
	.st10{fill:none;stroke:#F5333F;stroke-width:16;stroke-miterlimit:10;}
	.st11{fill:#011E41;}
	.st12{fill:none;stroke:#011E41;stroke-width:16;stroke-linecap:square;stroke-miterlimit:10;}
	.st13{fill:none;stroke:#011E41;stroke-width:16;stroke-linecap:round;stroke-miterlimit:10;}
	.st14{fill:none;stroke:#EF3741;stroke-width:16;stroke-miterlimit:10;}
	.st15{fill:#F5333F;stroke:#011E41;stroke-width:16;stroke-miterlimit:10;}
	.st16{fill:#EF3741;}
	.st17{fill:none;stroke:#011E41;stroke-width:8;stroke-miterlimit:10;}
	.st18{fill:none;stroke:#E73843;stroke-width:16;stroke-miterlimit:10;}
	.st19{fill:none;stroke:#011E41;stroke-width:13.4168;stroke-miterlimit:10;}
	.st20{fill:none;stroke:#011E41;stroke-width:13.8969;stroke-miterlimit:10;}
	.st21{fill:none;stroke:#011E41;stroke-width:14.2064;stroke-miterlimit:10;}
	.st22{fill:none;stroke:#011E41;stroke-width:15.0584;stroke-miterlimit:10;}
	.st23{fill:none;stroke:#011E41;stroke-width:15.1473;stroke-miterlimit:10;}
	.st24{fill:none;stroke:#011E41;stroke-width:16.5604;stroke-miterlimit:10;}
	.st25{fill:none;stroke:#011E41;stroke-width:14.3418;stroke-miterlimit:10;}
	.st26{fill:none;stroke:#011E41;stroke-width:15.8515;stroke-miterlimit:10;}
	.st27{fill:#F53340;}
</style>
<g id="Icons">
	<g>
		<path class="st0" d="M409.88,172.35l-0.2-17.7l-28.32-13.62c1.38-2.48,2.12-5.27,2.12-8.12l-3.7-20.73l-27,39.05l-44.52,36.69
			H165.21c-47.1,0-85.27,38.18-85.27,85.27v0.74c0,21.72-8.63,42.55-23.99,57.91v59.32c0,6.99,5.66,12.65,12.65,12.65h23.33v-12.9
			c0-6.62-5.37-11.99-11.99-11.99v-46.07l10.55-5.49c24.64-12.83,46.08-31.03,62.75-53.26l124.28,20.71l6.32,42.13v54.22
			c0,6.99,5.66,12.65,12.65,12.65h23.33v-12.9c0-6.62-5.37-11.99-11.99-11.99l8.91-81.97c11.71-2.97,21.96-9.97,29.03-19.54
			c0,0,23.32-33.48,31.54-52.18l10.08-22.92l-2.59-3.82c0.18,0.04,0.35,0.09,0.53,0.13l23.01,4.79c7.69,1.6,15.69-0.55,21.54-5.8
			l11.97-10.75L409.88,172.35z"/>
		<g>
			<g>
				<line class="st1" x1="326.27" y1="171.92" x2="358.3" y2="263.96"/>
				<line class="st1" x1="334.73" y1="280.95" x2="308.1" y2="174.47"/>
				<line class="st1" x1="295.52" y1="278.82" x2="301.84" y2="176.77"/>
				<line class="st1" x1="202.41" y1="261.52" x2="222.23" y2="171.92"/>
				<path class="st1" d="M112.66,202.44h-5.73c-19.87,0-35.98,16.11-35.98,35.98l0,77.43c0,0-21.88-14.66-23.99-67.3l0,0
					c-1.15-28.72,21.82-52.64,50.57-52.64h15.14V202.44z"/>
			</g>
			<path class="st1" d="M247.87,170.89L247.87,170.89c0-13.25,10.74-23.99,23.99-23.99h0c13.25,0,23.99,10.74,23.99,23.99v0"/>
		</g>
		<path class="st1" d="M394.67,122.78l33.01,15.88l0.2,17.7l31.96,14.51l-11.97,10.75c-5.85,5.25-13.85,7.4-21.54,5.8l-23.01-4.79
			c-8.86-1.85-16-8.39-18.62-17.05l-4.02-13.34"/>
		<path class="st1" d="M397.79,96.18l3.7,20.73c0,3.38-1.02,6.67-2.93,9.45l-2.83,4.12c-4.06,5.91-11.43,8.57-18.32,6.62l-6.62-1.87
			L397.79,96.18z"/>
		<path class="st1" d="M370.79,135.23l-44.52,36.69H183.21c-47.1,0-85.27,38.18-85.27,85.27v0.74c0,21.72-8.63,42.55-23.99,57.91
			l0,0v59.32c0,6.99,5.66,12.65,12.65,12.65h23.33v-12.9c0-6.62-5.37-11.99-11.99-11.99v-46.07l10.55-5.49
			c24.64-12.83,46.08-31.03,62.75-53.26l124.28,20.71l6.32,42.13v54.22c0,6.99,5.66,12.65,12.65,12.65h23.33v-12.9
			c0-6.62-5.37-11.99-11.99-11.99l8.91-81.97c11.71-2.97,21.96-9.97,29.03-19.54c0,0,23.32-33.48,31.54-52.18l10.08-22.92"/>
	</g>
</g>
<g id="Text">
</g>
</svg>
