<?xml version="1.0" encoding="utf-8"?>
<!-- Generator: Adobe Illustrator 26.0.1, SVG Export Plug-In . SVG Version: 6.00 Build 0)  -->
<svg version="1.1" xmlns="http://www.w3.org/2000/svg" xmlns:xlink="http://www.w3.org/1999/xlink" x="0px" y="0px"
	 viewBox="0 0 500 500" style="enable-background:new 0 0 500 500;" xml:space="preserve">
<style type="text/css">
	.st0{fill:#F5333F;}
	.st1{fill:none;stroke:#011E41;stroke-width:16;stroke-miterlimit:10;}
	.st2{display:none;}
	.st3{display:inline;}
	.st4{fill:none;stroke:#D1D3D4;stroke-width:2;stroke-miterlimit:10;}
	.st5{display:inline;fill:none;stroke:#BCBEC0;stroke-width:4;stroke-miterlimit:10;}
	.st6{fill:none;stroke:#BCBEC0;stroke-width:4;stroke-miterlimit:10;}
	.st7{display:inline;fill:none;stroke:#D1D3D4;stroke-width:2;stroke-miterlimit:10;}
	.st8{display:none;opacity:0.35;fill:none;stroke:#000000;stroke-width:16;stroke-miterlimit:10;}
	.st9{fill:none;stroke:#011E41;stroke-width:16;stroke-linejoin:bevel;stroke-miterlimit:10;}
	.st10{fill:none;stroke:#F5333F;stroke-width:16;stroke-miterlimit:10;}
	.st11{fill:#011E41;}
	.st12{fill:none;stroke:#011E41;stroke-width:16;stroke-linecap:square;stroke-miterlimit:10;}
	.st13{fill:none;stroke:#011E41;stroke-width:16;stroke-linecap:round;stroke-miterlimit:10;}
	.st14{fill:none;stroke:#EF3741;stroke-width:16;stroke-miterlimit:10;}
	.st15{fill:#F5333F;stroke:#011E41;stroke-width:16;stroke-miterlimit:10;}
	.st16{fill:#EF3741;}
	.st17{fill:none;stroke:#011E41;stroke-width:8;stroke-miterlimit:10;}
	.st18{fill:none;stroke:#E73843;stroke-width:16;stroke-miterlimit:10;}
	.st19{fill:none;stroke:#011E41;stroke-width:13.4168;stroke-miterlimit:10;}
	.st20{fill:none;stroke:#011E41;stroke-width:13.8969;stroke-miterlimit:10;}
	.st21{fill:none;stroke:#011E41;stroke-width:14.2064;stroke-miterlimit:10;}
	.st22{fill:none;stroke:#011E41;stroke-width:15.0584;stroke-miterlimit:10;}
	.st23{fill:none;stroke:#011E41;stroke-width:15.1473;stroke-miterlimit:10;}
	.st24{fill:none;stroke:#011E41;stroke-width:16.5604;stroke-miterlimit:10;}
	.st25{fill:none;stroke:#011E41;stroke-width:14.3418;stroke-miterlimit:10;}
	.st26{fill:none;stroke:#011E41;stroke-width:15.8515;stroke-miterlimit:10;}
	.st27{fill:#F53340;}
</style>
<g id="Icons">
	<g>
		<g>
			<path class="st10" d="M227.76,216.57c-22.29,8.87-38.08,30.65-38.08,56.06c0,4.37,0.47,8.63,1.37,12.74"/>
		</g>
	</g>
	<g>
		<g>
			<path class="st10" d="M309.42,285.44c5.42-26.18-7.17-53.79-32.19-66.24c-3.91-1.95-7.94-3.42-12.02-4.45"/>
		</g>
	</g>
	<g>
		<g>
			<path class="st10" d="M208.41,317.25c19.5,18.28,49.62,21.95,73.3,7.1c3.7-2.32,7.06-4.99,10.07-7.93"/>
		</g>
	</g>
</g>
<g id="Text">
	<path class="st1" d="M250,166.04c-12.55,0-22.75-10.21-22.75-22.75s10.2-22.75,22.75-22.75c12.55,0,22.75,10.21,22.75,22.75
		C272.75,155.83,262.55,166.04,250,166.04L250,166.04z"/>
	<path class="st1" d="M361.2,353.16c-12.55,0-22.75-10.21-22.75-22.75c0-12.54,10.2-22.75,22.75-22.75
		c12.55,0,22.75,10.21,22.75,22.75C383.95,342.95,373.74,353.16,361.2,353.16L361.2,353.16z"/>
	<path class="st1" d="M138.8,351.03c-12.55,0-22.75-10.21-22.75-22.75s10.2-22.75,22.75-22.75s22.75,10.21,22.75,22.75
		C161.55,340.82,151.35,351.03,138.8,351.03L138.8,351.03z"/>
	<path class="st1" d="M361.2,286.38c-10.1,0-19.41,3.42-26.84,9.16l-43.93-25.72c-1.25-13.19-8.83-24.56-19.67-31.03v-56.67
		c13.84-7.43,23.28-22.05,23.28-38.82c0-24.27-19.75-44.04-44.04-44.04c-24.29,0-44.04,19.76-44.04,44.04
		c0,16.17,8.77,30.33,21.8,37.99v58.43c-10.02,6.58-16.97,17.47-18.18,30.02l-42.19,25.09c-7.7-6.59-17.68-10.58-28.59-10.58
		c-24.29,0-44.04,19.76-44.04,44.04c0,24.28,19.75,44.04,44.04,44.04c21.62,0,39.63-15.66,43.33-36.23l46.69-27.77
		c6.17,3.79,13.42,5.97,21.18,5.97c7.74,0,14.97-2.18,21.13-5.94l46.33,27.13c2.52,21.91,21.16,38.98,43.74,38.98
		c24.29,0,44.04-19.76,44.04-44.04C405.24,306.14,385.48,286.38,361.2,286.38z"/>
</g>
</svg>
