<?xml version="1.0" encoding="utf-8"?>
<!-- Generator: Adobe Illustrator 26.0.1, SVG Export Plug-In . SVG Version: 6.00 Build 0)  -->
<svg version="1.1" xmlns="http://www.w3.org/2000/svg" xmlns:xlink="http://www.w3.org/1999/xlink" x="0px" y="0px"
	 viewBox="0 0 500 500" style="enable-background:new 0 0 500 500;" xml:space="preserve">
<style type="text/css">
	.st0{fill:#F5333F;}
	.st1{fill:none;stroke:#011E41;stroke-width:16;stroke-miterlimit:10;}
	.st2{display:none;}
	.st3{display:inline;}
	.st4{fill:none;stroke:#D1D3D4;stroke-width:2;stroke-miterlimit:10;}
	.st5{display:inline;fill:none;stroke:#BCBEC0;stroke-width:4;stroke-miterlimit:10;}
	.st6{fill:none;stroke:#BCBEC0;stroke-width:4;stroke-miterlimit:10;}
	.st7{display:inline;fill:none;stroke:#D1D3D4;stroke-width:2;stroke-miterlimit:10;}
	.st8{display:none;opacity:0.35;fill:none;stroke:#000000;stroke-width:16;stroke-miterlimit:10;}
	.st9{fill:none;stroke:#011E41;stroke-width:16;stroke-linejoin:bevel;stroke-miterlimit:10;}
	.st10{fill:none;stroke:#F5333F;stroke-width:16;stroke-miterlimit:10;}
	.st11{fill:#011E41;}
	.st12{fill:none;stroke:#011E41;stroke-width:16;stroke-linecap:square;stroke-miterlimit:10;}
	.st13{fill:none;stroke:#011E41;stroke-width:16;stroke-linecap:round;stroke-miterlimit:10;}
	.st14{fill:none;stroke:#EF3741;stroke-width:16;stroke-miterlimit:10;}
	.st15{fill:#F5333F;stroke:#011E41;stroke-width:16;stroke-miterlimit:10;}
	.st16{fill:#EF3741;}
	.st17{fill:none;stroke:#011E41;stroke-width:8;stroke-miterlimit:10;}
	.st18{fill:none;stroke:#E73843;stroke-width:16;stroke-miterlimit:10;}
	.st19{fill:none;stroke:#011E41;stroke-width:13.4168;stroke-miterlimit:10;}
	.st20{fill:none;stroke:#011E41;stroke-width:13.8969;stroke-miterlimit:10;}
	.st21{fill:none;stroke:#011E41;stroke-width:14.2064;stroke-miterlimit:10;}
	.st22{fill:none;stroke:#011E41;stroke-width:15.0584;stroke-miterlimit:10;}
	.st23{fill:none;stroke:#011E41;stroke-width:15.1473;stroke-miterlimit:10;}
	.st24{fill:none;stroke:#011E41;stroke-width:16.5604;stroke-miterlimit:10;}
	.st25{fill:none;stroke:#011E41;stroke-width:14.3418;stroke-miterlimit:10;}
	.st26{fill:none;stroke:#011E41;stroke-width:15.8515;stroke-miterlimit:10;}
	.st27{fill:#F53340;}
</style>
<g id="Icons">
	<g>
		<path class="st0" d="M411.24,255.06c0-24.41-15.78-45.11-37.68-52.52c2.45-6.49,3.61-13.62,3.13-21.07
			c-1.64-25.42-22.42-45.83-47.87-47.01c-1.54-0.07-3.26-0.01-5.06,0.12v-0.12V132c0-24.3-19.7-43.99-43.99-43.99l0,0
			c-24.04,0-43.57,19.29-43.97,43.23c-0.41-23.94-19.93-43.23-43.97-43.23l0,0c-24.3,0-43.99,19.7-43.99,43.99v2.46v0.1
			c-1.64-0.11-3.21-0.16-4.64-0.09c-25.45,1.18-46.23,21.6-47.87,47.01c-0.48,7.45,0.68,14.58,3.13,21.07
			c-21.91,7.4-37.68,28.11-37.68,52.52c0,23.95,15.18,44.34,36.45,52.1c-10.61,9.67-17.07,23.81-16.41,39.45
			c1.11,25.91,22.14,46.98,48.05,48.12c0.56,0.02,1.11,0.04,1.67,0.05c6.03,0.07,11.87-1.06,17.31-3.18v4
			c0,24.3,19.7,43.99,43.99,43.99l0,0c24.04,0,43.57-19.29,43.97-43.23c0.41,23.94,19.93,43.23,43.97,43.23l0,0
			c24.3,0,43.99-19.7,43.99-43.99v-4.16c5.55,2.22,11.54,3.42,17.73,3.34c0.55-0.01,1.11-0.02,1.67-0.05
			c25.91-1.14,46.94-22.2,48.05-48.12c0.67-15.64-5.8-29.78-16.41-39.45C396.06,299.41,411.24,279.01,411.24,255.06z"/>
		<g>
			<path class="st1" d="M332.07,101.94v-2.13c0-21.03-17.05-38.08-38.08-38.08h0c-21.03,0-38.08,17.05-38.08,38.08v284.93"/>
			<path class="st1" d="M179.76,100.62V98.5c0-21.03,17.05-38.08,38.08-38.08h0c21.03,0,38.08,17.05,38.08,38.08"/>
			<path class="st1" d="M142.93,136.72v-2.09c0-20.66,16.75-37.41,37.41-37.41h0c20.66,0,37.41,16.75,37.41,37.41"/>
			<path class="st1" d="M295.5,136.72v-2.09c0-20.66,16.75-37.41,37.41-37.41h0c20.66,0,37.41,16.75,37.41,37.41"/>
			<path class="st12" d="M244.35,262.07l-13.1-2.51c-16.09-2.52-29.99-13.06-37.21-28.24l-2.35-4.94
				c-4.3-9.04-11.66-16.1-20.67-19.82l0,0c-2.8-1.16-5.73-1.98-8.71-2.44l-0.75-0.12"/>
			<path class="st12" d="M206.28,248.46c0,0-9.61,13.86-29.2,22.61"/>
			<g>
				<path class="st1" d="M198.89,319.89c31.48,0,57.01,25.52,57.01,57.01c0,31.48-25.52,57.01-57.01,57.01
					c-30.31,0-55.08-23.65-56.89-53.5c-20.25-5.12-35.23-23.46-35.23-45.3c0-7.62,1.84-14.81,5.07-21.17
					c-18.39-8.86-31.08-27.68-31.08-49.46c0-22.39,13.41-41.63,32.63-50.16c-4.21-7.01-6.63-15.22-6.63-23.99
					c0-25.81,21.75-47.38,47.37-47.38s39.88,6.73,54,19.6c5.17,4.71,15.03,17.32,15.03,17.32c6.03,7.09,14.1,11.69,22.86,13.01h9.87
					"/>
			</g>
			<path class="st1" d="M142.6,338.19c13.58-4.75,29.28-1.69,40.14,9.16c11.16,11.16,14.06,27.43,8.74,41.26"/>
			<path class="st1" d="M152.4,286.19c-13.56,0-24.56-11-24.56-24.56c0-13.56,11-24.56,24.56-24.56"/>
			<path class="st12" d="M267.65,262.07l13.1-2.51c16.09-2.52,29.99-13.06,37.21-28.24l2.35-4.94c4.3-9.04,11.66-16.1,20.67-19.82v0
				c2.8-1.16,5.73-1.98,8.71-2.44l0.75-0.12"/>
			<path class="st12" d="M305.72,248.46c0,0,9.61,13.86,29.2,22.61"/>
			<g>
				<path class="st1" d="M313.11,319.89c-31.48,0-57.01,25.52-57.01,57.01c0,31.48,25.52,57.01,57.01,57.01
					c30.31,0,55.08-23.65,56.89-53.5c20.25-5.12,35.23-23.46,35.23-45.3c0-7.62-1.84-14.81-5.07-21.17
					c18.39-8.86,31.08-27.68,31.08-49.46c0-22.39-13.41-41.63-32.63-50.16c4.21-7.01,6.63-15.22,6.63-23.99
					c0-25.81-21.75-47.38-47.37-47.38c-25.62,0-39.88,6.73-54,19.6c-5.17,4.71-15.03,17.32-15.03,17.32
					c-6.03,7.09-14.1,11.69-22.86,13.01h-9.87"/>
			</g>
			<path class="st1" d="M369.4,338.19c-13.58-4.75-29.28-1.69-40.14,9.16c-11.16,11.16-14.06,27.43-8.74,41.26"/>
			<path class="st1" d="M359.6,286.19c13.56,0,24.56-11,24.56-24.56c0-13.56-11-24.56-24.56-24.56"/>
		</g>
	</g>
</g>
<g id="Text">
</g>
</svg>
