<?xml version="1.0" encoding="utf-8"?>
<!-- Generator: Adobe Illustrator 26.0.1, SVG Export Plug-In . SVG Version: 6.00 Build 0)  -->
<svg version="1.1" xmlns="http://www.w3.org/2000/svg" xmlns:xlink="http://www.w3.org/1999/xlink" x="0px" y="0px"
	 viewBox="0 0 500 500" style="enable-background:new 0 0 500 500;" xml:space="preserve">
<style type="text/css">
	.st0{fill:#F5333F;}
	.st1{fill:none;stroke:#011E41;stroke-width:16;stroke-miterlimit:10;}
	.st2{display:none;}
	.st3{display:inline;}
	.st4{fill:none;stroke:#D1D3D4;stroke-width:2;stroke-miterlimit:10;}
	.st5{display:inline;fill:none;stroke:#BCBEC0;stroke-width:4;stroke-miterlimit:10;}
	.st6{fill:none;stroke:#BCBEC0;stroke-width:4;stroke-miterlimit:10;}
	.st7{display:inline;fill:none;stroke:#D1D3D4;stroke-width:2;stroke-miterlimit:10;}
	.st8{display:none;opacity:0.35;fill:none;stroke:#000000;stroke-width:16;stroke-miterlimit:10;}
	.st9{fill:none;stroke:#011E41;stroke-width:16;stroke-linejoin:bevel;stroke-miterlimit:10;}
	.st10{fill:none;stroke:#F5333F;stroke-width:16;stroke-miterlimit:10;}
	.st11{fill:#011E41;}
	.st12{fill:none;stroke:#011E41;stroke-width:16;stroke-linecap:square;stroke-miterlimit:10;}
	.st13{fill:none;stroke:#011E41;stroke-width:16;stroke-linecap:round;stroke-miterlimit:10;}
	.st14{fill:none;stroke:#EF3741;stroke-width:16;stroke-miterlimit:10;}
	.st15{fill:#F5333F;stroke:#011E41;stroke-width:16;stroke-miterlimit:10;}
	.st16{fill:#EF3741;}
	.st17{fill:none;stroke:#011E41;stroke-width:8;stroke-miterlimit:10;}
	.st18{fill:none;stroke:#E73843;stroke-width:16;stroke-miterlimit:10;}
	.st19{fill:none;stroke:#011E41;stroke-width:13.4168;stroke-miterlimit:10;}
	.st20{fill:none;stroke:#011E41;stroke-width:13.8969;stroke-miterlimit:10;}
	.st21{fill:none;stroke:#011E41;stroke-width:14.2064;stroke-miterlimit:10;}
	.st22{fill:none;stroke:#011E41;stroke-width:15.0584;stroke-miterlimit:10;}
	.st23{fill:none;stroke:#011E41;stroke-width:15.1473;stroke-miterlimit:10;}
	.st24{fill:none;stroke:#011E41;stroke-width:16.5604;stroke-miterlimit:10;}
	.st25{fill:none;stroke:#011E41;stroke-width:14.3418;stroke-miterlimit:10;}
	.st26{fill:none;stroke:#011E41;stroke-width:15.8515;stroke-miterlimit:10;}
	.st27{fill:#F53340;}
</style>
<g id="Icons">
	<g>
		<path class="st0" d="M232.42,308.43L232.42,308.43c-26.77,0-48.47-21.7-48.47-48.47V135.34c0-26.77,21.7-48.47,48.47-48.47h0
			c26.77,0,48.47,21.7,48.47,48.47v124.63C280.89,286.73,259.19,308.43,232.42,308.43z"/>
		<g>
			<path class="st1" d="M252.42,298.43L252.42,298.43c-26.77,0-48.47-21.7-48.47-48.47V125.34c0-26.77,21.7-48.47,48.47-48.47h0
				c26.77,0,48.47,21.7,48.47,48.47v124.63C300.89,276.73,279.19,298.43,252.42,298.43z"/>
			<path class="st1" d="M329.44,253.2v1.8c0,42.54-34.49,77.02-77.02,77.02h0c-42.54,0-77.02-34.49-77.02-77.02v-1.8"/>
			<g>
				<g>
					<line class="st1" x1="85.02" y1="143.92" x2="85.02" y2="251.87"/>
					<line class="st1" x1="114.75" y1="221.89" x2="114.75" y2="173.91"/>
					<line class="st1" x1="145.19" y1="239.88" x2="145.19" y2="155.92"/>
					<line class="st1" x1="174.92" y1="221.89" x2="174.92" y2="173.91"/>
				</g>
				<g>
					<line class="st1" x1="419.81" y1="251.87" x2="419.81" y2="143.92"/>
					<line class="st1" x1="390.09" y1="173.91" x2="390.09" y2="221.89"/>
					<line class="st1" x1="359.65" y1="155.92" x2="359.65" y2="239.88"/>
					<line class="st1" x1="329.92" y1="173.91" x2="329.92" y2="221.89"/>
				</g>
			</g>
			<g>
				<line class="st1" x1="234.43" y1="381.15" x2="234.43" y2="331.07"/>
				<line class="st1" x1="270.41" y1="331.07" x2="270.41" y2="381.15"/>
			</g>
			<path class="st1" d="M330.38,423.13H174.46v0c0-19.87,16.11-35.98,35.98-35.98h83.96C314.27,387.15,330.38,403.26,330.38,423.13
				L330.38,423.13z"/>
			<line class="st1" x1="203.95" y1="187.65" x2="300.89" y2="187.65"/>
		</g>
	</g>
</g>
<g id="Text">
</g>
</svg>
