<?xml version="1.0" encoding="utf-8"?>
<!-- Generator: Adobe Illustrator 26.0.1, SVG Export Plug-In . SVG Version: 6.00 Build 0)  -->
<svg version="1.1" xmlns="http://www.w3.org/2000/svg" xmlns:xlink="http://www.w3.org/1999/xlink" x="0px" y="0px"
	 viewBox="0 0 500 500" style="enable-background:new 0 0 500 500;" xml:space="preserve">
<style type="text/css">
	.st0{fill:#F5333F;}
	.st1{fill:none;stroke:#011E41;stroke-width:16;stroke-miterlimit:10;}
	.st2{display:none;}
	.st3{display:inline;}
	.st4{fill:none;stroke:#D1D3D4;stroke-width:2;stroke-miterlimit:10;}
	.st5{display:inline;fill:none;stroke:#BCBEC0;stroke-width:4;stroke-miterlimit:10;}
	.st6{fill:none;stroke:#BCBEC0;stroke-width:4;stroke-miterlimit:10;}
	.st7{display:inline;fill:none;stroke:#D1D3D4;stroke-width:2;stroke-miterlimit:10;}
	.st8{display:none;opacity:0.35;fill:none;stroke:#000000;stroke-width:16;stroke-miterlimit:10;}
	.st9{fill:none;stroke:#011E41;stroke-width:16;stroke-linejoin:bevel;stroke-miterlimit:10;}
	.st10{fill:none;stroke:#F5333F;stroke-width:16;stroke-miterlimit:10;}
	.st11{fill:#011E41;}
	.st12{fill:none;stroke:#011E41;stroke-width:16;stroke-linecap:square;stroke-miterlimit:10;}
	.st13{fill:none;stroke:#011E41;stroke-width:16;stroke-linecap:round;stroke-miterlimit:10;}
	.st14{fill:none;stroke:#EF3741;stroke-width:16;stroke-miterlimit:10;}
	.st15{fill:#F5333F;stroke:#011E41;stroke-width:16;stroke-miterlimit:10;}
	.st16{fill:#EF3741;}
	.st17{fill:none;stroke:#011E41;stroke-width:8;stroke-miterlimit:10;}
	.st18{fill:none;stroke:#E73843;stroke-width:16;stroke-miterlimit:10;}
	.st19{fill:none;stroke:#011E41;stroke-width:13.4168;stroke-miterlimit:10;}
	.st20{fill:none;stroke:#011E41;stroke-width:13.8969;stroke-miterlimit:10;}
	.st21{fill:none;stroke:#011E41;stroke-width:14.2064;stroke-miterlimit:10;}
	.st22{fill:none;stroke:#011E41;stroke-width:15.0584;stroke-miterlimit:10;}
	.st23{fill:none;stroke:#011E41;stroke-width:15.1473;stroke-miterlimit:10;}
	.st24{fill:none;stroke:#011E41;stroke-width:16.5604;stroke-miterlimit:10;}
	.st25{fill:none;stroke:#011E41;stroke-width:14.3418;stroke-miterlimit:10;}
	.st26{fill:none;stroke:#011E41;stroke-width:15.8515;stroke-miterlimit:10;}
	.st27{fill:#F53340;}
</style>
<g id="Icons">
	<g>
		<g>
			<rect x="63.04" y="359.49" class="st0" width="161.94" height="62.97"/>
			<g>
				<g>
					<path class="st1" d="M93.18,448.75c-5.6,0-10.14-4.54-10.14-10.14V319.25c0-6.45,2.26-12.69,6.39-17.64l16.11-19.32h35.96
						l16.11,19.32c4.13,4.95,6.39,11.19,6.39,17.64v119.36c0,5.6-4.54,10.14-10.14,10.14H93.18z"/>
					<rect x="102.46" y="246.77" class="st1" width="42.13" height="20.99"/>
					<g>
						<line class="st1" x1="141.51" y1="267.76" x2="141.51" y2="282.29"/>
						<line class="st1" x1="105.54" y1="282.29" x2="105.54" y2="267.76"/>
					</g>
					<g>
						<line class="st1" x1="83.04" y1="339.49" x2="164.03" y2="339.49"/>
						<line class="st1" x1="164.03" y1="402.45" x2="83.04" y2="402.45"/>
					</g>
				</g>
				<g>
					<path class="st1" d="M174.14,448.75c-5.6,0-10.14-4.54-10.14-10.14V319.25c0-6.45,2.26-12.69,6.39-17.64l16.11-19.32h35.96
						l16.11,19.32c4.13,4.95,6.39,11.19,6.39,17.64v119.36c0,5.6-4.54,10.14-10.14,10.14H174.14z"/>
					<rect x="183.41" y="246.77" class="st1" width="42.13" height="20.99"/>
					<g>
						<line class="st1" x1="222.46" y1="267.76" x2="222.46" y2="282.29"/>
						<line class="st1" x1="186.49" y1="282.29" x2="186.49" y2="267.76"/>
					</g>
					<g>
						<line class="st1" x1="164" y1="339.49" x2="244.99" y2="339.49"/>
						<line class="st1" x1="244.99" y1="402.45" x2="164" y2="402.45"/>
					</g>
				</g>
			</g>
			<g>
				<polyline class="st1" points="186.31,267.94 155.75,237.38 214.27,178.86 353.33,317.92 294.81,376.44 244.96,326.59 				"/>
				
					<rect x="334.08" y="358.3" transform="matrix(0.7071 -0.7071 0.7071 0.7071 -164.6044 364.7082)" class="st1" width="47.72" height="45.5"/>
				
					<rect x="270.83" y="343.5" transform="matrix(0.7071 -0.7071 0.7071 0.7071 -154.2586 339.731)" class="st1" width="124.26" height="25.15"/>
				
					<rect x="335.07" y="393.45" transform="matrix(0.7071 -0.7071 0.7071 0.7071 -174.9503 389.6853)" class="st1" width="95.69" height="25.15"/>
				<polyline class="st1" points="167.89,225.24 155.82,200.94 177.83,178.93 202.13,191 				"/>
				<line class="st1" x1="277.32" y1="358.96" x2="335.85" y2="300.43"/>
				<line class="st1" x1="167.13" y1="190.43" x2="108.61" y2="131.9"/>
				<line class="st1" x1="297.62" y1="298.06" x2="318.31" y2="277.37"/>
				<line class="st1" x1="277.32" y1="277.75" x2="298.01" y2="257.07"/>
				<line class="st1" x1="257.02" y1="257.45" x2="277.71" y2="236.76"/>
				<line class="st1" x1="236.72" y1="237.15" x2="257.41" y2="216.46"/>
				<line class="st1" x1="216.42" y1="216.85" x2="237.11" y2="196.16"/>
			</g>
		</g>
		<path class="st10" d="M370.01,92.75C336.98,66.76,295.3,51.25,250,51.25c-45.3,0-86.98,15.51-120.01,41.5"/>
	</g>
</g>
<g id="Text">
</g>
</svg>
