<?xml version="1.0" encoding="utf-8"?>
<!-- Generator: Adobe Illustrator 26.0.1, SVG Export Plug-In . SVG Version: 6.00 Build 0)  -->
<svg version="1.1" xmlns="http://www.w3.org/2000/svg" xmlns:xlink="http://www.w3.org/1999/xlink" x="0px" y="0px"
	 viewBox="0 0 500 500" style="enable-background:new 0 0 500 500;" xml:space="preserve">
<style type="text/css">
	.st0{fill:#F5333F;}
	.st1{fill:none;stroke:#011E41;stroke-width:16;stroke-miterlimit:10;}
	.st2{display:none;}
	.st3{display:inline;}
	.st4{fill:none;stroke:#D1D3D4;stroke-width:2;stroke-miterlimit:10;}
	.st5{display:inline;fill:none;stroke:#BCBEC0;stroke-width:4;stroke-miterlimit:10;}
	.st6{fill:none;stroke:#BCBEC0;stroke-width:4;stroke-miterlimit:10;}
	.st7{display:inline;fill:none;stroke:#D1D3D4;stroke-width:2;stroke-miterlimit:10;}
	.st8{display:none;opacity:0.35;fill:none;stroke:#000000;stroke-width:16;stroke-miterlimit:10;}
	.st9{fill:none;stroke:#011E41;stroke-width:16;stroke-linejoin:bevel;stroke-miterlimit:10;}
	.st10{fill:none;stroke:#F5333F;stroke-width:16;stroke-miterlimit:10;}
	.st11{fill:#011E41;}
	.st12{fill:none;stroke:#011E41;stroke-width:16;stroke-linecap:square;stroke-miterlimit:10;}
	.st13{fill:none;stroke:#011E41;stroke-width:16;stroke-linecap:round;stroke-miterlimit:10;}
	.st14{fill:none;stroke:#EF3741;stroke-width:16;stroke-miterlimit:10;}
	.st15{fill:#F5333F;stroke:#011E41;stroke-width:16;stroke-miterlimit:10;}
	.st16{fill:#EF3741;}
	.st17{fill:none;stroke:#011E41;stroke-width:8;stroke-miterlimit:10;}
	.st18{fill:none;stroke:#E73843;stroke-width:16;stroke-miterlimit:10;}
	.st19{fill:none;stroke:#011E41;stroke-width:13.4168;stroke-miterlimit:10;}
	.st20{fill:none;stroke:#011E41;stroke-width:13.8969;stroke-miterlimit:10;}
	.st21{fill:none;stroke:#011E41;stroke-width:14.2064;stroke-miterlimit:10;}
	.st22{fill:none;stroke:#011E41;stroke-width:15.0584;stroke-miterlimit:10;}
	.st23{fill:none;stroke:#011E41;stroke-width:15.1473;stroke-miterlimit:10;}
	.st24{fill:none;stroke:#011E41;stroke-width:16.5604;stroke-miterlimit:10;}
	.st25{fill:none;stroke:#011E41;stroke-width:14.3418;stroke-miterlimit:10;}
	.st26{fill:none;stroke:#011E41;stroke-width:15.8515;stroke-miterlimit:10;}
	.st27{fill:#F53340;}
</style>
<g id="Icons">
	<g>
		<g>
			<path class="st0" d="M261.52,251.7c0-13.62,11.04-24.66,24.66-24.66v49.32C272.56,276.36,261.52,265.32,261.52,251.7z"/>
			<g>
				<g>
					<path class="st1" d="M286.23,305.41c-29.66,0-53.71-24.05-53.71-53.71s24.05-53.71,53.71-53.71"/>
					<g>
						<path class="st1" d="M286.23,342.52c-10.07,0-19.75-1.64-28.8-4.66"/>
						<path class="st1" d="M217.46,311.01c-13.74-15.91-22.04-36.64-22.04-59.31c0-50.16,40.66-90.82,90.82-90.82"/>
						<path class="st1" d="M240.82,330.36c-4.37-2.53-8.51-5.41-12.38-8.6"/>
					</g>
				</g>
			</g>
		</g>
		<g>
			<g>
				<rect x="97.46" y="70.09" class="st1" width="195.91" height="359.83"/>
				<line class="st1" x1="98.46" y1="122.79" x2="292.37" y2="122.79"/>
				<line class="st1" x1="98.46" y1="380.6" x2="292.37" y2="380.6"/>
				<g>
					<line class="st1" x1="163.87" y1="96.08" x2="197.85" y2="96.08"/>
					<rect x="210.85" y="88.02" class="st11" width="16.11" height="16.11"/>
				</g>
			</g>
		</g>
		<g>
			<line class="st18" x1="282.29" y1="251.7" x2="394.75" y2="251.7"/>
			<polyline class="st18" points="335.39,184.54 402.54,251.7 335.39,318.85 			"/>
		</g>
	</g>
</g>
<g id="Text">
</g>
</svg>
