<?xml version="1.0" encoding="utf-8"?>
<!-- Generator: Adobe Illustrator 26.0.1, SVG Export Plug-In . SVG Version: 6.00 Build 0)  -->
<svg version="1.1" xmlns="http://www.w3.org/2000/svg" xmlns:xlink="http://www.w3.org/1999/xlink" x="0px" y="0px"
	 viewBox="0 0 500 500" style="enable-background:new 0 0 500 500;" xml:space="preserve">
<style type="text/css">
	.st0{fill:#F5333F;}
	.st1{fill:none;stroke:#011E41;stroke-width:16;stroke-miterlimit:10;}
	.st2{display:none;}
	.st3{display:inline;}
	.st4{fill:none;stroke:#D1D3D4;stroke-width:2;stroke-miterlimit:10;}
	.st5{display:inline;fill:none;stroke:#BCBEC0;stroke-width:4;stroke-miterlimit:10;}
	.st6{fill:none;stroke:#BCBEC0;stroke-width:4;stroke-miterlimit:10;}
	.st7{display:inline;fill:none;stroke:#D1D3D4;stroke-width:2;stroke-miterlimit:10;}
	.st8{display:none;opacity:0.35;fill:none;stroke:#000000;stroke-width:16;stroke-miterlimit:10;}
	.st9{fill:none;stroke:#011E41;stroke-width:16;stroke-linejoin:bevel;stroke-miterlimit:10;}
	.st10{fill:none;stroke:#F5333F;stroke-width:16;stroke-miterlimit:10;}
	.st11{fill:#011E41;}
	.st12{fill:none;stroke:#011E41;stroke-width:16;stroke-linecap:square;stroke-miterlimit:10;}
	.st13{fill:none;stroke:#011E41;stroke-width:16;stroke-linecap:round;stroke-miterlimit:10;}
	.st14{fill:none;stroke:#EF3741;stroke-width:16;stroke-miterlimit:10;}
	.st15{fill:#F5333F;stroke:#011E41;stroke-width:16;stroke-miterlimit:10;}
	.st16{fill:#EF3741;}
	.st17{fill:none;stroke:#011E41;stroke-width:8;stroke-miterlimit:10;}
	.st18{fill:none;stroke:#E73843;stroke-width:16;stroke-miterlimit:10;}
	.st19{fill:none;stroke:#011E41;stroke-width:13.4168;stroke-miterlimit:10;}
	.st20{fill:none;stroke:#011E41;stroke-width:13.8969;stroke-miterlimit:10;}
	.st21{fill:none;stroke:#011E41;stroke-width:14.2064;stroke-miterlimit:10;}
	.st22{fill:none;stroke:#011E41;stroke-width:15.0584;stroke-miterlimit:10;}
	.st23{fill:none;stroke:#011E41;stroke-width:15.1473;stroke-miterlimit:10;}
	.st24{fill:none;stroke:#011E41;stroke-width:16.5604;stroke-miterlimit:10;}
	.st25{fill:none;stroke:#011E41;stroke-width:14.3418;stroke-miterlimit:10;}
	.st26{fill:none;stroke:#011E41;stroke-width:15.8515;stroke-miterlimit:10;}
	.st27{fill:#F53340;}
</style>
<g id="Icons">
	<g>
		<g>
			<path class="st1" d="M286.54,136.02v-15.42c0-9.92-8.04-17.96-17.96-17.96h-37.16c-9.92,0-17.96,8.04-17.96,17.96v15.42"/>
			<line class="st1" x1="92.91" y1="196.53" x2="402.15" y2="196.53"/>
			<line class="st1" x1="399.33" y1="260.87" x2="255.41" y2="260.87"/>
			<line class="st1" x1="399.33" y1="325.2" x2="296.17" y2="325.2"/>
			<line class="st1" x1="399.33" y1="389.54" x2="282.46" y2="389.54"/>
			<path class="st1" d="M93.86,455.84h312.28V222.41c0-21.78-12.67-41.58-32.46-50.69l-87.14-40.15h-73.08l-87.14,40.15
				c-19.78,9.12-32.46,28.91-32.46,50.69V455.84z"/>
			<path class="st1" d="M191.46,345.87c0,30.36,24.61,54.96,54.96,54.96s54.96-24.61,54.96-54.96c0-30.36-54.96-96.29-54.96-96.29
				S191.46,315.51,191.46,345.87z"/>
			<line class="st1" x1="92.91" y1="260.87" x2="236.83" y2="260.87"/>
			<line class="st1" x1="92.91" y1="325.2" x2="196.07" y2="325.2"/>
			<line class="st1" x1="92.91" y1="389.54" x2="209.78" y2="389.54"/>
			<path class="st1" d="M93.86,228.24v-72.89c0-9.93,8.03-17.99,17.96-18.04l276.21-1.21c9.99-0.04,18.12,8.05,18.12,18.04v74.1"/>
		</g>
		<path class="st10" d="M369.54,85.66c-33.04-25.99-74.71-41.5-120.01-41.5c-45.3,0-86.98,15.51-120.01,41.5"/>
	</g>
</g>
<g id="Text">
</g>
</svg>
