<?xml version="1.0" encoding="utf-8"?>
<!-- Generator: Adobe Illustrator 26.0.1, SVG Export Plug-In . SVG Version: 6.00 Build 0)  -->
<svg version="1.1" xmlns="http://www.w3.org/2000/svg" xmlns:xlink="http://www.w3.org/1999/xlink" x="0px" y="0px"
	 viewBox="0 0 500 500" style="enable-background:new 0 0 500 500;" xml:space="preserve">
<style type="text/css">
	.st0{fill:#F5333F;}
	.st1{fill:none;stroke:#011E41;stroke-width:16;stroke-miterlimit:10;}
	.st2{display:none;}
	.st3{display:inline;}
	.st4{fill:none;stroke:#D1D3D4;stroke-width:2;stroke-miterlimit:10;}
	.st5{display:inline;fill:none;stroke:#BCBEC0;stroke-width:4;stroke-miterlimit:10;}
	.st6{fill:none;stroke:#BCBEC0;stroke-width:4;stroke-miterlimit:10;}
	.st7{display:inline;fill:none;stroke:#D1D3D4;stroke-width:2;stroke-miterlimit:10;}
	.st8{display:none;opacity:0.35;fill:none;stroke:#000000;stroke-width:16;stroke-miterlimit:10;}
	.st9{fill:none;stroke:#011E41;stroke-width:16;stroke-linejoin:bevel;stroke-miterlimit:10;}
	.st10{fill:none;stroke:#F5333F;stroke-width:16;stroke-miterlimit:10;}
	.st11{fill:#011E41;}
	.st12{fill:none;stroke:#011E41;stroke-width:16;stroke-linecap:square;stroke-miterlimit:10;}
	.st13{fill:none;stroke:#011E41;stroke-width:16;stroke-linecap:round;stroke-miterlimit:10;}
	.st14{fill:none;stroke:#EF3741;stroke-width:16;stroke-miterlimit:10;}
	.st15{fill:#F5333F;stroke:#011E41;stroke-width:16;stroke-miterlimit:10;}
	.st16{fill:#EF3741;}
	.st17{fill:none;stroke:#011E41;stroke-width:8;stroke-miterlimit:10;}
	.st18{fill:none;stroke:#E73843;stroke-width:16;stroke-miterlimit:10;}
	.st19{fill:none;stroke:#011E41;stroke-width:13.4168;stroke-miterlimit:10;}
	.st20{fill:none;stroke:#011E41;stroke-width:13.8969;stroke-miterlimit:10;}
	.st21{fill:none;stroke:#011E41;stroke-width:14.2064;stroke-miterlimit:10;}
	.st22{fill:none;stroke:#011E41;stroke-width:15.0584;stroke-miterlimit:10;}
	.st23{fill:none;stroke:#011E41;stroke-width:15.1473;stroke-miterlimit:10;}
	.st24{fill:none;stroke:#011E41;stroke-width:16.5604;stroke-miterlimit:10;}
	.st25{fill:none;stroke:#011E41;stroke-width:14.3418;stroke-miterlimit:10;}
	.st26{fill:none;stroke:#011E41;stroke-width:15.8515;stroke-miterlimit:10;}
	.st27{fill:#F53340;}
</style>
<g id="Icons">
	<g>
		<g>
			<path class="st1" d="M232.5,429.93c-7.3,7.04-18.92,6.83-25.96-0.47c-7.04-7.3-6.83-18.92,0.47-25.96l53.73-54.2
				c7.3-7.04,18.92-6.83,25.96,0.47c7.04,7.3,6.83,18.92-0.47,25.96L232.5,429.93z"/>
			<path class="st1" d="M311.76,313.86l0.33,76.31c-0.18,10.14-8.55,18.21-18.69,18.02s-18.21-8.55-18.02-18.69"/>
			<path class="st1" d="M348.81,295.86l0.33,76.31c-0.18,10.14-8.55,18.21-18.69,18.02s-18.21-8.55-18.02-18.69"/>
			<path class="st1" d="M199.47,411.04c-7.3,7.04-18.92,6.83-25.96-0.47s-6.83-18.92,0.47-25.96l86.49-86.96
				c7.3-7.04,18.92-6.83,25.96,0.47c7.04,7.3,6.83,18.92-0.47,25.96L199.47,411.04z"/>
			<path class="st1" d="M166.44,392.15c-7.3,7.04-18.92,6.83-25.96-0.47c-7.04-7.3-6.83-18.92,0.47-25.96l80.83-81.3
				c7.3-7.04,18.92-6.83,25.96,0.47c7.04,7.3,6.83,18.92-0.47,25.96L166.44,392.15z"/>
			<path class="st1" d="M133.4,373.26c-7.3,7.04-18.92,6.83-25.96-0.47c-7.04-7.3-6.83-18.92,0.47-25.96l47.57-48.05
				c7.3-7.04,18.92-6.83,25.96,0.47c7.04,7.3,6.83,18.92-0.47,25.96L133.4,373.26z"/>
			<path class="st1" d="M349.05,353.52c-0.18,10.14,7.88,18.51,18.02,18.69s18.51-7.88,18.69-18.02l-0.33-76.31l-72.33-75.55
				c-10.98-11.47-29.37-11.28-40.12,0.41l-37.46,40.75c-12.77,13.89-34.41,14.69-48.17,1.78l52.48-88.33l0,0
				c27.45-22.2,65.99-24.46,95.84-5.63l71.44,45.07h34.7"/>
			<path class="st1" d="M58.18,195.64h59.65l34.54-25.22c17.98-13.13,40.99-17.26,62.42-11.2l0,0"/>
			<line class="st1" x1="58.18" y1="347.68" x2="82.17" y2="347.68"/>
			<line class="st1" x1="405.83" y1="347.68" x2="441.82" y2="347.68"/>
		</g>
		<path class="st10" d="M370.01,106.42C336.98,80.43,295.3,64.92,250,64.92c-45.3,0-86.98,15.51-120.01,41.5"/>
	</g>
</g>
<g id="Text">
</g>
</svg>
