<?xml version="1.0" encoding="utf-8"?>
<!-- Generator: Adobe Illustrator 24.1.0, SVG Export Plug-In . SVG Version: 6.00 Build 0)  -->
<svg version="1.1" xmlns="http://www.w3.org/2000/svg" xmlns:xlink="http://www.w3.org/1999/xlink" x="0px" y="0px"
	 viewBox="0 0 500 500" style="enable-background:new 0 0 500 500;" xml:space="preserve">
<style type="text/css">
	.st0{fill:none;stroke:#000000;stroke-width:16;stroke-miterlimit:10;}
	.st1{display:none;}
	.st2{display:inline;}
	.st3{fill:none;stroke:#D1D3D4;stroke-width:2;stroke-miterlimit:10;}
	.st4{display:inline;fill:none;stroke:#BCBEC0;stroke-width:4;stroke-miterlimit:10;}
	.st5{fill:none;stroke:#BCBEC0;stroke-width:4;stroke-miterlimit:10;}
	.st6{display:inline;fill:none;stroke:#D1D3D4;stroke-width:2;stroke-miterlimit:10;}
	.st7{display:none;opacity:0.35;fill:none;stroke:#000000;stroke-width:16;stroke-miterlimit:10;}
	.st8{fill:none;stroke:#000000;stroke-width:16;stroke-linejoin:bevel;stroke-miterlimit:10;}
	.st9{fill:none;stroke:#000000;stroke-width:16;stroke-linecap:square;stroke-miterlimit:10;}
	.st10{fill:none;stroke:#000000;stroke-width:16;stroke-linecap:round;stroke-miterlimit:10;}
	.st11{fill:none;stroke:#000000;stroke-width:8;stroke-miterlimit:10;}
</style>
<g id="Icons">
	<g>
		<g>
			<path class="st0" d="M250,393.9L250,393.9c-29.81,0-53.97-24.16-53.97-53.97v-73.96h107.95v73.96
				C303.97,369.74,279.81,393.9,250,393.9z"/>
			<g>
				<g>
					<path class="st0" d="M250.18,393.9v-61.76c0-12.26,9.94-22.2,22.2-22.2l61.63,0L358,333.93"/>
				</g>
				<g>
					<path class="st0" d="M249.82,393.9v-61.76c0-12.26-9.94-22.2-22.2-22.2l-61.63,0L142,333.93"/>
				</g>
			</g>
			<path class="st0" d="M259,265.96H241c-9.94,0-17.99-8.05-17.99-17.99v0c0-9.94,8.05-17.99,17.99-17.99H259
				c9.94,0,17.99,8.05,17.99,17.99v0C276.99,257.91,268.93,265.96,259,265.96z"/>
			<g>
				<polyline class="st0" points="170.23,200.46 170.23,239.85 195.88,265.5 				"/>
				<polyline class="st0" points="329.77,200.46 329.77,239.85 304.12,265.5 				"/>
			</g>
			<g>
				<polyline class="st0" points="234.55,201.21 234.55,216.69 244.62,226.76 				"/>
				<polyline class="st0" points="265.45,201.21 265.45,216.69 255.38,226.76 				"/>
			</g>
			<g>
				<polyline class="st0" points="304.31,353.19 338.51,375.84 338.51,410.62 357.34,429.45 				"/>
				<polyline class="st0" points="195.69,353.19 161.49,375.84 161.49,410.62 142.66,429.45 				"/>
			</g>
		</g>
		<g>
			<g>
				<g>
					<path class="st0" d="M360.33,192.13h-5.65c-17.17,0-31.1-13.92-31.1-31.1v-49.31h67.85v49.31
						C391.42,178.21,377.5,192.13,360.33,192.13z"/>
					<g>
						<g>
							<path class="st0" d="M357.61,192.13v-38.82c0-7.7,6.25-13.95,13.95-13.95l38.74,0l15.08,15.08"/>
						</g>
						<g>
							<path class="st0" d="M357.39,192.13v-38.82c0-7.7-6.25-13.95-13.95-13.95l-38.74,0l-15.08,15.08"/>
						</g>
					</g>
					<path class="st0" d="M364.1,111.72H350.9c-5.72,0-10.37-4.64-10.37-10.37v-1.88c0-5.72,4.64-10.37,10.37-10.37h13.19
						c5.72,0,10.37,4.64,10.37,10.37v1.88C374.46,107.08,369.82,111.72,364.1,111.72z"/>
					<g>
						<polyline class="st0" points="307.36,70.55 307.36,95.31 323.48,111.43 						"/>
						<polyline class="st0" points="407.64,70.55 407.64,95.31 391.52,111.43 						"/>
					</g>
					<g>
						<polyline class="st0" points="347.79,71.02 347.79,80.75 354.12,87.08 						"/>
						<polyline class="st0" points="367.21,71.02 367.21,80.75 360.88,87.08 						"/>
					</g>
					<g>
						<polyline class="st0" points="391.64,166.54 413.13,180.78 413.13,202.64 424.97,214.48 						"/>
						<polyline class="st0" points="323.36,166.54 301.87,180.78 301.87,202.64 290.03,214.48 						"/>
					</g>
				</g>
			</g>
			<g>
				<g>
					<path class="st0" d="M145.33,192.13h-5.65c-17.17,0-31.1-13.92-31.1-31.1v-49.31h67.85v49.31
						C176.42,178.21,162.5,192.13,145.33,192.13z"/>
					<g>
						<g>
							<path class="st0" d="M142.61,192.13v-38.82c0-7.7,6.25-13.95,13.95-13.95l38.74,0l15.08,15.08"/>
						</g>
						<g>
							<path class="st0" d="M142.39,192.13v-38.82c0-7.7-6.25-13.95-13.95-13.95l-38.74,0l-15.08,15.08"/>
						</g>
					</g>
					<path class="st0" d="M149.1,111.72H135.9c-5.72,0-10.37-4.64-10.37-10.37v-1.88c0-5.72,4.64-10.37,10.37-10.37h13.19
						c5.72,0,10.37,4.64,10.37,10.37v1.88C159.46,107.08,154.82,111.72,149.1,111.72z"/>
					<g>
						<polyline class="st0" points="92.36,70.55 92.36,95.31 108.48,111.43 						"/>
						<polyline class="st0" points="192.64,70.55 192.64,95.31 176.52,111.43 						"/>
					</g>
					<g>
						<polyline class="st0" points="132.79,71.02 132.79,80.75 139.12,87.08 						"/>
						<polyline class="st0" points="152.21,71.02 152.21,80.75 145.88,87.08 						"/>
					</g>
					<g>
						<polyline class="st0" points="176.64,166.54 198.13,180.78 198.13,202.64 209.97,214.48 						"/>
						<polyline class="st0" points="108.36,166.54 86.87,180.78 86.87,202.64 75.03,214.48 						"/>
					</g>
				</g>
			</g>
		</g>
	</g>
</g>
<g id="Text" class="st1">
</g>
</svg>
