<?xml version="1.0" encoding="utf-8"?>
<!-- Generator: Adobe Illustrator 24.1.0, SVG Export Plug-In . SVG Version: 6.00 Build 0)  -->
<svg version="1.1" xmlns="http://www.w3.org/2000/svg" xmlns:xlink="http://www.w3.org/1999/xlink" x="0px" y="0px"
	 viewBox="0 0 500 500" style="enable-background:new 0 0 500 500;" xml:space="preserve">
<style type="text/css">
	.st0{fill:none;stroke:#000000;stroke-width:16;stroke-miterlimit:10;}
	.st1{display:none;}
	.st2{display:inline;}
	.st3{fill:none;stroke:#D1D3D4;stroke-width:2;stroke-miterlimit:10;}
	.st4{display:inline;fill:none;stroke:#BCBEC0;stroke-width:4;stroke-miterlimit:10;}
	.st5{fill:none;stroke:#BCBEC0;stroke-width:4;stroke-miterlimit:10;}
	.st6{display:inline;fill:none;stroke:#D1D3D4;stroke-width:2;stroke-miterlimit:10;}
	.st7{display:none;opacity:0.35;fill:none;stroke:#000000;stroke-width:16;stroke-miterlimit:10;}
	.st8{fill:none;stroke:#000000;stroke-width:16;stroke-linejoin:bevel;stroke-miterlimit:10;}
	.st9{fill:none;stroke:#000000;stroke-width:16;stroke-linecap:square;stroke-miterlimit:10;}
	.st10{fill:none;stroke:#000000;stroke-width:16;stroke-linecap:round;stroke-miterlimit:10;}
	.st11{fill:none;stroke:#000000;stroke-width:8;stroke-miterlimit:10;}
</style>
<g id="Icons">
	<g>
		<path class="st0" d="M234.59,137.94L234.59,137.94c-7.98,70.16-8.01,152.99-0.09,223.15l0.1,0.87c0,38.77-31.43,70.2-70.2,70.2h0
			c-38.77,0-70.21-31.43-70.21-70.21l0.1-0.86c7.91-70.16,7.88-152.99-0.1-223.15l0,0c0-38.78,31.44-70.21,70.22-70.2h0
			C203.17,67.75,234.59,99.18,234.59,137.94z"/>
		<path class="st0" d="M200.57,189.31L200.57,189.31c-4.11,36.16-4.13,84.66-0.05,120.82l0.05,0.45c0,19.98-16.2,36.18-36.18,36.18
			h0c-19.98,0-36.18-16.2-36.18-36.18l0.05-0.45c4.08-36.16,4.06-84.66-0.05-120.82l0,0c0-19.99,16.21-36.19,36.19-36.18h0
			C184.38,153.14,200.57,169.34,200.57,189.31z"/>
		<path class="st0" d="M100.58,301.8H72.08c-8.67,0-15.71-7.03-15.71-15.71v-73.18c0-8.67,7.03-15.71,15.71-15.71h28.51"/>
		<path class="st0" d="M228.2,197.21h28.51c8.67,0,15.71,7.03,15.71,15.71v73.18c0,8.67-7.03,15.71-15.71,15.71H228.2"/>
		<g>
			<path class="st0" d="M414.1,316.65l-1.72,42.88c-2.2,21.3-20.15,37.49-41.56,37.49h0c-21.41,0-39.36-16.19-41.56-37.49
				l-1.72-42.88"/>
			<path class="st0" d="M415.6,316.65h-89.57c-4.86,0-8.8-3.94-8.8-8.8v-2c0-4.86,3.94-8.8,8.8-8.8h89.57c4.86,0,8.8,3.94,8.8,8.8v2
				C424.4,312.71,420.46,316.65,415.6,316.65z"/>
			<line class="st10" x1="370.81" y1="400.08" x2="370.81" y2="432.26"/>
			<path class="st0" d="M366.81,189.03L366.81,189.03c-12.14,0-21.99-9.84-21.99-21.99V90.23c0-12.14,9.84-21.99,21.99-21.99h0
				c12.14,0,21.99,9.84,21.99,21.99v76.81C388.8,179.18,378.96,189.03,366.81,189.03z"/>
		</g>
		<path class="st0" d="M363.81,189.03c7.59,7.59,7.59,19.9,0,27.49l0,0c-7.59,7.59-7.59,19.9,0,27.49l0,0
			c7.59,7.59,7.59,19.9,0,27.49"/>
	</g>
</g>
<g id="Text" class="st1">
</g>
</svg>
