<?xml version="1.0" encoding="utf-8"?>
<!-- Generator: Adobe Illustrator 24.1.0, SVG Export Plug-In . SVG Version: 6.00 Build 0)  -->
<svg version="1.1" xmlns="http://www.w3.org/2000/svg" xmlns:xlink="http://www.w3.org/1999/xlink" x="0px" y="0px"
	 viewBox="0 0 500 500" style="enable-background:new 0 0 500 500;" xml:space="preserve">
<style type="text/css">
	.st0{fill:none;stroke:#000000;stroke-width:16;stroke-miterlimit:10;}
	.st1{display:none;}
	.st2{display:inline;}
	.st3{fill:none;stroke:#D1D3D4;stroke-width:2;stroke-miterlimit:10;}
	.st4{display:inline;fill:none;stroke:#BCBEC0;stroke-width:4;stroke-miterlimit:10;}
	.st5{fill:none;stroke:#BCBEC0;stroke-width:4;stroke-miterlimit:10;}
	.st6{display:inline;fill:none;stroke:#D1D3D4;stroke-width:2;stroke-miterlimit:10;}
	.st7{display:none;opacity:0.35;fill:none;stroke:#000000;stroke-width:16;stroke-miterlimit:10;}
	.st8{fill:none;stroke:#000000;stroke-width:16;stroke-linejoin:bevel;stroke-miterlimit:10;}
	.st9{fill:none;stroke:#000000;stroke-width:16;stroke-linecap:square;stroke-miterlimit:10;}
	.st10{fill:none;stroke:#000000;stroke-width:16;stroke-linecap:round;stroke-miterlimit:10;}
	.st11{fill:none;stroke:#000000;stroke-width:8;stroke-miterlimit:10;}
</style>
<g id="Icons">
	<g>
		<polygon class="st0" points="336.56,296.98 277.08,305.9 364.67,386.3 367.85,336.17 		"/>
		<polygon class="st0" points="376.01,278.82 321.81,278.52 377,347.63 387.73,299.12 		"/>
		<polygon class="st0" points="414.64,272.31 368.03,265 397.67,316.33 		"/>
		<polygon class="st0" points="253.79,72.94 208.66,86.68 257.71,119.95 		"/>
		<polygon class="st0" points="191.02,129.45 131.3,147.63 229.69,214.37 224.5,152.16 		"/>
		<polygon class="st0" points="226.86,99.02 171.16,115.98 244.35,165.63 239.51,107.6 		"/>
		<circle class="st0" cx="147.53" cy="229.6" r="11.92"/>
		<circle class="st0" cx="373.83" cy="229.6" r="11.92"/>
		<path class="st0" d="M109.27,132.42L231.7,254.85c15.31,15.31,19.65,37.44,13.01,56.62c-5.3,15.3-1.47,32.27,9.98,43.72
			l65.27,65.27"/>
		<path class="st0" d="M249.45,293.44l54.63,54.63c12.76,12.76,12.76,33.46,0,46.22l0,0"/>
		<path class="st0" d="M89.12,341.02c6.85,6.85,77.28,81.56,77.28,81.56c5.98,5.98,15.66,5.98,21.64,0c5.98-5.98,5.98-15.66,0-21.64
			c-2.62-2.62-7.87-5.71-7.16-6.43c12.13-12.13,12.13-31.8,0-43.93c-0.19-0.19-0.38-0.36-0.57-0.54
			c14.4-19.69,12.71-47.47-5.07-65.26c-19.65-19.65-51.52-19.65-71.18,0"/>
		<path class="st0" d="M251.49,399.85c5.98-5.98,15.67-5.98,21.64,0c5.98,5.98,5.98,15.67,0,21.64c-5.98,5.98-15.67,5.98-21.64,0
			l-66.1-66.1"/>
		<path class="st0" d="M132.13,350.11c9.96-9.96,9.96-26.12,0-36.09c-6.42-6.42-15.42-8.7-23.67-6.84
			c1.86-8.25-0.42-17.24-6.84-23.67c-9.96-9.96-26.12-9.96-36.09,0"/>
		<circle class="st0" cx="122.97" cy="98.92" r="11.92"/>
		<circle class="st0" cx="413.86" cy="395.92" r="11.92"/>
		<circle class="st0" cx="96.5" cy="190.44" r="17.87"/>
		<circle class="st0" cx="291.68" cy="129.45" r="11.92"/>
		<circle class="st0" cx="284.46" cy="233.3" r="31.06"/>
	</g>
</g>
<g id="Text" class="st1">
</g>
</svg>
