<?xml version="1.0" encoding="utf-8"?>
<!-- Generator: Adobe Illustrator 24.1.0, SVG Export Plug-In . SVG Version: 6.00 Build 0)  -->
<svg version="1.1" xmlns="http://www.w3.org/2000/svg" xmlns:xlink="http://www.w3.org/1999/xlink" x="0px" y="0px"
	 viewBox="0 0 500 500" style="enable-background:new 0 0 500 500;" xml:space="preserve">
<style type="text/css">
	.st0{fill:none;stroke:#000000;stroke-width:16;stroke-miterlimit:10;}
	.st1{display:none;}
	.st2{display:inline;}
	.st3{fill:none;stroke:#D1D3D4;stroke-width:2;stroke-miterlimit:10;}
	.st4{display:inline;fill:none;stroke:#BCBEC0;stroke-width:4;stroke-miterlimit:10;}
	.st5{fill:none;stroke:#BCBEC0;stroke-width:4;stroke-miterlimit:10;}
	.st6{display:inline;fill:none;stroke:#D1D3D4;stroke-width:2;stroke-miterlimit:10;}
	.st7{display:none;opacity:0.35;fill:none;stroke:#000000;stroke-width:16;stroke-miterlimit:10;}
	.st8{fill:none;stroke:#000000;stroke-width:16;stroke-linejoin:bevel;stroke-miterlimit:10;}
	.st9{fill:none;stroke:#000000;stroke-width:16;stroke-linecap:square;stroke-miterlimit:10;}
	.st10{fill:none;stroke:#000000;stroke-width:16;stroke-linecap:round;stroke-miterlimit:10;}
	.st11{fill:none;stroke:#000000;stroke-width:8;stroke-miterlimit:10;}
</style>
<g id="Icons">
	<g>
		<g>
			<path class="st0" d="M365.87,214.02l5.09,0.49c30.94,2.97,57.14,24.1,66.58,53.72v0c1.29,4.05-1.73,8.18-5.97,8.18h-57.79
				c-14.62,0-26.48-11.85-26.48-26.48v0"/>
			<path class="st0" d="M170.1,276.4h-22.12c-22.49,0-41.03-17.63-42.16-40.09l0,0c2.74-22.78,15.09-43.29,33.93-56.37l8.06-5.6
				c56.19-36.65,127.3-28.32,175.4,20.53l9.42,9.56"/>
			<path class="st0" d="M162.92,273.16L162.92,273.16c3.83,6.21,10.6,9.99,17.9,9.99h20.65c15.77,0,28.55,8.85,28.55,19.77"/>
			<path class="st0" d="M332.92,188.52c10.09-5.07,31.52,8.48,32.04,27.99c0.27,10.24-26.62,6.73-28.04-0.08
				C335.5,209.62,323.74,193.13,332.92,188.52z"/>
			<path class="st0" d="M221.58,348.37H120.77c-32.38,0-58.62-26.25-58.62-58.62v0c0-27.38,18.78-50.38,44.15-56.82"/>
			<path class="st0" d="M146.11,214.02c0,0,30.74,0.16,45.84,17.11c0.32,0.36,0.63,0.72,0.94,1.08
				c11.63,13.84,5.66,35.12-11.31,41.33c-5.26,1.92-11.72,3.22-19.32,2.87"/>
			<path class="st0" d="M366.98,302.93c0-10.92-12.78-19.77-28.55-19.77h-20.65c-7.3,0-14.07-3.78-17.9-9.99v0l-11.92-7.31
				c-14.32-8.79-30.8-13.44-47.6-13.44h0c-12.39,0-24.65,2.53-36.02,7.43l-10.59,4.56"/>
			<path class="st0" d="M286.52,232.67c0,0,19.44,10.96,23.03,27.04c0.08,0.34,0.15,0.68,0.21,1.02
				c2.49,12.88,3.27,18.48,15.26,22.46"/>
		</g>
	</g>
</g>
<g id="Text" class="st1">
</g>
</svg>
