<?xml version="1.0" encoding="utf-8"?>
<!-- Generator: Adobe Illustrator 24.1.0, SVG Export Plug-In . SVG Version: 6.00 Build 0)  -->
<svg version="1.1" xmlns="http://www.w3.org/2000/svg" xmlns:xlink="http://www.w3.org/1999/xlink" x="0px" y="0px"
	 viewBox="0 0 500 500" style="enable-background:new 0 0 500 500;" xml:space="preserve">
<style type="text/css">
	.st0{fill:none;stroke:#000000;stroke-width:16;stroke-miterlimit:10;}
	.st1{display:none;}
	.st2{display:inline;}
	.st3{fill:none;stroke:#D1D3D4;stroke-width:2;stroke-miterlimit:10;}
	.st4{display:inline;fill:none;stroke:#BCBEC0;stroke-width:4;stroke-miterlimit:10;}
	.st5{fill:none;stroke:#BCBEC0;stroke-width:4;stroke-miterlimit:10;}
	.st6{display:inline;fill:none;stroke:#D1D3D4;stroke-width:2;stroke-miterlimit:10;}
	.st7{display:none;opacity:0.35;fill:none;stroke:#000000;stroke-width:16;stroke-miterlimit:10;}
	.st8{fill:none;stroke:#000000;stroke-width:16;stroke-linejoin:bevel;stroke-miterlimit:10;}
	.st9{fill:none;stroke:#000000;stroke-width:16;stroke-linecap:square;stroke-miterlimit:10;}
	.st10{fill:none;stroke:#000000;stroke-width:16;stroke-linecap:round;stroke-miterlimit:10;}
	.st11{fill:none;stroke:#000000;stroke-width:8;stroke-miterlimit:10;}
</style>
<g id="Icons">
	<g>
		<g>
			<g>
				<g>
					<g>
						<path class="st0" d="M396.72,450.4l-16.58-44.12c-1.81-4.82-0.98-10.23,2.2-14.28l47.3-60.4c2.86-3.65,4.19-8.26,3.73-12.87
							l-5.67-56.2l-30.61-74.85c-2.96-8.4-12.17-12.81-20.57-9.85s-12.81,12.17-9.85,20.57l24.29,68.46"/>
						<path class="st0" d="M377.4,350.02l28.28-83.31h0c-13.35-4.45-27.82,2.54-32.64,15.76l-11.19,30.74l-24.78,18.62
							c-24.07,18.09-33.19,49.98-22.31,78.06l17.62,45.49"/>
					</g>
					<g>
						<path class="st0" d="M103.28,450.4l16.58-44.12c1.81-4.82,0.98-10.23-2.2-14.28l-47.3-60.4c-2.86-3.65-4.19-8.26-3.73-12.87
							l5.67-56.2l30.61-74.85c2.96-8.4,12.17-12.81,20.57-9.85s12.81,12.17,9.85,20.57l-24.29,68.46"/>
						<path class="st0" d="M122.6,350.02l-28.28-83.31h0c13.35-4.45,27.82,2.54,32.64,15.76l11.19,30.74l24.78,18.62
							c24.07,18.09,33.19,49.98,22.31,78.06l-17.62,45.49"/>
					</g>
				</g>
			</g>
			<g>
				<polygon class="st0" points="173.3,266.42 173.3,171.87 326.7,171.87 326.7,266.75 				"/>
				<polyline class="st9" points="175.58,162.26 200.14,117.63 299.86,117.63 324.42,162.26 				"/>
				<g>
					<rect x="202.67" y="198.68" class="st0" width="31.55" height="40.98"/>
					<rect x="265.78" y="198.68" class="st0" width="31.55" height="40.98"/>
				</g>
			</g>
		</g>
		<path class="st0" d="M370.01,86.11C336.98,60.11,295.3,44.6,250,44.6c-45.3,0-86.98,15.51-120.01,41.5"/>
	</g>
</g>
<g id="Text" class="st1">
</g>
</svg>
