<?xml version="1.0" encoding="utf-8"?>
<!-- Generator: Adobe Illustrator 24.1.0, SVG Export Plug-In . SVG Version: 6.00 Build 0)  -->
<svg version="1.1" xmlns="http://www.w3.org/2000/svg" xmlns:xlink="http://www.w3.org/1999/xlink" x="0px" y="0px"
	 viewBox="0 0 500 500" style="enable-background:new 0 0 500 500;" xml:space="preserve">
<style type="text/css">
	.st0{fill:none;stroke:#000000;stroke-width:16;stroke-miterlimit:10;}
	.st1{display:none;}
	.st2{display:inline;}
	.st3{fill:none;stroke:#D1D3D4;stroke-width:2;stroke-miterlimit:10;}
	.st4{display:inline;fill:none;stroke:#BCBEC0;stroke-width:4;stroke-miterlimit:10;}
	.st5{fill:none;stroke:#BCBEC0;stroke-width:4;stroke-miterlimit:10;}
	.st6{display:inline;fill:none;stroke:#D1D3D4;stroke-width:2;stroke-miterlimit:10;}
	.st7{display:none;opacity:0.35;fill:none;stroke:#000000;stroke-width:16;stroke-miterlimit:10;}
	.st8{fill:none;stroke:#000000;stroke-width:16;stroke-linejoin:bevel;stroke-miterlimit:10;}
	.st9{fill:none;stroke:#000000;stroke-width:16;stroke-linecap:square;stroke-miterlimit:10;}
	.st10{fill:none;stroke:#000000;stroke-width:16;stroke-linecap:round;stroke-miterlimit:10;}
	.st11{fill:none;stroke:#000000;stroke-width:8;stroke-miterlimit:10;}
</style>
<g id="Icons">
	<g>
		<line class="st0" x1="181.33" y1="74.07" x2="181.33" y2="133.14"/>
		<line class="st0" x1="216.1" y1="74.07" x2="216.1" y2="133.14"/>
		<line class="st0" x1="181.33" y1="343.72" x2="181.33" y2="425.93"/>
		<line class="st0" x1="216.1" y1="369.94" x2="216.1" y2="425.93"/>
		<line class="st0" x1="270.27" y1="74.37" x2="270.27" y2="117.08"/>
		<line class="st0" x1="292.92" y1="74.37" x2="292.92" y2="117.08"/>
		<line class="st0" x1="317.68" y1="74.37" x2="317.68" y2="117.08"/>
		<line class="st0" x1="74.81" y1="244.55" x2="117.51" y2="244.55"/>
		<line class="st0" x1="74.81" y1="220.84" x2="117.51" y2="220.84"/>
		<line class="st0" x1="74.81" y1="197.14" x2="117.51" y2="197.14"/>
		<line class="st0" x1="400.89" y1="244.55" x2="425.19" y2="244.55"/>
		<line class="st0" x1="393.65" y1="220.84" x2="425.19" y2="220.84"/>
		<line class="st0" x1="393.65" y1="197.14" x2="425.19" y2="197.14"/>
		<line class="st0" x1="340.33" y1="74.37" x2="340.33" y2="117.08"/>
		<polyline class="st0" points="170.6,277.92 189.32,299.26 216.77,304.49 		"/>
		<line class="st0" x1="204.11" y1="334.41" x2="189.32" y2="299.26"/>
		<polyline class="st0" points="367.03,236.52 367.03,275.27 343.04,322.84 		"/>
		<line class="st0" x1="371.63" y1="327.96" x2="359.46" y2="290.27"/>
		<path class="st0" d="M141.19,295.2c17.4-7.82,33.23-18.74,46.72-32.23l10.02-10.02c24.11-24.11,37.65-56.8,37.65-90.89v0
			c0-24.73,20.25-44.67,44.98-44.29l57.72,0.88c25.38,0.39,45.75,21.07,45.75,46.45v4.75"/>
		<path class="st0" d="M400.89,237.52h-41.37c-22.86,0-44.97-8.17-62.34-23.03l-13.55-11.6c-7.84-6.71-12.36-16.52-12.36-26.84
			v-0.49c0-19.51,15.82-35.33,35.33-35.33h29.31h0c26.08,2.45,47.64,21.36,53.47,46.9L400.89,237.52z"/>
		<path class="st0" d="M243.45,136.85H190.4c-38.8,0-70.25,31.45-70.25,70.25v14.39c0,27.35,7.43,54.18,21.5,77.63l0,0
			c9.57,15.95,22.01,30,36.69,41.43l80.52,62.69c8.19,6.37,17.61,10.97,27.68,13.5l0,0c22.99,5.78,47.37,0.31,65.68-14.76l5.4-4.44
			c11.35-9.34,19.69-21.81,23.99-35.87l8.16-26.71c9.63-31.53,13.41-64.55,11.13-97.44v0"/>
	</g>
</g>
<g id="Text" class="st1">
</g>
</svg>
