<?xml version="1.0" encoding="utf-8"?>
<!-- Generator: Adobe Illustrator 24.1.0, SVG Export Plug-In . SVG Version: 6.00 Build 0)  -->
<svg version="1.1" xmlns="http://www.w3.org/2000/svg" xmlns:xlink="http://www.w3.org/1999/xlink" x="0px" y="0px"
	 viewBox="0 0 500 500" style="enable-background:new 0 0 500 500;" xml:space="preserve">
<style type="text/css">
	.st0{fill:none;stroke:#000000;stroke-width:16;stroke-miterlimit:10;}
	.st1{display:none;}
	.st2{display:inline;}
	.st3{fill:none;stroke:#D1D3D4;stroke-width:2;stroke-miterlimit:10;}
	.st4{display:inline;fill:none;stroke:#BCBEC0;stroke-width:4;stroke-miterlimit:10;}
	.st5{fill:none;stroke:#BCBEC0;stroke-width:4;stroke-miterlimit:10;}
	.st6{display:inline;fill:none;stroke:#D1D3D4;stroke-width:2;stroke-miterlimit:10;}
	.st7{display:none;opacity:0.35;fill:none;stroke:#000000;stroke-width:16;stroke-miterlimit:10;}
	.st8{fill:none;stroke:#000000;stroke-width:16;stroke-linejoin:bevel;stroke-miterlimit:10;}
	.st9{fill:none;stroke:#000000;stroke-width:16;stroke-linecap:square;stroke-miterlimit:10;}
	.st10{fill:none;stroke:#000000;stroke-width:16;stroke-linecap:round;stroke-miterlimit:10;}
	.st11{fill:none;stroke:#000000;stroke-width:8;stroke-miterlimit:10;}
</style>
<g id="Icons">
	<g>
		<path class="st0" d="M80.95,258.88V131.64c0-26.29,21.31-47.6,47.6-47.6h251.86v144.94"/>
		<polygon class="st0" points="369.22,141.96 321.96,141.96 321.96,94.71 		"/>
		<path class="st0" d="M380.43,143.24L380.43,143.24c25.66,0,46.45,20.8,46.45,46.45v110.32"/>
		<path class="st0" d="M380.42,300.66H128.6c-26.54,0-48.05-21.51-48.05-48.05v0c0-26.54,21.51-48.05,48.05-48.05H356
			c13.48,0,24.41,10.93,24.41,24.41v0c0,13.48-10.93,24.41-24.41,24.41h-23.17"/>
		<path class="st0" d="M134.8,253.21h245.28c25.85,0,46.8,20.95,46.8,46.8v0c0,25.85-20.95,46.8-46.8,46.8H134.8l221.2,0.32
			c13.48,0,24.41,10.93,24.41,24.41v0c0,13.48-10.93,24.41-24.41,24.41H128.6c-26.54,0-48.05-21.51-48.05-48.05v0
			c0-26.54,21.51-48.05,48.05-48.05h251.82"/>
	</g>
</g>
<g id="Text" class="st1">
</g>
</svg>
