<?xml version="1.0" encoding="utf-8"?>
<!-- Generator: Adobe Illustrator 24.1.0, SVG Export Plug-In . SVG Version: 6.00 Build 0)  -->
<svg version="1.1" xmlns="http://www.w3.org/2000/svg" xmlns:xlink="http://www.w3.org/1999/xlink" x="0px" y="0px"
	 viewBox="0 0 500 500" style="enable-background:new 0 0 500 500;" xml:space="preserve">
<style type="text/css">
	.st0{fill:none;stroke:#000000;stroke-width:16;stroke-miterlimit:10;}
	.st1{display:none;}
	.st2{display:inline;}
	.st3{fill:none;stroke:#D1D3D4;stroke-width:2;stroke-miterlimit:10;}
	.st4{display:inline;fill:none;stroke:#BCBEC0;stroke-width:4;stroke-miterlimit:10;}
	.st5{fill:none;stroke:#BCBEC0;stroke-width:4;stroke-miterlimit:10;}
	.st6{display:inline;fill:none;stroke:#D1D3D4;stroke-width:2;stroke-miterlimit:10;}
	.st7{display:none;opacity:0.35;fill:none;stroke:#000000;stroke-width:16;stroke-miterlimit:10;}
	.st8{fill:none;stroke:#000000;stroke-width:16;stroke-linejoin:bevel;stroke-miterlimit:10;}
	.st9{fill:none;stroke:#000000;stroke-width:16;stroke-linecap:square;stroke-miterlimit:10;}
	.st10{fill:none;stroke:#000000;stroke-width:16;stroke-linecap:round;stroke-miterlimit:10;}
	.st11{fill:none;stroke:#000000;stroke-width:8;stroke-miterlimit:10;}
</style>
<g id="Icons">
	<g class="st1">
		<g class="st2">
			<line class="st3" x1="9" y1="7" x2="9" y2="583"/>
			<line class="st3" x1="21" y1="7" x2="21" y2="583"/>
		</g>
		<g class="st2">
			<line class="st3" x1="-543" y1="499" x2="33" y2="499"/>
			<line class="st3" x1="-543" y1="487" x2="33" y2="487"/>
			<line class="st3" x1="-543" y1="475" x2="33" y2="475"/>
			<line class="st3" x1="-543" y1="463" x2="33" y2="463"/>
			<line class="st3" x1="-543" y1="451" x2="33" y2="451"/>
			<line class="st3" x1="-543" y1="439" x2="33" y2="439"/>
			<line class="st3" x1="-543" y1="427" x2="33" y2="427"/>
			<line class="st3" x1="-543" y1="415" x2="33" y2="415"/>
			<line class="st3" x1="-543" y1="403" x2="33" y2="403"/>
			<line class="st3" x1="-543" y1="391" x2="33" y2="391"/>
			<line class="st3" x1="-543" y1="379" x2="33" y2="379"/>
			<line class="st3" x1="-543" y1="367" x2="33" y2="367"/>
			<line class="st3" x1="-543" y1="355" x2="33" y2="355"/>
			<line class="st3" x1="-543" y1="343" x2="33" y2="343"/>
			<line class="st3" x1="-543" y1="331" x2="33" y2="331"/>
			<line class="st3" x1="-543" y1="319" x2="33" y2="319"/>
			<line class="st3" x1="-543" y1="307" x2="33" y2="307"/>
			<line class="st3" x1="-543" y1="295" x2="33" y2="295"/>
			<line class="st3" x1="-543" y1="283" x2="33" y2="283"/>
			<line class="st3" x1="-543" y1="271" x2="33" y2="271"/>
			<line class="st3" x1="-543" y1="259" x2="33" y2="259"/>
			<line class="st3" x1="-543" y1="247" x2="33" y2="247"/>
			<line class="st3" x1="-543" y1="235" x2="33" y2="235"/>
			<line class="st3" x1="-543" y1="223" x2="33" y2="223"/>
			<line class="st3" x1="-543" y1="211" x2="33" y2="211"/>
			<line class="st3" x1="-543" y1="199" x2="33" y2="199"/>
			<line class="st3" x1="-543" y1="187" x2="33" y2="187"/>
			<line class="st3" x1="-543" y1="175" x2="33" y2="175"/>
			<line class="st3" x1="-543" y1="163" x2="33" y2="163"/>
			<line class="st3" x1="-543" y1="151" x2="33" y2="151"/>
			<line class="st3" x1="-543" y1="139" x2="33" y2="139"/>
			<line class="st3" x1="-543" y1="127" x2="33" y2="127"/>
			<line class="st3" x1="-543" y1="115" x2="33" y2="115"/>
			<line class="st3" x1="-543" y1="103" x2="33" y2="103"/>
			<line class="st3" x1="-543" y1="91" x2="33" y2="91"/>
			<line class="st3" x1="-543" y1="79" x2="33" y2="79"/>
			<line class="st3" x1="-543" y1="67" x2="33" y2="67"/>
			<line class="st3" x1="-543" y1="55" x2="33" y2="55"/>
			<line class="st3" x1="-543" y1="43" x2="33" y2="43"/>
			<line class="st3" x1="-543" y1="31" x2="33" y2="31"/>
			<line class="st3" x1="-543" y1="19" x2="33" y2="19"/>
		</g>
		<rect x="-543" y="6" class="st4" width="576" height="576"/>
	</g>
	<g>
		<g>
			<g>
				<rect x="110.45" y="119.72" class="st0" width="35.98" height="46.91"/>
			</g>
			<g>
				<rect x="110.45" y="207.2" class="st0" width="35.98" height="46.91"/>
			</g>
			<g>
				<polyline class="st0" points="146.43,341.59 110.45,341.59 110.45,294.68 149.43,294.68 				"/>
			</g>
		</g>
		<g>
			<path class="st0" d="M405.29,241.67c-11.4-6.99-26.3-3.42-33.29,7.98c-2.39,3.89-3.54,8.2-3.57,12.45
				c-11.23-5.61-25.09-1.8-31.77,9.1c-7.07,11.52-3.46,26.59,8.06,33.65c3.9,2.39,8.21,3.56,12.47,3.61
				c1.39,8.83,6.49,17.02,14.71,22.06c14.9,9.14,34.39,4.47,43.53-10.43c2.64-4.31,4.12-9,4.54-13.71
				c7.55-1.17,14.56-5.51,18.87-12.53c7.78-12.68,3.8-29.27-8.88-37.05c-4.7-2.88-9.93-4.15-15.05-3.96
				C413.01,248.36,409.76,244.41,405.29,241.67z"/>
			<line class="st0" x1="404.01" y1="268.86" x2="331.77" y2="386.35"/>
			<line class="st0" x1="372.97" y1="276.85" x2="372.8" y2="319.63"/>
			<line class="st0" x1="413.98" y1="285.11" x2="385.71" y2="299.57"/>
		</g>
		<line class="st0" x1="40.42" y1="386.79" x2="459.58" y2="386.79"/>
		<g>
			<g>
				<rect x="110.45" y="119.72" class="st0" width="35.98" height="46.91"/>
			</g>
			<g>
				<rect x="110.45" y="207.2" class="st0" width="35.98" height="46.91"/>
			</g>
			<g>
				<polyline class="st0" points="146.43,341.59 110.45,341.59 110.45,294.68 149.43,294.68 				"/>
			</g>
			<polyline class="st0" points="72.37,383.44 72.37,78.29 157.42,78.29 200.41,146.9 164.42,187.55 189.7,227.84 142.14,272.48 
				157.42,302.83 133.43,362.8 164.42,383.44 			"/>
		</g>
		<g>
			<g>
				<polyline class="st0" points="288.66,137.07 322.6,149.02 307.01,193.27 273.07,181.32 				"/>
			</g>
			<g>
				<polyline class="st0" points="254.25,217.69 293.53,231.53 277.95,275.78 244.01,263.83 250.47,245.49 				"/>
			</g>
			<g>
				
					<rect x="221.71" y="306.73" transform="matrix(0.9432 0.3323 -0.3323 0.9432 123.3293 -60.8863)" class="st0" width="35.98" height="46.91"/>
			</g>
			<polyline class="st0" points="280.37,386.79 373.31,122.96 278.85,89.68 296.6,168.69 249.16,195.07 259.6,241.47 199.92,267.77 
				204.24,301.47 161.69,350.06 198.5,383.44 173.84,421.71 165.7,421.71 164.42,383.44 			"/>
		</g>
	</g>
</g>
<g id="Text" class="st1">
</g>
</svg>
