<?xml version="1.0" encoding="utf-8"?>
<!-- Generator: Adobe Illustrator 24.1.0, SVG Export Plug-In . SVG Version: 6.00 Build 0)  -->
<svg version="1.1" xmlns="http://www.w3.org/2000/svg" xmlns:xlink="http://www.w3.org/1999/xlink" x="0px" y="0px"
	 viewBox="0 0 500 500" style="enable-background:new 0 0 500 500;" xml:space="preserve">
<style type="text/css">
	.st0{fill:none;stroke:#000000;stroke-width:16;stroke-miterlimit:10;}
	.st1{display:none;}
	.st2{display:inline;}
	.st3{fill:none;stroke:#D1D3D4;stroke-width:2;stroke-miterlimit:10;}
	.st4{display:inline;fill:none;stroke:#BCBEC0;stroke-width:4;stroke-miterlimit:10;}
	.st5{fill:none;stroke:#BCBEC0;stroke-width:4;stroke-miterlimit:10;}
	.st6{display:inline;fill:none;stroke:#D1D3D4;stroke-width:2;stroke-miterlimit:10;}
	.st7{display:none;opacity:0.35;fill:none;stroke:#000000;stroke-width:16;stroke-miterlimit:10;}
	.st8{fill:none;stroke:#000000;stroke-width:16;stroke-linejoin:bevel;stroke-miterlimit:10;}
	.st9{fill:none;stroke:#000000;stroke-width:16;stroke-linecap:square;stroke-miterlimit:10;}
	.st10{fill:none;stroke:#000000;stroke-width:16;stroke-linecap:round;stroke-miterlimit:10;}
	.st11{fill:none;stroke:#000000;stroke-width:8;stroke-miterlimit:10;}
</style>
<g id="Icons">
	<g>
		<circle class="st0" cx="250" cy="249.43" r="166.64"/>
		<g>
			<g>
				<g>
					<line class="st0" x1="219.69" y1="453.9" x2="280.31" y2="453.9"/>
					<line class="st0" x1="250.16" y1="453.9" x2="250.16" y2="416.13"/>
				</g>
				<g>
					<line class="st0" x1="280.31" y1="46.1" x2="219.69" y2="46.1"/>
					<line class="st0" x1="250" y1="46.1" x2="250" y2="83.87"/>
				</g>
			</g>
			<g>
				<g>
					<line class="st0" x1="453.9" y1="280.31" x2="453.9" y2="219.69"/>
					<line class="st0" x1="453.9" y1="249.84" x2="416.13" y2="249.84"/>
				</g>
				<g>
					<line class="st0" x1="46.1" y1="219.69" x2="46.1" y2="280.31"/>
					<line class="st0" x1="46.1" y1="250" x2="83.87" y2="250"/>
				</g>
			</g>
			<g>
				<g>
					<line class="st0" x1="372.75" y1="415.61" x2="415.61" y2="372.75"/>
					<line class="st0" x1="394.3" y1="394.06" x2="367.59" y2="367.35"/>
				</g>
				<g>
					<line class="st0" x1="127.25" y1="84.39" x2="84.39" y2="127.25"/>
					<line class="st0" x1="105.82" y1="105.82" x2="132.53" y2="132.53"/>
				</g>
			</g>
			<g>
				<g>
					<line class="st0" x1="415.61" y1="127.25" x2="372.75" y2="84.39"/>
					<line class="st0" x1="394.06" y1="105.7" x2="367.35" y2="132.41"/>
				</g>
				<g>
					<line class="st0" x1="84.39" y1="372.75" x2="127.25" y2="415.61"/>
					<line class="st0" x1="105.82" y1="394.18" x2="132.53" y2="367.47"/>
				</g>
			</g>
			<g>
				<g>
					<line class="st0" x1="299.22" y1="450.18" x2="355.32" y2="427.21"/>
					<line class="st0" x1="327.42" y1="438.63" x2="313.11" y2="403.67"/>
				</g>
				<g>
					<line class="st0" x1="200.78" y1="49.82" x2="144.68" y2="72.79"/>
					<line class="st0" x1="172.73" y1="61.31" x2="187.04" y2="96.26"/>
				</g>
			</g>
			<g>
				<g>
					<line class="st0" x1="450.18" y1="200.78" x2="427.21" y2="144.68"/>
					<line class="st0" x1="438.63" y1="172.58" x2="403.67" y2="186.89"/>
				</g>
				<g>
					<line class="st0" x1="49.82" y1="299.22" x2="72.79" y2="355.32"/>
					<line class="st0" x1="61.31" y1="327.27" x2="96.26" y2="312.96"/>
				</g>
			</g>
			<g>
				<g>
					<line class="st0" x1="426.35" y1="356.74" x2="449.78" y2="300.83"/>
					<line class="st0" x1="438.13" y1="328.63" x2="403.29" y2="314.04"/>
				</g>
				<g>
					<line class="st0" x1="73.65" y1="143.26" x2="50.22" y2="199.17"/>
					<line class="st0" x1="61.93" y1="171.21" x2="96.77" y2="185.81"/>
				</g>
			</g>
			<g>
				<g>
					<line class="st0" x1="356.74" y1="73.65" x2="300.83" y2="50.22"/>
					<line class="st0" x1="328.63" y1="61.87" x2="314.04" y2="96.71"/>
				</g>
				<g>
					<line class="st0" x1="143.26" y1="426.35" x2="199.17" y2="449.78"/>
					<line class="st0" x1="171.21" y1="438.07" x2="185.81" y2="403.23"/>
				</g>
			</g>
		</g>
		<g>
			<circle cx="250" cy="104.28" r="10.63"/>
			<circle cx="250" cy="394.12" r="10.63"/>
			<circle cx="105.08" cy="249.2" r="10.63"/>
			<circle cx="394.92" cy="249.2" r="10.63"/>
			<circle cx="147.53" cy="146.73" r="10.63"/>
			<circle cx="352.47" cy="351.67" r="10.63"/>
			<circle cx="147.53" cy="351.67" r="10.63"/>
			<circle cx="352.47" cy="146.73" r="10.63"/>
			<circle cx="195.53" cy="114.91" r="10.63"/>
			<circle cx="304.47" cy="383.49" r="10.63"/>
			<circle cx="115.71" cy="303.67" r="10.63"/>
			<circle cx="384.29" cy="194.73" r="10.63"/>
			<circle cx="116.52" cy="192.76" r="10.63"/>
			<circle cx="383.48" cy="305.64" r="10.63"/>
			<circle cx="193.56" cy="382.68" r="10.63"/>
			<circle cx="306.44" cy="115.72" r="10.63"/>
			<circle cx="231.09" cy="105.52" r="10.63"/>
			<circle cx="268.91" cy="392.88" r="10.63"/>
			<circle cx="106.32" cy="268.11" r="10.63"/>
			<circle cx="393.68" cy="230.29" r="10.63"/>
			<circle cx="135.03" cy="160.98" r="10.63"/>
			<circle cx="364.97" cy="337.42" r="10.63"/>
			<circle cx="161.78" cy="364.17" r="10.63"/>
			<circle cx="338.22" cy="134.23" r="10.63"/>
			<circle cx="178.47" cy="123.17" r="10.63"/>
			<circle cx="321.53" cy="375.23" r="10.63"/>
			<circle cx="123.97" cy="320.73" r="10.63"/>
			<circle cx="376.03" cy="177.67" r="10.63"/>
			<circle cx="110.3" cy="210.66" r="10.63"/>
			<circle cx="389.7" cy="287.74" r="10.63"/>
			<circle cx="211.46" cy="388.9" r="10.63"/>
			<circle cx="288.54" cy="109.5" r="10.63"/>
			<circle cx="212.15" cy="109.31" r="10.63"/>
			<circle cx="287.85" cy="389.09" r="10.63"/>
			<circle cx="110.11" cy="287.05" r="10.63"/>
			<circle cx="389.89" cy="211.35" r="10.63"/>
			<circle cx="124.32" cy="177.05" r="10.63"/>
			<circle cx="375.68" cy="321.35" r="10.63"/>
			<circle cx="177.85" cy="374.88" r="10.63"/>
			<circle cx="322.15" cy="123.52" r="10.63"/>
			<circle cx="162.34" cy="133.8" r="10.63"/>
			<circle cx="337.66" cy="364.6" r="10.63"/>
			<circle cx="134.6" cy="336.86" r="10.63"/>
			<circle cx="365.4" cy="161.54" r="10.63"/>
			<circle cx="106.42" cy="229.59" r="10.63"/>
			<circle cx="393.58" cy="268.81" r="10.63"/>
			<circle cx="230.39" cy="392.78" r="10.63"/>
			<circle cx="269.61" cy="105.62" r="10.63"/>
		</g>
		<g>
			<circle cx="297.62" cy="356.54" r="10.63"/>
			<circle cx="313.26" cy="342.62" r="10.63"/>
			<circle cx="321.94" cy="323.98" r="10.63"/>
			<circle cx="323.89" cy="303.67" r="10.63"/>
			<circle cx="322.83" cy="283.09" r="10.63"/>
			<circle cx="320.24" cy="262.68" r="10.63"/>
			<circle cx="316.58" cy="242.58" r="10.63"/>
			<circle cx="311.25" cy="222.79" r="10.63"/>
			<circle cx="305.27" cy="203.4" r="10.63"/>
			<circle cx="297.8" cy="184.21" r="10.63"/>
			<circle cx="288.45" cy="165.37" r="10.63"/>
			<circle cx="276.54" cy="148.55" r="10.63"/>
			<circle cx="260.39" cy="135.03" r="10.63"/>
			<circle cx="259.08" cy="365.94" r="10.63"/>
			<circle cx="278.7" cy="363.71" r="10.63"/>
			<circle cx="202.38" cy="356.54" r="10.63"/>
			<circle cx="186.74" cy="342.62" r="10.63"/>
			<circle cx="178.06" cy="323.98" r="10.63"/>
			<circle cx="176.11" cy="303.67" r="10.63"/>
			<circle cx="177.17" cy="283.09" r="10.63"/>
			<circle cx="179.76" cy="262.68" r="10.63"/>
			<circle cx="183.42" cy="242.58" r="10.63"/>
			<circle cx="188.75" cy="222.79" r="10.63"/>
			<circle cx="194.74" cy="203.4" r="10.63"/>
			<circle cx="202.2" cy="184.21" r="10.63"/>
			<circle cx="211.55" cy="165.37" r="10.63"/>
			<circle cx="223.46" cy="148.55" r="10.63"/>
			<circle cx="239.3" cy="136.09" r="10.63"/>
			<circle cx="240.92" cy="365.94" r="10.63"/>
			<circle cx="221.3" cy="363.71" r="10.63"/>
		</g>
		<g>
			<g>
				<path class="st0" d="M270.43,328.39H239.9c-5.34,0-9.67-4.33-9.67-9.67v-0.76c0-5.34,4.33-9.67,9.67-9.67h20.86
					c5.34,0,9.67-4.33,9.67-9.67v-0.76c0-5.34-4.33-9.67-9.67-9.67H239.9c-5.34,0-9.67-4.33-9.67-9.67v0c0-5.34,4.33-9.67,9.67-9.67
					h30.53"/>
				<circle cx="274.24" cy="268.66" r="11.53"/>
			</g>
			<g>
				<path class="st0" d="M229.57,181.61h30.53c5.34,0,9.67,4.33,9.67,9.67v0.76c0,5.34-4.33,9.67-9.67,9.67h-20.86
					c-5.34,0-9.67,4.33-9.67,9.67v0.76c0,5.34,4.33,9.67,9.67,9.67h20.86c5.34,0,9.67,4.33,9.67,9.67v0c0,5.34-4.33,9.67-9.67,9.67
					h-30.53"/>
				<circle cx="225.76" cy="241.34" r="11.53"/>
			</g>
		</g>
		<path d="M287.23,239.03l-2.48-9.24c-1.08-4,1.1-8.17,5-9.57l0,0c3.9-1.41,8.23,0.41,9.95,4.19l3.98,8.7
			c1.87,4.08-0.15,8.89-4.38,10.41l-2.06,0.74C293.02,245.78,288.39,243.37,287.23,239.03z"/>
		<path d="M194.99,265.2l5-8.16c2.17-3.54,6.68-4.82,10.39-2.95h0c3.7,1.87,5.36,6.26,3.81,10.11l-3.58,8.87
			c-1.68,4.16-6.56,6-10.57,3.98l-1.95-0.98C194.07,274.04,192.64,269.03,194.99,265.2z"/>
		<path d="M194.58,323.52l-3-9.08c-1.3-3.94,0.63-8.22,4.45-9.84h0c3.82-1.62,8.24-0.05,10.18,3.61l4.47,8.46
			c2.1,3.97,0.35,8.89-3.78,10.65l-2.01,0.86C200.74,329.93,195.99,327.78,194.58,323.52z"/>
		<path d="M302.59,330.35l3-9.08c1.3-3.94-0.63-8.22-4.45-9.84v0c-3.82-1.62-8.24-0.05-10.18,3.61l-4.47,8.46
			c-2.1,3.97-0.35,8.89,3.78,10.65l2.01,0.86C296.42,336.76,301.18,334.61,302.59,330.35z"/>
	</g>
</g>
<g id="Text" class="st1">
</g>
</svg>
