<?xml version="1.0" encoding="utf-8"?>
<!-- Generator: Adobe Illustrator 24.1.0, SVG Export Plug-In . SVG Version: 6.00 Build 0)  -->
<svg version="1.1" xmlns="http://www.w3.org/2000/svg" xmlns:xlink="http://www.w3.org/1999/xlink" x="0px" y="0px"
	 viewBox="0 0 500 500" style="enable-background:new 0 0 500 500;" xml:space="preserve">
<style type="text/css">
	.st0{fill:none;stroke:#000000;stroke-width:16;stroke-miterlimit:10;}
	.st1{display:none;}
	.st2{display:inline;}
	.st3{fill:none;stroke:#D1D3D4;stroke-width:2;stroke-miterlimit:10;}
	.st4{display:inline;fill:none;stroke:#BCBEC0;stroke-width:4;stroke-miterlimit:10;}
	.st5{fill:none;stroke:#BCBEC0;stroke-width:4;stroke-miterlimit:10;}
	.st6{display:inline;fill:none;stroke:#D1D3D4;stroke-width:2;stroke-miterlimit:10;}
	.st7{display:none;opacity:0.35;fill:none;stroke:#000000;stroke-width:16;stroke-miterlimit:10;}
	.st8{fill:none;stroke:#000000;stroke-width:16;stroke-linejoin:bevel;stroke-miterlimit:10;}
	.st9{fill:none;stroke:#000000;stroke-width:16;stroke-linecap:square;stroke-miterlimit:10;}
	.st10{fill:none;stroke:#000000;stroke-width:16;stroke-linecap:round;stroke-miterlimit:10;}
	.st11{fill:none;stroke:#000000;stroke-width:8;stroke-miterlimit:10;}
</style>
<g id="Icons">
	<g>
		<path class="st0" d="M216.37,216.16L216.37,216.16c8.92-8.92,23.39-8.92,32.32,0l35.15,35.15c8.92,8.92,8.92,23.39,0,32.32l0,0
			c-8.92,8.92-23.39,8.92-32.32,0l-35.15-35.15C207.45,239.55,207.45,225.08,216.37,216.16z"/>
		
			<rect x="201.94" y="80.66" transform="matrix(-0.7071 0.7071 -0.7071 -0.7071 603.5534 250)" class="st0" width="96.13" height="338.68"/>
		<g>
			<g>
				
					<rect x="167.74" y="201.78" transform="matrix(-0.7071 -0.7071 0.7071 -0.7071 149.5919 477.3394)" width="11.82" height="11.82"/>
				
					<rect x="150.78" y="184.81" transform="matrix(-0.7071 -0.7071 0.7071 -0.7071 132.6295 436.3887)" width="11.82" height="11.82"/>
				
					<rect x="133.38" y="167.41" transform="matrix(-0.7071 -0.7071 0.7071 -0.7071 115.2307 394.3842)" width="11.82" height="11.82"/>
				
					<rect x="184.98" y="184.54" transform="matrix(-0.7071 -0.7071 0.7071 -0.7071 191.1959 460.1065)" width="11.82" height="11.82"/>
				
					<rect x="168.01" y="167.58" transform="matrix(-0.7071 -0.7071 0.7071 -0.7071 174.2335 419.1558)" width="11.82" height="11.82"/>
				
					<rect x="150.62" y="150.18" transform="matrix(-0.7071 -0.7071 0.7071 -0.7071 156.8347 377.1513)" width="11.82" height="11.82"/>
				
					<rect x="202.21" y="167.31" transform="matrix(-0.7071 -0.7071 0.7071 -0.7071 232.7999 442.8735)" width="11.82" height="11.82"/>
				
					<rect x="185.25" y="150.35" transform="matrix(-0.7071 -0.7071 0.7071 -0.7071 215.8375 401.9228)" width="11.82" height="11.82"/>
				
					<rect x="167.85" y="132.95" transform="matrix(-0.7071 -0.7071 0.7071 -0.7071 198.4387 359.9183)" width="11.82" height="11.82"/>
			</g>
			<g>
				
					<rect x="320.76" y="354.79" transform="matrix(-0.7071 -0.7071 0.7071 -0.7071 302.6087 846.7546)" width="11.82" height="11.82"/>
				
					<rect x="303.8" y="337.83" transform="matrix(-0.7071 -0.7071 0.7071 -0.7071 285.6463 805.8039)" width="11.82" height="11.82"/>
				
					<rect x="286.4" y="320.43" transform="matrix(-0.7071 -0.7071 0.7071 -0.7071 268.2475 763.7994)" width="11.82" height="11.82"/>
				
					<rect x="337.99" y="337.56" transform="matrix(-0.7071 -0.7071 0.7071 -0.7071 344.2126 829.5217)" width="11.82" height="11.82"/>
				
					<rect x="321.03" y="320.6" transform="matrix(-0.7071 -0.7071 0.7071 -0.7071 327.2503 788.571)" width="11.82" height="11.82"/>
				
					<rect x="303.63" y="303.2" transform="matrix(-0.7071 -0.7071 0.7071 -0.7071 309.8515 746.5665)" width="11.82" height="11.82"/>
				
					<rect x="355.23" y="320.33" transform="matrix(-0.7071 -0.7071 0.7071 -0.7071 385.8167 812.2888)" width="11.82" height="11.82"/>
				
					<rect x="338.26" y="303.36" transform="matrix(-0.7071 -0.7071 0.7071 -0.7071 368.8543 771.338)" width="11.82" height="11.82"/>
				
					<rect x="320.87" y="285.97" transform="matrix(-0.7071 -0.7071 0.7071 -0.7071 351.4555 729.3336)" width="11.82" height="11.82"/>
			</g>
		</g>
		<g>
			<g>
				
					<rect x="201.78" y="320.43" transform="matrix(-0.7071 0.7071 -0.7071 -0.7071 585.3059 410.246)" width="11.82" height="11.82"/>
				
					<rect x="184.81" y="337.39" transform="matrix(-0.7071 0.7071 -0.7071 -0.7071 568.3436 451.1967)" width="11.82" height="11.82"/>
				
					<rect x="167.41" y="354.79" transform="matrix(-0.7071 0.7071 -0.7071 -0.7071 550.9447 493.2012)" width="11.82" height="11.82"/>
				
					<rect x="184.54" y="303.2" transform="matrix(-0.7071 0.7071 -0.7071 -0.7071 543.7019 393.0131)" width="11.82" height="11.82"/>
				
					<rect x="167.58" y="320.16" transform="matrix(-0.7071 0.7071 -0.7071 -0.7071 526.7396 433.9638)" width="11.82" height="11.82"/>
				
					<rect x="150.18" y="337.56" transform="matrix(-0.7071 0.7071 -0.7071 -0.7071 509.3407 475.9683)" width="11.82" height="11.82"/>
				
					<rect x="167.31" y="285.97" transform="matrix(-0.7071 0.7071 -0.7071 -0.7071 502.0979 375.7802)" width="11.82" height="11.82"/>
				
					<rect x="150.35" y="302.93" transform="matrix(-0.7071 0.7071 -0.7071 -0.7071 485.1356 416.7308)" width="11.82" height="11.82"/>
				
					<rect x="132.95" y="320.33" transform="matrix(-0.7071 0.7071 -0.7071 -0.7071 467.7367 458.7354)" width="11.82" height="11.82"/>
			</g>
			<g>
				
					<rect x="354.79" y="167.41" transform="matrix(-0.7071 0.7071 -0.7071 -0.7071 738.3227 40.8308)" width="11.82" height="11.82"/>
				
					<rect x="337.83" y="184.38" transform="matrix(-0.7071 0.7071 -0.7071 -0.7071 721.3604 81.7815)" width="11.82" height="11.82"/>
				
					<rect x="320.43" y="201.78" transform="matrix(-0.7071 0.7071 -0.7071 -0.7071 703.9615 123.786)" width="11.82" height="11.82"/>
				
					<rect x="337.56" y="150.18" transform="matrix(-0.7071 0.7071 -0.7071 -0.7071 696.7187 23.5979)" width="11.82" height="11.82"/>
				
					<rect x="320.6" y="167.14" transform="matrix(-0.7071 0.7071 -0.7071 -0.7071 679.7563 64.5486)" width="11.82" height="11.82"/>
				
					<rect x="303.2" y="184.54" transform="matrix(-0.7071 0.7071 -0.7071 -0.7071 662.3575 106.5531)" width="11.82" height="11.82"/>
				
					<rect x="320.33" y="132.95" transform="matrix(-0.7071 0.7071 -0.7071 -0.7071 655.1147 6.3649)" width="11.82" height="11.82"/>
				
					<rect x="303.36" y="149.91" transform="matrix(-0.7071 0.7071 -0.7071 -0.7071 638.1523 47.3156)" width="11.82" height="11.82"/>
				
					<rect x="285.97" y="167.31" transform="matrix(-0.7071 0.7071 -0.7071 -0.7071 620.7535 89.3201)" width="11.82" height="11.82"/>
			</g>
		</g>
		<g>
			<polyline class="st0" points="169.49,262.54 96.27,335.76 164.24,403.73 237.46,330.51 			"/>
			<polyline class="st0" points="330.76,237.22 403.73,164.24 335.76,96.27 262.78,169.24 			"/>
		</g>
	</g>
</g>
<g id="Text" class="st1">
</g>
</svg>
