<?xml version="1.0" encoding="utf-8"?>
<!-- Generator: Adobe Illustrator 24.1.0, SVG Export Plug-In . SVG Version: 6.00 Build 0)  -->
<svg version="1.1" xmlns="http://www.w3.org/2000/svg" xmlns:xlink="http://www.w3.org/1999/xlink" x="0px" y="0px"
	 viewBox="0 0 500 500" style="enable-background:new 0 0 500 500;" xml:space="preserve">
<style type="text/css">
	.st0{fill:none;stroke:#000000;stroke-width:16;stroke-miterlimit:10;}
	.st1{display:none;}
	.st2{display:inline;}
	.st3{fill:none;stroke:#D1D3D4;stroke-width:2;stroke-miterlimit:10;}
	.st4{display:inline;fill:none;stroke:#BCBEC0;stroke-width:4;stroke-miterlimit:10;}
	.st5{fill:none;stroke:#BCBEC0;stroke-width:4;stroke-miterlimit:10;}
	.st6{display:inline;fill:none;stroke:#D1D3D4;stroke-width:2;stroke-miterlimit:10;}
	.st7{display:none;opacity:0.35;fill:none;stroke:#000000;stroke-width:16;stroke-miterlimit:10;}
	.st8{fill:none;stroke:#000000;stroke-width:16;stroke-linejoin:bevel;stroke-miterlimit:10;}
	.st9{fill:none;stroke:#000000;stroke-width:16;stroke-linecap:square;stroke-miterlimit:10;}
	.st10{fill:none;stroke:#000000;stroke-width:16;stroke-linecap:round;stroke-miterlimit:10;}
	.st11{fill:none;stroke:#000000;stroke-width:8;stroke-miterlimit:10;}
</style>
<g id="Icons">
	<g>
		<path class="st0" d="M207.01,231.55l-9.89-104.62c-0.42-8.44,5.88-15.72,14.29-16.52l0,0c8.42-0.8,15.97,5.17,17.14,13.55
			l10.88,77.98"/>
		<path class="st0" d="M261.16,196.52l5.19-87.99c1.41-10,10.45-17.12,20.5-16.13l0,0c10.05,0.98,17.54,9.72,16.99,19.8l-4.66,84.36
			"/>
		<path class="st0" d="M316.51,208.93l20.44-76.21c2.85-8.77,12.1-13.74,20.98-11.26l0,0c8.88,2.47,14.24,11.51,12.14,20.49
			l-18.39,69.79"/>
		<path class="st0" d="M366.88,231.3l17.87-16.42c6.45-5.92,16.42-5.71,22.61,0.48l0,0c6.19,6.19,6.4,16.16,0.48,22.61l-40.09,43.63
			"/>
		<path class="st0" d="M344.91,413.57l-1.84,14.48c-1.34,10.54,2.16,21.12,9.52,28.79l0,0"/>
		<g>
			<path class="st0" d="M192.82,360.4L89.78,283.95c6.89-15.4,25.03-22.22,40.36-15.17l68.81,31.65"/>
		</g>
		<path class="st0" d="M294.73,463.98l8.55-13.64c8.65-13.81,20.63-25.22,34.85-33.18l0,0c9.72-5.45,18.09-13.02,24.49-22.15
			L392,332.39c6.38-13.6,2.13-29.82-10.1-38.55c-8.89-6.34-17.15-13-17.15-15.86v-47.9c0-8.54-6.92-15.46-15.46-15.46h0
			c-8.54,0-15.46,6.92-15.46,15.46v1.3c0,4.8-3.89,8.69-8.69,8.69h0c-4.8,0-8.69-3.89-8.69-8.69v-17.63
			c0-8.54-6.92-15.46-15.46-15.46h0c-8.54,0-15.46,6.92-15.46,15.46v6.59c0,4.83-3.91,8.74-8.74,8.74l0,0
			c-4.83,0-8.74-3.91-8.74-8.74v-6.95c0-8.54-6.92-15.46-15.46-15.46h0c-8.54,0-15.46,6.92-15.46,15.46v29.24
			c0,5.37-4.35,9.73-9.73,9.73h0c-5.37,0-9.73-4.35-9.73-9.73v-1.14c0-6.12-4.96-11.08-11.08-11.08h0
			c-6.12,0-11.08,4.96-11.08,11.08v81.72c0,17.97-1.89,35.9-5.64,53.48l0,0c-4.71,22.08-12.31,43.44-22.61,63.53l-10.82,21.1"/>
		<path class="st0" d="M404.56,77.52c-33.04-25.99-74.71-41.5-120.01-41.5c-45.3,0-86.98,15.51-120.01,41.5"/>
	</g>
</g>
<g id="Text" class="st1">
</g>
</svg>
