<?xml version="1.0" encoding="utf-8"?>
<!-- Generator: Adobe Illustrator 24.1.0, SVG Export Plug-In . SVG Version: 6.00 Build 0)  -->
<svg version="1.1" xmlns="http://www.w3.org/2000/svg" xmlns:xlink="http://www.w3.org/1999/xlink" x="0px" y="0px"
	 viewBox="0 0 500 500" style="enable-background:new 0 0 500 500;" xml:space="preserve">
<style type="text/css">
	.st0{fill:none;stroke:#000000;stroke-width:16;stroke-miterlimit:10;}
	.st1{display:none;}
	.st2{display:inline;}
	.st3{fill:none;stroke:#D1D3D4;stroke-width:2;stroke-miterlimit:10;}
	.st4{display:inline;fill:none;stroke:#BCBEC0;stroke-width:4;stroke-miterlimit:10;}
	.st5{fill:none;stroke:#BCBEC0;stroke-width:4;stroke-miterlimit:10;}
	.st6{display:inline;fill:none;stroke:#D1D3D4;stroke-width:2;stroke-miterlimit:10;}
	.st7{display:none;opacity:0.35;fill:none;stroke:#000000;stroke-width:16;stroke-miterlimit:10;}
	.st8{fill:none;stroke:#000000;stroke-width:16;stroke-linejoin:bevel;stroke-miterlimit:10;}
	.st9{fill:none;stroke:#000000;stroke-width:16;stroke-linecap:square;stroke-miterlimit:10;}
	.st10{fill:none;stroke:#000000;stroke-width:16;stroke-linecap:round;stroke-miterlimit:10;}
	.st11{fill:none;stroke:#000000;stroke-width:8;stroke-miterlimit:10;}
</style>
<g id="Icons">
	<g>
		<g>
			<circle class="st0" cx="442.47" cy="168.37" r="15.22"/>
			<path class="st0" d="M275.61,268.28c0-8.41,6.82-15.22,15.22-15.22c8.41,0,15.22,6.82,15.22,15.22"/>
			<path class="st0" d="M306.84,268.4c0-18.08,14.66-32.74,32.74-32.74s32.74,14.66,32.74,32.74"/>
			<circle class="st0" cx="442.47" cy="327.62" r="15.22"/>
			<polyline class="st0" points="119.19,350.03 42.3,350.03 42.3,290.06 119.19,290.06 			"/>
			<rect x="121.72" y="277.82" class="st0" width="26.08" height="84.45"/>
			<path class="st0" d="M147.8,345.64c0,0,148.68,0,149.43,0c14.22,0,26.69-7.43,33.77-18.62c7.08,11.19,19.55,18.62,33.77,18.62
				c22.06,0,39.94-17.88,39.94-39.94c0-4.86-0.87-9.51-2.45-13.81c2.38,0.44,4.82,0.68,7.33,0.68c22.06,0,39.94-17.88,39.94-39.94
				c0-0.32-0.02-0.63-0.02-0.95c0.01-0.31,0.02-0.63,0.02-0.95c0-22.06-17.88-39.94-39.94-39.94c-2.5,0-4.95,0.24-7.33,0.68
				c1.59-4.31,2.46-8.96,2.46-13.81c0-22.06-17.88-39.94-39.94-39.94c-14.22,0-26.69,7.44-33.77,18.62
				c-7.08-11.19-19.55-18.62-33.77-18.62c-22.06,0-39.94,17.88-39.94,39.94c0,4.86,0.87,9.51,2.45,13.81
				c-2.38-0.44-4.82-0.68-7.33-0.68c-22.06,0-39.94,17.88-39.94,39.94c0,0.32,0.02,0.63,0.02,0.95c-0.01,0.32-0.02,0.63-0.02,0.95
				c0,8.39,2.59,16.18,7.02,22.61c-9.02,4-15.98,11.79-18.86,21.36c-3.57-2.7-8.02-4.31-12.84-4.31c-11.75,0-21.28,9.53-21.28,21.28
				H147.8"/>
		</g>
	</g>
</g>
<g id="Text" class="st1">
</g>
</svg>
