<?xml version="1.0" encoding="utf-8"?>
<!-- Generator: Adobe Illustrator 24.1.0, SVG Export Plug-In . SVG Version: 6.00 Build 0)  -->
<svg version="1.1" xmlns="http://www.w3.org/2000/svg" xmlns:xlink="http://www.w3.org/1999/xlink" x="0px" y="0px"
	 viewBox="0 0 500 500" style="enable-background:new 0 0 500 500;" xml:space="preserve">
<style type="text/css">
	.st0{fill:none;stroke:#000000;stroke-width:16;stroke-miterlimit:10;}
	.st1{display:none;}
	.st2{display:inline;}
	.st3{fill:none;stroke:#D1D3D4;stroke-width:2;stroke-miterlimit:10;}
	.st4{display:inline;fill:none;stroke:#BCBEC0;stroke-width:4;stroke-miterlimit:10;}
	.st5{fill:none;stroke:#BCBEC0;stroke-width:4;stroke-miterlimit:10;}
	.st6{display:inline;fill:none;stroke:#D1D3D4;stroke-width:2;stroke-miterlimit:10;}
	.st7{display:none;opacity:0.35;fill:none;stroke:#000000;stroke-width:16;stroke-miterlimit:10;}
	.st8{fill:none;stroke:#000000;stroke-width:16;stroke-linejoin:bevel;stroke-miterlimit:10;}
	.st9{fill:none;stroke:#000000;stroke-width:16;stroke-linecap:square;stroke-miterlimit:10;}
	.st10{fill:none;stroke:#000000;stroke-width:16;stroke-linecap:round;stroke-miterlimit:10;}
	.st11{fill:none;stroke:#000000;stroke-width:8;stroke-miterlimit:10;}
</style>
<g id="Icons">
	<g>
		<g>
			<g>
				<g>
					<line class="st0" x1="371.4" y1="297.08" x2="335.7" y2="283.24"/>
					<circle class="st0" cx="390.39" cy="304.45" r="20.37"/>
					<line class="st0" x1="128.6" y1="202.92" x2="164.3" y2="216.76"/>
					<circle class="st0" cx="109.61" cy="195.55" r="20.37"/>
				</g>
				<g>
					<line class="st0" x1="297.08" y1="128.6" x2="283.24" y2="164.3"/>
					<circle class="st0" cx="304.45" cy="109.61" r="20.37"/>
					<line class="st0" x1="202.92" y1="371.4" x2="216.76" y2="335.7"/>
					<circle class="st0" cx="195.55" cy="390.39" r="20.37"/>
				</g>
				<path class="st0" d="M293.16,174.87L293.16,174.87c2.49,6.44,8.51,10.85,15.4,11.27h0c10.39,0.64,17.99,10.08,16.38,20.37v0
					c-1.06,6.83,1.94,13.65,7.7,17.46l0,0c8.68,5.75,10.53,17.72,4,25.83l0,0c-4.33,5.38-5.14,12.79-2.06,18.97v0
					c4.64,9.32,0.26,20.62-9.45,24.37l0,0c-6.44,2.49-10.85,8.51-11.27,15.4v0c-0.64,10.39-10.08,17.99-20.37,16.38h0
					c-6.83-1.06-13.65,1.94-17.46,7.7v0c-5.75,8.68-17.72,10.53-25.83,4l0,0c-5.38-4.33-12.79-5.14-18.97-2.06h0
					c-9.32,4.64-20.62,0.26-24.37-9.45l0,0c-2.49-6.44-8.51-10.85-15.4-11.27h0c-10.39-0.64-17.99-10.08-16.38-20.37l0,0
					c1.06-6.83-1.94-13.65-7.7-17.46h0c-8.68-5.75-10.53-17.72-4-25.83l0,0c4.33-5.38,5.14-12.79,2.06-18.97l0,0
					c-4.64-9.32-0.26-20.62,9.45-24.37l0,0c6.44-2.49,10.85-8.51,11.27-15.4v0c0.64-10.39,10.08-17.99,20.37-16.38l0,0
					c6.83,1.06,13.65-1.94,17.46-7.7l0,0c5.75-8.68,17.72-10.53,25.83-4l0,0c5.38,4.33,12.79,5.14,18.97,2.06l0,0
					C278.11,160.77,289.4,165.15,293.16,174.87z"/>
				<g>
					<g>
						<line class="st0" x1="297.3" y1="357.23" x2="285.43" y2="330.32"/>
						<circle class="st0" cx="304.7" cy="374.01" r="18.34"/>
						<line class="st0" x1="202.7" y1="142.77" x2="214.49" y2="169.5"/>
						<circle class="st0" cx="195.3" cy="125.99" r="18.34"/>
					</g>
					<g>
						<line class="st0" x1="357.23" y1="202.7" x2="330.32" y2="214.57"/>
						<circle class="st0" cx="374.01" cy="195.3" r="18.34"/>
						<line class="st0" x1="142.77" y1="297.3" x2="169.5" y2="285.51"/>
						<circle class="st0" cx="125.99" cy="304.7" r="18.34"/>
					</g>
				</g>
				<circle class="st0" cx="209.68" cy="251.92" r="11.6"/>
				<circle class="st0" cx="261.72" cy="288.83" r="11.6"/>
				<circle class="st0" cx="265.74" cy="219.06" r="20.37"/>
			</g>
		</g>
	</g>
</g>
<g id="Text" class="st1">
</g>
</svg>
