<?xml version="1.0" encoding="utf-8"?>
<!-- Generator: Adobe Illustrator 24.1.0, SVG Export Plug-In . SVG Version: 6.00 Build 0)  -->
<svg version="1.1" xmlns="http://www.w3.org/2000/svg" xmlns:xlink="http://www.w3.org/1999/xlink" x="0px" y="0px"
	 viewBox="0 0 500 500" style="enable-background:new 0 0 500 500;" xml:space="preserve">
<style type="text/css">
	.st0{fill:none;stroke:#000000;stroke-width:16;stroke-miterlimit:10;}
	.st1{display:none;}
	.st2{display:inline;}
	.st3{fill:none;stroke:#D1D3D4;stroke-width:2;stroke-miterlimit:10;}
	.st4{display:inline;fill:none;stroke:#BCBEC0;stroke-width:4;stroke-miterlimit:10;}
	.st5{fill:none;stroke:#BCBEC0;stroke-width:4;stroke-miterlimit:10;}
	.st6{display:inline;fill:none;stroke:#D1D3D4;stroke-width:2;stroke-miterlimit:10;}
	.st7{display:none;opacity:0.35;fill:none;stroke:#000000;stroke-width:16;stroke-miterlimit:10;}
	.st8{fill:none;stroke:#000000;stroke-width:16;stroke-linejoin:bevel;stroke-miterlimit:10;}
	.st9{fill:none;stroke:#000000;stroke-width:16;stroke-linecap:square;stroke-miterlimit:10;}
	.st10{fill:none;stroke:#000000;stroke-width:16;stroke-linecap:round;stroke-miterlimit:10;}
	.st11{fill:none;stroke:#000000;stroke-width:8;stroke-miterlimit:10;}
</style>
<g id="Icons">
	<g>
		<g>
			<path class="st0" d="M156.62,330.72c0,22.65,18.36,41.02,41.02,41.02h0c19.14,0,36.81-10.25,46.32-26.86
				c0,0,17.87-49.05,37.23-65.07c19.36-16.02,43.35-31.38,45.35-72.44v-14.32c0-47.04-38.14-85.18-85.18-85.18h-7.55
				c-42.63,0-77.19,34.56-77.19,77.19"/>
			<path class="st0" d="M188.75,296.81v-1.01c0-12.6,6.27-24.17,16.36-31.71c6.67-4.99,10.98-12.95,10.98-21.91
				c0-8.97-4.32-16.93-10.98-21.91c-10.09-7.54-16.36-19.12-16.36-31.71v-3.71c1.83-24.92,22.58-44.58,47.92-44.58h4.7
				c26.37,0,48.25,19.29,52.34,44.57"/>
			<path class="st0" d="M234.58,282.76c11.65-29.19,31.19-40.54,31.19-65.45c0-29.31-21.76-43.07-51.07-43.07l-21.54,0.05"/>
		</g>
	</g>
</g>
<g id="Text" class="st1">
</g>
</svg>
