<?xml version="1.0" encoding="utf-8"?>
<!-- Generator: Adobe Illustrator 24.1.0, SVG Export Plug-In . SVG Version: 6.00 Build 0)  -->
<svg version="1.1" xmlns="http://www.w3.org/2000/svg" xmlns:xlink="http://www.w3.org/1999/xlink" x="0px" y="0px"
	 viewBox="0 0 500 500" style="enable-background:new 0 0 500 500;" xml:space="preserve">
<style type="text/css">
	.st0{fill:none;stroke:#000000;stroke-width:16;stroke-miterlimit:10;}
	.st1{display:none;}
	.st2{display:inline;}
	.st3{fill:none;stroke:#D1D3D4;stroke-width:2;stroke-miterlimit:10;}
	.st4{display:inline;fill:none;stroke:#BCBEC0;stroke-width:4;stroke-miterlimit:10;}
	.st5{fill:none;stroke:#BCBEC0;stroke-width:4;stroke-miterlimit:10;}
	.st6{display:inline;fill:none;stroke:#D1D3D4;stroke-width:2;stroke-miterlimit:10;}
	.st7{display:none;opacity:0.35;fill:none;stroke:#000000;stroke-width:16;stroke-miterlimit:10;}
	.st8{fill:none;stroke:#000000;stroke-width:16;stroke-linejoin:bevel;stroke-miterlimit:10;}
	.st9{fill:none;stroke:#000000;stroke-width:16;stroke-linecap:square;stroke-miterlimit:10;}
	.st10{fill:none;stroke:#000000;stroke-width:16;stroke-linecap:round;stroke-miterlimit:10;}
	.st11{fill:none;stroke:#000000;stroke-width:8;stroke-miterlimit:10;}
</style>
<g id="Icons">
	<g>
		<g>
			<g>
				<g>
					<path class="st0" d="M396.72,470.58l-16.58-44.12c-1.81-4.82-0.98-10.23,2.2-14.28l47.3-60.4c2.86-3.65,4.19-8.26,3.73-12.87
						l-5.67-56.2l-30.61-74.85c-2.96-8.4-12.17-12.81-20.57-9.85s-12.81,12.17-9.85,20.57l24.29,68.46"/>
					<path class="st0" d="M377.4,370.2l28.28-83.31h0c-13.35-4.45-27.82,2.54-32.64,15.76l-11.19,30.74l-24.78,18.62
						c-24.07,18.09-33.19,49.98-22.31,78.06l17.62,45.49"/>
				</g>
				<g>
					<path class="st0" d="M103.28,470.58l16.58-44.12c1.81-4.82,0.98-10.23-2.2-14.28l-47.3-60.4c-2.86-3.65-4.19-8.26-3.73-12.87
						l5.67-56.2l30.61-74.85c2.96-8.4,12.17-12.81,20.57-9.85s12.81,12.17,9.85,20.57l-24.29,68.46"/>
					<path class="st0" d="M122.6,370.2L94.31,286.9h0c13.35-4.45,27.82,2.54,32.64,15.76l11.19,30.74l24.78,18.62
						c24.07,18.09,33.19,49.98,22.31,78.06l-17.62,45.49"/>
				</g>
			</g>
		</g>
		<g>
			<g>
				<path class="st0" d="M268.71,245.06l1.23-0.36c49.48-14.46,88.02-53.4,101.96-103.03l3.34-11.89
					c4.71-16.78-10.81-32.22-27.57-27.42l-13.12,3.76c-49.55,14.2-88.29,52.93-102.49,102.49l0,0c-0.95,3.32-1.3,6.59-1.14,9.75
					c0.44,8.54,4.64,16.2,10.94,21.32C248.94,245.42,258.67,247.99,268.71,245.06z"/>
				<path class="st0" d="M233.87,242.26l-1.23-0.36c-49.48-14.46-88.02-53.4-101.96-103.03l-3.34-11.89
					c-4.71-16.78,10.81-32.22,27.57-27.42l13.12,3.76c34.85,9.99,64.35,32.11,83.72,61.59"/>
				<path class="st0" d="M248.64,330.91c-2.34-13.03-3.56-26.45-3.56-40.15c0-16.96,1.87-33.49,5.41-49.39"/>
				<path class="st0" d="M232.07,208.6c-6.54,24.38-10.03,50.02-10.03,76.48c0,15.49,1.2,30.69,3.5,45.52"/>
			</g>
			<path class="st0" d="M369.56,112.27c-30.8,26.75-108.66,70.1-127.69,127.41"/>
			<path class="st0" d="M133.91,112.27c22.07,19.17,68.3,46.86,99.73,82.1"/>
			<line class="st0" x1="183.7" y1="109.41" x2="189.7" y2="152.7"/>
			<line class="st0" x1="221.83" y1="133.12" x2="226.83" y2="185.12"/>
			<line class="st0" x1="135.39" y1="154.5" x2="192.11" y2="155.2"/>
			<line class="st0" x1="156.95" y1="190.53" x2="231.3" y2="190.53"/>
			<line class="st0" x1="310.04" y1="115.17" x2="303.98" y2="164.07"/>
			<line class="st0" x1="262.95" y1="151.72" x2="263.76" y2="201.5"/>
			<line class="st0" x1="360.71" y1="164.08" x2="303.98" y2="164.07"/>
			<line class="st0" x1="336.21" y1="201.97" x2="261.86" y2="201.03"/>
		</g>
		<path class="st0" d="M274.45,385.57c2.49-8.73-2.58-17.83-11.31-20.31h0c-8.73-2.49-13.79-11.58-11.31-20.31v0
			c1.67-5.85-0.06-11.86-4-15.94c-2.95-3.05-7.25-4.38-11.46-3.84h0c-4.22,0.54-8.07,2.93-10.15,6.65
			c-2.76,4.95-2.88,11.19,0.22,16.41l0,0c4.63,7.81,1.07,19.54-5.75,22.53c-6.82,2.99-10.38,14.72-5.75,22.53"/>
		<path class="st0" d="M370.01,65.92C336.98,39.93,295.3,24.42,250,24.42c-45.3,0-86.98,15.51-120.01,41.5"/>
	</g>
</g>
<g id="Text" class="st1">
</g>
</svg>
