<?xml version="1.0" encoding="utf-8"?>
<!-- Generator: Adobe Illustrator 24.1.0, SVG Export Plug-In . SVG Version: 6.00 Build 0)  -->
<svg version="1.1" xmlns="http://www.w3.org/2000/svg" xmlns:xlink="http://www.w3.org/1999/xlink" x="0px" y="0px"
	 viewBox="0 0 500 500" style="enable-background:new 0 0 500 500;" xml:space="preserve">
<style type="text/css">
	.st0{fill:none;stroke:#000000;stroke-width:16;stroke-miterlimit:10;}
	.st1{display:none;}
	.st2{display:inline;}
	.st3{fill:none;stroke:#D1D3D4;stroke-width:2;stroke-miterlimit:10;}
	.st4{display:inline;fill:none;stroke:#BCBEC0;stroke-width:4;stroke-miterlimit:10;}
	.st5{fill:none;stroke:#BCBEC0;stroke-width:4;stroke-miterlimit:10;}
	.st6{display:inline;fill:none;stroke:#D1D3D4;stroke-width:2;stroke-miterlimit:10;}
	.st7{display:none;opacity:0.35;fill:none;stroke:#000000;stroke-width:16;stroke-miterlimit:10;}
	.st8{fill:none;stroke:#000000;stroke-width:16;stroke-linejoin:bevel;stroke-miterlimit:10;}
	.st9{fill:none;stroke:#000000;stroke-width:16;stroke-linecap:square;stroke-miterlimit:10;}
	.st10{fill:none;stroke:#000000;stroke-width:16;stroke-linecap:round;stroke-miterlimit:10;}
	.st11{fill:none;stroke:#000000;stroke-width:8;stroke-miterlimit:10;}
</style>
<g id="Icons">
	<g>
		<g>
			<g>
				<g>
					<g>
						<path class="st0" d="M396.72,461.22l-16.58-44.12c-1.81-4.82-0.98-10.23,2.2-14.28l47.3-60.4c2.86-3.65,4.19-8.26,3.73-12.87
							l-5.67-56.2l-30.61-74.85c-2.96-8.4-12.17-12.81-20.57-9.85s-12.81,12.17-9.85,20.57l24.29,68.46"/>
						<path class="st0" d="M377.4,360.84l28.28-83.31h0c-13.35-4.45-27.82,2.54-32.64,15.76l-11.19,30.74l-24.78,18.62
							c-24.07,18.09-33.19,49.98-22.31,78.06l17.62,45.49"/>
					</g>
					<g>
						<path class="st0" d="M103.28,461.22l16.58-44.12c1.81-4.82,0.98-10.23-2.2-14.28l-47.3-60.4c-2.86-3.65-4.19-8.26-3.73-12.87
							l5.67-56.2l30.61-74.85c2.96-8.4,12.17-12.81,20.57-9.85s12.81,12.17,9.85,20.57l-24.29,68.46"/>
						<path class="st0" d="M122.6,360.84l-28.28-83.31h0c13.35-4.45,27.82,2.54,32.64,15.76l11.19,30.74l24.78,18.62
							c24.07,18.09,33.19,49.98,22.31,78.06l-17.62,45.49"/>
					</g>
				</g>
			</g>
		</g>
		<path class="st0" d="M370.01,75.28C336.98,49.29,295.3,33.78,250,33.78c-45.3,0-86.98,15.51-120.01,41.5"/>
		<g>
			<path class="st0" d="M295.02,119.74v-1.26c0-12.45-10.09-22.54-22.54-22.54h0c-12.45,0-22.54,10.09-22.54,22.54V287.1"/>
			<path class="st0" d="M204.88,118.96v-1.26c0-12.45,10.09-22.54,22.54-22.54h0c12.45,0,22.54,10.09,22.54,22.54"/>
			<path class="st0" d="M183.09,140.32v-1.24c0-12.23,9.91-22.14,22.14-22.14h0c12.23,0,22.14,9.91,22.14,22.14"/>
			<path class="st0" d="M273.37,140.32v-1.24c0-12.23,9.91-22.14,22.14-22.14h0c12.23,0,22.14,9.91,22.14,22.14"/>
			<path class="st9" d="M243.11,214.5l-7.75-1.49c-9.52-1.49-17.75-7.73-22.02-16.71l-1.39-2.93c-2.54-5.35-6.9-9.53-12.23-11.73v0
				c-1.66-0.69-3.39-1.17-5.16-1.45l-0.44-0.07"/>
			<path class="st9" d="M220.58,206.45c0,0-5.69,8.2-17.28,13.38"/>
			<g>
				<path class="st0" d="M216.2,248.72c18.63,0,33.74,15.1,33.74,33.74c0,18.63-15.1,33.74-33.74,33.74
					c-17.94,0-32.6-14-33.67-31.66c-11.98-3.03-20.85-13.88-20.85-26.81c0-4.51,1.09-8.77,3-12.53
					c-10.88-5.24-18.39-16.38-18.39-29.27c0-13.25,7.94-24.64,19.31-29.69c-2.49-4.15-3.92-9.01-3.92-14.2
					c0-15.27,12.87-28.04,28.04-28.04c15.16,0,23.6,3.99,31.96,11.6c3.06,2.79,8.89,10.25,8.89,10.25c3.57,4.2,8.35,6.92,13.53,7.7
					h5.84"/>
			</g>
			<path class="st0" d="M182.89,259.55c8.04-2.81,17.33-1,23.75,5.42c6.6,6.6,8.32,16.23,5.17,24.42"/>
			<path class="st0" d="M188.69,228.78c-8.03,0-14.53-6.51-14.53-14.53c0-8.03,6.51-14.53,14.53-14.53"/>
			<path class="st9" d="M256.89,214.5l7.75-1.49c9.52-1.49,17.75-7.73,22.02-16.71l1.39-2.93c2.54-5.35,6.9-9.53,12.23-11.73v0
				c1.66-0.69,3.39-1.17,5.16-1.45l0.44-0.07"/>
			<path class="st9" d="M279.42,206.45c0,0,5.69,8.2,17.28,13.38"/>
			<g>
				<path class="st0" d="M283.8,248.72c-18.63,0-33.74,15.1-33.74,33.74c0,18.63,15.1,33.74,33.74,33.74
					c17.94,0,32.6-14,33.67-31.66c11.98-3.03,20.85-13.88,20.85-26.81c0-4.51-1.09-8.77-3-12.53c10.88-5.24,18.39-16.38,18.39-29.27
					c0-13.25-7.94-24.64-19.31-29.69c2.49-4.15,3.92-9.01,3.92-14.2c0-15.27-12.87-28.04-28.04-28.04c-15.16,0-23.6,3.99-31.96,11.6
					c-3.06,2.79-8.89,10.25-8.89,10.25c-3.57,4.2-8.35,6.92-13.53,7.7h-5.84"/>
			</g>
			<path class="st0" d="M317.11,259.55c-8.04-2.81-17.33-1-23.75,5.42c-6.6,6.6-8.32,16.23-5.17,24.42"/>
			<path class="st0" d="M311.31,228.78c8.03,0,14.53-6.51,14.53-14.53c0-8.03-6.51-14.53-14.53-14.53"/>
		</g>
	</g>
</g>
<g id="Text" class="st1">
</g>
</svg>
