<?xml version="1.0" encoding="utf-8"?>
<!-- Generator: Adobe Illustrator 24.1.0, SVG Export Plug-In . SVG Version: 6.00 Build 0)  -->
<svg version="1.1" xmlns="http://www.w3.org/2000/svg" xmlns:xlink="http://www.w3.org/1999/xlink" x="0px" y="0px"
	 viewBox="0 0 500 500" style="enable-background:new 0 0 500 500;" xml:space="preserve">
<style type="text/css">
	.st0{fill:none;stroke:#000000;stroke-width:16;stroke-miterlimit:10;}
	.st1{display:none;}
	.st2{display:inline;}
	.st3{fill:none;stroke:#D1D3D4;stroke-width:2;stroke-miterlimit:10;}
	.st4{display:inline;fill:none;stroke:#BCBEC0;stroke-width:4;stroke-miterlimit:10;}
	.st5{fill:none;stroke:#BCBEC0;stroke-width:4;stroke-miterlimit:10;}
	.st6{display:inline;fill:none;stroke:#D1D3D4;stroke-width:2;stroke-miterlimit:10;}
	.st7{display:none;opacity:0.35;fill:none;stroke:#000000;stroke-width:16;stroke-miterlimit:10;}
	.st8{fill:none;stroke:#000000;stroke-width:16;stroke-linejoin:bevel;stroke-miterlimit:10;}
	.st9{fill:none;stroke:#000000;stroke-width:16;stroke-linecap:square;stroke-miterlimit:10;}
	.st10{fill:none;stroke:#000000;stroke-width:16;stroke-linecap:round;stroke-miterlimit:10;}
	.st11{fill:none;stroke:#000000;stroke-width:8;stroke-miterlimit:10;}
</style>
<g id="Icons">
	<g>
		<g>
			<circle class="st0" cx="250" cy="250" r="49.18"/>
			<line class="st0" x1="250" y1="127.75" x2="250" y2="200.82"/>
			<circle class="st0" cx="250" cy="107.37" r="20.37"/>
			<line class="st0" x1="372.25" y1="250" x2="299.18" y2="250"/>
			<circle class="st0" cx="392.63" cy="250" r="20.37"/>
			<line class="st0" x1="250" y1="372.25" x2="250" y2="299.18"/>
			<circle class="st0" cx="250" cy="392.63" r="20.37"/>
			<line class="st0" x1="127.75" y1="250" x2="200.82" y2="250"/>
			<circle class="st0" cx="107.37" cy="250" r="20.37"/>
			<line class="st0" x1="163.55" y1="163.55" x2="215.22" y2="215.22"/>
			<circle class="st0" cx="149.15" cy="149.15" r="20.37"/>
			<line class="st0" x1="336.45" y1="163.55" x2="284.78" y2="215.22"/>
			<circle class="st0" cx="350.85" cy="149.15" r="20.37"/>
			<line class="st0" x1="336.45" y1="336.45" x2="284.78" y2="284.78"/>
			<circle class="st0" cx="350.85" cy="350.85" r="20.37"/>
			<line class="st0" x1="163.55" y1="336.45" x2="215.22" y2="284.78"/>
			<circle class="st0" cx="149.15" cy="350.85" r="20.37"/>
		</g>
	</g>
</g>
<g id="Text" class="st1">
</g>
</svg>
