<?xml version="1.0" encoding="utf-8"?>
<!-- Generator: Adobe Illustrator 24.1.0, SVG Export Plug-In . SVG Version: 6.00 Build 0)  -->
<svg version="1.1" xmlns="http://www.w3.org/2000/svg" xmlns:xlink="http://www.w3.org/1999/xlink" x="0px" y="0px"
	 viewBox="0 0 500 500" style="enable-background:new 0 0 500 500;" xml:space="preserve">
<style type="text/css">
	.st0{fill:none;stroke:#000000;stroke-width:16;stroke-miterlimit:10;}
	.st1{display:none;}
	.st2{display:inline;}
	.st3{fill:none;stroke:#D1D3D4;stroke-width:2;stroke-miterlimit:10;}
	.st4{display:inline;fill:none;stroke:#BCBEC0;stroke-width:4;stroke-miterlimit:10;}
	.st5{fill:none;stroke:#BCBEC0;stroke-width:4;stroke-miterlimit:10;}
	.st6{display:inline;fill:none;stroke:#D1D3D4;stroke-width:2;stroke-miterlimit:10;}
	.st7{display:none;opacity:0.35;fill:none;stroke:#000000;stroke-width:16;stroke-miterlimit:10;}
	.st8{fill:none;stroke:#000000;stroke-width:16;stroke-linejoin:bevel;stroke-miterlimit:10;}
	.st9{fill:none;stroke:#000000;stroke-width:16;stroke-linecap:square;stroke-miterlimit:10;}
	.st10{fill:none;stroke:#000000;stroke-width:16;stroke-linecap:round;stroke-miterlimit:10;}
	.st11{fill:none;stroke:#000000;stroke-width:8;stroke-miterlimit:10;}
</style>
<g id="Icons">
	<g>
		<g>
			<circle class="st0" cx="297.53" cy="279.99" r="17.99"/>
			<circle class="st0" cx="297.53" cy="279.99" r="137.93"/>
			<circle class="st0" cx="297.53" cy="279.99" r="101.95"/>
			<path class="st0" d="M339.51,106.07h-83.96c-6.62,0-11.99-5.37-11.99-11.99v0c0-6.62,5.37-11.99,11.99-11.99h83.96
				c6.62,0,11.99,5.37,11.99,11.99v0C351.51,100.7,346.14,106.07,339.51,106.07z"/>
			<g>
				<line class="st0" x1="278.54" y1="143.66" x2="278.54" y2="104.08"/>
				<line class="st0" x1="316.52" y1="104.08" x2="316.52" y2="143.66"/>
			</g>
			<g>
				<line class="st0" x1="297.53" y1="202.02" x2="297.53" y2="228.57"/>
				<line class="st0" x1="297.53" y1="331.4" x2="297.53" y2="357.95"/>
				<line class="st0" x1="219.57" y1="279.99" x2="246.12" y2="279.99"/>
				<line class="st0" x1="348.94" y1="279.99" x2="375.49" y2="279.99"/>
			</g>
			<line class="st0" x1="351.31" y1="226.01" x2="308.9" y2="268.42"/>
			<g>
				<line class="st0" x1="175.34" y1="219.37" x2="64.54" y2="219.37"/>
				<line class="st0" x1="175.34" y1="340.6" x2="82.01" y2="340.6"/>
				<line class="st0" x1="154.66" y1="259.78" x2="96" y2="259.78"/>
				<line class="st0" x1="154.66" y1="300.19" x2="109.64" y2="300.19"/>
				<line class="st0" x1="90.1" y1="300.19" x2="70.7" y2="300.19"/>
			</g>
			<line class="st0" x1="285.76" y1="268.42" x2="261.63" y2="244.28"/>
		</g>
	</g>
</g>
<g id="Text" class="st1">
</g>
</svg>
