<?xml version="1.0" encoding="utf-8"?>
<!-- Generator: Adobe Illustrator 24.1.0, SVG Export Plug-In . SVG Version: 6.00 Build 0)  -->
<svg version="1.1" xmlns="http://www.w3.org/2000/svg" xmlns:xlink="http://www.w3.org/1999/xlink" x="0px" y="0px"
	 viewBox="0 0 500 500" style="enable-background:new 0 0 500 500;" xml:space="preserve">
<style type="text/css">
	.st0{fill:none;stroke:#000000;stroke-width:16;stroke-miterlimit:10;}
	.st1{display:none;}
	.st2{display:inline;}
	.st3{fill:none;stroke:#D1D3D4;stroke-width:2;stroke-miterlimit:10;}
	.st4{display:inline;fill:none;stroke:#BCBEC0;stroke-width:4;stroke-miterlimit:10;}
	.st5{fill:none;stroke:#BCBEC0;stroke-width:4;stroke-miterlimit:10;}
	.st6{display:inline;fill:none;stroke:#D1D3D4;stroke-width:2;stroke-miterlimit:10;}
	.st7{display:none;opacity:0.35;fill:none;stroke:#000000;stroke-width:16;stroke-miterlimit:10;}
	.st8{fill:none;stroke:#000000;stroke-width:16;stroke-linejoin:bevel;stroke-miterlimit:10;}
	.st9{fill:none;stroke:#000000;stroke-width:16;stroke-linecap:square;stroke-miterlimit:10;}
	.st10{fill:none;stroke:#000000;stroke-width:16;stroke-linecap:round;stroke-miterlimit:10;}
	.st11{fill:none;stroke:#000000;stroke-width:8;stroke-miterlimit:10;}
</style>
<g id="Icons">
	<g>
		<g>
			<g>
				<path class="st0" d="M259.12,352.28c6.39,0,10.35-6.96,7.08-12.46l0-0.01c-4.42-7.43-4.33-16.15,0.26-23.49l0.09-0.15
					c4.59-7.34,4.68-16.07,0.26-23.49l-0.48-0.8c-4.27-7.17-4.23-16.12,0.11-23.25l0.48-0.8c4.49-7.38,4.48-16.11-0.04-23.49l0,0
					c-4.46-7.29-4.42-16.48,0.11-23.74l0,0c4.59-7.34,4.68-16.07,0.26-23.49l-0.48-0.8c-4.27-7.17-4.23-16.12,0.11-23.25l0.01-0.02
					c3.34-5.49-0.61-12.52-7.04-12.52l-168.34,0.04c-6.43,0-10.38,7.03-7.04,12.52l0.01,0.02c4.34,7.13,4.38,16.08,0.11,23.25
					l-0.48,0.8c-4.42,7.43-4.33,16.15,0.26,23.49l0,0c4.53,7.25,4.57,16.44,0.11,23.74l0,0c-4.52,7.39-4.53,16.11-0.04,23.49
					l0.48,0.8c4.34,7.13,4.38,16.08,0.11,23.25l-0.48,0.8c-4.42,7.43-4.33,16.15,0.26,23.49l0.09,0.15
					c4.59,7.34,4.68,16.07,0.26,23.49h0c-3.27,5.49,0.69,12.46,7.08,12.46L259.12,352.28z"/>
				<circle class="st0" cx="175.68" cy="256.43" r="45.34"/>
				<circle class="st0" cx="175.68" cy="256.43" r="27.51"/>
				<path class="st0" d="M214,320.53h-76.63c-14.24,0-25.79-11.55-25.79-25.79v-76.63c0-14.24,11.55-25.79,25.79-25.79H214
					c14.24,0,25.79,11.55,25.79,25.79v76.63C239.79,308.98,228.24,320.53,214,320.53z"/>
			</g>
			<g>
				<path class="st0" d="M241.89,163.34c-1.55-2.19-3.53-4.13-5.9-5.74l-0.77-0.52c-6.91-4.68-10.67-12.8-9.77-21.1l0-0.02
					c0.7-6.39-5.87-11.08-11.69-8.35l-73.09,32.95"/>
				<path class="st0" d="M270.5,312.8l23.96-11.23c5.79-2.71,6.41-10.7,1.12-14.28l-0.01,0c-7.16-4.85-10.77-12.79-9.73-21.38
					l0.02-0.18c1.04-8.6-2.58-16.54-9.73-21.38l-0.77-0.52c-6.91-4.68-10.67-12.8-9.77-21.1"/>
				<path class="st0" d="M129.63,352.08c1.75,3.63,2.48,7.74,2.05,12.04v0c-0.63,6.36,5.91,10.99,11.7,8.28l42.8-20.07"/>
				<path class="st0" d="M87.69,186.72l-26.34,12.35c-5.82,2.73-6.41,10.77-1.06,14.32l0.02,0.01c6.96,4.62,10.79,12.7,9.96,21.01
					l-0.09,0.93c-0.86,8.6,2.93,16.46,10.2,21.16h0"/>
			</g>
		</g>
		<g>
			<g>
				<g>
					<path class="st0" d="M373.62,285.27c-8.32-8.32-8.32-21.8,0-30.11l0,0c8.32-8.32,8.32-21.8,0-30.11l0,0
						c-8.32-8.32-8.32-21.8,0-30.11"/>
				</g>
				<path class="st0" d="M421.98,413.54v-257.9c0-21.84-14.6-40.26-34.57-46.07v-9.72c0-7.4-6-13.4-13.4-13.4s-13.4,6-13.4,13.4
					v9.72c-19.97,5.8-34.57,24.22-34.57,46.07v257.9"/>
			</g>
			<line class="st0" x1="297.73" y1="409.53" x2="450.27" y2="409.53"/>
		</g>
	</g>
</g>
<g id="Text" class="st1">
</g>
</svg>
