<?xml version="1.0" encoding="utf-8"?>
<!-- Generator: Adobe Illustrator 24.1.0, SVG Export Plug-In . SVG Version: 6.00 Build 0)  -->
<svg version="1.1" xmlns="http://www.w3.org/2000/svg" xmlns:xlink="http://www.w3.org/1999/xlink" x="0px" y="0px"
	 viewBox="0 0 500 500" style="enable-background:new 0 0 500 500;" xml:space="preserve">
<style type="text/css">
	.st0{fill:none;stroke:#000000;stroke-width:16;stroke-miterlimit:10;}
	.st1{display:none;}
	.st2{display:inline;}
	.st3{fill:none;stroke:#D1D3D4;stroke-width:2;stroke-miterlimit:10;}
	.st4{display:inline;fill:none;stroke:#BCBEC0;stroke-width:4;stroke-miterlimit:10;}
	.st5{fill:none;stroke:#BCBEC0;stroke-width:4;stroke-miterlimit:10;}
	.st6{display:inline;fill:none;stroke:#D1D3D4;stroke-width:2;stroke-miterlimit:10;}
	.st7{display:none;opacity:0.35;fill:none;stroke:#000000;stroke-width:16;stroke-miterlimit:10;}
	.st8{fill:none;stroke:#000000;stroke-width:16;stroke-linejoin:bevel;stroke-miterlimit:10;}
	.st9{fill:none;stroke:#000000;stroke-width:16;stroke-linecap:square;stroke-miterlimit:10;}
	.st10{fill:none;stroke:#000000;stroke-width:16;stroke-linecap:round;stroke-miterlimit:10;}
	.st11{fill:none;stroke:#000000;stroke-width:8;stroke-miterlimit:10;}
</style>
<g id="Icons">
	<g>
		<g>
			<path class="st0" d="M330.97,408.2H181.03c-6.62,0-11.99-5.37-11.99-11.99v0c0-6.62,5.37-11.99,11.99-11.99h149.95
				c6.62,0,11.99,5.37,11.99,11.99v0C342.97,402.83,337.6,408.2,330.97,408.2z"/>
			<path class="st0" d="M350.25,432.19h-188.5c-6.62,0-11.99-5.37-11.99-11.99l0,0c0-6.62,5.37-11.99,11.99-11.99h188.5
				c6.62,0,11.99,5.37,11.99,11.99l0,0C362.25,426.82,356.88,432.19,350.25,432.19z"/>
			<path class="st0" d="M290.31,182.76h-68.63c-6.62,0-11.99-5.37-11.99-11.99v0c0-6.62,5.37-11.99,11.99-11.99h68.63
				c6.62,0,11.99,5.37,11.99,11.99v0C302.31,177.39,296.94,182.76,290.31,182.76z"/>
			<path class="st0" d="M303.85,206.74h-95.69c-6.62,0-11.99-5.37-11.99-11.99v0c0-6.62,5.37-11.99,11.99-11.99h95.69
				c6.62,0,11.99,5.37,11.99,11.99v0C315.84,201.37,310.47,206.74,303.85,206.74z"/>
			<polygon class="st0" points="295.3,66.81 288.3,86.8 266.99,86.8 266.99,66.81 245.01,66.81 245.01,86.8 223.7,86.8 216.7,66.81 
				188.45,66.81 218.97,158.77 293.03,158.77 323.55,66.81 			"/>
			<g>
				<line class="st0" x1="207.09" y1="206.74" x2="180.97" y2="384.22"/>
				<line class="st0" x1="304.91" y1="206.74" x2="331.03" y2="384.22"/>
			</g>
		</g>
	</g>
</g>
<g id="Text" class="st1">
</g>
</svg>
