<?xml version="1.0" encoding="utf-8"?>
<!-- Generator: Adobe Illustrator 24.1.0, SVG Export Plug-In . SVG Version: 6.00 Build 0)  -->
<svg version="1.1" xmlns="http://www.w3.org/2000/svg" xmlns:xlink="http://www.w3.org/1999/xlink" x="0px" y="0px"
	 viewBox="0 0 500 500" style="enable-background:new 0 0 500 500;" xml:space="preserve">
<style type="text/css">
	.st0{fill:none;stroke:#000000;stroke-width:16;stroke-miterlimit:10;}
	.st1{display:none;}
	.st2{display:inline;}
	.st3{fill:none;stroke:#D1D3D4;stroke-width:2;stroke-miterlimit:10;}
	.st4{display:inline;fill:none;stroke:#BCBEC0;stroke-width:4;stroke-miterlimit:10;}
	.st5{fill:none;stroke:#BCBEC0;stroke-width:4;stroke-miterlimit:10;}
	.st6{display:inline;fill:none;stroke:#D1D3D4;stroke-width:2;stroke-miterlimit:10;}
	.st7{display:none;opacity:0.35;fill:none;stroke:#000000;stroke-width:16;stroke-miterlimit:10;}
	.st8{fill:none;stroke:#000000;stroke-width:16;stroke-linejoin:bevel;stroke-miterlimit:10;}
	.st9{fill:none;stroke:#000000;stroke-width:16;stroke-linecap:square;stroke-miterlimit:10;}
	.st10{fill:none;stroke:#000000;stroke-width:16;stroke-linecap:round;stroke-miterlimit:10;}
	.st11{fill:none;stroke:#000000;stroke-width:8;stroke-miterlimit:10;}
</style>
<g id="Icons">
	<g>
		<g>
			<path class="st0" d="M171.09,357.99c0,56.1-45.48,101.58-101.58,101.58h0"/>
			<circle class="st0" cx="188.46" cy="169.61" r="24"/>
			<polyline class="st8" points="118.78,354.44 171.47,215.29 171.47,323.56 288.26,467.31 			"/>
			<line class="st0" x1="207.44" y1="214.59" x2="207.44" y2="322.54"/>
		</g>
		<g>
			<path class="st0" d="M328.43,264.66c0,45.89-37.2,83.1-83.1,83.1h0"/>
			<circle class="st0" cx="342.64" cy="110.55" r="19.63"/>
			<polyline class="st8" points="285.64,261.75 328.75,147.92 328.74,236.49 424.28,354.09 			"/>
			<line class="st0" x1="358.17" y1="147.34" x2="358.17" y2="235.65"/>
		</g>
		<path class="st0" d="M396.78,74.19c-33.04-25.99-74.71-41.5-120.01-41.5c-45.3,0-86.98,15.51-120.01,41.5"/>
	</g>
</g>
<g id="Text" class="st1">
</g>
</svg>
