<?xml version="1.0" encoding="utf-8"?>
<!-- Generator: Adobe Illustrator 24.1.0, SVG Export Plug-In . SVG Version: 6.00 Build 0)  -->
<svg version="1.1" xmlns="http://www.w3.org/2000/svg" xmlns:xlink="http://www.w3.org/1999/xlink" x="0px" y="0px"
	 viewBox="0 0 500 500" style="enable-background:new 0 0 500 500;" xml:space="preserve">
<style type="text/css">
	.st0{fill:none;stroke:#000000;stroke-width:16;stroke-miterlimit:10;}
	.st1{display:none;}
	.st2{display:inline;}
	.st3{fill:none;stroke:#D1D3D4;stroke-width:2;stroke-miterlimit:10;}
	.st4{display:inline;fill:none;stroke:#BCBEC0;stroke-width:4;stroke-miterlimit:10;}
	.st5{fill:none;stroke:#BCBEC0;stroke-width:4;stroke-miterlimit:10;}
	.st6{display:inline;fill:none;stroke:#D1D3D4;stroke-width:2;stroke-miterlimit:10;}
	.st7{display:none;opacity:0.35;fill:none;stroke:#000000;stroke-width:16;stroke-miterlimit:10;}
	.st8{fill:none;stroke:#000000;stroke-width:16;stroke-linejoin:bevel;stroke-miterlimit:10;}
	.st9{fill:none;stroke:#000000;stroke-width:16;stroke-linecap:square;stroke-miterlimit:10;}
	.st10{fill:none;stroke:#000000;stroke-width:16;stroke-linecap:round;stroke-miterlimit:10;}
	.st11{fill:none;stroke:#000000;stroke-width:8;stroke-miterlimit:10;}
</style>
<g id="Icons">
	<g>
		<g>
			<path class="st0" d="M289.26,395.83L289.26,395.83c0-17.49-12.41-32.53-29.58-35.84l-28.1-5.43
				c-49.57-9.58-69.43-69.81-35.28-106.99l108.84-118.48c19.51-21.24,30.34-49.03,30.34-77.87v0"/>
			<path class="st0" d="M394.26,328.11c0,29.78-24.14,53.93-53.93,53.93"/>
			<path class="st0" d="M284.88,324.53h55.45c6.15,0,11.14,4.99,11.14,11.14v0c0,6.15-4.99,11.14-11.14,11.14"/>
		</g>
		<g>
			<g>
				<path class="st0" d="M158.66,341.79c0,9.74-7.9,17.64-17.64,17.64h0c-9.74,0-17.64,7.9-17.64,17.64v0
					c0,9.74-7.9,17.64-17.64,17.64"/>
				<path class="st0" d="M185.69,368.83c0,9.74-7.9,17.64-17.64,17.64h0c-9.74,0-17.64,7.9-17.64,17.64v0
					c0,9.74-7.9,17.64-17.64,17.64"/>
				<path class="st0" d="M212.73,395.87c0,9.74-7.9,17.64-17.64,17.64h0c-9.74,0-17.64,7.9-17.64,17.64v0
					c0,9.74-7.9,17.64-17.64,17.64"/>
			</g>
		</g>
	</g>
</g>
<g id="Text" class="st1">
</g>
</svg>
