<?xml version="1.0" encoding="utf-8"?>
<!-- Generator: Adobe Illustrator 24.1.0, SVG Export Plug-In . SVG Version: 6.00 Build 0)  -->
<svg version="1.1" xmlns="http://www.w3.org/2000/svg" xmlns:xlink="http://www.w3.org/1999/xlink" x="0px" y="0px"
	 viewBox="0 0 500 500" style="enable-background:new 0 0 500 500;" xml:space="preserve">
<style type="text/css">
	.st0{fill:none;stroke:#000000;stroke-width:16;stroke-miterlimit:10;}
	.st1{display:none;}
	.st2{display:inline;}
	.st3{fill:none;stroke:#D1D3D4;stroke-width:2;stroke-miterlimit:10;}
	.st4{display:inline;fill:none;stroke:#BCBEC0;stroke-width:4;stroke-miterlimit:10;}
	.st5{fill:none;stroke:#BCBEC0;stroke-width:4;stroke-miterlimit:10;}
	.st6{display:inline;fill:none;stroke:#D1D3D4;stroke-width:2;stroke-miterlimit:10;}
	.st7{display:none;opacity:0.35;fill:none;stroke:#000000;stroke-width:16;stroke-miterlimit:10;}
	.st8{fill:none;stroke:#000000;stroke-width:16;stroke-linejoin:bevel;stroke-miterlimit:10;}
	.st9{fill:none;stroke:#000000;stroke-width:16;stroke-linecap:square;stroke-miterlimit:10;}
	.st10{fill:none;stroke:#000000;stroke-width:16;stroke-linecap:round;stroke-miterlimit:10;}
	.st11{fill:none;stroke:#000000;stroke-width:8;stroke-miterlimit:10;}
</style>
<g id="Icons">
	<g>
		<path class="st9" d="M286.02,413.19v13.03c0,6.5-5.27,11.76-11.76,11.76h-51.17c-6.5,0-11.76-5.27-11.76-11.76v-13.03"/>
		<line class="st10" x1="250" y1="62.02" x2="250" y2="75.26"/>
		<line class="st10" x1="329.17" y1="83.47" x2="322.51" y2="94.91"/>
		<line class="st10" x1="386.81" y1="141.82" x2="375.31" y2="148.36"/>
		<line class="st10" x1="407.3" y1="221.24" x2="394.06" y2="221.11"/>
		<line class="st10" x1="385.06" y1="300.19" x2="373.69" y2="293.42"/>
		<line class="st10" x1="326.13" y1="357.25" x2="319.71" y2="345.68"/>
		<path class="st9" d="M225.48,391.15h-15.06c-6.09,0-11.02,4.93-11.02,11.02v0c0,6.09,4.93,11.02,11.02,11.02h78.02
			c6.09,0,11.02-4.93,11.02-11.02v0c0-6.09-4.93-11.02-11.02-11.02h-15.06"/>
		<path class="st9" d="M211.33,391.15v-5.51c0-8.2,6.96-14.85,15.55-14.85h46.28c8.59,0,15.55,6.65,15.55,14.85v5.51"/>
		<path class="st9" d="M301.15,326.19c-7.02,10.51-11.01,22.75-11.54,35.38l-0.91,21.98v7.6"/>
		<path class="st9" d="M198.87,326.19c7.02,10.51,11.01,22.75,11.54,35.38l0.91,21.98v7.6"/>
		<path class="st0" d="M307.99,135.33v-1.62c0-16.01-12.98-28.99-28.99-28.99h0c-16.01,0-28.99,12.98-28.99,28.99v173.72
			c0,16.01,12.98,28.99,28.99,28.99h0c16.01,0,28.99-12.98,28.99-28.99"/>
		<path class="st0" d="M192.04,135.33v-1.62c0-16.01,12.98-28.99,28.99-28.99h0c16.01,0,28.99,12.98,28.99,28.99v173.72
			c0,16.01-12.98,28.99-28.99,28.99h0c-16.01,0-28.99-12.98-28.99-28.99"/>
		<path class="st0" d="M288.28,283.41c0.01,0.02,0.02,0.04,0.03,0.06l3.1,6.06c5.43,10.61,16.33,17.49,28.25,17.35
			c0.36,0,0.73-0.01,1.1-0.03c17.08-0.75,30.94-14.63,31.67-31.71c0.44-10.3-3.82-19.63-10.81-26
			c14.01-5.11,24.02-18.55,24.02-34.33c0-16.08-10.4-29.73-24.83-34.61c1.61-4.28,2.38-8.97,2.06-13.89
			c-1.08-16.75-14.78-30.21-31.55-30.98c-2.39-0.11-5.33,0.18-8.35,0.73c-6.85,1.26-13.96,7.66-17.28,15.21"/>
		<path class="st0" d="M212.02,283.41c-0.01,0.02-0.02,0.04-0.03,0.06l-3.1,6.06c-5.43,10.61-16.33,17.49-28.25,17.35
			c-0.36,0-0.73-0.01-1.1-0.03c-17.08-0.75-30.94-14.63-31.67-31.71c-0.44-10.3,3.82-19.63,10.81-26
			c-14.01-5.11-24.02-18.55-24.02-34.33c0-16.08,10.4-29.73,24.83-34.61c-1.61-4.28-2.38-8.97-2.06-13.89
			c1.08-16.75,14.78-30.21,31.55-30.98c2.39-0.11,5.33,0.18,8.35,0.73c6.85,1.26,13.96,7.66,17.28,15.21"/>
		<path class="st9" d="M250,266.27c0-11.31,2.59-25.6,15.09-29.08c12.5-3.48,22.62,3.27,27.28,12.3"/>
		<path class="st9" d="M248,227.85l-8.86-1.7c-10.88-1.7-20.27-8.83-25.15-19.09l-1.59-3.34c-2.91-6.11-7.88-10.88-13.97-13.4h0
			c-1.9-0.78-3.87-1.34-5.89-1.65l-0.51-0.08"/>
		<path class="st9" d="M250,185.69l2.04,0c10.44,0.02,20.66,3.83,28.7,11.15c2.94,2.68,8.55,9.86,8.55,9.86
			c3.43,4.04,8.03,6.65,13.01,7.4l0,0"/>
		<path class="st9" d="M222.27,218.64c0,0-6.49,9.37-19.74,15.28"/>
		<line class="st10" x1="329.17" y1="83.47" x2="322.51" y2="94.91"/>
		<line class="st10" x1="250" y1="62.02" x2="250" y2="75.26"/>
		<line class="st10" x1="170.83" y1="83.47" x2="177.49" y2="94.91"/>
		<line class="st10" x1="113.19" y1="141.82" x2="124.69" y2="148.36"/>
		<line class="st10" x1="92.7" y1="221.24" x2="105.94" y2="221.11"/>
		<line class="st10" x1="114.94" y1="300.19" x2="126.31" y2="293.42"/>
		<line class="st10" x1="173.87" y1="357.25" x2="180.29" y2="345.68"/>
	</g>
</g>
<g id="Text" class="st1">
</g>
</svg>
