<?xml version="1.0" encoding="utf-8"?>
<!-- Generator: Adobe Illustrator 24.1.0, SVG Export Plug-In . SVG Version: 6.00 Build 0)  -->
<svg version="1.1" xmlns="http://www.w3.org/2000/svg" xmlns:xlink="http://www.w3.org/1999/xlink" x="0px" y="0px"
	 viewBox="0 0 500 500" style="enable-background:new 0 0 500 500;" xml:space="preserve">
<style type="text/css">
	.st0{fill:none;stroke:#000000;stroke-width:16;stroke-miterlimit:10;}
	.st1{display:none;}
	.st2{display:inline;}
	.st3{fill:none;stroke:#D1D3D4;stroke-width:2;stroke-miterlimit:10;}
	.st4{display:inline;fill:none;stroke:#BCBEC0;stroke-width:4;stroke-miterlimit:10;}
	.st5{fill:none;stroke:#BCBEC0;stroke-width:4;stroke-miterlimit:10;}
	.st6{display:inline;fill:none;stroke:#D1D3D4;stroke-width:2;stroke-miterlimit:10;}
	.st7{display:none;opacity:0.35;fill:none;stroke:#000000;stroke-width:16;stroke-miterlimit:10;}
	.st8{fill:none;stroke:#000000;stroke-width:16;stroke-linejoin:bevel;stroke-miterlimit:10;}
	.st9{fill:none;stroke:#000000;stroke-width:16;stroke-linecap:square;stroke-miterlimit:10;}
	.st10{fill:none;stroke:#000000;stroke-width:16;stroke-linecap:round;stroke-miterlimit:10;}
	.st11{fill:none;stroke:#000000;stroke-width:8;stroke-miterlimit:10;}
</style>
<g id="Icons">
	<g>
		<g>
			<path class="st0" d="M314.41,326.72V108.32c0-16.63-13.48-30.12-30.12-30.12h0c-16.63,0-30.12,13.48-30.12,30.12v218.41
				c-16.6,10.39-27.46,29.1-26.7,50.29c1.07,30.06,25.87,54.33,55.95,54.78c31.8,0.48,57.73-25.16,57.73-56.85
				C341.15,354.6,330.47,336.77,314.41,326.72z"/>
			<circle class="st0" cx="284.3" cy="374.94" r="30.12"/>
			<line class="st0" x1="284.17" y1="121.18" x2="284.17" y2="345.07"/>
			<g>
				<line class="st0" x1="158.85" y1="188.36" x2="223.7" y2="188.36"/>
				<line class="st0" x1="158.85" y1="250.54" x2="223.7" y2="250.54"/>
				<line class="st0" x1="186.88" y1="281.63" x2="223.7" y2="281.63"/>
				<line class="st0" x1="186.88" y1="219.45" x2="223.7" y2="219.45"/>
				<line class="st0" x1="158.85" y1="126.18" x2="223.7" y2="126.18"/>
				<line class="st0" x1="186.88" y1="157.27" x2="223.7" y2="157.27"/>
				<line class="st0" x1="158.85" y1="312.73" x2="223.7" y2="312.73"/>
			</g>
		</g>
	</g>
</g>
<g id="Text" class="st1">
</g>
</svg>
