<?xml version="1.0" encoding="utf-8"?>
<!-- Generator: Adobe Illustrator 24.1.0, SVG Export Plug-In . SVG Version: 6.00 Build 0)  -->
<svg version="1.1" xmlns="http://www.w3.org/2000/svg" xmlns:xlink="http://www.w3.org/1999/xlink" x="0px" y="0px"
	 viewBox="0 0 500 500" style="enable-background:new 0 0 500 500;" xml:space="preserve">
<style type="text/css">
	.st0{fill:none;stroke:#000000;stroke-width:16;stroke-miterlimit:10;}
	.st1{display:none;}
	.st2{display:inline;}
	.st3{fill:none;stroke:#D1D3D4;stroke-width:2;stroke-miterlimit:10;}
	.st4{display:inline;fill:none;stroke:#BCBEC0;stroke-width:4;stroke-miterlimit:10;}
	.st5{fill:none;stroke:#BCBEC0;stroke-width:4;stroke-miterlimit:10;}
	.st6{display:inline;fill:none;stroke:#D1D3D4;stroke-width:2;stroke-miterlimit:10;}
	.st7{display:none;opacity:0.35;fill:none;stroke:#000000;stroke-width:16;stroke-miterlimit:10;}
	.st8{fill:none;stroke:#000000;stroke-width:16;stroke-linejoin:bevel;stroke-miterlimit:10;}
	.st9{fill:none;stroke:#000000;stroke-width:16;stroke-linecap:square;stroke-miterlimit:10;}
	.st10{fill:none;stroke:#000000;stroke-width:16;stroke-linecap:round;stroke-miterlimit:10;}
	.st11{fill:none;stroke:#000000;stroke-width:8;stroke-miterlimit:10;}
</style>
<g id="Icons">
	<g>
		<g>
			<g>
				<path class="st0" d="M249.83,114.85c-38.94,48.74-88.11,78.81-144.26,107.23l-9.02,177.63h306.56l-9.02-177.63
					C337.94,193.66,288.77,163.59,249.83,114.85z"/>
			</g>
			<g>
				<line class="st0" x1="106.69" y1="222.08" x2="174.1" y2="222.08"/>
			</g>
			<polyline class="st0" points="250.87,284.79 299.7,392.09 327.17,364.63 250.72,279.82 174.01,364.63 201.47,392.09 
				250.31,284.79 			"/>
			<path class="st0" d="M249.83,125.67L249.83,125.67c0,53.25,43.16,96.41,96.41,96.41h46.73"/>
			<g>
				<line class="st0" x1="394.65" y1="220.42" x2="462.69" y2="405.15"/>
			</g>
			<g>
				<line class="st0" x1="105.35" y1="220.42" x2="37.31" y2="405.15"/>
			</g>
		</g>
		<rect x="226.01" y="223.02" class="st0" width="47.98" height="23.99"/>
	</g>
</g>
<g id="Text" class="st1">
</g>
</svg>
