<?xml version="1.0" encoding="utf-8"?>
<!-- Generator: Adobe Illustrator 24.1.0, SVG Export Plug-In . SVG Version: 6.00 Build 0)  -->
<svg version="1.1" xmlns="http://www.w3.org/2000/svg" xmlns:xlink="http://www.w3.org/1999/xlink" x="0px" y="0px"
	 viewBox="0 0 500 500" style="enable-background:new 0 0 500 500;" xml:space="preserve">
<style type="text/css">
	.st0{fill:none;stroke:#000000;stroke-width:16;stroke-miterlimit:10;}
	.st1{display:none;}
	.st2{display:inline;}
	.st3{fill:none;stroke:#D1D3D4;stroke-width:2;stroke-miterlimit:10;}
	.st4{display:inline;fill:none;stroke:#BCBEC0;stroke-width:4;stroke-miterlimit:10;}
	.st5{fill:none;stroke:#BCBEC0;stroke-width:4;stroke-miterlimit:10;}
	.st6{display:inline;fill:none;stroke:#D1D3D4;stroke-width:2;stroke-miterlimit:10;}
	.st7{display:none;opacity:0.35;fill:none;stroke:#000000;stroke-width:16;stroke-miterlimit:10;}
	.st8{fill:none;stroke:#000000;stroke-width:16;stroke-linejoin:bevel;stroke-miterlimit:10;}
	.st9{fill:none;stroke:#000000;stroke-width:16;stroke-linecap:square;stroke-miterlimit:10;}
	.st10{fill:none;stroke:#000000;stroke-width:16;stroke-linecap:round;stroke-miterlimit:10;}
	.st11{fill:none;stroke:#000000;stroke-width:8;stroke-miterlimit:10;}
</style>
<g id="Icons">
	<g>
		<polyline class="st0" points="352.75,314.72 368.38,337.76 403.02,301.72 		"/>
		<polyline class="st0" points="411.37,288.35 411.37,92.29 74.76,92.29 74.76,328.97 123.36,328.97 142.58,387.71 161.79,328.97 
			329.97,328.97 		"/>
		<circle class="st0" cx="377.69" cy="320.89" r="47.56"/>
		<g>
			<line class="st0" x1="125.02" y1="172.18" x2="125.02" y2="248.17"/>
			<line class="st0" x1="146.58" y1="193.18" x2="146.58" y2="227.16"/>
			<line class="st0" x1="168.13" y1="180.44" x2="168.13" y2="239.9"/>
			<line class="st0" x1="189.69" y1="194.52" x2="189.69" y2="225.82"/>
			<line class="st0" x1="211.24" y1="172.48" x2="211.24" y2="247.86"/>
			<line class="st0" x1="232.8" y1="144.21" x2="232.8" y2="276.13"/>
			<line class="st0" x1="254.36" y1="172.18" x2="254.36" y2="248.17"/>
			<line class="st0" x1="275.91" y1="125.37" x2="275.91" y2="294.97"/>
			<line class="st0" x1="297.47" y1="144.21" x2="297.47" y2="276.13"/>
			<line class="st0" x1="319.02" y1="180.44" x2="319.02" y2="239.9"/>
			<line class="st0" x1="340.58" y1="193.18" x2="340.58" y2="227.16"/>
			<line class="st0" x1="362.14" y1="172.21" x2="362.14" y2="248.13"/>
		</g>
	</g>
</g>
<g id="Text" class="st1">
</g>
</svg>
