<?xml version="1.0" encoding="utf-8"?>
<!-- Generator: Adobe Illustrator 24.1.0, SVG Export Plug-In . SVG Version: 6.00 Build 0)  -->
<svg version="1.1" xmlns="http://www.w3.org/2000/svg" xmlns:xlink="http://www.w3.org/1999/xlink" x="0px" y="0px"
	 viewBox="0 0 500 500" style="enable-background:new 0 0 500 500;" xml:space="preserve">
<style type="text/css">
	.st0{fill:none;stroke:#000000;stroke-width:16;stroke-miterlimit:10;}
	.st1{display:none;}
	.st2{display:inline;}
	.st3{fill:none;stroke:#D1D3D4;stroke-width:2;stroke-miterlimit:10;}
	.st4{display:inline;fill:none;stroke:#BCBEC0;stroke-width:4;stroke-miterlimit:10;}
	.st5{fill:none;stroke:#BCBEC0;stroke-width:4;stroke-miterlimit:10;}
	.st6{display:inline;fill:none;stroke:#D1D3D4;stroke-width:2;stroke-miterlimit:10;}
	.st7{display:none;opacity:0.35;fill:none;stroke:#000000;stroke-width:16;stroke-miterlimit:10;}
	.st8{fill:none;stroke:#000000;stroke-width:16;stroke-linejoin:bevel;stroke-miterlimit:10;}
	.st9{fill:none;stroke:#000000;stroke-width:16;stroke-linecap:square;stroke-miterlimit:10;}
	.st10{fill:none;stroke:#000000;stroke-width:16;stroke-linecap:round;stroke-miterlimit:10;}
	.st11{fill:none;stroke:#000000;stroke-width:8;stroke-miterlimit:10;}
</style>
<g id="Icons">
	<g>
		<g>
			<g>
				<g>
					<line class="st0" x1="248.89" y1="193.87" x2="338.29" y2="193.87"/>
				</g>
				<g>
					<line class="st0" x1="248.89" y1="224.85" x2="338.29" y2="224.85"/>
				</g>
				<g>
					<line class="st0" x1="248.89" y1="255.83" x2="338.29" y2="255.83"/>
				</g>
				<g>
					<line class="st0" x1="142.72" y1="317.79" x2="338.29" y2="317.79"/>
				</g>
				<g>
					<line class="st0" x1="142.72" y1="286.81" x2="338.29" y2="286.81"/>
				</g>
				<g>
					<line class="st0" x1="142.72" y1="348.77" x2="338.29" y2="348.77"/>
				</g>
				<g>
					<rect x="149.9" y="162.89" class="st0" width="74.61" height="92.94"/>
					<g>
						<circle class="st0" cx="187.53" cy="200.07" r="15.7"/>
						<g>
							<polyline class="st0" points="209.85,254.74 202.6,239.5 202.08,239.5 202.08,259.23 							"/>
							<polyline class="st0" points="164.57,256.68 172.45,239.5 172.98,239.5 172.98,259.74 							"/>
						</g>
					</g>
				</g>
				<polyline class="st0" points="363.22,149.05 363.22,441.97 119.51,441.97 119.51,105.42 276.04,105.42 				"/>
				<polygon class="st0" points="183.06,416.81 144.67,378.42 183.06,378.42 				"/>
			</g>
			<g>
				<g>
					<circle class="st0" cx="328.26" cy="110.26" r="52.22"/>
				</g>
				<polyline class="st0" points="302.32,110.26 324.39,124.59 352.2,86.25 				"/>
			</g>
		</g>
	</g>
</g>
<g id="Text" class="st1">
</g>
</svg>
