<?xml version="1.0" encoding="utf-8"?>
<!-- Generator: Adobe Illustrator 24.1.0, SVG Export Plug-In . SVG Version: 6.00 Build 0)  -->
<svg version="1.1" xmlns="http://www.w3.org/2000/svg" xmlns:xlink="http://www.w3.org/1999/xlink" x="0px" y="0px"
	 viewBox="0 0 500 500" style="enable-background:new 0 0 500 500;" xml:space="preserve">
<style type="text/css">
	.st0{fill:none;stroke:#000000;stroke-width:16;stroke-miterlimit:10;}
	.st1{display:none;}
	.st2{display:inline;}
	.st3{fill:none;stroke:#D1D3D4;stroke-width:2;stroke-miterlimit:10;}
	.st4{display:inline;fill:none;stroke:#BCBEC0;stroke-width:4;stroke-miterlimit:10;}
	.st5{fill:none;stroke:#BCBEC0;stroke-width:4;stroke-miterlimit:10;}
	.st6{display:inline;fill:none;stroke:#D1D3D4;stroke-width:2;stroke-miterlimit:10;}
	.st7{display:none;opacity:0.35;fill:none;stroke:#000000;stroke-width:16;stroke-miterlimit:10;}
	.st8{fill:none;stroke:#000000;stroke-width:16;stroke-linejoin:bevel;stroke-miterlimit:10;}
	.st9{fill:none;stroke:#000000;stroke-width:16;stroke-linecap:square;stroke-miterlimit:10;}
	.st10{fill:none;stroke:#000000;stroke-width:16;stroke-linecap:round;stroke-miterlimit:10;}
	.st11{fill:none;stroke:#000000;stroke-width:8;stroke-miterlimit:10;}
</style>
<g id="Icons">
	<g>
		<g>
			<g>
				<circle class="st0" cx="385.82" cy="178.88" r="36.14"/>
				<circle class="st0" cx="385.82" cy="178.88" r="13.46"/>
			</g>
			<g>
				<path class="st0" d="M174.45,80.65l-15.2-1.27c-6.59-0.55-11.65-6.06-11.65-12.67v0c0-6.61,5.07-12.12,11.65-12.67l15.2-1.27
					c7.13-0.59,13.25,5.03,13.25,12.19v3.48C187.7,75.61,181.58,81.24,174.45,80.65z"/>
				<path class="st0" d="M147.6,66.71l-16.46-0.01c-21.31-0.01-36.95,20.01-31.78,40.68l30.58,122.23"/>
				<path class="st0" d="M229.34,80.65l15.2-1.27c6.59-0.55,11.65-6.06,11.65-12.67v0c0-6.61-5.07-12.12-11.65-12.67l-15.2-1.27
					c-7.13-0.59-13.25,5.03-13.25,12.19v3.48C216.09,75.61,222.21,81.24,229.34,80.65z"/>
				<path class="st0" d="M256.19,66.71l16.65-0.01c21.25-0.01,36.88,19.9,31.81,40.54l-30.04,122.37"/>
			</g>
			<path class="st0" d="M388.37,215.02V385.7c0,34-27.56,61.56-61.56,61.56H263c-34,0-61.56-27.56-61.56-61.56v-11.36"/>
			<path class="st0" d="M274.83,230.7L274.83,230.7c-5.27-3.1-11.99-2-16,2.61c-13.84,15.88-34.21,25.92-56.93,25.92
				s-43.09-10.04-56.93-25.92c-4.02-4.61-10.74-5.71-16-2.61l0,0c-6.92,4.08-8.31,13.46-2.95,19.45
				c15.6,17.46,37.14,29.49,61.44,32.95v91.24h25.86v-90.85c25.55-2.85,48.24-15.15,64.49-33.34
				C283.14,244.16,281.76,234.79,274.83,230.7z"/>
		</g>
	</g>
</g>
<g id="Text" class="st1">
</g>
</svg>
