<?xml version="1.0" encoding="utf-8"?>
<!-- Generator: Adobe Illustrator 24.1.0, SVG Export Plug-In . SVG Version: 6.00 Build 0)  -->
<svg version="1.1" xmlns="http://www.w3.org/2000/svg" xmlns:xlink="http://www.w3.org/1999/xlink" x="0px" y="0px"
	 viewBox="0 0 500 500" style="enable-background:new 0 0 500 500;" xml:space="preserve">
<style type="text/css">
	.st0{fill:none;stroke:#000000;stroke-width:16;stroke-miterlimit:10;}
	.st1{display:none;}
	.st2{display:inline;}
	.st3{fill:none;stroke:#D1D3D4;stroke-width:2;stroke-miterlimit:10;}
	.st4{display:inline;fill:none;stroke:#BCBEC0;stroke-width:4;stroke-miterlimit:10;}
	.st5{fill:none;stroke:#BCBEC0;stroke-width:4;stroke-miterlimit:10;}
	.st6{display:inline;fill:none;stroke:#D1D3D4;stroke-width:2;stroke-miterlimit:10;}
	.st7{display:none;opacity:0.35;fill:none;stroke:#000000;stroke-width:16;stroke-miterlimit:10;}
	.st8{fill:none;stroke:#000000;stroke-width:16;stroke-linejoin:bevel;stroke-miterlimit:10;}
	.st9{fill:none;stroke:#000000;stroke-width:16;stroke-linecap:square;stroke-miterlimit:10;}
	.st10{fill:none;stroke:#000000;stroke-width:16;stroke-linecap:round;stroke-miterlimit:10;}
	.st11{fill:none;stroke:#000000;stroke-width:8;stroke-miterlimit:10;}
</style>
<g id="Icons">
	<g>
		<g>
			<g>
				<path class="st0" d="M207.17,448.37l0-162.68c0-19.83,16.18-35.84,36.01-35.64h24.41c19.83-0.21,36.01,15.81,36.01,35.64v116.36
					"/>
				<circle class="st0" cx="287.09" cy="159.48" r="24"/>
				<circle class="st0" cx="303.6" cy="424.63" r="17.42"/>
				<path class="st0" d="M158.98,448.37l0.25-154.3c0.06-52.89,43.24-95.59,96.13-95.06h0v33.05"/>
				<line class="st0" x1="212.08" y1="336.05" x2="303.6" y2="336.05"/>
				<line class="st0" x1="255.38" y1="268.05" x2="255.38" y2="316.02"/>
			</g>
			<path class="st0" d="M370.01,91.52C336.98,65.53,295.3,50.02,250,50.02c-45.3,0-86.98,15.51-120.01,41.5"/>
		</g>
	</g>
</g>
<g id="Text" class="st1">
</g>
</svg>
