<?xml version="1.0" encoding="utf-8"?>
<!-- Generator: Adobe Illustrator 24.1.0, SVG Export Plug-In . SVG Version: 6.00 Build 0)  -->
<svg version="1.1" xmlns="http://www.w3.org/2000/svg" xmlns:xlink="http://www.w3.org/1999/xlink" x="0px" y="0px"
	 viewBox="0 0 500 500" style="enable-background:new 0 0 500 500;" xml:space="preserve">
<style type="text/css">
	.st0{fill:none;stroke:#000000;stroke-width:16;stroke-miterlimit:10;}
	.st1{display:none;}
	.st2{display:inline;}
	.st3{fill:none;stroke:#D1D3D4;stroke-width:2;stroke-miterlimit:10;}
	.st4{display:inline;fill:none;stroke:#BCBEC0;stroke-width:4;stroke-miterlimit:10;}
	.st5{fill:none;stroke:#BCBEC0;stroke-width:4;stroke-miterlimit:10;}
	.st6{display:inline;fill:none;stroke:#D1D3D4;stroke-width:2;stroke-miterlimit:10;}
	.st7{display:none;opacity:0.35;fill:none;stroke:#000000;stroke-width:16;stroke-miterlimit:10;}
	.st8{fill:none;stroke:#000000;stroke-width:16;stroke-linejoin:bevel;stroke-miterlimit:10;}
	.st9{fill:none;stroke:#000000;stroke-width:16;stroke-linecap:square;stroke-miterlimit:10;}
	.st10{fill:none;stroke:#000000;stroke-width:16;stroke-linecap:round;stroke-miterlimit:10;}
	.st11{fill:none;stroke:#000000;stroke-width:8;stroke-miterlimit:10;}
</style>
<g id="Icons">
	<g>
		<g>
			<path class="st10" d="M420.92,245.9l-64.11-40.27c-25.25-15.86-56.95-17.4-83.63-4.06l-11.93,7.25l-12.78-7.25
				c-26.67-13.34-58.37-11.8-83.62,4.06l-64.11,40.27c0,0,46.69,87.34,155.94,91.61l8.31,0C374.23,333.24,420.92,245.9,420.92,245.9
				z"/>
			<g>
				<path class="st0" d="M420.86,245.9L420.86,245.9L420.86,245.9L420.86,245.9L420.86,245.9c-0.05,0.01-85.82,15.76-112.51,18.38
					c-12.28,1.21-30.45,2.14-47.52,2.42l0,0c-17.07-0.27-35.24-1.21-47.52-2.42c-26.69-2.62-112.46-18.37-112.51-18.38l0,0v0v0v0"/>
			</g>
		</g>
	</g>
</g>
<g id="Text" class="st1">
</g>
</svg>
