<?xml version="1.0" encoding="utf-8"?>
<!-- Generator: Adobe Illustrator 24.1.0, SVG Export Plug-In . SVG Version: 6.00 Build 0)  -->
<svg version="1.1" xmlns="http://www.w3.org/2000/svg" xmlns:xlink="http://www.w3.org/1999/xlink" x="0px" y="0px"
	 viewBox="0 0 500 500" style="enable-background:new 0 0 500 500;" xml:space="preserve">
<style type="text/css">
	.st0{fill:none;stroke:#000000;stroke-width:16;stroke-miterlimit:10;}
	.st1{display:none;}
	.st2{display:inline;}
	.st3{fill:none;stroke:#D1D3D4;stroke-width:2;stroke-miterlimit:10;}
	.st4{display:inline;fill:none;stroke:#BCBEC0;stroke-width:4;stroke-miterlimit:10;}
	.st5{fill:none;stroke:#BCBEC0;stroke-width:4;stroke-miterlimit:10;}
	.st6{display:inline;fill:none;stroke:#D1D3D4;stroke-width:2;stroke-miterlimit:10;}
	.st7{display:none;opacity:0.35;fill:none;stroke:#000000;stroke-width:16;stroke-miterlimit:10;}
	.st8{fill:none;stroke:#000000;stroke-width:16;stroke-linejoin:bevel;stroke-miterlimit:10;}
	.st9{fill:none;stroke:#000000;stroke-width:16;stroke-linecap:square;stroke-miterlimit:10;}
	.st10{fill:none;stroke:#000000;stroke-width:16;stroke-linecap:round;stroke-miterlimit:10;}
	.st11{fill:none;stroke:#000000;stroke-width:8;stroke-miterlimit:10;}
</style>
<g id="Icons">
	<g>
		<g>
			<path class="st10" d="M419.81,234.23l-64.11-40.27c-25.25-15.86-56.95-17.4-83.63-4.06l-16.99,8.5l-12.61-6.96
				c-28.25-15.59-62.88-13.92-89.5,4.32l-53.35,36.54c0,0,40.73,93.72,155.93,93.72S419.81,234.23,419.81,234.23z"/>
		</g>
		<path class="st0" d="M174.13,186.81c-21.19,21.95-43.19,42.95-64.81,64.81"/>
		<path class="st0" d="M214.83,183.86c-28.89,28.91-57.89,57.91-86.55,86.55"/>
		<path class="st0" d="M244.72,191.72c-31.78,32.05-63.78,64.05-95.38,95.69"/>
		<path class="st0" d="M289.65,184.54c-40.71,39.22-79.71,80.22-120.17,120.32"/>
		<g>
			<polyline class="st0" points="390.88,121.06 335.03,176.91 188.85,323.1 133,378.94 			"/>
		</g>
		<path class="st0" d="M419.81,234.23c0,0-52.5,12.25-108.51,18.38c-18.67,2.04-37.73,3.4-55.37,3.4"/>
	</g>
</g>
<g id="Text" class="st1">
</g>
</svg>
