<?xml version="1.0" encoding="utf-8"?>
<!-- Generator: Adobe Illustrator 24.1.0, SVG Export Plug-In . SVG Version: 6.00 Build 0)  -->
<svg version="1.1" xmlns="http://www.w3.org/2000/svg" xmlns:xlink="http://www.w3.org/1999/xlink" x="0px" y="0px"
	 viewBox="0 0 500 500" style="enable-background:new 0 0 500 500;" xml:space="preserve">
<style type="text/css">
	.st0{fill:none;stroke:#000000;stroke-width:16;stroke-miterlimit:10;}
	.st1{display:none;}
	.st2{display:inline;}
	.st3{fill:none;stroke:#D1D3D4;stroke-width:2;stroke-miterlimit:10;}
	.st4{display:inline;fill:none;stroke:#BCBEC0;stroke-width:4;stroke-miterlimit:10;}
	.st5{fill:none;stroke:#BCBEC0;stroke-width:4;stroke-miterlimit:10;}
	.st6{display:inline;fill:none;stroke:#D1D3D4;stroke-width:2;stroke-miterlimit:10;}
	.st7{display:none;opacity:0.35;fill:none;stroke:#000000;stroke-width:16;stroke-miterlimit:10;}
	.st8{fill:none;stroke:#000000;stroke-width:16;stroke-linejoin:bevel;stroke-miterlimit:10;}
	.st9{fill:none;stroke:#000000;stroke-width:16;stroke-linecap:square;stroke-miterlimit:10;}
	.st10{fill:none;stroke:#000000;stroke-width:16;stroke-linecap:round;stroke-miterlimit:10;}
	.st11{fill:none;stroke:#000000;stroke-width:8;stroke-miterlimit:10;}
</style>
<g id="Icons">
	<g>
		<g>
			<g>
				<path class="st0" d="M189.75,350.42l-14.97-76.07c-1.37-5.57,2.03-11.2,7.6-12.57s11.2,2.03,12.57,7.6l15.16,62.14
					c3.84-1.62,5.32-2.13,9.42-3.2l-0.92-82.94c-0.18-5.73,4.33-10.52,10.06-10.7c5.73-0.18,10.52,4.33,10.7,10.06l3.67,79.91
					c1.68-0.05,8.32,0.27,10.78,0.55l9.71-64.57c0.85-5.67,6.14-9.58,11.81-8.73c5.67,0.85,9.58,6.14,8.73,11.81l-8.94,66.7
					c3.46,1.26,5.7,2.26,8.94,3.94l20.63-45.66c1.86-4.53,7.04-6.69,11.57-4.83s6.69,7.04,4.83,11.57l-35.24,128.56
					c-4.07,14.83-17.33,25.28-32.71,25.76l-48.74,1.51l-75.24-107.85c7.62-8.28,20.54-8.75,28.75-1.04L194.73,377"/>
			</g>
			<g>
				<path class="st0" d="M315.84,259.16l-26.2-35.77c-6.61-9.11-19.39-11.07-28.43-4.37l9.12,18.08"/>
				<path class="st0" d="M319.41,237.25l-0.45-77.52c-0.3-5.73,4.1-10.62,9.82-10.92c5.73-0.3,10.62,4.1,10.92,9.82l3.24,63.88
					c4.08-0.87,5.63-1.09,9.86-1.37l14.65-81.64c0.9-5.66,6.22-9.53,11.89-8.63c5.66,0.9,9.53,6.22,8.63,11.89l-11.38,79.18
					c1.66,0.26,8.13,1.83,10.49,2.56l21.64-61.6c1.9-5.41,7.83-8.26,13.24-6.36c5.41,1.9,8.26,7.83,6.36,13.24l-21.29,63.84
					c3.17,1.89,5.17,3.29,8.04,5.55l28.82-40.98c2.68-4.1,8.17-5.25,12.27-2.57c4.1,2.68,5.25,8.17,2.57,12.27l-58.72,119.68
					c-6.78,13.81-21.76,21.59-36.96,19.17l-35.7-5.99"/>
			</g>
			<g>
				<path class="st0" d="M120.71,330.44l-78.24-93.36c7.62-8.28,20.54-8.75,28.75-1.04l36.82,34.61"/>
				<path class="st0" d="M103.06,244.07L88.08,168c-1.37-5.57,2.03-11.2,7.6-12.57c5.57-1.37,11.2,2.03,12.57,7.6l15.16,62.14
					c3.84-1.62,5.32-2.13,9.42-3.2l-0.92-82.94c-0.18-5.73,4.33-10.52,10.06-10.7c5.73-0.18,10.52,4.33,10.7,10.06l3.67,79.91
					c1.68-0.05,8.32,0.27,10.78,0.55l9.71-64.57c0.85-5.67,6.14-9.58,11.81-8.73c5.67,0.85,9.58,6.14,8.73,11.81l-8.94,66.7
					c3.46,1.26,5.7,2.26,8.94,3.94L218,182.35c1.86-4.53,7.04-6.69,11.57-4.83c4.53,1.86,6.69,7.04,4.83,11.57l-8.94,32.61"/>
			</g>
		</g>
		<path class="st0" d="M371.34,90.22c-33.04-25.99-74.71-41.5-120.01-41.5c-45.3,0-86.98,15.51-120.01,41.5"/>
	</g>
</g>
<g id="Text" class="st1">
</g>
</svg>
