<?xml version="1.0" encoding="utf-8"?>
<!-- Generator: Adobe Illustrator 24.1.0, SVG Export Plug-In . SVG Version: 6.00 Build 0)  -->
<svg version="1.1" xmlns="http://www.w3.org/2000/svg" xmlns:xlink="http://www.w3.org/1999/xlink" x="0px" y="0px"
	 viewBox="0 0 500 500" style="enable-background:new 0 0 500 500;" xml:space="preserve">
<style type="text/css">
	.st0{fill:none;stroke:#000000;stroke-width:16;stroke-miterlimit:10;}
	.st1{display:none;}
	.st2{display:inline;}
	.st3{fill:none;stroke:#D1D3D4;stroke-width:2;stroke-miterlimit:10;}
	.st4{display:inline;fill:none;stroke:#BCBEC0;stroke-width:4;stroke-miterlimit:10;}
	.st5{fill:none;stroke:#BCBEC0;stroke-width:4;stroke-miterlimit:10;}
	.st6{display:inline;fill:none;stroke:#D1D3D4;stroke-width:2;stroke-miterlimit:10;}
	.st7{display:none;opacity:0.35;fill:none;stroke:#000000;stroke-width:16;stroke-miterlimit:10;}
	.st8{fill:none;stroke:#000000;stroke-width:16;stroke-linejoin:bevel;stroke-miterlimit:10;}
	.st9{fill:none;stroke:#000000;stroke-width:16;stroke-linecap:square;stroke-miterlimit:10;}
	.st10{fill:none;stroke:#000000;stroke-width:16;stroke-linecap:round;stroke-miterlimit:10;}
	.st11{fill:none;stroke:#000000;stroke-width:8;stroke-miterlimit:10;}
</style>
<g id="Icons">
	<g>
		<g>
			<g>
				<path class="st0" d="M153.16,353.71c0,49.48-40.11,89.58-89.58,89.58h0"/>
				<circle class="st0" cx="200.53" cy="175.32" r="24"/>
			</g>
			<path class="st8" d="M211.38,462.16l27.86-71c0-14.75-7.91-28.37-20.72-35.68L144,318.84L174,220.57"/>
			<path class="st0" d="M179.97,317.82l30.11-89.95h0.55l-0.66,12.49c0,40.52,32.85,73.37,73.37,73.37h0"/>
		</g>
		<g>
			<g>
				<path class="st0" d="M326.12,281.56c0,41.92-33.98,75.9-75.9,75.9h0"/>
				<circle class="st0" cx="366.25" cy="130.42" r="20.33"/>
			</g>
			<path class="st8" d="M343.77,168.76l-25.42,83.26l63.15,31.04c10.85,6.2,17.55,17.73,17.55,30.23l-23.61,60.16"/>
			<path class="st0" d="M348.83,251.15l25.51-76.21h0.47l-0.56,10.58c0,34.33,27.83,62.17,62.17,62.17h0"/>
		</g>
		<path class="st0" d="M401.45,79.34c-33.04-25.99-74.71-41.5-120.01-41.5c-45.3,0-86.98,15.51-120.01,41.5"/>
	</g>
</g>
<g id="Text" class="st1">
</g>
</svg>
