<?xml version="1.0" encoding="utf-8"?>
<!-- Generator: Adobe Illustrator 24.1.0, SVG Export Plug-In . SVG Version: 6.00 Build 0)  -->
<svg version="1.1" xmlns="http://www.w3.org/2000/svg" xmlns:xlink="http://www.w3.org/1999/xlink" x="0px" y="0px"
	 viewBox="0 0 500 500" style="enable-background:new 0 0 500 500;" xml:space="preserve">
<style type="text/css">
	.st0{fill:none;stroke:#000000;stroke-width:16;stroke-miterlimit:10;}
	.st1{display:none;}
	.st2{display:inline;}
	.st3{fill:none;stroke:#D1D3D4;stroke-width:2;stroke-miterlimit:10;}
	.st4{display:inline;fill:none;stroke:#BCBEC0;stroke-width:4;stroke-miterlimit:10;}
	.st5{fill:none;stroke:#BCBEC0;stroke-width:4;stroke-miterlimit:10;}
	.st6{display:inline;fill:none;stroke:#D1D3D4;stroke-width:2;stroke-miterlimit:10;}
	.st7{display:none;opacity:0.35;fill:none;stroke:#000000;stroke-width:16;stroke-miterlimit:10;}
	.st8{fill:none;stroke:#000000;stroke-width:16;stroke-linejoin:bevel;stroke-miterlimit:10;}
	.st9{fill:none;stroke:#000000;stroke-width:16;stroke-linecap:square;stroke-miterlimit:10;}
	.st10{fill:none;stroke:#000000;stroke-width:16;stroke-linecap:round;stroke-miterlimit:10;}
	.st11{fill:none;stroke:#000000;stroke-width:8;stroke-miterlimit:10;}
</style>
<g id="Icons">
	<g>
		<g>
			<g>
				<path class="st0" d="M347.24,359.03c-55.31-49.41-139.18-49.41-194.48,0"/>
				<ellipse class="st0" cx="250" cy="250" rx="80.44" ry="146.1"/>
				<line class="st0" x1="104.15" y1="250" x2="395.85" y2="250"/>
				<line class="st0" x1="250" y1="390.6" x2="250" y2="98.9"/>
				<path class="st0" d="M152.76,140.97c55.31,49.41,139.18,49.41,194.48,0"/>
				<circle class="st0" cx="250" cy="250" r="146.1"/>
				<path class="st0" d="M256.01,103.89c13.62-6.87,27.4-12.41,41.09-16.38c89.74-26.01,141.4,25.65,115.39,115.39
					c-26.01,89.74-119.84,183.57-209.58,209.58c-89.74,26.01-141.4-25.65-115.39-115.39c5.06-17.47,12.7-35.1,22.37-52.35"/>
			</g>
			<circle class="st0" cx="397.82" cy="397.82" r="21.39"/>
		</g>
	</g>
</g>
<g id="Text" class="st1">
</g>
</svg>
