<?xml version="1.0" encoding="utf-8"?>
<!-- Generator: Adobe Illustrator 24.1.0, SVG Export Plug-In . SVG Version: 6.00 Build 0)  -->
<svg version="1.1" xmlns="http://www.w3.org/2000/svg" xmlns:xlink="http://www.w3.org/1999/xlink" x="0px" y="0px"
	 viewBox="0 0 500 500" style="enable-background:new 0 0 500 500;" xml:space="preserve">
<style type="text/css">
	.st0{fill:none;stroke:#000000;stroke-width:16;stroke-miterlimit:10;}
	.st1{display:none;}
	.st2{display:inline;}
	.st3{fill:none;stroke:#D1D3D4;stroke-width:2;stroke-miterlimit:10;}
	.st4{display:inline;fill:none;stroke:#BCBEC0;stroke-width:4;stroke-miterlimit:10;}
	.st5{fill:none;stroke:#BCBEC0;stroke-width:4;stroke-miterlimit:10;}
	.st6{display:inline;fill:none;stroke:#D1D3D4;stroke-width:2;stroke-miterlimit:10;}
	.st7{display:none;opacity:0.35;fill:none;stroke:#000000;stroke-width:16;stroke-miterlimit:10;}
	.st8{fill:none;stroke:#000000;stroke-width:16;stroke-linejoin:bevel;stroke-miterlimit:10;}
	.st9{fill:none;stroke:#000000;stroke-width:16;stroke-linecap:square;stroke-miterlimit:10;}
	.st10{fill:none;stroke:#000000;stroke-width:16;stroke-linecap:round;stroke-miterlimit:10;}
	.st11{fill:none;stroke:#000000;stroke-width:8;stroke-miterlimit:10;}
</style>
<g id="Icons">
	<g>
		<path class="st0" d="M172.31,345.81c1.25,12.88,12.07,22.7,25.01,22.7h105.35c12.94,0,23.76-9.82,25.01-22.7"/>
		<polygon class="st0" points="321.99,404.49 178.01,404.49 148.01,95.51 351.99,95.51 		"/>
		<line class="st0" x1="160.08" y1="176.6" x2="339.99" y2="176.6"/>
		<path class="st0" d="M273.25,301.51c-9.36,0-16.96-7.59-16.96-16.96"/>
		<path class="st0" d="M230.56,260.84c0,9.36-7.59,16.96-16.96,16.96"/>
		<path class="st0" d="M184.07,284.55c9.36,0,16.96,7.59,16.96,16.96"/>
		<path class="st0" d="M296.53,233.04c9.36,0,16.96,7.59,16.96,16.96c0,9.36-7.59,16.96-16.96,16.96"/>
		<path class="st0" d="M282.87,232.65c-9.36,0-16.96-7.59-16.96-16.96s7.59-16.96,16.96-16.96"/>
		<path class="st0" d="M221.05,345.81c0-9.36,7.59-16.96,16.96-16.96s16.96,7.59,16.96,16.96"/>
		<path class="st0" d="M219.98,221.1c0,9.36-7.59,16.96-16.96,16.96c-9.36,0-16.96-7.59-16.96-16.96"/>
		<path class="st0" d="M291.02,345.81c0-9.36,7.59-16.96,16.96-16.96"/>
		<rect x="192.97" y="315.6" width="16.11" height="16.11"/>
		<rect x="260.97" y="252.51" width="16.11" height="16.11"/>
		<rect x="303.43" y="194.26" width="16.11" height="16.11"/>
		<rect x="176.01" y="192.54" width="16.11" height="16.11"/>
		<rect x="235.52" y="232.45" width="16.11" height="16.11"/>
		<rect x="222.99" y="296.24" width="16.11" height="16.11"/>
		<rect x="291.44" y="288.49" width="16.11" height="16.11"/>
		<rect x="211" y="192.54" width="16.11" height="16.11"/>
	</g>
</g>
<g id="Text" class="st1">
</g>
</svg>
