<?xml version="1.0" encoding="utf-8"?>
<!-- Generator: Adobe Illustrator 24.1.0, SVG Export Plug-In . SVG Version: 6.00 Build 0)  -->
<svg version="1.1" xmlns="http://www.w3.org/2000/svg" xmlns:xlink="http://www.w3.org/1999/xlink" x="0px" y="0px"
	 viewBox="0 0 500 500" style="enable-background:new 0 0 500 500;" xml:space="preserve">
<style type="text/css">
	.st0{fill:none;stroke:#000000;stroke-width:16;stroke-miterlimit:10;}
	.st1{display:none;}
	.st2{display:inline;}
	.st3{fill:none;stroke:#D1D3D4;stroke-width:2;stroke-miterlimit:10;}
	.st4{display:inline;fill:none;stroke:#BCBEC0;stroke-width:4;stroke-miterlimit:10;}
	.st5{fill:none;stroke:#BCBEC0;stroke-width:4;stroke-miterlimit:10;}
	.st6{display:inline;fill:none;stroke:#D1D3D4;stroke-width:2;stroke-miterlimit:10;}
	.st7{display:none;opacity:0.35;fill:none;stroke:#000000;stroke-width:16;stroke-miterlimit:10;}
	.st8{fill:none;stroke:#000000;stroke-width:16;stroke-linejoin:bevel;stroke-miterlimit:10;}
	.st9{fill:none;stroke:#000000;stroke-width:16;stroke-linecap:square;stroke-miterlimit:10;}
	.st10{fill:none;stroke:#000000;stroke-width:16;stroke-linecap:round;stroke-miterlimit:10;}
	.st11{fill:none;stroke:#000000;stroke-width:8;stroke-miterlimit:10;}
</style>
<g id="Icons">
	<g>
		<path class="st0" d="M118.24,268.25c3.2-1.89,6.97-3,10.58-3c11.14,0,20.16,9.03,20.16,20.16s-9.03,20.16-20.16,20.16
			c-11.14,0-20.16-9.03-20.16-20.16C108.65,278.16,112.49,271.8,118.24,268.25"/>
		<path class="st0" d="M363.47,274.57c2.02-1.2,4.4-1.89,6.69-1.89c7.04,0,12.74,5.71,12.74,12.74s-5.71,12.74-12.74,12.74
			s-12.74-5.71-12.74-12.74C357.41,280.83,359.83,276.81,363.47,274.57"/>
		<path class="st0" d="M350.53,211.88c40.61-10.84,82.32,13.29,93.17,53.9c10.84,40.61-13.29,82.32-53.9,93.17
			s-82.32-13.29-93.17-53.9c-7.06-26.46,0.72-53.38,18.23-71.94c0,0,4.78-5.02,8.69-7.92"/>
		<path class="st0" d="M174.6,223.87c33.99,24.72,41.51,72.32,16.78,106.32s-72.32,41.51-106.32,16.78
			c-33.99-24.72-41.51-72.32-16.78-106.32c16.11-22.15,41.93-33.05,67.37-31.13c0,0,6.91,0.55,11.62,1.76"/>
		<path class="st0" d="M239.86,269.11c3.04-1.8,6.62-2.85,10.05-2.85c10.58,0,19.15,8.57,19.15,19.15s-8.57,19.15-19.15,19.15
			c-10.58,0-19.15-8.57-19.15-19.15C230.76,278.53,234.4,272.49,239.86,269.11"/>
		<line class="st0" x1="246.91" y1="297.42" x2="227.76" y2="341.73"/>
		<line class="st0" x1="186.43" y1="151.33" x2="241.91" y2="267.73"/>
		<line class="st0" x1="202.08" y1="185.82" x2="135.13" y2="266.27"/>
		<line class="st0" x1="336.08" y1="172.04" x2="216.44" y2="214.29"/>
		<path class="st0" d="M370.62,169.83v-18.45c0-7.14-5.79-12.93-12.93-12.93h-14.04c-8.68,0-14.89,8.38-12.37,16.68L367,272.8"/>
		<path class="st0" d="M340.07,188.07L340.07,188.07c-40.78,13.46-68.98,50.74-70.85,93.64l-0.16,3.71"/>
		<line class="st0" x1="167.57" y1="151.33" x2="210.72" y2="151.33"/>
		<line class="st0" x1="208.49" y1="336.73" x2="234.84" y2="336.73"/>
		<line class="st0" x1="230.76" y1="285.42" x2="148.98" y2="285.42"/>
	</g>
</g>
<g id="Text" class="st1">
</g>
</svg>
