<?xml version="1.0" encoding="utf-8"?>
<!-- Generator: Adobe Illustrator 24.1.0, SVG Export Plug-In . SVG Version: 6.00 Build 0)  -->
<svg version="1.1" xmlns="http://www.w3.org/2000/svg" xmlns:xlink="http://www.w3.org/1999/xlink" x="0px" y="0px"
	 viewBox="0 0 500 500" style="enable-background:new 0 0 500 500;" xml:space="preserve">
<style type="text/css">
	.st0{fill:none;stroke:#000000;stroke-width:16;stroke-miterlimit:10;}
	.st1{display:none;}
	.st2{display:inline;}
	.st3{fill:none;stroke:#D1D3D4;stroke-width:2;stroke-miterlimit:10;}
	.st4{display:inline;fill:none;stroke:#BCBEC0;stroke-width:4;stroke-miterlimit:10;}
	.st5{fill:none;stroke:#BCBEC0;stroke-width:4;stroke-miterlimit:10;}
	.st6{display:inline;fill:none;stroke:#D1D3D4;stroke-width:2;stroke-miterlimit:10;}
	.st7{display:none;opacity:0.35;fill:none;stroke:#000000;stroke-width:16;stroke-miterlimit:10;}
	.st8{fill:none;stroke:#000000;stroke-width:16;stroke-linejoin:bevel;stroke-miterlimit:10;}
	.st9{fill:none;stroke:#000000;stroke-width:16;stroke-linecap:square;stroke-miterlimit:10;}
	.st10{fill:none;stroke:#000000;stroke-width:16;stroke-linecap:round;stroke-miterlimit:10;}
	.st11{fill:none;stroke:#000000;stroke-width:8;stroke-miterlimit:10;}
</style>
<g id="Icons">
	<g>
		<g>
			<path class="st0" d="M276.71,275.75l1.23-0.36c49.48-14.46,88.02-53.4,101.96-103.03l3.34-11.89
				c4.71-16.78-10.81-32.22-27.57-27.42l-13.12,3.76C293,151,254.27,189.74,240.07,239.29l0,0c-0.95,3.32-1.3,6.59-1.14,9.75
				c0.44,8.54,4.64,16.2,10.94,21.32C256.94,276.11,266.67,278.68,276.71,275.75z"/>
			<path class="st0" d="M241.87,272.95l-1.23-0.36c-49.48-14.46-88.02-53.4-101.96-103.03l-3.34-11.89
				c-4.71-16.78,10.81-32.22,27.57-27.42l13.12,3.76c34.85,9.99,64.35,32.11,83.72,61.59"/>
			<path class="st0" d="M240.07,239.29c-6.54,24.38-10.03,50.02-10.03,76.48c0,15.49,1.2,30.69,3.5,45.52"/>
			<path class="st0" d="M258.49,272.06c-3.54,15.9-5.41,32.42-5.41,49.39c0,13.7,1.22,27.12,3.56,40.15"/>
		</g>
		<path class="st0" d="M377.56,142.96c-30.8,26.75-108.66,70.1-127.69,127.41"/>
		<path class="st0" d="M141.91,142.96c22.07,19.17,68.3,46.86,99.73,82.1"/>
		<line class="st0" x1="191.7" y1="140.09" x2="197.7" y2="183.39"/>
		<line class="st0" x1="229.83" y1="163.81" x2="234.83" y2="215.8"/>
		<line class="st0" x1="143.39" y1="185.19" x2="200.11" y2="185.89"/>
		<line class="st0" x1="164.95" y1="221.22" x2="239.3" y2="221.22"/>
		<line class="st0" x1="318.04" y1="145.86" x2="311.98" y2="194.76"/>
		<line class="st0" x1="270.95" y1="182.41" x2="271.76" y2="232.19"/>
		<line class="st0" x1="368.71" y1="194.77" x2="311.98" y2="194.76"/>
		<line class="st0" x1="344.21" y1="232.66" x2="269.86" y2="231.72"/>
		<polyline class="st0" points="255.78,331.33 297.85,293.03 364.35,301.95 419.78,279.18 375.36,326.3 303.14,326.3 261.86,363.29 
			176.5,361.84 145.49,396.32 74.41,396.27 117.93,373.42 173.92,336.93 230.03,335.77 		"/>
		<polyline class="st0" points="162.66,380.98 225.88,392.97 247.1,440.95 302.7,454.89 		"/>
		<line class="st0" x1="145.05" y1="447.84" x2="237.88" y2="423.62"/>
		<polyline class="st0" points="325.16,329.38 318.99,392.97 352.02,435.73 		"/>
		<line class="st0" x1="258.49" y1="363.23" x2="319.18" y2="391.01"/>
		<line class="st0" x1="96.61" y1="314.41" x2="173.92" y2="336.93"/>
		<line class="st0" x1="194.7" y1="297.02" x2="211.56" y2="336.15"/>
		<path class="st0" d="M370.01,86.61C336.98,60.62,295.3,45.11,250,45.11c-45.3,0-86.98,15.51-120.01,41.5"/>
	</g>
</g>
<g id="Text" class="st1">
</g>
</svg>
