<?xml version="1.0" encoding="utf-8"?>
<!-- Generator: Adobe Illustrator 24.1.0, SVG Export Plug-In . SVG Version: 6.00 Build 0)  -->
<svg version="1.1" xmlns="http://www.w3.org/2000/svg" xmlns:xlink="http://www.w3.org/1999/xlink" x="0px" y="0px"
	 viewBox="0 0 500 500" style="enable-background:new 0 0 500 500;" xml:space="preserve">
<style type="text/css">
	.st0{fill:none;stroke:#000000;stroke-width:16;stroke-miterlimit:10;}
	.st1{display:none;}
	.st2{display:inline;}
	.st3{fill:none;stroke:#D1D3D4;stroke-width:2;stroke-miterlimit:10;}
	.st4{display:inline;fill:none;stroke:#BCBEC0;stroke-width:4;stroke-miterlimit:10;}
	.st5{fill:none;stroke:#BCBEC0;stroke-width:4;stroke-miterlimit:10;}
	.st6{display:inline;fill:none;stroke:#D1D3D4;stroke-width:2;stroke-miterlimit:10;}
	.st7{display:none;opacity:0.35;fill:none;stroke:#000000;stroke-width:16;stroke-miterlimit:10;}
	.st8{fill:none;stroke:#000000;stroke-width:16;stroke-linejoin:bevel;stroke-miterlimit:10;}
	.st9{fill:none;stroke:#000000;stroke-width:16;stroke-linecap:square;stroke-miterlimit:10;}
	.st10{fill:none;stroke:#000000;stroke-width:16;stroke-linecap:round;stroke-miterlimit:10;}
	.st11{fill:none;stroke:#000000;stroke-width:8;stroke-miterlimit:10;}
</style>
<g id="Icons">
	<g>
		<circle class="st0" cx="106.24" cy="348.68" r="27.85"/>
		<circle class="st0" cx="393.8" cy="148.05" r="19.92"/>
		<g>
			<path d="M200.63,203.18c-10.98,0-20.07,4.14-27,12.31c-5.62,6.66-8.47,14.35-8.47,22.86c0,9.5,3.41,17.73,10.14,24.46
				c6.75,6.67,15.02,10.05,24.57,10.05c6.34,0,12.47-1.65,18.22-4.9l0.76-0.43v-15.8l-2.47,2.08c-1.53,1.29-3,2.4-4.38,3.31
				c-1.35,0.89-2.66,1.6-3.95,2.14c-2.18,1.01-4.89,1.53-8.07,1.53c-6.24,0-11.37-2.13-15.66-6.5c-4.3-4.38-6.4-9.62-6.4-16.02
				c0-6.48,2.1-11.81,6.41-16.28c4.27-4.48,9.37-6.65,15.6-6.65c5.6,0,11.13,2.25,16.44,6.68l2.46,2.06v-15.56l-0.75-0.43
				C212.53,204.83,206.65,203.18,200.63,203.18z"/>
			<path d="M284.36,213.49c-6.81-6.81-15.09-10.26-24.62-10.26c-9.63,0-18,3.42-24.86,10.17c-6.9,6.76-10.4,14.96-10.4,24.38
				c0,10.7,3.84,19.48,11.42,26.11c6.86,5.96,14.71,8.98,23.34,8.98c9.74,0,18.17-3.41,25.06-10.12
				c6.88-6.7,10.36-14.98,10.36-24.59C294.67,228.59,291.2,220.29,284.36,213.49z M281.88,238.06c0,6.42-2.13,11.72-6.52,16.17
				c-4.38,4.41-9.61,6.55-16,6.55c-5.87,0-10.9-2.11-15.4-6.45c-4.51-4.32-6.7-9.7-6.7-16.44c0-6.42,2.12-11.65,6.48-16.01
				c4.35-4.41,9.55-6.55,15.88-6.55c6.35,0,11.53,2.14,15.83,6.55C279.78,226.27,281.88,231.56,281.88,238.06z"/>
			<path d="M317.54,271.14l0.85-1c1.56-1.84,2.87-3.46,3.9-4.82c1.11-1.47,1.95-2.72,2.53-3.81c1.29-2.34,1.95-4.78,1.95-7.26
				c0-3.97-1.46-7.34-4.35-10.03c-2.81-2.63-6.3-3.97-10.38-3.97c-4.84,0-13.18,1.83-14.59,14.12l-0.43,3.72h12l0.36-2.93
				c0.42-3.4,1.75-3.4,2.82-3.4c0.84,0,1.46,0.23,1.99,0.74c0.51,0.49,0.71,0.99,0.71,1.73c0,0.29-0.11,0.96-0.85,2.18
				c-0.36,0.62-0.92,1.42-1.65,2.4c-0.74,0.99-1.71,2.21-2.93,3.72l-9.73,11.78c-2.81,3.4-0.39,8.52,4.01,8.52h23.08v-11.68H317.54z
				"/>
		</g>
		<path class="st0" d="M405.11,242.76c0-28.87-23.4-52.27-52.27-52.27c-3.28,0-6.48,0.32-9.59,0.89c2.08-5.63,3.21-11.72,3.21-18.08
			c0-28.87-23.4-52.27-52.27-52.27c-18.61,0-34.93,9.73-44.19,24.37c-9.26-14.64-25.59-24.37-44.19-24.37
			c-28.87,0-52.27,23.4-52.27,52.27c0,6.35,1.14,12.44,3.21,18.08c-3.11-0.58-6.31-0.89-9.59-0.89c-28.87,0-52.27,23.4-52.27,52.27
			c0,0.42,0.02,0.83,0.03,1.24c-0.01,0.41-0.03,0.82-0.03,1.24c0,28.87,23.4,52.27,52.27,52.27c3.28,0,6.48-0.32,9.59-0.89
			c-2.08,5.63-3.21,11.72-3.21,18.08c0,28.87,23.4,52.27,52.27,52.27c18.61,0,34.93-9.73,44.19-24.37
			c9.26,14.64,25.59,24.37,44.19,24.37c28.87,0,52.27-23.4,52.27-52.27c0-6.36-1.14-12.44-3.21-18.08c3.11,0.58,6.31,0.89,9.59,0.89
			c28.87,0,52.27-23.4,52.27-52.27c0-0.41-0.02-0.82-0.03-1.24C405.09,243.59,405.11,243.18,405.11,242.76z"/>
	</g>
</g>
<g id="Text" class="st1">
</g>
</svg>
