<?xml version="1.0" encoding="utf-8"?>
<!-- Generator: Adobe Illustrator 24.1.0, SVG Export Plug-In . SVG Version: 6.00 Build 0)  -->
<svg version="1.1" xmlns="http://www.w3.org/2000/svg" xmlns:xlink="http://www.w3.org/1999/xlink" x="0px" y="0px"
	 viewBox="0 0 500 500" style="enable-background:new 0 0 500 500;" xml:space="preserve">
<style type="text/css">
	.st0{fill:none;stroke:#000000;stroke-width:16;stroke-miterlimit:10;}
	.st1{display:none;}
	.st2{display:inline;}
	.st3{fill:none;stroke:#D1D3D4;stroke-width:2;stroke-miterlimit:10;}
	.st4{display:inline;fill:none;stroke:#BCBEC0;stroke-width:4;stroke-miterlimit:10;}
	.st5{fill:none;stroke:#BCBEC0;stroke-width:4;stroke-miterlimit:10;}
	.st6{display:inline;fill:none;stroke:#D1D3D4;stroke-width:2;stroke-miterlimit:10;}
	.st7{display:none;opacity:0.35;fill:none;stroke:#000000;stroke-width:16;stroke-miterlimit:10;}
	.st8{fill:none;stroke:#000000;stroke-width:16;stroke-linejoin:bevel;stroke-miterlimit:10;}
	.st9{fill:none;stroke:#000000;stroke-width:16;stroke-linecap:square;stroke-miterlimit:10;}
	.st10{fill:none;stroke:#000000;stroke-width:16;stroke-linecap:round;stroke-miterlimit:10;}
	.st11{fill:none;stroke:#000000;stroke-width:8;stroke-miterlimit:10;}
</style>
<g id="Icons">
	<g>
		<circle class="st0" cx="246.43" cy="327.05" r="23.03"/>
		<g>
			<polyline class="st0" points="277.66,471.88 277.66,376.23 296.18,327.05 			"/>
			<polyline class="st0" points="215.21,471.88 215.21,376.23 196.69,327.05 			"/>
		</g>
		<circle class="st0" cx="371.63" cy="127.25" r="24"/>
		<g>
			<polyline class="st0" points="443.4,314.97 398.54,178.62 397.6,178.62 397.61,472.08 			"/>
			<polyline class="st0" points="299.86,314.97 344.72,178.62 345.66,178.62 345.66,472.08 			"/>
		</g>
		<circle class="st0" cx="124.37" cy="140.25" r="24"/>
		<g>
			<polyline class="st0" points="192.13,315.81 151.28,191.62 150.34,191.62 150.34,472.08 			"/>
			<polyline class="st0" points="56.6,315.81 97.46,191.62 98.4,191.62 98.39,472.08 			"/>
		</g>
		<path class="st0" d="M366.45,69.42c-33.04-25.99-74.71-41.5-120.01-41.5c-45.3,0-86.98,15.51-120.01,41.5"/>
	</g>
</g>
<g id="Text" class="st1">
</g>
</svg>
