<?xml version="1.0" encoding="utf-8"?>
<!-- Generator: Adobe Illustrator 24.1.0, SVG Export Plug-In . SVG Version: 6.00 Build 0)  -->
<svg version="1.1" xmlns="http://www.w3.org/2000/svg" xmlns:xlink="http://www.w3.org/1999/xlink" x="0px" y="0px"
	 viewBox="0 0 500 500" style="enable-background:new 0 0 500 500;" xml:space="preserve">
<style type="text/css">
	.st0{fill:none;stroke:#000000;stroke-width:16;stroke-miterlimit:10;}
	.st1{display:none;}
	.st2{display:inline;}
	.st3{fill:none;stroke:#D1D3D4;stroke-width:2;stroke-miterlimit:10;}
	.st4{display:inline;fill:none;stroke:#BCBEC0;stroke-width:4;stroke-miterlimit:10;}
	.st5{fill:none;stroke:#BCBEC0;stroke-width:4;stroke-miterlimit:10;}
	.st6{display:inline;fill:none;stroke:#D1D3D4;stroke-width:2;stroke-miterlimit:10;}
	.st7{display:none;opacity:0.35;fill:none;stroke:#000000;stroke-width:16;stroke-miterlimit:10;}
	.st8{fill:none;stroke:#000000;stroke-width:16;stroke-linejoin:bevel;stroke-miterlimit:10;}
	.st9{fill:none;stroke:#000000;stroke-width:16;stroke-linecap:square;stroke-miterlimit:10;}
	.st10{fill:none;stroke:#000000;stroke-width:16;stroke-linecap:round;stroke-miterlimit:10;}
	.st11{fill:none;stroke:#000000;stroke-width:8;stroke-miterlimit:10;}
</style>
<g id="Icons">
	<g>
		<path class="st0" d="M99.43,434.52l0.33-35c0.22-23.29,19.28-41.99,42.57-41.76l25.5,0.24c34.77,0.33,63.23-27.59,63.56-62.36v0
			c0.22-23.29,19.28-41.99,42.57-41.76l45.68,0.44c23.29,0.22,42.35-18.48,42.57-41.76v0c0.22-23.29,19.28-41.99,42.57-41.76
			l49.61,0.47"/>
		<circle class="st0" cx="161.39" cy="287.82" r="34.4"/>
		<circle class="st0" cx="430.07" cy="99.43" r="24"/>
		<circle class="st0" cx="406.36" cy="217.08" r="12.93"/>
		<circle class="st0" cx="340.88" cy="403.44" r="12.93"/>
		<circle class="st0" cx="285.67" cy="300.43" r="12.93"/>
		<circle class="st0" cx="58.72" cy="404.57" r="12.93"/>
		<g>
			<polyline class="st0" points="247.63,255.94 207.34,155.17 369.76,90.22 400.55,167.22 			"/>
			<polyline class="st9" points="205.67,143.99 212.69,86.15 318.29,43.92 363.26,80.97 			"/>
			<g>
				
					<rect x="258.37" y="165.66" transform="matrix(0.9285 -0.3713 0.3713 0.9285 -50.4633 116.1254)" class="st0" width="35.98" height="46.91"/>
				
					<rect x="325.19" y="138.94" transform="matrix(0.9285 -0.3713 0.3713 0.9285 -35.7664 139.0251)" class="st0" width="35.98" height="46.91"/>
			</g>
		</g>
		<path class="st0" d="M207.37,435.17l0.23-23.93c0.15-15.87,13.12-28.62,28.99-28.5l48.85,0.38c15.87,0.12,28.84-12.63,28.99-28.5
			l0.13-14.05c0.15-15.89,13.16-28.65,29.04-28.49l28.27,0.27c15.89,0.15,28.89-12.61,29.04-28.49v0
			c0.15-15.89,13.16-28.65,29.04-28.49l29.99,0.29"/>
	</g>
</g>
<g id="Text" class="st1">
</g>
</svg>
