<?xml version="1.0" encoding="utf-8"?>
<!-- Generator: Adobe Illustrator 24.1.0, SVG Export Plug-In . SVG Version: 6.00 Build 0)  -->
<svg version="1.1" xmlns="http://www.w3.org/2000/svg" xmlns:xlink="http://www.w3.org/1999/xlink" x="0px" y="0px"
	 viewBox="0 0 500 500" style="enable-background:new 0 0 500 500;" xml:space="preserve">
<style type="text/css">
	.st0{fill:none;stroke:#000000;stroke-width:16;stroke-miterlimit:10;}
	.st1{display:none;}
	.st2{display:inline;}
	.st3{fill:none;stroke:#D1D3D4;stroke-width:2;stroke-miterlimit:10;}
	.st4{display:inline;fill:none;stroke:#BCBEC0;stroke-width:4;stroke-miterlimit:10;}
	.st5{fill:none;stroke:#BCBEC0;stroke-width:4;stroke-miterlimit:10;}
	.st6{display:inline;fill:none;stroke:#D1D3D4;stroke-width:2;stroke-miterlimit:10;}
	.st7{display:none;opacity:0.35;fill:none;stroke:#000000;stroke-width:16;stroke-miterlimit:10;}
	.st8{fill:none;stroke:#000000;stroke-width:16;stroke-linejoin:bevel;stroke-miterlimit:10;}
	.st9{fill:none;stroke:#000000;stroke-width:16;stroke-linecap:square;stroke-miterlimit:10;}
	.st10{fill:none;stroke:#000000;stroke-width:16;stroke-linecap:round;stroke-miterlimit:10;}
	.st11{fill:none;stroke:#000000;stroke-width:8;stroke-miterlimit:10;}
</style>
<g id="Icons">
	<g>
		<g>
			<line class="st0" x1="79.11" y1="324.82" x2="79.11" y2="351.21"/>
			<path class="st0" d="M79.11,378.49v53.04h56.75h37.1h61.48V53.7L132.86,74.25v112.6c0,29.68-24.06,53.75-53.75,53.75h0v57.97"/>
			<rect x="138.17" y="148.18" class="st0" width="94.67" height="25.38"/>
			<polyline class="st0" points="205.66,302.23 205.66,378.49 126.29,378.49 126.29,302.23 			"/>
			<path class="st0" d="M183.4,326.16h-34.85c-12.29,0-22.26-9.97-22.26-22.26v-6.08h79.37v6.08
				C205.66,316.2,195.7,326.16,183.4,326.16z"/>
			<rect x="60.34" y="351.21" class="st0" width="37.54" height="27.28"/>
			<rect x="60.34" y="297.54" class="st0" width="37.54" height="27.28"/>
			<line class="st0" x1="259.55" y1="135.86" x2="234.91" y2="135.86"/>
			<line class="st0" x1="234.91" y1="431.53" x2="259.55" y2="431.53"/>
			<line class="st0" x1="420.89" y1="324.82" x2="420.89" y2="351.21"/>
			<path class="st0" d="M420.89,378.49v53.04h-56.75h-37.1h-61.48V53.7l101.58,20.55v112.6c0,29.68,21.06,53.75,50.75,53.75h3v57.97
				"/>
			
				<rect x="267.16" y="148.18" transform="matrix(-1 -4.490376e-11 4.490376e-11 -1 628.9981 321.7432)" class="st0" width="94.67" height="25.38"/>
			<polyline class="st0" points="294.34,302.23 294.34,378.49 373.71,378.49 373.71,302.23 			"/>
			<path class="st0" d="M316.6,326.16h34.85c12.29,0,22.26-9.97,22.26-22.26v-6.08h-79.37v6.08
				C294.34,316.2,304.3,326.16,316.6,326.16z"/>
			
				<rect x="402.12" y="351.21" transform="matrix(-1 -4.472257e-11 4.472257e-11 -1 841.7849 729.6949)" class="st0" width="37.54" height="27.28"/>
			
				<rect x="402.12" y="297.54" transform="matrix(-1 -4.501345e-11 4.501345e-11 -1 841.7849 622.3635)" class="st0" width="37.54" height="27.28"/>
		</g>
	</g>
</g>
<g id="Text" class="st1">
</g>
</svg>
