<svg fill="#E32219" xmlns="http://www.w3.org/2000/svg" viewBox="0 0 47.99988 44" x="0px" y="0px"><title>Asset 453</title><g data-name="Layer 2"><g><path d="M2.01172,22h7.9765A2.01178,2.01178,0,0,1,12,24.01178v17.9765A2.01172,2.01172,0,0,1,9.98828,44H2.01184A2.01184,2.01184,0,0,1,0,41.98816V24.01172A2.01172,2.01172,0,0,1,2.01172,22Z"></path><path d="M20.11523,11h7.87292A2.01184,2.01184,0,0,1,30,13.01184V41.98828A2.01172,2.01172,0,0,1,27.98828,44h-7.873a2.01172,2.01172,0,0,1-2.01172-2.01172V13.01172A2.01172,2.01172,0,0,1,20.11523,11Z"></path><path d="M38.0116,0h7.9765a2.01178,2.01178,0,0,1,2.01178,2.01178v39.9765A2.01172,2.01172,0,0,1,45.98816,44h-7.9765a2.01178,2.01178,0,0,1-2.01178-2.01178V2.01172A2.01172,2.01172,0,0,1,38.0116,0Z"></path></g></g></svg>