<svg fill="#E32219" xmlns="http://www.w3.org/2000/svg" viewBox="0 0 48 48" x="0px" y="0px"><title>Asset 556</title><g data-name="Layer 2"><g><path d="M31,19.41406a.99983.99983,0,0,0-.29291-.707L26,14V9h3a2,2,0,0,0,0-4H26V2a2,2,0,0,0-4,0V5H19a2,2,0,0,0,0,4h3v5l-4.70709,4.707a.99983.99983,0,0,0-.29291.707V38H31Z"></path><path d="M42,29.6499a.99982.99982,0,0,0-.59387-.91382L33,25V38h9Z"></path><path d="M15,25,6.59387,28.73608A.99982.99982,0,0,0,6,29.6499V38h9Z"></path><path d="M46.5,45H1.5a1.5,1.5,0,0,0,0,3h45a1.5,1.5,0,0,0,0-3Z"></path><path d="M5.5,43h37a1.5,1.5,0,0,0,0-3H5.5a1.5,1.5,0,0,0,0,3Z"></path></g></g></svg>