<svg fill="#E32219" xmlns="http://www.w3.org/2000/svg" viewBox="0 0 32.00391 47" x="0px" y="0px"><title>Asset 411</title><g data-name="Layer 2"><g><path d="M26,21c0-6.84131-5.58887-12-13-12S0,14.15869,0,21a2,2,0,0,0,4,0,7.44854,7.44854,0,0,1,4-6.74451V45a2,2,0,0,0,4,0V31h2V45a2,2,0,0,0,4,0V14.25537A7.44889,7.44889,0,0,1,22,21a2,2,0,0,0,4,0Z"></path><circle cx="19" cy="4" r="4"></circle><path d="M27.98242,27.5a3.96729,3.96729,0,0,0-4.02051,4,1.5,1.5,0,0,0,3,0,1.02122,1.02122,0,0,1,2.042,0v14a1.5,1.5,0,1,0,3,0v-14A3.96812,3.96812,0,0,0,27.98242,27.5Z"></path></g></g></svg>