<svg fill="#E32219" xmlns="http://www.w3.org/2000/svg" viewBox="0 0 48 48" x="0px" y="0px"><title>Asset 562</title><g data-name="Layer 2"><g><path d="M46.5,45H1.5a1.5,1.5,0,0,0,0,3h45a1.5,1.5,0,0,0,0-3Z"></path><path d="M5.5,43h37a1.5,1.5,0,0,0,0-3H5.5a1.5,1.5,0,0,0,0,3Z"></path><rect x="10" y="17" width="4" height="21"></rect><rect x="18" y="17" width="4" height="21"></rect><rect x="26" y="17" width="4" height="21"></rect><rect x="34" y="17" width="4" height="21"></rect><path d="M8,15H40a2,2,0,0,0,0-4H25V8h9V2H25V1.5a1.5,1.5,0,0,0-3,0V11H8a2,2,0,0,0,0,4Z"></path></g></g></svg>