<svg fill="#E32219" xmlns="http://www.w3.org/2000/svg" viewBox="0 0 48 48" x="0px" y="0px"><title>Asset 348</title><g data-name="Layer 2"><g><path d="M22,41.01V46a2,2,0,0,0,4,0V41.01L24,39Z"></path><circle cx="24" cy="3" r="3"></circle><path d="M20.01,22a1.98039,1.98039,0,0,0-1.97-2,4.034,4.034,0,0,0-3.73,2.51A4.08248,4.08248,0,0,0,15.18994,26.95L19.79,31.58008,22,29.36l.59009-.6L22,28.15991,17.99,24.12l.02-.12A2.00589,2.00589,0,0,0,20.01,22Z"></path><path d="M28.21,34.41992,26,36.64l-.59009.6L26,37.84009,30.01,41.88l-.02.12a2.00589,2.00589,0,0,0-2,2,1.98039,1.98039,0,0,0,1.97,2,4.034,4.034,0,0,0,3.73-2.51,4.08248,4.08248,0,0,0-.87988-4.43994Z"></path><path d="M29.96,20a1.98039,1.98039,0,0,0-1.97,2,2.00589,2.00589,0,0,0,2,2l.02.12L26,28.15991l-.59009.6001-.71.71-.7.7-2,2.02L21.2,33l-.71.71-.69995.71-4.6001,4.63013A4.08248,4.08248,0,0,0,14.31006,43.49,4.034,4.034,0,0,0,18.04,46a1.98039,1.98039,0,0,0,1.97-2,2.00589,2.00589,0,0,0-2-2l-.02-.12L22,37.84009l.59009-.6001.71-.71.7-.69995,2-2.02.8-.81006.71-.71.69995-.71L32.81006,26.95A4.08248,4.08248,0,0,0,33.68994,22.51,4.034,4.034,0,0,0,29.96,20Z"></path><path d="M46.70166,13.32043l.00439-.01086L32.60864,5.25122A1.25218,1.25218,0,0,0,31.4812,5.057L24,9,16.5188,5.057a1.25218,1.25218,0,0,0-1.12744.19421L1.294,13.30957l.00439.01086A2.49529,2.49529,0,1,0,5,15.5a2.5,2.5,0,0,0,5,0,2.5,2.5,0,0,0,5,0,2.5,2.5,0,0,0,5,0,2.50047,2.50047,0,0,0,2,2.44958V24.99L24,27l2-2.01V17.94958A2.50047,2.50047,0,0,0,28,15.5a2.5,2.5,0,0,0,5,0,2.5,2.5,0,0,0,5,0,2.5,2.5,0,0,0,5,0,2.5,2.5,0,1,0,3.70166-2.17957Z"></path></g></g></svg>