<svg fill="#E32219" xmlns="http://www.w3.org/2000/svg" viewBox="0 0 48 48" x="0px" y="0px"><title>Asset 565</title><g data-name="Layer 2"><g><path d="M46.5,45H1.5a1.5,1.5,0,0,0,0,3h45a1.5,1.5,0,0,0,0-3Z"></path><path d="M5.5,43h37a1.5,1.5,0,0,0,0-3H5.5a1.5,1.5,0,0,0,0,3Z"></path><path d="M28,6H26V2a2,2,0,0,0-4,0V6H20C17.08,9.2,14.84,13.14014,13.75,20h20.5C33.16,13.14014,30.92,9.2,28,6Z"></path><path d="M21,28c0-1.66016,3-3,3-3s3,1.33984,3,3V38h8V31a76.19838,76.19838,0,0,0-.47-9H13.47A76.19838,76.19838,0,0,0,13,31v7h8Z"></path><path d="M42,14.5a2.5,2.5,0,0,0-5,0V20h5Z"></path><rect x="37" y="22" width="5" height="16"></rect><path d="M11,14.5a2.5,2.5,0,0,0-5,0V20h5Z"></path><rect x="6" y="22" width="5" height="16"></rect></g></g></svg>