<svg fill="#E32219" xmlns="http://www.w3.org/2000/svg" viewBox="0 0 48 48" x="0px" y="0px"><title>Asset 471</title><g data-name="Layer 2"><g><path d="M46.10449,29h-22.209A.8981.8981,0,0,0,23,29.89551V42.6272A5.38854,5.38854,0,0,0,28.3728,48H41.6272A5.38854,5.38854,0,0,0,47,42.6272V29.89551A.89544.89544,0,0,0,46.10449,29Z"></path><circle cx="11.5" cy="11.5" r="6.5"></circle><path d="M46,23H38a3,3,0,0,0-6,0H24a2,2,0,0,0,0,4H46a2,2,0,0,0,0-4Z"></path><path d="M17.5,45H1.5a1.5,1.5,0,0,0,0,3h16a1.5,1.5,0,0,0,0-3Z"></path><path d="M32,13a1,1,0,0,0,1,1H45.5a2.5,2.5,0,0,0,0-5H33a1,1,0,0,0-1,1H22.9a11.5,11.5,0,1,0,0,3ZM11.5,20A8.5,8.5,0,1,1,20,11.5,8.50574,8.50574,0,0,1,11.5,20Z"></path><path d="M17,33H16V30.91089a.89544.89544,0,0,0-.89551-.89551H2.89551A.89819.89819,0,0,0,2,30.91089V37.6272A5.38854,5.38854,0,0,0,7.3728,43h3.2544A5.38854,5.38854,0,0,0,16,37.6272V37h1a2,2,0,0,0,0-4Z"></path></g></g></svg>