<svg fill="#E32219" xmlns="http://www.w3.org/2000/svg" viewBox="0 0 48.00852 45.98969" x="0px" y="0px"><title>Asset 383</title><g data-name="Layer 2"><g><path d="M23.96474,5.53046a2.73511,2.73511,0,0,0-4.92951,0L.04927,45.27509a.50014.50014,0,0,0,.454.7146H42.49672a.50019.50019,0,0,0,.454-.7146Z"></path><path d="M47.61861,22.75983a4.36816,4.36816,0,0,0-2.39649-2.36731,4.537,4.537,0,0,0-3.46923.00952,1.48151,1.48151,0,0,0-.80811,1.94324,1.50577,1.50577,0,0,0,1.96143.80053,1.52493,1.52493,0,0,1,1.17041-.00671,1.40123,1.40123,0,0,1,.7705.75806,2.20511,2.20511,0,0,1-1.24951,2.86352,3.2322,3.2322,0,0,1-2.4751.01123,3.07693,3.07693,0,0,1-1.69238-1.70471L32.60542,10.83783a1.50784,1.50784,0,0,0-1.99853-.70483,1.48007,1.48007,0,0,0-.71143,1.98l6.794,14.16064A5.99,5.99,0,0,0,39.977,29.519a6.2321,6.2321,0,0,0,2.36425.4668,6.30848,6.30848,0,0,0,2.40967-.48132A5.1712,5.1712,0,0,0,47.61861,22.75983Z"></path><path d="M30.47853,5.62018l2,1.22217a.99982.99982,0,0,0,1.04291,0l2-1.22217A.99994.99994,0,0,0,36,4.76691V2.22211a.99994.99994,0,0,0-.47852-.85327l-2-1.22217a1.0003,1.0003,0,0,0-1.04291,0l-2,1.22217A1,1,0,0,0,30,2.22211v2.5448A1,1,0,0,0,30.47853,5.62018Z"></path><path d="M36.1324,10.987l2.00611,3.5a1,1,0,0,0,.86755.50269h3.99969a1.00005,1.00005,0,0,0,.86762-.50269l2.0061-3.5a1.00026,1.00026,0,0,0,0-.99463l-2.0061-3.5a1,1,0,0,0-.86762-.50268H39.00606a1,1,0,0,0-.86755.50268l-2.00611,3.5A1,1,0,0,0,36.1324,10.987Z"></path></g></g></svg>