<svg fill="#E32219" xmlns="http://www.w3.org/2000/svg" viewBox="0 0 48 28" x="0px" y="0px"><title>Asset 523</title><g data-name="Layer 2"><g><path d="M46.46448,7.53564a1.82835,1.82835,0,0,0-2.58582,0L40,11.41406,36.12134,7.53564a1.82841,1.82841,0,0,0-2.58582,2.5857L37.41418,14l-3.87866,3.87866a1.82841,1.82841,0,0,0,2.58582,2.5857L40,16.58594l3.87866,3.87842a1.82841,1.82841,0,0,0,2.58582-2.5857L42.58582,14l3.87866-3.87866A1.82842,1.82842,0,0,0,46.46448,7.53564Z"></path><path d="M14.46448,7.53564a1.82835,1.82835,0,0,0-2.58582,0L8,11.41406,4.12134,7.53564a1.82841,1.82841,0,0,0-2.58582,2.5857L5.41418,14,1.53552,17.87866a1.82841,1.82841,0,0,0,2.58582,2.5857L8,16.58594l3.87866,3.87842a1.82841,1.82841,0,0,0,2.58582-2.5857L10.58582,14l3.87866-3.87866A1.82842,1.82842,0,0,0,14.46448,7.53564Z"></path><path d="M30.46448,7.53564a1.82835,1.82835,0,0,0-2.58582,0L24,11.41406,20.12134,7.53564a1.82841,1.82841,0,0,0-2.58582,2.5857L21.41418,14l-3.87866,3.87866a1.82841,1.82841,0,0,0,2.58582,2.5857L24,16.58594l3.87866,3.87842a1.82841,1.82841,0,0,0,2.58582-2.5857L26.58582,14l3.87866-3.87866A1.82842,1.82842,0,0,0,30.46448,7.53564Z"></path><path d="M2,4H46a2,2,0,0,0,0-4H2A2,2,0,0,0,2,4Z"></path><path d="M46,24H2a2,2,0,0,0,0,4H46a2,2,0,0,0,0-4Z"></path></g></g></svg>