<svg fill="#E32219" xmlns="http://www.w3.org/2000/svg" viewBox="0 0 20 47.99997" x="0px" y="0px"><title>Asset 477</title><g data-name="Layer 2"><g><path d="M14,20.67416V15a1.00291,1.00291,0,0,0,1-1V11a1.00291,1.00291,0,0,0-1-1H12V.24887c0-.22327-.362-.33313-.569-.17273l-3.3371,2.584A.22231.22231,0,0,0,8,2.834V10H6a1.00291,1.00291,0,0,0-1,1v3a1.00291,1.00291,0,0,0,1,1v5.67419A9.49652,9.49652,0,0,0,0,29.5V46a2.00006,2.00006,0,0,0,2,2H18a2.00006,2.00006,0,0,0,2-2V29.5A9.49652,9.49652,0,0,0,14,20.67416Z"></path></g></g></svg>