<svg fill="#E32219" xmlns="http://www.w3.org/2000/svg" viewBox="0 0 25.99023 48" x="0px" y="0px"><title>Asset 418</title><g data-name="Layer 2"><g><path d="M12.99512,10C5.46484,10,0,15.04688,0,22a2,2,0,0,0,4,0,7.40254,7.40254,0,0,1,5-7L5.00476,33.98383A.91844.91844,0,0,0,5.99121,35h2V46a2,2,0,0,0,4,0V35h2V46a2,2,0,1,0,4,0V35h2a.91844.91844,0,0,0,.98645-1.01617L17,15c2.94171,1.2533,4.99023,3.67834,4.99023,7a2,2,0,0,0,4,0C25.99023,15.04688,20.52539,10,12.99512,10Z"></path><circle cx="12.99121" cy="4" r="4"></circle></g></g></svg>