<svg fill="#E32219" xmlns="http://www.w3.org/2000/svg" viewBox="0 0 48 48" x="0px" y="0px"><title>Asset 613</title><g data-name="Layer 2"><g><circle cx="43.5" cy="43.5" r="4.5"></circle><circle cx="43.5" cy="31.5" r="4.5"></circle><circle cx="43.5" cy="19.5" r="4.5"></circle><circle cx="31.5" cy="43.5" r="4.5"></circle><circle cx="31.5" cy="31.5" r="4.5"></circle><circle cx="19.5" cy="43.5" r="4.5"></circle><circle cx="7.5" cy="43.5" r="4.5"></circle><circle cx="19.5" cy="31.5" r="4.5"></circle><circle cx="31.5" cy="19.5" r="4.5"></circle><circle cx="43.5" cy="7.5" r="4.5"></circle><path d="M19,6.82812V11a2,2,0,0,0,4,0V2a2.0001,2.0001,0,0,0-2-2H12a2,2,0,0,0,0,4h4.17188L.58594,19.58594a1.99978,1.99978,0,1,0,2.82812,2.82812Z"></path></g></g></svg>