<svg fill="#E32219" xmlns="http://www.w3.org/2000/svg" viewBox="0 0 28 48" x="0px" y="0px"><title>Asset 445</title><g data-name="Layer 2"><g><rect x="6" width="16" height="33" rx="7.97858" ry="7.97858"></rect><path d="M28,24.5a1.5,1.5,0,0,0-3,0,11,11,0,1,1-22,0,1.5,1.5,0,0,0-3,0A13.99608,13.99608,0,0,0,12,38.3457V44H8a2.02011,2.02011,0,0,0-1.75488,3.00146A1.91506,1.91506,0,0,0,7.97845,48H20a2.02017,2.02017,0,0,0,1.75488-3.00153A1.91513,1.91513,0,0,0,20.02155,44H16V38.3349A14.02267,14.02267,0,0,0,28,24.5Z"></path></g></g></svg>