<svg fill="#E32219" xmlns="http://www.w3.org/2000/svg" viewBox="0 0 36 48" x="0px" y="0px"><title>Asset 460</title><g data-name="Layer 2"><g><path d="M35,0H13a1.00291,1.00291,0,0,0-1,1V12H23a3.00777,3.00777,0,0,1,2.23,1H32a1,1,0,0,1,0,2H26v3h6a1,1,0,0,1,0,2H26v3h6a1,1,0,0,1,0,2H26v9h9a1.00288,1.00288,0,0,0,1-1V1A1.00291,1.00291,0,0,0,35,0ZM32,10H16a1,1,0,0,1,0-2H32a1,1,0,0,1,0,2Z"></path><path d="M23,14H1a1.00291,1.00291,0,0,0-1,1V47a1.00288,1.00288,0,0,0,1,1H23a1.00288,1.00288,0,0,0,1-1V15A1.00291,1.00291,0,0,0,23,14ZM4,22H20a1,1,0,0,1,0,2H4a1,1,0,0,1,0-2Zm0,5H20a1,1,0,0,1,0,2H4a1,1,0,0,1,0-2ZM20,39H4a1,1,0,0,1,0-2H20a1,1,0,0,1,0,2ZM4,34a1,1,0,0,1,0-2H20a1,1,0,0,1,0,2Z"></path></g></g></svg>