<svg fill="#E32219" xmlns="http://www.w3.org/2000/svg" viewBox="0 0 48 28.99988" x="0px" y="0px"><title>Asset 480</title><g data-name="Layer 2"><g><path d="M5.49939,12.99963,7.5,12.99988a1.49982,1.49982,0,0,0,.00037-2.99964L5.49976,10a1.49982,1.49982,0,0,0-.00037,2.99963Z"></path><path d="M12.49963,12.99963l2.00061.00025a1.49982,1.49982,0,0,0,.00037-2.99964L12.5,10a1.49982,1.49982,0,0,0-.00037,2.99963Z"></path><path d="M19.49963,12.99963l2.00061.00025a1.49982,1.49982,0,0,0,.00037-2.99964L19.5,10a1.49982,1.49982,0,0,0-.00037,2.99963Z"></path><path d="M26.49963,12.99963l2.00061.00025a1.49982,1.49982,0,0,0,.00037-2.99964L26.5,10a1.49982,1.49982,0,0,0-.00037,2.99963Z"></path><path d="M33.5,12.99963l2.00049.00025a1.49982,1.49982,0,0,0,.00049-2.99964L33.50024,10A1.49982,1.49982,0,1,0,33.5,12.99963Z"></path><path d="M12.49963,7.99951l2.00061.00025a1.49982,1.49982,0,0,0,.00037-2.99964L12.5,4.99988a1.49982,1.49982,0,1,0-.00037,2.99963Z"></path><path d="M19.49963,7.99951l2.00061.00025a1.49982,1.49982,0,0,0,.00037-2.99964L19.5,4.99988a1.49982,1.49982,0,1,0-.00037,2.99963Z"></path><path d="M26.49963,7.99951l2.00061.00025a1.49982,1.49982,0,0,0,.00037-2.99964L26.5,4.99988a1.49982,1.49982,0,0,0-.00037,2.99963Z"></path><path d="M19.49963,2.99963l2.00061.00025A1.49982,1.49982,0,0,0,21.50061.00024L19.5,0a1.49982,1.49982,0,0,0-.00037,2.99963Z"></path><path d="M26.49963,2.99963l2.00061.00025A1.49982,1.49982,0,0,0,28.50061.00024L26.5,0a1.49982,1.49982,0,0,0-.00037,2.99963Z"></path><path d="M33.5,7.99951l2.00049.00025A1.49982,1.49982,0,0,0,35.501,5.00012l-2.00074-.00024A1.49982,1.49982,0,1,0,33.5,7.99951Z"></path><path d="M40.5,12.99963l2.00049.00025a1.49982,1.49982,0,0,0,.00049-2.99964L40.50024,10A1.49982,1.49982,0,1,0,40.5,12.99963Z"></path><path d="M47,14.99988H1a1,1,0,0,0-1,1,13,13,0,0,0,13,13H35a13,13,0,0,0,13-13A1,1,0,0,0,47,14.99988Z"></path></g></g></svg>