<svg fill="#E32219" xmlns="http://www.w3.org/2000/svg" viewBox="0 0 30 48" x="0px" y="0px"><title>Asset 481</title><g data-name="Layer 2"><g><path d="M28,13A13,13,0,0,0,2,13L0,47a1.00288,1.00288,0,0,0,1,1H29a1.00288,1.00288,0,0,0,1-1ZM22,7a2,2,0,1,1-2,2A2.00583,2.00583,0,0,1,22,7ZM15,3a2,2,0,1,1-2,2A2.00583,2.00583,0,0,1,15,3ZM8,7A2,2,0,1,1,6,9,2.00583,2.00583,0,0,1,8,7ZM4,44,6,17H24l2,27Z"></path><circle cx="9" cy="40" r="2"></circle><circle cx="15" cy="40" r="2"></circle><circle cx="21" cy="40" r="2"></circle><circle cx="9" cy="34" r="2"></circle><circle cx="15" cy="34" r="2"></circle><circle cx="9" cy="28" r="2"></circle></g></g></svg>