<svg fill="#E32219" xmlns="http://www.w3.org/2000/svg" viewBox="0 0 48 48" x="0px" y="0px"><title>Asset 451</title><g data-name="Layer 2"><g><path d="M6,31a2.0001,2.0001,0,0,0,2-2V26H22v3a2,2,0,0,0,4,0V26H40v3a2,2,0,0,0,4,0V24a2.0001,2.0001,0,0,0-2-2H26V19a2,2,0,0,0-4,0v3H6a2.0001,2.0001,0,0,0-2,2v5A2.0001,2.0001,0,0,0,6,31Z"></path><circle cx="6" cy="42" r="6"></circle><circle cx="42" cy="42" r="6"></circle><circle cx="24" cy="42" r="6"></circle><circle cx="24" cy="6" r="6"></circle></g></g></svg>