<svg fill="#E32219" xmlns="http://www.w3.org/2000/svg" viewBox="0 0 48 48" x="0px" y="0px"><title>Asset 487</title><g data-name="Layer 2"><g><rect x="26" y="10" width="22" height="7" rx="1" ry="1"></rect><path d="M28,47a1.00288,1.00288,0,0,0,1,1H45a1.00288,1.00288,0,0,0,1-1V19H28Zm3-22a1.00288,1.00288,0,0,1,1-1H42a1.00288,1.00288,0,0,1,1,1v7a1.00288,1.00288,0,0,1-1,1H32a1.00288,1.00288,0,0,1-1-1Zm1,11H42a1,1,0,0,1,0,2H32a1,1,0,0,1,0-2Z"></path><path d="M19.5,8H14V3h2.5a1.5,1.5,0,0,0,0-3H4.5a1.5,1.5,0,0,0,0,3H7V8H1.5a1.5,1.5,0,0,0,0,3H5V34a2.00591,2.00591,0,0,0,2,2v2a1,1,0,0,0,1,1H9v7.5a1.5,1.5,0,0,0,3,0V39h1a1,1,0,0,0,1-1V36a2.00591,2.00591,0,0,0,2-2V11h3.5a1.5,1.5,0,0,0,0-3ZM13,26H8V13h5Z"></path></g></g></svg>