<svg fill="#E32219" xmlns="http://www.w3.org/2000/svg" viewBox="0 0 48 48" x="0px" y="0px"><title>Asset 394</title><g data-name="Layer 2"><g><path d="M37.5,4A10.51412,10.51412,0,0,0,27,14h.00879c-.00073.0152-.00879.028-.00879.04333V15a2,2,0,0,0,4,0V14a6.50927,6.50927,0,1,1,6.5,7H1.97351A1.97347,1.97347,0,0,0,0,22.97351v.053A1.97347,1.97347,0,0,0,1.97351,25H37.5a10.5,10.5,0,0,0,0-21Z"></path><path d="M1.94031,18H16A9,9,0,1,0,7,9h.00879C7.00806,9.0152,7,9.028,7,9.04333V10a2,2,0,0,0,4,0V9a5,5,0,1,1,5,5H1.94031A1.94028,1.94028,0,0,0,0,15.94031v.11938A1.94028,1.94028,0,0,0,1.94031,18Z"></path><path d="M28,28H2a2,2,0,0,0,0,4H28a6,6,0,1,1-6,6V37a2,2,0,0,0-4,0v.95667c0,.01538.00806.02813.00879.04333H18A10,10,0,1,0,28,28Z"></path></g></g></svg>