<?xml version="1.0" encoding="utf-8"?>
<!-- Generator: Adobe Illustrator 24.1.0, SVG Export Plug-In . SVG Version: 6.00 Build 0)  -->
<svg version="1.1" xmlns="http://www.w3.org/2000/svg" xmlns:xlink="http://www.w3.org/1999/xlink" x="0px" y="0px"
	 viewBox="0 0 500 500" style="enable-background:new 0 0 500 500;" xml:space="preserve">
<style type="text/css">
	.st0{fill:none;stroke:#FFFFFF;stroke-width:16;stroke-miterlimit:10;}
	.st1{display:none;}
	.st2{display:inline;}
	.st3{fill:none;stroke:#D1D3D4;stroke-width:2;stroke-miterlimit:10;}
	.st4{display:inline;fill:none;stroke:#BCBEC0;stroke-width:4;stroke-miterlimit:10;}
	.st5{fill:none;stroke:#BCBEC0;stroke-width:4;stroke-miterlimit:10;}
	.st6{display:inline;fill:none;stroke:#D1D3D4;stroke-width:2;stroke-miterlimit:10;}
	.st7{display:none;opacity:0.35;fill:none;stroke:#000000;stroke-width:16;stroke-miterlimit:10;}
	.st8{fill:none;stroke:#FFFFFF;stroke-width:16;stroke-linejoin:bevel;stroke-miterlimit:10;}
	.st9{fill:#FFFFFF;}
	.st10{fill:none;stroke:#FFFFFF;stroke-width:16;stroke-linecap:square;stroke-miterlimit:10;}
	.st11{fill:none;stroke:#FFFFFF;stroke-width:16;stroke-linecap:round;stroke-miterlimit:10;}
	.st12{fill:none;stroke:#FFFFFF;stroke-width:8;stroke-miterlimit:10;}
</style>
<g id="Icons">
	<g>
		<g>
			<g>
				<path class="st0" d="M221.76,120.07c6.89,6.89,6.89,18.06,0,24.94l0,0c-6.89,6.89-6.89,18.06,0,24.94l0,0
					c6.89,6.89,6.89,18.06,0,24.94"/>
				<path class="st0" d="M250,120.07c6.89,6.89,6.89,18.06,0,24.94l0,0c-6.89,6.89-6.89,18.06,0,24.94l0,0
					c6.89,6.89,6.89,18.06,0,24.94"/>
				<path class="st0" d="M278.24,120.07c6.89,6.89,6.89,18.06,0,24.94l0,0c-6.89,6.89-6.89,18.06,0,24.94l0,0
					c6.89,6.89,6.89,18.06,0,24.94"/>
			</g>
			<path class="st0" d="M388.34,314.12c0,76.4-61.94,138.34-138.34,138.34s-138.34-61.94-138.34-138.34H388.34z"/>
			<line class="st0" x1="112.41" y1="342.62" x2="387.59" y2="342.62"/>
			<path class="st0" d="M289.42,413.81h-39.66c-21.63,0-39.17-17.54-39.17-39.17v0h39.66C271.88,374.64,289.42,392.17,289.42,413.81
				L289.42,413.81z"/>
			<path class="st0" d="M361.56,306.03c0-21.37-15.67-39.07-36.15-42.25c-5.23-17.71-21.6-30.64-41.01-30.64
				c-0.72,0-1.44,0.02-2.16,0.05c-7.84-8.99-19.37-14.69-32.24-14.69c-12.87,0-24.4,5.69-32.24,14.69
				c-0.71-0.04-1.43-0.05-2.16-0.05c-19.41,0-35.78,12.93-41.01,30.64c-20.48,3.18-36.15,20.88-36.15,42.25"/>
		</g>
		<path class="st0" d="M370.01,89.03C336.98,63.04,295.3,47.53,250,47.53c-45.3,0-86.98,15.51-120.01,41.5"/>
	</g>
</g>
<g id="Text" class="st1">
</g>
</svg>
