<?xml version="1.0" encoding="utf-8"?>
<!-- Generator: Adobe Illustrator 24.1.0, SVG Export Plug-In . SVG Version: 6.00 Build 0)  -->
<svg version="1.1" xmlns="http://www.w3.org/2000/svg" xmlns:xlink="http://www.w3.org/1999/xlink" x="0px" y="0px"
	 viewBox="0 0 500 500" style="enable-background:new 0 0 500 500;" xml:space="preserve">
<style type="text/css">
	.st0{fill:none;stroke:#FFFFFF;stroke-width:16;stroke-miterlimit:10;}
	.st1{display:none;}
	.st2{display:inline;}
	.st3{fill:none;stroke:#D1D3D4;stroke-width:2;stroke-miterlimit:10;}
	.st4{display:inline;fill:none;stroke:#BCBEC0;stroke-width:4;stroke-miterlimit:10;}
	.st5{fill:none;stroke:#BCBEC0;stroke-width:4;stroke-miterlimit:10;}
	.st6{display:inline;fill:none;stroke:#D1D3D4;stroke-width:2;stroke-miterlimit:10;}
	.st7{display:none;opacity:0.35;fill:none;stroke:#000000;stroke-width:16;stroke-miterlimit:10;}
	.st8{fill:none;stroke:#FFFFFF;stroke-width:16;stroke-linejoin:bevel;stroke-miterlimit:10;}
	.st9{fill:#FFFFFF;}
	.st10{fill:none;stroke:#FFFFFF;stroke-width:16;stroke-linecap:square;stroke-miterlimit:10;}
	.st11{fill:none;stroke:#FFFFFF;stroke-width:16;stroke-linecap:round;stroke-miterlimit:10;}
	.st12{fill:none;stroke:#FFFFFF;stroke-width:8;stroke-miterlimit:10;}
</style>
<g id="Icons">
	<g>
		<g>
			<path class="st0" d="M58.09,210.38H132c13.63,0,24.68,11.05,24.68,24.68v155.38"/>
			<g>
				<rect x="109.59" y="239.35" class="st9" width="18.92" height="18.92"/>
				<rect x="109.59" y="273.75" class="st9" width="18.92" height="18.92"/>
				<rect x="109.59" y="308.15" class="st9" width="18.92" height="18.92"/>
				<rect x="109.59" y="342.55" class="st9" width="18.92" height="18.92"/>
				<line class="st0" x1="98.64" y1="248.8" x2="60.43" y2="248.8"/>
				<line class="st0" x1="98.64" y1="283.21" x2="60.43" y2="283.21"/>
				<line class="st0" x1="98.64" y1="317.61" x2="60.43" y2="317.61"/>
				<line class="st0" x1="98.64" y1="352.01" x2="60.43" y2="352.01"/>
			</g>
			<g>
				<circle class="st0" cx="276.83" cy="273.4" r="81.69"/>
				<circle class="st0" cx="276.83" cy="273.4" r="52.81"/>
				<path class="st0" d="M276.83,255.04c10.14,0,18.36,8.22,18.36,18.36"/>
			</g>
			<line class="st0" x1="318.3" y1="150.15" x2="235.36" y2="150.15"/>
			<path class="st0" d="M361.82,155.81l-11.19-22.04c-7.54-14.85-22.79-24.21-39.44-24.21h-70.35c-16.66,0-31.9,9.36-39.44,24.21
				l-11.19,22.04l-105.23,9.35c-15.22,1.35-26.88,14.1-26.88,29.38v165.54c0,16.29,13.2,29.49,29.49,29.49h324.83
				c16.29,0,29.49-13.2,29.49-29.49V193.04c0-14.64-10.73-27.06-25.21-29.18L361.82,155.81z"/>
			<path class="st0" d="M97.93,163.09v-7.11c0-11.67,9.46-21.12,21.12-21.12h0c11.67,0,21.12,9.46,21.12,21.12v7.11"/>
		</g>
	</g>
</g>
<g id="Text" class="st1">
</g>
</svg>
