<?xml version="1.0" encoding="utf-8"?>
<!-- Generator: Adobe Illustrator 24.1.0, SVG Export Plug-In . SVG Version: 6.00 Build 0)  -->
<svg version="1.1" xmlns="http://www.w3.org/2000/svg" xmlns:xlink="http://www.w3.org/1999/xlink" x="0px" y="0px"
	 viewBox="0 0 500 500" style="enable-background:new 0 0 500 500;" xml:space="preserve">
<style type="text/css">
	.st0{fill:none;stroke:#FFFFFF;stroke-width:16;stroke-miterlimit:10;}
	.st1{display:none;}
	.st2{display:inline;}
	.st3{fill:none;stroke:#D1D3D4;stroke-width:2;stroke-miterlimit:10;}
	.st4{display:inline;fill:none;stroke:#BCBEC0;stroke-width:4;stroke-miterlimit:10;}
	.st5{fill:none;stroke:#BCBEC0;stroke-width:4;stroke-miterlimit:10;}
	.st6{display:inline;fill:none;stroke:#D1D3D4;stroke-width:2;stroke-miterlimit:10;}
	.st7{display:none;opacity:0.35;fill:none;stroke:#000000;stroke-width:16;stroke-miterlimit:10;}
	.st8{fill:none;stroke:#FFFFFF;stroke-width:16;stroke-linejoin:bevel;stroke-miterlimit:10;}
	.st9{fill:#FFFFFF;}
	.st10{fill:none;stroke:#FFFFFF;stroke-width:16;stroke-linecap:square;stroke-miterlimit:10;}
	.st11{fill:none;stroke:#FFFFFF;stroke-width:16;stroke-linecap:round;stroke-miterlimit:10;}
	.st12{fill:none;stroke:#FFFFFF;stroke-width:8;stroke-miterlimit:10;}
</style>
<g id="Icons">
	<g>
		<path class="st0" d="M247.1,187.47c-2.24,0-4.42,0.22-6.55,0.61c1.42-3.85,2.19-8,2.19-12.34c0-19.7-15.97-35.67-35.67-35.67
			c-12.7,0-23.84,6.64-30.16,16.63c-6.32-9.99-17.46-16.63-30.16-16.63c-19.7,0-35.67,15.97-35.67,35.67
			c0,4.34,0.78,8.49,2.19,12.34c-2.12-0.39-4.31-0.61-6.55-0.61c-19.7,0-35.67,15.97-35.67,35.67s15.97,35.67,35.67,35.67
			c19.7,0,120.68,0,140.38,0s35.67-15.97,35.67-35.67S266.8,187.47,247.1,187.47z"/>
		<path class="st0" d="M282.77,222.12c37.69,0,97.37,0,112.03,0c19.7,0,35.67-15.97,35.67-35.67s-15.97-35.67-35.67-35.67
			c-2.24,0-4.42,0.22-6.55,0.61c1.42-3.85,2.19-8,2.19-12.34c0-19.7-15.97-35.67-35.67-35.67c-12.7,0-23.84,6.64-30.16,16.63
			c-6.32-9.99-17.46-16.63-30.16-16.63c-19.7,0-35.67,15.97-35.67,35.67c0,4.34,0.78,8.49,2.19,12.34
			c-2.12-0.39-4.31-0.61-6.55-0.61c-4.93,0-9.62,1-13.89,2.8"/>
		<g>
			<g>
				<line class="st0" x1="134.61" y1="308.01" x2="126.44" y2="328.46"/>
				<line class="st0" x1="148.24" y1="273.93" x2="140.06" y2="294.38"/>
				<line class="st0" x1="107.37" y1="376.18" x2="99.2" y2="396.63"/>
				<line class="st0" x1="120.99" y1="342.1" x2="112.82" y2="362.54"/>
			</g>
			<g>
				<line class="st0" x1="104.94" y1="308.01" x2="96.77" y2="328.46"/>
				<line class="st0" x1="118.56" y1="273.93" x2="110.39" y2="294.38"/>
				<line class="st0" x1="77.69" y1="376.18" x2="69.52" y2="396.63"/>
				<line class="st0" x1="91.32" y1="342.1" x2="83.14" y2="362.54"/>
			</g>
			<g>
				<line class="st0" x1="235.83" y1="308.01" x2="227.66" y2="328.46"/>
				<line class="st0" x1="249.46" y1="273.93" x2="241.29" y2="294.38"/>
				<line class="st0" x1="208.59" y1="376.18" x2="200.42" y2="396.63"/>
				<line class="st0" x1="222.21" y1="342.1" x2="214.04" y2="362.54"/>
			</g>
			<g>
				<line class="st0" x1="206.16" y1="308.01" x2="197.99" y2="328.46"/>
				<line class="st0" x1="219.78" y1="273.93" x2="211.61" y2="294.38"/>
				<line class="st0" x1="178.91" y1="376.18" x2="170.74" y2="396.63"/>
				<line class="st0" x1="192.54" y1="342.1" x2="184.37" y2="362.54"/>
			</g>
		</g>
		<g>
			<g>
				<line class="st0" x1="287.14" y1="271.78" x2="278.97" y2="292.22"/>
				<line class="st0" x1="300.77" y1="237.69" x2="292.6" y2="258.14"/>
				<line class="st0" x1="259.9" y1="339.94" x2="251.73" y2="360.39"/>
				<line class="st0" x1="273.52" y1="305.86" x2="265.35" y2="326.3"/>
			</g>
			<g>
				<line class="st0" x1="388.37" y1="271.78" x2="380.19" y2="292.22"/>
				<line class="st0" x1="401.99" y1="237.69" x2="393.82" y2="258.14"/>
				<line class="st0" x1="361.12" y1="339.94" x2="352.95" y2="360.39"/>
				<line class="st0" x1="374.74" y1="305.86" x2="366.57" y2="326.3"/>
			</g>
			<g>
				<line class="st0" x1="358.69" y1="271.78" x2="350.52" y2="292.22"/>
				<line class="st0" x1="372.31" y1="237.69" x2="364.14" y2="258.14"/>
				<line class="st0" x1="331.45" y1="339.94" x2="323.27" y2="360.39"/>
				<line class="st0" x1="345.07" y1="305.86" x2="336.9" y2="326.3"/>
			</g>
		</g>
		<polyline class="st0" points="346.15,224.5 318.9,257.04 333.26,261.98 309.34,288.05 323.7,292.99 297.78,321.66 312.14,326.6 
			286.18,355.4 		"/>
		<polyline class="st0" points="192.5,263.03 165.25,295.57 179.61,300.51 155.69,326.58 170.05,331.52 144.13,360.19 
			158.49,365.13 132.53,393.93 		"/>
	</g>
</g>
<g id="Text" class="st1">
</g>
</svg>
