<?xml version="1.0" encoding="utf-8"?>
<!-- Generator: Adobe Illustrator 24.1.0, SVG Export Plug-In . SVG Version: 6.00 Build 0)  -->
<svg version="1.1" xmlns="http://www.w3.org/2000/svg" xmlns:xlink="http://www.w3.org/1999/xlink" x="0px" y="0px"
	 viewBox="0 0 500 500" style="enable-background:new 0 0 500 500;" xml:space="preserve">
<style type="text/css">
	.st0{fill:none;stroke:#FFFFFF;stroke-width:16;stroke-miterlimit:10;}
	.st1{display:none;}
	.st2{display:inline;}
	.st3{fill:none;stroke:#D1D3D4;stroke-width:2;stroke-miterlimit:10;}
	.st4{display:inline;fill:none;stroke:#BCBEC0;stroke-width:4;stroke-miterlimit:10;}
	.st5{fill:none;stroke:#BCBEC0;stroke-width:4;stroke-miterlimit:10;}
	.st6{display:inline;fill:none;stroke:#D1D3D4;stroke-width:2;stroke-miterlimit:10;}
	.st7{display:none;opacity:0.35;fill:none;stroke:#000000;stroke-width:16;stroke-miterlimit:10;}
	.st8{fill:none;stroke:#FFFFFF;stroke-width:16;stroke-linejoin:bevel;stroke-miterlimit:10;}
	.st9{fill:#FFFFFF;}
	.st10{fill:none;stroke:#FFFFFF;stroke-width:16;stroke-linecap:square;stroke-miterlimit:10;}
	.st11{fill:none;stroke:#FFFFFF;stroke-width:16;stroke-linecap:round;stroke-miterlimit:10;}
	.st12{fill:none;stroke:#FFFFFF;stroke-width:8;stroke-miterlimit:10;}
</style>
<g id="Icons">
	<g>
		<g>
			<g>
				<line class="st0" x1="171.52" y1="269.45" x2="171.53" y2="352.83"/>
			</g>
		</g>
		<path class="st0" d="M93.84,352.83l36.66-76.05h0.98l-0.21,66.36c-38.82,0-70.29,31.47-70.29,70.29l-0.18,40.06"/>
		<circle class="st0" cx="132.7" cy="415.31" r="42.25"/>
		<circle class="st0" cx="398.52" cy="321.9" r="22.98"/>
		<g>
			<polyline class="st0" points="367.36,466.42 367.36,370.98 348.88,321.9 			"/>
		</g>
		<g>
			<polyline class="st0" points="344.33,310.68 303.56,186.75 302.62,186.75 302.63,466.63 			"/>
		</g>
		<g>
			<polyline class="st0" points="444.21,412.79 430.3,370.52 429.98,370.52 429.98,465.99 			"/>
		</g>
		<path class="st0" d="M249.7,464.54V334.1c0-9.53-6.33-17.77-15.43-20.6c-21.12-6.57-36.45-26.27-36.45-49.55
			s15.33-42.98,36.45-49.55c9.1-2.83,15.43-11.07,15.43-20.6v-18.29"/>
		<circle class="st0" cx="275.88" cy="132.89" r="23.95"/>
		<g>
			<polyline class="st0" points="414.66,274.67 388.09,216.67 387.18,216.67 387.18,277.53 			"/>
		</g>
		<circle class="st0" cx="360.17" cy="162.8" r="23.95"/>
		<g>
			<g>
				<circle class="st0" cx="191.6" cy="162.8" r="23.95"/>
			</g>
		</g>
		<g>
			<g>
				<circle class="st0" cx="151.5" cy="230.28" r="23.95"/>
			</g>
		</g>
		<line class="st0" x1="343.33" y1="210.53" x2="343.33" y2="250.83"/>
		<path class="st0" d="M393.6,74.79c-32.97-25.94-74.56-41.41-119.76-41.41c-45.2,0-86.79,15.47-119.76,41.41"/>
	</g>
</g>
<g id="Text" class="st1">
</g>
</svg>
