<?xml version="1.0" encoding="utf-8"?>
<!-- Generator: Adobe Illustrator 24.1.0, SVG Export Plug-In . SVG Version: 6.00 Build 0)  -->
<svg version="1.1" xmlns="http://www.w3.org/2000/svg" xmlns:xlink="http://www.w3.org/1999/xlink" x="0px" y="0px"
	 viewBox="0 0 500 500" style="enable-background:new 0 0 500 500;" xml:space="preserve">
<style type="text/css">
	.st0{fill:none;stroke:#FFFFFF;stroke-width:16;stroke-miterlimit:10;}
	.st1{display:none;}
	.st2{display:inline;}
	.st3{fill:none;stroke:#D1D3D4;stroke-width:2;stroke-miterlimit:10;}
	.st4{display:inline;fill:none;stroke:#BCBEC0;stroke-width:4;stroke-miterlimit:10;}
	.st5{fill:none;stroke:#BCBEC0;stroke-width:4;stroke-miterlimit:10;}
	.st6{display:inline;fill:none;stroke:#D1D3D4;stroke-width:2;stroke-miterlimit:10;}
	.st7{display:none;opacity:0.35;fill:none;stroke:#000000;stroke-width:16;stroke-miterlimit:10;}
	.st8{fill:none;stroke:#FFFFFF;stroke-width:16;stroke-linejoin:bevel;stroke-miterlimit:10;}
	.st9{fill:#FFFFFF;}
	.st10{fill:none;stroke:#FFFFFF;stroke-width:16;stroke-linecap:square;stroke-miterlimit:10;}
	.st11{fill:none;stroke:#FFFFFF;stroke-width:16;stroke-linecap:round;stroke-miterlimit:10;}
	.st12{fill:none;stroke:#FFFFFF;stroke-width:8;stroke-miterlimit:10;}
</style>
<g id="Icons">
	<g>
		<path class="st0" d="M140.28,316.96c-37.13,0-67.32-30.21-67.32-67.32s30.19-67.32,67.32-67.32s67.33,30.21,67.33,67.32
			C207.61,286.75,177.41,316.96,140.28,316.96L140.28,316.96z"/>
		<path class="st0" d="M359.87,208.08c-37.13,0-67.32-30.21-67.32-67.32c0-37.12,30.19-67.32,67.32-67.32s67.33,30.21,67.33,67.32
			C427.2,177.87,397,208.08,359.87,208.08L359.87,208.08z"/>
		<path class="st0" d="M359.92,426.57c-37.13,0-67.32-30.21-67.32-67.32c0-37.12,30.19-67.32,67.32-67.32s67.33,30.21,67.33,67.32
			C427.24,396.36,397.05,426.57,359.92,426.57L359.92,426.57z"/>
		<line class="st0" x1="200.54" y1="279.53" x2="300.83" y2="329.69"/>
		<line class="st0" x1="200.1" y1="219.34" x2="299.9" y2="168.22"/>
	</g>
</g>
<g id="Text" class="st1">
</g>
</svg>
