<?xml version="1.0" encoding="utf-8"?>
<!-- Generator: Adobe Illustrator 24.1.0, SVG Export Plug-In . SVG Version: 6.00 Build 0)  -->
<svg version="1.1" xmlns="http://www.w3.org/2000/svg" xmlns:xlink="http://www.w3.org/1999/xlink" x="0px" y="0px"
	 viewBox="0 0 500 500" style="enable-background:new 0 0 500 500;" xml:space="preserve">
<style type="text/css">
	.st0{fill:none;stroke:#FFFFFF;stroke-width:16;stroke-miterlimit:10;}
	.st1{display:none;}
	.st2{display:inline;}
	.st3{fill:none;stroke:#D1D3D4;stroke-width:2;stroke-miterlimit:10;}
	.st4{display:inline;fill:none;stroke:#BCBEC0;stroke-width:4;stroke-miterlimit:10;}
	.st5{fill:none;stroke:#BCBEC0;stroke-width:4;stroke-miterlimit:10;}
	.st6{display:inline;fill:none;stroke:#D1D3D4;stroke-width:2;stroke-miterlimit:10;}
	.st7{display:none;opacity:0.35;fill:none;stroke:#000000;stroke-width:16;stroke-miterlimit:10;}
	.st8{fill:none;stroke:#FFFFFF;stroke-width:16;stroke-linejoin:bevel;stroke-miterlimit:10;}
	.st9{fill:#FFFFFF;}
	.st10{fill:none;stroke:#FFFFFF;stroke-width:16;stroke-linecap:square;stroke-miterlimit:10;}
	.st11{fill:none;stroke:#FFFFFF;stroke-width:16;stroke-linecap:round;stroke-miterlimit:10;}
	.st12{fill:none;stroke:#FFFFFF;stroke-width:8;stroke-miterlimit:10;}
</style>
<g id="Icons">
	<g>
		<path class="st0" d="M370.01,94.42C336.98,68.42,295.3,52.92,250,52.92c-45.3,0-86.98,15.51-120.01,41.5"/>
		<g>
			<circle class="st0" cx="249.6" cy="147.13" r="20.88"/>
			<circle class="st0" cx="130.46" cy="158.44" r="20.88"/>
			<g>
				<polyline class="st0" points="153.05,447.08 153.04,203.12 153.86,203.12 188.14,310.42 189.1,310.42 226.2,191.81 
					227.01,191.81 227.01,447.08 				"/>
				<polyline class="st0" points="71.51,311.14 107.05,203.12 107.87,203.12 107.86,447.08 				"/>
			</g>
			<circle class="st0" cx="369.54" cy="158.44" r="20.88"/>
			<g>
				<polyline class="st0" points="428.49,311.14 392.95,203.12 392.13,203.12 392.14,447.08 				"/>
				<polyline class="st0" points="346.95,447.08 346.96,203.12 346.14,203.12 310.98,310.42 310.03,310.42 273.01,191.81 
					272.19,191.81 272.2,447.08 				"/>
			</g>
		</g>
	</g>
</g>
<g id="Text" class="st1">
</g>
</svg>
