<?xml version="1.0" encoding="utf-8"?>
<!-- Generator: Adobe Illustrator 24.1.0, SVG Export Plug-In . SVG Version: 6.00 Build 0)  -->
<svg version="1.1" xmlns="http://www.w3.org/2000/svg" xmlns:xlink="http://www.w3.org/1999/xlink" x="0px" y="0px"
	 viewBox="0 0 500 500" style="enable-background:new 0 0 500 500;" xml:space="preserve">
<style type="text/css">
	.st0{fill:none;stroke:#FFFFFF;stroke-width:16;stroke-miterlimit:10;}
	.st1{display:none;}
	.st2{display:inline;}
	.st3{fill:none;stroke:#D1D3D4;stroke-width:2;stroke-miterlimit:10;}
	.st4{display:inline;fill:none;stroke:#BCBEC0;stroke-width:4;stroke-miterlimit:10;}
	.st5{fill:none;stroke:#BCBEC0;stroke-width:4;stroke-miterlimit:10;}
	.st6{display:inline;fill:none;stroke:#D1D3D4;stroke-width:2;stroke-miterlimit:10;}
	.st7{display:none;opacity:0.35;fill:none;stroke:#000000;stroke-width:16;stroke-miterlimit:10;}
	.st8{fill:none;stroke:#FFFFFF;stroke-width:16;stroke-linejoin:bevel;stroke-miterlimit:10;}
	.st9{fill:#FFFFFF;}
	.st10{fill:none;stroke:#FFFFFF;stroke-width:16;stroke-linecap:square;stroke-miterlimit:10;}
	.st11{fill:none;stroke:#FFFFFF;stroke-width:16;stroke-linecap:round;stroke-miterlimit:10;}
	.st12{fill:none;stroke:#FFFFFF;stroke-width:8;stroke-miterlimit:10;}
</style>
<g id="Icons">
	<g>
		<g>
			<polygon class="st0" points="369.37,196.96 260.98,202.96 258.98,97.57 372.37,97.57 			"/>
			<line class="st0" x1="366.94" y1="97.57" x2="366.94" y2="67.58"/>
			<line class="st0" x1="262.99" y1="67.58" x2="265.99" y2="97.57"/>
			<path class="st0" d="M338.51,324.47L338.51,324.47c33.92,0,61.42-27.5,61.42-61.42v0c0-18.44-8.28-35.9-22.56-47.56l0,0
				c-4.92-4.02-8.64-9.19-10.9-14.96"/>
			<path class="st0" d="M257.9,396.01c-12.93,22.52-36.92,36.41-62.89,36.41h-12.09H123.7c-13.05,0-23.63-10.58-23.63-23.63v0
				c0-13.45,10.9-24.35,24.35-24.35h0c18.36,0,35.69-7.69,47.96-20.91l7.6-8.7"/>
			<polyline class="st0" points="228.93,263.5 262.99,216.23 338.8,331.17 292.47,354.94 195.44,308.76 226.46,260.82 
				292.47,355.64 265.9,396.01 172.38,350.62 200.16,308.96 			"/>
			<line class="st0" x1="257.97" y1="122.04" x2="370.21" y2="149.08"/>
			<line class="st0" x1="261.98" y1="172.54" x2="364.93" y2="156.56"/>
		</g>
	</g>
</g>
<g id="Text" class="st1">
</g>
</svg>
