<?xml version="1.0" encoding="utf-8"?>
<!-- Generator: Adobe Illustrator 24.1.0, SVG Export Plug-In . SVG Version: 6.00 Build 0)  -->
<svg version="1.1" xmlns="http://www.w3.org/2000/svg" xmlns:xlink="http://www.w3.org/1999/xlink" x="0px" y="0px"
	 viewBox="0 0 500 500" style="enable-background:new 0 0 500 500;" xml:space="preserve">
<style type="text/css">
	.st0{fill:none;stroke:#FFFFFF;stroke-width:16;stroke-miterlimit:10;}
	.st1{display:none;}
	.st2{display:inline;}
	.st3{fill:none;stroke:#D1D3D4;stroke-width:2;stroke-miterlimit:10;}
	.st4{display:inline;fill:none;stroke:#BCBEC0;stroke-width:4;stroke-miterlimit:10;}
	.st5{fill:none;stroke:#BCBEC0;stroke-width:4;stroke-miterlimit:10;}
	.st6{display:inline;fill:none;stroke:#D1D3D4;stroke-width:2;stroke-miterlimit:10;}
	.st7{display:none;opacity:0.35;fill:none;stroke:#000000;stroke-width:16;stroke-miterlimit:10;}
	.st8{fill:none;stroke:#FFFFFF;stroke-width:16;stroke-linejoin:bevel;stroke-miterlimit:10;}
	.st9{fill:#FFFFFF;}
	.st10{fill:none;stroke:#FFFFFF;stroke-width:16;stroke-linecap:square;stroke-miterlimit:10;}
	.st11{fill:none;stroke:#FFFFFF;stroke-width:16;stroke-linecap:round;stroke-miterlimit:10;}
	.st12{fill:none;stroke:#FFFFFF;stroke-width:8;stroke-miterlimit:10;}
</style>
<g id="Icons">
	<g>
		<g>
			<g>
				<g>
					<path class="st0" d="M395.76,276.79c0-27.19-22.04-49.23-49.23-49.23c-19.6,0-36.52,11.46-44.44,28.04
						c-7.92-16.58-24.84-28.04-44.44-28.04s-36.52,11.46-44.44,28.04c-7.92-16.58-24.84-28.04-44.44-28.04
						c-27.19,0-49.23,22.04-49.23,49.23V258.4c0-76.27,61.83-138.11,138.11-138.11h0c76.27,0,138.11,61.83,138.11,138.11V276.79z"/>
				</g>
				<path class="st0" d="M213.05,276.79V258.4c0-76.27,13.93-138.11,44.6-138.11"/>
				<path class="st0" d="M301.43,276.79V258.4c0-76.27-13.93-138.11-44.6-138.11"/>
			</g>
			<path class="st0" d="M327.74,379.94c0,19.39-15.72,35.12-35.12,35.12c-19.39,0-35.12-15.72-35.12-35.12V225.56"/>
			<line class="st0" x1="257.65" y1="101.38" x2="257.65" y2="119.86"/>
		</g>
	</g>
</g>
<g id="Text" class="st1">
</g>
</svg>
