<?xml version="1.0" encoding="utf-8"?>
<!-- Generator: Adobe Illustrator 24.1.0, SVG Export Plug-In . SVG Version: 6.00 Build 0)  -->
<svg version="1.1" xmlns="http://www.w3.org/2000/svg" xmlns:xlink="http://www.w3.org/1999/xlink" x="0px" y="0px"
	 viewBox="0 0 500 500" style="enable-background:new 0 0 500 500;" xml:space="preserve">
<style type="text/css">
	.st0{fill:none;stroke:#FFFFFF;stroke-width:16;stroke-miterlimit:10;}
	.st1{display:none;}
	.st2{display:inline;}
	.st3{fill:none;stroke:#D1D3D4;stroke-width:2;stroke-miterlimit:10;}
	.st4{display:inline;fill:none;stroke:#BCBEC0;stroke-width:4;stroke-miterlimit:10;}
	.st5{fill:none;stroke:#BCBEC0;stroke-width:4;stroke-miterlimit:10;}
	.st6{display:inline;fill:none;stroke:#D1D3D4;stroke-width:2;stroke-miterlimit:10;}
	.st7{display:none;opacity:0.35;fill:none;stroke:#000000;stroke-width:16;stroke-miterlimit:10;}
	.st8{fill:none;stroke:#FFFFFF;stroke-width:16;stroke-linejoin:bevel;stroke-miterlimit:10;}
	.st9{fill:#FFFFFF;}
	.st10{fill:none;stroke:#FFFFFF;stroke-width:16;stroke-linecap:square;stroke-miterlimit:10;}
	.st11{fill:none;stroke:#FFFFFF;stroke-width:16;stroke-linecap:round;stroke-miterlimit:10;}
	.st12{fill:none;stroke:#FFFFFF;stroke-width:8;stroke-miterlimit:10;}
</style>
<g id="Icons">
	<g>
		<g>
			<g>
				<g>
					<line class="st0" x1="248.89" y1="194.75" x2="338.29" y2="194.75"/>
				</g>
				<g>
					<line class="st0" x1="248.89" y1="225.73" x2="338.29" y2="225.73"/>
				</g>
				<g>
					<line class="st0" x1="248.89" y1="256.71" x2="338.29" y2="256.71"/>
				</g>
				<g>
					<line class="st0" x1="142.72" y1="318.67" x2="338.29" y2="318.67"/>
				</g>
				<g>
					<line class="st0" x1="142.72" y1="287.69" x2="338.29" y2="287.69"/>
				</g>
				<g>
					<line class="st0" x1="142.72" y1="349.65" x2="338.29" y2="349.65"/>
				</g>
				<g>
					<rect x="149.9" y="163.77" class="st0" width="74.61" height="92.94"/>
					<g>
						<circle class="st0" cx="187.53" cy="200.95" r="15.7"/>
						<g>
							<polyline class="st0" points="209.85,255.62 202.6,240.37 202.08,240.37 202.08,260.1 							"/>
							<polyline class="st0" points="164.57,257.55 172.45,240.37 172.98,240.37 172.98,260.61 							"/>
						</g>
					</g>
				</g>
				<polyline class="st0" points="363.22,149.93 363.22,442.84 119.51,442.84 119.51,106.29 276.04,106.29 				"/>
				<polygon class="st0" points="183.06,417.69 144.67,379.29 183.06,379.29 				"/>
			</g>
			<g>
				<line class="st0" x1="305.32" y1="135.94" x2="354.95" y2="86.32"/>
			</g>
			<g>
				<line class="st0" x1="354.95" y1="135.94" x2="305.32" y2="86.32"/>
			</g>
			<circle class="st0" cx="330.14" cy="111.13" r="53.97"/>
		</g>
	</g>
</g>
<g id="Text" class="st1">
</g>
</svg>
