<?xml version="1.0" encoding="utf-8"?>
<!-- Generator: Adobe Illustrator 24.1.0, SVG Export Plug-In . SVG Version: 6.00 Build 0)  -->
<svg version="1.1" xmlns="http://www.w3.org/2000/svg" xmlns:xlink="http://www.w3.org/1999/xlink" x="0px" y="0px"
	 viewBox="0 0 500 500" style="enable-background:new 0 0 500 500;" xml:space="preserve">
<style type="text/css">
	.st0{fill:none;stroke:#FFFFFF;stroke-width:16;stroke-miterlimit:10;}
	.st1{display:none;}
	.st2{display:inline;}
	.st3{fill:none;stroke:#D1D3D4;stroke-width:2;stroke-miterlimit:10;}
	.st4{display:inline;fill:none;stroke:#BCBEC0;stroke-width:4;stroke-miterlimit:10;}
	.st5{fill:none;stroke:#BCBEC0;stroke-width:4;stroke-miterlimit:10;}
	.st6{display:inline;fill:none;stroke:#D1D3D4;stroke-width:2;stroke-miterlimit:10;}
	.st7{display:none;opacity:0.35;fill:none;stroke:#000000;stroke-width:16;stroke-miterlimit:10;}
	.st8{fill:none;stroke:#FFFFFF;stroke-width:16;stroke-linejoin:bevel;stroke-miterlimit:10;}
	.st9{fill:#FFFFFF;}
	.st10{fill:none;stroke:#FFFFFF;stroke-width:16;stroke-linecap:square;stroke-miterlimit:10;}
	.st11{fill:none;stroke:#FFFFFF;stroke-width:16;stroke-linecap:round;stroke-miterlimit:10;}
	.st12{fill:none;stroke:#FFFFFF;stroke-width:8;stroke-miterlimit:10;}
</style>
<g id="Icons">
	<g>
		<g>
			<g>
				<g>
					<g>
						<line class="st0" x1="337.96" y1="182.36" x2="314.55" y2="205.77"/>
					</g>
					<g>
						<path class="st0" d="M405.12,147.27c0,17.44-14.14,31.57-31.58,31.57c-5.54,0-10.74-1.43-15.26-3.93
							c-9.73-5.38-16.31-15.74-16.31-27.65c0-17.44,14.14-31.58,31.58-31.58S405.12,129.83,405.12,147.27z"/>
						<line class="st0" x1="372.62" y1="197.54" x2="372.62" y2="230.64"/>
						<line class="st0" x1="372.62" y1="64.81" x2="372.62" y2="97.92"/>
						<line class="st0" x1="422.43" y1="147.73" x2="455.54" y2="147.73"/>
						<line class="st0" x1="407.84" y1="112.51" x2="431.25" y2="89.1"/>
						<line class="st0" x1="407.84" y1="182.95" x2="431.25" y2="206.36"/>
						<line class="st0" x1="313.99" y1="89.1" x2="337.4" y2="112.51"/>
					</g>
					<g>
						<path class="st0" d="M338.53,243.27c8.32,8.32,8.32,21.8,0,30.11l0,0c-8.32,8.32-8.32,21.8,0,30.11l0,0
							c8.32,8.32,8.32,21.8,0,30.11"/>
						<path class="st0" d="M372.62,243.27c8.32,8.32,8.32,21.8,0,30.11l0,0c-8.32,8.32-8.32,21.8,0,30.11l0,0
							c8.32,8.32,8.32,21.8,0,30.11"/>
						<path class="st0" d="M406.71,243.27c8.32,8.32,8.32,21.8,0,30.11l0,0c-8.32,8.32-8.32,21.8,0,30.11l0,0
							c8.32,8.32,8.32,21.8,0,30.11"/>
					</g>
				</g>
				<path class="st0" d="M290.64,129.26c-1.61,0-3.19,0.16-4.71,0.44c1.02-2.77,1.58-5.76,1.58-8.89c0-14.19-11.5-25.69-25.69-25.69
					c-9.15,0-17.17,4.78-21.72,11.98c-4.55-7.2-12.58-11.98-21.72-11.98c-14.19,0-25.69,11.5-25.69,25.69
					c0,3.12,0.56,6.12,1.58,8.89c-1.53-0.28-3.1-0.44-4.71-0.44c-14.19,0-25.69,11.5-25.69,25.69c0,14.19,11.5,25.69,25.69,25.69
					c14.19,0,86.91,0,101.1,0s25.69-11.5,25.69-25.69C316.33,140.76,304.83,129.26,290.64,129.26z"/>
				<path class="st0" d="M227.69,95.81c0-14.19-11.5-25.69-25.69-25.69c-9.15,0-17.17,4.78-21.72,11.98
					c-4.55-7.2-12.58-11.98-21.72-11.98c-14.19,0-25.69,11.5-25.69,25.69c0,3.12,0.56,6.12,1.58,8.89c-1.53-0.28-3.1-0.44-4.71-0.44
					c-14.19,0-25.69,11.5-25.69,25.69s11.5,25.69,25.69,25.69h35.1"/>
				<g>
					<g>
						<rect x="278.76" y="202.46" class="st9" width="14.19" height="14.19"/>
						<rect x="278.76" y="231.03" class="st9" width="14.19" height="14.19"/>
						<rect x="278.76" y="259.6" class="st9" width="14.19" height="14.19"/>
						<rect x="278.76" y="288.17" class="st9" width="14.19" height="14.19"/>
						<rect x="278.76" y="316.75" class="st9" width="14.19" height="14.19"/>
						<rect x="206.79" y="202.46" class="st9" width="14.19" height="14.19"/>
						<rect x="206.79" y="231.03" class="st9" width="14.19" height="14.19"/>
						<rect x="206.79" y="259.6" class="st9" width="14.19" height="14.19"/>
						<rect x="206.79" y="288.17" class="st9" width="14.19" height="14.19"/>
						<rect x="206.79" y="316.75" class="st9" width="14.19" height="14.19"/>
					</g>
				</g>
				<path class="st0" d="M102.56,83.33c0-7.3-5.92-13.21-13.21-13.21c-7.3,0-13.21,5.92-13.21,13.21c0,7.3,5.92,13.21,13.21,13.21
					h43.51"/>
				<path class="st0" d="M79.49,168.36c0,7.3-5.92,13.21-13.21,13.21c-7.3,0-13.21-5.92-13.21-13.21c0-7.3,5.92-13.21,13.21-13.21
					h56.88"/>
				<line class="st0" x1="104.03" y1="125.73" x2="67.02" y2="125.73"/>
				<path class="st0" d="M186.2,418.67l16.88,10.27c9.82,5.98,21.42,6.03,31.3,0.15l1.08-0.64c9.99-5.95,21.74-5.83,31.62,0.35l0,0
					c10,6.24,21.89,6.3,31.95,0.15l0,0c9.94-6.08,21.68-6.1,31.62-0.05l1.07,0.65c9.82,5.98,21.42,6.03,31.3,0.15l1.08-0.64
					c9.99-5.95,21.74-5.83,31.62,0.35l0.2,0.13c9.88,6.17,21.63,6.3,31.62,0.35l16.77-9.99"/>
				<path class="st0" d="M186.25,349.93l16.88,10.27c9.82,5.98,21.42,6.03,31.3,0.15l1.08-0.64c9.99-5.95,21.74-5.83,31.62,0.35h0
					c10,6.24,21.89,6.3,31.95,0.15h0c9.94-6.08,21.68-6.1,31.62-0.05l1.07,0.65c9.82,5.98,21.42,6.03,31.3,0.15l1.08-0.64
					c9.99-5.95,21.74-5.83,31.62,0.35l0.2,0.13c9.88,6.17,21.63,6.3,31.62,0.35l16.77-9.99"/>
				<path class="st0" d="M186.23,384.3l16.88,10.27c9.82,5.98,21.42,6.03,31.3,0.15l1.08-0.64c9.99-5.95,21.74-5.83,31.62,0.35l0,0
					c10,6.24,21.89,6.3,31.95,0.15l0,0c9.94-6.08,21.68-6.1,31.62-0.05l1.07,0.65c9.82,5.98,21.42,6.03,31.3,0.15l1.08-0.64
					c9.99-5.95,21.74-5.83,31.62,0.35l0.2,0.13c9.88,6.17,21.63,6.3,31.62,0.35l16.77-9.99"/>
				<g>
					<line class="st0" x1="44.46" y1="230.55" x2="120.98" y2="230.55"/>
					<line class="st0" x1="133.13" y1="241.65" x2="194.56" y2="241.65"/>
					<line class="st0" x1="104.4" y1="280.68" x2="161.85" y2="280.68"/>
					<line class="st0" x1="140.58" y1="323.84" x2="195.96" y2="323.84"/>
					<line class="st0" x1="67.02" y1="365.51" x2="122.77" y2="365.51"/>
					<path class="st0" d="M144.52,367.62c0-13.93,6.38-26.37,16.38-34.56c1.06-1.04,2.18-2.03,3.36-2.96l0,0
						c9.81-7.76,16.09-19.14,17.4-31.58v-1.5c0-7.75-1.36-15.43-3.79-22.79c-7.36-22.29-4.34-47.03,8.5-67.23H73.34
						c-5.83,21.14-4.49,43.7,4.23,63.82c4.36,10.06,10.12,19.36,17.04,27.67c1.76,2.11,3.35,4.36,4.71,6.74l0,0
						c5.69,9.95,7.43,21.67,4.89,32.84l-1.04,4.56c-1.03,4.54-1.41,9.2-1.12,13.85c0.48,7.73,2.76,15.26,6.75,21.9
						c6.48,10.79,15.57,19.88,26.53,26.37c7.37,4.23,11.4,12.53,10.18,20.94l-0.47,3.26h12.71l0.01-0.03
						c2.51-6.4,3.13-13.21,2.04-19.75c-0.93-5.53-3.36-10.67-6.67-15.19C147.72,386.58,144.52,377.47,144.52,367.62z"/>
				</g>
			</g>
		</g>
		<rect x="69.93" y="314.09" class="st9" width="14.19" height="14.19"/>
		<rect x="44.9" y="332.43" class="st9" width="14.19" height="14.19"/>
		<rect x="44.9" y="295.74" class="st9" width="14.19" height="14.19"/>
		<rect x="69.93" y="402.65" class="st9" width="14.19" height="14.19"/>
		<rect x="44.9" y="421" class="st9" width="14.19" height="14.19"/>
		<rect x="44.9" y="384.3" class="st9" width="14.19" height="14.19"/>
		<polyline class="st0" points="255.69,201.99 242.17,237.3 255.69,237.3 243.1,266.17 256.63,266.17 243.1,297.83 256.63,297.83 
			243.1,329.6 		"/>
	</g>
</g>
<g id="Text" class="st1">
</g>
</svg>
