<?xml version="1.0" encoding="utf-8"?>
<!-- Generator: Adobe Illustrator 24.1.0, SVG Export Plug-In . SVG Version: 6.00 Build 0)  -->
<svg version="1.1" xmlns="http://www.w3.org/2000/svg" xmlns:xlink="http://www.w3.org/1999/xlink" x="0px" y="0px"
	 viewBox="0 0 500 500" style="enable-background:new 0 0 500 500;" xml:space="preserve">
<style type="text/css">
	.st0{fill:none;stroke:#FFFFFF;stroke-width:16;stroke-miterlimit:10;}
	.st1{display:none;}
	.st2{display:inline;}
	.st3{fill:none;stroke:#D1D3D4;stroke-width:2;stroke-miterlimit:10;}
	.st4{display:inline;fill:none;stroke:#BCBEC0;stroke-width:4;stroke-miterlimit:10;}
	.st5{fill:none;stroke:#BCBEC0;stroke-width:4;stroke-miterlimit:10;}
	.st6{display:inline;fill:none;stroke:#D1D3D4;stroke-width:2;stroke-miterlimit:10;}
	.st7{display:none;opacity:0.35;fill:none;stroke:#000000;stroke-width:16;stroke-miterlimit:10;}
	.st8{fill:none;stroke:#FFFFFF;stroke-width:16;stroke-linejoin:bevel;stroke-miterlimit:10;}
	.st9{fill:#FFFFFF;}
	.st10{fill:none;stroke:#FFFFFF;stroke-width:16;stroke-linecap:square;stroke-miterlimit:10;}
	.st11{fill:none;stroke:#FFFFFF;stroke-width:16;stroke-linecap:round;stroke-miterlimit:10;}
	.st12{fill:none;stroke:#FFFFFF;stroke-width:8;stroke-miterlimit:10;}
</style>
<g id="Icons">
	<g>
		<path class="st0" d="M167.59,283.53H82.15c-15.66,0-28.35-12.69-28.35-28.35v-74.36c0-15.66,12.69-28.35,28.35-28.35h85.44V283.53
			z"/>
		<path class="st0" d="M346.21,351.56L346.21,351.56c-7.41,0-13.41-6-13.41-13.41l0-240.98c0-7.41,6-13.41,13.41-13.41h0
			c7.41,0,13.41,6,13.41,13.41v240.98C359.62,345.56,353.62,351.56,346.21,351.56z"/>
		<path class="st0" d="M101.8,416.24h21.07c10.13,0,18.34-8.21,18.34-18.34V285.18H83.46V397.9
			C83.46,408.03,91.67,416.24,101.8,416.24z"/>
		<g>
			<line class="st0" x1="78.53" y1="187.14" x2="142.86" y2="187.14"/>
			<line class="st0" x1="78.53" y1="218" x2="142.86" y2="218"/>
			<line class="st0" x1="78.53" y1="248.85" x2="142.86" y2="248.85"/>
		</g>
		<path class="st0" d="M359.62,175.46c17.45,6.08,29.98,22.67,29.98,42.2v0c0,19.52-12.53,36.12-29.98,42.2"/>
		<path class="st0" d="M141.22,346.32L141.22,346.32c-17.76,0-32.17-14.4-32.17-32.17v-28.97"/>
		<g>
			<line class="st10" x1="425.64" y1="138.47" x2="414.14" y2="145.01"/>
			<line class="st10" x1="446.12" y1="217.89" x2="432.89" y2="217.76"/>
			<line class="st10" x1="423.89" y1="296.84" x2="412.52" y2="290.07"/>
		</g>
		<g>
			<line class="st0" x1="332.8" y1="335.55" x2="167.59" y2="283.53"/>
			<line class="st0" x1="332.8" y1="99.77" x2="167.59" y2="152.47"/>
		</g>
	</g>
</g>
<g id="Text" class="st1">
</g>
</svg>
