<?xml version="1.0" encoding="utf-8"?>
<!-- Generator: Adobe Illustrator 24.1.0, SVG Export Plug-In . SVG Version: 6.00 Build 0)  -->
<svg version="1.1" xmlns="http://www.w3.org/2000/svg" xmlns:xlink="http://www.w3.org/1999/xlink" x="0px" y="0px"
	 viewBox="0 0 500 500" style="enable-background:new 0 0 500 500;" xml:space="preserve">
<style type="text/css">
	.st0{fill:none;stroke:#FFFFFF;stroke-width:16;stroke-miterlimit:10;}
	.st1{display:none;}
	.st2{display:inline;}
	.st3{fill:none;stroke:#D1D3D4;stroke-width:2;stroke-miterlimit:10;}
	.st4{display:inline;fill:none;stroke:#BCBEC0;stroke-width:4;stroke-miterlimit:10;}
	.st5{fill:none;stroke:#BCBEC0;stroke-width:4;stroke-miterlimit:10;}
	.st6{display:inline;fill:none;stroke:#D1D3D4;stroke-width:2;stroke-miterlimit:10;}
	.st7{display:none;opacity:0.35;fill:none;stroke:#000000;stroke-width:16;stroke-miterlimit:10;}
	.st8{fill:none;stroke:#FFFFFF;stroke-width:16;stroke-linejoin:bevel;stroke-miterlimit:10;}
	.st9{fill:#FFFFFF;}
	.st10{fill:none;stroke:#FFFFFF;stroke-width:16;stroke-linecap:square;stroke-miterlimit:10;}
	.st11{fill:none;stroke:#FFFFFF;stroke-width:16;stroke-linecap:round;stroke-miterlimit:10;}
	.st12{fill:none;stroke:#FFFFFF;stroke-width:8;stroke-miterlimit:10;}
</style>
<g id="Icons">
	<g>
		<g>
			<path class="st8" d="M419.81,175.71c-8.09-12.77-22.61-18.98-36.67-17.1c4.12-6.02,6.53-13.3,6.53-21.14
				c0-20.71-16.79-37.5-37.5-37.5c-9.65,0-18.44,3.64-25.08,9.63c-1.1-19.73-17.43-35.38-37.43-35.38
				c-16.11,0-29.85,10.17-35.15,24.43c-5.3-14.27-19.04-24.43-35.15-24.43c-20,0-36.34,15.66-37.43,35.38
				c-6.64-5.98-15.44-9.63-25.08-9.63c-20.71,0-37.5,16.79-37.5,37.5c0,7.85,2.41,15.12,6.53,21.14
				c-14.06-1.88-28.58,4.33-36.67,17.1c-11.08,17.5-5.87,40.66,11.62,51.74c7.18,4.54,15.31,6.35,23.17,5.69h261.02
				c7.86,0.66,15.99-1.14,23.17-5.69C425.68,216.37,430.88,193.21,419.81,175.71z"/>
			<path class="st0" d="M314.6,293.34c-5.82,0-11.1,2.28-15.02,5.99c-3.93-3.7-9.2-5.99-15.02-5.99c-5.82,0-11.1,2.28-15.02,5.99
				c-3.93-3.7-9.2-5.99-15.02-5.99c-5.82,0-11.1,2.28-15.02,5.99c-3.93-3.7-9.2-5.99-15.02-5.99c-5.82,0-11.1,2.28-15.02,5.99
				c-3.93-3.7-9.2-5.99-15.02-5.99c-12.11,0-21.93,9.82-21.93,21.93c0,12.11,9.82,21.93,21.93,21.93c5.82,0,11.1-2.28,15.02-5.99
				c3.93,3.7,9.2,5.99,15.02,5.99c5.82,0,11.1-2.28,15.02-5.99c3.93,3.7,9.2,5.99,15.02,5.99c5.82,0,11.1-2.28,15.02-5.99
				c3.93,3.7,9.2,5.99,15.02,5.99c5.82,0,11.1-2.28,15.02-5.99c3.93,3.7,9.2,5.99,15.02,5.99c12.11,0,21.93-9.82,21.93-21.93
				C336.52,303.16,326.71,293.34,314.6,293.34z"/>
			<g>
				<path class="st0" d="M139.15,418.73c0-12.75,10.33-23.08,23.08-23.08c12.75,0,23.08,10.33,23.08,23.08"/>
				<path class="st0" d="M185.28,418.73c0-12.75,10.33-23.08,23.08-23.08c12.75,0,23.08,10.33,23.08,23.08"/>
				<path class="st0" d="M231.42,418.73c0-12.75,10.33-23.08,23.08-23.08c12.75,0,23.08,10.33,23.08,23.08"/>
				<path class="st0" d="M277.56,418.73c0-12.75,10.33-23.08,23.08-23.08c12.75,0,23.08,10.33,23.08,23.08"/>
				<path class="st0" d="M323.69,418.73c0-12.75,10.33-23.08,23.08-23.08c12.75,0,23.08,10.33,23.08,23.08"/>
			</g>
			<g>
				<line class="st0" x1="231.69" y1="231.34" x2="231.69" y2="292.46"/>
				<line class="st0" x1="254.75" y1="231.34" x2="254.75" y2="292.46"/>
				<line class="st0" x1="277.31" y1="231.34" x2="277.31" y2="292.46"/>
			</g>
			<g>
				<line class="st0" x1="231.69" y1="338.06" x2="231.69" y2="399.45"/>
				<line class="st0" x1="254.75" y1="338.06" x2="254.75" y2="399.45"/>
				<line class="st0" x1="277.31" y1="338.06" x2="277.31" y2="399.45"/>
			</g>
			<line class="st0" x1="103.4" y1="425.79" x2="405.6" y2="425.79"/>
		</g>
	</g>
</g>
<g id="Text" class="st1">
</g>
</svg>
