<?xml version="1.0" encoding="utf-8"?>
<!-- Generator: Adobe Illustrator 24.1.0, SVG Export Plug-In . SVG Version: 6.00 Build 0)  -->
<svg version="1.1" xmlns="http://www.w3.org/2000/svg" xmlns:xlink="http://www.w3.org/1999/xlink" x="0px" y="0px"
	 viewBox="0 0 500 500" style="enable-background:new 0 0 500 500;" xml:space="preserve">
<style type="text/css">
	.st0{fill:none;stroke:#FFFFFF;stroke-width:16;stroke-miterlimit:10;}
	.st1{display:none;}
	.st2{display:inline;}
	.st3{fill:none;stroke:#D1D3D4;stroke-width:2;stroke-miterlimit:10;}
	.st4{display:inline;fill:none;stroke:#BCBEC0;stroke-width:4;stroke-miterlimit:10;}
	.st5{fill:none;stroke:#BCBEC0;stroke-width:4;stroke-miterlimit:10;}
	.st6{display:inline;fill:none;stroke:#D1D3D4;stroke-width:2;stroke-miterlimit:10;}
	.st7{display:none;opacity:0.35;fill:none;stroke:#000000;stroke-width:16;stroke-miterlimit:10;}
	.st8{fill:none;stroke:#FFFFFF;stroke-width:16;stroke-linejoin:bevel;stroke-miterlimit:10;}
	.st9{fill:#FFFFFF;}
	.st10{fill:none;stroke:#FFFFFF;stroke-width:16;stroke-linecap:square;stroke-miterlimit:10;}
	.st11{fill:none;stroke:#FFFFFF;stroke-width:16;stroke-linecap:round;stroke-miterlimit:10;}
	.st12{fill:none;stroke:#FFFFFF;stroke-width:8;stroke-miterlimit:10;}
</style>
<g id="Icons">
	<g>
		<path class="st0" d="M370.12,82.39c-33.04-25.99-74.71-41.5-120.01-41.5c-45.3,0-86.98,15.51-120.01,41.5"/>
		<g>
			<circle class="st0" cx="339.04" cy="216.35" r="18.54"/>
			<g>
				<polyline class="st0" points="440.88,218.38 359.1,256.04 359.11,458.83 				"/>
			</g>
		</g>
		<g>
			<g>
				<line class="st0" x1="318.97" y1="250.69" x2="318.97" y2="459.11"/>
			</g>
		</g>
		<g>
			<circle class="st0" cx="160.96" cy="216.35" r="18.54"/>
			<g>
				<line class="st0" x1="59.12" y1="218.38" x2="140.9" y2="256.04"/>
			</g>
		</g>
		<g>
			<g>
				<line class="st0" x1="181.03" y1="250.69" x2="181.03" y2="334.25"/>
			</g>
		</g>
		<path class="st0" d="M59.12,218.38l81.78,37.66l-0.21,68.5c-38.9,0-70.44,31.54-70.44,70.44l-0.18,40.14"/>
		<circle class="st0" cx="145.15" cy="403.33" r="48.79"/>
		<g>
			<circle class="st0" cx="250.11" cy="132.64" r="24"/>
		</g>
		<g>
			<g>
				<polyline class="st0" points="381.91,123.28 276.08,184.01 276.08,458.11 				"/>
				<polyline class="st0" points="118.04,123.28 224.14,184.01 224.14,458.11 				"/>
			</g>
		</g>
	</g>
</g>
<g id="Text" class="st1">
</g>
</svg>
