<?xml version="1.0" encoding="utf-8"?>
<!-- Generator: Adobe Illustrator 24.1.0, SVG Export Plug-In . SVG Version: 6.00 Build 0)  -->
<svg version="1.1" xmlns="http://www.w3.org/2000/svg" xmlns:xlink="http://www.w3.org/1999/xlink" x="0px" y="0px"
	 viewBox="0 0 500 500" style="enable-background:new 0 0 500 500;" xml:space="preserve">
<style type="text/css">
	.st0{fill:none;stroke:#FFFFFF;stroke-width:16;stroke-miterlimit:10;}
	.st1{display:none;}
	.st2{display:inline;}
	.st3{fill:none;stroke:#D1D3D4;stroke-width:2;stroke-miterlimit:10;}
	.st4{display:inline;fill:none;stroke:#BCBEC0;stroke-width:4;stroke-miterlimit:10;}
	.st5{fill:none;stroke:#BCBEC0;stroke-width:4;stroke-miterlimit:10;}
	.st6{display:inline;fill:none;stroke:#D1D3D4;stroke-width:2;stroke-miterlimit:10;}
	.st7{display:none;opacity:0.35;fill:none;stroke:#000000;stroke-width:16;stroke-miterlimit:10;}
	.st8{fill:none;stroke:#FFFFFF;stroke-width:16;stroke-linejoin:bevel;stroke-miterlimit:10;}
	.st9{fill:#FFFFFF;}
	.st10{fill:none;stroke:#FFFFFF;stroke-width:16;stroke-linecap:square;stroke-miterlimit:10;}
	.st11{fill:none;stroke:#FFFFFF;stroke-width:16;stroke-linecap:round;stroke-miterlimit:10;}
	.st12{fill:none;stroke:#FFFFFF;stroke-width:8;stroke-miterlimit:10;}
</style>
<g id="Icons">
	<g>
		<g>
			<g>
				<circle class="st0" cx="251.2" cy="149.7" r="41.06"/>
				<line class="st0" x1="250" y1="215.07" x2="250" y2="258.12"/>
				<line class="st0" x1="250" y1="42.48" x2="250" y2="85.53"/>
				<line class="st0" x1="314.77" y1="150.3" x2="357.82" y2="150.3"/>
				<line class="st0" x1="142.18" y1="150.3" x2="185.23" y2="150.3"/>
				<line class="st0" x1="295.8" y1="104.5" x2="326.24" y2="74.06"/>
				<line class="st0" x1="173.76" y1="226.54" x2="204.2" y2="196.1"/>
				<line class="st0" x1="295.8" y1="196.1" x2="326.24" y2="226.54"/>
				<line class="st0" x1="173.76" y1="74.06" x2="204.2" y2="104.5"/>
			</g>
			<g>
				<path class="st0" d="M154.7,377.94c9.23-9.23,9.23-24.19,0-33.42l0,0c-9.23-9.23-9.23-24.19,0-33.42l0,0
					c9.23-9.23,9.23-24.19,0-33.42"/>
				<path class="st0" d="M192.82,277.68c9.23,9.23,9.23,24.19,0,33.42l0,0c-9.23,9.23-9.23,24.19,0,33.42l0,0
					c9.23,9.23,9.23,24.19,0,33.42"/>
				<path class="st0" d="M230.94,277.68c9.23,9.23,9.23,24.19,0,33.42l0,0c-9.23,9.23-9.23,24.19,0,33.42l0,0
					c9.23,9.23,9.23,24.19,0,33.42"/>
				<path class="st0" d="M269.06,377.94c9.23-9.23,9.23-24.19,0-33.42l0,0c-9.23-9.23-9.23-24.19,0-33.42l0,0
					c9.23-9.23,9.23-24.19,0-33.42"/>
				<path class="st0" d="M307.18,277.68c9.23,9.23,9.23,24.19,0,33.42l0,0c-9.23,9.23-9.23,24.19,0,33.42l0,0
					c9.23,9.23,9.23,24.19,0,33.42"/>
				<path class="st0" d="M345.3,277.68c9.23,9.23,9.23,24.19,0,33.42l0,0c-9.23,9.23-9.23,24.19,0,33.42l0,0
					c9.23,9.23,9.23,24.19,0,33.42"/>
			</g>
		</g>
		<g>
			<path class="st0" d="M46.1,392.97l42.56,29.15l41.66-41.56l35.72,35.31c0,0,13.23-5.74,16.17-5.74
				c2.93,0,25.02,11.99,25.02,11.99l18.79-11.99l19.05,6.89l4.94-14.07l19.05,12.12l6.92,13.68l34-24.09l41.32-1.71l18.65,19.18
				l23.99-23.99l29.69,15.95l30.28,8.04"/>
			<line class="st0" x1="130.32" y1="380.56" x2="142.05" y2="455.7"/>
			<line class="st0" x1="207.22" y1="422.12" x2="185.03" y2="451.81"/>
			<line class="st0" x1="290.06" y1="422.12" x2="299.16" y2="457.52"/>
			<line class="st0" x1="245.06" y1="417.01" x2="250" y2="456.7"/>
			<polyline class="st0" points="351.29,402.94 324.43,445.7 337.86,453.52 			"/>
			<line class="st0" x1="369.94" y1="422.12" x2="387.45" y2="453.52"/>
			<line class="st0" x1="423.62" y1="414.08" x2="413.84" y2="455.11"/>
			<line class="st0" x1="88.66" y1="422.12" x2="62.97" y2="449.11"/>
		</g>
	</g>
</g>
<g id="Text" class="st1">
</g>
</svg>
