<?xml version="1.0" encoding="utf-8"?>
<!-- Generator: Adobe Illustrator 24.1.0, SVG Export Plug-In . SVG Version: 6.00 Build 0)  -->
<svg version="1.1" xmlns="http://www.w3.org/2000/svg" xmlns:xlink="http://www.w3.org/1999/xlink" x="0px" y="0px"
	 viewBox="0 0 500 500" style="enable-background:new 0 0 500 500;" xml:space="preserve">
<style type="text/css">
	.st0{fill:none;stroke:#FFFFFF;stroke-width:16;stroke-miterlimit:10;}
	.st1{display:none;}
	.st2{display:inline;}
	.st3{fill:none;stroke:#D1D3D4;stroke-width:2;stroke-miterlimit:10;}
	.st4{display:inline;fill:none;stroke:#BCBEC0;stroke-width:4;stroke-miterlimit:10;}
	.st5{fill:none;stroke:#BCBEC0;stroke-width:4;stroke-miterlimit:10;}
	.st6{display:inline;fill:none;stroke:#D1D3D4;stroke-width:2;stroke-miterlimit:10;}
	.st7{display:none;opacity:0.35;fill:none;stroke:#000000;stroke-width:16;stroke-miterlimit:10;}
	.st8{fill:none;stroke:#FFFFFF;stroke-width:16;stroke-linejoin:bevel;stroke-miterlimit:10;}
	.st9{fill:#FFFFFF;}
	.st10{fill:none;stroke:#FFFFFF;stroke-width:16;stroke-linecap:square;stroke-miterlimit:10;}
	.st11{fill:none;stroke:#FFFFFF;stroke-width:16;stroke-linecap:round;stroke-miterlimit:10;}
	.st12{fill:none;stroke:#FFFFFF;stroke-width:8;stroke-miterlimit:10;}
</style>
<g id="Icons">
	<g>
		<g>
			<g>
				<path class="st0" d="M225.8,414.38l17.06-30.46l-13.32-22.4c0.35-3.09,0.53-6.23,0.53-9.41c0-5.01-0.44-9.91-1.29-14.68
					l13.12-23.5L224,283.94l-28.91,0.42c-4.96-3.53-10.32-6.52-16.01-8.9l-14.62-25.32h-34.92l-14.62,25.32
					c-6.4,2.68-12.39,6.14-17.85,10.25l-28.87,0.38l-17.06,30.46l13.72,23.07c-0.61,4.07-0.93,8.24-0.93,12.48
					c0,3.99,0.29,7.92,0.83,11.76l-12.66,22.68L70,416.52l24.12-0.35c7,5.78,14.96,10.44,23.61,13.69l11.81,20.46h34.92l11.81-20.46
					c9.38-3.53,17.94-8.71,25.35-15.18L225.8,414.38z"/>
				<circle class="st0" cx="147" cy="350.23" r="44.7"/>
			</g>
			<g>
				<path class="st0" d="M431.8,373.12l17.06-30.46l-13.32-22.4c0.35-3.09,0.53-6.23,0.53-9.41c0-5.01-0.44-9.91-1.29-14.68
					l13.12-23.5L430,242.69l-28.91,0.42c-4.96-3.53-10.32-6.52-16.01-8.9l-14.62-25.32h-34.92l-14.62,25.32
					c-6.4,2.68-12.39,6.14-17.85,10.25l-28.87,0.38l-17.06,30.46l13.72,23.07c-0.61,4.07-0.93,8.24-0.93,12.48
					c0,3.99,0.29,7.92,0.83,11.76l-12.66,22.68L276,375.27l24.12-0.35c7,5.78,14.96,10.44,23.61,13.69l11.81,20.46h34.92
					l11.81-20.46c9.38-3.53,17.94-8.71,25.35-15.18L431.8,373.12z"/>
				<circle class="st0" cx="353" cy="308.98" r="44.7"/>
			</g>
			<g>
				<path class="st0" d="M296.1,213.91l17.06-30.46l-13.32-22.4c0.35-3.09,0.53-6.23,0.53-9.41c0-5.01-0.44-9.91-1.29-14.68
					l13.12-23.5L294.3,83.48l-28.91,0.42c-4.96-3.53-10.32-6.52-16.01-8.9l-14.62-25.32h-34.92l-14.62,25.32
					c-6.4,2.68-12.39,6.14-17.85,10.25l-28.87,0.38l-17.06,30.46l13.72,23.07c-0.61,4.07-0.93,8.24-0.93,12.48
					c0,3.99,0.29,7.92,0.83,11.76l-12.66,22.68l17.89,29.98l24.12-0.35c7,5.78,14.96,10.44,23.61,13.69l11.81,20.46h34.92
					l11.81-20.46c9.38-3.53,17.94-8.71,25.35-15.18L296.1,213.91z"/>
				<circle class="st0" cx="217.3" cy="149.77" r="44.7"/>
			</g>
		</g>
	</g>
</g>
<g id="Text" class="st1">
</g>
</svg>
