<?xml version="1.0" encoding="utf-8"?>
<!-- Generator: Adobe Illustrator 24.1.0, SVG Export Plug-In . SVG Version: 6.00 Build 0)  -->
<svg version="1.1" xmlns="http://www.w3.org/2000/svg" xmlns:xlink="http://www.w3.org/1999/xlink" x="0px" y="0px"
	 viewBox="0 0 500 500" style="enable-background:new 0 0 500 500;" xml:space="preserve">
<style type="text/css">
	.st0{fill:none;stroke:#FFFFFF;stroke-width:16;stroke-miterlimit:10;}
	.st1{display:none;}
	.st2{display:inline;}
	.st3{fill:none;stroke:#D1D3D4;stroke-width:2;stroke-miterlimit:10;}
	.st4{display:inline;fill:none;stroke:#BCBEC0;stroke-width:4;stroke-miterlimit:10;}
	.st5{fill:none;stroke:#BCBEC0;stroke-width:4;stroke-miterlimit:10;}
	.st6{display:inline;fill:none;stroke:#D1D3D4;stroke-width:2;stroke-miterlimit:10;}
	.st7{display:none;opacity:0.35;fill:none;stroke:#000000;stroke-width:16;stroke-miterlimit:10;}
	.st8{fill:none;stroke:#FFFFFF;stroke-width:16;stroke-linejoin:bevel;stroke-miterlimit:10;}
	.st9{fill:#FFFFFF;}
	.st10{fill:none;stroke:#FFFFFF;stroke-width:16;stroke-linecap:square;stroke-miterlimit:10;}
	.st11{fill:none;stroke:#FFFFFF;stroke-width:16;stroke-linecap:round;stroke-miterlimit:10;}
	.st12{fill:none;stroke:#FFFFFF;stroke-width:8;stroke-miterlimit:10;}
</style>
<g id="Icons">
	<g>
		<path class="st0" d="M238.03,327.53l52.98-52.42c7.04-7.3,6.83-18.92-0.47-25.96c-7.3-7.04-18.92-6.83-25.96,0.47l-52.35,51.79"/>
		<path class="st0" d="M265.79,351.73l49.51-48.95c7.04-7.3,6.83-18.92-0.47-25.96c-7.3-7.04-18.92-6.83-25.96,0.47"/>
		<path class="st0" d="M210.69,243.2l-34.33-40.86c-6.34-7.91-5.07-19.47,2.84-25.81s19.47-5.07,25.81,2.84l34.28,39.58"/>
		<path class="st0" d="M163.78,303.81v102.39c0,19.09,8.38,37.21,22.93,49.57l0,0c23.73,20.17,58.43,20.68,82.75,1.22l0,0
			c25.75-28.43,25.3-57.06,37.37-93.24c0.24-0.71,0.63-1.37,1.14-1.93l0,0c0.06-0.07,0.13-0.14,0.2-0.21l22.91-22.44
			c7.04-7.3,6.83-18.92-0.47-25.96c-7.3-7.04-18.92-6.83-25.96,0.47l-38.73,38.16"/>
		<path class="st0" d="M264.71,248.88l49.87-49.31c7.04-7.3,6.83-18.92-0.47-25.96c-7.3-7.04-18.92-6.83-25.96,0.47L169.23,292.54
			c-7.04,7.3-6.83,18.92,0.47,25.96c7.3,7.04,18.92,6.83,25.96-0.47l1.23-1.18c-7.04,7.3-6.83,18.92,0.47,25.96
			c7.3,7.04,18.92,6.83,25.96-0.47l0.37-0.33c-7.04,7.3-6.83,18.92,0.47,25.96c7.3,7.04,18.92,6.83,25.96-0.47l1.46-1.21
			c-7.04,7.3-6.83,18.92,0.47,25.96c7.3,7.04,18.92,6.83,25.96-0.47"/>
		<path class="st0" d="M264.79,63.53c-8.02,0-15.34,3.02-20.88,7.98c-5.54-4.96-12.86-7.98-20.88-7.98
			c-17.3,0-31.33,14.02-31.33,31.33c0,34.88,52.21,71.83,52.21,71.83s52.21-36.95,52.21-71.83
			C296.12,77.56,282.09,63.53,264.79,63.53z"/>
	</g>
</g>
<g id="Text" class="st1">
</g>
</svg>
