<?xml version="1.0" encoding="utf-8"?>
<!-- Generator: Adobe Illustrator 24.1.0, SVG Export Plug-In . SVG Version: 6.00 Build 0)  -->
<svg version="1.1" xmlns="http://www.w3.org/2000/svg" xmlns:xlink="http://www.w3.org/1999/xlink" x="0px" y="0px"
	 viewBox="0 0 500 500" style="enable-background:new 0 0 500 500;" xml:space="preserve">
<style type="text/css">
	.st0{fill:none;stroke:#FFFFFF;stroke-width:16;stroke-miterlimit:10;}
	.st1{display:none;}
	.st2{display:inline;}
	.st3{fill:none;stroke:#D1D3D4;stroke-width:2;stroke-miterlimit:10;}
	.st4{display:inline;fill:none;stroke:#BCBEC0;stroke-width:4;stroke-miterlimit:10;}
	.st5{fill:none;stroke:#BCBEC0;stroke-width:4;stroke-miterlimit:10;}
	.st6{display:inline;fill:none;stroke:#D1D3D4;stroke-width:2;stroke-miterlimit:10;}
	.st7{display:none;opacity:0.35;fill:none;stroke:#000000;stroke-width:16;stroke-miterlimit:10;}
	.st8{fill:none;stroke:#FFFFFF;stroke-width:16;stroke-linejoin:bevel;stroke-miterlimit:10;}
	.st9{fill:#FFFFFF;}
	.st10{fill:none;stroke:#FFFFFF;stroke-width:16;stroke-linecap:square;stroke-miterlimit:10;}
	.st11{fill:none;stroke:#FFFFFF;stroke-width:16;stroke-linecap:round;stroke-miterlimit:10;}
	.st12{fill:none;stroke:#FFFFFF;stroke-width:8;stroke-miterlimit:10;}
</style>
<g id="Icons">
	<g>
		<g>
			<path class="st0" d="M192.42,204.16l57.36,41.12c4.38,2.84,5.63,8.69,2.79,13.08c-2.84,4.38-8.69,5.63-13.08,2.79l-48.8-31.77
				c-1.54,3.47-2.2,4.73-4.26,8l52.32,54.44c3.69,3.69,3.69,9.68,0,13.37c-3.69,3.69-9.68,3.69-13.37,0l-52.26-50.72
				c-1.08,1.08-5.69,5.01-7.49,6.36l33.82,48.88c2.97,4.29,1.9,10.18-2.39,13.16c-4.29,2.97-10.18,1.9-13.16-2.39l-35.65-49.82
				c-3.09,1.32-5.19,2.05-8.39,2.96l14.79,43.15c1.59,4.16-0.5,8.83-4.67,10.42c-4.16,1.59-8.83-0.5-10.42-4.67L82.79,215.26
				c-6.55-12.38-4.27-27.58,5.64-37.48l31.39-31.39l117.16,24.63c0.11,10.25-8.17,18.61-18.42,18.61l-46,0"/>
		</g>
		<g>
			<path class="st0" d="M375.23,345.74l-58.84-74.82c-3.02-4.26-8.92-5.26-13.18-2.24c-4.26,3.02-5.26,8.92-2.24,13.18l33.8,47.42
				c-3.4,1.68-4.63,2.4-7.81,4.59l-56.6-49.98c-3.84-3.53-9.83-3.28-13.36,0.56c-3.53,3.84-3.28,9.83,0.56,13.36l52.87,50.08
				c-1.03,1.12-4.77,5.9-6.04,7.75l-50.26-31.73c-4.41-2.79-10.25-1.47-13.04,2.94s-1.47,10.25,2.94,13.04l51.28,33.53
				c-1.19,3.14-1.83,5.27-2.61,8.51l-43.73-12.96c-4.23-1.41-8.8,0.87-10.21,5.1c-1.41,4.23,0.87,8.8,5.1,10.21L353.4,436.5
				c12.64,6.03,27.73,3.1,37.21-7.21l30.05-32.68l-29.54-116.02c-10.24,0.32-18.25,8.95-17.82,19.19L375.23,345.74"/>
		</g>
		<path class="st0" d="M370.01,101.9C336.98,75.91,295.3,60.4,250,60.4c-45.3,0-86.98,15.51-120.01,41.5"/>
	</g>
</g>
<g id="Text" class="st1">
</g>
</svg>
