<?xml version="1.0" encoding="utf-8"?>
<!-- Generator: Adobe Illustrator 24.1.0, SVG Export Plug-In . SVG Version: 6.00 Build 0)  -->
<svg version="1.1" xmlns="http://www.w3.org/2000/svg" xmlns:xlink="http://www.w3.org/1999/xlink" x="0px" y="0px"
	 viewBox="0 0 500 500" style="enable-background:new 0 0 500 500;" xml:space="preserve">
<style type="text/css">
	.st0{fill:none;stroke:#FFFFFF;stroke-width:16;stroke-miterlimit:10;}
	.st1{display:none;}
	.st2{display:inline;}
	.st3{fill:none;stroke:#D1D3D4;stroke-width:2;stroke-miterlimit:10;}
	.st4{display:inline;fill:none;stroke:#BCBEC0;stroke-width:4;stroke-miterlimit:10;}
	.st5{fill:none;stroke:#BCBEC0;stroke-width:4;stroke-miterlimit:10;}
	.st6{display:inline;fill:none;stroke:#D1D3D4;stroke-width:2;stroke-miterlimit:10;}
	.st7{display:none;opacity:0.35;fill:none;stroke:#000000;stroke-width:16;stroke-miterlimit:10;}
	.st8{fill:none;stroke:#FFFFFF;stroke-width:16;stroke-linejoin:bevel;stroke-miterlimit:10;}
	.st9{fill:#FFFFFF;}
	.st10{fill:none;stroke:#FFFFFF;stroke-width:16;stroke-linecap:square;stroke-miterlimit:10;}
	.st11{fill:none;stroke:#FFFFFF;stroke-width:16;stroke-linecap:round;stroke-miterlimit:10;}
	.st12{fill:none;stroke:#FFFFFF;stroke-width:8;stroke-miterlimit:10;}
</style>
<g id="Icons">
	<g>
		<g>
			<path class="st0" d="M250.06,293.97L250.06,293.97c-8.42,0-15.25-6.83-15.25-15.25v-69.81c0-8.42,6.83-15.25,15.25-15.25h0
				c8.42,0,15.25,6.83,15.25,15.25v69.81C265.3,287.15,258.48,293.97,250.06,293.97z"/>
			<line class="st0" x1="250.06" y1="158.41" x2="250.06" y2="92.51"/>
			<g>
				<line class="st0" x1="234.49" y1="243.83" x2="265.62" y2="243.83"/>
				<line class="st0" x1="234.49" y1="220.01" x2="265.62" y2="220.01"/>
				<line class="st0" x1="234.49" y1="267.64" x2="265.62" y2="267.64"/>
			</g>
			<circle class="st0" cx="250.06" cy="174.84" r="15.25"/>
		</g>
		<polyline class="st0" points="155.25,58 208.87,130.65 208.87,172.7 239.14,192.91 		"/>
		<polyline class="st0" points="344.64,58 291.02,130.65 291.02,172.7 260.76,192.91 		"/>
		<path class="st0" d="M232.76,217.2c0,11.7-128.94,21.19-140.64,21.19s-21.19-9.49-21.19-21.19c0-11.7,9.49-21.19,21.19-21.19
			S232.76,205.49,232.76,217.2z"/>
		<path class="st0" d="M267.24,217.2c0-11.7,128.94-21.19,140.64-21.19c11.7,0,21.19,9.49,21.19,21.19
			c0,11.7-9.49,21.19-21.19,21.19C396.18,238.38,267.24,228.9,267.24,217.2z"/>
		<g>
			<g>
				<polyline class="st0" points="332.55,321.13 323.04,308.37 323.04,256.18 270.29,230.08 				"/>
				<line class="st0" x1="353.31" y1="348.96" x2="340.74" y2="332.11"/>
				<line class="st0" x1="374.06" y1="376.8" x2="361.5" y2="359.94"/>
				<line class="st0" x1="394.82" y1="404.65" x2="382.25" y2="387.8"/>
				<line class="st0" x1="310.34" y1="376.51" x2="303.33" y2="356.69"/>
				<line class="st0" x1="321.91" y1="409.24" x2="314.9" y2="389.42"/>
				<line class="st0" x1="333.48" y1="442" x2="326.47" y2="422.18"/>
				<polyline class="st0" points="298.78,343.54 295.72,334.88 295.72,272.61 265.94,241.48 				"/>
			</g>
			<g>
				<polyline class="st0" points="167.56,321.13 177.07,308.37 177.07,256.18 229.83,230.08 				"/>
				<line class="st0" x1="146.81" y1="348.96" x2="159.37" y2="332.11"/>
				<line class="st0" x1="126.05" y1="376.8" x2="138.62" y2="359.94"/>
				<line class="st0" x1="105.3" y1="404.65" x2="117.86" y2="387.8"/>
				<line class="st0" x1="189.78" y1="376.51" x2="196.79" y2="356.69"/>
				<line class="st0" x1="178.2" y1="409.24" x2="185.21" y2="389.42"/>
				<line class="st0" x1="166.64" y1="442" x2="173.64" y2="422.18"/>
				<polyline class="st0" points="201.34,343.54 204.39,334.88 204.39,272.61 234.18,241.48 				"/>
			</g>
		</g>
	</g>
</g>
<g id="Text" class="st1">
</g>
</svg>
