<?xml version="1.0" encoding="utf-8"?>
<!-- Generator: Adobe Illustrator 24.1.0, SVG Export Plug-In . SVG Version: 6.00 Build 0)  -->
<svg version="1.1" xmlns="http://www.w3.org/2000/svg" xmlns:xlink="http://www.w3.org/1999/xlink" x="0px" y="0px"
	 viewBox="0 0 500 500" style="enable-background:new 0 0 500 500;" xml:space="preserve">
<style type="text/css">
	.st0{fill:none;stroke:#FFFFFF;stroke-width:16;stroke-miterlimit:10;}
	.st1{display:none;}
	.st2{display:inline;}
	.st3{fill:none;stroke:#D1D3D4;stroke-width:2;stroke-miterlimit:10;}
	.st4{display:inline;fill:none;stroke:#BCBEC0;stroke-width:4;stroke-miterlimit:10;}
	.st5{fill:none;stroke:#BCBEC0;stroke-width:4;stroke-miterlimit:10;}
	.st6{display:inline;fill:none;stroke:#D1D3D4;stroke-width:2;stroke-miterlimit:10;}
	.st7{display:none;opacity:0.35;fill:none;stroke:#000000;stroke-width:16;stroke-miterlimit:10;}
	.st8{fill:none;stroke:#FFFFFF;stroke-width:16;stroke-linejoin:bevel;stroke-miterlimit:10;}
	.st9{fill:#FFFFFF;}
	.st10{fill:none;stroke:#FFFFFF;stroke-width:16;stroke-linecap:square;stroke-miterlimit:10;}
	.st11{fill:none;stroke:#FFFFFF;stroke-width:16;stroke-linecap:round;stroke-miterlimit:10;}
	.st12{fill:none;stroke:#FFFFFF;stroke-width:8;stroke-miterlimit:10;}
</style>
<g id="Icons">
	<g>
		<path class="st0" d="M290.46,355.73c7.47,0,13.52,6.05,13.52,13.52v44.93c0,7.47-6.05,13.52-13.52,13.52h-80.91
			c-7.47,0-13.52-6.05-13.52-13.52v-44.93c0-7.47,6.05-13.52,13.52-13.52H290.46z"/>
		<path class="st0" d="M209.54,211.8c-7.47,0-13.52-6.05-13.52-13.52v-9.16c0-8.6,3.01-16.92,8.52-23.52l21.48-25.76h47.95
			l21.48,25.76c5.5,6.6,8.52,14.93,8.52,23.52v9.16c0,7.47-6.05,13.52-13.52,13.52H209.54z"/>
		<g>
			<line class="st0" x1="273.98" y1="120.46" x2="273.98" y2="139.83"/>
			<line class="st0" x1="226.02" y1="139.83" x2="226.02" y2="120.46"/>
		</g>
		<line class="st0" x1="201.02" y1="355.73" x2="201.02" y2="207.87"/>
		<line class="st0" x1="298.98" y1="207.87" x2="298.98" y2="355.73"/>
		<path class="st0" d="M266.32,290.21c0,9.02-7.31,16.32-16.32,16.32s-16.32-7.31-16.32-16.32c0-9.02,16.32-28.6,16.32-28.6
			S266.32,281.19,266.32,290.21z"/>
		<path class="st0" d="M413.4,355.73c7.47,0,13.52,6.05,13.52,13.52v44.93c0,7.47-6.05,13.52-13.52,13.52h-80.91
			c-7.47,0-13.52-6.05-13.52-13.52v-44.93c0-7.47,6.05-13.52,13.52-13.52H413.4z"/>
		<path class="st0" d="M332.48,211.8c-7.47,0-13.52-6.05-13.52-13.52v-9.16c0-8.6,3.01-16.92,8.52-23.52l21.48-25.76h47.95
			l21.48,25.76c5.5,6.6,8.52,14.93,8.52,23.52v9.16c0,7.47-6.05,13.52-13.52,13.52H332.48z"/>
		<g>
			<line class="st0" x1="396.92" y1="120.46" x2="396.92" y2="139.83"/>
			<line class="st0" x1="348.96" y1="139.83" x2="348.96" y2="120.46"/>
		</g>
		<line class="st0" x1="323.96" y1="355.73" x2="323.96" y2="207.87"/>
		<line class="st0" x1="421.92" y1="207.87" x2="421.92" y2="355.73"/>
		<path class="st0" d="M389.26,290.21c0,9.02-7.31,16.32-16.32,16.32s-16.32-7.31-16.32-16.32c0-9.02,16.32-28.6,16.32-28.6
			S389.26,281.19,389.26,290.21z"/>
		<path class="st0" d="M167.52,355.73c7.47,0,13.52,6.05,13.52,13.52v44.93c0,7.47-6.05,13.52-13.52,13.52H86.6
			c-7.47,0-13.52-6.05-13.52-13.52v-44.93c0-7.47,6.05-13.52,13.52-13.52H167.52z"/>
		<path class="st0" d="M86.6,211.8c-7.47,0-13.52-6.05-13.52-13.52v-9.16c0-8.6,3.01-16.92,8.52-23.52l21.48-25.76h47.95
			l21.48,25.76c5.5,6.6,8.52,14.93,8.52,23.52v9.16c0,7.47-6.05,13.52-13.52,13.52H86.6z"/>
		<g>
			<line class="st0" x1="151.04" y1="120.46" x2="151.04" y2="139.83"/>
			<line class="st0" x1="103.08" y1="139.83" x2="103.08" y2="120.46"/>
		</g>
		<line class="st0" x1="78.08" y1="355.73" x2="78.08" y2="207.87"/>
		<line class="st0" x1="176.04" y1="207.87" x2="176.04" y2="355.73"/>
		<path class="st0" d="M143.39,290.21c0,9.02-7.31,16.32-16.32,16.32s-16.32-7.31-16.32-16.32c0-9.02,16.32-28.6,16.32-28.6
			S143.39,281.19,143.39,290.21z"/>
		<rect x="221.91" y="92.47" class="st0" width="56.18" height="27.99"/>
		<rect x="344.85" y="92.47" class="st0" width="56.18" height="27.99"/>
		<rect x="98.97" y="92.47" class="st0" width="56.18" height="27.99"/>
	</g>
</g>
<g id="Text" class="st1">
</g>
</svg>
