<?xml version="1.0" encoding="utf-8"?>
<!-- Generator: Adobe Illustrator 24.1.0, SVG Export Plug-In . SVG Version: 6.00 Build 0)  -->
<svg version="1.1" xmlns="http://www.w3.org/2000/svg" xmlns:xlink="http://www.w3.org/1999/xlink" x="0px" y="0px"
	 viewBox="0 0 500 500" style="enable-background:new 0 0 500 500;" xml:space="preserve">
<style type="text/css">
	.st0{fill:none;stroke:#FFFFFF;stroke-width:16;stroke-miterlimit:10;}
	.st1{display:none;}
	.st2{display:inline;}
	.st3{fill:none;stroke:#D1D3D4;stroke-width:2;stroke-miterlimit:10;}
	.st4{display:inline;fill:none;stroke:#BCBEC0;stroke-width:4;stroke-miterlimit:10;}
	.st5{fill:none;stroke:#BCBEC0;stroke-width:4;stroke-miterlimit:10;}
	.st6{display:inline;fill:none;stroke:#D1D3D4;stroke-width:2;stroke-miterlimit:10;}
	.st7{display:none;opacity:0.35;fill:none;stroke:#000000;stroke-width:16;stroke-miterlimit:10;}
	.st8{fill:none;stroke:#FFFFFF;stroke-width:16;stroke-linejoin:bevel;stroke-miterlimit:10;}
	.st9{fill:#FFFFFF;}
	.st10{fill:none;stroke:#FFFFFF;stroke-width:16;stroke-linecap:square;stroke-miterlimit:10;}
	.st11{fill:none;stroke:#FFFFFF;stroke-width:16;stroke-linecap:round;stroke-miterlimit:10;}
	.st12{fill:none;stroke:#FFFFFF;stroke-width:8;stroke-miterlimit:10;}
</style>
<g id="Icons">
	<g>
		<g>
			<g>
				<path class="st0" d="M216.56,175.28l79.11-114.36c5.23-8.07,16-10.37,24.07-5.14s10.37,16,5.14,24.07l-58.48,89.81
					c6.39,2.83,8.71,4.05,14.72,7.84L381.32,81.2c6.8-6.8,17.81-6.8,24.61,0c6.8,6.8,6.8,17.81,0,24.61L312.57,202
					c1.99,1.99,9.22,10.48,11.71,13.79l89.97-62.25c7.9-5.47,18.74-3.5,24.21,4.4c5.47,7.9,3.5,18.74-4.4,24.21l-91.7,65.62
					c2.43,5.68,3.77,9.55,5.45,15.44L427.24,236c7.67-2.92,16.25,0.92,19.17,8.59c2.92,7.67-0.92,16.25-8.59,19.17l-136.3,75.49"/>
			</g>
			<polygon class="st0" points="205.55,396.14 299.52,350.3 209.55,160.5 147.58,266.95 75.61,309.99 167.27,429.96 			"/>
			<path class="st0" d="M193.25,190.05v-71.67c0-18.86-15.4-34.1-34.26-33.9l-42.25,200.91"/>
			<line class="st0" x1="116.74" y1="285.39" x2="265.53" y2="366.88"/>
			<line class="st0" x1="83.62" y1="320.47" x2="49.64" y2="346"/>
			<line class="st0" x1="161.61" y1="421.49" x2="127.63" y2="447.02"/>
		</g>
	</g>
</g>
<g id="Text" class="st1">
</g>
</svg>
