<?xml version="1.0" encoding="utf-8"?>
<!-- Generator: Adobe Illustrator 24.1.0, SVG Export Plug-In . SVG Version: 6.00 Build 0)  -->
<svg version="1.1" xmlns="http://www.w3.org/2000/svg" xmlns:xlink="http://www.w3.org/1999/xlink" x="0px" y="0px"
	 viewBox="0 0 500 500" style="enable-background:new 0 0 500 500;" xml:space="preserve">
<style type="text/css">
	.st0{fill:none;stroke:#FFFFFF;stroke-width:16;stroke-miterlimit:10;}
	.st1{display:none;}
	.st2{display:inline;}
	.st3{fill:none;stroke:#D1D3D4;stroke-width:2;stroke-miterlimit:10;}
	.st4{display:inline;fill:none;stroke:#BCBEC0;stroke-width:4;stroke-miterlimit:10;}
	.st5{fill:none;stroke:#BCBEC0;stroke-width:4;stroke-miterlimit:10;}
	.st6{display:inline;fill:none;stroke:#D1D3D4;stroke-width:2;stroke-miterlimit:10;}
	.st7{display:none;opacity:0.35;fill:none;stroke:#000000;stroke-width:16;stroke-miterlimit:10;}
	.st8{fill:none;stroke:#FFFFFF;stroke-width:16;stroke-linejoin:bevel;stroke-miterlimit:10;}
	.st9{fill:#FFFFFF;}
	.st10{fill:none;stroke:#FFFFFF;stroke-width:16;stroke-linecap:square;stroke-miterlimit:10;}
	.st11{fill:none;stroke:#FFFFFF;stroke-width:16;stroke-linecap:round;stroke-miterlimit:10;}
	.st12{fill:none;stroke:#FFFFFF;stroke-width:8;stroke-miterlimit:10;}
</style>
<g id="Icons">
	<g>
		<g>
			<path class="st0" d="M282.64,271.28c46.89,62.4,92.18,117.26,92.65,117.83l-37.01,30.59c-0.45-0.55-41.25-49.97-85.73-108.6"/>
			<g>
				<path class="st0" d="M177.36,152.55c0,0,23.59-41.36,78.92-41.36s79.35,41.36,79.35,41.36l-19.64-52.58
					c-7.12-19.05-22.89-33.73-42.54-38.96c-5.33-1.42-11.1-2.31-17.16-2.31c-0.74,0-1.48,0.01-2.22,0.04
					c-25.06,0.83-47,17.09-56.05,40.47L177.36,152.55z"/>
				<path class="st0" d="M204.33,125.93c0,0,18.87,66.58,47.02,104.84"/>
				<path class="st0" d="M177.36,152.55c0,0-9.54,16.7,8.75,56.47s31.81,59.65,31.81,59.65"/>
				<path class="st0" d="M334.37,149.96c21.35,42.94-166.62,269.13-167.13,269.75l-37.01-30.59c0.49-0.6,61.74-74.3,99.06-126.4
					s78.62-136.79,78.62-136.79"/>
			</g>
		</g>
	</g>
</g>
<g id="Text" class="st1">
</g>
</svg>
