<?xml version="1.0" encoding="utf-8"?>
<!-- Generator: Adobe Illustrator 24.1.0, SVG Export Plug-In . SVG Version: 6.00 Build 0)  -->
<svg version="1.1" xmlns="http://www.w3.org/2000/svg" xmlns:xlink="http://www.w3.org/1999/xlink" x="0px" y="0px"
	 viewBox="0 0 500 500" style="enable-background:new 0 0 500 500;" xml:space="preserve">
<style type="text/css">
	.st0{fill:none;stroke:#FFFFFF;stroke-width:16;stroke-miterlimit:10;}
	.st1{display:none;}
	.st2{display:inline;}
	.st3{fill:none;stroke:#D1D3D4;stroke-width:2;stroke-miterlimit:10;}
	.st4{display:inline;fill:none;stroke:#BCBEC0;stroke-width:4;stroke-miterlimit:10;}
	.st5{fill:none;stroke:#BCBEC0;stroke-width:4;stroke-miterlimit:10;}
	.st6{display:inline;fill:none;stroke:#D1D3D4;stroke-width:2;stroke-miterlimit:10;}
	.st7{display:none;opacity:0.35;fill:none;stroke:#000000;stroke-width:16;stroke-miterlimit:10;}
	.st8{fill:none;stroke:#FFFFFF;stroke-width:16;stroke-linejoin:bevel;stroke-miterlimit:10;}
	.st9{fill:#FFFFFF;}
	.st10{fill:none;stroke:#FFFFFF;stroke-width:16;stroke-linecap:square;stroke-miterlimit:10;}
	.st11{fill:none;stroke:#FFFFFF;stroke-width:16;stroke-linecap:round;stroke-miterlimit:10;}
	.st12{fill:none;stroke:#FFFFFF;stroke-width:8;stroke-miterlimit:10;}
</style>
<g id="Icons">
	<g>
		<path class="st0" d="M207.09,147.53v-13.77c0-12.05,9.77-21.83,21.83-21.83h54.17c12.05,0,21.83,9.77,21.83,21.83v13.77"/>
		<path class="st0" d="M330.91,147.53v-15.36c0-24.49-19.85-44.34-44.34-44.34h-61.14c-24.49,0-44.34,19.85-44.34,44.34v15.36"/>
		<polyline class="st0" points="405.93,195.77 405.93,411.67 106.07,411.67 106.07,195.77 		"/>
		<g>
			<polyline class="st0" points="106.07,280.07 82.08,280.07 82.08,244.09 106.07,244.09 			"/>
			<polyline class="st0" points="405.93,244.09 429.92,244.09 429.92,280.07 405.93,280.07 			"/>
		</g>
		<g>
			<g>
				<path class="st0" d="M287.09,292.86c-8.88,0-16.08,7.2-16.08,16.08v86.4c0,8.33,6.76,15.09,15.09,15.09h75.68
					c8.33,0,15.09-6.76,15.09-15.09v-86.4c0-8.88-7.2-16.08-16.08-16.08H287.09z"/>
				<polyline class="st0" points="360.78,292.86 360.78,292.86 360.78,273.03 				"/>
				<polyline class="st0" points="287.09,273.03 287.09,292.86 287.09,292.86 				"/>
				<rect x="278.54" y="248.99" class="st0" width="90.78" height="21.94"/>
			</g>
			<line class="st0" x1="270.73" y1="315.86" x2="377.09" y2="315.86"/>
			<line class="st0" x1="270.73" y1="389.68" x2="377.09" y2="389.68"/>
			<g>
				<path class="st0" d="M323.91,366.04l-14.46-14.46c-3.99-3.99-3.99-10.46,0-14.46l0,0c3.99-3.99,10.46-3.99,14.46,0l14.46,14.46
					c3.99,3.99,3.99,10.46,0,14.46l0,0C334.37,370.03,327.9,370.03,323.91,366.04z"/>
			</g>
		</g>
		<g>
			<g>
				<g>
					<path class="st0" d="M143.36,412.17c-3.62,0-6.56-2.94-6.56-6.56v-77.24c0-4.17,1.46-8.21,4.13-11.41l10.42-12.5h23.27
						l10.42,12.5c2.67,3.2,4.13,7.24,4.13,11.41v77.24c0,3.62-2.94,6.56-6.56,6.56H143.36z"/>
					<g>
						<line class="st0" x1="136.8" y1="341.47" x2="189.21" y2="341.47"/>
						<line class="st0" x1="189.21" y1="382.21" x2="136.8" y2="382.21"/>
					</g>
				</g>
				<line class="st0" x1="142.11" y1="280.28" x2="183.9" y2="280.28"/>
				<g>
					<path class="st0" d="M195.75,412.17c-3.62,0-6.56-2.94-6.56-6.56v-77.24c0-4.17,1.46-8.21,4.13-11.41l10.42-12.5h23.27
						l10.42,12.5c2.67,3.2,4.13,7.24,4.13,11.41v77.24c0,3.62-2.94,6.56-6.56,6.56H195.75z"/>
					<g>
						<line class="st0" x1="189.19" y1="341.47" x2="241.6" y2="341.47"/>
						<line class="st0" x1="241.6" y1="382.21" x2="189.19" y2="382.21"/>
					</g>
					<line class="st0" x1="194.89" y1="280.28" x2="236.68" y2="280.28"/>
				</g>
			</g>
		</g>
		<path class="st0" d="M413.94,195.77H98.06c-8.82,0-15.98-7.15-15.98-15.98v-16.02c0-8.82,7.15-15.98,15.98-15.98h315.87
			c8.82,0,15.98,7.15,15.98,15.98v16.02C429.92,188.62,422.76,195.77,413.94,195.77z"/>
	</g>
</g>
<g id="Text" class="st1">
</g>
</svg>
