<?xml version="1.0" encoding="utf-8"?>
<!-- Generator: Adobe Illustrator 24.1.0, SVG Export Plug-In . SVG Version: 6.00 Build 0)  -->
<svg version="1.1" xmlns="http://www.w3.org/2000/svg" xmlns:xlink="http://www.w3.org/1999/xlink" x="0px" y="0px"
	 viewBox="0 0 500 500" style="enable-background:new 0 0 500 500;" xml:space="preserve">
<style type="text/css">
	.st0{fill:none;stroke:#FFFFFF;stroke-width:16;stroke-miterlimit:10;}
	.st1{display:none;}
	.st2{display:inline;}
	.st3{fill:none;stroke:#D1D3D4;stroke-width:2;stroke-miterlimit:10;}
	.st4{display:inline;fill:none;stroke:#BCBEC0;stroke-width:4;stroke-miterlimit:10;}
	.st5{fill:none;stroke:#BCBEC0;stroke-width:4;stroke-miterlimit:10;}
	.st6{display:inline;fill:none;stroke:#D1D3D4;stroke-width:2;stroke-miterlimit:10;}
	.st7{display:none;opacity:0.35;fill:none;stroke:#000000;stroke-width:16;stroke-miterlimit:10;}
	.st8{fill:none;stroke:#FFFFFF;stroke-width:16;stroke-linejoin:bevel;stroke-miterlimit:10;}
	.st9{fill:#FFFFFF;}
	.st10{fill:none;stroke:#FFFFFF;stroke-width:16;stroke-linecap:square;stroke-miterlimit:10;}
	.st11{fill:none;stroke:#FFFFFF;stroke-width:16;stroke-linecap:round;stroke-miterlimit:10;}
	.st12{fill:none;stroke:#FFFFFF;stroke-width:8;stroke-miterlimit:10;}
</style>
<g id="Icons">
	<g>
		<path class="st0" d="M370.01,123.58C336.98,97.59,295.3,82.08,250,82.08c-45.3,0-86.98,15.51-120.01,41.5"/>
		<polyline class="st0" points="157.24,309.64 157.24,417.92 131.16,417.92 131.16,309.64 		"/>
		<path class="st0" d="M245.87,196.15l0.07,138.19c0.23,5.49,4.74,9.82,10.24,9.82h112.83V202.72H253.86
			c-7.91,0-11.02-10.24-4.46-14.65l31.2-12.81c6.56-4.4,3.45-14.65-4.46-14.65H130.99v153.44h112.89"/>
		<polygon class="st0" points="141.93,256.96 141.93,228.18 175.5,228.16 175.5,194.58 204.29,194.58 204.29,228.16 237.87,228.17 
			237.87,256.96 204.29,256.96 204.29,290.53 175.5,290.53 175.5,256.95 		"/>
		<path class="st0" d="M310.29,273.99c0-20.78,13.66-38.44,32.48-45.28v-0.09c-0.98-0.35-1.98-0.68-2.99-0.97
			c-4.45-1.3-9.15-2.02-14.03-2.02c-27.34,0-49.5,21.66-49.5,48.37c0,26.72,22.16,48.37,49.5,48.37c5.67,0,11.83-0.53,16.89-2.25
			l0-0.3C323.72,313.02,310.29,294.85,310.29,273.99z"/>
	</g>
</g>
<g id="Text" class="st1">
</g>
</svg>
