<?xml version="1.0" encoding="utf-8"?>
<!-- Generator: Adobe Illustrator 24.1.0, SVG Export Plug-In . SVG Version: 6.00 Build 0)  -->
<svg version="1.1" xmlns="http://www.w3.org/2000/svg" xmlns:xlink="http://www.w3.org/1999/xlink" x="0px" y="0px"
	 viewBox="0 0 500 500" style="enable-background:new 0 0 500 500;" xml:space="preserve">
<style type="text/css">
	.st0{fill:none;stroke:#FFFFFF;stroke-width:16;stroke-miterlimit:10;}
	.st1{display:none;}
	.st2{display:inline;}
	.st3{fill:none;stroke:#D1D3D4;stroke-width:2;stroke-miterlimit:10;}
	.st4{display:inline;fill:none;stroke:#BCBEC0;stroke-width:4;stroke-miterlimit:10;}
	.st5{fill:none;stroke:#BCBEC0;stroke-width:4;stroke-miterlimit:10;}
	.st6{display:inline;fill:none;stroke:#D1D3D4;stroke-width:2;stroke-miterlimit:10;}
	.st7{display:none;opacity:0.35;fill:none;stroke:#000000;stroke-width:16;stroke-miterlimit:10;}
	.st8{fill:none;stroke:#FFFFFF;stroke-width:16;stroke-linejoin:bevel;stroke-miterlimit:10;}
	.st9{fill:#FFFFFF;}
	.st10{fill:none;stroke:#FFFFFF;stroke-width:16;stroke-linecap:square;stroke-miterlimit:10;}
	.st11{fill:none;stroke:#FFFFFF;stroke-width:16;stroke-linecap:round;stroke-miterlimit:10;}
	.st12{fill:none;stroke:#FFFFFF;stroke-width:8;stroke-miterlimit:10;}
</style>
<g id="Icons">
	<g>
		<path class="st0" d="M173.51,337.43c0,16.63,13.48,30.11,30.11,30.11s30.11-13.48,30.11-30.11c0-16.63-13.48-30.11-30.11-30.11
			H109.9"/>
		<path class="st0" d="M315.15,337.43c0,16.63,13.48,30.11,30.11,30.11c16.63,0,30.11-13.48,30.11-30.11
			c0-16.63-13.48-30.11-30.11-30.11h-93.71"/>
		<path class="st0" d="M295.89,175.26c0-16.63,13.48-30.11,30.11-30.11c16.63,0,30.11,13.48,30.11,30.11s-13.48,30.11-30.11,30.11
			h-26.45"/>
		<path class="st0" d="M363.15,241.11c0-16.63,13.48-30.11,30.11-30.11s30.11,13.48,30.11,30.11s-13.48,30.11-30.11,30.11h-93.71"/>
		<path class="st0" d="M252.69,199.86c-2.24,0-4.42,0.22-6.55,0.61c1.42-3.85,2.19-8,2.19-12.34c0-19.7-15.97-35.67-35.67-35.67
			c-12.7,0-23.84,6.64-30.16,16.63c-6.32-9.99-17.46-16.63-30.16-16.63c-19.7,0-35.67,15.97-35.67,35.67
			c0,4.34,0.78,8.49,2.19,12.34c-2.12-0.39-4.31-0.61-6.55-0.61c-19.7,0-35.67,15.97-35.67,35.67s15.97,35.67,35.67,35.67
			c19.7,0,120.68,0,140.38,0s35.67-15.97,35.67-35.67S272.39,199.86,252.69,199.86z"/>
	</g>
</g>
<g id="Text" class="st1">
</g>
</svg>
