<?xml version="1.0" encoding="utf-8"?>
<!-- Generator: Adobe Illustrator 24.1.0, SVG Export Plug-In . SVG Version: 6.00 Build 0)  -->
<svg version="1.1" xmlns="http://www.w3.org/2000/svg" xmlns:xlink="http://www.w3.org/1999/xlink" x="0px" y="0px"
	 viewBox="0 0 500 500" style="enable-background:new 0 0 500 500;" xml:space="preserve">
<style type="text/css">
	.st0{fill:none;stroke:#FFFFFF;stroke-width:16;stroke-miterlimit:10;}
	.st1{display:none;}
	.st2{display:inline;}
	.st3{fill:none;stroke:#D1D3D4;stroke-width:2;stroke-miterlimit:10;}
	.st4{display:inline;fill:none;stroke:#BCBEC0;stroke-width:4;stroke-miterlimit:10;}
	.st5{fill:none;stroke:#BCBEC0;stroke-width:4;stroke-miterlimit:10;}
	.st6{display:inline;fill:none;stroke:#D1D3D4;stroke-width:2;stroke-miterlimit:10;}
	.st7{display:none;opacity:0.35;fill:none;stroke:#000000;stroke-width:16;stroke-miterlimit:10;}
	.st8{fill:none;stroke:#FFFFFF;stroke-width:16;stroke-linejoin:bevel;stroke-miterlimit:10;}
	.st9{fill:#FFFFFF;}
	.st10{fill:none;stroke:#FFFFFF;stroke-width:16;stroke-linecap:square;stroke-miterlimit:10;}
	.st11{fill:none;stroke:#FFFFFF;stroke-width:16;stroke-linecap:round;stroke-miterlimit:10;}
	.st12{fill:none;stroke:#FFFFFF;stroke-width:8;stroke-miterlimit:10;}
</style>
<g id="Icons">
	<g>
		<g>
			<g>
				<g>
					<path class="st0" d="M73.54,372.66c1.1,11.34,10.63,19.99,22.03,19.99h92.8c11.4,0,20.93-8.65,22.03-19.99"/>
					<polygon class="st0" points="205.38,424.35 78.56,424.35 52.14,152.18 231.81,152.18 					"/>
					<line class="st0" x1="62.77" y1="223.61" x2="221.24" y2="223.61"/>
					<path class="st0" d="M162.45,333.63c-8.25,0-14.94-6.69-14.94-14.94"/>
					<path class="st0" d="M124.85,297.81c0,8.25-6.69,14.94-14.94,14.94"/>
					<path class="st0" d="M83.9,318.7c8.25,0,14.94,6.69,14.94,14.94"/>
					<path class="st0" d="M182.96,273.32c8.25,0,14.94,6.69,14.94,14.94c0,8.25-6.69,14.94-14.94,14.94"/>
					<path class="st0" d="M170.93,272.98c-8.25,0-14.94-6.69-14.94-14.94c0-8.25,6.69-14.94,14.94-14.94"/>
					<path class="st0" d="M116.47,372.66c0-8.25,6.69-14.94,14.94-14.94s14.94,6.69,14.94,14.94"/>
					<path class="st0" d="M115.53,262.81c0,8.25-6.69,14.94-14.94,14.94s-14.94-6.69-14.94-14.94"/>
					<path class="st0" d="M178.1,372.66c0-8.25,6.69-14.94,14.94-14.94"/>
					<rect x="91.74" y="346.05" class="st9" width="14.19" height="14.19"/>
					<rect x="151.64" y="290.47" class="st9" width="14.19" height="14.19"/>
					<rect x="189.04" y="239.16" class="st9" width="14.19" height="14.19"/>
					<rect x="76.8" y="237.64" class="st9" width="14.19" height="14.19"/>
					<rect x="129.21" y="272.8" class="st9" width="14.19" height="14.19"/>
					<rect x="118.18" y="328.99" class="st9" width="14.19" height="14.19"/>
					<rect x="178.48" y="322.16" class="st9" width="14.19" height="14.19"/>
					<rect x="107.62" y="237.64" class="st9" width="14.19" height="14.19"/>
				</g>
				<g>
					<path class="st0" d="M418.2,247.12c0-21.89-16.05-40.02-37.02-43.27c-5.35-18.14-22.13-31.38-42-31.38
						c-0.74,0-1.48,0.02-2.21,0.06c-8.03-9.21-19.84-15.04-33.02-15.04c-13.18,0-24.99,5.83-33.02,15.04
						c-0.73-0.04-1.47-0.06-2.21-0.06c-19.88,0-36.65,13.24-42,31.38"/>
					<path class="st0" d="M222.65,255.42h222.98c0,78.25-63.44,141.69-141.69,141.69c-36.2,0-69.23-13.58-94.28-35.92"/>
					<line class="st0" x1="218.98" y1="284.6" x2="447.86" y2="284.6"/>
					<path class="st0" d="M348.6,220.67c0,8.25-6.69,14.94-14.94,14.94"/>
					<path class="st0" d="M288.3,200.16c0-8.25,6.69-14.94,14.94-14.94c8.25,0,14.94,6.69,14.94,14.94"/>
					<path class="st0" d="M287.95,212.2c0,8.25-6.69,14.94-14.94,14.94s-14.94-6.69-14.94-14.94"/>
					
						<rect x="361.02" y="277.2" transform="matrix(6.123234e-17 -1 1 6.123234e-17 83.8258 652.4091)" class="st9" width="14.19" height="14.19"/>
					
						<rect x="305.44" y="217.3" transform="matrix(6.123234e-17 -1 1 6.123234e-17 88.1469 536.9292)" class="st9" width="14.19" height="14.19"/>
					
						<rect x="254.14" y="190.89" transform="matrix(6.123234e-17 -1 1 6.123234e-17 63.2432 459.2217)" class="st9" width="14.19" height="14.19"/>
					
						<rect x="237.16" y="228.51" transform="matrix(6.123234e-17 -1 1 6.123234e-17 8.6514 479.8681)" class="st9" width="14.19" height="14.19"/>
					
						<rect x="375" y="224.39" transform="matrix(6.123234e-17 -1 1 6.123234e-17 150.6075 613.5811)" class="st9" width="14.19" height="14.19"/>
					
						<rect x="337.14" y="190.46" transform="matrix(6.123234e-17 -1 1 6.123234e-17 146.6791 541.7879)" class="st9" width="14.19" height="14.19"/>
				</g>
			</g>
			<polyline class="st0" points="379.01,128.48 395.51,142.77 412.01,128.48 			"/>
			<polyline class="st0" points="311.15,75.65 327.65,89.94 344.15,75.65 			"/>
			<polyline class="st0" points="244.73,109.34 261.23,123.63 277.73,109.34 			"/>
			<path class="st0" d="M336.82,357.09h-39.66c-21.63,0-39.17-17.54-39.17-39.17v0h39.66C319.28,317.92,336.82,335.46,336.82,357.09
				L336.82,357.09z"/>
		</g>
	</g>
</g>
<g id="Text" class="st1">
</g>
</svg>
