<?xml version="1.0" encoding="utf-8"?>
<!-- Generator: Adobe Illustrator 24.1.0, SVG Export Plug-In . SVG Version: 6.00 Build 0)  -->
<svg version="1.1" xmlns="http://www.w3.org/2000/svg" xmlns:xlink="http://www.w3.org/1999/xlink" x="0px" y="0px"
	 viewBox="0 0 500 500" style="enable-background:new 0 0 500 500;" xml:space="preserve">
<style type="text/css">
	.st0{fill:none;stroke:#FFFFFF;stroke-width:16;stroke-miterlimit:10;}
	.st1{display:none;}
	.st2{display:inline;}
	.st3{fill:none;stroke:#D1D3D4;stroke-width:2;stroke-miterlimit:10;}
	.st4{display:inline;fill:none;stroke:#BCBEC0;stroke-width:4;stroke-miterlimit:10;}
	.st5{fill:none;stroke:#BCBEC0;stroke-width:4;stroke-miterlimit:10;}
	.st6{display:inline;fill:none;stroke:#D1D3D4;stroke-width:2;stroke-miterlimit:10;}
	.st7{display:none;opacity:0.35;fill:none;stroke:#000000;stroke-width:16;stroke-miterlimit:10;}
	.st8{fill:none;stroke:#FFFFFF;stroke-width:16;stroke-linejoin:bevel;stroke-miterlimit:10;}
	.st9{fill:#FFFFFF;}
	.st10{fill:none;stroke:#FFFFFF;stroke-width:16;stroke-linecap:square;stroke-miterlimit:10;}
	.st11{fill:none;stroke:#FFFFFF;stroke-width:16;stroke-linecap:round;stroke-miterlimit:10;}
	.st12{fill:none;stroke:#FFFFFF;stroke-width:8;stroke-miterlimit:10;}
</style>
<g id="Icons">
	<g>
		<g>
			<g>
				<path class="st0" d="M276.71,256.9l1.23-0.36c49.48-14.46,88.02-53.4,101.96-103.03l3.34-11.89
					c4.71-16.78-10.81-32.22-27.57-27.42l-13.12,3.76c-49.55,14.2-88.29,52.93-102.49,102.49l0,0c-0.95,3.32-1.3,6.59-1.14,9.75
					c0.44,8.54,4.64,16.2,10.94,21.32C256.94,257.26,266.67,259.83,276.71,256.9z"/>
				<path class="st0" d="M241.87,254.1l-1.23-0.36c-49.48-14.46-88.02-53.4-101.96-103.03l-3.34-11.89
					c-4.71-16.78,10.81-32.22,27.57-27.42l13.12,3.76c34.85,9.99,64.35,32.11,83.72,61.59"/>
				<path class="st0" d="M240.07,220.44c-6.54,24.38-10.03,50.02-10.03,76.48c0,15.49,1.2,30.69,3.5,45.52"/>
				<path class="st0" d="M258.49,253.21c-3.54,15.9-5.41,32.42-5.41,49.39c0,13.7,1.22,27.12,3.56,40.15"/>
			</g>
			<circle class="st0" cx="165.91" cy="307.61" r="24"/>
			<circle class="st0" cx="246.87" cy="398.11" r="12.93"/>
			<circle class="st0" cx="328.83" cy="421.02" r="12.93"/>
			<circle class="st0" cx="333.83" cy="337.22" r="12.93"/>
			<circle class="st0" cx="105.94" cy="350.13" r="12.93"/>
			<path class="st0" d="M377.56,124.11c-30.8,26.75-108.66,70.1-127.69,127.41"/>
			<path class="st0" d="M141.91,124.11c22.07,19.17,68.3,46.86,99.73,82.1"/>
			<line class="st0" x1="191.7" y1="121.24" x2="197.7" y2="164.54"/>
			<line class="st0" x1="229.83" y1="144.96" x2="234.83" y2="196.96"/>
			<line class="st0" x1="143.39" y1="166.34" x2="200.11" y2="167.04"/>
			<line class="st0" x1="164.95" y1="202.37" x2="239.3" y2="202.37"/>
			<line class="st0" x1="318.04" y1="127.01" x2="311.98" y2="175.91"/>
			<line class="st0" x1="270.95" y1="163.56" x2="271.76" y2="213.34"/>
			<line class="st0" x1="368.71" y1="175.92" x2="311.98" y2="175.91"/>
			<line class="st0" x1="344.21" y1="213.81" x2="269.86" y2="212.87"/>
			<path class="st0" d="M380.22,391.18c-3.98,0-7.78,0.77-11.27,2.14c-8.95-12.61-23.65-20.84-40.29-20.84
				c-7.43,0-14.48,1.65-20.8,4.59c-11.07-20.61-32.83-34.63-57.87-34.63s-46.8,14.02-57.87,34.63c-6.32-2.94-13.37-4.59-20.8-4.59
				c-16.64,0-31.34,8.23-40.29,20.84c-3.49-1.38-7.29-2.14-11.27-2.14c-16.95,0-30.69,13.74-30.69,30.69
				c0,16.95,13.74,30.69,30.69,30.69c3.98,0,7.78-0.77,11.27-2.14c8.95,12.61,23.65,20.84,40.29,20.84
				c13.57,0,25.86-5.48,34.79-14.34c11.63,10.46,27.01,16.83,43.88,16.83s32.25-6.37,43.88-16.83c8.93,8.86,21.22,14.34,34.79,14.34
				c16.64,0,31.34-8.23,40.29-20.84c3.49,1.38,7.29,2.14,11.27,2.14c16.95,0,30.69-13.74,30.69-30.69
				C410.91,404.92,397.17,391.18,380.22,391.18z"/>
		</g>
		<path class="st0" d="M370.01,67.76C336.98,41.77,295.3,26.26,250,26.26c-45.3,0-86.98,15.51-120.01,41.5"/>
	</g>
</g>
<g id="Text" class="st1">
</g>
</svg>
