<?xml version="1.0" encoding="utf-8"?>
<!-- Generator: Adobe Illustrator 24.1.0, SVG Export Plug-In . SVG Version: 6.00 Build 0)  -->
<svg version="1.1" xmlns="http://www.w3.org/2000/svg" xmlns:xlink="http://www.w3.org/1999/xlink" x="0px" y="0px"
	 viewBox="0 0 500 500" style="enable-background:new 0 0 500 500;" xml:space="preserve">
<style type="text/css">
	.st0{fill:none;stroke:#FFFFFF;stroke-width:16;stroke-miterlimit:10;}
	.st1{display:none;}
	.st2{display:inline;}
	.st3{fill:none;stroke:#D1D3D4;stroke-width:2;stroke-miterlimit:10;}
	.st4{display:inline;fill:none;stroke:#BCBEC0;stroke-width:4;stroke-miterlimit:10;}
	.st5{fill:none;stroke:#BCBEC0;stroke-width:4;stroke-miterlimit:10;}
	.st6{display:inline;fill:none;stroke:#D1D3D4;stroke-width:2;stroke-miterlimit:10;}
	.st7{display:none;opacity:0.35;fill:none;stroke:#000000;stroke-width:16;stroke-miterlimit:10;}
	.st8{fill:none;stroke:#FFFFFF;stroke-width:16;stroke-linejoin:bevel;stroke-miterlimit:10;}
	.st9{fill:#FFFFFF;}
	.st10{fill:none;stroke:#FFFFFF;stroke-width:16;stroke-linecap:square;stroke-miterlimit:10;}
	.st11{fill:none;stroke:#FFFFFF;stroke-width:16;stroke-linecap:round;stroke-miterlimit:10;}
	.st12{fill:none;stroke:#FFFFFF;stroke-width:8;stroke-miterlimit:10;}
</style>
<g id="Icons">
	<g>
		<circle class="st0" cx="345.82" cy="260.03" r="24"/>
		<circle class="st0" cx="153.73" cy="239.94" r="12.93"/>
		<path class="st8" d="M361.15,144.89c-5.44-8.6-15.22-12.78-24.69-11.51c2.77-4.05,4.4-8.95,4.4-14.23
			c0-13.94-11.3-25.24-25.24-25.24c-6.49,0-12.41,2.45-16.88,6.48c-0.74-13.28-11.74-23.82-25.2-23.82
			c-10.85,0-20.09,6.84-23.66,16.45c-3.57-9.6-12.82-16.45-23.66-16.45c-13.46,0-24.46,10.54-25.2,23.82
			c-4.47-4.03-10.39-6.48-16.88-6.48c-13.94,0-25.24,11.3-25.24,25.24c0,5.28,1.62,10.18,4.4,14.23
			c-9.46-1.26-19.24,2.92-24.69,11.51c-7.46,11.78-3.95,27.37,7.82,34.83c4.83,3.06,10.31,4.27,15.6,3.83h175.71
			c5.29,0.44,10.77-0.77,15.6-3.83C365.1,172.26,368.6,156.66,361.15,144.89z"/>
		<line class="st0" x1="233.06" y1="181.49" x2="233.06" y2="228.2"/>
		<line class="st0" x1="267.93" y1="181.49" x2="267.93" y2="228.2"/>
		<path class="st0" d="M224.2,242.02c-21.8,74.41-70.23,138.36-136.25,179.5l323.99,1.92c-65.92-41.12-114.29-106.82-136.1-181.29
			c-1.74-5.94-7.18-10.03-13.37-10.06l-24.75-0.13C231.47,231.92,225.96,236.02,224.2,242.02z"/>
		<path class="st0" d="M189.33,320l38.66-42.4c2.28-2.51,6.42-1.64,7.51,1.56l10.08,29.59c1.35,3.95,6.91,4.05,8.39,0.14
			l11.34-29.94c1.19-3.14,5.29-3.89,7.51-1.36l37.73,42.9"/>
		<line class="st0" x1="250.27" y1="343.74" x2="250.27" y2="403.96"/>
		<path class="st0" d="M282.06,327.7c12.15,26.75,28.47,50.53,48.09,69.46"/>
		<path class="st0" d="M218.36,327.7c-12.15,26.75-28.47,50.53-48.09,69.46"/>
	</g>
</g>
<g id="Text" class="st1">
</g>
</svg>
