<?xml version="1.0" encoding="utf-8"?>
<!-- Generator: Adobe Illustrator 24.1.0, SVG Export Plug-In . SVG Version: 6.00 Build 0)  -->
<svg version="1.1" xmlns="http://www.w3.org/2000/svg" xmlns:xlink="http://www.w3.org/1999/xlink" x="0px" y="0px"
	 viewBox="0 0 500 500" style="enable-background:new 0 0 500 500;" xml:space="preserve">
<style type="text/css">
	.st0{fill:none;stroke:#FFFFFF;stroke-width:16;stroke-miterlimit:10;}
	.st1{display:none;}
	.st2{display:inline;}
	.st3{fill:none;stroke:#D1D3D4;stroke-width:2;stroke-miterlimit:10;}
	.st4{display:inline;fill:none;stroke:#BCBEC0;stroke-width:4;stroke-miterlimit:10;}
	.st5{fill:none;stroke:#BCBEC0;stroke-width:4;stroke-miterlimit:10;}
	.st6{display:inline;fill:none;stroke:#D1D3D4;stroke-width:2;stroke-miterlimit:10;}
	.st7{display:none;opacity:0.35;fill:none;stroke:#000000;stroke-width:16;stroke-miterlimit:10;}
	.st8{fill:none;stroke:#FFFFFF;stroke-width:16;stroke-linejoin:bevel;stroke-miterlimit:10;}
	.st9{fill:#FFFFFF;}
	.st10{fill:none;stroke:#FFFFFF;stroke-width:16;stroke-linecap:square;stroke-miterlimit:10;}
	.st11{fill:none;stroke:#FFFFFF;stroke-width:16;stroke-linecap:round;stroke-miterlimit:10;}
	.st12{fill:none;stroke:#FFFFFF;stroke-width:8;stroke-miterlimit:10;}
</style>
<g id="Icons">
	<g>
		<g>
			<g>
				<path class="st0" d="M83.97,409.16c0.99,10.23,9.59,18.03,19.87,18.03h83.69c10.28,0,18.87-7.8,19.87-18.03"/>
				<polygon class="st0" points="202.87,455.78 88.49,455.78 64.66,210.32 226.7,210.32 				"/>
				<line class="st0" x1="74.25" y1="274.74" x2="217.17" y2="274.74"/>
			</g>
			<g>
				<g>
					<path class="st0" d="M269.58,116.48c6.89,6.89,6.89,18.06,0,24.94l0,0c-6.89,6.89-6.89,18.06,0,24.94l0,0
						c6.89,6.89,6.89,18.06,0,24.94"/>
					<path class="st0" d="M297.81,116.48c6.89,6.89,6.89,18.06,0,24.94l0,0c-6.89,6.89-6.89,18.06,0,24.94l0,0
						c6.89,6.89,6.89,18.06,0,24.94"/>
					<path class="st0" d="M326.05,116.48c6.89,6.89,6.89,18.06,0,24.94l0,0c-6.89,6.89-6.89,18.06,0,24.94l0,0
						c6.89,6.89,6.89,18.06,0,24.94"/>
				</g>
				<path class="st0" d="M409.37,302.44c0-21.37-15.67-39.07-36.15-42.25c-5.23-17.71-21.6-30.64-41.01-30.64
					c-0.72,0-1.44,0.02-2.16,0.05c-7.84-8.99-19.37-14.69-32.24-14.69c-12.87,0-24.4,5.69-32.24,14.69
					c-0.71-0.04-1.43-0.05-2.16-0.05c-19.41,0-35.78,12.93-41.01,30.64"/>
				<path class="st0" d="M214.97,310.54h221.19c0,76.4-61.94,138.34-138.34,138.34c-36.59,0-69.86-14.2-94.6-37.4"/>
				<line class="st0" x1="212.2" y1="339.03" x2="435.41" y2="339.03"/>
				<path class="st0" d="M337.23,410.22h-39.66c-21.63,0-39.17-17.54-39.17-39.17v0h39.66
					C319.69,371.05,337.23,388.59,337.23,410.22L337.23,410.22z"/>
			</g>
		</g>
		<path class="st0" d="M370.01,85.72C336.98,59.73,295.3,44.22,250,44.22c-45.3,0-86.98,15.51-120.01,41.5"/>
	</g>
</g>
<g id="Text" class="st1">
</g>
</svg>
