<?xml version="1.0" encoding="utf-8"?>
<!-- Generator: Adobe Illustrator 24.1.0, SVG Export Plug-In . SVG Version: 6.00 Build 0)  -->
<svg version="1.1" xmlns="http://www.w3.org/2000/svg" xmlns:xlink="http://www.w3.org/1999/xlink" x="0px" y="0px"
	 viewBox="0 0 500 500" style="enable-background:new 0 0 500 500;" xml:space="preserve">
<style type="text/css">
	.st0{fill:none;stroke:#FFFFFF;stroke-width:16;stroke-miterlimit:10;}
	.st1{display:none;}
	.st2{display:inline;}
	.st3{fill:none;stroke:#D1D3D4;stroke-width:2;stroke-miterlimit:10;}
	.st4{display:inline;fill:none;stroke:#BCBEC0;stroke-width:4;stroke-miterlimit:10;}
	.st5{fill:none;stroke:#BCBEC0;stroke-width:4;stroke-miterlimit:10;}
	.st6{display:inline;fill:none;stroke:#D1D3D4;stroke-width:2;stroke-miterlimit:10;}
	.st7{display:none;opacity:0.35;fill:none;stroke:#000000;stroke-width:16;stroke-miterlimit:10;}
	.st8{fill:none;stroke:#FFFFFF;stroke-width:16;stroke-linejoin:bevel;stroke-miterlimit:10;}
	.st9{fill:#FFFFFF;}
	.st10{fill:none;stroke:#FFFFFF;stroke-width:16;stroke-linecap:square;stroke-miterlimit:10;}
	.st11{fill:none;stroke:#FFFFFF;stroke-width:16;stroke-linecap:round;stroke-miterlimit:10;}
	.st12{fill:none;stroke:#FFFFFF;stroke-width:8;stroke-miterlimit:10;}
</style>
<g id="Icons">
	<g>
		<g>
			<line class="st0" x1="440.77" y1="168.91" x2="449.98" y2="164.36"/>
			<path class="st0" d="M69.8,162.58l24.87,12.58c14.48,7.32,31.55,7.4,46.1,0.22l1.59-0.78c14.71-7.27,32.01-7.1,46.58,0.46l0,0
				c14.74,7.65,32.25,7.73,47.06,0.22l0,0c9.15-4.64,19.34-6.38,29.26-5.23"/>
			<path class="st0" d="M224.28,217.45c3.95-0.93,7.83-2.33,11.53-4.21l0,0c9.15-4.64,19.34-6.38,29.26-5.23"/>
			<line class="st0" x1="69.62" y1="200.55" x2="94.49" y2="213.13"/>
			<line class="st0" x1="425.48" y1="135.56" x2="450.17" y2="123.36"/>
			<path class="st0" d="M69.99,121.58l24.87,12.58c14.48,7.32,31.55,7.4,46.1,0.22l1.59-0.78c14.71-7.27,32.01-7.1,46.58,0.46l0,0
				c14.74,7.65,32.25,7.73,47.06,0.22l0,0c14.64-7.42,31.93-7.43,46.58-0.02l1.58,0.8"/>
			<path class="st0" d="M235.63,252.16L235.63,252.16c9.15-4.64,19.34-6.38,29.26-5.23"/>
			<line class="st0" x1="69.44" y1="239.46" x2="81.58" y2="245.61"/>
		</g>
		<g>
			<polyline class="st0" points="70.98,364.67 70.98,268.14 245.9,268.14 245.9,364.67 			"/>
			<g>
				<rect x="104.47" y="298.83" class="st0" width="35.98" height="46.91"/>
				<rect x="176.43" y="298.83" class="st0" width="35.98" height="46.91"/>
			</g>
		</g>
		<g>
			<polyline class="st0" points="266.71,282.07 266.71,178.53 441.63,178.53 441.63,282.07 			"/>
			<polyline class="st10" points="269.31,167.53 297.31,122.44 411.03,122.44 439.03,167.53 			"/>
			<g>
				<rect x="300.2" y="208.23" class="st0" width="35.98" height="46.91"/>
				<rect x="372.16" y="208.23" class="st0" width="35.98" height="46.91"/>
			</g>
		</g>
		<path class="st0" d="M69.78,358.94l24.93,12.47c14.51,7.25,31.59,7.25,46.1,0l1.58-0.79c14.68-7.34,31.98-7.25,46.58,0.24l0,0
			c14.77,7.58,32.29,7.58,47.06,0l0,0c14.6-7.49,31.9-7.58,46.58-0.24l1.58,0.79c14.51,7.25,31.59,7.25,46.1,0l1.58-0.79
			c14.68-7.34,31.98-7.25,46.58,0.24l0.3,0.15c14.6,7.49,31.9,7.58,46.58,0.24l24.63-12.31"/>
		<path class="st0" d="M69.78,401.52l24.93,12.47c14.51,7.25,31.59,7.25,46.1,0l1.58-0.79c14.68-7.34,31.98-7.25,46.58,0.24h0
			c14.77,7.58,32.29,7.58,47.06,0h0c14.6-7.49,31.9-7.58,46.58-0.24l1.58,0.79c14.51,7.25,31.59,7.25,46.1,0l1.58-0.79
			c14.68-7.34,31.98-7.25,46.58,0.24l0.3,0.15c14.6,7.49,31.9,7.58,46.58,0.24l24.63-12.31"/>
		<path class="st0" d="M248.94,284.02c10.05-1.31,20.4-1.64,29.7,3.01l1.58,0.79c14.51,7.25,31.59,7.25,46.1,0l1.58-0.79
			c14.68-7.34,31.98-7.25,46.58,0.24l0.3,0.15c14.6,7.49,31.9,7.58,46.58,0.24L446,275.36"/>
		<path class="st0" d="M248.94,325.03c10.05-1.31,20.4-1.64,29.7,3.01l1.58,0.79c14.51,7.25,31.59,7.25,46.1,0l1.58-0.79
			c14.68-7.34,31.98-7.25,46.58,0.24l0.3,0.15c14.6,7.49,31.9,7.58,46.58,0.24L446,316.36"/>
		<path class="st0" d="M70.18,80.58l24.87,12.58c14.48,7.32,31.55,7.4,46.1,0.22l1.59-0.78c14.71-7.27,32.01-7.1,46.58,0.46l0,0
			c14.74,7.65,32.25,7.73,47.06,0.22l0,0c14.64-7.42,31.93-7.43,46.58-0.02l1.58,0.8c14.48,7.32,31.55,7.4,46.1,0.22l1.59-0.78
			c14.71-7.27,32.01-7.1,46.58,0.46l0.3,0.16c14.57,7.56,31.86,7.73,46.58,0.46l24.69-12.2"/>
		<polyline class="st10" points="243.3,257.14 215.3,206.04 101.58,206.04 73.58,257.14 		"/>
	</g>
</g>
<g id="Text" class="st1">
</g>
</svg>
