<?xml version="1.0" encoding="utf-8"?>
<!-- Generator: Adobe Illustrator 24.1.0, SVG Export Plug-In . SVG Version: 6.00 Build 0)  -->
<svg version="1.1" xmlns="http://www.w3.org/2000/svg" xmlns:xlink="http://www.w3.org/1999/xlink" x="0px" y="0px"
	 viewBox="0 0 500 500" style="enable-background:new 0 0 500 500;" xml:space="preserve">
<style type="text/css">
	.st0{fill:none;stroke:#FFFFFF;stroke-width:16;stroke-miterlimit:10;}
	.st1{display:none;}
	.st2{display:inline;}
	.st3{fill:none;stroke:#D1D3D4;stroke-width:2;stroke-miterlimit:10;}
	.st4{display:inline;fill:none;stroke:#BCBEC0;stroke-width:4;stroke-miterlimit:10;}
	.st5{fill:none;stroke:#BCBEC0;stroke-width:4;stroke-miterlimit:10;}
	.st6{display:inline;fill:none;stroke:#D1D3D4;stroke-width:2;stroke-miterlimit:10;}
	.st7{display:none;opacity:0.35;fill:none;stroke:#000000;stroke-width:16;stroke-miterlimit:10;}
	.st8{fill:none;stroke:#FFFFFF;stroke-width:16;stroke-linejoin:bevel;stroke-miterlimit:10;}
	.st9{fill:#FFFFFF;}
	.st10{fill:none;stroke:#FFFFFF;stroke-width:16;stroke-linecap:square;stroke-miterlimit:10;}
	.st11{fill:none;stroke:#FFFFFF;stroke-width:16;stroke-linecap:round;stroke-miterlimit:10;}
	.st12{fill:none;stroke:#FFFFFF;stroke-width:8;stroke-miterlimit:10;}
</style>
<g id="Icons">
	<g>
		<g>
			<polyline class="st0" points="80.75,191.98 83.44,162.41 416.22,192.66 401.09,369.05 			"/>
			<polyline class="st0" points="99.23,161.6 105.23,130.95 433.16,195.09 401.09,369.05 			"/>
			<rect x="65.53" y="191.86" class="st0" width="334.15" height="177.08"/>
			<g>
				<circle class="st0" cx="355.38" cy="233.44" r="13.2"/>
				<circle class="st0" cx="355.38" cy="327.37" r="13.2"/>
				<circle class="st0" cx="109.85" cy="233.44" r="13.2"/>
				<circle class="st0" cx="109.85" cy="327.37" r="13.2"/>
			</g>
			<circle class="st0" cx="232.61" cy="280.4" r="53.97"/>
			<line class="st0" x1="107" y1="246.64" x2="107" y2="311.08"/>
			<line class="st0" x1="357.33" y1="246.64" x2="357.33" y2="311.08"/>
			<line class="st0" x1="123.05" y1="233.44" x2="204.41" y2="233.44"/>
			<line class="st0" x1="123.05" y1="327.37" x2="204.41" y2="327.37"/>
			<line class="st0" x1="259.98" y1="327.37" x2="341.34" y2="327.37"/>
			<line class="st0" x1="259.98" y1="233.44" x2="341.34" y2="233.44"/>
			<circle class="st0" cx="233.61" cy="270.86" r="16.23"/>
			<g>
				<polyline class="st0" points="256.68,327.37 249.19,311.61 248.65,311.61 248.65,332 				"/>
				<polyline class="st0" points="209.88,329.37 218.03,311.61 218.57,311.61 218.57,332.53 				"/>
			</g>
		</g>
	</g>
</g>
<g id="Text" class="st1">
</g>
</svg>
