<?xml version="1.0" encoding="utf-8"?>
<!-- Generator: Adobe Illustrator 24.1.0, SVG Export Plug-In . SVG Version: 6.00 Build 0)  -->
<svg version="1.1" xmlns="http://www.w3.org/2000/svg" xmlns:xlink="http://www.w3.org/1999/xlink" x="0px" y="0px"
	 viewBox="0 0 500 500" style="enable-background:new 0 0 500 500;" xml:space="preserve">
<style type="text/css">
	.st0{fill:none;stroke:#FFFFFF;stroke-width:16;stroke-miterlimit:10;}
	.st1{display:none;}
	.st2{display:inline;}
	.st3{fill:none;stroke:#D1D3D4;stroke-width:2;stroke-miterlimit:10;}
	.st4{display:inline;fill:none;stroke:#BCBEC0;stroke-width:4;stroke-miterlimit:10;}
	.st5{fill:none;stroke:#BCBEC0;stroke-width:4;stroke-miterlimit:10;}
	.st6{display:inline;fill:none;stroke:#D1D3D4;stroke-width:2;stroke-miterlimit:10;}
	.st7{display:none;opacity:0.35;fill:none;stroke:#000000;stroke-width:16;stroke-miterlimit:10;}
	.st8{fill:none;stroke:#FFFFFF;stroke-width:16;stroke-linejoin:bevel;stroke-miterlimit:10;}
	.st9{fill:#FFFFFF;}
	.st10{fill:none;stroke:#FFFFFF;stroke-width:16;stroke-linecap:square;stroke-miterlimit:10;}
	.st11{fill:none;stroke:#FFFFFF;stroke-width:16;stroke-linecap:round;stroke-miterlimit:10;}
	.st12{fill:none;stroke:#FFFFFF;stroke-width:8;stroke-miterlimit:10;}
</style>
<g id="Icons">
	<g>
		<g>
			<circle class="st0" cx="249.17" cy="249.33" r="34.59"/>
			<ellipse class="st0" cx="250.18" cy="249.33" rx="157.53" ry="82.44"/>
			<circle class="st0" cx="249.17" cy="249.33" r="82.44"/>
			<line class="st0" x1="103.72" y1="182.23" x2="75.18" y2="153.68"/>
			<line class="st0" x1="395.64" y1="181.96" x2="424.82" y2="152.77"/>
			<line class="st0" x1="248.01" y1="142" x2="248.01" y2="104.02"/>
			<line class="st0" x1="396.28" y1="317.77" x2="424.82" y2="346.32"/>
			<line class="st0" x1="104.36" y1="318.04" x2="75.18" y2="347.23"/>
			<line class="st0" x1="251.99" y1="358" x2="251.99" y2="395.98"/>
		</g>
		<line class="st0" x1="168.91" y1="180.09" x2="93.17" y2="255.83"/>
		<line class="st0" x1="218.79" y1="167.96" x2="105.59" y2="281.16"/>
		<line class="st0" x1="257.62" y1="166.88" x2="125.73" y2="298.77"/>
		<line class="st0" x1="292.12" y1="170.13" x2="150.2" y2="312.05"/>
		<polyline class="st0" points="121.06,378.94 176.91,323.1 323.09,176.91 378.94,121.06 		"/>
	</g>
</g>
<g id="Text" class="st1">
</g>
</svg>
