<?xml version="1.0" encoding="utf-8"?>
<!-- Generator: Adobe Illustrator 24.1.0, SVG Export Plug-In . SVG Version: 6.00 Build 0)  -->
<svg version="1.1" xmlns="http://www.w3.org/2000/svg" xmlns:xlink="http://www.w3.org/1999/xlink" x="0px" y="0px"
	 viewBox="0 0 500 500" style="enable-background:new 0 0 500 500;" xml:space="preserve">
<style type="text/css">
	.st0{fill:none;stroke:#FFFFFF;stroke-width:16;stroke-miterlimit:10;}
	.st1{display:none;}
	.st2{display:inline;}
	.st3{fill:none;stroke:#D1D3D4;stroke-width:2;stroke-miterlimit:10;}
	.st4{display:inline;fill:none;stroke:#BCBEC0;stroke-width:4;stroke-miterlimit:10;}
	.st5{fill:none;stroke:#BCBEC0;stroke-width:4;stroke-miterlimit:10;}
	.st6{display:inline;fill:none;stroke:#D1D3D4;stroke-width:2;stroke-miterlimit:10;}
	.st7{display:none;opacity:0.35;fill:none;stroke:#000000;stroke-width:16;stroke-miterlimit:10;}
	.st8{fill:none;stroke:#FFFFFF;stroke-width:16;stroke-linejoin:bevel;stroke-miterlimit:10;}
	.st9{fill:#FFFFFF;}
	.st10{fill:none;stroke:#FFFFFF;stroke-width:16;stroke-linecap:square;stroke-miterlimit:10;}
	.st11{fill:none;stroke:#FFFFFF;stroke-width:16;stroke-linecap:round;stroke-miterlimit:10;}
	.st12{fill:none;stroke:#FFFFFF;stroke-width:8;stroke-miterlimit:10;}
</style>
<g id="Icons">
	<g>
		<g>
			<polygon class="st0" points="440.65,302.43 295.67,302.43 255.37,221.88 400.36,221.88 			"/>
			<polygon class="st0" points="60.36,302.43 205.34,302.43 245.63,221.88 100.65,221.88 			"/>
			<polyline class="st0" points="249.65,447.41 104.67,447.41 104.67,302.47 			"/>
			<polyline class="st0" points="394.99,302.47 394.99,447.41 250,447.41 250,221.88 			"/>
			<path class="st0" d="M275.33,87.59c-9.87,0-18.87,3.71-25.68,9.82c-6.82-6.1-15.81-9.82-25.68-9.82
				c-21.28,0-38.52,17.25-38.52,38.52c0,42.9,64.2,88.33,64.2,88.33s64.2-45.44,64.2-88.33C313.86,104.83,296.61,87.59,275.33,87.59
				z"/>
		</g>
	</g>
</g>
<g id="Text" class="st1">
</g>
</svg>
