<?xml version="1.0" encoding="utf-8"?>
<!-- Generator: Adobe Illustrator 24.1.0, SVG Export Plug-In . SVG Version: 6.00 Build 0)  -->
<svg version="1.1" xmlns="http://www.w3.org/2000/svg" xmlns:xlink="http://www.w3.org/1999/xlink" x="0px" y="0px"
	 viewBox="0 0 500 500" style="enable-background:new 0 0 500 500;" xml:space="preserve">
<style type="text/css">
	.st0{fill:none;stroke:#FFFFFF;stroke-width:16;stroke-miterlimit:10;}
	.st1{display:none;}
	.st2{display:inline;}
	.st3{fill:none;stroke:#D1D3D4;stroke-width:2;stroke-miterlimit:10;}
	.st4{display:inline;fill:none;stroke:#BCBEC0;stroke-width:4;stroke-miterlimit:10;}
	.st5{fill:none;stroke:#BCBEC0;stroke-width:4;stroke-miterlimit:10;}
	.st6{display:inline;fill:none;stroke:#D1D3D4;stroke-width:2;stroke-miterlimit:10;}
	.st7{display:none;opacity:0.35;fill:none;stroke:#000000;stroke-width:16;stroke-miterlimit:10;}
	.st8{fill:none;stroke:#FFFFFF;stroke-width:16;stroke-linejoin:bevel;stroke-miterlimit:10;}
	.st9{fill:#FFFFFF;}
	.st10{fill:none;stroke:#FFFFFF;stroke-width:16;stroke-linecap:square;stroke-miterlimit:10;}
	.st11{fill:none;stroke:#FFFFFF;stroke-width:16;stroke-linecap:round;stroke-miterlimit:10;}
	.st12{fill:none;stroke:#FFFFFF;stroke-width:8;stroke-miterlimit:10;}
</style>
<g id="Icons">
	<g>
		<circle class="st0" cx="317.5" cy="351.81" r="18.08"/>
		<path class="st0" d="M303.18,340.78c-3.31-4.29-8.49-7.05-14.32-7.05c-9.99,0-18.08,8.1-18.08,18.08s8.1,18.08,18.08,18.08
			c5.83,0,11.02-2.76,14.32-7.05"/>
		<rect x="97.86" y="237.22" class="st0" width="76.4" height="43.99"/>
		<line class="st0" x1="343.71" y1="237.22" x2="258.76" y2="237.22"/>
		<g>
			<line class="st0" x1="116.96" y1="374.1" x2="97.14" y2="374.1"/>
			<line class="st0" x1="146.03" y1="374.1" x2="126.21" y2="374.1"/>
			<line class="st0" x1="175.1" y1="374.1" x2="155.28" y2="374.1"/>
			<line class="st0" x1="204.16" y1="374.1" x2="184.34" y2="374.1"/>
		</g>
		<path class="st0" d="M104.78,204.86l11.34-79.01c1.37-9.53,10.2-16.14,19.73-14.78l267.98,38.46c9.53,1.37,16.14,10.2,14.78,19.73
			l-24.06,167.68c-1.37,9.53-10.2,16.14-19.73,14.78l0,0"/>
		<path class="st0" d="M90.14,204.86h263.74c11.55,0,20.92,9.37,20.92,20.92v162.41c0,11.55-9.37,20.92-20.92,20.92H90.14
			c-11.55,0-20.92-9.37-20.92-20.92V225.78C69.21,214.22,78.58,204.86,90.14,204.86z"/>
	</g>
</g>
<g id="Text" class="st1">
</g>
</svg>
