<?xml version="1.0" encoding="utf-8"?>
<!-- Generator: Adobe Illustrator 24.1.0, SVG Export Plug-In . SVG Version: 6.00 Build 0)  -->
<svg version="1.1" xmlns="http://www.w3.org/2000/svg" xmlns:xlink="http://www.w3.org/1999/xlink" x="0px" y="0px"
	 viewBox="0 0 500 500" style="enable-background:new 0 0 500 500;" xml:space="preserve">
<style type="text/css">
	.st0{fill:none;stroke:#FFFFFF;stroke-width:16;stroke-miterlimit:10;}
	.st1{display:none;}
	.st2{display:inline;}
	.st3{fill:none;stroke:#D1D3D4;stroke-width:2;stroke-miterlimit:10;}
	.st4{display:inline;fill:none;stroke:#BCBEC0;stroke-width:4;stroke-miterlimit:10;}
	.st5{fill:none;stroke:#BCBEC0;stroke-width:4;stroke-miterlimit:10;}
	.st6{display:inline;fill:none;stroke:#D1D3D4;stroke-width:2;stroke-miterlimit:10;}
	.st7{display:none;opacity:0.35;fill:none;stroke:#000000;stroke-width:16;stroke-miterlimit:10;}
	.st8{fill:none;stroke:#FFFFFF;stroke-width:16;stroke-linejoin:bevel;stroke-miterlimit:10;}
	.st9{fill:#FFFFFF;}
	.st10{fill:none;stroke:#FFFFFF;stroke-width:16;stroke-linecap:square;stroke-miterlimit:10;}
	.st11{fill:none;stroke:#FFFFFF;stroke-width:16;stroke-linecap:round;stroke-miterlimit:10;}
	.st12{fill:none;stroke:#FFFFFF;stroke-width:8;stroke-miterlimit:10;}
</style>
<g id="Icons">
	<g>
		<g>
			<rect x="171.91" y="102.06" class="st0" width="156.18" height="275.87"/>
			<polyline class="st0" points="329.34,198.8 426.66,198.8 426.66,377.93 329.34,377.93 			"/>
			<rect x="219.88" y="289.56" class="st0" width="60.23" height="88.36"/>
			<rect x="355.03" y="225.8" class="st0" width="45.95" height="25.13"/>
			<rect x="355.03" y="275.8" class="st0" width="45.95" height="25.13"/>
			<rect x="355.03" y="325.8" class="st0" width="45.95" height="25.13"/>
			<polyline class="st0" points="171.48,198.8 74.16,198.8 74.16,377.93 171.48,377.93 			"/>
			
				<rect x="99.84" y="225.8" transform="matrix(-1 -4.485224e-11 4.485224e-11 -1 245.6341 476.7234)" class="st0" width="45.95" height="25.13"/>
			
				<rect x="99.84" y="275.8" transform="matrix(-1 -4.485224e-11 4.485224e-11 -1 245.6341 576.7228)" class="st0" width="45.95" height="25.13"/>
			
				<rect x="99.84" y="325.8" transform="matrix(-1 -4.504986e-11 4.504986e-11 -1 245.6341 676.7222)" class="st0" width="45.95" height="25.13"/>
		</g>
		<g>
			<polygon class="st0" points="199.88,200.43 199.88,171.64 233.45,171.62 233.45,138.04 262.24,138.04 262.24,171.62 
				295.82,171.64 295.82,200.42 262.23,200.42 262.24,233.99 233.45,233.99 233.45,200.41 			"/>
		</g>
	</g>
</g>
<g id="Text" class="st1">
</g>
</svg>
