<?xml version="1.0" encoding="utf-8"?>
<!-- Generator: Adobe Illustrator 24.1.0, SVG Export Plug-In . SVG Version: 6.00 Build 0)  -->
<svg version="1.1" xmlns="http://www.w3.org/2000/svg" xmlns:xlink="http://www.w3.org/1999/xlink" x="0px" y="0px"
	 viewBox="0 0 500 500" style="enable-background:new 0 0 500 500;" xml:space="preserve">
<style type="text/css">
	.st0{fill:none;stroke:#FFFFFF;stroke-width:16;stroke-miterlimit:10;}
	.st1{display:none;}
	.st2{display:inline;}
	.st3{fill:none;stroke:#D1D3D4;stroke-width:2;stroke-miterlimit:10;}
	.st4{display:inline;fill:none;stroke:#BCBEC0;stroke-width:4;stroke-miterlimit:10;}
	.st5{fill:none;stroke:#BCBEC0;stroke-width:4;stroke-miterlimit:10;}
	.st6{display:inline;fill:none;stroke:#D1D3D4;stroke-width:2;stroke-miterlimit:10;}
	.st7{display:none;opacity:0.35;fill:none;stroke:#000000;stroke-width:16;stroke-miterlimit:10;}
	.st8{fill:none;stroke:#FFFFFF;stroke-width:16;stroke-linejoin:bevel;stroke-miterlimit:10;}
	.st9{fill:#FFFFFF;}
	.st10{fill:none;stroke:#FFFFFF;stroke-width:16;stroke-linecap:square;stroke-miterlimit:10;}
	.st11{fill:none;stroke:#FFFFFF;stroke-width:16;stroke-linecap:round;stroke-miterlimit:10;}
	.st12{fill:none;stroke:#FFFFFF;stroke-width:8;stroke-miterlimit:10;}
</style>
<g id="Icons">
	<g>
		<g>
			<path class="st0" d="M237.9,225c-18.11,0.02-32.77,14.71-32.75,32.82c0.01,6.19,1.73,11.97,4.71,16.9
				c-16.94,1.49-30.22,15.71-30.2,33.04c0.02,18.3,14.87,33.13,33.17,33.11c6.2-0.01,11.99-1.72,16.95-4.68
				c7.87,9.2,19.56,15.04,32.62,15.02c23.67-0.02,42.85-19.24,42.82-42.91c-0.01-6.84-1.63-13.31-4.48-19.04
				c7.88-6.7,12.89-16.69,12.87-27.84c-0.02-20.15-16.37-36.47-36.52-36.45c-7.46,0.01-14.39,2.26-20.17,6.11
				C251.55,227.25,244.99,225,237.9,225z"/>
			<line class="st0" x1="255.7" y1="257.28" x2="255.7" y2="452.19"/>
			<line class="st0" x1="225.57" y1="288.52" x2="255.7" y2="337.99"/>
			<line class="st0" x1="278.74" y1="268.96" x2="256.37" y2="305.69"/>
		</g>
		<polyline class="st0" points="93.04,452.45 219.51,452.45 309.54,452.45 406.96,452.45 		"/>
		<g>
			<path class="st0" d="M129.29,447.56c0-13.81,11.2-25.01,25.01-25.01s25.01,11.2,25.01,25.01"/>
			<path class="st0" d="M164.93,427.95c0-15.1,12.24-27.33,27.33-27.33c10.12,0,18.95,5.5,23.68,13.66"/>
			<path class="st0" d="M203.66,452.19c0-27.95,22.66-50.61,50.61-50.61s50.61,22.66,50.61,50.61"/>
			<path class="st0" d="M285.13,418.94c4.03-10.08,13.88-17.2,25.4-17.2c15.1,0,27.33,12.24,27.33,27.33"/>
			<path class="st0" d="M329.23,447.56c0-13.81,11.2-25.01,25.01-25.01s25.01,11.2,25.01,25.01"/>
		</g>
		<path class="st0" d="M142.13,267.38c2.23-40.11,11.05-74.8,29.96-98.02c-1.54,6.38-1.64,13.85,3.53,19.27
			c0,0.01,0.04,0.04,0.05,0.05l0.06,0.06c2.72,2.82,6.63,3.97,10.45,3.08c3.9-0.91,6.95-3.73,8.16-7.55
			c7.3-22.92,25.5-35.33,41.56-46.28c11.22-7.65,21.82-14.88,27.63-24.79c6.79-11.6,6.1-23.74-2-35.11
			c-0.13-0.18-0.26-0.37-0.4-0.55c0.64,0.27,1.3,0.55,1.96,0.85c12.75,5.83,21.96,15.17,27.36,27.77
			c7.71,17.98-0.13,34.19-7.04,48.5c-5.01,10.37-9.75,20.17-7.42,29.16c1.64,6.35,6.45,9.8,12.57,9.03
			c11.65-1.48,28.63-19.51,33.6-42.88c6.06,10.91,13.71,29.05,11.27,48.16c-0.81,6.36-3.41,13.01-7.74,19.79
			c-2.91,4.54-2.48,10.57,1.34,14.37c3.84,3.81,9.46,4.41,14.03,1.5c5.9-3.77,10.14-10.57,13.06-17.09
			c4.02,21.19,4.11,44.57,1.29,69.1C339.66,422.89,134.48,405.15,142.13,267.38z"/>
	</g>
</g>
<g id="Text" class="st1">
</g>
</svg>
