<?xml version="1.0" encoding="utf-8"?>
<!-- Generator: Adobe Illustrator 24.1.0, SVG Export Plug-In . SVG Version: 6.00 Build 0)  -->
<svg version="1.1" xmlns="http://www.w3.org/2000/svg" xmlns:xlink="http://www.w3.org/1999/xlink" x="0px" y="0px"
	 viewBox="0 0 500 500" style="enable-background:new 0 0 500 500;" xml:space="preserve">
<style type="text/css">
	.st0{fill:none;stroke:#FFFFFF;stroke-width:16;stroke-miterlimit:10;}
	.st1{display:none;}
	.st2{display:inline;}
	.st3{fill:none;stroke:#D1D3D4;stroke-width:2;stroke-miterlimit:10;}
	.st4{display:inline;fill:none;stroke:#BCBEC0;stroke-width:4;stroke-miterlimit:10;}
	.st5{fill:none;stroke:#BCBEC0;stroke-width:4;stroke-miterlimit:10;}
	.st6{display:inline;fill:none;stroke:#D1D3D4;stroke-width:2;stroke-miterlimit:10;}
	.st7{display:none;opacity:0.35;fill:none;stroke:#000000;stroke-width:16;stroke-miterlimit:10;}
	.st8{fill:none;stroke:#FFFFFF;stroke-width:16;stroke-linejoin:bevel;stroke-miterlimit:10;}
	.st9{fill:#FFFFFF;}
	.st10{fill:none;stroke:#FFFFFF;stroke-width:16;stroke-linecap:square;stroke-miterlimit:10;}
	.st11{fill:none;stroke:#FFFFFF;stroke-width:16;stroke-linecap:round;stroke-miterlimit:10;}
	.st12{fill:none;stroke:#FFFFFF;stroke-width:8;stroke-miterlimit:10;}
</style>
<g id="Icons">
	<g>
		<g>
			<path class="st0" d="M208.69,334.44l-17.02-17.02c-4.65-4.65-4.65-12.2,0-16.86l14.81-14.81"/>
			<line class="st0" x1="215.47" y1="276.77" x2="257.88" y2="234.36"/>
			<path class="st0" d="M365.05,215.72l17.02,17.02c4.65,4.65,4.65,12.2,0,16.86l-14.81,14.81"/>
			<line class="st0" x1="358.27" y1="273.39" x2="315.86" y2="315.8"/>
			<line class="st0" x1="307.39" y1="324.27" x2="296.02" y2="335.64"/>
			<circle class="st0" cx="144.52" cy="234.06" r="24"/>
			<circle class="st0" cx="365.82" cy="110" r="24"/>
			<circle class="st0" cx="359.98" cy="375.34" r="20.56"/>
			<circle class="st0" cx="192.37" cy="191.2" r="12.93"/>
			<circle class="st0" cx="316.25" cy="69.02" r="12.93"/>
			<circle class="st0" cx="396.84" cy="330.36" r="12.93"/>
			<path class="st0" d="M225.98,395.83l-61.63-61.63c-13.74-13.74-13.74-36.03,0-49.77l130.18-130.18
				c13.74-13.74,36.03-13.74,49.77,0l61.63,61.63c13.74,13.74,13.74,36.03,0,49.77L275.75,395.83
				C262,409.58,239.72,409.58,225.98,395.83z"/>
			<path class="st0" d="M208.69,378.74h-44.43c-11.15,0-20.19,9.04-20.19,20.19v4.59H111.5c-11.15,0-20.19,9.04-20.19,20.19v0
				c0,11.15,9.04,20.19,20.19,20.19h214.93c11.15,0,20.19-9.04,20.19-20.19v-4.59h32.56c11.15,0,20.19-9.04,20.19-20.19v0
				c0-11.15-9.04-20.19-20.19-20.19"/>
			<line class="st0" x1="339.66" y1="378.74" x2="292.84" y2="378.74"/>
			<path class="st0" d="M110.82,404.46c-16.4-11.93-27.06-31.27-27.06-53.1c0-36.25,29.38-65.63,65.63-65.63
				c3.96,0,7.83,0.35,11.59,1.02"/>
		</g>
	</g>
</g>
<g id="Text" class="st1">
</g>
</svg>
