<?xml version="1.0" encoding="utf-8"?>
<!-- Generator: Adobe Illustrator 24.1.0, SVG Export Plug-In . SVG Version: 6.00 Build 0)  -->
<svg version="1.1" xmlns="http://www.w3.org/2000/svg" xmlns:xlink="http://www.w3.org/1999/xlink" x="0px" y="0px"
	 viewBox="0 0 500 500" style="enable-background:new 0 0 500 500;" xml:space="preserve">
<style type="text/css">
	.st0{fill:none;stroke:#FFFFFF;stroke-width:16;stroke-miterlimit:10;}
	.st1{display:none;}
	.st2{display:inline;}
	.st3{fill:none;stroke:#D1D3D4;stroke-width:2;stroke-miterlimit:10;}
	.st4{display:inline;fill:none;stroke:#BCBEC0;stroke-width:4;stroke-miterlimit:10;}
	.st5{fill:none;stroke:#BCBEC0;stroke-width:4;stroke-miterlimit:10;}
	.st6{display:inline;fill:none;stroke:#D1D3D4;stroke-width:2;stroke-miterlimit:10;}
	.st7{display:none;opacity:0.35;fill:none;stroke:#000000;stroke-width:16;stroke-miterlimit:10;}
	.st8{fill:none;stroke:#FFFFFF;stroke-width:16;stroke-linejoin:bevel;stroke-miterlimit:10;}
	.st9{fill:#FFFFFF;}
	.st10{fill:none;stroke:#FFFFFF;stroke-width:16;stroke-linecap:square;stroke-miterlimit:10;}
	.st11{fill:none;stroke:#FFFFFF;stroke-width:16;stroke-linecap:round;stroke-miterlimit:10;}
	.st12{fill:none;stroke:#FFFFFF;stroke-width:8;stroke-miterlimit:10;}
</style>
<g id="Icons">
	<g>
		<path class="st0" d="M229.28,119.72l15.34,0c63.77,0.02,115.66,51.34,116.38,115.1l0.2,17.25c0,16.84-13.65,30.49-30.49,30.49h0
			c-16.84,0-30.49-13.65-30.49-30.49"/>
		<circle class="st0" cx="197.37" cy="209.01" r="22.58"/>
		<path class="st0" d="M145.9,164.58c-4.55,9.84-7.09,20.81-7.09,32.37"/>
		<path class="st0" d="M138.8,342.61c0,22.65,18.36,41.02,41.02,41.02h0c19.14,0,36.81-10.25,46.32-26.86
			c0,0,17.87-49.05,37.23-65.07c19.36-16.02,43.35-31.38,45.35-72.44v-14.32c0-47.04-38.14-85.18-85.18-85.18h-7.55"/>
		<path class="st0" d="M173.87,183.36c6.84-18.23,24.4-31.21,44.99-31.21h4.7c26.37,0,48.25,19.29,52.34,44.57"/>
		<path class="st0" d="M170.94,308.7v-1.01c0-12.6,6.27-24.17,16.36-31.71c6.67-4.99,10.98-12.95,10.98-21.91
			s-4.32-16.93-10.98-21.91"/>
		<path class="st0" d="M187.3,232.15c0,0-60.49-31.01-36.51-83.12c21.76-47.26,84.49-29.32,84.49-29.32
			c-94.48,0-59.94,66.46-59.94,66.46l21.54-0.05c29.31,0,51.07,13.76,51.07,43.07c0,24.91-19.54,36.25-31.19,65.45"/>
		<g>
			
				<rect x="316.66" y="258.29" transform="matrix(-1.691919e-12 -1 1 -1.691919e-12 58.3634 580.8628)" class="st9" width="5.91" height="5.91"/>
			
				<rect x="316.66" y="246.3" transform="matrix(6.123234e-17 -1 1 6.123234e-17 70.3576 568.8687)" class="st9" width="5.91" height="5.91"/>
			
				<rect x="316.66" y="234" transform="matrix(6.123234e-17 -1 1 6.123234e-17 82.6604 556.5658)" class="st9" width="5.91" height="5.91"/>
			
				<rect x="328.84" y="258.29" transform="matrix(6.123234e-17 -1 1 6.123234e-17 70.549 593.0483)" class="st9" width="5.91" height="5.91"/>
			
				<rect x="328.84" y="246.3" transform="matrix(6.123234e-17 -1 1 6.123234e-17 82.5431 581.0541)" class="st9" width="5.91" height="5.91"/>
			
				<rect x="328.84" y="234" transform="matrix(6.123234e-17 -1 1 6.123234e-17 94.846 568.7513)" class="st9" width="5.91" height="5.91"/>
			
				<rect x="341.03" y="258.29" transform="matrix(6.123234e-17 -1 1 6.123234e-17 82.7345 605.2339)" class="st9" width="5.91" height="5.91"/>
			
				<rect x="341.03" y="246.3" transform="matrix(6.123234e-17 -1 1 6.123234e-17 94.7287 593.2397)" class="st9" width="5.91" height="5.91"/>
			
				<rect x="341.03" y="234" transform="matrix(6.123234e-17 -1 1 6.123234e-17 107.0315 580.9368)" class="st9" width="5.91" height="5.91"/>
		</g>
	</g>
</g>
<g id="Text" class="st1">
</g>
</svg>
