<?xml version="1.0" encoding="utf-8"?>
<!-- Generator: Adobe Illustrator 24.1.0, SVG Export Plug-In . SVG Version: 6.00 Build 0)  -->
<svg version="1.1" xmlns="http://www.w3.org/2000/svg" xmlns:xlink="http://www.w3.org/1999/xlink" x="0px" y="0px"
	 viewBox="0 0 500 500" style="enable-background:new 0 0 500 500;" xml:space="preserve">
<style type="text/css">
	.st0{fill:none;stroke:#FFFFFF;stroke-width:16;stroke-miterlimit:10;}
	.st1{display:none;}
	.st2{display:inline;}
	.st3{fill:none;stroke:#D1D3D4;stroke-width:2;stroke-miterlimit:10;}
	.st4{display:inline;fill:none;stroke:#BCBEC0;stroke-width:4;stroke-miterlimit:10;}
	.st5{fill:none;stroke:#BCBEC0;stroke-width:4;stroke-miterlimit:10;}
	.st6{display:inline;fill:none;stroke:#D1D3D4;stroke-width:2;stroke-miterlimit:10;}
	.st7{display:none;opacity:0.35;fill:none;stroke:#000000;stroke-width:16;stroke-miterlimit:10;}
	.st8{fill:none;stroke:#FFFFFF;stroke-width:16;stroke-linejoin:bevel;stroke-miterlimit:10;}
	.st9{fill:#FFFFFF;}
	.st10{fill:none;stroke:#FFFFFF;stroke-width:16;stroke-linecap:square;stroke-miterlimit:10;}
	.st11{fill:none;stroke:#FFFFFF;stroke-width:16;stroke-linecap:round;stroke-miterlimit:10;}
	.st12{fill:none;stroke:#FFFFFF;stroke-width:8;stroke-miterlimit:10;}
</style>
<g id="Icons">
	<g>
		<g>
			<rect x="113.54" y="66.34" class="st0" width="272.91" height="313.85"/>
			<g>
				<path class="st0" d="M181.81,380.13v34.63c0,10.44-8.46,18.9-18.9,18.9h-16.85c-10.44,0-18.9-8.46-18.9-18.9v-34.63"/>
				<path class="st0" d="M372.85,380.13v34.63c0,10.44-8.46,18.9-18.9,18.9h-16.85c-10.44,0-18.9-8.46-18.9-18.9v-34.63"/>
			</g>
			<line class="st0" x1="117.08" y1="120.92" x2="382.92" y2="120.92"/>
			<line class="st0" x1="114.91" y1="284.67" x2="385.09" y2="284.67"/>
			<g>
				<circle class="st0" cx="168.13" cy="332.4" r="18.26"/>
				<circle class="st0" cx="331.87" cy="332.4" r="18.26"/>
			</g>
			<g>
				<polyline class="st0" points="112.7,166.47 88.86,166.47 70.81,184.53 				"/>
				<polyline class="st0" points="387.3,166.47 411.14,166.47 429.19,184.53 				"/>
			</g>
			<g>
				<g>
					<line class="st0" x1="212.76" y1="93.63" x2="253.51" y2="93.63"/>
				</g>
				<rect x="269.92" y="85.57" class="st9" width="16.11" height="16.11"/>
			</g>
		</g>
	</g>
</g>
<g id="Text" class="st1">
</g>
</svg>
