<?xml version="1.0" encoding="utf-8"?>
<!-- Generator: Adobe Illustrator 24.1.0, SVG Export Plug-In . SVG Version: 6.00 Build 0)  -->
<svg version="1.1" xmlns="http://www.w3.org/2000/svg" xmlns:xlink="http://www.w3.org/1999/xlink" x="0px" y="0px"
	 viewBox="0 0 500 500" style="enable-background:new 0 0 500 500;" xml:space="preserve">
<style type="text/css">
	.st0{fill:none;stroke:#FFFFFF;stroke-width:16;stroke-miterlimit:10;}
	.st1{display:none;}
	.st2{display:inline;}
	.st3{fill:none;stroke:#D1D3D4;stroke-width:2;stroke-miterlimit:10;}
	.st4{display:inline;fill:none;stroke:#BCBEC0;stroke-width:4;stroke-miterlimit:10;}
	.st5{fill:none;stroke:#BCBEC0;stroke-width:4;stroke-miterlimit:10;}
	.st6{display:inline;fill:none;stroke:#D1D3D4;stroke-width:2;stroke-miterlimit:10;}
	.st7{display:none;opacity:0.35;fill:none;stroke:#000000;stroke-width:16;stroke-miterlimit:10;}
	.st8{fill:none;stroke:#FFFFFF;stroke-width:16;stroke-linejoin:bevel;stroke-miterlimit:10;}
	.st9{fill:#FFFFFF;}
	.st10{fill:none;stroke:#FFFFFF;stroke-width:16;stroke-linecap:square;stroke-miterlimit:10;}
	.st11{fill:none;stroke:#FFFFFF;stroke-width:16;stroke-linecap:round;stroke-miterlimit:10;}
	.st12{fill:none;stroke:#FFFFFF;stroke-width:8;stroke-miterlimit:10;}
</style>
<g id="Icons">
	<g>
		<g>
			<path class="st0" d="M123.08,106.07l7.39,11.66c0,0,12.59,4.38,14.78,16.43c2.19,12.05,1.64,16.61-3.29,23.36
				c-4.93,6.75-8.76,7.44-8.76,7.44l-19.12,35.99l-19.76,15.88l9.86,18.07l-22.45,4.93l-15.33-13.69l-7.27,3.73"/>
			<path class="st0" d="M250,58.09l6.68,13.64l-19.99,27.38l-52.01,18.62l-12.59,32.94l20.81,28.32c0,0,8.76-20,15.33-21.46
				c6.57-1.46,16.54,0,16.54,0l22.05,14.07h15.06l12.36-6.97l19.95,7.31l12.59,12.59v6.88l18.62,36.92c0,0,24.64-10.4,31.76-15.88
				s7.12-5.48,7.12-5.48l-4.39-10.5l14.24-2.39l16.43,15.08l10.95,30.66l10.4-12.05l8.76-14.24l15.21-11.52"/>
			<line class="st0" x1="246.8" y1="151.39" x2="266.75" y2="142.05"/>
			<path class="st0" d="M193.43,185.62h33.95l2.74,8.46l16.69,10.7l9.87-7.12l24.36,7.12c0,0,21.9,43.09,25.19,46.73
				c3.29,3.64,24.06,8.57,24.06,8.57s-9.14,17.04-14.68,21.11s-13.75,9.55-13.75,18.85s4.38,15.88,3.29,18.62
				c-1.1,2.74-7.67,12.59-7.67,12.59l-7.12,11.37l-6.57,9.43l-1.64,6.57c0,0-1.39,15.33-20.95,19.16
				c-19.57,3.83-22.85-37.14-25.04-41.84c-2.19-4.7-2.19-16.74,1.1-24.41c3.29-7.67-6.02-14.24-9.31-20.26
				c-3.29-6.02,0.55-18.86-6.02-20.11s-19.16,3.13-28.47,2.59c-9.31-0.55-31.97-5.08-33.95-38.33
				C158.96,226.68,193.43,185.62,193.43,185.62z"/>
			<polyline class="st0" points="66.41,271.19 93.78,263.37 126.63,288.55 153.41,295.12 159.48,304.98 155.65,316.48 
				159.48,335.96 153.41,345.38 140.09,350.42 131.56,391.49 			"/>
			<path class="st0" d="M347.44,306.62l5.32,12.59l-16.43,47.63h-10.4l-5.26-13.14l6.35-11.08c0,0-3.83-10.28-2.19-12.47
				s5.44-7.67,5.44-7.67l12.9-6.02L347.44,306.62z"/>
			<circle class="st0" cx="250" cy="250" r="191.91"/>
		</g>
	</g>
</g>
<g id="Text" class="st1">
</g>
</svg>
