<?xml version="1.0" encoding="utf-8"?>
<!-- Generator: Adobe Illustrator 24.1.0, SVG Export Plug-In . SVG Version: 6.00 Build 0)  -->
<svg version="1.1" xmlns="http://www.w3.org/2000/svg" xmlns:xlink="http://www.w3.org/1999/xlink" x="0px" y="0px"
	 viewBox="0 0 500 500" style="enable-background:new 0 0 500 500;" xml:space="preserve">
<style type="text/css">
	.st0{fill:none;stroke:#FFFFFF;stroke-width:16;stroke-miterlimit:10;}
	.st1{display:none;}
	.st2{display:inline;}
	.st3{fill:none;stroke:#D1D3D4;stroke-width:2;stroke-miterlimit:10;}
	.st4{display:inline;fill:none;stroke:#BCBEC0;stroke-width:4;stroke-miterlimit:10;}
	.st5{fill:none;stroke:#BCBEC0;stroke-width:4;stroke-miterlimit:10;}
	.st6{display:inline;fill:none;stroke:#D1D3D4;stroke-width:2;stroke-miterlimit:10;}
	.st7{display:none;opacity:0.35;fill:none;stroke:#000000;stroke-width:16;stroke-miterlimit:10;}
	.st8{fill:none;stroke:#FFFFFF;stroke-width:16;stroke-linejoin:bevel;stroke-miterlimit:10;}
	.st9{fill:#FFFFFF;}
	.st10{fill:none;stroke:#FFFFFF;stroke-width:16;stroke-linecap:square;stroke-miterlimit:10;}
	.st11{fill:none;stroke:#FFFFFF;stroke-width:16;stroke-linecap:round;stroke-miterlimit:10;}
	.st12{fill:none;stroke:#FFFFFF;stroke-width:8;stroke-miterlimit:10;}
</style>
<g id="Icons">
	<g>
		<circle class="st0" cx="345.71" cy="313.47" r="23.03"/>
		<path class="st0" d="M377.43,353.21v73.3c0,17.55-14.23,31.78-31.78,31.78c-17.55,0-31.78-14.23-31.78-31.78v-73.3"/>
		<g>
			<path class="st0" d="M196.83,467.03V326.31c0-9.55,6.34-17.8,15.46-20.64c21.16-6.58,36.53-26.32,36.53-49.65
				c0-23.33-15.37-43.07-36.53-49.65c-9.12-2.84-15.46-11.09-15.46-20.64v-8.33"/>
			<circle class="st0" cx="170.86" cy="134.67" r="24"/>
			<g>
				<polyline class="st0" points="103.09,310.23 143.95,186.04 144.89,186.04 144.88,466.5 				"/>
			</g>
		</g>
		<path class="st0" d="M396.51,313.47c0,28.05-50.79,62.79-50.79,62.79s-50.79-34.74-50.79-62.79c0-28.05,50.79-70.79,50.79-70.79
			S396.51,285.41,396.51,313.47z"/>
		<path class="st0" d="M385.55,74.48c-33.04-25.99-74.71-41.5-120.01-41.5c-45.3,0-86.98,15.51-120.01,41.5"/>
	</g>
</g>
<g id="Text" class="st1">
</g>
</svg>
