<?xml version="1.0" encoding="utf-8"?>
<!-- Generator: Adobe Illustrator 24.1.0, SVG Export Plug-In . SVG Version: 6.00 Build 0)  -->
<svg version="1.1" xmlns="http://www.w3.org/2000/svg" xmlns:xlink="http://www.w3.org/1999/xlink" x="0px" y="0px"
	 viewBox="0 0 500 500" style="enable-background:new 0 0 500 500;" xml:space="preserve">
<style type="text/css">
	.st0{fill:none;stroke:#FFFFFF;stroke-width:16;stroke-miterlimit:10;}
	.st1{display:none;}
	.st2{display:inline;}
	.st3{fill:none;stroke:#D1D3D4;stroke-width:2;stroke-miterlimit:10;}
	.st4{display:inline;fill:none;stroke:#BCBEC0;stroke-width:4;stroke-miterlimit:10;}
	.st5{fill:none;stroke:#BCBEC0;stroke-width:4;stroke-miterlimit:10;}
	.st6{display:inline;fill:none;stroke:#D1D3D4;stroke-width:2;stroke-miterlimit:10;}
	.st7{display:none;opacity:0.35;fill:none;stroke:#000000;stroke-width:16;stroke-miterlimit:10;}
	.st8{fill:none;stroke:#FFFFFF;stroke-width:16;stroke-linejoin:bevel;stroke-miterlimit:10;}
	.st9{fill:#FFFFFF;}
	.st10{fill:none;stroke:#FFFFFF;stroke-width:16;stroke-linecap:square;stroke-miterlimit:10;}
	.st11{fill:none;stroke:#FFFFFF;stroke-width:16;stroke-linecap:round;stroke-miterlimit:10;}
	.st12{fill:none;stroke:#FFFFFF;stroke-width:8;stroke-miterlimit:10;}
</style>
<g id="Icons">
	<g>
		<g>
			<path class="st0" d="M254.95,189.79c2.02-14.18,8.49-27.85,19.4-38.76c26.78-26.78,70.2-26.78,96.99,0
				c26.78,26.78,26.78,70.2,0,96.99c-10.04,10.04-22.43,16.32-35.39,18.83"/>
			
				<rect x="189.54" y="219.04" transform="matrix(0.7071 0.7071 -0.7071 0.7071 257.2411 -117.6877)" class="st0" width="162.29" height="65.27"/>
			<polyline class="st0" points="279.43,307.68 162.15,410.81 111.54,360.21 214.68,242.93 			"/>
			<line class="st0" x1="139.33" y1="328.61" x2="193.75" y2="383.02"/>
			<line class="st0" x1="274.35" y1="151.02" x2="371.33" y2="248.01"/>
			<line class="st0" x1="217.28" y1="305.07" x2="193.93" y2="328.43"/>
			<line class="st0" x1="136.85" y1="385.51" x2="107.17" y2="415.18"/>
		</g>
	</g>
</g>
<g id="Text" class="st1">
</g>
</svg>
