<?xml version="1.0" encoding="utf-8"?>
<!-- Generator: Adobe Illustrator 24.1.0, SVG Export Plug-In . SVG Version: 6.00 Build 0)  -->
<svg version="1.1" xmlns="http://www.w3.org/2000/svg" xmlns:xlink="http://www.w3.org/1999/xlink" x="0px" y="0px"
	 viewBox="0 0 500 500" style="enable-background:new 0 0 500 500;" xml:space="preserve">
<style type="text/css">
	.st0{fill:none;stroke:#FFFFFF;stroke-width:16;stroke-miterlimit:10;}
	.st1{display:none;}
	.st2{display:inline;}
	.st3{fill:none;stroke:#D1D3D4;stroke-width:2;stroke-miterlimit:10;}
	.st4{display:inline;fill:none;stroke:#BCBEC0;stroke-width:4;stroke-miterlimit:10;}
	.st5{fill:none;stroke:#BCBEC0;stroke-width:4;stroke-miterlimit:10;}
	.st6{display:inline;fill:none;stroke:#D1D3D4;stroke-width:2;stroke-miterlimit:10;}
	.st7{display:none;opacity:0.35;fill:none;stroke:#000000;stroke-width:16;stroke-miterlimit:10;}
	.st8{fill:none;stroke:#FFFFFF;stroke-width:16;stroke-linejoin:bevel;stroke-miterlimit:10;}
	.st9{fill:#FFFFFF;}
	.st10{fill:none;stroke:#FFFFFF;stroke-width:16;stroke-linecap:square;stroke-miterlimit:10;}
	.st11{fill:none;stroke:#FFFFFF;stroke-width:16;stroke-linecap:round;stroke-miterlimit:10;}
	.st12{fill:none;stroke:#FFFFFF;stroke-width:8;stroke-miterlimit:10;}
</style>
<g id="Icons">
	<g>
		<path class="st0" d="M55.11,117.98h189.43c33.68,0,66.14,12.58,91.03,35.28l93.69,85.46c11.23,10.25,17.63,24.75,17.63,39.95v0
			c0,29.87-24.21,54.08-54.08,54.08H55.11"/>
		<path class="st0" d="M55.11,172.57h128.01c13.19,0,23.88,10.69,23.88,23.88v0c0,13.19-10.69,23.88-23.88,23.88H55.11"/>
		<path class="st0" d="M408.9,220.33H284.86c-13.19,0-23.88-10.69-23.88-23.88v0c0-13.19,10.69-23.88,23.88-23.88h72.04"/>
		<g>
			<g>
				<line class="st0" x1="55.11" y1="373.96" x2="207" y2="373.96"/>
				<g>
					<line class="st0" x1="134.38" y1="332.75" x2="134.38" y2="373.96"/>
					<line class="st0" x1="171.75" y1="332.75" x2="171.75" y2="373.96"/>
				</g>
			</g>
			<g>
				<line class="st0" x1="254.98" y1="373.96" x2="453.89" y2="373.96"/>
				<g>
					<line class="st0" x1="289.68" y1="332.75" x2="289.68" y2="373.96"/>
					<line class="st0" x1="327.05" y1="332.75" x2="327.05" y2="373.96"/>
				</g>
			</g>
		</g>
		<rect x="222.94" y="365.91" class="st9" width="16.11" height="16.11"/>
	</g>
</g>
<g id="Text" class="st1">
</g>
</svg>
