<?xml version="1.0" encoding="utf-8"?>
<!-- Generator: Adobe Illustrator 24.1.0, SVG Export Plug-In . SVG Version: 6.00 Build 0)  -->
<svg version="1.1" xmlns="http://www.w3.org/2000/svg" xmlns:xlink="http://www.w3.org/1999/xlink" x="0px" y="0px"
	 viewBox="0 0 500 500" style="enable-background:new 0 0 500 500;" xml:space="preserve">
<style type="text/css">
	.st0{fill:none;stroke:#FFFFFF;stroke-width:16;stroke-miterlimit:10;}
	.st1{display:none;}
	.st2{display:inline;}
	.st3{fill:none;stroke:#D1D3D4;stroke-width:2;stroke-miterlimit:10;}
	.st4{display:inline;fill:none;stroke:#BCBEC0;stroke-width:4;stroke-miterlimit:10;}
	.st5{fill:none;stroke:#BCBEC0;stroke-width:4;stroke-miterlimit:10;}
	.st6{display:inline;fill:none;stroke:#D1D3D4;stroke-width:2;stroke-miterlimit:10;}
	.st7{display:none;opacity:0.35;fill:none;stroke:#000000;stroke-width:16;stroke-miterlimit:10;}
	.st8{fill:none;stroke:#FFFFFF;stroke-width:16;stroke-linejoin:bevel;stroke-miterlimit:10;}
	.st9{fill:#FFFFFF;}
	.st10{fill:none;stroke:#FFFFFF;stroke-width:16;stroke-linecap:square;stroke-miterlimit:10;}
	.st11{fill:none;stroke:#FFFFFF;stroke-width:16;stroke-linecap:round;stroke-miterlimit:10;}
	.st12{fill:none;stroke:#FFFFFF;stroke-width:8;stroke-miterlimit:10;}
</style>
<g id="Icons">
	<g>
		<g>
			<g>
				<path class="st0" d="M160.72,358.53c0,49.48-40.11,89.58-89.58,89.58h0"/>
				<circle class="st0" cx="237.09" cy="167.15" r="24"/>
				<line class="st0" x1="237.08" y1="215.12" x2="197.08" y2="323.07"/>
				<path class="st8" d="M143.24,311.09l-11.99-70.77l74.84-32.33l-45.03,116l57.98,31.82c15.66,8.59,22.04,27.81,14.63,44.06
					l-30.59,67.12"/>
			</g>
			<g>
				<path class="st0" d="M324.53,281.62c0,37.95-31.79,68.71-71,68.71h0"/>
				<ellipse class="st0" cx="385.06" cy="134.82" rx="19.02" ry="18.41"/>
				<line class="st0" x1="390.5" y1="173.55" x2="362.01" y2="247.95"/>
				<path class="st8" d="M310.68,245.23l-9.51-54.28l59.32-24.8l-35.69,88.98l45.95,24.41c12.41,6.59,17.47,21.33,11.6,33.8
					l-24.25,51.48"/>
			</g>
		</g>
		<path class="st0" d="M423.92,74.52c-33.04-25.99-74.71-41.5-120.01-41.5c-45.3,0-86.98,15.51-120.01,41.5"/>
	</g>
</g>
<g id="Text" class="st1">
</g>
</svg>
