<?xml version="1.0" encoding="utf-8"?>
<!-- Generator: Adobe Illustrator 24.1.0, SVG Export Plug-In . SVG Version: 6.00 Build 0)  -->
<svg version="1.1" xmlns="http://www.w3.org/2000/svg" xmlns:xlink="http://www.w3.org/1999/xlink" x="0px" y="0px"
	 viewBox="0 0 500 500" style="enable-background:new 0 0 500 500;" xml:space="preserve">
<style type="text/css">
	.st0{fill:none;stroke:#FFFFFF;stroke-width:16;stroke-miterlimit:10;}
	.st1{display:none;}
	.st2{display:inline;}
	.st3{fill:none;stroke:#D1D3D4;stroke-width:2;stroke-miterlimit:10;}
	.st4{display:inline;fill:none;stroke:#BCBEC0;stroke-width:4;stroke-miterlimit:10;}
	.st5{fill:none;stroke:#BCBEC0;stroke-width:4;stroke-miterlimit:10;}
	.st6{display:inline;fill:none;stroke:#D1D3D4;stroke-width:2;stroke-miterlimit:10;}
	.st7{display:none;opacity:0.35;fill:none;stroke:#000000;stroke-width:16;stroke-miterlimit:10;}
	.st8{fill:none;stroke:#FFFFFF;stroke-width:16;stroke-linejoin:bevel;stroke-miterlimit:10;}
	.st9{fill:#FFFFFF;}
	.st10{fill:none;stroke:#FFFFFF;stroke-width:16;stroke-linecap:square;stroke-miterlimit:10;}
	.st11{fill:none;stroke:#FFFFFF;stroke-width:16;stroke-linecap:round;stroke-miterlimit:10;}
	.st12{fill:none;stroke:#FFFFFF;stroke-width:8;stroke-miterlimit:10;}
</style>
<g id="Icons">
	<g>
		<g>
			<path class="st0" d="M404.62,281.78c0-85.56-69.36-154.93-154.93-154.93S94.77,196.22,94.77,281.78v102.38h308.23L404.62,281.78z
				"/>
			<g>
				<line class="st0" x1="399.37" y1="239.82" x2="455.84" y2="393.15"/>
			</g>
			<g>
				<line class="st0" x1="100.63" y1="239.82" x2="44.16" y2="393.15"/>
			</g>
			<path class="st0" d="M376.2,385.17l1.34-103.31c0-70.47-57.12-127.59-127.59-127.59s-127.59,57.12-127.59,127.59v103.31"/>
			<line class="st0" x1="249.95" y1="127.72" x2="249.95" y2="155.71"/>
			<line class="st0" x1="140.71" y1="172.97" x2="160.5" y2="192.76"/>
			<line class="st0" x1="95.45" y1="282.21" x2="123.45" y2="282.21"/>
			<line class="st0" x1="376.46" y1="282.21" x2="404.45" y2="282.21"/>
			<line class="st0" x1="339.4" y1="192.76" x2="359.2" y2="172.97"/>
			<path class="st0" d="M299.02,385.31v-92.7c0-18.02-14.71-32.58-32.73-32.39h-32.67c-18.02-0.19-32.73,14.37-32.73,32.39l0,92.7"
				/>
			<rect x="225.96" y="200.25" class="st0" width="47.98" height="23.99"/>
			<line class="st0" x1="123.45" y1="336.18" x2="200.89" y2="336.18"/>
			<line class="st0" x1="299.94" y1="336.18" x2="377.38" y2="336.18"/>
		</g>
	</g>
</g>
<g id="Text" class="st1">
</g>
</svg>
