<?xml version="1.0" encoding="utf-8"?>
<!-- Generator: Adobe Illustrator 24.1.0, SVG Export Plug-In . SVG Version: 6.00 Build 0)  -->
<svg version="1.1" xmlns="http://www.w3.org/2000/svg" xmlns:xlink="http://www.w3.org/1999/xlink" x="0px" y="0px"
	 viewBox="0 0 500 500" style="enable-background:new 0 0 500 500;" xml:space="preserve">
<style type="text/css">
	.st0{fill:none;stroke:#FFFFFF;stroke-width:16;stroke-miterlimit:10;}
	.st1{display:none;}
	.st2{display:inline;}
	.st3{fill:none;stroke:#D1D3D4;stroke-width:2;stroke-miterlimit:10;}
	.st4{display:inline;fill:none;stroke:#BCBEC0;stroke-width:4;stroke-miterlimit:10;}
	.st5{fill:none;stroke:#BCBEC0;stroke-width:4;stroke-miterlimit:10;}
	.st6{display:inline;fill:none;stroke:#D1D3D4;stroke-width:2;stroke-miterlimit:10;}
	.st7{display:none;opacity:0.35;fill:none;stroke:#000000;stroke-width:16;stroke-miterlimit:10;}
	.st8{fill:none;stroke:#FFFFFF;stroke-width:16;stroke-linejoin:bevel;stroke-miterlimit:10;}
	.st9{fill:#FFFFFF;}
	.st10{fill:none;stroke:#FFFFFF;stroke-width:16;stroke-linecap:square;stroke-miterlimit:10;}
	.st11{fill:none;stroke:#FFFFFF;stroke-width:16;stroke-linecap:round;stroke-miterlimit:10;}
	.st12{fill:none;stroke:#FFFFFF;stroke-width:8;stroke-miterlimit:10;}
</style>
<g id="Icons">
	<g>
		<g>
			<g>
				<path class="st0" d="M241.95,54.09v115.36c0,14.16-6.16,27.62-16.87,36.88L191.9,235c-8.24,7.12-13.86,16.8-15.96,27.49
					l-4.89,24.93"/>
				<path class="st0" d="M269.05,54.09v115.36c0,14.16,6.16,27.62,16.87,36.88L319.1,235c8.24,7.12,13.86,16.8,15.96,27.49
					l4.89,24.93"/>
			</g>
			<path class="st0" d="M193.54,297.25l5.96-28.77c1.29-6.23,4.6-11.87,9.4-16.04l27.56-23.92c10.92-9.48,27.16-9.48,38.08,0
				l27.56,23.92c4.81,4.17,8.11,9.81,9.4,16.04l5.96,28.77"/>
			<g>
				<path class="st0" d="M224.48,206.33v-36.82c0-17.37-14.09-31.46-31.46-31.46h0c-7.51,0-14.77,2.69-20.47,7.57l-15.79,13.54
					c-38.69,33.16-66.71,77.02-80.55,126.06l-1.97,7c-7.07,25.04-10.65,50.94-10.65,76.96v25.28c0,17.37,14.09,31.46,31.46,31.46h0
					c9.49,0,18.87-1.93,27.59-5.66l34.05-14.58c39.44-16.89,65.01-55.67,65.01-98.58v-64.65"/>
				<path class="st0" d="M286.52,206.33v-36.82c0-17.37,14.09-31.46,31.46-31.46h0c7.51,0,14.77,2.69,20.47,7.57l15.79,13.54
					c38.69,33.16,66.71,77.02,80.55,126.06l1.97,7c7.07,25.04,10.65,50.94,10.65,76.96v25.28c0,17.37-14.09,31.46-31.46,31.46h0
					c-9.49,0-18.87-1.93-27.59-5.66l-34.05-14.58c-39.44-16.89-65.01-55.67-65.01-98.58v-64.65"/>
			</g>
		</g>
		<g>
			<rect x="395.55" y="311.83" class="st9" width="16.11" height="16.11"/>
			<rect x="373.62" y="285.26" class="st9" width="16.11" height="16.11"/>
			<rect x="363.32" y="319.88" class="st9" width="16.11" height="16.11"/>
			<rect x="363.32" y="247.88" class="st9" width="16.11" height="16.11"/>
			<rect x="399.3" y="379.81" class="st9" width="16.11" height="16.11"/>
			<rect x="358.92" y="371.76" class="st9" width="16.11" height="16.11"/>
			<rect x="323.22" y="311.83" class="st9" width="16.11" height="16.11"/>
			<rect x="339.33" y="339.89" class="st9" width="16.11" height="16.11"/>
			<rect x="347.38" y="293.31" class="st9" width="16.11" height="16.11"/>
			<rect x="379.44" y="347.95" class="st9" width="16.11" height="16.11"/>
			<rect x="411.29" y="339.89" class="st9" width="16.11" height="16.11"/>
		</g>
		<g>
			<rect x="151.55" y="311.83" class="st9" width="16.11" height="16.11"/>
			<rect x="129.62" y="285.26" class="st9" width="16.11" height="16.11"/>
			<rect x="119.32" y="319.88" class="st9" width="16.11" height="16.11"/>
			<rect x="119.32" y="247.88" class="st9" width="16.11" height="16.11"/>
			<rect x="185.49" y="309.42" class="st9" width="16.11" height="16.11"/>
			<rect x="114.92" y="371.76" class="st9" width="16.11" height="16.11"/>
			<rect x="83.34" y="383.93" class="st9" width="16.11" height="16.11"/>
			<rect x="95.33" y="339.89" class="st9" width="16.11" height="16.11"/>
			<rect x="103.38" y="293.31" class="st9" width="16.11" height="16.11"/>
			<rect x="135.44" y="347.95" class="st9" width="16.11" height="16.11"/>
			<rect x="167.29" y="339.89" class="st9" width="16.11" height="16.11"/>
		</g>
	</g>
</g>
<g id="Text" class="st1">
</g>
</svg>
