<?xml version="1.0" encoding="utf-8"?>
<!-- Generator: Adobe Illustrator 24.1.0, SVG Export Plug-In . SVG Version: 6.00 Build 0)  -->
<svg version="1.1" xmlns="http://www.w3.org/2000/svg" xmlns:xlink="http://www.w3.org/1999/xlink" x="0px" y="0px"
	 viewBox="0 0 500 500" style="enable-background:new 0 0 500 500;" xml:space="preserve">
<style type="text/css">
	.st0{fill:none;stroke:#FFFFFF;stroke-width:16;stroke-miterlimit:10;}
	.st1{display:none;}
	.st2{display:inline;}
	.st3{fill:none;stroke:#D1D3D4;stroke-width:2;stroke-miterlimit:10;}
	.st4{display:inline;fill:none;stroke:#BCBEC0;stroke-width:4;stroke-miterlimit:10;}
	.st5{fill:none;stroke:#BCBEC0;stroke-width:4;stroke-miterlimit:10;}
	.st6{display:inline;fill:none;stroke:#D1D3D4;stroke-width:2;stroke-miterlimit:10;}
	.st7{display:none;opacity:0.35;fill:none;stroke:#000000;stroke-width:16;stroke-miterlimit:10;}
	.st8{fill:none;stroke:#FFFFFF;stroke-width:16;stroke-linejoin:bevel;stroke-miterlimit:10;}
	.st9{fill:#FFFFFF;}
	.st10{fill:none;stroke:#FFFFFF;stroke-width:16;stroke-linecap:square;stroke-miterlimit:10;}
	.st11{fill:none;stroke:#FFFFFF;stroke-width:16;stroke-linecap:round;stroke-miterlimit:10;}
	.st12{fill:none;stroke:#FFFFFF;stroke-width:8;stroke-miterlimit:10;}
</style>
<g id="Icons">
	<g>
		<rect x="191.53" y="415.44" class="st0" width="215.9" height="23.99"/>
		<g>
			<rect x="191.53" y="283.5" class="st0" width="196.77" height="23.99"/>
			<g>
				<rect x="259.93" y="93.56" class="st0" width="59.97" height="107.95"/>
				<path class="st0" d="M319.9,90.56c0-16.56-13.42-29.99-29.99-29.99c-16.56,0-29.99,13.42-29.99,29.99"/>
				<path class="st0" d="M304.91,209.51c0,8.28-6.71,14.99-14.99,14.99c-8.28,0-14.99-6.71-14.99-14.99"/>
			</g>
		</g>
		<path class="st0" d="M155.4,307.49v-97.93c0-38.12,30.9-69.01,69.01-69.01h35.43V93.56h-51.01
			c-55.93,0-101.26,45.34-101.26,101.26v220.61h268.74V307.49H155.4z"/>
		<circle class="st0" cx="215.52" cy="361.53" r="26.42"/>
		<circle class="st0" cx="215.52" cy="361.53" r="53.91"/>
	</g>
</g>
<g id="Text" class="st1">
</g>
</svg>
