<?xml version="1.0" encoding="utf-8"?>
<!-- Generator: Adobe Illustrator 24.1.0, SVG Export Plug-In . SVG Version: 6.00 Build 0)  -->
<svg version="1.1" xmlns="http://www.w3.org/2000/svg" xmlns:xlink="http://www.w3.org/1999/xlink" x="0px" y="0px"
	 viewBox="0 0 500 500" style="enable-background:new 0 0 500 500;" xml:space="preserve">
<style type="text/css">
	.st0{fill:none;stroke:#FFFFFF;stroke-width:16;stroke-miterlimit:10;}
	.st1{display:none;}
	.st2{display:inline;}
	.st3{fill:none;stroke:#D1D3D4;stroke-width:2;stroke-miterlimit:10;}
	.st4{display:inline;fill:none;stroke:#BCBEC0;stroke-width:4;stroke-miterlimit:10;}
	.st5{fill:none;stroke:#BCBEC0;stroke-width:4;stroke-miterlimit:10;}
	.st6{display:inline;fill:none;stroke:#D1D3D4;stroke-width:2;stroke-miterlimit:10;}
	.st7{display:none;opacity:0.35;fill:none;stroke:#000000;stroke-width:16;stroke-miterlimit:10;}
	.st8{fill:none;stroke:#FFFFFF;stroke-width:16;stroke-linejoin:bevel;stroke-miterlimit:10;}
	.st9{fill:#FFFFFF;}
	.st10{fill:none;stroke:#FFFFFF;stroke-width:16;stroke-linecap:square;stroke-miterlimit:10;}
	.st11{fill:none;stroke:#FFFFFF;stroke-width:16;stroke-linecap:round;stroke-miterlimit:10;}
	.st12{fill:none;stroke:#FFFFFF;stroke-width:8;stroke-miterlimit:10;}
</style>
<g id="Icons">
	<g>
		<g>
			<circle class="st0" cx="152.96" cy="285.2" r="84.74"/>
			<circle class="st0" cx="152.96" cy="286.79" r="53.97"/>
			<path class="st0" d="M75.49,250.81l63.11-104.9c9.65-14.64,26.25-24.3,45.09-24.3c29.81,0,53.97,24.16,53.97,53.97l0.03,109.62"
				/>
			<g>
				<path class="st0" d="M444.82,250.81l-63.11-104.9c-9.65-14.64-26.25-24.3-45.09-24.3c-29.81,0-53.97,24.16-53.97,53.97
					l-0.03,109.62"/>
			</g>
			<circle class="st0" cx="367.35" cy="285.2" r="84.74"/>
			<path class="st0" d="M416.94,265.45c6.85,15.96,5.89,34.93-4.24,50.61c-16.17,25.04-49.58,32.24-74.62,16.07
				c-25.04-16.17-32.24-49.58-16.07-74.62c16.17-25.04,49.58-32.24,74.62-16.07"/>
			<line class="st0" x1="237.7" y1="183.25" x2="282.64" y2="183.25"/>
			<line class="st0" x1="237.7" y1="234.65" x2="282.64" y2="234.65"/>
			<line class="st0" x1="237.7" y1="260.81" x2="282.64" y2="260.81"/>
			<path class="st0" d="M191.27,118.92c3.67-8.67,12.26-14.76,22.27-14.76c13.35,0,24.16,10.82,24.16,24.16v49.59"/>
			<path class="st0" d="M329.04,118.92c-3.67-8.67-12.26-14.76-22.27-14.76c-13.35,0-24.16,10.82-24.16,24.16v49.59"/>
		</g>
	</g>
</g>
<g id="Text" class="st1">
</g>
</svg>
