<?xml version="1.0" encoding="utf-8"?>
<!-- Generator: Adobe Illustrator 25.4.1, SVG Export Plug-In . SVG Version: 6.00 Build 0)  -->
<svg version="1.1" id="Layer_1" xmlns="http://www.w3.org/2000/svg" xmlns:xlink="http://www.w3.org/1999/xlink" x="0px" y="0px"
	 viewBox="0 0 415.8 415.8" style="enable-background:new 0 0 415.8 415.8;" xml:space="preserve">
<style type="text/css">
	.st0{fill:#011E41;}
	.st1{fill:none;stroke:#011E41;stroke-miterlimit:10;}
</style>
<g>
	<path class="st0" d="M259.1,137.3c4.5-9.3,6.7-19.3,6.7-30c0-11.8-3-22-9.1-30.7c-6.1-8.7-14.6-15.4-25.5-20.2
		c-10.9-4.8-23.7-7.1-38.2-7.1c-17.4,0-32.8,3.2-46.2,9.7c-13.4,6.4-24,15.4-31.6,26.7l33,21.3c4.7-6.5,10.5-11.4,17.4-14.7
		c6.9-3.3,14.6-4.9,23.2-4.9c10.3,0,18.1,2.1,23.4,6.3c5.3,4.2,8,10.2,8,18.1c0,5.4-1.4,10.9-4.2,16.4c-2.8,5.5-8.2,12.1-16.2,19.7
		l-75.6,71.4v29.4H167l37-37h-16l45.1-42.6C245.9,157.2,254.6,146.6,259.1,137.3"/>
	<line class="st1" x1="383.8" y1="32" x2="32" y2="383.8"/>
</g>
</svg>
