<?xml version="1.0" encoding="utf-8"?>
<!-- Generator: Adobe Illustrator 25.4.1, SVG Export Plug-In . SVG Version: 6.00 Build 0)  -->
<svg version="1.1" id="Layer_1" xmlns="http://www.w3.org/2000/svg" xmlns:xlink="http://www.w3.org/1999/xlink" x="0px" y="0px"
	 viewBox="0 0 415.8 415.8" style="enable-background:new 0 0 415.8 415.8;" xml:space="preserve">
<style type="text/css">
	.st0{fill:#011E41;}
	.st1{fill:none;stroke:#011E41;stroke-miterlimit:10;}
</style>
<g>
	<path class="st0" d="M249.6,88.8l0.3-0.6c-6.7-4.3-14.9-7.6-24.5-9.9c-9.6-2.3-19.6-3.5-30.1-3.5c-19.8,0-37.2,4.1-52.2,12.3
		c-15,8.2-26.7,20.3-35.1,36.1c-8.4,15.9-12.6,34.9-12.6,57.1c0,31.2,7.7,55.2,23.2,72c7.5,8.1,16.4,14.2,26.6,18.4l27.6-27.6
		c-7.1-1-13-3.6-17.6-7.6c-6.2-5.4-9.2-12.4-9.2-21s3.2-15.6,9.5-21.1c6.3-5.5,14.5-8.3,24.4-8.3c10.1,0,18.2,2.7,24.2,8
		c3.6,3.1,5.9,6.9,7.4,11.3l31.3-31.3c-5.2-5.9-11.5-10.7-18.9-14.3c-10.3-5-21.7-7.6-34.2-7.6c-20.7,0-36.9,5.8-48.4,17.4
		c0.7-18.5,6-32.6,15.7-42.3c9.7-9.7,22.9-14.6,39.5-14.6c9.7,0,18.3,1.6,25.8,4.4L249.6,88.8z"/>
	<line class="st1" x1="383.8" y1="32" x2="32" y2="383.8"/>
</g>
</svg>
