<?xml version="1.0" encoding="utf-8"?>
<!-- Generator: Adobe Illustrator 25.4.1, SVG Export Plug-In . SVG Version: 6.00 Build 0)  -->
<svg version="1.1" id="Layer_1" xmlns="http://www.w3.org/2000/svg" xmlns:xlink="http://www.w3.org/1999/xlink" x="0px" y="0px"
	 viewBox="0 0 415.8 415.8" style="enable-background:new 0 0 415.8 415.8;" xml:space="preserve">
<style type="text/css">
	.st0{fill:#011E41;}
	.st1{fill:none;stroke:#011E41;stroke-miterlimit:10;}
</style>
<g>
	<path class="st0" d="M135.7,201.8l-17.6,34.7c9.3,6.7,20.7,11.9,34,15.5c3.1,0.8,6.2,1.6,9.3,2.2l35.1-35.1c-1.6,0.1-3,0.2-4.7,0.2
		c-10.3,0-20.3-1.5-30.1-4.6C151.8,211.8,143.2,207.4,135.7,201.8 M220.8,138l44.2-50.4V58.2H127.9v36.4h83.4L171,140.2v30h20.7
		c21,0,32.9,6,35.9,17.8l31.7-31.7C250.2,146.8,237.5,140.7,220.8,138"/>
	<line class="st1" x1="383.8" y1="32" x2="32" y2="383.8"/>
</g>
</svg>
