<?xml version="1.0" encoding="utf-8"?>
<!-- Generator: Adobe Illustrator 25.4.1, SVG Export Plug-In . SVG Version: 6.00 Build 0)  -->
<svg version="1.1" id="Layer_1" xmlns="http://www.w3.org/2000/svg" xmlns:xlink="http://www.w3.org/1999/xlink" x="0px" y="0px"
	 viewBox="0 0 415.8 415.8" style="enable-background:new 0 0 415.8 415.8;" xml:space="preserve">
<style type="text/css">
	.st0{fill:#011E41;}
	.st1{fill:none;stroke:#011E41;stroke-miterlimit:10;}
</style>
<g>
	<polygon class="st0" points="116.7,199.3 116.7,49.7 32.2,49.7 32.2,86.1 71.4,86.1 71.4,244.7 	"/>
	<path class="st0" d="M185.9,228.1l27.6-27.6c-0.8-1.1-1.6-2.2-2.4-3.4c-6.5-10.4-9.7-26.9-9.7-49.5c0-22.7,3.2-39.3,9.7-49.6
		c6.5-10.4,16.6-15.5,30.5-15.5c13.5,0,23.5,5.2,30,15.5c5,8,8.1,19.8,9.2,35.2l36.8-36.8c-3.4-8.4-7.8-15.7-13.3-22
		c-14.6-17-35.5-25.5-62.7-25.5c-27.4,0-48.4,8.5-63.1,25.5c-14.7,17-22.1,41.4-22.1,73.2c0,31.6,7.4,56,22.1,73.1
		C180.8,223.4,183.3,225.8,185.9,228.1z"/>
	<line class="st1" x1="383.8" y1="32" x2="32" y2="383.8"/>
</g>
</svg>
