<?xml version="1.0" encoding="utf-8"?>
<!-- Generator: Adobe Illustrator 25.4.1, SVG Export Plug-In . SVG Version: 6.00 Build 0)  -->
<svg version="1.1" id="Layer_1" xmlns="http://www.w3.org/2000/svg" xmlns:xlink="http://www.w3.org/1999/xlink" x="0px" y="0px"
	 viewBox="0 0 415.8 415.8" style="enable-background:new 0 0 415.8 415.8;" xml:space="preserve">
<style type="text/css">
	.st0{fill:#011E41;}
	.st1{fill:none;stroke:#011E41;stroke-miterlimit:10;}
</style>
<g>
	<path class="st0" d="M150.8,177.6c22,0,38.1-7.9,48.3-23.6c0.4,18.3-3.5,32.6-11.6,42.9c-8.1,10.3-20.2,15.4-36.3,15.4
		c-7.4,0-14.7-1.1-21.8-3.2c-7.1-2.1-13.5-5.2-19.3-9.3l-16.4,31.1c7.9,4.8,17.4,8.6,28.3,11.5c10.9,2.9,21.4,4.3,31.6,4.3
		c5.6,0,10.9-0.4,16.1-1.3l66.5-66.5c2.6-10.7,3.9-22.3,3.9-34.8c0-19.6-3.2-36.6-9.7-50.9c-6.5-14.3-15.8-25.3-28-33
		c-12.2-7.7-26.6-11.5-43.3-11.5c-14.1,0-26.3,2.7-36.9,8c-10.5,5.4-18.7,13-24.4,23c-5.7,10-8.6,21.6-8.6,34.9
		c0,19,5.5,34.3,16.6,45.8C117,171.9,132,177.6,150.8,177.6z M137.5,92.2c5.7-5.4,13.6-8,23.6-8c10.7,0,18.9,2.9,24.4,8.7
		c5.5,5.8,8.3,12.9,8.3,21.2c0,8.9-3,16.2-9,22c-6,5.8-14.3,8.7-24.8,8.7c-9.6,0-17.2-2.7-22.7-8c-5.5-5.4-8.3-12.7-8.3-21.9
		C128.9,105.1,131.8,97.5,137.5,92.2z"/>
	<line class="st1" x1="383.8" y1="32" x2="32" y2="383.8"/>
</g>
</svg>
