<?xml version="1.0" encoding="utf-8"?>
<!-- Generator: Adobe Illustrator 25.4.1, SVG Export Plug-In . SVG Version: 6.00 Build 0)  -->
<svg version="1.1" id="Layer_1" xmlns="http://www.w3.org/2000/svg" xmlns:xlink="http://www.w3.org/1999/xlink" x="0px" y="0px"
	 viewBox="0 0 415.8 415.8" style="enable-background:new 0 0 415.8 415.8;" xml:space="preserve">
<style type="text/css">
	.st0{fill:#011E41;}
	.st1{fill:none;stroke:#011E41;stroke-miterlimit:10;}
</style>
<g>
	<path class="st0" d="M170.5,89.8h81.8V53.4H132.7l-10.1,110.3h50.1c16.8,0,28.6,2.2,35.4,6.4c6.8,4.3,10.2,10.6,10.2,19
		c0,8-3.3,14.3-9.8,18.8c-6.5,4.5-15.5,6.7-26.9,6.7c-10.3,0-20.3-1.5-30-4.6c-9.7-3.1-18.3-7.4-25.8-13L108,231.8
		c9.3,6.7,20.7,11.9,34,15.5c7.8,2.1,15.8,3.6,23.8,4.4l91.9-91.9c-3.2-6.1-7.6-11.5-13.2-16.3c-13.2-11-33.6-16.5-61.2-16.5h-16
		L170.5,89.8z"/>
	<line class="st1" x1="383.8" y1="32" x2="32" y2="383.8"/>
</g>
</svg>
