<?xml version="1.0" encoding="utf-8"?>
<!-- Generator: Adobe Illustrator 25.4.1, SVG Export Plug-In . SVG Version: 6.00 Build 0)  -->
<svg version="1.1" id="Layer_1" xmlns="http://www.w3.org/2000/svg" xmlns:xlink="http://www.w3.org/1999/xlink" x="0px" y="0px"
	 viewBox="0 0 415.8 415.8" style="enable-background:new 0 0 415.8 415.8;" xml:space="preserve">
<style type="text/css">
	.st0{fill:#011E41;}
	.st1{fill:none;stroke:#011E41;stroke-miterlimit:10;}
</style>
<g>
	<path class="st0" d="M123.8,158.8c-6.7,9-10,19-10,30.1c0,11.3,3.1,21.1,9.4,29.5c6.3,8.4,15.2,14.9,26.8,19.4
		c6.6,2.6,13.8,4.4,21.7,5.5l33.4-33.4c-4.3,1.1-9.2,1.7-14.7,1.7c-11.3,0-20-2.4-26.2-7.2c-6.2-4.8-9.3-11.6-9.3-20.2
		c0-8.7,3.1-15.3,9.3-20c6.2-4.6,14.9-6.9,26.2-6.9c11.3,0,20.1,2.4,26.3,7.1c6.3,4.7,9.4,11.4,9.4,20.1c0,1.7-0.1,3.3-0.4,4.8
		l31.5-31.5c-6.2-8.4-14.7-14.6-25.3-18.8c7.8-4.3,13.9-9.9,18.4-17.1c4.5-7.1,6.8-14.9,6.8-23.4c0-15.9-6-28.5-18-37.9
		c-12-9.3-28.4-14-49.1-14c-20.3,0-36.5,4.5-48.5,13.6c-12,9.1-18,21.3-18,36.6c0,8.7,2.4,16.7,7.4,24.1c4.9,7.4,11.6,13.4,20.1,18
		C139.5,143.2,130.4,149.8,123.8,158.8z M168,83.1c5.3-4.2,12.7-6.2,22.3-6.2c9.6,0,17.1,2.1,22.3,6.2s7.9,10,7.9,17.6
		c0,7.6-2.6,13.4-7.9,17.5c-5.3,4.1-12.7,6.1-22.3,6.1c-9.6,0-17.1-2.1-22.3-6.2c-5.3-4.2-7.9-9.9-7.9-17.3
		C160.1,93.1,162.7,87.2,168,83.1z"/>
	<line class="st1" x1="383.8" y1="32" x2="32" y2="383.8"/>
</g>
</svg>
